<svg xmlns="http://www.w3.org/2000/svg" viewBox="0 0 512.56 513.64"><defs><style>.cls-1{fill:#fff;}</style></defs><g id="Layer_2" data-name="Layer 2"><g id="Capa_1" data-name="Capa 1"><path class="cls-1" d="M499.12,377l-71.68-71.68c-25.6-25.6-69.12-15.36-79.36,17.92-7.68,23-33.28,35.84-56.32,30.72-51.2-12.8-120.32-79.36-133.12-133.12-7.68-23,7.68-48.64,30.72-56.32,33.28-10.24,43.52-53.76,17.92-79.36L135.6,13.44c-20.48-17.92-51.2-17.92-69.12,0L17.84,62.08C-30.8,113.28,23,249,143.28,369.28s256,176.64,307.2,125.44l48.64-48.64C517,425.6,517,394.88,499.12,377Z"/></g></g></svg>