<?xml version="1.0" encoding="UTF-8" standalone="no"?>
<!-- Created with Inkscape (http://www.inkscape.org/) -->

<svg
   width="43.842155mm"
   height="42.283062mm"
   viewBox="0 0 43.842155 42.283062"
   version="1.1"
   id="svg1"
   xmlns="http://www.w3.org/2000/svg"
   xmlns:svg="http://www.w3.org/2000/svg">
  <defs
     id="defs1">
    <filter
       style="color-interpolation-filters:sRGB"
       id="filter2"
       x="-0.058781273"
       y="-0.061309393"
       width="1.1595492"
       height="1.1664112">
      <feFlood
         result="flood"
         in="SourceGraphic"
         flood-opacity="0.498039"
         flood-color="rgb(0,0,0)"
         id="feFlood1" />
      <feGaussianBlur
         result="blur"
         in="SourceGraphic"
         stdDeviation="3.500000"
         id="feGaussianBlur1" />
      <feOffset
         result="offset"
         in="blur"
         dx="6.000000"
         dy="6.000000"
         id="feOffset1" />
      <feComposite
         result="comp1"
         operator="in"
         in="flood"
         in2="offset"
         id="feComposite1" />
      <feComposite
         result="comp2"
         operator="over"
         in="SourceGraphic"
         in2="comp1"
         id="feComposite2" />
    </filter>
  </defs>
  <g
     id="layer1"
     transform="translate(-83.237917,-127.9525)">
    <g
       id="g1380"
       transform="matrix(0.26458333,0,0,0.26458333,-92.639673,-93.16244)"
       style="filter:url(#filter2)">
      <path
         class="uuid-fa854ba6-01a3-466e-8ba2-f49efd3c3140"
         d="m 814.68,898.75 c -0.37,-2.09 -0.77,-3.96 -1.23,-5.71 -2.85,-10.93 -9.17,-20.28 -18.3,-27.04 -8.55,-6.33 -19,-9.82 -29.42,-9.83 -6.64,0 -12.95,1.37 -18.69,4 0.43,-2.18 0.66,-4.33 -0.02,-6.72 -1.12,-3.95 -4.03,-6.14 -6.73,-7.77 -1.73,-1.04 -3.55,-1.57 -5.41,-1.57 v 0 c -2.79,0 -5.35,1.19 -7.22,3.34 -2.21,2.56 -4.2,6.37 -3.02,20.46 -1.22,-0.1 -2.44,-0.15 -3.67,-0.15 -14.26,0 -28.26,6.97 -37.45,18.64 -9.24,11.73 -12.53,26.86 -9,41.5 3.47,14.39 11.65,27.69 23.04,37.45 11.86,10.17 26.46,15.77 41.12,15.77 7.41,0 14.77,-1.39 21.91,-4.15 12.69,-1.28 24.33,-6.45 33.73,-15.01 9.05,-8.24 15.62,-19.17 19,-31.62 3.07,-10.26 3.55,-21.17 1.38,-31.57 z"
         id="path1376"
         style="fill:#ffffff;stroke-width:0px" />
      <g
         id="g1379">
        <path
           class="uuid-50a3075c-11d0-458b-a95e-1b6335a4071a"
           d="m 737.89,899.38 c -1.73,-5.88 -10.55,-52.17 -1.72,-46.85 8.84,5.32 -3.66,3.87 2.51,49.54 z"
           id="path1377"
           style="fill:#603813;stroke-width:0px" />
        <path
           class="uuid-a4db9f68-8812-465a-bedb-5f87680ed4d8"
           d="m 805.72,895.06 c 9.01,34.57 -11.64,71.18 -47.02,74.03 -34.53,14.06 -68.65,-10.9 -76.41,-43.08 -7.89,-32.76 25.24,-59.9 53.81,-46.97 20.13,-26.66 61.5,-15.17 69.62,16.02 z"
           id="path1378"
           style="fill:#ed1c24;stroke-width:0px" />
        <path
           class="uuid-c26a5bd8-0e6e-40ec-aa0f-9c0c25911c3d"
           d="M 806.28,897.86 C 803,885.13 793.21,876.15 781.6,872.34 c 4.4,4.51 7.8,10.25 9.54,17 8.08,31.49 -10.03,64.72 -41.29,67.19 -25.68,10.68 -51.22,-3.87 -62.78,-26.27 7.9,28.34 39.72,49.32 72.55,36.16 34.21,-3.22 54.76,-37.08 46.65,-68.56 z"
           id="path1379"
           style="fill:#dd142c;stroke-width:0px" />
      </g>
    </g>
  </g>
</svg>
