<?xml version="1.0" encoding="UTF-8" standalone="no"?>
<!-- Created with Inkscape (http://www.inkscape.org/) -->

<svg
   width="73.970795mm"
   height="54.766109mm"
   viewBox="0 0 73.970795 54.766109"
   version="1.1"
   id="svg1"
   xmlns="http://www.w3.org/2000/svg"
   xmlns:svg="http://www.w3.org/2000/svg">
  <defs
     id="defs1">
    <filter
       style="color-interpolation-filters:sRGB"
       id="filter2"
       x="-0.0327135"
       y="-0.045605082"
       width="1.0887938"
       height="1.1237852">
      <feFlood
         result="flood"
         in="SourceGraphic"
         flood-opacity="0.498039"
         flood-color="rgb(0,0,0)"
         id="feFlood1" />
      <feGaussianBlur
         result="blur"
         in="SourceGraphic"
         stdDeviation="3.500000"
         id="feGaussianBlur1" />
      <feOffset
         result="offset"
         in="blur"
         dx="6.000000"
         dy="6.000000"
         id="feOffset1" />
      <feComposite
         result="comp1"
         operator="in"
         in="flood"
         in2="offset"
         id="feComposite1" />
      <feComposite
         result="comp2"
         operator="over"
         in="SourceGraphic"
         in2="comp1"
         id="feComposite2" />
    </filter>
  </defs>
  <g
     id="layer1"
     transform="translate(-68.156671,-121.60251)">
    <g
       id="g1413"
       transform="matrix(0.26458333,0,0,0.26458333,-118.80491,52.048833)"
       style="filter:url(#filter2)">
      <path
         class="uuid-fa854ba6-01a3-466e-8ba2-f49efd3c3140"
         d="m 961.97,343.78 c -0.33,-0.36 -0.98,-1.08 -1.63,-1.8 0.04,-0.43 0.08,-0.83 0.1,-1.08 0.46,-4.79 0.98,-10.21 -2.47,-15.3 -0.49,-0.73 -1.06,-1.42 -1.68,-2.04 -2.61,-2.65 -6.29,-4.19 -10.06,-4.19 -0.75,0 -1.51,0.06 -2.25,0.18 -6.1,0.99 -16.5,5.14 -31.31,11.52 -0.91,0.39 -1.75,0.75 -2.41,1.04 -5.5,-5.05 -12.41,-10.59 -20.09,-16.13 -0.07,-1.72 -0.56,-3.12 -1.03,-4.09 -0.19,-0.39 -0.41,-0.77 -0.66,-1.13 0.64,-0.56 1.24,-1.15 1.79,-1.75 0.06,-0.07 0.12,-0.14 0.18,-0.21 5.67,-6.66 4.4,-12.23 3.14,-14.96 -2.34,-5.05 -8.14,-8.07 -15.53,-8.07 -1.56,0 -3.14,0.14 -4.7,0.4 -0.58,0.1 -1.86,0.26 -3.33,0.45 -4.66,0.6 -12.97,1.67 -22.38,3.63 -17.95,-8.95 -43.01,-18.97 -65.24,-18.97 v 0 c -11.62,0 -21.49,2.73 -29.32,8.12 -7.13,4.9 -12.47,11.89 -15.95,20.83 -0.93,-0.05 -1.93,-0.08 -2.95,-0.08 -6.43,0 -11.25,1.21 -14.73,3.69 -0.82,0.59 -1.52,1.32 -2.07,2.17 -1.62,2.51 -2.07,5.56 -1.25,8.59 0.58,2.17 1.78,4.21 3.33,6.05 -1.84,1.99 -3.3,4.24 -3.99,6.67 -0.89,3.1 -0.46,6.23 1.2,8.79 0.55,0.85 1.25,1.58 2.07,2.17 3.36,2.4 7.98,3.61 14.09,3.69 0.47,5.76 1.26,11.88 2.37,18.28 0.1,0.56 0.25,1.1 0.46,1.62 10.02,24.88 31.26,40.7 60.23,45.09 0.09,5.87 0.15,11.88 0,16.42 l -13.14,-0.22 c -0.06,0 -0.13,0 -0.18,0 -5.28,0 -9.65,4.34 -9.75,9.67 -0.07,4.03 2.23,7.46 5.65,9 -0.25,1.86 0.03,3.82 0.92,5.65 1.62,3.35 5.07,5.52 8.78,5.52 0.01,0 0.03,0 0.04,0 1.55,0 3.09,-0.38 4.46,-1.09 2.33,-1.21 4.65,-2.42 6.96,-3.63 l 2.38,-1.24 c 0.14,0.98 0.44,1.97 0.9,2.91 1.63,3.36 5.08,5.52 8.79,5.52 1.6,0 3.15,-0.39 4.53,-1.11 2.27,-1.18 4.58,-2.38 6.88,-3.59 1.38,-0.72 2.77,-1.45 4.15,-2.17 0.8,-0.42 1.58,-0.9 2.32,-1.37 0.39,-0.24 0.94,-0.59 1.41,-0.86 0.18,0.08 0.37,0.17 0.54,0.24 1.63,0.74 4.1,1.86 7.27,1.86 2.19,0 4.35,-0.53 6.42,-1.59 2.17,-1.1 3.72,-3.13 4.21,-5.51 0.49,-2.38 -0.12,-4.86 -1.68,-6.73 -2.4,-2.9 -5.45,-4.21 -7.67,-5.18 -0.14,-0.06 -0.3,-0.13 -0.46,-0.2 0,-0.36 -0.01,-0.71 -0.01,-1 0,-0.84 -0.01,-1.71 -0.08,-2.54 -0.51,-6.13 -0.86,-12.72 -1.07,-20.14 25.72,-5.09 50.85,-17.42 69.07,-33.94 7.89,1.52 18.45,2.66 26.54,3.39 8.54,0.77 14.76,1.15 19.01,1.15 7.04,0 9.78,-1.02 12.65,-3.02 3.85,-2.69 6.12,-7.1 6.06,-11.79 -0.08,-6.93 -4.39,-11.65 -9.83,-17.63 z m -142.57,82.1 -3.31,-0.06 c 0,-0.84 -0.02,-1.72 -0.09,-2.55 -0.39,-4.7 -0.68,-9.67 -0.89,-15.07 1.41,-0.03 2.84,-0.08 4.27,-0.16 0.1,6.32 0.18,12.94 0.02,17.84 z"
         id="path1402"
         style="fill:#ffffff;stroke-width:0px" />
      <g
         id="g1412">
        <path
           class="uuid-cacbb632-8200-4389-8883-8edc2660a813"
           d="m 806.12,433.65 20.51,0.35 c 2.53,-11.06 -1.86,-57.68 2.94,-68.49 0.41,-0.92 1.45,-1.32 2.33,-0.89 0.88,0.42 1.47,1.51 1.06,2.43 -4.8,10.8 -2.84,26.85 -2.52,38.33 0.2,7.02 0.53,14.04 1.11,21.04 0.15,1.87 -0.16,5.48 0.71,7.15 1.64,3.12 6.83,3.21 9.33,6.22 -4.58,2.32 -7.04,-1.71 -11.08,-1.61 -2.15,0.05 -5.07,2.37 -6.96,3.36 -3.68,1.92 -7.37,3.85 -11.06,5.77 -0.25,0.13 -0.54,0.2 -0.81,0.2 -0.65,0 -1.28,-0.36 -1.6,-1.01 -0.44,-0.9 -0.09,-2 0.78,-2.46 l 12.56,-6.57 -17.38,-0.26 c -0.97,-0.02 -1.74,-0.73 -1.73,-1.74 0.02,-1.01 0.83,-1.83 1.79,-1.81 z"
           id="path1403"
           style="fill:#fbb03b;stroke-width:0px" />
        <path
           class="uuid-cacbb632-8200-4389-8883-8edc2660a813"
           d="m 782.6,431.18 20.51,0.35 c 2.53,-11.06 -1.86,-57.68 2.94,-68.49 0.41,-0.92 1.45,-1.31 2.33,-0.89 0.88,0.42 1.47,1.51 1.06,2.43 -4.8,10.8 -2.84,26.85 -2.52,38.33 0.2,7.02 0.53,14.04 1.1,21.03 0.16,1.87 -0.16,5.48 0.72,7.15 1.63,3.12 6.83,3.21 9.33,6.22 -4.58,2.32 -7.04,-1.71 -11.08,-1.61 -2.15,0.05 -5.06,2.37 -6.96,3.36 -3.69,1.92 -7.37,3.85 -11.06,5.77 -0.25,0.13 -0.54,0.19 -0.81,0.19 -0.64,0 -1.28,-0.37 -1.59,-1.01 -0.44,-0.9 -0.09,-2 0.77,-2.46 l 12.56,-6.57 -17.38,-0.26 c -0.97,-0.02 -1.74,-0.73 -1.73,-1.74 0.02,-1.01 0.83,-1.83 1.79,-1.81 z"
           id="path1404"
           style="fill:#fbb03b;stroke-width:0px" />
        <path
           class="uuid-cacbb632-8200-4389-8883-8edc2660a813"
           d="m 905.31,342.29 c 2.39,-0.54 4.08,-1.19 6.64,-2.22 0.67,-0.27 2.09,-0.88 3.88,-1.65 11.16,-4.81 23.57,-10.02 29.42,-10.97 1.99,-0.32 3.99,0.35 5.38,1.76 0.26,0.27 0.51,0.56 0.72,0.88 1.83,2.7 1.52,5.94 1.13,10.04 -0.13,1.37 -0.34,3.58 -0.27,4.61 0.71,0.99 2.57,3.03 3.84,4.43 5.06,5.55 7.7,8.63 7.75,12.33 0.02,2.04 -0.96,3.97 -2.64,5.14 -1.94,1.35 -3.62,2.52 -26.37,0.47 -9.42,-0.85 -31.89,-3.16 -34.95,-6.27 -0.86,-0.87 -1.58,-1.92 -2.13,-3.09 -0.85,-1.84 -0.75,-3.97 0.27,-5.71 0.1,-0.23 0.28,-0.76 0.42,-1.14 0.68,-1.94 1.55,-4.41 3.34,-6.29 0.85,-1.13 2.1,-1.97 3.57,-2.31 z"
           id="path1405"
           style="fill:#fbb03b;stroke-width:0px" />
        <path
           class="uuid-cacbb632-8200-4389-8883-8edc2660a813"
           d="m 724.09,310.38 c 5.25,-3.75 17.91,-1.58 17.91,-1.58 0.32,-0.18 3.3,0.16 4.11,0.93 1.64,3.93 -1.64,5.69 -2.39,9.48 -2.02,10.12 -23.02,-3.58 -19.63,-8.82 z"
           id="path1406"
           style="fill:#fbb03b;stroke-width:0px" />
        <path
           class="uuid-cacbb632-8200-4389-8883-8edc2660a813"
           d="m 723.37,331.8 c 5.25,3.75 17.91,1.58 17.91,1.58 0.32,0.18 3.29,-0.16 4.11,-0.93 1.64,-3.93 -1.64,-5.69 -2.39,-9.48 -2.02,-10.12 -23.02,3.58 -19.63,8.82 z"
           id="path1407"
           style="fill:#fbb03b;stroke-width:0px" />
        <path
           class="uuid-96726709-5a55-4d9a-890c-fbeaf86af8e9"
           d="m 743.07,358.91 c 26.45,65.66 133.6,45.66 172.77,-8.29 -14.34,-27.78 -200.25,-150.23 -172.77,8.29 z"
           id="path1408"
           style="fill:#17c5c9;stroke-width:0px" />
        <g
           id="g1411">
          <path
             class="uuid-bca0f097-db33-47ba-8d11-cf195b7c8759"
             d="m 753.97,316.43 c -0.15,3.68 2.55,7.14 6.05,7.3 3.5,0.16 6.49,-3.03 6.64,-6.71 0.16,-3.68 -2.54,-7.14 -6.05,-7.3 -3.51,-0.16 -6.49,3.04 -6.64,6.71 z"
             id="path1409"
             style="stroke-width:0px" />
          <path
             class="uuid-fa854ba6-01a3-466e-8ba2-f49efd3c3140"
             d="m 761.76,321.15 c -0.02,0.5 0.35,0.91 0.82,0.94 0.47,0.02 0.87,-0.36 0.89,-0.86 0.02,-0.5 -0.35,-0.92 -0.82,-0.94 -0.48,-0.02 -0.87,0.36 -0.9,0.86 z"
             id="path1410"
             style="fill:#ffffff;stroke-width:0px" />
          <path
             class="uuid-fa854ba6-01a3-466e-8ba2-f49efd3c3140"
             d="m 757.58,312.75 c -0.03,0.7 0.48,1.29 1.15,1.32 0.67,0.03 1.23,-0.51 1.26,-1.21 0.03,-0.7 -0.48,-1.29 -1.15,-1.32 -0.66,-0.03 -1.23,0.51 -1.26,1.21 z"
             id="path1411"
             style="fill:#ffffff;stroke-width:0px" />
        </g>
        <path
           class="uuid-cacbb632-8200-4389-8883-8edc2660a813"
           d="m 874.71,294.08 c 7.8,-1.34 16.07,2.01 9.65,9.56 -3.99,4.37 -13.75,8.36 -17.85,11.16 3.39,-1.3 12.59,-2.19 15.43,0.58 1.8,3.72 -7.47,9.69 -14.8,14.38 3.01,-0.62 6.07,-0.32 9.19,0.92 3.48,4.98 -7.47,14.22 -32.59,23.73 -3.67,1.39 -27.7,11.18 -49.23,-10.05 -7.63,-42.64 71.4,-48.78 80.21,-50.29 z"
           id="path1412"
           style="fill:#fbb03b;stroke-width:0px" />
      </g>
    </g>
  </g>
</svg>
