<?xml version="1.0" encoding="UTF-8" standalone="no"?>
<!-- Created with Inkscape (http://www.inkscape.org/) -->

<svg
   version="1.1"
   id="svg1"
   width="543.04199"
   height="496.22272"
   viewBox="0 0 543.04199 496.22271"
   xmlns="http://www.w3.org/2000/svg"
   xmlns:svg="http://www.w3.org/2000/svg">
  <defs
     id="defs1">
    <clipPath
       clipPathUnits="userSpaceOnUse"
       id="clipPath918">
      <path
         d="M 0,2000 H 2864.258 V 0 H 0 Z"
         transform="translate(-1047.1836,-1184.0357)"
         id="path918" />
    </clipPath>
    <clipPath
       clipPathUnits="userSpaceOnUse"
       id="clipPath920">
      <path
         d="M 0,2000 H 2864.258 V 0 H 0 Z"
         transform="translate(-1081.5571,-1144.4736)"
         id="path920" />
    </clipPath>
    <clipPath
       clipPathUnits="userSpaceOnUse"
       id="clipPath922">
      <path
         d="M 0,2000 H 2864.258 V 0 H 0 Z"
         transform="translate(-987.19382,-991.68652)"
         id="path922" />
    </clipPath>
    <clipPath
       clipPathUnits="userSpaceOnUse"
       id="clipPath923">
      <path
         d="m 901.429,1161.47 h 98.502 v -129.23 h -98.502 z"
         transform="translate(-940.91065,-1161.1217)"
         id="path923" />
    </clipPath>
    <clipPath
       clipPathUnits="userSpaceOnUse"
       id="clipPath925">
      <path
         d="M 0,2000 H 2864.258 V 0 H 0 Z"
         transform="matrix(1.3333333,0,0,-1.3333333,0,2666.6667)"
         id="path925" />
    </clipPath>
    <clipPath
       clipPathUnits="userSpaceOnUse"
       id="clipPath926">
      <path
         d="m 1040.02,1073.71 h 120.52 v -76.714 h -120.52 z"
         transform="translate(-1062.7192,-1002.8306)"
         id="path926" />
    </clipPath>
    <clipPath
       clipPathUnits="userSpaceOnUse"
       id="clipPath928">
      <path
         d="M 0,2000 H 2864.258 V 0 H 0 Z"
         transform="matrix(1.3333333,0,0,-1.3333333,0,2666.6667)"
         id="path928" />
    </clipPath>
    <clipPath
       clipPathUnits="userSpaceOnUse"
       id="clipPath929">
      <path
         d="m 907.256,1027.46 h 69.352 v -33.709 h -69.352 z"
         transform="translate(-946.62655,-1025.5016)"
         id="path929" />
    </clipPath>
    <clipPath
       clipPathUnits="userSpaceOnUse"
       id="clipPath931">
      <path
         d="M 0,2000 H 2864.258 V 0 H 0 Z"
         transform="matrix(1.3333333,0,0,-1.3333333,0,2666.6667)"
         id="path931" />
    </clipPath>
    <clipPath
       clipPathUnits="userSpaceOnUse"
       id="clipPath932">
      <path
         d="m 1007.84,989.257 h 50.01 v -52.218 h -50.01 z"
         transform="translate(-1028.188,-988.7754)"
         id="path932" />
    </clipPath>
    <clipPath
       clipPathUnits="userSpaceOnUse"
       id="clipPath934">
      <path
         d="M 0,2000 H 2864.258 V 0 H 0 Z"
         transform="matrix(1.3333333,0,0,-1.3333333,0,2666.6667)"
         id="path934" />
    </clipPath>
    <clipPath
       clipPathUnits="userSpaceOnUse"
       id="clipPath935">
      <path
         d="m 920.437,1140.94 h 41.71 v -43.7 h -41.71 z"
         transform="translate(-942.7114,-1140.6461)"
         id="path935" />
    </clipPath>
    <clipPath
       clipPathUnits="userSpaceOnUse"
       id="clipPath937">
      <path
         d="M 0,2000 H 2864.258 V 0 H 0 Z"
         transform="matrix(1.3333333,0,0,-1.3333333,0,2666.6667)"
         id="path937" />
    </clipPath>
    <clipPath
       clipPathUnits="userSpaceOnUse"
       id="clipPath938">
      <path
         d="m 1090.62,1055.04 h 41.96 v -39.94 h -41.96 z"
         transform="translate(-1107.645,-1015.2809)"
         id="path938" />
    </clipPath>
    <clipPath
       clipPathUnits="userSpaceOnUse"
       id="clipPath940">
      <path
         d="M 0,2000 H 2864.258 V 0 H 0 Z"
         transform="matrix(1.3333333,0,0,-1.3333333,0,2666.6667)"
         id="path940" />
    </clipPath>
    <clipPath
       clipPathUnits="userSpaceOnUse"
       id="clipPath942">
      <path
         d="M 0,2000 H 2864.258 V 0 H 0 Z"
         transform="translate(-956.72222,-990.38092)"
         id="path942" />
    </clipPath>
    <clipPath
       clipPathUnits="userSpaceOnUse"
       id="clipPath944">
      <path
         d="m 1000.68,1082.975 c -26.37,-25.395 -37.051,-58.07 -43.958,-92.594 v 0 c -1.03,-7.247 -0.45,-14.313 1.573,-21.281 v 0 c 3.977,-13.696 19.1,-22.652 33.997,-17.68 v 0 c 15.534,5.185 27.024,14.982 36.429,27.976 v 0 c 13.359,18.457 22.484,38.751 26.901,61.065 v 0 c 2.829,14.301 1.482,28.415 -3.48,42.15 v 0 c -3.018,8.355 -9.752,12.599 -17.86,13.053 v 0 c -0.925,0.052 -1.841,0.078 -2.751,0.078 v 0 c -11.649,0 -22.015,-4.258 -30.851,-12.767"
         transform="translate(-1057.506,-1006.0064)"
         id="path944" />
    </clipPath>
    <clipPath
       clipPathUnits="userSpaceOnUse"
       id="clipPath946">
      <path
         d="m 1000.68,1082.975 c -26.37,-25.395 -37.051,-58.07 -43.958,-92.594 v 0 c -1.03,-7.247 -0.45,-14.313 1.573,-21.281 v 0 c 3.977,-13.696 19.1,-22.652 33.997,-17.68 v 0 c 15.534,5.185 27.024,14.982 36.429,27.976 v 0 c 13.359,18.457 22.484,38.751 26.901,61.065 v 0 c 2.829,14.301 1.482,28.415 -3.48,42.15 v 0 c -3.018,8.355 -9.752,12.599 -17.86,13.053 v 0 c -0.925,0.052 -1.841,0.078 -2.751,0.078 v 0 c -11.649,0 -22.015,-4.258 -30.851,-12.767"
         transform="translate(-1058.8789,-1036.1822)"
         id="path946" />
    </clipPath>
    <clipPath
       clipPathUnits="userSpaceOnUse"
       id="clipPath948">
      <path
         d="m 1000.68,1082.975 c -26.37,-25.395 -37.051,-58.07 -43.958,-92.594 v 0 c -1.03,-7.247 -0.45,-14.313 1.573,-21.281 v 0 c 3.977,-13.696 19.1,-22.652 33.997,-17.68 v 0 c 15.534,5.185 27.024,14.982 36.429,27.976 v 0 c 13.359,18.457 22.484,38.751 26.901,61.065 v 0 c 2.829,14.301 1.482,28.415 -3.48,42.15 v 0 c -3.018,8.355 -9.752,12.599 -17.86,13.053 v 0 c -0.925,0.052 -1.841,0.078 -2.751,0.078 v 0 c -11.649,0 -22.015,-4.258 -30.851,-12.767"
         transform="translate(-1020.1983,-968.66895)"
         id="path948" />
    </clipPath>
    <clipPath
       clipPathUnits="userSpaceOnUse"
       id="clipPath949">
      <path
         d="m 938.248,1084.14 h 86.102 V 929.071 h -86.102 z"
         transform="translate(-939.30085,-997.60455)"
         id="path949" />
    </clipPath>
    <clipPath
       clipPathUnits="userSpaceOnUse"
       id="clipPath951">
      <path
         d="m 1000.68,1082.975 c -26.37,-25.395 -37.051,-58.07 -43.958,-92.594 v 0 c -1.03,-7.247 -0.45,-14.313 1.573,-21.281 v 0 c 3.977,-13.696 19.1,-22.652 33.997,-17.68 v 0 c 15.534,5.185 27.024,14.982 36.429,27.976 v 0 c 13.359,18.457 22.484,38.751 26.901,61.065 v 0 c 2.829,14.301 1.482,28.415 -3.48,42.15 v 0 c -3.018,8.355 -9.752,12.599 -17.86,13.053 v 0 c -0.925,0.052 -1.841,0.078 -2.751,0.078 v 0 c -11.649,0 -22.015,-4.258 -30.851,-12.767"
         transform="matrix(1.3333333,0,0,-1.3333333,0,2666.6667)"
         id="path951" />
    </clipPath>
    <clipPath
       clipPathUnits="userSpaceOnUse"
       id="clipPath953">
      <path
         d="M 0,2000 H 2864.258 V 0 H 0 Z"
         transform="translate(-1094.71,-1108.3175)"
         id="path953" />
    </clipPath>
    <clipPath
       clipPathUnits="userSpaceOnUse"
       id="clipPath955">
      <path
         d="M 0,2000 H 2864.258 V 0 H 0 Z"
         transform="translate(-1038.7915,-1098.9443)"
         id="path955" />
    </clipPath>
    <clipPath
       clipPathUnits="userSpaceOnUse"
       id="clipPath957">
      <path
         d="M 0,2000 H 2864.258 V 0 H 0 Z"
         transform="translate(-1071.0181,-1118.186)"
         id="path957" />
    </clipPath>
    <clipPath
       clipPathUnits="userSpaceOnUse"
       id="clipPath959">
      <path
         d="M 0,2000 H 2864.258 V 0 H 0 Z"
         transform="translate(-1044.5776,-1124.6094)"
         id="path959" />
    </clipPath>
    <filter
       style="color-interpolation-filters:sRGB"
       id="filter1454"
       x="-0.10936817"
       y="-0.12422555"
       width="1.2479943"
       height="1.2791497">
      <feFlood
         result="flood"
         in="SourceGraphic"
         flood-opacity="0.200000"
         flood-color="rgb(0,0,0)"
         id="feFlood1453" />
      <feGaussianBlur
         result="blur"
         in="SourceGraphic"
         stdDeviation="8.000000"
         id="feGaussianBlur1453" />
      <feOffset
         result="offset"
         in="blur"
         dx="9.000000"
         dy="9.000000"
         id="feOffset1453" />
      <feComposite
         result="comp1"
         operator="in"
         in="flood"
         in2="offset"
         id="feComposite1453" />
      <feComposite
         result="comp2"
         operator="over"
         in="SourceGraphic"
         in2="comp1"
         id="feComposite1454" />
    </filter>
  </defs>
  <g
     id="g1"
     transform="translate(3745.5012,-523.27949)">
    <g
       id="g1454">
      <path
         id="path1"
         clip-path="url(#clipPath918)"
         style="fill:#4d5263;fill-opacity:1;fill-rule:nonzero;stroke:#ffffff;stroke-width:33.75;stroke-dasharray:none;stroke-opacity:1;filter:url(#filter1454)"
         d="m 2.7810751,6.4327792 c -5.7507619,-0.01665 -11.7509769,-4.2786799 -12.8056641,-9.7529299 -0.543,-2.818 0.3122419,-5.1893439 2.6982419,-6.9023443 1.903,-1.364 3.907926,-1.472347 5.898926,-0.256347 2.655,1.6199997 3.2100235,3.9817616 2.12402346,6.7807616 -0.467,1.202 -1.28726564,2.3057306 -0.69726564127,3.69873055627 C 6.0733367,0.77365016 8.8926417,-0.75211171 10.736642,-6.0301117 c 1.701,-4.8650003 1.549375,-9.8357233 0.234375,-14.7407233 -0.742481,-2.767897 -1.5952538,-5.50629 -2.450684,-8.244141 -1.728163,0.105103 -3.4769328,0.133444 -5.2441407,0.06445 -16.7510003,-0.655 -28.5581693,-11.635638 -36.7221693,-25.952638 -0.667619,-1.170737 -1.262806,-2.352915 -1.795898,-3.540527 -7.443746,28.086616 -35.468758,57.62744716 -70.376955,58.13964965 -11.48,0.169 -21.90259,-2.58532445 -31.07959,-9.38232445 -18.309,-13.5620002 -26.22599,-31.9947432 -26.20899,-54.6357432 0.014,-19.44 6.1689,-36.276311 18.4629,-51.070311 3.241,-3.9 6.61923,-7.68555 10.46923,-12.14355 -8.482,-2.562 -14.36247,-7.80905 -20.83447,-12.01905 -11.459,-7.452 -19.89923,-17.79443 -24.78223,-30.56543 -4.006,-10.477 -2.82032,-20.71296 5.34668,-28.95996 9.637,-9.731 21.42298,-16.00012 35.10498,-17.47412 17.12279,-1.84416 33.10877,3.08134 48.56983,9.73242 0.341152,-2.72185 0.901223,-5.42463 1.681641,-8.1123 3.977,-13.697 19.100559,-22.65267 33.997559,-17.68067 0.722247,0.24108 1.426393,0.50231 2.131348,0.76319 8.694594,-24.02271 25.552922,-44.156 56.0507827,-51.62842 14.3450003,-3.515 30.5390123,2.08215 38.5620123,14.28515 7.859,11.954 8.668805,24.94153 4.924805,38.31153 -1.782,6.362 -4.557629,12.41802 -8.119629,17.97802 -1.427,2.23 -2.748406,4.42913 -4.066406,6.70313 -0.667,1.153 -4.221032,6.52493 -5.332032,6.64893 15.396,-1.721 30.74888,-4.22357 46.27588,-4.10157 18.778,0.148 36.016659,4.83635 50.576659,17.13135 15.945,13.466 22.8666,35.04407 15.4336,51.64307 -10.862,24.255 -29.24022,40.289449 -55.699223,45.814449 -14.505079,3.029636 -28.498457,2.707076 -41.964845,-0.830566 2.102104,4.286572 3.396381,9.052743 3.644531,14.178223 1.331679,16.298978 -3.982976,28.578578 -12.911133,36.465821 4.192455,5.455075 10.898089,10.575984 15.602051,11.994141 2.15,0.649 4.670837,2.041145 6.506837,-0.276855 2.049,-2.589 -1.402969,-3.300567 -2.167969,-4.955567 -0.927,-2.006 -1.373051,-3.954234 0.147949,-5.865234 1.658,-2.085 3.83718,-2.695801 6.28418,-1.820801 2.252,0.806 4.079914,2.19666 5.211914,4.45166 1.771,3.525 2.113672,7.088039 -0.111328,10.415039 -2.583,3.864 -6.728739,4.75129 -11.031739,4.69629 -7.217387,-0.09163 -19.258639,-7.876447 -24.958008,-15.216798 -4.832557,3.130153 -10.395664,5.217585 -16.354981,6.219727 0.671715,2.005221 1.323571,4.017639 1.974609,6.029297 1.903,5.883 2.158028,11.877559 0.728028,17.8725591 C 15.074603,0.03968908 11.758306,4.2170019 5.9173056,5.9860019 4.9024619,6.2933456 3.846031,6.4358626 2.7810751,6.4327792 Z"
         transform="matrix(1.3333333,0,0,-1.3333333,-3455.4896,591.95656)" />
      <g
         id="g1715"
         transform="translate(-14.904548,26.011401)">
        <g
           id="g1716">
          <g
             id="g1565"
             transform="translate(-1063.8923,277.68287)">
            <g
               id="g1395"
               transform="translate(-3772.572,-799.64459)">
              <path
                 id="path917"
                 d="m 0,0 c -0.59,-1.393 0.229,-2.496 0.696,-3.698 1.086,-2.799 0.531,-5.161 -2.124,-6.781 -1.991,-1.216 -3.995,-1.107 -5.898,0.257 -2.386,1.713 -3.242,4.084 -2.699,6.902 1.25,6.488 9.447,11.273 15.942,9.306 5.841,-1.769 9.158,-5.947 10.53,-11.696 1.43,-5.995 1.175,-11.989 -0.728,-17.872 -1.29,-3.986 -2.584,-7.974 -4.027,-11.906 -0.451,-1.228 -1.501,-2.325 -3.02,-1.89 -1.962,0.561 -2.058,2.138 -1.558,3.806 1.281,4.269 2.703,8.499 3.857,12.801 1.315,4.905 1.467,9.876 -0.234,14.741 C 8.893,-0.752 6.074,0.773 0,0"
                 style="fill:#4d5263;fill-opacity:1;fill-rule:nonzero;stroke:none"
                 transform="matrix(1.3333333,0,0,-1.3333333,1396.2448,1087.9525)"
                 clip-path="url(#clipPath918)" />
              <path
                 id="path919"
                 d="m 0,0 c -1.178,-1.375 -2.279,-2.826 -3.562,-4.095 -0.785,-0.776 -1.92,-0.788 -2.874,-0.176 -1.014,0.65 -1.081,1.676 -0.777,2.75 0.071,0.251 0.183,0.489 0.274,0.734 3.048,8.224 18.879,19.624 27.622,19.735 4.303,0.055 8.449,-0.832 11.032,-4.696 2.225,-3.327 1.883,-6.89 0.112,-10.415 -1.132,-2.255 -2.961,-3.646 -5.213,-4.452 -2.447,-0.875 -4.625,-0.264 -6.283,1.821 -1.521,1.911 -1.075,3.859 -0.148,5.865 0.765,1.655 4.216,2.367 2.167,4.956 -1.836,2.318 -4.357,0.926 -6.507,0.277 C 11.05,10.859 4.173,5.57 0,0"
                 style="fill:#4d5263;fill-opacity:1;fill-rule:nonzero;stroke:none"
                 transform="matrix(1.3333333,0,0,-1.3333333,1442.0761,1140.7019)"
                 clip-path="url(#clipPath920)" />
              <path
                 id="path921"
                 d="m 0,0 c -10.509,-5.025 -19.727,-9.749 -29.198,-13.892 -15.889,-6.951 -32.32,-12.213 -49.952,-10.314 -13.682,1.474 -25.468,7.743 -35.105,17.474 -8.167,8.247 -9.353,18.484 -5.347,28.961 4.883,12.771 13.323,23.113 24.782,30.565 6.472,4.21 12.352,9.457 20.834,12.019 -3.85,4.458 -7.228,8.244 -10.469,12.144 -12.294,14.794 -18.448,31.63 -18.462,51.07 -0.017,22.641 7.9,41.074 26.209,54.636 9.177,6.797 19.599,9.551 31.079,9.382 36.053,-0.529 64.832,-32.027 71.106,-60.902 3.033,-13.957 6.644,-27.8 10.37,-41.593 2.96,-10.958 3.621,-11.024 13.995,-7.508 6.456,2.189 12.963,4.313 19.585,5.89 3.589,0.854 6.795,2.347 9.821,4.135 20.787,12.288 43.018,16.139 66.588,11.216 26.459,-5.525 44.837,-21.56 55.699,-45.815 7.433,-16.599 0.512,-38.177 -15.433,-51.643 -14.56,-12.295 -31.799,-16.983 -50.577,-17.131 -15.527,-0.122 -30.879,2.381 -46.275,4.102 1.111,-0.124 4.665,-5.497 5.332,-6.65 1.318,-2.274 2.639,-4.473 4.066,-6.703 3.562,-5.56 6.338,-11.615 8.12,-17.977 3.744,-13.37 2.933,-26.358 -4.926,-38.312 C 93.819,-89.049 77.626,-94.646 63.281,-91.131 23.112,-81.289 6.569,-49.501 1.234,-15.762 0.479,-10.989 0.456,-6.101 0,0"
                 style="fill:#f5afaf;fill-opacity:1;fill-rule:nonzero;stroke:none"
                 transform="matrix(1.3333333,0,0,-1.3333333,1316.2584,1344.418)"
                 clip-path="url(#clipPath922)" />
              <g
                 id="g924"
                 clip-path="url(#clipPath925)">
                <path
                   d="m 0,0 c 9.201,-0.685 17.394,-6.193 24.349,-13.963 8.797,-9.826 15.369,-21.053 19.855,-33.368 4.893,-13.437 9.162,-27.101 13.694,-40.669 0.206,-0.616 0.322,-1.26 0.483,-1.891 0.654,-2.561 1.642,-5.618 -1.945,-6.415 -2.927,-0.65 -3.398,2.369 -4.107,4.465 -4.061,12.012 -7.993,24.068 -12.151,36.046 -4.733,13.628 -11.145,26.345 -20.812,37.249 -6.8,7.671 -14.985,12.345 -25.478,12.411 -15.003,0.095 -26.794,-11.386 -26.752,-26.405 0.047,-17.031 5.99,-31.815 17.753,-44.148 6.983,-7.32 14.957,-13.513 23.056,-19.54 8.878,-6.607 17.492,-13.543 25.672,-21.001 1.678,-1.531 3.345,-3.117 4.76,-4.883 1.465,-1.826 2.627,-4.076 0.355,-6.027 -2.018,-1.734 -3.569,-0.054 -4.953,1.361 -11.654,11.916 -25.315,21.396 -38.321,31.68 -11.02,8.713 -21.374,18.03 -27.683,31.053 -5.073,10.471 -7.91,21.384 -7.129,32.987 C -37.948,-10.169 -22.226,2.673 0,0"
                   style="fill:#f5afaf;fill-opacity:1;fill-rule:nonzero;stroke:none"
                   transform="matrix(1.3333333,0,0,-1.3333333,1254.5475,1118.5045)"
                   clip-path="url(#clipPath923)"
                   id="path924" />
              </g>
              <g
                 id="g927"
                 clip-path="url(#clipPath928)">
                <path
                   d="m 0,0 c -6.139,0.695 -12.285,1.34 -18.415,2.11 -2.346,0.295 -4.805,1.059 -4.192,4.101 0.481,2.392 2.811,2.412 4.779,2.191 C -6.861,7.176 4.264,7.633 15.088,4.802 25.52,2.074 36.225,1.159 46.999,0.949 55.221,0.79 63.179,2.021 70.953,4.71 76.371,6.584 80.95,9.713 84.111,14.376 94.888,30.277 92.922,40.7 80.798,51.259 67.708,62.662 52.318,64.808 36.062,63.834 19.937,62.87 4.942,57.476 -9.716,50.998 c -2.43,-1.074 -5.94,-4.158 -7.735,-0.665 -2.21,4.304 2.68,5.078 5.355,6.349 17.493,8.309 35.668,14.099 55.276,14.192 18.45,0.087 34.353,-5.78 47.167,-19.564 6.584,-7.083 8.824,-15.057 6.7,-24.25 C 93.648,12.35 85.368,1.991 70.406,-2.491 54.698,-7.197 38.89,-6.352 23.111,-3.537 15.431,-2.167 7.835,-0.332 0,0"
                   style="fill:#f5afaf;fill-opacity:1;fill-rule:nonzero;stroke:none"
                   transform="matrix(1.3333333,0,0,-1.3333333,1416.9589,1329.5592)"
                   clip-path="url(#clipPath926)"
                   id="path927" />
              </g>
              <g
                 id="g930"
                 clip-path="url(#clipPath931)">
                <path
                   d="m 0,0 c 5.16,-0.584 10.372,-0.893 15.462,-1.849 3.441,-0.645 7.478,-1.294 9.407,-4.514 1.879,-3.138 7.016,-6.243 4.372,-9.933 -3.359,-4.687 -4.141,-12.275 -11.689,-13.166 -13.86,-1.638 -27.748,-3.48 -41.714,-1.276 -8.914,1.407 -14.304,5.725 -15.075,11.617 -0.99,7.557 3.619,15.046 11.473,18.52 4.532,2.005 9.3,2.9 14.245,2.45 C -8.992,1.437 -4.48,0.847 0.038,0.335 0.025,0.224 0.013,0.112 0,0"
                   style="fill:#f5afaf;fill-opacity:1;fill-rule:nonzero;stroke:none"
                   transform="matrix(1.3333333,0,0,-1.3333333,1262.1687,1299.3313)"
                   clip-path="url(#clipPath929)"
                   id="path930" />
              </g>
              <g
                 id="g933"
                 clip-path="url(#clipPath934)">
                <path
                   d="m 0,0 c 3.041,0.434 4.627,-0.613 6.104,-1.983 7.644,-7.09 15.161,-14.304 20.262,-23.559 2.386,-4.33 3.891,-8.909 3.064,-14.015 -1.516,-9.354 -9.808,-14.337 -18.82,-11.282 -3.474,1.178 -6.334,3.271 -8.991,5.695 -10.094,9.211 -16.644,20.705 -21.269,33.386 -1.632,4.475 -0.562,7.145 4.771,8.35 C -9.629,-2.223 -5.051,1.868 0,0"
                   style="fill:#f5afaf;fill-opacity:1;fill-rule:nonzero;stroke:none"
                   transform="matrix(1.3333333,0,0,-1.3333333,1370.9173,1348.2995)"
                   clip-path="url(#clipPath932)"
                   id="path933" />
              </g>
              <g
                 id="g936"
                 clip-path="url(#clipPath937)">
                <path
                   d="m 0,0 c 17.315,-2.705 25.012,-20.914 14.961,-35.393 -5.003,-7.206 -14.783,-9.963 -23.343,-6.581 -8.963,3.542 -14.972,13.792 -13.73,23.421 C -20.389,-5.179 -11.984,1.873 0,0"
                   style="fill:#f5afaf;fill-opacity:1;fill-rule:nonzero;stroke:none"
                   transform="matrix(1.3333333,0,0,-1.3333333,1256.9485,1145.8053)"
                   clip-path="url(#clipPath935)"
                   id="path936" />
              </g>
              <g
                 id="g939"
                 clip-path="url(#clipPath940)">
                <path
                   d="M 0,0 C -10.243,1.301 -18.115,11.335 -16.896,21.537 -15.612,32.278 -4.126,41.186 7.105,39.572 19.399,37.804 25.402,29.356 24.901,16.764 24.499,6.628 11.771,-1.496 0,0"
                   style="fill:#f5afaf;fill-opacity:1;fill-rule:nonzero;stroke:none"
                   transform="matrix(1.3333333,0,0,-1.3333333,1476.86,1312.9589)"
                   clip-path="url(#clipPath938)"
                   id="path939" />
              </g>
              <path
                 id="path941"
                 d="m 0,0 c 6.907,34.523 17.588,67.2 43.958,92.595 9.525,9.173 20.829,13.405 33.602,12.689 8.107,-0.455 14.842,-4.698 17.86,-13.054 4.962,-13.734 6.309,-27.849 3.479,-42.15 C 94.483,27.766 85.358,7.473 71.999,-10.984 62.593,-23.979 51.104,-33.776 35.57,-38.961 20.673,-43.933 5.549,-34.977 1.572,-21.28 -0.451,-14.313 -1.03,-7.247 0,0"
                 style="fill:#f6d876;fill-opacity:1;fill-rule:nonzero;stroke:none"
                 transform="matrix(1.3333333,0,0,-1.3333333,1275.6296,1346.1588)"
                 clip-path="url(#clipPath942)" />
              <path
                 id="path943"
                 d="m 0,0 c 0.787,-4.042 0.419,-6.902 -4.987,-6.494 -26.688,2.012 -51.827,8.784 -74.045,24.242 -7.427,5.167 -15.381,9.874 -20.976,17.232 -1.922,2.528 -5.97,6.148 -1.275,8.865 3.887,2.25 5.146,-2.289 6.518,-5.149 1.482,-3.088 4.483,-4.615 6.98,-6.645 C -62.167,11.219 -32.596,1.162 0.17,-0.17 Z"
                 style="fill:#4d5263;fill-opacity:1;fill-rule:nonzero;stroke:none"
                 transform="matrix(1.3333333,0,0,-1.3333333,1410.0079,1325.3249)"
                 clip-path="url(#clipPath944)" />
              <path
                 id="path945"
                 d="m 0,0 c -28.531,0.785 -50.669,13.089 -71.373,28.815 -3.638,2.764 -6.571,6.281 -8.739,10.327 -0.904,1.686 -1.671,3.53 -2.041,5.393 -0.388,1.952 -0.077,4.02 2.397,4.559 2.245,0.49 3.809,-0.385 4.114,-2.817 C -74.736,39.068 -69.54,35.001 -64.2,31.354 -43.624,17.3 -22.174,5.474 3.948,6.606 4.915,6.648 5.918,6.646 6.853,6.437 8.505,6.068 9.898,5.218 10.062,3.336 10.241,1.274 8.644,0.301 7.093,0.132 4.222,-0.18 1.296,0.009 0,0"
                 style="fill:#4d5263;fill-opacity:1;fill-rule:nonzero;stroke:none"
                 transform="matrix(1.3333333,0,0,-1.3333333,1411.8385,1285.0905)"
                 clip-path="url(#clipPath946)" />
              <path
                 id="path947"
                 d="m 0,0 c -27.099,0.9 -50.683,9.858 -69.327,30.156 -1.962,2.136 -4.183,4.21 -4.699,7.236 -0.33,1.94 -0.252,4.042 2.151,4.787 2.102,0.653 3.86,0.177 4.56,-2.211 2.481,-8.474 9.583,-12.805 16.153,-17.317 C -35.213,11.698 -17.339,6.56 1.979,6.394 4.894,6.368 7.885,6.72 10.52,5.161 11.658,4.488 12.098,3.231 11.792,1.806 11.543,0.642 10.603,0.155 9.719,0.116 6.484,-0.03 3.24,0.022 0,0"
                 style="fill:#4d5263;fill-opacity:1;fill-rule:nonzero;stroke:none"
                 transform="matrix(1.3333333,0,0,-1.3333333,1360.2643,1375.1081)"
                 clip-path="url(#clipPath948)" />
              <g
                 opacity="0.5"
                 id="g950"
                 clip-path="url(#clipPath951)">
                <path
                   d="m 0,0 c 3.282,24.412 9.972,47.59 24.625,67.905 3.437,4.762 7.192,9.219 11.562,13.134 3.218,2.885 6.999,4.648 11.29,5.34 3.496,0.563 6.616,-0.373 8.748,-3.048 2.179,-2.735 -0.624,-4.824 -1.836,-6.904 C 44.444,59.35 37.58,41.298 37.223,21.287 36.995,8.536 39.178,-3.919 42.982,-16.079 c 4.104,-13.12 12.591,-21.7 26.136,-24.943 3.473,-0.832 7.026,-1.389 10.429,-2.441 6.38,-1.969 7.206,-5.784 2.515,-10.719 C 68.462,-68.486 41.069,-73.066 24.22,-63.48 9.126,-54.893 2.982,-40.371 -0.104,-24.292 -1.64,-16.285 -1.093,-8.106 0,0"
                   style="fill:#f6d876;fill-opacity:1;fill-rule:nonzero;stroke:none"
                   transform="matrix(1.3333333,0,0,-1.3333333,1252.4011,1336.5273)"
                   clip-path="url(#clipPath949)"
                   id="path950" />
              </g>
              <path
                 id="path952"
                 d="m 0,0 c -1.312,-27.099 -31.795,-44.203 -56.991,-33.016 -3.852,1.71 -7.659,3.597 -11.273,5.76 -17.432,10.429 -22.782,30.407 -12.709,48.071 8.164,14.317 19.972,25.298 36.723,25.953 C -19.275,47.743 2.552,31.235 0,0"
                 style="fill:#f3c21e;fill-opacity:1;fill-rule:nonzero;stroke:none"
                 transform="matrix(1.3333333,0,0,-1.3333333,1459.6133,1188.9101)"
                 clip-path="url(#clipPath953)" />
              <path
                 id="path954"
                 d="m 0,0 c -2.686,3.01 -6.134,6.673 -7.35,11.745 -0.411,1.713 -0.283,3.539 1.797,4.047 1.855,0.454 2.343,-1.078 2.69,-2.538 0.736,-3.098 2.456,-5.618 4.581,-7.936 5.205,-5.679 11.243,-7.675 18.658,-4.67 2.023,0.82 4.949,3.174 6.263,0.212 C 28.176,-2.604 24.228,-3.088 22.06,-4.004 14.313,-7.277 7.162,-6.025 0,0"
                 style="fill:#4d5263;fill-opacity:1;fill-rule:nonzero;stroke:none"
                 transform="matrix(1.3333333,0,0,-1.3333333,1385.0553,1201.4076)"
                 clip-path="url(#clipPath955)" />
              <path
                 id="path956"
                 d="M 0,0 C 1.935,-2.244 0.994,-4.78 -1.22,-7.204 -3.211,-9.385 -5.781,-10.306 -7.566,-8.927 -9.742,-7.248 -9,-4.38 -6.927,-1.759 -4.69,1.071 -2.301,1.404 0,0"
                 style="fill:#4d5263;fill-opacity:1;fill-rule:nonzero;stroke:none"
                 transform="matrix(1.3333333,0,0,-1.3333333,1428.0241,1175.752)"
                 clip-path="url(#clipPath957)" />
              <path
                 id="path958"
                 d="m 0,0 c -1.58,-3.241 -3.594,-5.062 -5.729,-3.918 -2.643,1.417 -2.755,4.631 -1.223,8.046 1.33,2.963 3.332,3.852 5.521,2.589 C 1.069,5.276 0.896,2.567 0,0"
                 style="fill:#4d5263;fill-opacity:1;fill-rule:nonzero;stroke:none"
                 transform="matrix(1.3333333,0,0,-1.3333333,1392.7701,1167.1875)"
                 clip-path="url(#clipPath959)" />
            </g>
          </g>
        </g>
      </g>
    </g>
  </g>
</svg>
