<?xml version="1.0" encoding="UTF-8" standalone="no"?>
<!-- Created with Inkscape (http://www.inkscape.org/) -->

<svg
   version="1.1"
   id="svg1"
   width="544.19116"
   height="672.08154"
   viewBox="0 0 544.19116 672.08153"
   xmlns="http://www.w3.org/2000/svg"
   xmlns:svg="http://www.w3.org/2000/svg">
  <defs
     id="defs1">
    <clipPath
       clipPathUnits="userSpaceOnUse"
       id="clipPath449">
      <path
         d="M 0,2000 H 2864.258 V 0 H 0 Z"
         transform="translate(-630.80222,-202.71478)"
         id="path449" />
    </clipPath>
    <clipPath
       clipPathUnits="userSpaceOnUse"
       id="clipPath451">
      <path
         d="M 0,2000 H 2864.258 V 0 H 0 Z"
         transform="translate(-538.60792,-233.03713)"
         id="path451" />
    </clipPath>
    <clipPath
       clipPathUnits="userSpaceOnUse"
       id="clipPath453">
      <path
         d="M 0,2000 H 2864.258 V 0 H 0 Z"
         transform="translate(-586.06201,-579.09674)"
         id="path453" />
    </clipPath>
    <clipPath
       clipPathUnits="userSpaceOnUse"
       id="clipPath455">
      <path
         d="M 0,2000 H 2864.258 V 0 H 0 Z"
         transform="translate(-403.68851,-429.14264)"
         id="path455" />
    </clipPath>
    <clipPath
       clipPathUnits="userSpaceOnUse"
       id="clipPath456">
      <path
         d="M 558.253,469.745 H 681.49 V 268.698 H 558.253 Z"
         transform="translate(-643.00151,-349.89553)"
         id="path456" />
    </clipPath>
    <clipPath
       clipPathUnits="userSpaceOnUse"
       id="clipPath457">
      <path
         d="M 558.253,469.745 H 681.49 V 268.698 H 558.253 Z"
         transform="translate(-595.83251,-322.87993)"
         id="path457" />
    </clipPath>
    <clipPath
       clipPathUnits="userSpaceOnUse"
       id="clipPath458">
      <path
         d="M 558.253,469.745 H 681.49 V 268.698 H 558.253 Z"
         transform="translate(-624.56252,-388.37398)"
         id="path458" />
    </clipPath>
    <clipPath
       clipPathUnits="userSpaceOnUse"
       id="clipPath459">
      <path
         d="M 558.253,469.745 H 681.49 V 268.698 H 558.253 Z"
         transform="translate(-679.28912,-398.99511)"
         id="path459" />
    </clipPath>
    <clipPath
       clipPathUnits="userSpaceOnUse"
       id="clipPath460">
      <path
         d="M 558.253,469.745 H 681.49 V 268.698 H 558.253 Z"
         transform="translate(-679.95071,-442.27439)"
         id="path460" />
    </clipPath>
    <clipPath
       clipPathUnits="userSpaceOnUse"
       id="clipPath461">
      <path
         d="M 558.253,469.745 H 681.49 V 268.698 H 558.253 Z"
         transform="translate(-631.45412,-299.89941)"
         id="path461" />
    </clipPath>
    <clipPath
       clipPathUnits="userSpaceOnUse"
       id="clipPath462">
      <path
         d="M 558.253,469.745 H 681.49 V 268.698 H 558.253 Z"
         transform="translate(-659.95852,-395.21091)"
         id="path462" />
    </clipPath>
    <clipPath
       clipPathUnits="userSpaceOnUse"
       id="clipPath463">
      <path
         d="M 558.253,469.745 H 681.49 V 268.698 H 558.253 Z"
         transform="translate(-665.76812,-350.20213)"
         id="path463" />
    </clipPath>
    <clipPath
       clipPathUnits="userSpaceOnUse"
       id="clipPath464">
      <path
         d="M 558.253,469.745 H 681.49 V 268.698 H 558.253 Z"
         transform="translate(-644.45951,-457.56644)"
         id="path464" />
    </clipPath>
    <clipPath
       clipPathUnits="userSpaceOnUse"
       id="clipPath465">
      <path
         d="M 558.253,469.745 H 681.49 V 268.698 H 558.253 Z"
         transform="translate(-561.95902,-295.89651)"
         id="path465" />
    </clipPath>
    <clipPath
       clipPathUnits="userSpaceOnUse"
       id="clipPath466">
      <path
         d="M 558.253,469.745 H 681.49 V 268.698 H 558.253 Z"
         transform="translate(-591.48541,-288.69733)"
         id="path466" />
    </clipPath>
    <clipPath
       clipPathUnits="userSpaceOnUse"
       id="clipPath467">
      <path
         d="M 558.253,469.745 H 681.49 V 268.698 H 558.253 Z"
         transform="translate(-570.07081,-280.66498)"
         id="path467" />
    </clipPath>
    <clipPath
       clipPathUnits="userSpaceOnUse"
       id="clipPath468">
      <path
         d="M 558.253,469.745 H 681.49 V 268.698 H 558.253 Z"
         transform="translate(-644.14361,-425.29101)"
         id="path468" />
    </clipPath>
    <clipPath
       clipPathUnits="userSpaceOnUse"
       id="clipPath469">
      <path
         d="M 558.253,469.745 H 681.49 V 268.698 H 558.253 Z"
         transform="translate(-623.44142,-427.00491)"
         id="path469" />
    </clipPath>
    <clipPath
       clipPathUnits="userSpaceOnUse"
       id="clipPath484">
      <path
         d="m 607.18,579.589 c -14.573,-6.76 -22.721,-18.94 -28.062,-33.381 v 0 c -6.1,-16.493 -8.296,-33.924 -11.765,-51.035 v 0 c -7.503,-36.989 -34.57,-64.561 -71.229,-70.918 v 0 c -21.039,-3.647 -39.708,2.159 -55.316,17.461 v 0 c -6.445,6.32 -13.421,12.203 -20.943,17.344 v 0 c -3.004,2.055 -6.365,3.119 -9.637,4.531 v 0 c -4.86,2.099 -9.125,1.251 -12.685,-1.962 v 0 c -3.891,-3.513 -4.955,-8.239 -3.399,-13.406 v 0 c 1.963,-6.514 4.828,-12.622 9.545,-19.081 v 0 c -2.529,-0.724 -3.433,-1.132 -4.369,-1.229 v 0 c -12.251,-1.281 -16.501,-8.967 -11.374,-20.345 v 0 c 3.893,-8.641 9.001,-16.562 14.419,-24.254 v 0 c 2.222,-3.154 2.706,-5.325 0.098,-8.476 v 0 c -3.903,-4.715 -3.746,-10.041 -1.411,-15.608 v 0 c 4.278,-10.203 9.021,-20.136 14.991,-29.483 v 0 c 12.742,-19.951 28.834,-36.823 48.117,-50.355 v 0 c 23.565,-16.534 49.995,-24.797 78.779,-27.828 v 0 c 16.873,-1.775 32.844,0.029 49.021,3.226 v 0 c 15.978,3.159 29.581,11.193 42.32,21.017 v 0 c 17.436,13.442 32.403,28.929 41.704,49.222 v 0 c 7.199,15.707 11.952,32.081 14.482,49.238 v 0 c 2.275,15.421 3.904,30.792 3.811,46.414 v 0 c -0.09,15.294 -2.514,30.325 -4.384,45.388 v 0 c -1.986,16.016 -4.787,31.96 -9.285,47.558 v 0 c -6.476,22.45 -15.49,43.288 -33.081,59.662 v 0 c -6.949,6.468 -15.416,9.974 -24.38,9.974 v 0 c -5.221,10e-4 -10.609,-1.188 -15.967,-3.674"
         transform="matrix(1.3333333,0,0,-1.3333333,0,2666.6667)"
         id="path484" />
    </clipPath>
    <clipPath
       clipPathUnits="userSpaceOnUse"
       id="clipPath485">
      <path
         d="M 390.256,391.774 H 712.242 V 233.487 H 390.256 Z"
         transform="translate(-554.26171,-233.71581)"
         id="path485" />
    </clipPath>
    <clipPath
       clipPathUnits="userSpaceOnUse"
       id="clipPath487">
      <path
         d="m 607.18,579.589 c -14.573,-6.76 -22.721,-18.94 -28.062,-33.381 v 0 c -6.1,-16.493 -8.296,-33.924 -11.765,-51.035 v 0 c -7.503,-36.989 -34.57,-64.561 -71.229,-70.918 v 0 c -21.039,-3.647 -39.708,2.159 -55.316,17.461 v 0 c -6.445,6.32 -13.421,12.203 -20.943,17.344 v 0 c -3.004,2.055 -6.365,3.119 -9.637,4.531 v 0 c -4.86,2.099 -9.125,1.251 -12.685,-1.962 v 0 c -3.891,-3.513 -4.955,-8.239 -3.399,-13.406 v 0 c 1.963,-6.514 4.828,-12.622 9.545,-19.081 v 0 c -2.529,-0.724 -3.433,-1.132 -4.369,-1.229 v 0 c -12.251,-1.281 -16.501,-8.967 -11.374,-20.345 v 0 c 3.893,-8.641 9.001,-16.562 14.419,-24.254 v 0 c 2.222,-3.154 2.706,-5.325 0.098,-8.476 v 0 c -3.903,-4.715 -3.746,-10.041 -1.411,-15.608 v 0 c 4.278,-10.203 9.021,-20.136 14.991,-29.483 v 0 c 12.742,-19.951 28.834,-36.823 48.117,-50.355 v 0 c 23.565,-16.534 49.995,-24.797 78.779,-27.828 v 0 c 16.873,-1.775 32.844,0.029 49.021,3.226 v 0 c 15.978,3.159 29.581,11.193 42.32,21.017 v 0 c 17.436,13.442 32.403,28.929 41.704,49.222 v 0 c 7.199,15.707 11.952,32.081 14.482,49.238 v 0 c 2.275,15.421 3.904,30.792 3.811,46.414 v 0 c -0.09,15.294 -2.514,30.325 -4.384,45.388 v 0 c -1.986,16.016 -4.787,31.96 -9.285,47.558 v 0 c -6.476,22.45 -15.49,43.288 -33.081,59.662 v 0 c -6.949,6.468 -15.416,9.974 -24.38,9.974 v 0 c -5.221,10e-4 -10.609,-1.188 -15.967,-3.674"
         transform="matrix(1.3333333,0,0,-1.3333333,0,2666.6667)"
         id="path487" />
    </clipPath>
    <clipPath
       clipPathUnits="userSpaceOnUse"
       id="clipPath488">
      <path
         d="M 600.213,564.91 H 697.17 V 490.976 H 600.213 Z"
         transform="translate(-671.35552,-494.57129)"
         id="path488" />
    </clipPath>
    <clipPath
       clipPathUnits="userSpaceOnUse"
       id="clipPath490">
      <path
         d="m 607.18,579.589 c -14.573,-6.76 -22.721,-18.94 -28.062,-33.381 v 0 c -6.1,-16.493 -8.296,-33.924 -11.765,-51.035 v 0 c -7.503,-36.989 -34.57,-64.561 -71.229,-70.918 v 0 c -21.039,-3.647 -39.708,2.159 -55.316,17.461 v 0 c -6.445,6.32 -13.421,12.203 -20.943,17.344 v 0 c -3.004,2.055 -6.365,3.119 -9.637,4.531 v 0 c -4.86,2.099 -9.125,1.251 -12.685,-1.962 v 0 c -3.891,-3.513 -4.955,-8.239 -3.399,-13.406 v 0 c 1.963,-6.514 4.828,-12.622 9.545,-19.081 v 0 c -2.529,-0.724 -3.433,-1.132 -4.369,-1.229 v 0 c -12.251,-1.281 -16.501,-8.967 -11.374,-20.345 v 0 c 3.893,-8.641 9.001,-16.562 14.419,-24.254 v 0 c 2.222,-3.154 2.706,-5.325 0.098,-8.476 v 0 c -3.903,-4.715 -3.746,-10.041 -1.411,-15.608 v 0 c 4.278,-10.203 9.021,-20.136 14.991,-29.483 v 0 c 12.742,-19.951 28.834,-36.823 48.117,-50.355 v 0 c 23.565,-16.534 49.995,-24.797 78.779,-27.828 v 0 c 16.873,-1.775 32.844,0.029 49.021,3.226 v 0 c 15.978,3.159 29.581,11.193 42.32,21.017 v 0 c 17.436,13.442 32.403,28.929 41.704,49.222 v 0 c 7.199,15.707 11.952,32.081 14.482,49.238 v 0 c 2.275,15.421 3.904,30.792 3.811,46.414 v 0 c -0.09,15.294 -2.514,30.325 -4.384,45.388 v 0 c -1.986,16.016 -4.787,31.96 -9.285,47.558 v 0 c -6.476,22.45 -15.49,43.288 -33.081,59.662 v 0 c -6.949,6.468 -15.416,9.974 -24.38,9.974 v 0 c -5.221,10e-4 -10.609,-1.188 -15.967,-3.674"
         transform="matrix(1.3333333,0,0,-1.3333333,0,2666.6667)"
         id="path490" />
    </clipPath>
    <clipPath
       clipPathUnits="userSpaceOnUse"
       id="clipPath492">
      <path
         d="M 0,2000 H 2864.258 V 0 H 0 Z"
         transform="translate(-675.67772,-494.32619)"
         id="path492" />
    </clipPath>
    <clipPath
       clipPathUnits="userSpaceOnUse"
       id="clipPath494">
      <path
         d="M 0,2000 H 2864.258 V 0 H 0 Z"
         transform="translate(-656.08742,-534.42974)"
         id="path494" />
    </clipPath>
    <clipPath
       clipPathUnits="userSpaceOnUse"
       id="clipPath496">
      <path
         d="M 0,2000 H 2864.258 V 0 H 0 Z"
         transform="translate(-491.32671,-310.92478)"
         id="path496" />
    </clipPath>
    <clipPath
       clipPathUnits="userSpaceOnUse"
       id="clipPath497">
      <path
         d="M 393.379,476.957 H 596.862 V 314.224 H 393.379 Z"
         transform="translate(-444.90431,-314.37703)"
         id="path497" />
    </clipPath>
    <clipPath
       clipPathUnits="userSpaceOnUse"
       id="clipPath498">
      <path
         d="M 393.379,476.957 H 596.862 V 314.224 H 393.379 Z"
         transform="translate(-422.87651,-347.27443)"
         id="path498" />
    </clipPath>
    <clipPath
       clipPathUnits="userSpaceOnUse"
       id="clipPath499">
      <path
         d="M 393.379,476.957 H 596.862 V 314.224 H 393.379 Z"
         transform="translate(-405.58641,-377.49801)"
         id="path499" />
    </clipPath>
    <clipPath
       clipPathUnits="userSpaceOnUse"
       id="clipPath503">
      <path
         d="m 532.258,441.447 c -15.807,-7.78 -32.421,-13.326 -49.794,-16.202 v 0 c -9.874,-1.634 -19.902,-2.364 -29.873,-3.378 v 0 c -7.735,-0.786 -15.492,-1.589 -22.911,-3.939 v 0 c -13.713,-4.342 -18.284,-12.787 -14.969,-26.844 v 0 c 0.446,-1.892 0.438,-4.023 1.346,-5.646 v 0 c 2.463,-4.4 3.188,-8.027 -1.233,-11.982 v 0 c -2.902,-2.596 -2.512,-6.675 -0.42,-9.922 v 0 c 2.439,-3.785 4.791,-7.607 8.905,-10.15 v 0 c 4.402,-2.721 8.398,-5.641 5.91,-12.501 v 0 c -1.489,-4.104 1.391,-8.127 5.378,-10.503 v 0 c 8.771,-5.228 18.261,-8.642 28.396,-9.477 v 0 c 4.732,-0.39 8.553,-1.155 12.272,-4.524 v 0 c 4.712,-4.27 10.986,-5.302 16.061,-5.454 v 0 c 26.046,3.081 49.111,11.584 67.236,28.559 v 0 c 15.079,14.124 27.232,31.223 32.296,52.321 v 0 c 4.497,18.732 -1.843,33.019 -16.152,44.676 v 0 c -0.747,0.609 -1.738,0.917 -2.495,1.517 v 0 c -7.012,5.548 -14.254,8.138 -21.733,8.138 v 0 c -5.923,0 -11.995,-1.624 -18.22,-4.689"
         transform="matrix(1.3333333,0,0,-1.3333333,0,2666.6667)"
         id="path503" />
    </clipPath>
    <filter
       style="color-interpolation-filters:sRGB"
       id="filter1503"
       x="-0.11018827"
       y="-0.084954479"
       width="1.247522"
       height="1.1914926">
      <feFlood
         result="flood"
         in="SourceGraphic"
         flood-opacity="0.200000"
         flood-color="rgb(0,0,0)"
         id="feFlood1502" />
      <feGaussianBlur
         result="blur"
         in="SourceGraphic"
         stdDeviation="8.000000"
         id="feGaussianBlur1502" />
      <feOffset
         result="offset"
         in="blur"
         dx="9.000000"
         dy="9.000000"
         id="feOffset1502" />
      <feComposite
         result="comp1"
         operator="in"
         in="flood"
         in2="offset"
         id="feComposite1502" />
      <feComposite
         result="comp2"
         operator="over"
         in="SourceGraphic"
         in2="comp1"
         id="feComposite1503" />
    </filter>
  </defs>
  <g
     id="g1"
     transform="translate(2795.5871,-349.56809)">
    <g
       id="g1503">
      <path
         id="path1454"
         clip-path="url(#clipPath449)"
         style="fill:#4d5263;fill-opacity:1;fill-rule:nonzero;stroke:#ffffff;stroke-width:33.75;stroke-dasharray:none;stroke-opacity:1;filter:url(#filter1503)"
         d="m -4.5504189,399.11818 c -2.8605468,0.10302 -5.5404301,-1.17337 -7.5498051,-4.13525 -3.201,-4.716 -6.190777,-4.51316 -10.571777,-2.28516 -4.328,2.203 -8.969059,3.81975 -13.935059,4.01075 -4.759,0.184 -9.165665,-0.59523 -11.680665,-5.28223 -2.26,-4.213 -1.40648,-8.12634 1.45752,-11.77734 0.78,-0.996 1.374332,-2.13561 2.090332,-3.26661 -3.235,-2.393 -6.940641,-2.22868 -10.306641,-3.20068 -7.413,-2.142 -9.815,-7.04013 -6,-13.93213 1.973,-3.564 0.964945,-5.13874 -1.456055,-7.28174 -3.965,-3.51 -6.339547,-7.79755 -3.310547,-12.89355 2.449264,-4.12146 6.296154,-5.95692 10.756348,-6.18897 -3.686459,-13.26645 -5.658947,-26.94207 -8.393555,-40.42676 -4.214132,-20.77799 -14.602795,-38.58315 -29.396485,-51.32666 -1.885303,-0.6646 -3.784136,-1.4571 -5.698242,-2.39941 -15.806,-7.78 -32.41897,-13.32664 -49.79297,-16.20264 -2.7919,-0.46173 -5.59793,-0.84076 -8.40967,-1.18506 -12.19593,2.07218 -23.33967,7.94439 -33.24609,17.65723 -6.445,6.32 -13.42187,12.20175 -20.94287,17.34375 -3.004,2.055 -6.36621,3.11876 -9.63721,4.53076 -4.861,2.099 -9.12555,1.25011 -12.68555,-1.96289 -3.891,-3.512 -4.95444,-8.23778 -3.39844,-13.40478 1.962,-6.515 4.82746,-12.62306 9.54346,-19.08106 -2.528,-0.725 -3.43116,-1.132 -4.36816,-1.229 -12.25,-1.281 -16.50105,-8.96622 -11.37305,-20.34522 3.893,-8.641 8.99946,-16.56288 14.41846,-24.25488 2.221,-3.153 2.70614,-5.32359 0.0981,-8.47559 -3.902,-4.715 -3.74711,-10.04191 -1.41211,-15.60791 4.279,-10.203 9.02268,-20.13591 14.99268,-29.48291 12.742,-19.951 28.83319,-36.823005 48.11719,-50.354005 22.37172,-15.697707 47.35104,-23.8795 74.450682,-27.266603 -0.0079,-6.363133 -0.0044,-12.726592 -0.0044,-19.089844 0.289,-9.685 -1.877746,-19.439008 0.760254,-29.0830083 2.094,-7.652 6.382902,-14.1802817 10.149902,-20.9882817 0.157,-0.283 0.340203,-0.556383 0.533203,-0.817383 1.605,-2.165 3.311961,-3.943711 6.459961,-3.178711 2.996,0.728 1.908665,8.286492 8.305665,4.104492 3.833,-2.506 5.822355,-0.249468 5.339355,6.269532 -0.188,2.546 0.951907,3.036855 2.378907,4.4018554 3.903,3.734 3.269773,6.561133 -1.907227,8.41113299 -4.268,1.526 -8.816805,2.24545711 -13.174805,3.54345711 -9.93,2.958 -9.911809,3.0132035 -9.903809,13.2832035 0.0094,10.738069 0.03852,21.475624 0.0073,32.211915 14.081139,-0.957984 27.604983,0.510679 41.211915,3.041016 0.671075,-12.885029 1.795257,-25.752573 2.100586,-38.64258 0.217,-9.1269996 3.573501,-15.0872149 12.187501,-18.8452149 5.875,-2.563 10.937098,-6.9498671 16.475098,-10.3388671 5.2749998,-3.228 6.1258633,-2.973016 8.7348633,3.333984 0.767,1.857 1.4011095,2.658891 3.2871095,2.337891 1.28,-0.218 2.5454962,-0.572153 3.8334962,-0.681153 2.433,-0.206 4.6092618,0.306379 5.468262,2.9633794 0.869,2.689 -0.6099924,4.4149533 -2.7919924,5.5019533 -2.01,1 -4.1882307,1.6631212 -7.26123066252,2.84912117499 C 1.6273859,3.2715219 5.4171633,5.3835612 2.6961633,8.9145612 0.60016335,11.635561 -2.52979,10.9526 -5.43079,10.7046 c -6.152,-0.526 -12.345848,-0.775781 -18.443848,-1.675781 -4.914,-0.724 -6.248711,1.428738 -6.553711,5.781738 -0.90256,12.856402 -1.959412,25.700952 -3.090821,38.538576 13.711846,3.74546 25.6986189,11.031273 36.9975599,19.743164 17.4360001,13.442 32.4026381,28.929683 41.7026381,49.221683 7.2,15.707 11.95191,32.08179 14.48291,49.23779 2.274,15.422 3.904524,30.79158 3.811524,46.41358 -0.09,15.295 -2.515278,30.32518 -4.384278,45.38818 -1.209239,9.74695 -2.781818,19.45695 -4.792969,29.08887 9.048269,1.23545 17.923743,3.80339 25.853028,8.31445 0.749,0.426 1.538211,0.9188 1.866211,1.7168 0.675,1.642 -0.93723,3.26699 -2.38623,4.29199 -10.482,7.422 -21.931798,13.47692 -33.966798,17.96192 -0.129767,0.0483 -0.26205,0.0941 -0.394043,0.14062 -6.166254,17.07272 -14.668664,32.78935 -28.545411,45.70606 -0.278968,0.25968 -0.58779,0.45742 -0.871582,0.70752 -1.883666,9.20748 -9.4184861,22.96058 -15.16552748,26.22656 -1.74037502,0.98925 -3.52195322,1.54805 -5.23828142,1.60986 z"
         transform="matrix(1.3333333,0,0,-1.3333333,-2420.8712,941.82794)" />
      <g
         id="g1396"
         transform="translate(-3261.9407,-1454.5521)"
         style="display:inline;stroke:none;stroke-width:45;stroke-dasharray:none;stroke-opacity:1">
        <path
           id="path448"
           d="m 0,0 c 1.628,3.272 5.417,5.383 2.696,8.914 -2.096,2.721 -5.226,2.039 -8.127,1.791 -6.152,-0.526 -12.345,-0.776 -18.443,-1.676 -4.914,-0.724 -6.249,1.428 -6.554,5.781 -0.933,13.29 -2.026,26.569 -3.201,39.839 -0.327,3.694 0.428,9.366 -4.81,9.127 -6.506,-0.296 -3.902,-6.22 -3.722,-10.018 0.648,-13.633 1.904,-27.244 2.227,-40.88 0.217,-9.127 3.574,-15.087 12.188,-18.845 5.875,-2.563 10.937,-6.95 16.475,-10.339 5.275,-3.228 6.126,-2.973 8.735,3.334 0.767,1.857 1.401,2.659 3.287,2.338 1.28,-0.218 2.546,-0.572 3.834,-0.681 2.433,-0.206 4.608,0.307 5.467,2.964 0.869,2.689 -0.609,4.414 -2.791,5.501 C 5.251,-1.85 3.073,-1.186 0,0"
           style="fill:#4d5263;fill-opacity:1;fill-rule:nonzero;stroke:none;stroke-width:33.75;stroke-dasharray:none;stroke-opacity:1"
           transform="matrix(1.3333333,0,0,-1.3333333,841.0696,2396.3803)"
           clip-path="url(#clipPath449)" />
        <path
           id="path450"
           d="m 0,0 c 0.289,-9.685 -1.878,-19.44 0.76,-29.084 2.094,-7.652 6.382,-14.18 10.149,-20.988 0.157,-0.283 0.34,-0.556 0.533,-0.817 1.605,-2.165 3.312,-3.944 6.46,-3.179 2.996,0.728 1.91,8.287 8.307,4.105 3.833,-2.506 5.821,-0.25 5.338,6.269 -0.188,2.546 0.953,3.037 2.38,4.402 3.903,3.734 3.269,6.561 -1.908,8.411 -4.268,1.526 -8.817,2.246 -13.175,3.544 -9.93,2.958 -9.912,3.013 -9.904,13.283 0.01,11.39 0.049,22.779 0.007,34.167 -0.013,3.859 0.591,9.066 -4.623,9.243 C -1.566,29.557 0.01,24.208 0.003,20.495 -0.008,13.663 0,6.832 0,0"
           style="fill:#4d5263;fill-opacity:1;fill-rule:nonzero;stroke:none;stroke-width:33.75;stroke-dasharray:none;stroke-opacity:1"
           transform="matrix(1.3333333,0,0,-1.3333333,718.14387,2355.9505)"
           clip-path="url(#clipPath451)" />
        <path
           id="path452"
           d="m 0,0 c -3.235,-2.393 -6.94,-2.229 -10.306,-3.201 -7.413,-2.142 -9.815,-7.039 -6,-13.931 1.973,-3.564 0.964,-5.139 -1.457,-7.282 -3.965,-3.51 -6.339,-7.797 -3.31,-12.893 2.925,-4.922 7.84,-6.594 13.417,-6.154 4.35,0.343 9.06,1.753 11.262,5.069 3.745,5.639 10.047,9.192 12.389,15.826 0.318,0.902 0.705,2.411 1.254,2.504 8.063,1.381 14.526,9.07 23.434,6.473 4.362,-1.272 8.871,-0.471 13.264,-2.349 3.778,-1.615 6.441,1.177 7.027,5.735 1.029,8.001 -8.583,27.373 -15.546,31.33 C 40.787,23.765 35.855,23.34 32.64,18.601 29.439,13.885 26.449,14.088 22.068,16.316 17.74,18.519 13.099,20.136 8.133,20.327 3.374,20.511 -1.032,19.731 -3.547,15.044 -5.807,10.831 -4.954,6.918 -2.09,3.267 -1.31,2.271 -0.716,1.131 0,0"
           style="fill:#fa9696;fill-opacity:1;fill-rule:nonzero;stroke:none;stroke-width:33.75;stroke-dasharray:none;stroke-opacity:1"
           transform="matrix(1.3333333,0,0,-1.3333333,781.416,1894.5377)"
           clip-path="url(#clipPath453)" />
        <path
           id="path454"
           d="m 0,0 c -2.528,-0.725 -3.432,-1.132 -4.369,-1.229 -12.25,-1.281 -16.501,-8.967 -11.373,-20.346 3.893,-8.641 9,-16.562 14.419,-24.254 2.221,-3.153 2.705,-5.324 0.097,-8.476 -3.902,-4.715 -3.746,-10.041 -1.411,-15.607 4.279,-10.203 9.022,-20.137 14.992,-29.484 12.742,-19.951 28.833,-36.823 48.117,-50.354 23.565,-16.535 49.994,-24.798 78.779,-27.828 16.873,-1.776 32.844,0.028 49.02,3.225 15.979,3.16 29.581,11.194 42.321,21.017 17.436,13.442 32.403,28.93 41.703,49.222 7.2,15.707 11.952,32.082 14.483,49.238 2.274,15.422 3.904,30.792 3.811,46.414 -0.09,15.295 -2.515,30.325 -4.384,45.388 -1.987,16.016 -4.787,31.961 -9.286,47.558 -6.475,22.451 -15.49,43.288 -33.081,59.662 -10.995,10.235 -25.788,13.054 -40.347,6.3 -14.573,-6.759 -22.72,-18.94 -28.061,-33.381 C 169.33,100.572 167.134,83.141 163.664,66.03 156.162,29.041 129.095,1.47 92.436,-4.887 71.396,-8.535 52.728,-2.729 37.12,12.574 30.675,18.894 23.698,24.776 16.177,29.918 13.173,31.973 9.811,33.036 6.54,34.448 1.679,36.547 -2.585,35.699 -6.145,32.486 -10.036,28.974 -11.1,24.248 -9.544,19.081 -7.582,12.566 -4.716,6.458 0,0"
           style="fill:#f2ebd2;fill-opacity:1;fill-rule:nonzero;stroke:none;stroke-width:33.75;stroke-dasharray:none;stroke-opacity:1"
           transform="matrix(1.3333333,0,0,-1.3333333,538.25133,2094.4765)"
           clip-path="url(#clipPath455)" />
        <g
           id="g483"
           clip-path="url(#clipPath484)"
           style="stroke:none;stroke-width:45;stroke-dasharray:none;stroke-opacity:1">
          <path
             d="m 0,0 c -1.457,0.182 -2.677,-0.571 -3.297,-1.629 -3.255,-5.552 -6.42,-11.16 -9.454,-16.835 -0.796,-1.488 -0.585,-3.2 1.194,-4.128 1.688,-0.88 3.415,-0.363 4.236,1.09 3.319,5.876 6.528,11.822 9.509,17.874 C 2.977,-2.027 1.767,-0.598 0,0"
             style="fill:#f2ebd2;fill-opacity:1;fill-rule:nonzero;stroke:none;stroke-width:33.75;stroke-dasharray:none;stroke-opacity:1"
             transform="matrix(1.3333333,0,0,-1.3333333,857.33533,2200.1393)"
             clip-path="url(#clipPath456)"
             id="path470" />
          <path
             d="m 0,0 c 0.559,-2.095 2.019,-4.013 4.029,-2.29 5.908,5.062 10.881,11.08 14.35,18.057 0.883,1.774 -1.15,3.668 -3.545,3.074 C 12.23,18.196 0.031,2.473 0,0"
             style="fill:#f2ebd2;fill-opacity:1;fill-rule:nonzero;stroke:none;stroke-width:33.75;stroke-dasharray:none;stroke-opacity:1"
             transform="matrix(1.3333333,0,0,-1.3333333,794.44333,2236.1601)"
             clip-path="url(#clipPath457)"
             id="path471" />
          <path
             d="m 0,0 c -0.546,-0.437 -1.59,-0.857 -1.908,-1.592 -2.289,-5.296 -4.505,-10.626 -6.571,-16.012 -0.574,-1.497 -0.501,-3.272 1.2,-4.236 2.268,-1.286 3.878,0.176 4.658,1.911 2.234,4.968 4.334,10.017 6.09,15.169 C 4.27,-2.41 3.285,-0.326 0,0"
             style="fill:#f2ebd2;fill-opacity:1;fill-rule:nonzero;stroke:none;stroke-width:33.75;stroke-dasharray:none;stroke-opacity:1"
             transform="matrix(1.3333333,0,0,-1.3333333,832.75,2148.8347)"
             clip-path="url(#clipPath458)"
             id="path472" />
          <path
             d="m 0,0 c -1.477,-0.113 -2.904,-0.387 -3.327,-1.765 -1.801,-5.859 -3.514,-11.748 -5.091,-17.67 -0.186,-0.698 0.445,-1.931 1.08,-2.457 1.061,-0.879 2.482,-0.727 3.631,0.006 2.579,1.648 6.968,16.912 5.675,19.976 C 1.63,-1.107 0.627,-0.585 0,0"
             style="fill:#f2ebd2;fill-opacity:1;fill-rule:nonzero;stroke:none;stroke-width:33.75;stroke-dasharray:none;stroke-opacity:1"
             transform="matrix(1.3333333,0,0,-1.3333333,905.7188,2134.6732)"
             clip-path="url(#clipPath459)"
             id="path473" />
          <path
             d="m 0,0 c -0.067,1.158 0.1,2.532 -0.301,3.715 -0.268,0.793 -1.266,1.712 -2.071,1.863 -1.251,0.235 -2.82,-0.155 -3.193,-1.602 -1.371,-5.323 -2.203,-10.781 -4.382,-15.894 -0.561,-1.317 0.172,-2.53 1.458,-3.215 1.754,-0.933 3.338,-0.187 4.251,1.158 C -1.428,-9.832 -0.79,-4.964 0,0"
             style="fill:#f2ebd2;fill-opacity:1;fill-rule:nonzero;stroke:none;stroke-width:33.75;stroke-dasharray:none;stroke-opacity:1"
             transform="matrix(1.3333333,0,0,-1.3333333,906.60093,2076.9675)"
             clip-path="url(#clipPath460)"
             id="path474" />
          <path
             d="m 0,0 c -0.777,-0.186 -1.807,-0.199 -2.576,-0.653 -4.475,-2.639 -8.173,-6.252 -11.862,-9.845 -0.957,-0.933 -1.163,-2.424 -0.446,-3.59 0.989,-1.611 2.815,-1.976 4.182,-0.926 4.325,3.328 8.644,6.711 12.58,10.476 C 3.76,-2.737 2.148,-1.072 0,0"
             style="fill:#f2ebd2;fill-opacity:1;fill-rule:nonzero;stroke:none;stroke-width:33.75;stroke-dasharray:none;stroke-opacity:1"
             transform="matrix(1.3333333,0,0,-1.3333333,841.9388,2266.8008)"
             clip-path="url(#clipPath461)"
             id="path475" />
          <path
             d="m 0,0 c 0.052,2.519 -0.517,4.355 -2.931,4.608 -1.934,0.203 -2.773,-1.261 -3.273,-2.921 -1.21,-4.021 -2.49,-8.02 -3.636,-12.058 -0.491,-1.729 0.006,-3.286 1.856,-3.888 1.747,-0.568 3.183,0.233 4.133,1.701 C -1.308,-8.628 -1.311,-3.922 0,0"
             style="fill:#f2ebd2;fill-opacity:1;fill-rule:nonzero;stroke:none;stroke-width:33.75;stroke-dasharray:none;stroke-opacity:1"
             transform="matrix(1.3333333,0,0,-1.3333333,879.94467,2139.7188)"
             clip-path="url(#clipPath462)"
             id="path476" />
          <path
             d="m 0,0 c -0.344,-0.116 -1.284,-0.147 -1.474,-0.541 -2.204,-4.556 -4.41,-9.119 -6.336,-13.796 -0.503,-1.222 0.807,-2.358 1.881,-3.093 1.178,-0.804 2.477,-0.639 3.619,0.09 2.739,1.749 6.213,13.235 4.872,16.006 C 2.107,-0.396 1.327,0.113 0,0"
             style="fill:#f2ebd2;fill-opacity:1;fill-rule:nonzero;stroke:none;stroke-width:33.75;stroke-dasharray:none;stroke-opacity:1"
             transform="matrix(1.3333333,0,0,-1.3333333,887.6908,2199.7305)"
             clip-path="url(#clipPath463)"
             id="path477" />
          <path
             d="M 0,0 C -0.439,-2.68 -0.192,-4.331 1.548,-5.021 3.915,-5.96 5.401,-4.229 5.954,-2.442 7.09,1.232 7.801,5.048 8.527,8.836 8.786,10.186 8.051,11.362 6.721,11.897 4.9,12.63 3.405,11.884 2.852,10.186 1.661,6.528 0.761,2.775 0,0"
             style="fill:#f2ebd2;fill-opacity:1;fill-rule:nonzero;stroke:none;stroke-width:33.75;stroke-dasharray:none;stroke-opacity:1"
             transform="matrix(1.3333333,0,0,-1.3333333,859.27933,2056.5781)"
             clip-path="url(#clipPath464)"
             id="path478" />
          <path
             d="m 0,0 c 2.508,-0.21 13.635,7.135 14.208,9.642 0.533,2.326 -0.916,4.23 -3.189,3.411 C 6.148,11.297 1.645,8.583 -1.665,4.51 -3.106,2.735 -2.264,0.818 0,0"
             style="fill:#f2ebd2;fill-opacity:1;fill-rule:nonzero;stroke:none;stroke-width:33.75;stroke-dasharray:none;stroke-opacity:1"
             transform="matrix(1.3333333,0,0,-1.3333333,749.27867,2272.138)"
             clip-path="url(#clipPath465)"
             id="path479" />
          <path
             d="m 0,0 c 3.133,0.038 5.234,2.322 7.127,4.352 2.326,2.493 8.349,4.595 4.584,8.747 C 8.507,16.633 5.854,11.179 3.167,9.396 1.31,8.163 -0.495,6.569 -1.707,4.73 -2.836,3.018 -2.655,0.944 0,0"
             style="fill:#f2ebd2;fill-opacity:1;fill-rule:nonzero;stroke:none;stroke-width:33.75;stroke-dasharray:none;stroke-opacity:1"
             transform="matrix(1.3333333,0,0,-1.3333333,788.6472,2281.7369)"
             clip-path="url(#clipPath466)"
             id="path480" />
          <path
             d="m 0,0 c -3.722,-2.161 -8.385,-3.917 -11.279,-7.953 -1.369,-1.909 0.047,-4.36 2.28,-3.973 4.895,0.846 9.032,3.64 11.908,7.687 C 4.225,-2.388 3.223,-0.488 0,0"
             style="fill:#f2ebd2;fill-opacity:1;fill-rule:nonzero;stroke:none;stroke-width:33.75;stroke-dasharray:none;stroke-opacity:1"
             transform="matrix(1.3333333,0,0,-1.3333333,760.0944,2292.4467)"
             clip-path="url(#clipPath467)"
             id="path481" />
          <path
             d="m 0,0 c 0.639,-0.986 0.984,-1.937 1.66,-2.469 1.142,-0.897 2.718,-0.684 3.575,0.205 3.207,3.333 5.077,7.401 5.402,12.035 0.05,0.709 -0.851,1.724 -1.575,2.2 C 7.807,12.796 6.298,12.285 5.677,11.172 3.65,7.543 1.887,3.766 0,0"
             style="fill:#f2ebd2;fill-opacity:1;fill-rule:nonzero;stroke:none;stroke-width:33.75;stroke-dasharray:none;stroke-opacity:1"
             transform="matrix(1.3333333,0,0,-1.3333333,858.85813,2099.612)"
             clip-path="url(#clipPath468)"
             id="path482" />
          <path
             d="m 0,0 c -2.901,-0.349 -7.537,-9.967 -5.839,-12.676 0.756,-1.205 1.94,-1.591 3.307,-1.015 2.439,1.024 6.245,8.838 5.56,11.591 C 2.693,-0.755 1.71,0.035 0,0"
             style="fill:#f2ebd2;fill-opacity:1;fill-rule:nonzero;stroke:none;stroke-width:33.75;stroke-dasharray:none;stroke-opacity:1"
             transform="matrix(1.3333333,0,0,-1.3333333,831.2552,2097.3268)"
             clip-path="url(#clipPath469)"
             id="path483" />
        </g>
        <g
           opacity="0.5"
           id="g486"
           clip-path="url(#clipPath487)"
           style="stroke:none;stroke-width:45;stroke-dasharray:none;stroke-opacity:1">
          <path
             d="m 0,0 c 12.296,0.072 24.629,0.723 36.808,3.005 12.571,2.356 24.551,6.479 35.321,13.446 21.998,14.228 41.761,31.045 57.565,52.091 11.215,14.934 19.475,31.503 25.244,49.264 1.195,3.678 1.468,7.646 2.482,11.396 2.821,10.435 -5.878,17.926 -6.97,27.416 -0.244,2.122 -3.357,1.819 -4.361,-0.383 -0.917,-2.012 -1.227,-4.357 -1.504,-6.593 -0.525,-4.229 -1.217,-8.466 -3.315,-12.164 C 125.549,109.766 107.017,84.234 79.46,67.196 51.359,49.82 20,41.763 -12.744,44.182 c -28.248,2.087 -55.609,9.173 -79.4,26.566 -19.558,14.297 -37.18,30.434 -52.769,48.898 -3.349,3.967 -6.594,8.115 -10.463,11.525 -3.846,3.388 -7.491,1.851 -8.421,-3.187 -0.402,-2.175 -0.148,-4.529 0.129,-6.762 0.842,-6.789 2.462,-13.404 4.472,-19.954 0.919,-2.996 3.117,-5.828 1.786,-9.351 -0.465,-1.23 -0.079,-2.492 0.979,-3.525 14.358,-14.013 28.149,-28.623 43.652,-41.427 6.017,-4.97 12.129,-9.825 18.13,-14.816 C -67.226,9.345 -35.907,-2.02 0,0"
             style="fill:#f2ebd2;fill-opacity:1;fill-rule:nonzero;stroke:none;stroke-width:33.75;stroke-dasharray:none;stroke-opacity:1"
             transform="matrix(1.3333333,0,0,-1.3333333,739.0156,2355.0456)"
             clip-path="url(#clipPath485)"
             id="path486" />
        </g>
        <g
           id="g489"
           clip-path="url(#clipPath490)"
           style="stroke:none;stroke-width:45;stroke-dasharray:none;stroke-opacity:1">
          <path
             d="M 0,0 C 18.851,5.726 33.193,22.053 21.712,42.232 16.47,51.446 5.61,54.294 -3.138,58.657 -13.674,63.911 -21.558,70.223 -34.022,70.337 -49.968,70.483 -66.159,59.979 -70.174,44.547 -74.424,28.208 -64.188,10.429 -49.286,2.496 -34.383,-5.436 -16.153,-4.907 0,0"
             style="fill:#f2ebd2;fill-opacity:1;fill-rule:nonzero;stroke:none;stroke-width:33.75;stroke-dasharray:none;stroke-opacity:1"
             transform="matrix(1.3333333,0,0,-1.3333333,895.14067,2007.2383)"
             clip-path="url(#clipPath488)"
             id="path489" />
        </g>
        <path
           id="path491"
           d="m 0,0 c 12.215,0.517 24.603,3.073 35.276,9.145 0.749,0.426 1.538,0.919 1.866,1.717 0.675,1.642 -0.938,3.267 -2.387,4.292 -10.482,7.422 -21.931,13.477 -33.966,17.962 -0.822,0.306 -1.693,0.611 -2.558,0.463 -1.45,-0.248 -2.38,-1.644 -3.079,-2.939 -3.801,-7.035 -6.072,-14.891 -6.61,-22.869 -0.112,-1.652 -0.127,-3.407 0.701,-4.84 1.545,-2.678 5.198,-3.071 8.289,-3.008 C -1.646,-0.061 -0.824,-0.035 0,0"
           style="fill:#4d5263;fill-opacity:1;fill-rule:nonzero;stroke:none;stroke-width:33.75;stroke-dasharray:none;stroke-opacity:1"
           transform="matrix(1.3333333,0,0,-1.3333333,900.9036,2007.5651)"
           clip-path="url(#clipPath492)" />
        <path
           id="path493"
           d="m 0,0 c -0.206,1.527 -0.731,2.688 -2.225,2.971 -1.382,0.262 -2.372,-0.395 -3.337,-1.426 -6.859,-7.326 -6.901,-7.339 -15.074,-1.802 -1.673,1.134 -3.406,2.496 -5.194,0.956 -2.316,-1.994 -0.913,-4.012 0.642,-5.868 5.871,-7.009 15.374,-8.045 21.556,-2.352 C -1.37,-5.437 -0.097,-2.933 0,0"
           style="fill:#4d5263;fill-opacity:1;fill-rule:nonzero;stroke:none;stroke-width:33.75;stroke-dasharray:none;stroke-opacity:1"
           transform="matrix(1.3333333,0,0,-1.3333333,874.7832,1954.0937)"
           clip-path="url(#clipPath494)" />
        <path
           id="path495"
           d="m 0,0 c 26.046,3.082 49.11,11.584 67.235,28.56 15.079,14.124 27.232,31.222 32.297,52.32 4.496,18.732 -1.844,33.019 -16.153,44.677 -0.747,0.608 -1.737,0.917 -2.495,1.516 -12.566,9.943 -25.868,10.383 -39.953,3.449 -15.806,-7.78 -32.42,-13.326 -49.794,-16.202 -9.874,-1.633 -19.902,-2.364 -29.872,-3.378 -7.736,-0.786 -15.493,-1.588 -22.911,-3.938 -13.713,-4.343 -18.284,-12.787 -14.97,-26.845 0.447,-1.891 0.438,-4.022 1.347,-5.646 2.462,-4.4 3.188,-8.027 -1.233,-11.982 -2.903,-2.595 -2.512,-6.675 -0.42,-9.922 2.438,-3.785 4.79,-7.607 8.904,-10.15 4.403,-2.722 8.398,-5.641 5.91,-12.501 -1.489,-4.104 1.392,-8.127 5.379,-10.503 8.771,-5.227 18.261,-8.642 28.396,-9.476 4.731,-0.39 8.552,-1.156 12.271,-4.525 C -11.35,1.185 -5.076,0.152 0,0"
           style="fill:#e2d7b7;fill-opacity:1;fill-rule:nonzero;stroke:none;stroke-width:33.75;stroke-dasharray:none;stroke-opacity:1"
           transform="matrix(1.3333333,0,0,-1.3333333,655.10227,2252.1003)"
           clip-path="url(#clipPath496)" />
        <g
           id="g502"
           clip-path="url(#clipPath503)"
           style="stroke:none;stroke-width:45;stroke-dasharray:none;stroke-opacity:1">
          <path
             d="m 0,0 c 43.639,4.802 79.7,21.633 110.095,50.871 21.087,20.283 33.417,45.256 40.946,73.029 0.17,0.627 0.403,1.25 0.471,1.89 0.261,2.481 1.563,5.804 -2.007,6.498 -3.488,0.678 -3.588,-2.845 -4.387,-5.225 -2.58,-7.694 -4.705,-15.588 -7.909,-23.016 C 114.674,51.804 73.499,22.747 19.36,10.083 13.354,8.679 7.219,7.836 1.16,6.647 -1.278,6.169 -4.722,6.28 -4.354,2.629 -3.972,-1.15 -0.598,0.027 0,0"
             style="fill:#e2d7b7;fill-opacity:1;fill-rule:nonzero;stroke:none;stroke-width:33.75;stroke-dasharray:none;stroke-opacity:1"
             transform="matrix(1.3333333,0,0,-1.3333333,593.20573,2247.4973)"
             clip-path="url(#clipPath497)"
             id="path500" />
          <path
             d="m 0,0 c 17.597,-0.042 34.045,4.695 49.876,11.931 28.591,13.066 55.05,29.347 77.307,51.853 10.632,10.751 19.184,22.927 24.519,37.174 0.896,2.392 2.131,4.804 1.752,7.495 -0.189,1.343 -1.033,2.509 -2.336,2.873 -1.314,0.367 -2.551,-0.128 -3.175,-1.522 -0.398,-0.888 -0.839,-1.768 -1.123,-2.693 C 142.311,92.432 133.655,80.304 123.019,69.598 96.436,42.84 64.832,24.053 29.386,11.519 22.271,9.003 14.87,8.003 7.399,7.463 c -5.837,-0.422 -11.688,-0.642 -17.53,-1 -2.49,-0.152 -5.894,0.434 -5.702,-3.418 0.188,-3.802 3.638,-2.917 6.08,-3.014 C -6.507,-0.097 -3.251,0 0,0"
             style="fill:#e2d7b7;fill-opacity:1;fill-rule:nonzero;stroke:none;stroke-width:33.75;stroke-dasharray:none;stroke-opacity:1"
             transform="matrix(1.3333333,0,0,-1.3333333,563.83533,2203.6341)"
             clip-path="url(#clipPath498)"
             id="path501" />
          <path
             d="m 0,0 c 24.101,0.525 46.58,7.642 68.394,17.312 36.686,16.262 67.526,39.884 91.184,72.533 0.952,1.314 2.03,2.543 2.918,3.898 1.14,1.739 1.761,3.66 -0.353,5.078 -1.973,1.323 -3.727,0.427 -5.092,-1.216 -2.49,-2.997 -4.975,-6.002 -7.363,-9.081 C 116.127,45.245 71.259,20.515 18.601,8.522 11.26,6.851 3.791,6.715 -3.663,6.322 -5.6,6.22 -7.553,6.292 -9.475,6.074 -10.816,5.922 -11.917,5.095 -12.154,3.667 -12.471,1.756 -11.344,0.261 -9.691,0.095 -6.49,-0.228 -3.233,0 0,0"
             style="fill:#e2d7b7;fill-opacity:1;fill-rule:nonzero;stroke:none;stroke-width:33.75;stroke-dasharray:none;stroke-opacity:1"
             transform="matrix(1.3333333,0,0,-1.3333333,540.78187,2163.336)"
             clip-path="url(#clipPath499)"
             id="path502" />
        </g>
      </g>
    </g>
  </g>
</svg>
