<?xml version="1.0" encoding="UTF-8" standalone="no"?>
<!-- Created with Inkscape (http://www.inkscape.org/) -->

<svg
   version="1.1"
   id="svg1"
   width="391.11646"
   height="445.01648"
   viewBox="0 0 391.11646 445.01647"
   xmlns="http://www.w3.org/2000/svg"
   xmlns:svg="http://www.w3.org/2000/svg">
  <defs
     id="defs1">
    <clipPath
       clipPathUnits="userSpaceOnUse"
       id="clipPath814">
      <path
         d="M 0,2000 H 2864.258 V 0 H 0 Z"
         transform="translate(-1753.666,-1267.626)"
         id="path814" />
    </clipPath>
    <clipPath
       clipPathUnits="userSpaceOnUse"
       id="clipPath815">
      <path
         d="m 1678.7,1323.39 h 162.63 v -66.83 H 1678.7 Z"
         transform="translate(-1752.666,-1256.5771)"
         id="path815" />
    </clipPath>
    <clipPath
       clipPathUnits="userSpaceOnUse"
       id="clipPath817">
      <path
         d="m 1837.019,1378.411 c -5.395,-2.253 -10.554,-5.076 -15.972,-7.264 v 0 c -8.858,-3.577 -17.901,-5.724 -27.539,-2.886 v 0 c -6.224,1.833 -12.646,2.996 -18.866,4.839 v 0 c -2.943,0.872 -4.772,0.529 -6.599,-2.058 v 0 c -10.275,-14.544 -24.549,-23.523 -40.767,-30.375 v 0 c -10.711,-4.524 -21.828,-6.139 -33.04,-7.704 v 0 c -4.825,-0.672 -6.687,-2.642 -6.798,-7.462 v 0 c -0.206,-8.8 2.177,-16.816 6.947,-23.993 v 0 c 14.33,-21.56 34.618,-32.713 59.281,-33.882 v 0 c 18.294,0.111 32.893,6.914 45.495,17.812 v 0 c 19.726,17.062 36.381,37.166 54.129,56.18 v 0 c 2.677,2.869 4.027,6.505 0.898,9.562 v 0 c -2.551,2.494 -2.05,3.531 -0.065,6.091 v 0 c 4.691,6.051 3.815,8.837 -3.212,11.319 v 0 c -2.083,0.737 -2.822,0.864 -2.999,3.527 v 0 c -0.354,5.326 -1.902,7.753 -5.221,7.753 v 0 c -1.507,0 -3.38,-0.501 -5.672,-1.459"
         transform="matrix(1.3333333,0,0,-1.3333333,0,2666.6667)"
         id="path817" />
    </clipPath>
    <clipPath
       clipPathUnits="userSpaceOnUse"
       id="clipPath819">
      <path
         d="M 0,2000 H 2864.258 V 0 H 0 Z"
         transform="translate(-1690.0693,-1469.8018)"
         id="path819" />
    </clipPath>
    <clipPath
       clipPathUnits="userSpaceOnUse"
       id="clipPath820">
      <path
         d="m 1647.99,1432.08 h 138.52 v -117.07 h -138.52 z"
         transform="translate(-1786.5099,-1391.0688)"
         id="path820" />
    </clipPath>
    <clipPath
       clipPathUnits="userSpaceOnUse"
       id="clipPath822">
      <path
         d="m 1694.005,1487.354 c -2.966,-0.4 -4.31,-2.521 -4.729,-5.405 v 0 c -0.41,-2.818 0.706,-5.765 -0.699,-8.541 v 0 c -2.051,0.227 -2.441,1.984 -3.158,3.334 v 0 c -1.456,2.735 -3.698,3.676 -6.504,2.664 v 0 c -2.851,-1.028 -3.484,-3.531 -3.552,-6.319 v 0 c -0.085,-3.439 1.412,-6.188 3.164,-9.017 v 0 c 3.911,-6.311 3.633,-6.139 -2.332,-10.273 v 0 c -22.813,-15.814 -32.663,-38.372 -31.248,-65.378 v 0 c 0.756,-14.416 6.998,-27.722 16.287,-39.028 v 0 c 7.092,-8.63 15.564,-15.551 26.678,-18.817 v 0 c 16.052,-4.717 31.762,-3.179 46.547,3.671 v 0 c 28.747,13.319 44.075,38.865 37.483,74.355 v 0 c -1.67,8.989 -4.418,17.542 -10.167,25.024 v 0 c -9.22,12 -21.576,19.772 -35.173,25.206 v 0 c -6.868,2.745 -9.638,6.848 -10.523,13.356 v 0 c -0.219,1.608 -0.211,3.248 -0.432,4.855 v 0 c -0.438,3.167 -2.01,5.609 -5.269,6.23 v 0 c -3.086,0.589 -4.694,-1.589 -5.95,-4.019 v 0 c -0.603,-1.165 -1.248,-2.284 -3.294,-2.041 v 0 c -0.255,1.745 -0.422,3.636 -0.824,5.475 v 0 c -0.654,2.989 -2.439,4.74 -5.273,4.739 v 0 c -0.33,0 -0.674,-0.023 -1.032,-0.071 m -4.219,-18.068 0.283,0.516 0.175,-0.563 z"
         transform="matrix(1.3333333,0,0,-1.3333333,0,2666.6667)"
         id="path822" />
    </clipPath>
    <clipPath
       clipPathUnits="userSpaceOnUse"
       id="clipPath824">
      <path
         d="M 0,2000 H 2864.258 V 0 H 0 Z"
         transform="translate(-1689.4482,-1397.8057)"
         id="path824" />
    </clipPath>
    <clipPath
       clipPathUnits="userSpaceOnUse"
       id="clipPath826">
      <path
         d="M 0,2000 H 2864.258 V 0 H 0 Z"
         transform="translate(-1740.624,-1261.2256)"
         id="path826" />
    </clipPath>
    <clipPath
       clipPathUnits="userSpaceOnUse"
       id="clipPath828">
      <path
         d="M 0,2000 H 2864.258 V 0 H 0 Z"
         transform="translate(-1774.7637,-1261.9346)"
         id="path828" />
    </clipPath>
    <clipPath
       clipPathUnits="userSpaceOnUse"
       id="clipPath830">
      <path
         d="M 0,2000 H 2864.258 V 0 H 0 Z"
         transform="translate(-1676.6553,-1405.2764)"
         id="path830" />
    </clipPath>
    <clipPath
       clipPathUnits="userSpaceOnUse"
       id="clipPath832">
      <path
         d="M 0,2000 H 2864.258 V 0 H 0 Z"
         transform="translate(-1713.7695,-1404.2188)"
         id="path832" />
    </clipPath>
    <clipPath
       clipPathUnits="userSpaceOnUse"
       id="clipPath833">
      <path
         d="M 1760.74,1351.1 H 1833 v -39.67 h -72.26 z"
         transform="translate(-1825.9707,-1340.5015)"
         id="path833" />
    </clipPath>
    <clipPath
       clipPathUnits="userSpaceOnUse"
       id="clipPath835">
      <path
         d="M 0,2000 H 2864.258 V 0 H 0 Z"
         transform="matrix(1.3333333,0,0,-1.3333333,0,2666.6667)"
         id="path835" />
    </clipPath>
    <clipPath
       clipPathUnits="userSpaceOnUse"
       id="clipPath836">
      <path
         d="m 1718.52,1314.31 h 16.79 v -13.2 h -16.79 z"
         transform="translate(-1735.3096,-1303.77)"
         id="path836" />
    </clipPath>
    <clipPath
       clipPathUnits="userSpaceOnUse"
       id="clipPath838">
      <path
         d="M 0,2000 H 2864.258 V 0 H 0 Z"
         transform="matrix(1.3333333,0,0,-1.3333333,0,2666.6667)"
         id="path838" />
    </clipPath>
    <clipPath
       clipPathUnits="userSpaceOnUse"
       id="clipPath839">
      <path
         d="m 1770.24,1296.93 h 17.51 v -6.79 h -17.51 z"
         transform="translate(-1780.6348,-1290.1475)"
         id="path839" />
    </clipPath>
    <clipPath
       clipPathUnits="userSpaceOnUse"
       id="clipPath841">
      <path
         d="M 0,2000 H 2864.258 V 0 H 0 Z"
         transform="matrix(1.3333333,0,0,-1.3333333,0,2666.6667)"
         id="path841" />
    </clipPath>
    <clipPath
       clipPathUnits="userSpaceOnUse"
       id="clipPath842">
      <path
         d="m 1699.94,1314.22 h 12.76 v -14.14 h -12.76 z"
         transform="translate(-1712.6973,-1302.2695)"
         id="path842" />
    </clipPath>
    <clipPath
       clipPathUnits="userSpaceOnUse"
       id="clipPath844">
      <path
         d="M 0,2000 H 2864.258 V 0 H 0 Z"
         transform="matrix(1.3333333,0,0,-1.3333333,0,2666.6667)"
         id="path844" />
    </clipPath>
    <clipPath
       clipPathUnits="userSpaceOnUse"
       id="clipPath845">
      <path
         d="m 1747.51,1292.16 h 14.26 v -8.9 h -14.26 z"
         transform="translate(-1757.2051,-1283.2866)"
         id="path845" />
    </clipPath>
    <clipPath
       clipPathUnits="userSpaceOnUse"
       id="clipPath847">
      <path
         d="M 0,2000 H 2864.258 V 0 H 0 Z"
         transform="matrix(1.3333333,0,0,-1.3333333,0,2666.6667)"
         id="path847" />
    </clipPath>
    <clipPath
       clipPathUnits="userSpaceOnUse"
       id="clipPath848">
      <path
         d="m 1743.4,1318.29 h 10.7 v -9.03 h -10.7 z"
         transform="translate(-1746.7822,-1318.2896)"
         id="path848" />
    </clipPath>
    <clipPath
       clipPathUnits="userSpaceOnUse"
       id="clipPath850">
      <path
         d="M 0,2000 H 2864.258 V 0 H 0 Z"
         transform="matrix(1.3333333,0,0,-1.3333333,0,2666.6667)"
         id="path850" />
    </clipPath>
    <clipPath
       clipPathUnits="userSpaceOnUse"
       id="clipPath851">
      <path
         d="m 1723.65,1290.48 h 10.06 v -9.06 h -10.06 z"
         transform="translate(-1733.709,-1283.9482)"
         id="path851" />
    </clipPath>
    <clipPath
       clipPathUnits="userSpaceOnUse"
       id="clipPath853">
      <path
         d="M 0,2000 H 2864.258 V 0 H 0 Z"
         transform="matrix(1.3333333,0,0,-1.3333333,0,2666.6667)"
         id="path853" />
    </clipPath>
    <clipPath
       clipPathUnits="userSpaceOnUse"
       id="clipPath854">
      <path
         d="m 1677.06,1458.13 h 48.98 v -45.96 h -48.98 z"
         transform="translate(-1702.005,-1421.1724)"
         id="path854" />
    </clipPath>
    <clipPath
       clipPathUnits="userSpaceOnUse"
       id="clipPath855">
      <path
         d="m 1677.06,1458.13 h 48.98 v -45.96 h -48.98 z"
         transform="translate(-1706.418,-1442.624)"
         id="path855" />
    </clipPath>
    <clipPath
       clipPathUnits="userSpaceOnUse"
       id="clipPath856">
      <path
         d="m 1677.06,1458.13 h 48.98 v -45.96 h -48.98 z"
         transform="translate(-1685.7061,-1440.605)"
         id="path856" />
    </clipPath>
    <clipPath
       clipPathUnits="userSpaceOnUse"
       id="clipPath857">
      <path
         d="m 1677.06,1458.13 h 48.98 v -45.96 h -48.98 z"
         transform="translate(-1703.8263,-1454.8027)"
         id="path857" />
    </clipPath>
    <clipPath
       clipPathUnits="userSpaceOnUse"
       id="clipPath858">
      <path
         d="m 1677.06,1458.13 h 48.98 v -45.96 h -48.98 z"
         transform="translate(-1722.9834,-1434.7178)"
         id="path858" />
    </clipPath>
    <clipPath
       clipPathUnits="userSpaceOnUse"
       id="clipPath859">
      <path
         d="m 1677.06,1458.13 h 48.98 v -45.96 h -48.98 z"
         transform="translate(-1720.8271,-1445.7524)"
         id="path859" />
    </clipPath>
    <clipPath
       clipPathUnits="userSpaceOnUse"
       id="clipPath866">
      <path
         d="M 0,2000 H 2864.258 V 0 H 0 Z"
         transform="matrix(1.3333333,0,0,-1.3333333,0,2666.6667)"
         id="path866" />
    </clipPath>
    <filter
       style="color-interpolation-filters:sRGB"
       id="filter1602"
       x="-0.16990396"
       y="-0.14281541"
       width="1.3821548"
       height="1.3212523">
      <feFlood
         result="flood"
         in="SourceGraphic"
         flood-opacity="0.200000"
         flood-color="rgb(0,0,0)"
         id="feFlood1601" />
      <feGaussianBlur
         result="blur"
         in="SourceGraphic"
         stdDeviation="8.000000"
         id="feGaussianBlur1601" />
      <feOffset
         result="offset"
         in="blur"
         dx="9.000000"
         dy="9.000000"
         id="feOffset1601" />
      <feComposite
         result="comp1"
         operator="in"
         in="flood"
         in2="offset"
         id="feComposite1601" />
      <feComposite
         result="comp2"
         operator="over"
         in="SourceGraphic"
         in2="comp1"
         id="feComposite1602" />
    </filter>
  </defs>
  <g
     id="g1"
     transform="translate(3602.7817,-1854.9482)">
    <g
       id="g1602">
      <path
         id="path1547"
         clip-path="url(#clipPath814)"
         style="fill:#f3c21e;fill-opacity:1;fill-rule:nonzero;stroke:#ffffff;stroke-width:33.75;stroke-dasharray:none;stroke-opacity:1;filter:url(#filter1602)"
         d="m -58.433894,219.79677 c -0.388611,0.0113 -0.798289,-0.011 -1.227539,-0.0688 -2.966,-0.4 -4.30998,-2.52127 -4.72998,-5.40527 -0.409,-2.818 0.707734,-5.76451 -0.697266,-8.54151 -2.051,0.227 -2.441203,1.98499 -3.158203,3.33399 -1.456,2.735 -3.698907,3.67655 -6.503907,2.66455 -2.852,-1.028 -3.484246,-3.53134 -3.552246,-6.31934 -0.084,-3.439 1.411063,-6.18711 3.164063,-9.01611 3.911,-6.312 3.632969,-6.13895 -2.332031,-10.27295 -22.813997,-15.813 -32.663047,-38.37144 -31.248047,-65.37744 0.756,-14.417 6.9986,-27.7233 16.287597,-39.0293 7.092,-8.631 15.563735,-15.549918 26.677735,-18.815918 0.281096,-0.0826 0.561403,-0.148279 0.842285,-0.227051 -0.846387,-1.152366 -1.266703,-2.706255 -1.316894,-4.847168 -0.206,-8.8 2.177754,-16.815676 6.947754,-23.992676 10.334083,-15.548 23.780371,-25.6539734 39.717774,-30.5361339 -0.04515,-4.02804925 -0.114533,-8.0577779 0.09375,-12.0732425 0.213,-4.0899996 -1.139402,-6.0167616 -5.462402,-5.6557616 -4.562,0.38 -9.004688,-0.694922 -13.429688,-1.669922 -2.273,-0.5 -4.617532,-1.123543 -4.769532,-3.956543 -0.134,-2.497 2.142086,-2.531793 3.788086,-3.487793 3.171,-1.839 4.955126,-6.811125 10.078126,-3.328125 1.163,0.792 1.549179,-1.2202 2.159179,-2.3042 2.75,-4.894 3.610797,-4.76489 6.966797,-0.46289 5.88,7.535 8.414169,15.888871 7.097169,23.1928713 0,3.3892677 0.0054,5.83319789 0.0044,8.046387 C -8.8418177,0.76733192 -4.4952029,0.21296668 1.8984375e-4,-1.1015625e-4 5.176279,0.03129609 10.047562,0.61687479 14.6706,1.6610227 c -0.04005,-3.8993101 -0.04162,-7.7972909 0.202149,-11.6791997 0.277,-4.397 -1.476504,-6.640383 -5.5415042,-7.567383 -3.461,-0.79 -7.0040784,-1.379012 -10.33007842,-2.562012 -4.27599998,-1.521 -4.14949218,-3.669668 -1.10449218,-6.909668 3.498,-3.721 8.2644378,-2.342027 12.0234378,-4.103027 3.219,-1.508 4.430242,-0.920875 6.073242,1.828125 4.638,7.765 6.498981,16.008114 5.104981,23.6411137 0,3.6316712 9.76e-4,6.29225235 0.0015,9.1567385 9.03053,3.0562388 17.056161,7.9992308 24.395508,14.3466798 19.727,17.061 36.380908,37.165689 54.128908,56.179689 2.678009,2.87 4.025959,6.5055 0.897959,9.5625 -2.55101,2.494 -2.049463,3.530821 -0.0645,6.090821 4.691,6.051 3.8146,8.837313 -3.212406,11.32031 -2.083,0.736 -2.823,0.86388 -3,3.52588 -0.516,7.746 -3.556578,9.35897 -10.892578,6.29297 -5.395,-2.253 -10.553192,-5.07616 -15.971192,-7.26416 -8.86,-3.577 -17.903063,-5.723742 -27.539063,-2.88574 -6.225,1.833 -12.647188,2.99684 -18.867188,4.83984 -1.611197,0.47723 -2.882367,0.57026 -4.007813,0.15088 3.174194,10.33032 3.759949,22.14992 1.308106,35.34815 -1.669,8.99 -4.417016,17.54239 -10.166016,25.02539 -9.221,11.999 -21.577829,19.77156 -35.173829,25.20556 -6.868,2.745 -9.636973,6.84699 -10.521973,13.35499 -0.219,1.609 -0.211594,3.24795 -0.433594,4.85595 -0.437,3.167 -2.009578,5.60898 -5.267578,6.22998 -3.086,0.589 -4.69466,-1.58953 -5.95166,-4.01953 -0.602,-1.165 -1.246969,-2.28453 -3.292969,-2.04053 -0.254,1.745 -0.421707,3.63513 -0.824707,5.47413 -0.637875,2.91987 -2.356869,4.65847 -5.077149,4.7373 z m -5.162109,-17.62061 0.174316,-0.5625 c 8.137764,-28.50327 7.744042,-27.12303 -0.174316,0.5625 z"
         transform="matrix(1.3333333,0,0,-1.3333333,-3409.567,2208.1144)" />
      <g
         id="g1547"
         transform="translate(166.47722,82.039491)">
        <path
           id="path813"
           d="m 0,0 c -24.663,1.169 -44.951,12.322 -59.281,33.882 -4.77,7.177 -7.154,15.193 -6.948,23.993 0.113,4.82 1.974,6.79 6.798,7.462 11.213,1.565 22.329,3.18 33.04,7.705 16.219,6.851 30.494,15.83 40.768,30.374 1.827,2.586 3.655,2.93 6.599,2.058 6.22,-1.843 12.642,-3.006 18.867,-4.839 9.636,-2.838 18.679,-0.691 27.539,2.886 5.418,2.188 10.576,5.011 15.971,7.264 7.336,3.066 10.377,1.452 10.893,-6.294 0.177,-2.662 0.916,-2.79 2.999,-3.526 7.027,-2.483 7.903,-5.269 3.212,-11.32 -1.985,-2.56 -2.486,-3.597 0.065,-6.091 3.128,-3.057 1.78,-6.692 -0.898,-9.562 C 81.876,54.978 65.222,34.874 45.495,17.813 32.894,6.915 18.294,0.111 0,0"
           style="fill:#f3c21e;fill-opacity:1;fill-rule:nonzero;stroke:none"
           transform="matrix(1.3333333,0,0,-1.3333333,-3576.0525,2126.0762)"
           clip-path="url(#clipPath814)" />
        <g
           opacity="0.5"
           id="g816"
           clip-path="url(#clipPath817)"
           transform="translate(-5914.2738,1149.5775)">
          <path
             d="m 0,0 c -23.617,-0.386 -44.974,5.709 -63.004,21.572 -3.684,3.241 -7.319,6.421 -9.353,11.035 -1.648,3.74 -2.821,7.702 0.567,10.831 3.652,3.373 7.49,2.316 11.454,-0.407 13.46,-9.245 28.822,-12.928 44.771,-14.979 13.804,-1.774 26.456,1.768 38.508,7.873 15.048,7.621 30.254,14.985 44.428,24.218 3.823,2.49 7.726,4.88 12.108,6.17 5.953,1.753 9.428,-1.149 9.175,-7.438 C 88.493,54.87 86.727,51.353 84.899,47.915 78.674,36.208 69.704,26.893 59.08,19.171 41.478,6.377 21.749,-0.118 0,0"
             style="fill:#f3c21e;fill-opacity:1;fill-rule:nonzero;stroke:none"
             transform="matrix(1.3333333,0,0,-1.3333333,2336.888,991.23053)"
             clip-path="url(#clipPath815)"
             id="path816" />
        </g>
        <path
           id="path818"
           d="m 0,0 -0.283,-0.516 0.458,-0.046 z m -1.492,3.606 c 1.405,2.777 0.289,5.723 0.698,8.541 0.42,2.884 1.764,5.005 4.73,5.405 3.434,0.463 5.575,-1.331 6.304,-4.668 0.403,-1.839 0.57,-3.729 0.824,-5.474 2.046,-0.244 2.692,0.875 3.294,2.04 1.257,2.43 2.865,4.608 5.951,4.019 3.258,-0.621 4.831,-3.062 5.268,-6.229 0.222,-1.608 0.214,-3.247 0.433,-4.856 0.885,-6.508 3.655,-10.611 10.523,-13.356 13.596,-5.434 25.952,-13.206 35.173,-25.205 5.749,-7.483 8.497,-16.035 10.166,-25.025 6.593,-35.49 -8.735,-61.036 -37.482,-74.355 -14.786,-6.85 -30.495,-8.387 -46.547,-3.67 -11.114,3.266 -19.586,10.185 -26.678,18.816 -9.289,11.306 -15.531,24.612 -16.287,39.029 -1.415,27.006 8.434,49.564 31.248,65.377 5.965,4.134 6.243,3.962 2.332,10.274 -1.753,2.829 -3.249,5.577 -3.165,9.016 0.068,2.788 0.701,5.291 3.553,6.319 2.805,1.012 5.048,0.071 6.504,-2.664 0.717,-1.349 1.107,-3.107 3.158,-3.334"
           style="fill:#f6d876;fill-opacity:1;fill-rule:nonzero;stroke:none"
           transform="matrix(1.3333333,0,0,-1.3333333,-3660.8481,1856.5084)"
           clip-path="url(#clipPath819)" />
        <g
           opacity="0.5"
           id="g821"
           clip-path="url(#clipPath822)"
           transform="translate(-5914.2738,1149.5775)">
          <path
             d="m 0,0 c -0.442,-35.339 -25.039,-67.417 -57.674,-74.167 -22.787,-4.713 -44.547,-0.324 -65.146,10.064 -6.43,3.242 -10.878,8.472 -11.557,15.832 -0.327,3.551 -2.4,5.899 -3.764,8.768 -0.762,1.605 -0.384,3.254 1.165,4.257 1.278,0.827 2.554,0.134 3.5,-0.77 5.196,-4.96 10.873,-9.182 17.684,-11.666 46.356,-16.908 82.218,12.835 90.668,53.159 1.604,7.659 2.154,15.417 2.356,23.234 0.124,4.829 0.044,10.178 6.038,12.038 4.077,1.266 7.803,-2.152 10.727,-9.327 C -2.521,22.88 0.114,9.086 0,0"
             style="fill:#f6d876;fill-opacity:1;fill-rule:nonzero;stroke:none"
             transform="matrix(1.3333333,0,0,-1.3333333,2382.0131,811.90827)"
             clip-path="url(#clipPath820)"
             id="path821" />
        </g>
        <path
           id="path823"
           d="m 0,0 c 4.615,-0.401 10.131,-0.866 13.823,-5.941 2.188,-3.007 2.493,-5.742 -0.673,-8.339 -6.287,-5.156 -12.491,-10.412 -18.796,-15.546 -1.342,-1.092 -2.939,-1.96 -4.765,-0.739 -1.712,1.144 -1.877,2.876 -1.639,4.63 0.856,6.328 1.692,12.661 2.745,18.956 C -8.169,-0.187 -7.754,0.055 0,0"
           style="fill:#4d5263;fill-opacity:1;fill-rule:nonzero;stroke:none"
           transform="matrix(1.3333333,0,0,-1.3333333,-3661.6762,1952.5032)"
           clip-path="url(#clipPath824)" />
        <path
           id="path825"
           d="m 0,0 c 1.317,-7.304 -1.216,-15.658 -7.096,-23.193 -3.356,-4.302 -4.218,-4.43 -6.968,0.464 -0.61,1.084 -0.996,3.095 -2.159,2.303 -5.123,-3.483 -6.906,1.49 -10.077,3.329 -1.646,0.956 -3.922,0.99 -3.788,3.487 0.152,2.833 2.496,3.457 4.769,3.957 4.425,0.975 8.868,2.05 13.43,1.67 4.323,-0.361 5.675,1.565 5.462,5.655 -0.251,4.839 -0.096,9.7 -0.07,14.552 0.013,2.359 0.364,4.916 3.376,4.774 2.975,-0.14 3.083,-2.796 3.111,-5.105 C 0.029,8.659 0,5.425 0,0"
           style="fill:#4d5263;fill-opacity:1;fill-rule:nonzero;stroke:none"
           transform="matrix(1.3333333,0,0,-1.3333333,-3593.4418,2134.61)"
           clip-path="url(#clipPath826)" />
        <path
           id="path827"
           d="m 0,0 c 1.394,-7.633 -0.467,-15.876 -5.105,-23.641 -1.643,-2.749 -2.853,-3.336 -6.072,-1.828 -3.759,1.761 -8.526,0.382 -12.024,4.103 -3.045,3.24 -3.171,5.389 1.105,6.91 3.326,1.183 6.869,1.772 10.33,2.562 4.065,0.927 5.818,3.17 5.541,7.567 -0.384,6.115 -0.174,12.27 -0.132,18.407 0.012,1.97 0.355,4.198 2.783,4.368 2.987,0.208 3.582,-2.05 3.576,-4.527 C -0.007,9.721 0,5.521 0,0"
           style="fill:#4d5263;fill-opacity:1;fill-rule:nonzero;stroke:none"
           transform="matrix(1.3333333,0,0,-1.3333333,-3547.9222,2133.6647)"
           clip-path="url(#clipPath828)" />
        <path
           id="path829"
           d="m 0,0 c -0.841,-2.661 -6.72,-6.162 -10.114,-6.256 -3.942,-0.109 -6.589,1.824 -8.092,5.345 -0.606,1.421 -0.363,2.842 0.97,3.859 1.11,0.847 2.507,0.633 3.102,-0.292 3.178,-4.931 6.309,-2.076 9.522,-0.164 1.373,0.817 2.841,0.763 3.935,-0.409 C -0.173,1.542 -0.161,0.542 0,0"
           style="fill:#4d5263;fill-opacity:1;fill-rule:nonzero;stroke:none"
           transform="matrix(1.3333333,0,0,-1.3333333,-3678.7334,1942.5423)"
           clip-path="url(#clipPath830)" />
        <path
           id="path831"
           d="m 0,0 c 0.55,-0.15 1.345,-0.12 1.588,-0.471 2.758,-3.976 5.611,-4.233 8.9,-0.572 1.021,1.136 2.615,1.472 3.838,0.259 1.539,-1.525 0.955,-3.177 -0.318,-4.587 -2.572,-2.848 -5.372,-5.37 -9.626,-4.785 -3.601,0.495 -5.467,2.993 -6.506,6.188 C -2.752,-2.037 -2.084,-0.588 0,0"
           style="fill:#4d5263;fill-opacity:1;fill-rule:nonzero;stroke:none"
           transform="matrix(1.3333333,0,0,-1.3333333,-3629.2478,1943.9524)"
           clip-path="url(#clipPath832)" />
        <g
           id="g834"
           clip-path="url(#clipPath835)"
           transform="translate(-5914.2738,1149.5775)">
          <path
             d="m 0,0 c -1.357,2.713 -2.87,3.364 -4.304,4.09 -1.773,0.897 -3.805,1.871 -3.013,4.231 0.973,2.9 3.578,2.475 5.733,1.714 C 2.591,8.56 6.044,5.901 6.888,1.393 7.729,-3.104 4.562,-5.797 1.089,-7.842 c -2.22,-1.307 -4.58,-2.524 -7.035,-3.249 -3.752,-1.108 -6.118,-2.472 -5.75,-7.229 0.316,-4.098 -3.492,-5.957 -6.743,-7.478 -16.752,-7.829 -35.665,-1.278 -45.676,16.228 -0.767,1.341 -1.018,3.091 -1.103,4.673 -0.087,1.628 0.396,3.316 2.359,3.715 1.921,0.391 3.193,-0.702 3.546,-2.445 1.192,-5.873 5.306,-9.665 9.693,-12.94 8.032,-5.998 16.918,-7.975 26.557,-3.893 2.903,1.23 4.968,2.141 2.73,6.318 -2.622,4.892 -1.765,5.908 3.57,7.157 C -10.851,-5.602 -4.736,-4.81 0,0"
             style="fill:#f3c21e;fill-opacity:1;fill-rule:nonzero;stroke:none"
             transform="matrix(1.3333333,0,0,-1.3333333,2434.6276,879.33133)"
             clip-path="url(#clipPath833)"
             id="path834" />
        </g>
        <g
           id="g837"
           clip-path="url(#clipPath838)"
           transform="translate(-5914.2738,1149.5775)">
          <path
             d="m 0,0 c -0.473,-1.771 -1.654,-3.1 -3.438,-2.52 -5.031,1.637 -9.249,4.651 -12.707,8.648 -0.934,1.08 -0.815,2.568 0.121,3.542 0.563,0.586 2.063,1.099 2.586,0.768 C -9.091,7.678 -4.854,4.741 -0.644,1.771 -0.224,1.475 -0.206,0.607 0,0"
             style="fill:#f3c21e;fill-opacity:1;fill-rule:nonzero;stroke:none"
             transform="matrix(1.3333333,0,0,-1.3333333,2313.7461,928.30667)"
             clip-path="url(#clipPath836)"
             id="path837" />
        </g>
        <g
           id="g840"
           clip-path="url(#clipPath841)"
           transform="translate(-5914.2738,1149.5775)">
          <path
             d="m 0,0 c -2.756,0.369 -6.092,0.02 -8.976,1.847 -1.208,0.765 -1.791,1.997 -1.16,3.28 0.367,0.747 1.411,1.671 2.128,1.651 C -4.142,6.672 -0.273,6.385 3.575,5.979 5.632,5.762 7.445,4.761 7.064,2.319 6.771,0.433 5.038,0.042 3.337,0.004 2.367,-0.018 1.396,0 0,0"
             style="fill:#f3c21e;fill-opacity:1;fill-rule:nonzero;stroke:none"
             transform="matrix(1.3333333,0,0,-1.3333333,2374.1797,946.47)"
             clip-path="url(#clipPath839)"
             id="path840" />
        </g>
        <g
           id="g843"
           clip-path="url(#clipPath844)"
           transform="translate(-5914.2738,1149.5775)">
          <path
             d="m 0,0 c -0.206,-1.56 -1.255,-2.202 -2.662,-2.185 -3.478,0.045 -10.418,8.137 -10.08,11.763 0.135,1.445 1.121,2.34 2.551,2.369 C -7.904,11.993 0.179,2.416 0,0"
             style="fill:#f3c21e;fill-opacity:1;fill-rule:nonzero;stroke:none"
             transform="matrix(1.3333333,0,0,-1.3333333,2283.5964,930.30733)"
             clip-path="url(#clipPath842)"
             id="path843" />
        </g>
        <g
           id="g846"
           clip-path="url(#clipPath847)"
           transform="translate(-5914.2738,1149.5775)">
          <path
             d="m 0,0 c -2.594,0.464 -5.89,1.625 -8.694,3.821 -1.025,0.803 -1.307,2.163 -0.636,3.453 0.664,1.275 1.882,1.884 3.163,1.477 3.026,-0.961 6,-2.103 8.947,-3.288 C 4.08,4.94 4.789,3.635 4.5,2.374 4.111,0.674 2.744,-0.191 0,0"
             style="fill:#f3c21e;fill-opacity:1;fill-rule:nonzero;stroke:none"
             transform="matrix(1.3333333,0,0,-1.3333333,2342.9401,955.61787)"
             clip-path="url(#clipPath845)"
             id="path846" />
        </g>
        <g
           id="g849"
           clip-path="url(#clipPath850)"
           transform="translate(-5914.2738,1149.5775)">
          <path
             d="M 0,0 C 2.416,-0.673 5.382,-2.353 7.209,-5.518 7.529,-6.072 7.104,-7.52 6.545,-8.039 4.418,-10.014 2.333,-8.635 0.535,-7.398 -1.482,-6.01 -4.103,-4.767 -3.205,-1.501 -2.945,-0.555 -2.175,0.055 0,0"
             style="fill:#f3c21e;fill-opacity:1;fill-rule:nonzero;stroke:none"
             transform="matrix(1.3333333,0,0,-1.3333333,2329.0429,908.9472)"
             clip-path="url(#clipPath848)"
             id="path849" />
        </g>
        <g
           id="g852"
           clip-path="url(#clipPath853)"
           transform="translate(-5914.2738,1149.5775)">
          <path
             d="m 0,0 c -0.335,-1.313 -1.071,-2.329 -2.462,-2.503 -2.741,-0.343 -7.231,3.206 -7.571,6.007 -0.162,1.333 0.348,2.541 1.767,2.958 C -5.869,7.169 -0.027,2.555 0,0"
             style="fill:#f3c21e;fill-opacity:1;fill-rule:nonzero;stroke:none"
             transform="matrix(1.3333333,0,0,-1.3333333,2311.612,954.73573)"
             clip-path="url(#clipPath851)"
             id="path852" />
        </g>
        <g
           id="g865"
           clip-path="url(#clipPath866)"
           transform="translate(-5914.2738,1149.5775)">
          <path
             d="m 0,0 c -0.182,-0.692 -0.227,-1.709 -0.69,-2.471 -1.38,-2.269 -0.818,-5.992 -4.54,-6.508 -1.39,-0.192 -2.474,0.819 -2.642,2.18 -0.449,3.666 0.516,7.024 3.665,9.104 C -2.31,3.559 -0.59,2.67 0,0"
             style="fill:#f6d876;fill-opacity:1;fill-rule:nonzero;stroke:none"
             transform="matrix(1.3333333,0,0,-1.3333333,2269.3399,771.77013)"
             clip-path="url(#clipPath854)"
             id="path860" />
          <path
             d="m 0,0 c 1.479,-0.208 2.37,-1.096 2.441,-2.536 0.118,-2.351 -5.295,-8.109 -7.417,-7.895 -1.475,0.149 -2.284,1.229 -2.346,2.639 C -7.474,-4.372 -3.189,0.12 0,0"
             style="fill:#f6d876;fill-opacity:1;fill-rule:nonzero;stroke:none"
             transform="matrix(1.3333333,0,0,-1.3333333,2275.224,743.168)"
             clip-path="url(#clipPath855)"
             id="path861" />
          <path
             d="m 0,0 c 0.108,-2.547 -4.058,-9.072 -5.88,-8.955 -1.803,0.117 -2.731,1.382 -2.763,3.184 -0.068,3.869 3.48,8.624 6.268,8.311 C -1.001,2.385 -0.235,1.37 0,0"
             style="fill:#f6d876;fill-opacity:1;fill-rule:nonzero;stroke:none"
             transform="matrix(1.3333333,0,0,-1.3333333,2247.6081,745.86)"
             clip-path="url(#clipPath856)"
             id="path862" />
          <path
             d="m 0,0 c -0.715,-2.286 -6.219,-5.776 -8.36,-5.111 -1.721,0.535 -2.485,1.89 -1.746,3.677 1.15,2.784 6.336,5.576 8.579,4.535 C -0.369,2.563 0.412,1.486 0,0"
             style="fill:#f6d876;fill-opacity:1;fill-rule:nonzero;stroke:none"
             transform="matrix(1.3333333,0,0,-1.3333333,2271.7683,726.92973)"
             clip-path="url(#clipPath857)"
             id="path863" />
          <path
             d="m 0,0 c 1.316,-0.402 2.319,-1.284 2.395,-2.618 0.166,-2.946 -5.046,-7.362 -7.864,-6.793 -1.015,0.205 -1.67,0.809 -1.818,1.887 C -7.659,-4.813 -2.824,0.184 0,0"
             style="fill:#f6d876;fill-opacity:1;fill-rule:nonzero;stroke:none"
             transform="matrix(1.3333333,0,0,-1.3333333,2297.3112,753.7096)"
             clip-path="url(#clipPath858)"
             id="path864" />
          <path
             d="M 0,0 C -1.996,0.041 -3.444,0.985 -3.321,2.757 -3.082,6.207 -0.378,7.289 2.563,7.66 3.911,7.83 5.113,6.996 5.197,5.573 5.414,1.883 2.329,1.184 0,0"
             style="fill:#f6d876;fill-opacity:1;fill-rule:nonzero;stroke:none"
             transform="matrix(1.3333333,0,0,-1.3333333,2294.4361,738.9968)"
             clip-path="url(#clipPath859)"
             id="path865" />
        </g>
      </g>
    </g>
  </g>
</svg>
