<?xml version="1.0" encoding="UTF-8" standalone="no"?>
<!-- Created with Inkscape (http://www.inkscape.org/) -->

<svg
   version="1.1"
   id="svg1"
   width="678.09424"
   height="418.97314"
   viewBox="0 0 678.09424 418.97314"
   xmlns="http://www.w3.org/2000/svg"
   xmlns:svg="http://www.w3.org/2000/svg">
  <defs
     id="defs1">
    <clipPath
       clipPathUnits="userSpaceOnUse"
       id="clipPath1371">
      <path
         d="M 0,2000 H 2864.258 V 0 H 0 Z"
         transform="translate(-1338.9961,-580.21394)"
         id="path1371" />
    </clipPath>
    <clipPath
       clipPathUnits="userSpaceOnUse"
       id="clipPath1372">
      <path
         d="m 1499.1,736.761 h 226.03 V 451.935 H 1499.1 Z"
         transform="translate(-1585.9072,-451.98051)"
         id="path1372" />
    </clipPath>
    <clipPath
       clipPathUnits="userSpaceOnUse"
       id="clipPath1374">
      <path
         d="m 1475.135,689.062 c -17.917,-13.005 -29.575,-32.815 -39.239,-52.733 v 0 c -9.075,15.604 -26.711,25.848 -44.761,26 v 0 c -18.051,0.152 -35.858,-9.794 -45.195,-25.242 v 0 c -10.091,-16.697 -10.079,-37.619 -6.944,-56.873 v 0 c -14.353,5.013 -30.644,6.608 -44.512,0.377 v 0 c -19.855,-8.921 -30.304,-33.455 -25.378,-54.658 v 0 c 2.868,-12.35 10.374,-23.238 20.144,-31.186 v 0 c 17.189,-13.983 37.526,-14.875 58.693,-17.031 v 0 c 24.499,-2.493 49.051,-4.474 73.634,-5.938 v 0 c 48.673,-2.899 97.467,-3.778 146.213,-2.627 v 0 c 31.428,0.743 62.97,2.343 93.814,8.415 v 0 c 10.76,2.12 22.335,5.372 28.747,14.268 v 0 c 5.646,7.832 5.907,18.595 2.798,27.735 v 0 c -4.247,12.494 -14.163,22.546 -25.756,28.849 v 0 c -11.592,6.302 -24.781,9.146 -37.921,10.362 v 0 c 9.64,18.48 6.082,42.955 -8.422,57.925 v 0 c -14.502,14.969 -38.854,19.301 -57.628,10.25 v 0 c 1.496,25.514 -4.207,54.746 -25.969,68.149 v 0 c -7.445,4.586 -15.935,6.635 -24.587,6.635 v 0 c -13.255,0 -26.891,-4.809 -37.731,-12.677"
         transform="matrix(1.3333333,0,0,-1.3333333,0,2666.6667)"
         id="path1374" />
    </clipPath>
    <clipPath
       clipPathUnits="userSpaceOnUse"
       id="clipPath1376">
      <path
         d="M 0,2000 H 2864.258 V 0 H 0 Z"
         transform="translate(-1487.7129,-496.98831)"
         id="path1376" />
    </clipPath>
    <clipPath
       clipPathUnits="userSpaceOnUse"
       id="clipPath1378">
      <path
         d="M 0,2000 H 2864.258 V 0 H 0 Z"
         transform="translate(-1439.8789,-550.34369)"
         id="path1378" />
    </clipPath>
    <clipPath
       clipPathUnits="userSpaceOnUse"
       id="clipPath1380">
      <path
         d="M 0,2000 H 2864.258 V 0 H 0 Z"
         transform="translate(-1520.3331,-562.20314)"
         id="path1380" />
    </clipPath>
    <clipPath
       clipPathUnits="userSpaceOnUse"
       id="clipPath1382">
      <path
         d="M 0,2000 H 2864.258 V 0 H 0 Z"
         transform="translate(-1401.7794,-561.26069)"
         id="path1382" />
    </clipPath>
    <clipPath
       clipPathUnits="userSpaceOnUse"
       id="clipPath1384">
      <path
         d="M 0,2000 H 2864.258 V 0 H 0 Z"
         transform="translate(-1559.088,-534.21681)"
         id="path1384" />
    </clipPath>
    <clipPath
       clipPathUnits="userSpaceOnUse"
       id="clipPath1385">
      <path
         d="m 1410.61,606.921 h 37.93 v -21.724 h -37.93 z"
         transform="translate(-1432.9414,-606.88574)"
         id="path1385" />
    </clipPath>
    <clipPath
       clipPathUnits="userSpaceOnUse"
       id="clipPath1387">
      <path
         d="M 0,2000 H 2864.258 V 0 H 0 Z"
         transform="matrix(1.3333333,0,0,-1.3333333,0,2666.6667)"
         id="path1387" />
    </clipPath>
    <clipPath
       clipPathUnits="userSpaceOnUse"
       id="clipPath1388">
      <path
         d="m 1510.87,608.233 h 37.96 v -23.311 h -37.96 z"
         transform="translate(-1539.3351,-584.92191)"
         id="path1388" />
    </clipPath>
    <clipPath
       clipPathUnits="userSpaceOnUse"
       id="clipPath1390">
      <path
         d="M 0,2000 H 2864.258 V 0 H 0 Z"
         transform="matrix(1.3333333,0,0,-1.3333333,0,2666.6667)"
         id="path1390" />
    </clipPath>
    <filter
       style="color-interpolation-filters:sRGB"
       id="filter1518"
       x="-0.084648302"
       y="-0.15477601"
       width="1.1903686"
       height="1.3481699">
      <feFlood
         result="flood"
         in="SourceGraphic"
         flood-opacity="0.200000"
         flood-color="rgb(0,0,0)"
         id="feFlood1517" />
      <feGaussianBlur
         result="blur"
         in="SourceGraphic"
         stdDeviation="8.000000"
         id="feGaussianBlur1517" />
      <feOffset
         result="offset"
         in="blur"
         dx="9.000000"
         dy="9.000000"
         id="feOffset1517" />
      <feComposite
         result="comp1"
         operator="in"
         in="flood"
         in2="offset"
         id="feComposite1517" />
      <feComposite
         result="comp2"
         operator="over"
         in="SourceGraphic"
         in2="comp1"
         id="feComposite1518" />
    </filter>
  </defs>
  <g
     id="g1"
     transform="translate(3183.0356,-1412.7676)">
    <g
       id="g1518">
      <g
         id="g1519">
        <path
           id="path1503"
           clip-path="url(#clipPath1371)"
           style="fill:#addfe6;fill-opacity:1;fill-rule:nonzero;stroke:#ffffff;stroke-width:33.75;stroke-dasharray:none;stroke-opacity:1;filter:url(#filter1518)"
           d="m 175.18,121.51039 c -13.66244,0.32953 -27.8429,-4.53461 -39.04102,-12.66211 -17.917,-13.005001 -29.57477,-32.814913 -39.238771,-52.732913 -9.075,15.604 -26.712697,25.847512 -44.762697,25.999512 -18.05,0.153 -35.85636,-9.794188 -45.1933603,-25.242188 -10.09,-16.697 -10.0798244,-37.61756 -6.94482435627,-56.87255975 C -14.353673,5.0131313 -30.644416,6.6065961 -44.511416,0.3765961 c -19.856,-8.921 -30.303419,-33.4547161 -25.378419,-54.6577161 2.869,-12.35 10.374532,-23.238524 20.144532,-31.186524 17.189,-13.983 37.524896,-14.873806 58.6918962,-17.028806 24.4989998,-2.494 49.0517678,-4.47594 73.6347678,-5.93994 48.672999,-2.899 97.465919,-3.77747 146.211919,-2.62647 31.428,0.743 62.97045,2.34253 93.81445,8.41553 10.76,2.119 22.33456,5.372576 28.74756,14.267576 5.646,7.832 5.90685,18.595352 2.79785,27.735352 -4.247,12.494 -14.16334,22.545634 -25.75634,28.848634 -11.592,6.303 -24.78141,9.147305 -37.92041,10.362305 9.64,18.48 6.08161,42.954318 -8.42139,57.924318 -14.503,14.969 -38.85442,19.300512 -57.62842,10.249512 1.496,25.515 -4.20822,54.745393 -25.97022,68.150393 -7.06875,4.35375 -15.07891,6.42191 -23.27636,6.61963 z"
           transform="matrix(1.3333333,0,0,-1.3333333,-3040.017,1634.9038)" />
        <g
           id="g1390"
           transform="translate(-4825.3431,-258.14543)">
          <path
             id="path1370"
             d="m 0,0 c -3.135,19.255 -3.146,40.176 6.944,56.873 9.337,15.448 27.144,25.395 45.194,25.242 18.05,-0.152 35.687,-10.396 44.762,-26 9.664,19.918 21.322,39.728 39.239,52.733 17.917,13.004 43.468,17.653 62.318,6.043 21.762,-13.405 27.465,-42.635 25.969,-68.15 18.774,9.051 43.126,4.719 57.629,-10.25 14.503,-14.97 18.061,-39.445 8.421,-57.925 13.139,-1.215 26.329,-4.059 37.921,-10.362 11.593,-6.303 21.509,-16.355 25.756,-28.849 3.109,-9.14 2.848,-19.903 -2.798,-27.735 -6.413,-8.895 -17.987,-12.148 -28.747,-14.267 -30.844,-6.073 -62.386,-7.673 -93.814,-8.416 -48.746,-1.151 -97.54,-0.272 -146.213,2.627 -24.583,1.464 -49.135,3.445 -73.634,5.939 -21.167,2.155 -41.504,3.047 -58.693,17.03 -9.77,7.948 -17.275,18.836 -20.144,31.186 -4.925,21.203 5.523,45.737 25.379,54.658 C -30.644,6.607 -14.353,5.013 0,0"
             style="fill:#addfe6;fill-opacity:1;fill-rule:nonzero;stroke:none"
             transform="matrix(1.3333333,0,0,-1.3333333,1785.3281,1893.0481)"
             clip-path="url(#clipPath1371)" />
          <g
             opacity="0.5"
             id="g1373"
             clip-path="url(#clipPath1374)">
            <path
               d="m 0,0 c -5.265,0 -11.772,-0.135 -18.271,0.061 -2.993,0.088 -7.401,-1.026 -7.647,3.664 -0.232,4.436 4.196,4.269 7.185,4.93 11.094,2.456 22.284,4.503 33.337,7.13 12.63,3.003 25.32,5.95 37.394,10.841 16.433,6.655 23.868,17.479 23.571,33.292 -0.135,7.228 -2.695,13.285 -7.821,18.307 -8.723,8.544 -19.121,13.265 -31.386,13.686 -1.624,0.057 -3.269,-0.123 -4.874,0.066 -4.97,0.585 -6.378,2.986 -3.398,7.194 4.406,6.225 7.493,12.84 9.134,20.271 0.925,4.191 1.295,8.378 0.982,12.59 -0.876,11.785 -6.385,20.338 -17.912,24.216 -14.887,5.009 -29.486,3.074 -43.88,-2.239 -3.04,-1.122 -5.99,-2.65 -9.125,-3.317 -4.246,-0.903 -6.27,1.056 -5.774,5.248 0.264,2.233 1.17,4.384 1.729,6.586 5.323,20.966 7.783,42.113 4.793,63.744 -1.511,10.923 -5.618,20.679 -11.975,29.49 -7.217,10.001 -17.274,14.442 -29.548,13.801 -3.492,-0.183 -6.828,-0.768 -4.991,-5.742 0.519,-1.402 0.028,-2.587 -1.264,-3.223 -1.705,-0.84 -3.153,-0.065 -4.363,1.146 -3.918,3.917 -3.589,10.27 1.042,14.761 5.89,5.71 13.198,8.139 21.289,8.269 9.855,0.161 19.36,-2.033 28.752,-4.696 32.366,-9.176 59.839,-26.546 83.362,-50.34 21.303,-21.549 40.759,-44.648 57.947,-69.647 13.022,-18.939 23.037,-39.22 28.236,-61.684 3.266,-14.111 3.847,-28.29 0.185,-42.494 C 133.121,41.995 124.848,31.574 113.286,23.423 96.857,11.842 78.004,7.166 58.574,4.394 39.575,1.684 20.402,0.876 0,0"
               style="fill:#addfe6;fill-opacity:1;fill-rule:nonzero;stroke:none"
               transform="matrix(1.3333333,0,0,-1.3333333,2114.5429,2064.026)"
               clip-path="url(#clipPath1372)"
               id="path1373" />
          </g>
          <path
             id="path1375"
             d="m 0,0 c -13.418,-0.833 -26.979,-0.059 -40.054,5.164 -9.852,3.936 -16.777,11.154 -22.783,19.495 -0.68,0.945 -1.132,2.112 -1.457,3.242 -0.504,1.754 -0.789,3.696 1.303,4.609 1.659,0.724 2.867,-0.431 3.612,-1.791 8.738,-15.956 23.094,-22.224 40.362,-24.196 19.738,-2.253 37.179,2.925 52.788,14.842 2.83,2.159 5.296,4.799 7.88,7.269 1.658,1.584 3.521,2.676 5.481,0.915 2.133,-1.916 0.787,-3.852 -0.765,-5.361 C 41.016,18.982 35.528,13.877 28.916,10.306 19.953,5.464 10.501,1.864 0,0"
             style="fill:#4d5263;fill-opacity:1;fill-rule:nonzero;stroke:none"
             transform="matrix(1.3333333,0,0,-1.3333333,1983.6172,2004.0156)"
             clip-path="url(#clipPath1376)" />
          <path
             id="path1377"
             d="m 0,0 c -1.804,6.4 -1.708,11.795 0.062,17.152 1.103,3.341 3.218,5.719 6.847,5.917 4.045,0.22 5.576,-2.876 6.403,-6.07 C 14.801,11.246 14.731,5.489 11.923,0.058 10.456,-2.778 7.933,-4.123 4.793,-4.049 1.632,-3.973 0.571,-1.55 0,0"
             style="fill:#4d5263;fill-opacity:1;fill-rule:nonzero;stroke:none"
             transform="matrix(1.3333333,0,0,-1.3333333,1919.8385,1932.8751)"
             clip-path="url(#clipPath1378)" />
          <path
             id="path1379"
             d="m 0,0 c -0.094,-3.965 -1.334,-8.273 -4.223,-11.906 -3.138,-3.946 -7.043,-3.965 -9.388,0.223 -3.503,6.254 -3.698,13.01 -0.596,19.46 2.15,4.473 6.724,4.91 10.411,1.538 C -1.728,7.424 -0.211,3.939 0,0"
             style="fill:#4d5263;fill-opacity:1;fill-rule:nonzero;stroke:none"
             transform="matrix(1.3333333,0,0,-1.3333333,2027.1107,1917.0625)"
             clip-path="url(#clipPath1380)" />
          <path
             id="path1381"
             d="M 0,0 C 2.315,0.312 4.676,0.404 6.986,0.361 13.93,0.233 22.094,-1.9 24.446,-8.435 26.707,-14.717 22.041,-21.585 16.304,-24.999 2.502,-33.213 -32.708,-22.194 -12.481,-5.043 -8.991,-2.084 -4.584,-0.615 0,0"
             style="fill:#f5afaf;fill-opacity:1;fill-rule:nonzero;stroke:none"
             transform="matrix(1.3333333,0,0,-1.3333333,1869.0391,1918.3191)"
             clip-path="url(#clipPath1382)" />
          <path
             id="path1383"
             d="m 0,0 c -13.133,-1.351 -31.178,4.239 -20.999,19.673 2.946,4.467 8.007,7.295 13.279,8.204 6.206,1.071 12.814,-0.403 17.976,-4.011 C 14.084,21.191 17.268,16.873 16.8,12.228 16.284,7.106 11.577,3.392 6.781,1.523 4.857,0.773 2.519,0.259 0,0"
             style="fill:#f5afaf;fill-opacity:1;fill-rule:nonzero;stroke:none"
             transform="matrix(1.3333333,0,0,-1.3333333,2078.7839,1954.3776)"
             clip-path="url(#clipPath1384)" />
          <g
             opacity="0.5"
             id="g1386"
             clip-path="url(#clipPath1387)">
            <path
               d="m 0,0 c 2.246,-0.003 5.154,0.104 8.049,-0.041 3.129,-0.156 5.542,-1.568 6.815,-4.597 1.402,-3.332 0.74,-6.284 -1.508,-9.014 -5.478,-6.654 -23.245,-10.374 -30.716,-6.41 -5.986,3.176 -6.711,9.056 -1.366,13.246 C -13.477,-2.701 -6.925,-1.78 0,0"
               style="fill:#addfe6;fill-opacity:1;fill-rule:nonzero;stroke:none"
               transform="matrix(1.3333333,0,0,-1.3333333,1910.5885,1857.4857)"
               clip-path="url(#clipPath1385)"
               id="path1386" />
          </g>
          <g
             opacity="0.5"
             id="g1389"
             clip-path="url(#clipPath1390)">
            <path
               d="m 0,0 c -9.009,0.423 -18.486,3.45 -25.724,11.256 -4.985,5.376 -2.96,10.836 4.305,11.766 C -11.223,24.329 -2.052,21.141 5.753,14.65 8.445,12.412 10.327,9.002 9.129,5.064 7.997,1.345 4.844,0.498 0,0"
               style="fill:#addfe6;fill-opacity:1;fill-rule:nonzero;stroke:none"
               transform="matrix(1.3333333,0,0,-1.3333333,2052.4467,1886.7708)"
               clip-path="url(#clipPath1388)"
               id="path1389" />
          </g>
        </g>
      </g>
    </g>
  </g>
</svg>
