<?xml version="1.0" encoding="UTF-8" standalone="no"?>
<!-- Created with Inkscape (http://www.inkscape.org/) -->

<svg
   width="46.168274mm"
   height="41.525227mm"
   viewBox="0 0 46.168274 41.525227"
   version="1.1"
   id="svg1"
   xmlns="http://www.w3.org/2000/svg"
   xmlns:svg="http://www.w3.org/2000/svg">
  <defs
     id="defs1">
    <clipPath
       clipPathUnits="userSpaceOnUse"
       id="clipPath1033">
      <path
         d="M 0,1000 H 1000 V 0 H 0 Z"
         transform="matrix(1.3333333,0,0,-1.3333333,0,1333.3333)"
         id="path1033" />
    </clipPath>
    <clipPath
       clipPathUnits="userSpaceOnUse"
       id="clipPath1031">
      <path
         d="M 492.219,518.365 H 613.83 V 403.502 H 492.219 Z"
         transform="translate(-492.25491,-460.47071)"
         id="path1031" />
    </clipPath>
    <clipPath
       clipPathUnits="userSpaceOnUse"
       id="clipPath1035">
      <path
         d="M 0,1000 H 1000 V 0 H 0 Z"
         transform="translate(-482.96001,-465.73731)"
         id="path1035" />
    </clipPath>
    <clipPath
       clipPathUnits="userSpaceOnUse"
       id="clipPath1037">
      <path
         d="M 0,1000 H 1000 V 0 H 0 Z"
         transform="translate(-535.50292,-418.02931)"
         id="path1037" />
    </clipPath>
    <clipPath
       clipPathUnits="userSpaceOnUse"
       id="clipPath1039">
      <path
         d="M 0,1000 H 1000 V 0 H 0 Z"
         transform="translate(-564.27931,-513.11721)"
         id="path1039" />
    </clipPath>
    <clipPath
       clipPathUnits="userSpaceOnUse"
       id="clipPath1041">
      <path
         d="M 0,1000 H 1000 V 0 H 0 Z"
         transform="translate(-552.73441,-492.98051)"
         id="path1041" />
    </clipPath>
    <clipPath
       clipPathUnits="userSpaceOnUse"
       id="clipPath1043">
      <path
         d="M 0,1000 H 1000 V 0 H 0 Z"
         transform="translate(-492.12111,-465.67771)"
         id="path1043" />
    </clipPath>
    <clipPath
       clipPathUnits="userSpaceOnUse"
       id="clipPath1045">
      <path
         d="M 0,1000 H 1000 V 0 H 0 Z"
         transform="translate(-533.29882,-443.34281)"
         id="path1045" />
    </clipPath>
    <clipPath
       clipPathUnits="userSpaceOnUse"
       id="clipPath1047">
      <path
         d="M 0,1000 H 1000 V 0 H 0 Z"
         transform="translate(-517.45612,-456.26761)"
         id="path1047" />
    </clipPath>
    <clipPath
       clipPathUnits="userSpaceOnUse"
       id="clipPath1049">
      <path
         d="M 0,1000 H 1000 V 0 H 0 Z"
         transform="translate(-571.88572,-469.74611)"
         id="path1049" />
    </clipPath>
    <clipPath
       clipPathUnits="userSpaceOnUse"
       id="clipPath1051">
      <path
         d="M 0,1000 H 1000 V 0 H 0 Z"
         transform="translate(-570.29981,-425.51761)"
         id="path1051" />
    </clipPath>
    <clipPath
       clipPathUnits="userSpaceOnUse"
       id="clipPath1053">
      <path
         d="M 0,1000 H 1000 V 0 H 0 Z"
         transform="translate(-512.68951,-453.82621)"
         id="path1053" />
    </clipPath>
    <clipPath
       clipPathUnits="userSpaceOnUse"
       id="clipPath1055">
      <path
         d="M 0,1000 H 1000 V 0 H 0 Z"
         transform="translate(-570.08981,-474.40621)"
         id="path1055" />
    </clipPath>
    <clipPath
       clipPathUnits="userSpaceOnUse"
       id="clipPath1057">
      <path
         d="M 0,1000 H 1000 V 0 H 0 Z"
         transform="translate(-570.60551,-474.05081)"
         id="path1057" />
    </clipPath>
  </defs>
  <g
     id="layer1"
     transform="translate(-82.020823,-123.03125)">
    <g
       opacity="0.5"
       id="g1032"
       clip-path="url(#clipPath1033)"
       transform="matrix(0.26458333,0,0,0.26458333,-88.356477,-45.87477)">
      <path
         d="m 0,0 c -0.292,-6.528 1.172,-13.412 4.288,-19.939 2.922,-6.114 7.1,-11.542 12.141,-15.718 6.574,-5.447 18.53,-11.399 32.207,-15.943 10.388,-3.455 24.603,-7.074 32.367,-4.496 0.178,0.061 0.332,0.116 0.484,0.172 1.655,0.62 3.36,1.492 5.082,2.598 4.644,2.982 9.621,7.812 14.313,14.011 6.889,9.097 12.951,20.85 17.347,34.043 6.393,19.106 3.435,37.472 -7.242,49.961 C 102.741,54.336 91.028,59.15 79.742,57.612 76.489,57.171 73.403,56.361 70.562,55.207 67.716,54.051 65.057,52.529 62.647,50.685 53.845,43.934 49.749,34.078 47.198,27.177 46.941,27.275 46.685,27.373 46.429,27.472 39.862,30.005 31.006,33.421 20.731,29.406 18.335,28.474 15.978,27.162 13.72,25.51 13.194,25.125 12.667,24.718 12.152,24.297 4.613,18.133 0.444,9.733 0,0"
         style="fill:#000000;fill-opacity:1;fill-rule:nonzero;stroke:none"
         transform="matrix(1.3333333,0,0,-1.3333333,656.33987,719.3724)"
         clip-path="url(#clipPath1031)"
         id="path1032" />
    </g>
    <path
       id="path1034"
       d="m 0,0 c -0.042,-6.589 1.784,-13.585 5.279,-20.233 3.277,-6.23 7.793,-11.772 13.062,-16.03 6.874,-5.554 19.06,-11.604 32.601,-16.181 10.31,-3.485 24.122,-7.09 31.373,-4.477 0.166,0.061 0.311,0.115 0.454,0.173 1.544,0.627 3.125,1.506 4.714,2.618 4.284,2.998 8.808,7.833 13.086,13.983 6.28,9.027 11.846,20.589 16.1,33.438 6.162,18.606 4.021,36.349 -5.871,48.675 C 103.165,51.476 91.844,56.464 80.512,55.31 77.251,54.977 74.134,54.282 71.246,53.242 68.355,52.2 65.637,50.795 63.165,49.065 54.115,42.73 49.843,33.147 47.27,26.389 c -0.257,0.101 -0.515,0.204 -0.771,0.305 -6.58,2.625 -15.542,6.2 -26.016,2.427 -2.437,-0.878 -4.836,-2.137 -7.127,-3.739 -0.532,-0.373 -1.066,-0.77 -1.587,-1.18 C 4.134,18.195 0.064,9.826 0,0"
       style="fill:#ffffff;fill-opacity:1;fill-rule:nonzero;stroke:none"
       transform="matrix(0.35277776,0,0,-0.35277776,82.021077,142.60124)"
       clip-path="url(#clipPath1035)" />
    <path
       id="path1036"
       d="m 0,0 c 6.298,-2.128 21.642,-6.828 28.078,-4.51 0.096,0.035 0.19,0.071 0.282,0.109 4.723,1.919 10.25,7.181 15.563,14.817 6.008,8.637 11.351,19.756 15.457,32.154 5.618,16.968 3.785,32.996 -5.026,43.974 -6.566,8.183 -16.24,12.481 -25.878,11.5 C 25.618,97.753 22.899,97.148 20.398,96.246 6.342,91.182 1.454,77.918 -1.466,69.994 l -0.118,-0.319 c -0.234,-0.636 -0.514,-1.247 -0.834,-1.831 -1.577,0.358 -3.505,1.129 -5.515,1.929 -6.124,2.443 -13.744,5.482 -22.431,2.352 -2.512,-0.904 -4.973,-2.299 -7.318,-4.145 -6.398,-5.033 -9.807,-12.055 -9.861,-20.304 -0.036,-5.772 1.591,-11.951 4.705,-17.875 2.961,-5.629 7.033,-10.632 11.779,-14.467 C -24.618,10.129 -13.007,4.397 0,0"
       style="fill:#000000;fill-opacity:1;fill-rule:nonzero;stroke:none"
       transform="matrix(0.35277776,0,0,-0.35277776,100.55704,159.43156)"
       clip-path="url(#clipPath1037)" />
    <path
       id="path1038"
       d="m 0,0 c -18.745,-1.912 -24.266,-17.477 -27.572,-26.441 -0.571,-1.545 -1.307,-2.86 -2.133,-3.984 -7.816,0.122 -20.488,12.338 -34.915,0.984 -16.129,-12.695 -7.535,-36.536 6.653,-48 13.506,-10.914 48.727,-22.424 56.432,-19.294 7.707,3.13 20.499,18.515 29.317,45.153 C 38.637,-18.795 18.745,1.909 0,0"
       style="fill:#f21458;fill-opacity:1;fill-rule:nonzero;stroke:none"
       transform="matrix(0.35277776,0,0,-0.35277776,110.70872,125.88666)"
       clip-path="url(#clipPath1039)" />
    <path
       id="path1040"
       d="m 0,0 c -7.035,-0.717 -13.271,-5.605 -15.588,-12.291 -0.822,-2.371 -1.447,-5.425 -3.846,-6.746 -3.66,-2.015 -7.303,1.567 -10.75,2.381 -4.443,1.047 -8.76,0.105 -12.357,-2.726 -4.906,-3.86 -6.766,-11.103 -5.307,-16.914 1.721,-6.858 6.594,-12.548 12.389,-16.396 6.027,-4.003 12.833,-6.764 19.725,-8.886 3.95,-1.217 10.567,-3.791 14.722,-2.104 5.074,2.061 13.496,12.19 19.301,29.725 C 25.435,-12.373 12.34,1.258 0,0"
       style="fill:#ff647a;fill-opacity:1;fill-rule:nonzero;stroke:none"
       transform="matrix(0.35277776,0,0,-0.35277776,106.63593,132.99044)"
       clip-path="url(#clipPath1041)" />
    <path
       id="path1042"
       d="m 0,0 c 0.045,6.937 2.905,12.84 8.273,17.062 2.077,1.635 4.117,2.752 6.113,3.472 7.262,2.616 13.93,-0.043 19.522,-2.273 2.277,-0.908 4.334,-1.73 6.238,-2.148 -3.442,-3.5 -7.65,-4.204 -7.892,-4.24 -0.649,-0.1 -1.093,-0.705 -0.995,-1.353 0.098,-0.65 0.704,-1.096 1.352,-0.999 0.391,0.06 9.581,1.551 13.09,11.065 l 0.118,0.321 c 3.244,8.804 8.674,23.537 26.46,25.349 8.229,0.84 16.531,-2.887 22.213,-9.965 7.91,-9.855 9.485,-24.459 4.321,-40.061 C 89.607,-31.568 76.644,-45.568 70.176,-48.195 63.132,-51.036 28.363,-39.927 14.938,-29.078 5.939,-21.806 -0.065,-10.121 0,0 m 70.864,-50.477 c 0.071,0.026 0.139,0.052 0.206,0.079 8.24,3.347 21.143,19.132 29.998,45.881 5.424,16.382 3.703,31.799 -4.722,42.296 C 90.158,45.488 81.072,49.542 72.038,48.621 52.774,46.658 47.025,31.053 43.588,21.728 L 43.471,21.41 c -0.443,-1.199 -0.989,-2.25 -1.601,-3.172 -1.977,0.194 -4.361,1.145 -7.081,2.231 -7.291,2.909 -17.275,6.89 -27.987,-1.537 -5.955,-4.688 -9.13,-11.229 -9.179,-18.916 -0.07,-10.806 6.288,-23.241 15.82,-30.943 13.426,-10.848 48.524,-22.757 57.421,-19.55"
       style="fill:#000000;fill-opacity:1;fill-rule:nonzero;stroke:none"
       transform="matrix(0.35277776,0,0,-0.35277776,85.25291,142.62226)"
       clip-path="url(#clipPath1043)" />
    <path
       id="path1044"
       d="m 0,0 0.002,0.001 -0.005,-0.013 c 0.069,-0.026 0.138,-0.045 0.206,-0.057 1.482,-0.481 6.914,-1.916 12.758,0.19 3.367,1.214 6.874,3.605 9.836,8.034 C 23.162,8.7 23.016,9.438 22.47,9.804 21.922,10.169 21.186,10.022 20.82,9.477 13.213,-1.897 1.445,1.999 0.838,2.211 0.83,2.214 0.823,2.218 0.816,2.219 0.234,2.433 -0.432,2.17 -0.69,1.606 -0.949,1.043 -0.731,0.374 -0.191,0.072 -0.183,0.067 -0.117,0.042 0,0"
       style="fill:#000000;fill-opacity:1;fill-rule:nonzero;stroke:none"
       transform="matrix(0.35277776,0,0,-0.35277776,99.779487,150.50152)"
       clip-path="url(#clipPath1045)" />
    <path
       id="path1046"
       d="m 0,0 c -1.079,2.994 -4.392,4.553 -7.386,3.475 -2.994,-1.079 -4.553,-4.393 -3.472,-7.388 1.078,-2.993 4.392,-4.552 7.384,-3.474 C -0.479,-6.307 1.079,-2.994 0,0"
       style="fill:#000000;fill-opacity:1;fill-rule:nonzero;stroke:none"
       transform="matrix(0.35277776,0,0,-0.35277776,94.190535,145.94193)"
       clip-path="url(#clipPath1047)" />
    <path
       id="path1048"
       d="M 0,0 C 2.995,1.08 4.553,4.393 3.474,7.387 2.396,10.381 -0.919,11.939 -3.913,10.859 -6.905,9.781 -8.464,6.469 -7.386,3.475 -6.308,0.48 -2.993,-1.078 0,0"
       style="fill:#000000;fill-opacity:1;fill-rule:nonzero;stroke:none"
       transform="matrix(0.35277776,0,0,-0.35277776,113.39209,141.18702)"
       clip-path="url(#clipPath1049)" />
    <path
       id="path1050"
       d="m 0,0 c 0.226,0.082 0.429,0.23 0.575,0.443 0.141,0.202 13.981,20.411 20.484,41.177 0.196,0.626 -0.154,1.294 -0.781,1.489 C 19.652,43.307 18.985,42.957 18.789,42.33 12.397,21.915 -1.245,1.992 -1.382,1.792 -1.755,1.251 -1.618,0.512 -1.077,0.139 -0.749,-0.086 -0.348,-0.126 0,0"
       style="fill:#000000;fill-opacity:1;fill-rule:nonzero;stroke:none"
       transform="matrix(0.35277776,0,0,-0.35277776,112.83262,156.78985)"
       clip-path="url(#clipPath1051)" />
    <path
       id="path1052"
       d="M 0,0 C 0.234,0.65 0.205,1.377 -0.084,2.004 -0.377,2.637 -0.914,3.132 -1.567,3.371 -2.268,3.629 -2.9,3.535 -3.582,3.29 -4.209,3.064 -4.727,2.412 -4.947,1.809 c -0.242,-0.655 -0.211,-1.385 0.08,-2.015 0.293,-0.631 0.829,-1.126 1.482,-1.368 0.701,-0.256 1.334,-0.162 2.015,0.082 0.255,0.094 0.491,0.257 0.696,0.459 0.001,-0.16 0.03,-0.317 0.094,-0.455 0.271,-0.587 0.91,-0.75 1.479,-0.544 0.573,0.206 0.783,0.964 0.544,1.479 C 1.178,0.021 0.56,0.186 0,0"
       style="fill:#ffffff;fill-opacity:1;fill-rule:nonzero;stroke:none"
       transform="matrix(0.35277776,0,0,-0.35277776,92.508983,146.80321)"
       clip-path="url(#clipPath1053)" />
    <path
       id="path1054"
       d="M 0,0 C 0.248,0.674 0.217,1.425 -0.084,2.074 -0.385,2.725 -0.937,3.234 -1.609,3.482 -2.33,3.746 -2.982,3.65 -3.683,3.398 -4.329,3.165 -4.861,2.494 -5.09,1.871 -5.337,1.199 -5.307,0.448 -5.006,-0.202 c 0.301,-0.65 0.853,-1.16 1.526,-1.407 0.72,-0.264 1.373,-0.168 2.074,0.085 C -0.762,-1.292 -0.229,-0.622 0,0"
       style="fill:#ffffff;fill-opacity:1;fill-rule:nonzero;stroke:none"
       transform="matrix(0.35277776,0,0,-0.35277776,112.75853,139.54304)"
       clip-path="url(#clipPath1055)" />
    <path
       id="path1056"
       d="m 0,0 c -0.027,-0.022 -0.057,-0.043 -0.085,-0.066 -0.341,-0.272 -0.503,-0.737 -0.427,-1.162 0.09,-0.497 0.563,-1.018 1.105,-1.005 0.034,10e-4 0.07,10e-4 0.105,0.003 0.343,0.007 0.634,0.056 0.908,0.283 0.349,0.287 0.52,0.752 0.44,1.195 C 1.877,0.195 0.74,0.586 0,0"
       style="fill:#ffffff;fill-opacity:1;fill-rule:nonzero;stroke:none"
       transform="matrix(0.35277776,0,0,-0.35277776,112.94046,139.66842)"
       clip-path="url(#clipPath1057)" />
  </g>
</svg>
