<?xml version="1.0" encoding="UTF-8" standalone="no"?>
<!-- Created with Inkscape (http://www.inkscape.org/) -->

<svg
   version="1.1"
   id="svg1"
   width="404.52051"
   height="637.19159"
   viewBox="0 0 404.52051 637.19158"
   xmlns="http://www.w3.org/2000/svg"
   xmlns:svg="http://www.w3.org/2000/svg">
  <defs
     id="defs1">
    <clipPath
       clipPathUnits="userSpaceOnUse"
       id="clipPath85">
      <path
         d="M 0,2000 H 2864.258 V 0 H 0 Z"
         transform="translate(-1751.211,-845.43652)"
         id="path85" />
    </clipPath>
    <clipPath
       clipPathUnits="userSpaceOnUse"
       id="clipPath87">
      <path
         d="M 0,2000 H 2864.258 V 0 H 0 Z"
         transform="translate(-1747.5714,-857.63182)"
         id="path87" />
    </clipPath>
    <clipPath
       clipPathUnits="userSpaceOnUse"
       id="clipPath89">
      <path
         d="M 0,2000 H 2864.258 V 0 H 0 Z"
         transform="translate(-1731.5557,-981.13095)"
         id="path89" />
    </clipPath>
    <clipPath
       clipPathUnits="userSpaceOnUse"
       id="clipPath91">
      <path
         d="M 0,2000 H 2864.258 V 0 H 0 Z"
         transform="translate(-1603.332,-783.39164)"
         id="path91" />
    </clipPath>
    <clipPath
       clipPathUnits="userSpaceOnUse"
       id="clipPath93">
      <path
         d="M 0,2000 H 2864.258 V 0 H 0 Z"
         transform="translate(-1725.1953,-829.5381)"
         id="path93" />
    </clipPath>
    <clipPath
       clipPathUnits="userSpaceOnUse"
       id="clipPath95">
      <path
         d="M 0,2000 H 2864.258 V 0 H 0 Z"
         transform="translate(-1682.6953,-891.10162)"
         id="path95" />
    </clipPath>
    <clipPath
       clipPathUnits="userSpaceOnUse"
       id="clipPath97">
      <path
         d="M 0,2000 H 2864.258 V 0 H 0 Z"
         transform="translate(-1714.4785,-980.6748)"
         id="path97" />
    </clipPath>
    <clipPath
       clipPathUnits="userSpaceOnUse"
       id="clipPath99">
      <path
         d="M 0,2000 H 2864.258 V 0 H 0 Z"
         transform="translate(-1728.3096,-1060.1333)"
         id="path99" />
    </clipPath>
    <clipPath
       clipPathUnits="userSpaceOnUse"
       id="clipPath101">
      <path
         d="M 0,2000 H 2864.258 V 0 H 0 Z"
         transform="translate(-1680.4923,-795.21869)"
         id="path101" />
    </clipPath>
    <filter
       style="color-interpolation-filters:sRGB"
       id="filter1612"
       x="-0.16232631"
       y="-0.089365407"
       width="1.3651859"
       height="1.2028151">
      <feFlood
         result="flood"
         in="SourceGraphic"
         flood-opacity="0.200000"
         flood-color="rgb(0,0,0)"
         id="feFlood1611" />
      <feGaussianBlur
         result="blur"
         in="SourceGraphic"
         stdDeviation="8.000000"
         id="feGaussianBlur1611" />
      <feOffset
         result="offset"
         in="blur"
         dx="9.000000"
         dy="9.000000"
         id="feOffset1611" />
      <feComposite
         result="comp1"
         operator="in"
         in="flood"
         in2="offset"
         id="feComposite1611" />
      <feComposite
         result="comp2"
         operator="over"
         in="SourceGraphic"
         in2="comp1"
         id="feComposite1612" />
    </filter>
  </defs>
  <g
     id="g1"
     transform="translate(4911.6562,-433.17658)">
    <g
       id="g1612">
      <g
         id="g1613">
        <path
           id="path1603"
           clip-path="url(#clipPath85)"
           style="fill:#d4eb9b;fill-opacity:1;fill-rule:nonzero;stroke:#ffffff;stroke-width:33.75;stroke-dasharray:none;stroke-opacity:1;filter:url(#filter1612)"
           d="m -45.640911,241.88353 c -0.173713,3.4e-4 -0.34745,-0.0127 -0.52295,-0.0425 -2.567,-0.436 -3.326695,-3.70669 -3.512695,-6.30469 -0.799,-11.099 -1.578601,-22.43415 1.233399,-33.20215 1.872,-7.172 5.575742,-14.13554 11.135742,-19.12354 1.907743,-1.71199 4.192201,-3.38209 6.445313,-4.33007 3.369214,-11.24371 5.587507,-22.78285 8.094726,-34.24073 5.066,-23.143 -0.545051,-45.192405 -7.352051,-67.066405 -0.456,-1.466 -1.00264,-3.243703 -3.18164,-2.970703 -2.036,0.255 -2.356004,2.044133 -2.729004,3.536133 -1.370884,5.479529 -2.687547,10.970839 -4.015137,16.46045 0.905302,1.096166 1.741654,2.548189 2.544434,4.375488 5.247,11.941997 5.242043,23.881677 0.769043,36.263677 -4.189,16.62 -14.532415,28.26661 -30.524415,35.07861 -6.186,2.635 -8.436762,1.56045 -9.030762,-4.91455 -1.162,-12.662 -0.614984,-25.32505 1.916016,-37.72705 2.996,-14.679 11.358715,-25.9799 24.282715,-33.670902 1.078196,-0.641657 2.070528,-1.106244 2.995606,-1.415039 1.011216,-4.318812 2.072336,-8.620568 3.470214,-12.810059 9.304,-27.886 -2.732707,-50.538674 -17.324707,-72.6386737 -0.108,-0.163 -0.622098,-0.057328 -1.475098,-0.1113282 -1.599853,4.2053049 -3.190309,8.5598899 -4.926269,12.8657229 0.04222,0.265162 0.09161,0.489467 0.130371,0.779297 1.121,8.38 1.750148,16.809235 -1.297852,24.990235 -0.581,1.858 -1.065461,3.755477 -1.772461,5.563477 -0.587,1.501 -1.409828,2.915797 -2.173828,4.341797 -9.832,18.326 -27.464982,27.016528 -44.854979,35.790528 -5.091,2.57 -8.89203,-1.175973 -7.37403,-7.146973 2.326,-9.144 3.59118,-18.434196 5.15918,-27.700196 3.558,-21.02 23.905118,-39.91077 44.641118,-41.86377 0.920315,-0.08662 1.715439,-0.130732 2.421387,-0.127442 2.711514,-6.9556201 3.211867,-14.3069755 2.632324,-21.810059 -0.627,-8.113 -2.283086,-15.980204 -4.913086,-23.783204 -4.942296,-14.668334 -8.397635,-29.416481 -8.780274,-44.436036 -4.066025,7.885257 -10.0076,14.93894 -16.933589,20.501954 -13.217,10.615 -29.61188,16.491942 -46.06788,20.564942 -0.773,0.19 -1.60121,0.37475 -2.34521,0.09375 -1.366,-0.514 -1.73271,-2.24859 -1.84571,-3.70459 -0.642,-8.315 0.40673,-16.430142 2.84473,-23.994142 8.443,-26.198 33.54285,-45.785129 62.693851,-44.203129 1.814907,0.0981 3.757572,0.34901 5.165039,1.45166 0.07395,-0.2681 0.13155,-0.53439 0.208008,-0.80273 5.376,-18.864 15.808852,-34.02422 29.797852,-47.17822 1.89,-1.776 4.212746,-3.98191 6.739746,-1.62891 2.828,2.633 0.06439,4.5849 -1.703613,6.3999 -1.133,1.163 -2.411035,2.18406 -3.561035,3.33106 -12.741,12.701 -21.315056,27.60511 -25.456056,45.287107 -3.168,13.528 -1.123734,26.112423 5.947266,37.482423 7.185172,11.552498 15.319268,22.220147 24.675294,31.686035 0.288691,-2.541559 1.671837,-5.412258 4.145508,-8.76416 0.192,-0.261 0.332414,-0.558848 0.524414,-0.818848 18.915,-25.654 54.058002,-28.996207 77.625002,-7.387207 6.739,6.179 6.342328,9.328735 -1.763672,13.552735 -8.314,4.332 -17.273919,7.294625 -25.190919,12.515625 -11.73599986,7.742 -24.429399,9.829633 -37.983399,5.223633 -0.558547,-0.213815 -1.12442,-0.412592 -1.6875,-0.616699 4.720142,3.565173 9.669467,6.9010247 14.95752,9.8935549 3.4742563,1.9660577 6.9009427,4.0091948 10.2861327,6.11572281 0.8072441,-0.006517 1.64035014,0.18432164 2.45947270627,0.50537110249 C 0.38052605,0.21838901 0.76209798,0.43354504 1.1447344,0.64572892 3.5552085,-1.2253038 6.8739062,-1.8059281 11.183309,-0.86013049 29.115309,3.0748695 45.998814,9.1484952 56.099814,26.655495 c 4.75,8.232 8.665223,16.599868 11.178223,25.713868 1.461,5.301 3.701066,10.434516 4.018066,15.978516 0.336,5.911 -2.171359,7.808211 -7.693359,5.991211 -3.987,-1.312 -7.769895,-3.334375 -11.816895,-4.359375 -9.761,-2.47 -19.225161,-5.563957 -28.264161,-10.105957 C 5.8786881,51.006758 -5.1054454,31.985022 -3.6394454,12.196022 -3.5785475,11.372797 -3.4816226,10.595337 -3.3669845,9.8405534 -4.2065647,8.8831103 -4.9921448,7.8609473 -5.70634,6.7555924 -5.9716471,6.3450442 -6.1993983,5.9174479 -6.3757736,5.4811783 -9.7821163,3.351856 -13.231169,1.2840766 -16.741008,-0.70632189 -34.526008,-10.791322 -49.228291,-24.420495 -61.729291,-40.532495 c -2.544,-3.281 -4.371746,-7.277547 -8.989746,-9.685547 -1.891,3.405 -0.801172,5.921903 -0.07617,8.274903 5.266,17.103 10.584403,34.2633837 19.337403,49.9423837 14.85,26.6050003 25.614813,54.7217713 32.882813,84.2387713 2.669726,10.840534 4.73492,21.775904 4.853028,32.824224 1.334694,-1.08597 2.866654,-1.87079 4.5952148,-2.1753 2.297,-0.405 4.6558087,0.0782 6.9038087,0.7002 16.1160005,4.459 29.5885835,16.24561 38.3715835,30.47461 8.782,14.23 13.224648,30.76861 15.389648,47.34961 0.43,3.288 -0.145847,7.82776 -3.443847,8.17676 -1.42,0.149 -2.748219,-0.65476 -3.949219,-1.42676 -19.999,-12.841 -45.7426228,-24.36857 -58.536623,-45.45557 -1.368948,-2.25622 -2.53726,-4.65952 -3.477539,-7.14697 -1.710864,8.02347 -3.719122,15.97693 -6.114258,23.83301 0.960179,0.88193 1.762411,2.25004 2.327637,4.24365 2.837,10.004 2.086883,21.53501 -1.245117,31.06201 -3.615,10.341 -10.303079,19.61404 -19.330079,25.79004 -1.028125,0.70263 -2.194166,1.39363 -3.410156,1.396 z"
           transform="matrix(1.3333333,0,0,-1.3333333,-4662.3467,815.78793)" />
        <g
           id="g1603"
           transform="translate(-2585.4233,-1623.8688)">
          <path
             id="path84"
             d="m 0,0 c -2.11,-0.827 -4.312,-0.812 -5.929,1.306 -1.36,1.781 -0.873,3.753 0.223,5.449 4.183,6.474 10.733,10.172 17.115,13.894 2.801,1.634 5.927,0.168 7.693,-2.376 1.505,-2.171 -0.161,-4.381 -1.526,-6.166 C 13.092,6.244 6.311,3.633 0,0"
             style="fill:#d4eb9b;fill-opacity:1;fill-rule:nonzero;stroke:none"
             transform="matrix(1.3333333,0,0,-1.3333333,-2076.9229,2439.6568)"
             clip-path="url(#clipPath85)" />
          <path
             id="path86"
             d="m 0,0 c -1.466,19.789 9.519,38.811 27.162,47.678 9.039,4.542 18.503,7.637 28.264,10.107 4.047,1.025 7.829,3.047 11.816,4.359 5.522,1.817 8.029,-0.081 7.693,-5.992 C 74.618,50.608 72.379,45.475 70.918,40.174 68.405,31.06 64.489,22.692 59.739,14.46 49.638,-3.047 32.755,-9.12 14.823,-13.055 5.487,-15.104 0.745,-10.071 0,0"
             style="fill:#b0d787;fill-opacity:1;fill-rule:nonzero;stroke:none"
             transform="matrix(1.3333333,0,0,-1.3333333,-2081.7757,2423.3964)"
             clip-path="url(#clipPath87)" />
          <path
             id="path88"
             d="m 0,0 c -2.062,9.104 0.387,18.974 5.264,27.012 12.794,21.087 38.538,32.614 58.537,45.455 1.201,0.772 2.528,1.575 3.948,1.426 3.298,-0.349 3.874,-4.888 3.444,-8.176 C 69.028,49.136 64.586,32.597 55.804,18.367 47.021,4.138 33.549,-7.649 17.433,-12.108 15.185,-12.73 12.826,-13.212 10.529,-12.807 5.596,-11.938 2.218,-7.221 0.674,-2.456 0.411,-1.645 0.187,-0.825 0,0"
             style="fill:#b0d787;fill-opacity:1;fill-rule:nonzero;stroke:none"
             transform="matrix(1.3333333,0,0,-1.3333333,-2103.1299,2258.7309)"
             clip-path="url(#clipPath89)" />
          <path
             id="path90"
             d="m 0,0 c -2.438,7.564 -3.486,15.679 -2.844,23.994 0.113,1.456 0.479,3.19 1.845,3.704 0.744,0.281 1.573,0.096 2.346,-0.094 16.456,-4.073 32.851,-9.95 46.068,-20.565 13.217,-10.616 22.918,-26.629 22.647,-43.579 -0.034,-2.115 -0.309,-4.43 -1.828,-5.902 -1.422,-1.379 -3.56,-1.654 -5.539,-1.761 C 33.544,-45.785 8.443,-26.198 0,0"
             style="fill:#b0d787;fill-opacity:1;fill-rule:nonzero;stroke:none"
             transform="matrix(1.3333333,0,0,-1.3333333,-2274.0948,2522.3833)"
             clip-path="url(#clipPath91)" />
          <path
             id="path92"
             d="m 0,0 c 13.554,4.606 26.248,2.518 37.984,-5.224 7.917,-5.221 16.877,-8.183 25.191,-12.515 8.106,-4.224 8.502,-7.374 1.763,-13.553 -23.567,-21.609 -58.709,-18.266 -77.624,7.388 -0.192,0.26 -0.333,0.557 -0.525,0.818 -6.867,9.305 -5.473,14.946 5.06,19.93 C -5.524,-1.913 -2.722,-1.042 0,0"
             style="fill:#b0d787;fill-opacity:1;fill-rule:nonzero;stroke:none"
             transform="matrix(1.3333333,0,0,-1.3333333,-2111.6104,2460.8547)"
             clip-path="url(#clipPath93)" />
          <path
             id="path94"
             d="m 0,0 c 3.048,-8.181 2.418,-16.611 1.297,-24.991 -0.766,-5.727 -2.115,-6.548 -7.672,-6.025 -20.736,1.953 -41.083,20.845 -44.641,41.865 -1.568,9.266 -2.834,18.556 -5.16,27.7 -1.518,5.971 2.283,9.717 7.374,7.147 C -31.412,36.922 -13.778,28.231 -3.946,9.905 -3.182,8.479 -2.36,7.064 -1.773,5.563 -1.066,3.755 -0.581,1.858 0,0"
             style="fill:#b0d787;fill-opacity:1;fill-rule:nonzero;stroke:none"
             transform="matrix(1.3333333,0,0,-1.3333333,-2168.2771,2378.77)"
             clip-path="url(#clipPath95)" />
          <path
             id="path96"
             d="m 0,0 c 4.473,-12.382 4.478,-24.321 -0.769,-36.263 -3.023,-6.881 -6.478,-8.605 -12.586,-4.97 -12.924,7.691 -21.288,18.991 -24.284,33.67 -2.531,12.402 -3.077,25.065 -1.915,37.727 0.594,6.475 2.845,7.55 9.031,4.915 C -14.531,28.267 -4.189,16.62 0,0"
             style="fill:#b0d787;fill-opacity:1;fill-rule:nonzero;stroke:none"
             transform="matrix(1.3333333,0,0,-1.3333333,-2125.8995,2259.3391)"
             clip-path="url(#clipPath97)" />
          <path
             id="path98"
             d="m 0,0 c 3.332,-9.527 4.083,-21.057 1.246,-31.061 -2.656,-9.368 -10.516,-5.034 -15.652,-0.425 -5.56,4.988 -9.264,11.951 -11.136,19.123 -2.812,10.768 -2.032,22.104 -1.233,33.203 0.186,2.598 0.945,5.868 3.512,6.304 1.404,0.238 2.759,-0.55 3.934,-1.353 C -10.302,19.615 -3.615,10.341 0,0"
             style="fill:#b0d787;fill-opacity:1;fill-rule:nonzero;stroke:none"
             transform="matrix(1.3333333,0,0,-1.3333333,-2107.458,2153.3944)"
             clip-path="url(#clipPath99)" />
          <path
             id="path100"
             d="m 0,0 c 4.618,2.408 6.446,6.404 8.99,9.685 12.501,16.112 27.202,29.741 44.987,39.826 10.21,5.79 20.138,11.922 28.877,19.826 0.963,0.872 1.996,1.671 3.029,2.46 1.413,1.078 3.088,1.471 4.464,0.304 1.875,-1.591 1.191,-3.597 -0.078,-5.189 C 89.067,65.404 87.554,64.134 86.113,62.828 77.618,55.127 67.884,49.204 57.974,43.596 34.417,30.265 16.755,10.955 2.672,-11.688 -4.399,-23.058 -6.444,-35.642 -3.276,-49.17 0.865,-66.852 9.44,-81.757 22.181,-94.458 c 1.15,-1.147 2.428,-2.168 3.561,-3.331 1.768,-1.815 4.531,-3.767 1.703,-6.4 -2.527,-2.353 -4.85,-0.147 -6.74,1.629 -13.989,13.154 -24.422,28.315 -29.798,47.179 -7.309,25.652 -3.136,50.197 5.062,74.528 2.63,7.803 4.286,15.67 4.913,23.783 0.711,9.205 -0.143,18.192 -4.799,26.485 -1.132,2.016 -2.113,4.655 0.445,6.04 3.011,1.63 4.95,-0.708 6.003,-3.215 2.097,-4.986 3.902,-10.095 5.765,-14.992 0.853,0.054 1.368,-0.052 1.476,0.111 14.592,22.1 26.629,44.752 17.325,72.638 -2.361,7.076 -3.759,14.475 -5.584,21.729 -0.555,2.203 -1.299,4.419 -0.729,6.713 0.322,1.297 1.174,2.294 2.599,2.573 1.452,0.283 2.732,-0.362 3.245,-1.543 0.895,-2.067 1.506,-4.278 2.05,-6.473 2.033,-8.206 3.958,-16.438 6.01,-24.64 0.373,-1.492 0.694,-3.28 2.73,-3.535 2.179,-0.273 2.725,1.505 3.181,2.971 6.807,21.874 12.419,43.922 7.353,67.065 -3.195,14.601 -5.892,29.342 -11.144,43.423 -0.45,1.205 -0.838,2.483 -0.945,3.753 -0.112,1.352 0.563,2.483 1.889,3.064 1.394,0.611 2.794,0.117 3.496,-0.905 1.079,-1.572 1.849,-3.408 2.485,-5.225 5.617,-16.01 9.384,-32.511 12.212,-49.192 2.714,-16.009 0.03,-31.759 -3.802,-47.319 C 44.875,112.939 34.111,84.822 19.261,58.217 10.508,42.538 5.189,25.378 -0.077,8.275 -0.802,5.922 -1.891,3.405 0,0"
             style="fill:#9bb55a;fill-opacity:1;fill-rule:nonzero;stroke:none"
             transform="matrix(1.3333333,0,0,-1.3333333,-2171.2145,2506.6139)"
             clip-path="url(#clipPath101)" />
        </g>
      </g>
    </g>
  </g>
</svg>
