<?xml version="1.0" encoding="UTF-8" standalone="no"?>
<!-- Created with Inkscape (http://www.inkscape.org/) -->

<svg
   width="60.240337mm"
   height="59.951939mm"
   viewBox="0 0 60.240337 59.951939"
   version="1.1"
   id="svg1"
   xmlns="http://www.w3.org/2000/svg"
   xmlns:svg="http://www.w3.org/2000/svg">
  <defs
     id="defs1">
    <filter
       style="color-interpolation-filters:sRGB"
       id="filter7"
       x="-0.04099961"
       y="-0.041218902"
       width="1.1112847"
       height="1.1118799">
      <feFlood
         result="flood"
         in="SourceGraphic"
         flood-opacity="0.498039"
         flood-color="rgb(0,0,0)"
         id="feFlood6" />
      <feGaussianBlur
         result="blur"
         in="SourceGraphic"
         stdDeviation="3.500000"
         id="feGaussianBlur6" />
      <feOffset
         result="offset"
         in="blur"
         dx="6.000000"
         dy="6.000000"
         id="feOffset6" />
      <feComposite
         result="comp1"
         operator="in"
         in="flood"
         in2="offset"
         id="feComposite6" />
      <feComposite
         result="comp2"
         operator="over"
         in="SourceGraphic"
         in2="comp1"
         id="feComposite7" />
    </filter>
  </defs>
  <g
     id="layer1"
     transform="translate(-87.146807,-112.47764)">
    <g
       id="g1354"
       transform="matrix(0.26458333,0,0,0.26458333,-114.03707,-61.327147)"
       style="filter:url(#filter7)">
      <path
         class="uuid-fa854ba6-01a3-466e-8ba2-f49efd3c3140"
         d="m 959.21,722.72 c -9.59,-15.21 -22.43,-23.94 -35.21,-23.94 -2.05,0 -4.1,0.23 -6.13,0.69 -7.65,-5.37 -16.18,-8.28 -24.41,-8.28 -1.3,0 -2.61,0.07 -3.9,0.22 -2.62,-7.58 -6.52,-14.33 -11.23,-19.39 -0.2,-0.54 -0.45,-1.06 -0.75,-1.56 -1.92,-3.28 -5.53,-5.16 -9.88,-5.16 -2.86,0 -6.05,0.82 -8.97,2.32 -4.52,2.31 -7.75,5.81 -8.85,9.6 -0.41,1.42 -0.53,2.87 -0.35,4.25 0.03,2.71 1.43,5.19 3.68,6.64 0.25,0.53 0.6,1.53 0.91,3.1 -0.38,-0.01 -0.77,-0.02 -1.15,-0.02 -8.42,0 -17.1,2.85 -24.87,8.1 -3.15,-1.14 -6.39,-1.71 -9.67,-1.71 -12.78,0 -25.62,8.72 -35.21,23.94 -9.31,14.76 -14.44,33.6 -14.44,53.05 0,19.45 5.13,38.28 14.44,53.05 9.59,15.21 22.43,23.94 35.21,23.94 0.13,0 0.26,0 0.38,0 7.13,8.38 15.5,12.77 24.43,12.77 3.53,0 7,-0.7 10.36,-2.09 5.67,4.5 11.92,6.85 18.35,6.85 6.43,0 12.68,-2.35 18.35,-6.85 3.36,1.39 6.83,2.09 10.36,2.09 8.45,0 16.45,-3.98 23.35,-11.56 v 0 c 12.78,0 25.62,-8.72 35.21,-23.94 9.31,-14.76 14.44,-33.6 14.44,-53.05 0,-19.45 -5.13,-38.28 -14.44,-53.05 z"
         id="path1338"
         style="fill:#ffffff;stroke-width:0px" />
      <g
         id="g1353">
        <path
           class="uuid-f66889aa-c4fe-483f-91cf-3b1be3aa0ada"
           d="m 811.3,745.69 c 0,25.69 21.33,46.51 41.65,46.51 20.32,0 36.79,-20.82 36.79,-46.51 0,-25.69 -16.47,-46.51 -36.79,-46.51 -20.32,0 -41.65,20.82 -41.65,46.51 z"
           id="path1339"
           style="fill:#f7931e;stroke-width:0px" />
        <path
           class="uuid-f66889aa-c4fe-483f-91cf-3b1be3aa0ada"
           d="m 935.11,749.19 c 0,27.62 -21.34,50.01 -41.65,50.01 -20.31,0 -36.79,-22.39 -36.79,-50.01 0,-27.62 16.47,-50.01 36.79,-50.01 20.32,0 41.65,22.39 41.65,50.01 z"
           id="path1340"
           style="fill:#f7931e;stroke-width:0px" />
        <g
           id="g1342">
          <path
             class="uuid-508f1a5d-e2db-4fcb-acaa-e36b6f0d8693"
             d="m 870.48,675.49 c -1.56,3.35 -10.06,4.79 -12.97,5.87 4.55,2.04 5.72,13.4 5.42,23.5 -0.29,9.88 -6.91,12.4 -6.75,15.02 l 28.81,-2.43 c 1.49,-17.06 -5.5,-33.94 -14.52,-41.96 z"
             id="path1341"
             style="fill:#754c24;stroke-width:0px" />
          <path
             class="uuid-52c6adb6-5ddc-4fc3-bb4b-e5609c40b8b3"
             d="m 870.68,674.5 c 1.01,1.71 -1.08,4.59 -4.67,6.43 -3.59,1.84 -7.32,1.94 -8.32,0.22 -1.01,-1.71 1.08,-4.59 4.67,-6.43 3.59,-1.83 7.31,-1.93 8.32,-0.22 z"
             id="path1342"
             style="fill:#8c603c;stroke-width:0px" />
        </g>
        <g
           id="g1344">
          <path
             class="uuid-f66889aa-c4fe-483f-91cf-3b1be3aa0ada"
             d="m 965.65,775.76 c 0,38.1 -21.33,68.98 -41.65,68.98 -20.32,0 -36.79,-30.88 -36.79,-68.98 0,-38.1 16.47,-68.98 36.79,-68.98 20.32,0 41.65,30.88 41.65,68.98 z"
             id="path1343"
             style="fill:#f7931e;stroke-width:0px" />
          <path
             class="uuid-cacbb632-8200-4389-8883-8edc2660a813"
             d="m 956.14,771.05 c 0,34.29 -19.2,62.08 -37.49,62.08 -18.29,0 -33.11,-27.8 -33.11,-62.08 0,-34.28 14.83,-62.09 33.11,-62.09 18.28,0 37.49,27.8 37.49,62.09 z"
             id="path1344"
             style="fill:#fbb03b;stroke-width:0px" />
        </g>
        <g
           id="g1346">
          <path
             class="uuid-f66889aa-c4fe-483f-91cf-3b1be3aa0ada"
             d="m 776.77,774.55 c 0,38.1 21.33,68.98 41.65,68.98 20.32,0 36.79,-30.88 36.79,-68.98 0,-38.1 -16.47,-68.98 -36.79,-68.98 -20.32,0 -41.65,30.89 -41.65,68.98 z"
             id="path1345"
             style="fill:#f7931e;stroke-width:0px" />
          <path
             class="uuid-cacbb632-8200-4389-8883-8edc2660a813"
             d="m 786.28,769.83 c 0,34.29 19.2,62.08 37.49,62.08 18.29,0 33.11,-27.8 33.11,-62.08 0,-34.28 -14.83,-62.09 -33.11,-62.09 -18.28,0 -37.49,27.8 -37.49,62.09 z"
             id="path1346"
             style="fill:#fbb03b;stroke-width:0px" />
        </g>
        <g
           id="g1348">
          <path
             class="uuid-f66889aa-c4fe-483f-91cf-3b1be3aa0ada"
             d="m 880.03,781.44 c 0,41.34 -16.47,74.86 -36.79,74.86 -20.32,0 -36.79,-33.51 -36.79,-74.86 0,-41.35 16.47,-74.86 36.79,-74.86 20.32,0 36.79,33.52 36.79,74.86 z"
             id="path1347"
             style="fill:#f7931e;stroke-width:0px" />
          <path
             class="uuid-cacbb632-8200-4389-8883-8edc2660a813"
             d="m 879.22,776.64 c 0,37.21 -14.82,67.37 -33.11,67.37 -18.29,0 -33.11,-30.16 -33.11,-67.37 0,-37.21 14.82,-67.38 33.11,-67.38 18.29,0 33.11,30.16 33.11,67.38 z"
             id="path1348"
             style="fill:#fbb03b;stroke-width:0px" />
        </g>
        <g
           id="g1350">
          <path
             class="uuid-f66889aa-c4fe-483f-91cf-3b1be3aa0ada"
             d="m 937.44,781.44 c 0,41.34 -16.47,74.86 -36.79,74.86 -20.32,0 -36.79,-33.51 -36.79,-74.86 0,-41.35 16.47,-74.86 36.79,-74.86 20.32,0 36.79,33.52 36.79,74.86 z"
             id="path1349"
             style="fill:#f7931e;stroke-width:0px" />
          <path
             class="uuid-cacbb632-8200-4389-8883-8edc2660a813"
             d="m 930.89,776.64 c 0,37.21 -14.82,67.37 -33.11,67.37 -18.29,0 -33.11,-30.16 -33.11,-67.37 0,-37.21 14.82,-67.38 33.11,-67.38 18.29,0 33.11,30.16 33.11,67.38 z"
             id="path1350"
             style="fill:#fbb03b;stroke-width:0px" />
        </g>
        <g
           id="g1352">
          <path
             class="uuid-f66889aa-c4fe-483f-91cf-3b1be3aa0ada"
             d="m 908.73,786.2 c 0,41.34 -16.47,74.86 -36.79,74.86 -20.32,0 -36.79,-33.52 -36.79,-74.86 0,-41.34 16.47,-74.86 36.79,-74.86 20.32,0 36.79,33.52 36.79,74.86 z"
             id="path1351"
             style="fill:#f7931e;stroke-width:0px" />
          <path
             class="uuid-cacbb632-8200-4389-8883-8edc2660a813"
             d="m 900.89,781.29 c 0,37.21 -12.77,67.37 -28.53,67.37 -15.76,0 -28.53,-30.17 -28.53,-67.37 0,-37.2 12.77,-67.38 28.53,-67.38 15.76,0 28.53,30.16 28.53,67.38 z"
             id="path1352"
             style="fill:#fbb03b;stroke-width:0px" />
        </g>
      </g>
    </g>
  </g>
</svg>
