<?xml version="1.0" encoding="UTF-8" standalone="no"?>
<!-- Created with Inkscape (http://www.inkscape.org/) -->

<svg
   width="69.401978mm"
   height="43.390739mm"
   viewBox="0 0 69.401978 43.390739"
   version="1.1"
   id="svg1"
   xmlns="http://www.w3.org/2000/svg"
   xmlns:svg="http://www.w3.org/2000/svg">
  <defs
     id="defs1">
    <clipPath
       clipPathUnits="userSpaceOnUse"
       id="clipPath159">
      <path
         d="M 0,1000 H 1000 V 0 H 0 Z"
         transform="matrix(1.3333333,0,0,-1.3333333,0,1333.3333)"
         id="path159" />
    </clipPath>
    <clipPath
       clipPathUnits="userSpaceOnUse"
       id="clipPath157">
      <path
         d="M 228.81,182.063 H 350.404 V 65.433 H 228.81 Z"
         transform="translate(-328.48191,-177.21003)"
         id="path157" />
    </clipPath>
    <clipPath
       clipPathUnits="userSpaceOnUse"
       id="clipPath162">
      <path
         d="M 0,1000 H 1000 V 0 H 0 Z"
         transform="matrix(1.3333333,0,0,-1.3333333,0,1333.3333)"
         id="path162" />
    </clipPath>
    <clipPath
       clipPathUnits="userSpaceOnUse"
       id="clipPath160">
      <path
         d="m 352.133,174.15 h 65.255 v -63.106 h -65.255 z"
         transform="translate(-404.47561,-170.2129)"
         id="path160" />
    </clipPath>
    <clipPath
       clipPathUnits="userSpaceOnUse"
       id="clipPath164">
      <path
         d="M 0,1000 H 1000 V 0 H 0 Z"
         transform="translate(-319.77341,-180.86133)"
         id="path164" />
    </clipPath>
    <clipPath
       clipPathUnits="userSpaceOnUse"
       id="clipPath166">
      <path
         d="M 0,1000 H 1000 V 0 H 0 Z"
         transform="translate(-396.14791,-174.6484)"
         id="path166" />
    </clipPath>
    <clipPath
       clipPathUnits="userSpaceOnUse"
       id="clipPath168">
      <path
         d="M 0,1000 H 1000 V 0 H 0 Z"
         transform="translate(-322.19431,-173.09178)"
         id="path168" />
    </clipPath>
    <clipPath
       clipPathUnits="userSpaceOnUse"
       id="clipPath170">
      <path
         d="M 0,1000 H 1000 V 0 H 0 Z"
         transform="translate(-398.56791,-166.87698)"
         id="path170" />
    </clipPath>
    <clipPath
       clipPathUnits="userSpaceOnUse"
       id="clipPath172">
      <path
         d="M 0,1000 H 1000 V 0 H 0 Z"
         transform="translate(-241.0342,-164.0137)"
         id="path172" />
    </clipPath>
    <clipPath
       clipPathUnits="userSpaceOnUse"
       id="clipPath174">
      <path
         d="M 0,1000 H 1000 V 0 H 0 Z"
         transform="translate(-279.95071,-159.08403)"
         id="path174" />
    </clipPath>
    <clipPath
       clipPathUnits="userSpaceOnUse"
       id="clipPath176">
      <path
         d="M 0,1000 H 1000 V 0 H 0 Z"
         transform="translate(-364.39111,-155.70903)"
         id="path176" />
    </clipPath>
    <clipPath
       clipPathUnits="userSpaceOnUse"
       id="clipPath178">
      <path
         d="M 0,1000 H 1000 V 0 H 0 Z"
         transform="translate(-270.73,-118.01658)"
         id="path178" />
    </clipPath>
    <clipPath
       clipPathUnits="userSpaceOnUse"
       id="clipPath180">
      <path
         d="M 0,1000 H 1000 V 0 H 0 Z"
         transform="translate(-298.56451,-108.42768)"
         id="path180" />
    </clipPath>
    <clipPath
       clipPathUnits="userSpaceOnUse"
       id="clipPath182">
      <path
         d="M 0,1000 H 1000 V 0 H 0 Z"
         transform="translate(-243.18261,-163.02438)"
         id="path182" />
    </clipPath>
    <clipPath
       clipPathUnits="userSpaceOnUse"
       id="clipPath184">
      <path
         d="M 0,1000 H 1000 V 0 H 0 Z"
         transform="translate(-301.32621,-106.7227)"
         id="path184" />
    </clipPath>
    <clipPath
       clipPathUnits="userSpaceOnUse"
       id="clipPath186">
      <path
         d="M 0,1000 H 1000 V 0 H 0 Z"
         transform="translate(-272.8027,-116.7637)"
         id="path186" />
    </clipPath>
    <clipPath
       clipPathUnits="userSpaceOnUse"
       id="clipPath188">
      <path
         d="M 0,1000 H 1000 V 0 H 0 Z"
         transform="translate(-367.13431,-154.99323)"
         id="path188" />
    </clipPath>
    <clipPath
       clipPathUnits="userSpaceOnUse"
       id="clipPath190">
      <path
         d="M 0,1000 H 1000 V 0 H 0 Z"
         transform="translate(-282.67041,-157.14453)"
         id="path190" />
    </clipPath>
    <clipPath
       clipPathUnits="userSpaceOnUse"
       id="clipPath192">
      <path
         d="M 0,1000 H 1000 V 0 H 0 Z"
         transform="translate(-261.73881,-144.5791)"
         id="path192" />
    </clipPath>
    <clipPath
       clipPathUnits="userSpaceOnUse"
       id="clipPath194">
      <path
         d="M 0,1000 H 1000 V 0 H 0 Z"
         transform="translate(-391.33251,-151.9687)"
         id="path194" />
    </clipPath>
  </defs>
  <g
     id="layer1"
     transform="translate(-70.379167,-127)">
    <g
       opacity="0.5"
       id="g158"
       clip-path="url(#clipPath159)"
       transform="matrix(0.26458333,0,0,0.26458333,-7.4638643,-159.30369)">
      <path
         d="m 0,0 c -7.288,0.221 -13.859,-1.626 -18.756,-3.587 -4.165,3.12 -9.945,6.521 -16.815,8.123 -1.878,0.438 -3.852,0.154 -5.565,-0.794 -1.305,-0.722 -2.39,-1.791 -3.149,-3.079 -0.543,0.143 -1.109,0.229 -1.691,0.247 -5.805,0.194 -11.106,-1.186 -15.139,-2.71 -3.358,2.49 -7.948,5.152 -13.414,6.45 -1.825,0.437 -3.768,0.162 -5.473,-0.768 -1.706,-0.931 -3.05,-2.449 -3.792,-4.276 -2.213,-5.423 -2.922,-10.812 -3.041,-15.046 -3.63,-2.518 -7.927,-6.196 -11.35,-11.149 -2.3,-3.334 -1.899,-7.717 0.985,-10.228 4.255,-3.709 9.192,-5.893 13.259,-7.166 1.124,-4.069 3.133,-9.057 6.801,-13.49 2.274,-2.75 6.289,-3.544 9.744,-1.909 0.263,0.125 0.518,0.262 0.781,0.42 4.864,2.955 8.549,6.773 11.142,10.157 -0.047,-0.095 -0.094,-0.191 -0.137,-0.289 -1.869,-4.145 -2.596,-8.276 -2.821,-11.604 -2.986,-1.993 -6.444,-4.836 -9.256,-8.621 -2.431,-3.279 -2.058,-7.651 0.92,-10.208 3.426,-2.94 7.359,-4.778 10.673,-5.911 0.969,-3.21 2.642,-7.069 5.569,-10.551 2.328,-2.777 6.483,-3.631 10.083,-2.056 0.275,0.12 0.542,0.254 0.816,0.407 1.926,1.091 3.76,2.393 5.487,3.897 2.458,-1.356 4.918,-2.342 7.095,-3.053 1.101,-3.658 3.032,-8.106 6.464,-12.106 2.408,-2.804 6.655,-3.675 10.31,-2.094 0.282,0.122 0.561,0.259 0.831,0.408 4.805,2.692 8.421,6.224 10.933,9.308 4.116,-0.126 9.319,0.234 14.581,1.988 0.318,0.107 0.608,0.221 0.887,0.348 3.629,1.638 5.595,5.334 4.776,8.974 -1.17,5.193 -3.665,9.578 -6.01,12.799 1.344,3.721 2.47,8.6 2.113,13.918 -0.27,4.067 -3.68,7.305 -7.888,7.518 -5.449,0.273 -10.441,-0.805 -14.286,-2.053 -0.435,0.306 -0.892,0.617 -1.372,0.928 4.464,0.195 9.549,0.957 14.633,2.843 0.314,0.117 0.585,0.237 0.852,0.369 3.479,1.731 5.282,5.521 4.381,9.204 -1.773,7.255 -5.455,13.263 -8.756,17.523 1.738,5.09 3.197,11.961 2.465,19.436 C 7.459,-3.339 4.059,-0.12 0,0"
         style="fill:#000000;fill-opacity:1;fill-rule:nonzero;stroke:none"
         transform="matrix(1.3333333,0,0,-1.3333333,437.97587,1097.0533)"
         clip-path="url(#clipPath157)"
         id="path158" />
    </g>
    <g
       opacity="0.5"
       id="g161"
       clip-path="url(#clipPath162)"
       transform="matrix(0.26458333,0,0,0.26458333,-7.4638643,-159.30369)">
      <path
         d="m 0,0 c -5.646,0.207 -10.753,-1.084 -14.651,-2.52 -3.321,2.412 -7.813,4.975 -13.095,6.247 -1.858,0.445 -3.81,0.177 -5.51,-0.75 -1.701,-0.926 -3.033,-2.444 -3.763,-4.27 -2.063,-5.181 -2.731,-10.316 -2.847,-14.367 -3.496,-2.387 -7.619,-5.855 -10.945,-10.508 -2.342,-3.282 -1.975,-7.632 0.937,-10.176 4.104,-3.582 8.891,-5.753 12.864,-7.051 1.095,-3.886 3.041,-8.638 6.609,-12.908 2.316,-2.778 6.463,-3.658 10.051,-2.103 0.306,0.132 0.587,0.272 0.858,0.427 5.063,2.854 8.845,6.663 11.427,9.978 4.309,-0.157 9.805,0.204 15.346,2.114 0.298,0.1 0.588,0.218 0.888,0.359 3.542,1.656 5.406,5.383 4.527,9.048 -1.351,5.636 -4.119,10.367 -6.664,13.806 1.329,4.028 2.386,9.358 1.821,15.165 C 7.448,-3.381 4.042,-0.146 0,0"
         style="fill:#000000;fill-opacity:1;fill-rule:nonzero;stroke:none"
         transform="matrix(1.3333333,0,0,-1.3333333,539.3008,1106.3828)"
         clip-path="url(#clipPath160)"
         id="path161" />
    </g>
    <path
       id="path163"
       d="m 0,0 c -7.138,0.49 -13.683,-1.039 -18.563,-2.765 -4.038,3.167 -9.692,6.677 -16.535,8.497 -1.871,0.497 -3.857,0.297 -5.59,-0.562 -1.321,-0.654 -2.424,-1.657 -3.202,-2.889 -0.542,0.16 -1.109,0.262 -1.693,0.303 -5.826,0.4 -11.185,-0.765 -15.257,-2.13 -3.39,2.569 -8.044,5.36 -13.629,6.846 -1.865,0.499 -3.852,0.3 -5.59,-0.562 -1.737,-0.861 -3.099,-2.323 -3.834,-4.115 -2.191,-5.326 -2.79,-10.707 -2.798,-14.953 -3.616,-2.431 -7.863,-6.027 -11.121,-10.984 -2.191,-3.334 -1.565,-7.813 1.457,-10.416 4.459,-3.846 9.489,-6.133 13.587,-7.477 1.298,-4.145 3.534,-9.244 7.36,-13.781 2.374,-2.817 6.335,-3.641 9.634,-2.005 0.25,0.124 0.493,0.262 0.743,0.419 4.617,2.963 8.074,6.771 10.51,10.135 -0.043,-0.096 -0.085,-0.192 -0.125,-0.288 -1.703,-4.139 -2.255,-8.298 -2.34,-11.66 -2.821,-1.993 -6.058,-4.854 -8.59,-8.705 -2.191,-3.333 -1.565,-7.81 1.455,-10.415 3.473,-2.995 7.348,-4.854 10.577,-5.993 1.104,-3.27 2.926,-7.201 5.903,-10.731 2.372,-2.818 6.334,-3.643 9.634,-2.007 0.253,0.125 0.497,0.263 0.747,0.422 1.755,1.126 3.413,2.461 4.967,3.994 2.379,-1.358 4.733,-2.34 6.806,-3.045 1.198,-3.689 3.22,-8.178 6.604,-12.192 2.375,-2.815 6.337,-3.638 9.633,-2.004 0.255,0.125 0.506,0.268 0.748,0.421 4.311,2.767 7.513,6.337 9.733,9.432 3.808,-0.106 8.584,0.279 13.379,2.03 0.29,0.108 0.554,0.223 0.807,0.348 3.296,1.635 5.039,5.285 4.237,8.878 -1.146,5.125 -3.495,9.452 -5.706,12.64 1.22,3.651 2.255,8.425 1.935,13.626 -0.242,3.977 -3.427,7.186 -7.407,7.463 -5.151,0.354 -9.893,-0.627 -13.538,-1.806 -0.416,0.308 -0.853,0.619 -1.31,0.931 4.246,0.132 9.064,0.81 13.884,2.571 0.297,0.11 0.555,0.221 0.808,0.346 3.298,1.636 5.04,5.288 4.235,8.882 -1.584,7.082 -4.982,12.986 -8.076,17.199 1.776,4.879 3.375,11.45 2.933,18.639 C 7.163,-3.479 3.977,-0.271 0,0"
       style="fill:#ffffff;fill-opacity:1;fill-rule:nonzero;stroke:none"
       transform="matrix(0.35277776,0,0,-0.35277776,105.34508,129.67023)"
       clip-path="url(#clipPath164)" />
    <path
       id="path165"
       d="m 0,0 c -5.551,0.382 -10.662,-0.709 -14.563,-1.998 -3.252,2.445 -7.696,5.086 -13.018,6.501 -1.872,0.497 -3.857,0.298 -5.59,-0.562 -1.735,-0.86 -3.095,-2.319 -3.832,-4.109 -2.087,-5.075 -2.678,-10.199 -2.705,-14.264 -3.448,-2.338 -7.481,-5.781 -10.588,-10.507 -2.19,-3.332 -1.566,-7.809 1.453,-10.415 4.254,-3.669 9.041,-5.867 12.957,-7.168 1.258,-3.962 3.409,-8.816 7.056,-13.14 2.372,-2.817 6.334,-3.641 9.634,-2.004 0.281,0.139 0.539,0.286 0.787,0.447 4.628,2.975 8.05,6.843 10.405,10.174 4.078,-0.143 9.232,0.24 14.401,2.126 0.278,0.099 0.549,0.215 0.829,0.354 3.297,1.634 5.04,5.286 4.236,8.879 -1.238,5.53 -3.797,10.176 -6.189,13.573 1.334,3.904 2.482,9.043 2.137,14.649 C 7.165,-3.481 3.979,-0.273 0,0"
       style="fill:#ffffff;fill-opacity:1;fill-rule:nonzero;stroke:none"
       transform="matrix(0.35277776,0,0,-0.35277776,132.28831,131.86201)"
       clip-path="url(#clipPath166)" />
    <path
       id="path167"
       d="m 0,0 c -0.093,1.488 -1.274,2.68 -2.762,2.781 -7.807,0.536 -14.913,-1.717 -19.161,-3.495 -3.465,3.05 -9.407,7.395 -16.881,9.383 -0.721,0.192 -1.457,0.102 -2.084,-0.209 -0.627,-0.312 -1.144,-0.843 -1.428,-1.532 -2.938,-7.143 -3.08,-14.492 -2.752,-19.096 -0.752,-0.428 -1.75,-1.023 -2.9,-1.793 -0.197,0.256 -0.385,0.49 -0.556,0.701 1.503,3.591 3.336,9.421 2.941,15.842 -0.092,1.49 -1.273,2.681 -2.763,2.783 -6.405,0.44 -12.243,-1.345 -15.846,-2.82 -2.947,2.553 -7.849,6.06 -13.983,7.692 -0.721,0.193 -1.457,0.101 -2.083,-0.209 -0.628,-0.311 -1.145,-0.841 -1.429,-1.532 -2.411,-5.861 -2.589,-11.881 -2.342,-15.77 -3.355,-1.951 -8.431,-5.548 -12.025,-11.017 -0.82,-1.246 -0.588,-2.908 0.543,-3.883 4.872,-4.203 10.624,-6.273 14.391,-7.25 0.925,-3.775 2.929,-9.609 7.113,-14.572 0.891,-1.056 2.378,-1.35 3.59,-0.748 0.098,0.049 0.192,0.102 0.287,0.162 5.399,3.463 9.016,8.367 11.03,11.699 1.759,-0.19 3.527,-0.264 5.281,-0.222 3.638,-2.145 7.786,-3.825 12.13,-4.91 0.467,-1.981 1.027,-3.786 1.607,-5.381 -2.312,1.643 -5.331,3.335 -8.852,4.273 -0.72,0.19 -1.456,0.101 -2.083,-0.211 -0.627,-0.311 -1.144,-0.842 -1.428,-1.531 -1.886,-4.584 -2.094,-9.279 -1.93,-12.439 -2.717,-1.623 -6.633,-4.491 -9.444,-8.764 -0.819,-1.247 -0.587,-2.909 0.543,-3.883 3.817,-3.293 8.287,-4.975 11.341,-5.803 0.789,-3.066 2.42,-7.6 5.696,-11.485 0.89,-1.058 2.378,-1.351 3.591,-0.749 0.097,0.048 0.192,0.102 0.286,0.162 2.87,1.842 5.119,4.18 6.791,6.334 4.064,-3.144 8.597,-4.784 11.715,-5.61 0.853,-3.408 2.665,-8.563 6.375,-12.964 0.89,-1.056 2.378,-1.348 3.589,-0.748 0.098,0.048 0.193,0.103 0.287,0.162 4.784,3.07 8.015,7.384 9.851,10.383 3.498,-0.354 8.89,-0.394 14.227,1.556 0.105,0.039 0.205,0.082 0.302,0.13 1.212,0.601 1.879,1.962 1.579,3.31 -1.258,5.621 -4.265,10.18 -6.461,12.923 1.341,3.248 2.93,8.425 2.578,14.123 -0.09,1.491 -1.273,2.68 -2.761,2.784 -5.678,0.388 -10.858,-1.155 -14.119,-2.47 -2.479,2.124 -6.412,4.925 -11.31,6.474 1.221,1.533 2.497,3.335 3.725,5.407 4.574,-0.527 12.021,-0.716 19.368,1.969 0.105,0.039 0.206,0.081 0.304,0.129 1.212,0.602 1.879,1.963 1.577,3.311 -1.727,7.717 -5.976,13.928 -8.894,17.475 C -1.829,-14.915 0.481,-7.824 0,0"
       style="fill:#000000;fill-opacity:1;fill-rule:nonzero;stroke:none"
       transform="matrix(0.35277776,0,0,-0.35277776,106.19912,132.41115)"
       clip-path="url(#clipPath168)" />
    <path
       id="path169"
       d="m 0,0 c -0.092,1.49 -1.273,2.681 -2.762,2.783 -6.114,0.42 -11.685,-1.267 -15.151,-2.678 -2.836,2.448 -7.521,5.781 -13.374,7.337 -0.721,0.192 -1.457,0.102 -2.084,-0.21 -0.627,-0.31 -1.144,-0.841 -1.428,-1.531 -2.3,-5.592 -2.485,-11.332 -2.257,-15.07 -3.222,-1.883 -8.053,-5.328 -11.482,-10.545 -0.82,-1.247 -0.588,-2.908 0.542,-3.883 4.651,-4.012 10.133,-6 13.752,-6.946 0.897,-3.629 2.824,-9.189 6.816,-13.925 0.89,-1.057 2.377,-1.35 3.591,-0.748 0.096,0.049 0.192,0.102 0.285,0.162 5.15,3.305 8.612,7.971 10.555,11.17 3.722,-0.391 9.532,-0.461 15.279,1.641 0.105,0.037 0.205,0.08 0.302,0.129 1.213,0.601 1.88,1.961 1.579,3.31 -1.355,6.047 -4.612,10.945 -6.958,13.854 C -1.358,-11.697 0.377,-6.129 0,0"
       style="fill:#000000;fill-opacity:1;fill-rule:nonzero;stroke:none"
       transform="matrix(0.35277776,0,0,-0.35277776,133.14203,134.6036)"
       clip-path="url(#clipPath170)" />
    <path
       id="path171"
       d="m 0,0 c -0.382,-0.234 -7.783,-3.803 -12.411,-10.845 6.381,-5.505 14.477,-6.907 14.909,-7.027 l 0.066,-0.143 c 0.117,-0.434 1.43,-8.545 6.861,-14.988 7.094,4.551 10.745,11.91 10.983,12.29 l 0.191,0.095 c 0.446,-0.04 8.514,-1.589 16.43,1.302 -1.841,8.224 -7.502,14.178 -7.778,14.533 l -0.072,0.14 c 0.166,0.416 3.95,7.709 3.431,16.122 C 24.204,12.057 16.883,8.326 16.465,8.164 L 16.432,8.094 C 16.089,8.385 10.365,14.277 2.222,16.443 -0.984,8.65 0.242,0.527 0.265,0.078 Z"
       style="fill:#f21458;fill-opacity:1;fill-rule:nonzero;stroke:none"
       transform="matrix(0.35277776,0,0,-0.35277776,77.567643,135.6137)"
       clip-path="url(#clipPath172)" />
    <path
       id="path173"
       d="m 0,0 c -0.46,-0.283 -9.374,-4.58 -14.947,-13.063 7.686,-6.628 17.436,-8.32 17.956,-8.463 l 0.081,-0.171 c 0.14,-0.524 1.72,-10.291 8.263,-18.052 8.544,5.479 12.94,14.345 13.228,14.803 l 0.228,0.113 c 0.538,-0.048 10.256,-1.915 19.789,1.568 -2.216,9.906 -9.034,17.078 -9.366,17.504 l -0.087,0.168 c 0.2,0.501 4.756,9.286 4.132,19.417 C 29.152,14.521 20.335,10.027 19.832,9.832 L 19.792,9.75 C 19.378,10.098 12.484,17.197 2.676,19.805 -1.185,10.418 0.293,0.634 0.318,0.094 Z"
       style="fill:#ffd522;fill-opacity:1;fill-rule:nonzero;stroke:none"
       transform="matrix(0.35277776,0,0,-0.35277776,91.29652,137.35278)"
       clip-path="url(#clipPath174)" />
    <path
       id="path175"
       d="m 0,0 c -0.366,-0.225 -7.448,-3.639 -11.878,-10.379 6.108,-5.267 13.855,-6.611 14.27,-6.726 l 0.063,-0.135 c 0.111,-0.416 1.367,-8.178 6.566,-14.344 6.789,4.355 10.282,11.398 10.512,11.762 l 0.181,0.09 c 0.427,-0.038 8.15,-1.521 15.725,1.247 -1.761,7.871 -7.179,13.569 -7.443,13.909 l -0.069,0.133 c 0.159,0.398 3.779,7.379 3.284,15.429 C 23.165,11.54 16.159,7.969 15.758,7.814 L 15.727,7.748 C 15.398,8.025 9.92,13.666 2.126,15.738 -0.942,8.279 0.232,0.505 0.253,0.076 Z"
       style="fill:#ff4800;fill-opacity:1;fill-rule:nonzero;stroke:none"
       transform="matrix(0.35277776,0,0,-0.35277776,121.08522,138.5434)"
       clip-path="url(#clipPath176)" />
    <path
       id="path177"
       d="m 0,0 c -0.303,-0.186 -6.19,-3.024 -9.872,-8.626 5.077,-4.378 11.516,-5.494 11.86,-5.59 l 0.052,-0.113 c 0.093,-0.346 1.137,-6.795 5.457,-11.92 5.643,3.618 8.546,9.473 8.737,9.775 l 0.15,0.075 c 0.356,-0.032 6.774,-1.264 13.069,1.037 -1.464,6.541 -5.966,11.275 -6.186,11.558 L 23.21,-3.693 C 23.342,-3.362 26.351,2.439 25.939,9.13 19.252,9.591 13.43,6.622 13.097,6.493 L 13.071,6.439 C 12.797,6.669 8.245,11.356 1.768,13.079 -0.782,6.88 0.193,0.419 0.211,0.062 Z"
       style="fill:#553489;fill-opacity:1;fill-rule:nonzero;stroke:none"
       transform="matrix(0.35277776,0,0,-0.35277776,88.043661,151.84046)"
       clip-path="url(#clipPath178)" />
    <path
       id="path179"
       d="m 0,0 c -0.342,-0.211 -6.954,-3.398 -11.09,-9.69 5.702,-4.917 12.936,-6.171 13.321,-6.279 l 0.061,-0.128 c 0.103,-0.386 1.276,-7.633 6.128,-13.389 6.338,4.066 9.601,10.64 9.813,10.98 l 0.171,0.084 c 0.398,-0.036 7.607,-1.42 14.679,1.164 -1.643,7.348 -6.702,12.668 -6.948,12.985 l -0.065,0.125 c 0.149,0.371 3.528,6.888 3.065,14.402 C 21.625,10.771 15.085,7.439 14.71,7.293 L 14.681,7.232 C 14.375,7.49 9.26,12.756 1.985,14.691 -0.88,7.729 0.217,0.471 0.236,0.07 Z"
       style="fill:#7ba800;fill-opacity:1;fill-rule:nonzero;stroke:none"
       transform="matrix(0.35277776,0,0,-0.35277776,97.863055,155.22321)"
       clip-path="url(#clipPath180)" />
    <path
       id="path181"
       d="m 0,0 c -0.23,-0.142 -4.694,-2.294 -7.484,-6.54 3.848,-3.319 8.73,-4.166 8.991,-4.238 l 0.04,-0.086 c 0.07,-0.262 0.861,-5.153 4.137,-9.039 4.278,2.744 6.481,7.182 6.625,7.412 l 0.113,0.056 c 0.271,-0.024 5.137,-0.958 9.91,0.787 -1.11,4.96 -4.524,8.549 -4.69,8.764 L 17.598,-2.8 c 0.101,0.252 2.382,4.651 2.069,9.723 -5.069,0.35 -9.484,-1.9 -9.736,-1.999 L 9.91,4.882 C 9.704,5.057 6.251,8.612 1.34,9.917 -0.594,5.218 0.146,0.317 0.16,0.048 Z"
       style="fill:#ff647a;fill-opacity:1;fill-rule:nonzero;stroke:none"
       transform="matrix(0.35277776,0,0,-0.35277776,78.325553,135.96271)"
       clip-path="url(#clipPath182)" />
    <path
       id="path183"
       d="m 0,0 c -0.203,-0.126 -4.15,-2.028 -6.617,-5.782 3.402,-2.935 7.719,-3.683 7.949,-3.747 l 0.037,-0.076 c 0.061,-0.232 0.761,-4.557 3.657,-7.993 3.782,2.428 5.728,6.352 5.856,6.555 l 0.101,0.049 c 0.239,-0.02 4.539,-0.847 8.761,0.695 -0.981,4.385 -3.999,7.56 -4.147,7.748 l -0.038,0.074 c 0.088,0.223 2.105,4.112 1.829,8.597 C 12.906,6.429 9.003,4.439 8.78,4.354 L 8.762,4.314 C 8.58,4.47 5.527,7.613 1.185,8.768 -0.524,4.613 0.13,0.28 0.142,0.041 Z"
       style="fill:#a9d435;fill-opacity:1;fill-rule:nonzero;stroke:none"
       transform="matrix(0.35277776,0,0,-0.35277776,98.837322,155.82469)"
       clip-path="url(#clipPath184)" />
    <path
       id="path185"
       d="m 0,0 c -0.174,-0.105 -3.528,-1.724 -5.625,-4.916 2.892,-2.494 6.561,-3.131 6.757,-3.185 l 0.031,-0.064 c 0.051,-0.196 0.647,-3.874 3.109,-6.794 3.215,2.063 4.87,5.398 4.978,5.57 l 0.087,0.043 c 0.202,-0.017 3.859,-0.72 7.447,0.591 -0.833,3.728 -3.4,6.427 -3.525,6.588 l -0.033,0.063 c 0.076,0.189 1.79,3.495 1.556,7.307 C 10.972,5.465 7.652,3.775 7.463,3.701 L 7.448,3.67 C 7.293,3.801 4.698,6.472 1.007,7.454 -0.446,3.922 0.11,0.238 0.12,0.036 Z"
       style="fill:#8564b8;fill-opacity:1;fill-rule:nonzero;stroke:none"
       transform="matrix(0.35277776,0,0,-0.35277776,88.774864,152.28245)"
       clip-path="url(#clipPath186)" />
    <path
       id="path187"
       d="m 0,0 c -0.209,-0.127 -4.222,-2.063 -6.732,-5.884 3.461,-2.984 7.852,-3.746 8.087,-3.81 l 0.036,-0.078 c 0.063,-0.235 0.774,-4.635 3.72,-8.129 3.848,2.468 5.828,6.46 5.958,6.667 l 0.103,0.05 c 0.242,-0.022 4.618,-0.862 8.912,0.706 -0.998,4.461 -4.069,7.692 -4.218,7.883 l -0.04,0.076 c 0.091,0.227 2.142,4.182 1.862,8.745 C 13.128,6.54 9.157,4.517 8.931,4.429 L 8.912,4.39 C 8.726,4.547 5.622,7.743 1.205,8.919 -0.534,4.691 0.131,0.285 0.143,0.042 Z"
       style="fill:#ff864e;fill-opacity:1;fill-rule:nonzero;stroke:none"
       transform="matrix(0.35277776,0,0,-0.35277776,122.05296,138.79592)"
       clip-path="url(#clipPath188)" />
    <path
       id="path189"
       d="m 0,0 c -0.289,-0.178 -5.895,-2.881 -9.4,-8.213 4.833,-4.169 10.965,-5.231 11.293,-5.323 l 0.05,-0.109 c 0.087,-0.327 1.081,-6.469 5.195,-11.349 5.373,3.445 8.138,9.019 8.319,9.307 l 0.144,0.072 c 0.338,-0.031 6.448,-1.204 12.443,0.986 -1.394,6.229 -5.681,10.739 -5.89,11.006 l -0.055,0.105 c 0.126,0.318 2.99,5.84 2.599,12.211 C 18.331,9.131 12.787,6.307 12.47,6.184 L 12.445,6.131 C 12.185,6.35 7.85,10.814 1.683,12.454 -0.746,6.552 0.185,0.398 0.201,0.059 Z"
       style="fill:#fff292;fill-opacity:1;fill-rule:nonzero;stroke:none"
       transform="matrix(0.35277776,0,0,-0.35277776,92.255971,138.03699)"
       clip-path="url(#clipPath190)" />
    <path
       id="path191"
       d="m 0,0 c -0.219,0.019 -0.438,-0.021 -0.634,-0.118 l -0.191,-0.094 c -0.197,-0.098 -0.362,-0.248 -0.478,-0.434 -0.023,-0.038 -0.075,-0.127 -0.148,-0.262 -1.47,-2.689 -4.616,-7.57 -9.587,-11.066 -3.716,4.811 -5.278,10.401 -5.888,13.405 -0.032,0.152 -0.054,0.252 -0.064,0.295 -0.018,0.068 -0.043,0.134 -0.072,0.198 l -0.068,0.142 c -0.147,0.314 -0.423,0.548 -0.758,0.642 -0.042,0.012 -0.142,0.034 -0.292,0.066 -2.996,0.645 -8.57,2.267 -13.34,6.037 3.552,4.93 8.466,8.021 11.171,9.463 0.039,0.022 0.075,0.039 0.106,0.057 l 0.141,0.041 c 0.524,0.157 0.876,0.651 0.85,1.199 -0.002,0.045 -0.013,0.147 -0.03,0.301 -0.336,3.047 -0.555,8.848 1.516,14.563 5.801,-1.813 10.285,-5.499 12.507,-7.611 0.112,-0.106 0.186,-0.175 0.22,-0.204 0.282,-0.237 0.657,-0.33 1.017,-0.253 0.198,0.042 0.377,0.134 0.527,0.263 2.795,1.281 8.21,3.304 14.257,3.146 C 10.876,23.698 8.795,18.278 7.494,15.505 7.429,15.365 7.386,15.272 7.37,15.231 7.242,14.909 7.261,14.548 7.42,14.241 l 0.073,-0.14 C 7.526,14.039 7.565,13.979 7.609,13.922 7.636,13.888 7.701,13.81 7.803,13.693 8.476,12.927 9.314,11.897 10.19,10.655 7.445,8.45 4.582,5.612 2.271,2.095 1.943,1.597 2.037,0.933 2.488,0.542 2.857,0.224 3.233,-0.083 3.61,-0.381 2.318,-0.306 1.187,-0.175 0.299,-0.04 0.146,-0.017 0.043,-0.003 0,0 m 31.2,-29.586 c -0.054,-0.117 -0.089,-0.194 -0.104,-0.229 -0.127,-0.321 -0.109,-0.681 0.05,-0.989 l 0.058,-0.111 c 0.033,-0.064 0.072,-0.125 0.116,-0.183 0.024,-0.028 0.078,-0.092 0.163,-0.19 0.894,-1.019 2.157,-2.617 3.313,-4.639 -2.131,-1.258 -4.999,-3.259 -7.559,-6.07 -0.564,0.055 -1.07,0.12 -1.503,0.186 -0.13,0.018 -0.216,0.03 -0.251,0.033 -0.221,0.02 -0.439,-0.022 -0.636,-0.119 l -0.15,-0.075 c -0.198,-0.097 -0.364,-0.247 -0.479,-0.433 -0.021,-0.033 -0.063,-0.107 -0.126,-0.221 -1.139,-2.084 -3.556,-5.841 -7.361,-8.583 -2.822,3.742 -4.022,8.044 -4.495,10.374 -0.027,0.129 -0.046,0.215 -0.056,0.25 -0.018,0.068 -0.042,0.135 -0.071,0.197 l -0.053,0.114 c -0.147,0.314 -0.425,0.548 -0.76,0.642 -0.035,0.01 -0.118,0.028 -0.244,0.057 -2.324,0.498 -6.613,1.744 -10.327,4.61 2.782,3.769 6.565,6.146 8.662,7.265 0.024,0.012 0.045,0.023 0.065,0.033 l 0.088,0.027 c 0.522,0.157 0.877,0.651 0.85,1.198 -0.002,0.038 -0.01,0.125 -0.025,0.256 -0.259,2.362 -0.431,6.826 1.113,11.251 4.46,-1.45 7.909,-4.289 9.631,-5.925 0.095,-0.09 0.158,-0.149 0.187,-0.173 0.282,-0.237 0.658,-0.331 1.018,-0.252 0.185,0.04 0.354,0.123 0.497,0.239 2.176,0.993 6.325,2.537 10.969,2.471 0.034,-4.692 -1.571,-8.86 -2.58,-11.011 m 7.049,-6.438 c -0.002,0.043 -0.011,0.135 -0.026,0.277 -0.297,2.69 -0.491,7.795 1.306,12.84 5.104,-1.625 9.048,-4.869 11.009,-6.735 0.103,-0.097 0.172,-0.16 0.203,-0.187 0.281,-0.236 0.656,-0.33 1.017,-0.252 0.191,0.041 0.366,0.128 0.513,0.25 2.473,1.131 7.228,2.906 12.543,2.796 0.072,-5.359 -1.761,-10.126 -2.91,-12.575 -0.059,-0.128 -0.097,-0.212 -0.112,-0.249 -0.129,-0.322 -0.111,-0.682 0.048,-0.99 l 0.065,-0.124 c 0.034,-0.063 0.073,-0.125 0.117,-0.182 0.026,-0.033 0.086,-0.104 0.179,-0.209 1.785,-2.033 4.871,-6.104 6.29,-11.27 -5.113,-1.593 -10.204,-1.195 -12.881,-0.793 -0.141,0.022 -0.235,0.034 -0.276,0.037 -0.217,0.02 -0.437,-0.021 -0.633,-0.118 l -0.17,-0.085 c -0.196,-0.096 -0.363,-0.247 -0.479,-0.431 -0.022,-0.037 -0.068,-0.118 -0.136,-0.242 -1.298,-2.374 -4.064,-6.669 -8.429,-9.774 -3.249,4.254 -4.621,9.174 -5.162,11.826 -0.028,0.141 -0.049,0.234 -0.06,0.274 -0.018,0.067 -0.041,0.132 -0.071,0.195 l -0.06,0.129 c -0.147,0.314 -0.424,0.549 -0.759,0.64 -0.039,0.012 -0.128,0.033 -0.267,0.063 -2.646,0.567 -7.551,1.995 -11.771,5.295 3.151,4.326 7.476,7.044 9.865,8.317 0.03,0.017 0.059,0.032 0.084,0.045 l 0.113,0.034 c 0.525,0.157 0.877,0.651 0.85,1.198 M 52.395,9.667 C 52.318,9.506 52.27,9.399 52.252,9.352 52.124,9.031 52.142,8.67 52.301,8.362 L 52.39,8.194 c 0.032,-0.063 0.071,-0.124 0.115,-0.18 0.032,-0.04 0.107,-0.129 0.224,-0.263 2.476,-2.818 6.785,-8.513 8.672,-15.74 -7.096,-2.313 -14.218,-1.762 -17.927,-1.203 -0.179,0.027 -0.296,0.043 -0.348,0.047 -0.218,0.02 -0.437,-0.021 -0.633,-0.119 l -0.228,-0.112 c -0.197,-0.098 -0.363,-0.248 -0.479,-0.434 -0.027,-0.043 -0.085,-0.146 -0.172,-0.303 -1.072,-1.961 -2.889,-4.887 -5.474,-7.829 -0.008,0.193 -0.011,0.386 -0.022,0.582 -0.038,0.595 -0.511,1.072 -1.106,1.114 -3.373,0.231 -6.543,-0.354 -9.091,-1.108 -1.912,3.958 -2.908,7.724 -3.397,10.124 -0.035,0.177 -0.061,0.293 -0.074,0.344 -0.018,0.067 -0.042,0.133 -0.072,0.196 l -0.08,0.171 c -0.147,0.315 -0.424,0.551 -0.759,0.643 -0.049,0.014 -0.163,0.039 -0.336,0.077 -3.667,0.788 -10.525,2.788 -16.348,7.464 4.314,6.086 10.359,9.891 13.67,11.656 0.057,0.031 0.106,0.059 0.149,0.08 l 0.195,0.058 c 0.523,0.157 0.876,0.651 0.85,1.198 -0.004,0.052 -0.014,0.17 -0.034,0.348 -0.411,3.73 -0.679,10.867 1.916,17.865 7.143,-2.17 12.662,-6.705 15.381,-9.289 0.13,-0.123 0.216,-0.202 0.256,-0.236 0.281,-0.238 0.657,-0.33 1.016,-0.254 0.209,0.047 0.398,0.145 0.551,0.285 3.413,1.568 10.095,4.07 17.544,3.822 0.197,-7.467 -2.361,-14.135 -3.954,-17.531 m 6.28,18.734 c -0.036,0.597 -0.508,1.073 -1.104,1.114 -8.125,0.559 -15.49,-2.064 -19.382,-3.807 -3.154,2.917 -9.22,7.683 -16.997,9.75 -0.575,0.154 -1.177,-0.145 -1.404,-0.695 -3.058,-7.436 -2.94,-15.143 -2.527,-19.422 -1.392,-0.748 -3.21,-1.824 -5.18,-3.244 -0.802,1.132 -1.572,2.097 -2.224,2.857 1.48,3.272 3.648,9.326 3.236,16.031 -0.038,0.596 -0.51,1.073 -1.105,1.113 -6.707,0.462 -12.787,-1.669 -16.067,-3.123 -2.66,2.443 -7.68,6.344 -14.098,8.052 -0.577,0.154 -1.178,-0.145 -1.406,-0.696 -2.524,-6.137 -2.459,-12.49 -2.126,-16.088 -3.113,-1.689 -8.633,-5.269 -12.4,-11.002 -0.328,-0.498 -0.234,-1.162 0.217,-1.553 5.087,-4.386 11.219,-6.326 14.718,-7.128 0.751,-3.492 2.617,-9.712 6.986,-14.893 0.384,-0.457 1.046,-0.559 1.55,-0.234 5.674,3.637 9.285,8.988 11.045,12.108 1.684,-0.231 4.024,-0.431 6.691,-0.334 4.947,-3.01 10.002,-4.521 13.165,-5.233 0.523,-2.481 1.536,-6.181 3.391,-10.096 -0.509,-0.193 -0.979,-0.386 -1.392,-0.565 -2.162,1.964 -6.137,5.006 -11.198,6.352 -0.576,0.154 -1.177,-0.145 -1.405,-0.696 -1.99,-4.837 -1.976,-9.839 -1.723,-12.751 -2.518,-1.386 -6.841,-4.238 -9.81,-8.753 -0.328,-0.499 -0.234,-1.164 0.219,-1.554 4.013,-3.462 8.83,-5.024 11.66,-5.689 0.623,-2.824 2.13,-7.714 5.575,-11.8 0.383,-0.456 1.044,-0.561 1.55,-0.235 3.407,2.185 5.883,5.133 7.508,7.529 0.069,-0.17 0.174,-0.33 0.322,-0.457 4.528,-3.906 9.975,-5.651 13.127,-6.38 0.684,-3.146 2.364,-8.673 6.25,-13.283 0.385,-0.456 1.044,-0.558 1.551,-0.234 5.047,3.237 8.275,7.979 9.868,10.789 3.201,-0.431 8.93,-0.734 14.56,1.323 0.042,0.015 0.083,0.033 0.121,0.052 0.486,0.241 0.753,0.785 0.631,1.324 -1.317,5.888 -4.698,10.567 -6.788,13.016 1.326,2.951 3.237,8.342 2.868,14.311 -0.037,0.596 -0.509,1.072 -1.105,1.113 -5.967,0.41 -11.38,-1.466 -14.338,-2.769 -2.401,2.195 -6.877,5.649 -12.589,7.168 -0.578,0.154 -1.178,-0.145 -1.405,-0.696 -1.74,-4.23 -2.108,-8.568 -2.05,-11.818 -0.742,1.098 -1.467,2.023 -2.076,2.739 0.859,1.923 1.969,4.964 2.393,8.504 3.627,3.591 6.111,7.442 7.531,9.983 4.215,-0.597 12.036,-1.08 19.709,1.723 0.041,0.016 0.082,0.033 0.121,0.053 0.485,0.24 0.751,0.785 0.631,1.324 -1.793,8.014 -6.46,14.355 -9.233,17.566 1.773,3.883 4.439,11.213 3.938,19.334"
       style="fill:#000000;fill-opacity:1;fill-rule:nonzero;stroke:none"
       transform="matrix(0.35277776,0,0,-0.35277776,84.871768,142.46979)"
       clip-path="url(#clipPath192)" />
    <path
       id="path193"
       d="m 0,0 c -0.063,-0.135 -0.104,-0.224 -0.119,-0.264 -0.128,-0.32 -0.109,-0.681 0.05,-0.988 L 0,-1.385 C 0.034,-1.449 0.072,-1.51 0.117,-1.567 0.142,-1.6 0.206,-1.674 0.303,-1.785 c 1.926,-2.194 5.263,-6.597 6.779,-12.186 -5.518,-1.741 -11.026,-1.31 -13.913,-0.877 -0.149,0.023 -0.248,0.037 -0.291,0.039 -0.218,0.02 -0.437,-0.021 -0.633,-0.119 l -0.182,-0.09 c -0.197,-0.097 -0.363,-0.247 -0.479,-0.432 -0.024,-0.036 -0.071,-0.122 -0.143,-0.254 -1.402,-2.562 -4.394,-7.206 -9.121,-10.545 -3.526,4.585 -5.013,9.905 -5.595,12.769 -0.03,0.147 -0.051,0.245 -0.062,0.286 -0.019,0.068 -0.043,0.133 -0.073,0.197 l -0.063,0.136 c -0.147,0.315 -0.425,0.548 -0.758,0.642 -0.041,0.012 -0.137,0.033 -0.283,0.065 -2.856,0.613 -8.159,2.158 -12.707,5.738 3.389,4.687 8.066,7.627 10.644,9.002 0.035,0.019 0.068,0.036 0.098,0.052 l 0.129,0.038 c 0.528,0.155 0.876,0.651 0.849,1.198 -0.002,0.043 -0.011,0.142 -0.028,0.294 -0.319,2.902 -0.528,8.423 1.431,13.865 5.521,-1.736 9.788,-5.244 11.904,-7.257 0.109,-0.103 0.18,-0.171 0.214,-0.197 0.281,-0.237 0.655,-0.33 1.014,-0.253 0.195,0.041 0.375,0.131 0.522,0.258 2.666,1.221 7.815,3.145 13.569,3.005 C 3.222,7.801 1.24,2.645 0,0 m 5.456,14.799 c -0.037,0.596 -0.51,1.072 -1.106,1.113 -6.408,0.442 -12.219,-1.586 -15.37,-2.98 -2.555,2.342 -7.356,6.065 -13.489,7.696 -0.577,0.153 -1.179,-0.145 -1.405,-0.696 -2.412,-5.864 -2.359,-11.934 -2.042,-15.389 -2.988,-1.626 -8.257,-5.053 -11.857,-10.528 -0.327,-0.499 -0.234,-1.163 0.217,-1.554 4.861,-4.191 10.718,-6.053 14.078,-6.827 0.724,-3.351 2.515,-9.294 6.689,-14.244 0.383,-0.456 1.045,-0.561 1.55,-0.235 5.42,3.477 8.878,8.582 10.571,11.578 3.41,-0.465 9.567,-0.803 15.614,1.406 0.041,0.014 0.082,0.033 0.12,0.051 0.486,0.242 0.752,0.786 0.632,1.324 C 8.243,-8.162 4.6,-3.143 2.369,-0.539 3.786,2.604 5.851,8.393 5.456,14.799"
       style="fill:#000000;fill-opacity:1;fill-rule:nonzero;stroke:none"
       transform="matrix(0.35277776,0,0,-0.35277776,130.58954,139.8629)"
       clip-path="url(#clipPath194)" />
  </g>
</svg>
