<?xml version="1.0" encoding="UTF-8" standalone="no"?>
<!-- Created with Inkscape (http://www.inkscape.org/) -->

<svg
   width="79.939911mm"
   height="161.51489mm"
   viewBox="0 0 79.939911 161.51489"
   version="1.1"
   id="svg1"
   xmlns="http://www.w3.org/2000/svg"
   xmlns:svg="http://www.w3.org/2000/svg">
  <defs
     id="defs1">
    <filter
       style="color-interpolation-filters:sRGB"
       id="filter2"
       x="-0.030071409"
       y="-0.014294223"
       width="1.0816224"
       height="1.0387986">
      <feFlood
         result="flood"
         in="SourceGraphic"
         flood-opacity="0.498039"
         flood-color="rgb(0,0,0)"
         id="feFlood1" />
      <feGaussianBlur
         result="blur"
         in="SourceGraphic"
         stdDeviation="3.500000"
         id="feGaussianBlur1" />
      <feOffset
         result="offset"
         in="blur"
         dx="6.000000"
         dy="6.000000"
         id="feOffset1" />
      <feComposite
         result="comp1"
         operator="in"
         in="flood"
         in2="offset"
         id="feComposite1" />
      <feComposite
         result="comp2"
         operator="over"
         in="SourceGraphic"
         in2="comp1"
         id="feComposite2" />
    </filter>
  </defs>
  <g
     id="layer1"
     transform="translate(-65.246248,-68.42124)">
    <g
       id="g1306"
       transform="matrix(0.26458333,0,0,0.26458333,62.620896,-34.82446)"
       style="filter:url(#filter2)">
      <path
         class="uuid-fa854ba6-01a3-466e-8ba2-f49efd3c3140"
         d="m 297.64,602.17 c -0.72,-53.97 -15.43,-104.71 -41.41,-142.88 -12.84,-18.86 -27.77,-33.7 -44.39,-44.12 -17.51,-10.98 -36.11,-16.55 -55.28,-16.55 -0.44,0 -0.87,0 -1.31,0 -19.31,0.26 -37.92,6.15 -55.3,17.5 -16.48,10.77 -31.16,25.98 -43.62,45.21 -25.21,38.93 -38.7,90.26 -37.98,144.55 1.36,101.87 52.63,186.68 120.39,201.32 l -1.37,164.53 c -0.03,3.93 1.51,7.64 4.34,10.46 2.66,2.64 6.33,4.08 10.35,4.08 h 0.26 c 0,0 21.81,-0.29 21.81,-0.29 4.12,-0.05 7.85,-1.6 10.48,-4.36 2.8,-2.94 4.2,-6.56 4.07,-10.48 L 182.9,806.54 C 250.12,789.95 298.99,703.82 297.63,602.13 Z"
         id="path1302"
         style="fill:#ffffff;stroke-width:0px" />
      <g
         id="g1305">
        <path
           class="uuid-f66889aa-c4fe-483f-91cf-3b1be3aa0ada"
           d="m 155.36,406.63 c -72.7,0.97 -130.46,90.13 -129,199.16 1.46,109.03 61.58,196.62 134.28,195.65 72.7,-0.97 130.46,-90.14 129,-199.16 C 288.18,493.25 228.06,405.67 155.36,406.64 Z"
           id="path1303"
           style="fill:#f7931e;stroke-width:0px" />
        <path
           class="uuid-cacbb632-8200-4389-8883-8edc2660a813"
           d="M 156.02,435.2 C 90.59,436.07 38.61,516.32 39.92,614.44 41.23,712.57 95.34,791.4 160.77,790.53 226.2,789.65 278.18,709.4 276.87,611.28 275.56,513.15 221.45,434.33 156.02,435.2 Z"
           id="path1304"
           style="fill:#fbb03b;stroke-width:0px" />
        <path
           class="uuid-508f1a5d-e2db-4fcb-acaa-e36b6f0d8693"
           d="m 255.86,615.98 c -3.61,-0.92 -7.28,1.27 -8.2,4.88 -16.58,65.47 -55.01,85.36 -76.07,91.39 l -3.38,-96.32 c 35.57,-8.11 58.95,-59.16 60.01,-61.51 1.52,-3.4 0,-7.14 -3.39,-8.67 -3.4,-1.53 -7.39,-0.38 -8.92,3.02 -0.22,0.49 -20.51,44.8 -48.18,53.36 l -4.66,-103.89 c -0.13,-3.67 -3.17,-6.56 -6.83,-6.51 -3.67,0.05 -6.62,3.02 -6.66,6.69 l -1.11,103.45 c -15.15,-5.18 -30.2,-22.28 -44.89,-51.56 -1.67,-3.33 -5.72,-4.43 -9.05,-2.76 -3.33,1.67 -4.68,5.36 -3.01,8.69 17.5,34.9 36.58,54.69 56.83,59.58 l -0.83,98.86 c -20.57,-4.47 -61.67,-21.93 -80.87,-90.04 -1.01,-3.59 -4.74,-5.68 -8.32,-4.66 -3.59,1.01 -5.67,4.71 -4.66,8.3 21.56,76.48 70.65,95.25 93.74,99.87 l -2.04,243.68 c -0.02,1.81 0.7,3.45 1.99,4.73 1.29,1.27 3.03,1.78 4.84,1.75 l 21.83,-0.29 c 1.81,-0.02 3.55,-0.57 4.8,-1.88 1.25,-1.31 1.92,-2.86 1.86,-4.67 l -8.62,-245.49 c 23.78,-6.06 69.81,-27.3 88.67,-101.78 0.92,-3.62 -1.27,-7.28 -4.88,-8.2 z"
           id="path1305"
           style="fill:#754c24;stroke-width:0px" />
      </g>
    </g>
  </g>
</svg>
