<svg xmlns="http://www.w3.org/2000/svg" viewBox="0 0 145 145"><defs><style>.cls-1{fill:#f6416c;}.cls-2{fill:#ffde7d;}</style></defs><g id="Layer_2" data-name="Layer 2"><g id="Logo_01" data-name="Logo 01"><g id="Flower"><g id="Petals"><path class="cls-1" d="M104.75,85.86c1.32.09,2.65.16,4,.16A55.16,55.16,0,0,0,145,72.5,55.16,55.16,0,0,0,108.75,59c-1.35,0-2.68.07-4,.16,1-.87,2-1.76,2.94-2.72a55.18,55.18,0,0,0,16.08-35.19A55.18,55.18,0,0,0,88.58,37.31c-1,.95-1.85,1.94-2.72,2.94.09-1.32.16-2.65.16-4A55.16,55.16,0,0,0,72.5,0,55.16,55.16,0,0,0,59,36.25c0,1.35.07,2.68.16,4-.87-1-1.76-2-2.72-2.94A55.18,55.18,0,0,0,21.23,21.23,55.18,55.18,0,0,0,37.31,56.42c.95,1,1.94,1.85,2.94,2.72-1.32-.09-2.65-.16-4-.16A55.16,55.16,0,0,0,0,72.5,55.16,55.16,0,0,0,36.25,86c1.35,0,2.68-.07,4-.16-1,.87-2,1.76-2.94,2.72a55.18,55.18,0,0,0-16.08,35.19,55.18,55.18,0,0,0,35.19-16.08c1-1,1.85-1.94,2.72-2.94-.09,1.32-.16,2.65-.16,4A55.16,55.16,0,0,0,72.5,145,55.16,55.16,0,0,0,86,108.75c0-1.35-.07-2.68-.16-4,.87,1,1.76,2,2.72,2.94a55.18,55.18,0,0,0,35.19,16.08,55.18,55.18,0,0,0-16.08-35.19C106.74,87.62,105.75,86.73,104.75,85.86Z"/></g><circle id="Center" class="cls-2" cx="72.5" cy="72.5" r="23.31"/></g></g></g></svg>