<?xml version="1.0" encoding="UTF-8" standalone="no"?>
<!-- Created with Inkscape (http://www.inkscape.org/) -->

<svg
   width="37.523136mm"
   height="35.562649mm"
   viewBox="0 0 37.523136 35.562649"
   version="1.1"
   id="svg1"
   xmlns="http://www.w3.org/2000/svg"
   xmlns:svg="http://www.w3.org/2000/svg">
  <defs
     id="defs1">
    <filter
       style="color-interpolation-filters:sRGB"
       id="filter2"
       x="-0.07057653"
       y="-0.075262073"
       width="1.1915649"
       height="1.2042828">
      <feFlood
         result="flood"
         in="SourceGraphic"
         flood-opacity="0.498039"
         flood-color="rgb(0,0,0)"
         id="feFlood1" />
      <feGaussianBlur
         result="blur"
         in="SourceGraphic"
         stdDeviation="3.500000"
         id="feGaussianBlur1" />
      <feOffset
         result="offset"
         in="blur"
         dx="6.000000"
         dy="6.000000"
         id="feOffset1" />
      <feComposite
         result="comp1"
         operator="in"
         in="flood"
         in2="offset"
         id="feComposite1" />
      <feComposite
         result="comp2"
         operator="over"
         in="SourceGraphic"
         in2="comp1"
         id="feComposite2" />
    </filter>
  </defs>
  <g
     id="layer1"
     transform="translate(-86.412912,-131.39209)">
    <g
       id="g1392"
       transform="matrix(0.26458333,0,0,0.26458333,-41.892543,3.6644833)"
       style="filter:url(#filter2)">
      <path
         class="uuid-fa854ba6-01a3-466e-8ba2-f49efd3c3140"
         d="m 611.26,507.11 c -0.17,-0.29 -0.38,-0.68 -0.61,-1.11 -2.35,-4.37 -5.27,-9.8 -11.32,-9.8 -1.22,0 -2.41,0.25 -3.53,0.75 -3.07,1.36 -7.55,4.09 -13.37,8.12 -13.72,-11.98 -28.27,-13.92 -36.23,-13.92 -12.16,0 -22.29,4.42 -25.81,11.27 -0.83,1.61 -1.28,3.32 -1.36,5.02 -0.5,0.34 -0.99,0.68 -1.48,1.03 -23.37,16.76 -30.23,43.53 -18.81,73.46 0.5,1.32 1.34,2.48 2.44,3.36 14.5,11.75 28.28,17.47 42.12,17.47 11.3,0 22.55,-3.96 33.44,-11.77 1.23,-0.88 2.43,-1.8 3.59,-2.77 h 0.21 c 0.57,0 1.15,-0.03 1.74,-0.11 0.13,-0.02 0.24,-0.03 0.35,-0.05 0.6,-0.09 1.21,-0.22 1.82,-0.38 0.1,-0.03 0.21,-0.06 0.31,-0.09 0.59,-0.17 1.17,-0.38 1.72,-0.61 0.09,-0.04 0.18,-0.08 0.27,-0.12 0.54,-0.23 1.1,-0.51 1.63,-0.8 0.05,-0.03 0.11,-0.06 0.17,-0.1 1.07,-0.6 2.13,-1.33 3.15,-2.16 0.01,0 0.02,-0.02 0.04,-0.03 0.5,-0.41 1,-0.85 1.49,-1.32 0,0 0.02,-0.02 0.02,-0.02 6.49,-6.19 10.83,-16.22 11.63,-26.85 0.57,-7.55 -0.38,-18.58 -7.08,-31.05 5.65,-3.06 9.65,-5.43 11.89,-7.44 2.83,-2.54 3.49,-6.72 1.57,-10 z"
         id="path1385"
         style="fill:#ffffff;stroke-width:0px" />
      <g
         id="g1391">
        <path
           class="uuid-8f114043-b12a-4957-8d57-19662db239ae"
           d="m 604.36,511.15 c -4.47,4 -24.47,13.32 -29.39,16.76 -6.18,4.32 -15.43,14.33 -18.36,17.56 -1.79,1.96 -4.82,1.61 -8.46,-0.03 l 12.92,-13.62 c 3.8,-3.97 28.99,-23.56 38,-27.56 1.55,-0.69 4.15,4.93 5.3,6.9 z"
           id="path1386"
           style="fill:#542906;stroke-width:0px" />
        <path
           class="uuid-9148dd04-264d-49d9-97a6-54842c7a9269"
           d="m 572.08,584.49 c -22.6,16.21 -43.92,12.36 -65.85,-5.41 -8.9,-23.34 -6.6,-47.91 16,-64.11 22.6,-16.21 49.8,-11.41 63.57,7.79 13.77,19.2 8.89,45.53 -13.72,61.74 z"
           id="path1387"
           style="fill:#a67c52;stroke-width:0px" />
        <path
           class="uuid-c25cbda3-3fd8-414b-bd8a-8edc133367dc"
           d="m 585.36,521.96 c -1.07,-1.49 -2.24,-2.89 -3.47,-4.2 10.69,16.87 7.55,39.67 -10.38,56.51 -19.8,18.6 -40.89,18.13 -64.27,4.49 0,0.19 -0.03,0.39 -0.1,0.57 21.39,16.71 42.25,20.02 64.39,4.16 22.61,-16.19 27.54,-42.43 13.83,-61.53 z"
           id="path1388"
           style="fill:#8c6239;stroke-width:0px" />
        <path
           class="uuid-c25cbda3-3fd8-414b-bd8a-8edc133367dc"
           d="m 587.54,560.08 c -2.16,-6.07 -6.05,-13.41 -9.77,-18.87 -6.27,-9.2 -12.6,-17.02 -22.83,-21.63 -7.93,-3.58 -26,-8.23 -26,-8.23 8.35,6.79 53.75,48.42 43.09,70.51 5.47,-2.62 10.56,-6.07 13.84,-11.66 2.12,-3.6 3.06,-6.18 1.66,-10.12 z"
           id="path1389"
           style="fill:#8c6239;stroke-width:0px" />
        <path
           class="uuid-50a3075c-11d0-458b-a95e-1b6335a4071a"
           d="m 578.56,579.84 c -3.28,-25.4 -24.91,-55.56 -50.66,-69.26 -7.42,-10.35 33.47,-23.43 57.92,9.96 24.45,33.39 2.73,63.45 -7.26,59.3 z"
           id="path1390"
           style="fill:#603813;stroke-width:0px" />
        <path
           class="uuid-8f114043-b12a-4957-8d57-19662db239ae"
           d="m 576.37,569.74 c 1.01,3.42 1.76,6.8 2.19,10.1 9.28,3.85 28.62,-21.77 11.81,-52.17 4.86,20.11 -5.53,38.1 -14,42.07 z"
           id="path1391"
           style="fill:#542906;stroke-width:0px" />
      </g>
    </g>
  </g>
</svg>
