<?xml version="1.0" encoding="UTF-8" standalone="no"?>
<!-- Created with Inkscape (http://www.inkscape.org/) -->

<svg
   width="51.254478mm"
   height="72.225319mm"
   viewBox="0 0 51.254478 72.225319"
   version="1.1"
   id="svg1"
   xmlns="http://www.w3.org/2000/svg"
   xmlns:svg="http://www.w3.org/2000/svg">
  <defs
     id="defs1">
    <clipPath
       clipPathUnits="userSpaceOnUse"
       id="clipPath272">
      <path
         d="M 0,1000 H 1000 V 0 H 0 Z"
         transform="matrix(1.3333333,0,0,-1.3333333,0,1333.3333)"
         id="path272" />
    </clipPath>
    <clipPath
       clipPathUnits="userSpaceOnUse"
       id="clipPath270">
      <path
         d="M 700.02,964.349 H 845.309 V 772.015 H 700.02 Z"
         transform="translate(-743.35642,-962.18312)"
         id="path270" />
    </clipPath>
    <clipPath
       clipPathUnits="userSpaceOnUse"
       id="clipPath274">
      <path
         d="M 0,1000 H 1000 V 0 H 0 Z"
         transform="translate(-742.37302,-974.39402)"
         id="path274" />
    </clipPath>
    <clipPath
       clipPathUnits="userSpaceOnUse"
       id="clipPath276">
      <path
         d="M 0,1000 H 1000 V 0 H 0 Z"
         transform="translate(-705.37702,-790.85742)"
         id="path276" />
    </clipPath>
    <clipPath
       clipPathUnits="userSpaceOnUse"
       id="clipPath278">
      <path
         d="M 0,1000 H 1000 V 0 H 0 Z"
         transform="translate(-825.61825,-851.46292)"
         id="path278" />
    </clipPath>
    <clipPath
       clipPathUnits="userSpaceOnUse"
       id="clipPath280">
      <path
         d="M 0,1000 H 1000 V 0 H 0 Z"
         transform="translate(-730.40232,-967.65722)"
         id="path280" />
    </clipPath>
    <clipPath
       clipPathUnits="userSpaceOnUse"
       id="clipPath282">
      <path
         d="M 0,1000 H 1000 V 0 H 0 Z"
         transform="translate(-745.14842,-946.63482)"
         id="path282" />
    </clipPath>
    <clipPath
       clipPathUnits="userSpaceOnUse"
       id="clipPath284">
      <path
         d="M 0,1000 H 1000 V 0 H 0 Z"
         transform="translate(-736.11432,-967.29392)"
         id="path284" />
    </clipPath>
    <clipPath
       clipPathUnits="userSpaceOnUse"
       id="clipPath286">
      <path
         d="M 0,1000 H 1000 V 0 H 0 Z"
         transform="translate(-738.61722,-867.00492)"
         id="path286" />
    </clipPath>
    <clipPath
       clipPathUnits="userSpaceOnUse"
       id="clipPath288">
      <path
         d="M 0,1000 H 1000 V 0 H 0 Z"
         transform="translate(-798.99902,-907.76223)"
         id="path288" />
    </clipPath>
  </defs>
  <g
     id="layer1"
     transform="translate(-79.375002,-112.18334)">
    <g
       opacity="0.5"
       id="g271"
       clip-path="url(#clipPath272)"
       transform="matrix(0.26458333,0,0,0.26458333,-167.57674,103.98065)">
      <path
         d="m 0,0 c -1.097,0.637 -2.258,1.14 -3.454,1.497 -6.759,2.006 -12.205,-1.077 -13.231,-1.71 -1.969,-1.224 -3.283,-3.173 -3.599,-5.356 -8.135,-56.15 -15.813,-113.563 -22.996,-172.231 -0.283,-2.3 0.521,-4.704 2.209,-6.596 1.802,-2.028 3.98,-3.567 6.467,-4.56 6.529,-2.61 12.398,-0.268 13.504,0.234 2.384,1.069 3.968,3.262 4.244,5.847 2.371,22.451 4.819,44.718 7.341,66.799 32.395,-9.011 56.241,-12.064 70.748,-13.089 17.426,-1.214 26.188,0.018 27.127,0.14 2.315,0.34 4.373,1.64 5.663,3.564 1.289,1.922 1.71,4.318 1.161,6.563 -5.564,22.634 -16.911,41.904 -22.538,50.563 15.888,18.198 27.927,37.892 28.056,38.086 1.305,2.129 1.604,4.651 0.825,6.907 -0.784,2.258 -2.54,3.96 -4.822,4.683 -3.577,1.131 -7.39,2.203 -11.333,3.193 -0.001,10e-4 -0.002,10e-4 -0.002,10e-4 v -10e-4 C 54.031,-7.721 19.148,-5.737 3.589,-4.911 3.163,-2.896 1.885,-1.099 0,0"
         style="fill:#000000;fill-opacity:1;fill-rule:nonzero;stroke:none"
         transform="matrix(1.3333333,0,0,-1.3333333,991.14187,50.422533)"
         clip-path="url(#clipPath270)"
         id="path271" />
    </g>
    <path
       id="path273"
       d="m 0,0 c -1.083,0.681 -2.229,1.222 -3.41,1.608 -6.67,2.182 -11.996,-1.049 -12.996,-1.72 -1.922,-1.287 -3.19,-3.343 -3.475,-5.64 l -22.076,-177.166 c -0.289,-2.315 0.447,-4.633 2.019,-6.356 1.68,-1.849 3.719,-3.178 6.051,-3.941 6.127,-2.004 11.695,0.767 12.748,1.343 2.266,1.236 3.797,3.507 4.097,6.074 l 7.772,66.839 c 30.971,-7.685 53.672,-10.577 67.528,-11.64 16.631,-1.273 25.042,-0.355 25.946,-0.246 2.224,0.274 4.234,1.468 5.526,3.279 1.295,1.81 1.775,4.098 1.317,6.276 -4.622,21.94 -15.169,41.289 -20.475,50.06 15.748,17.376 27.942,35.863 28.071,36.058 1.318,2.007 1.662,4.474 0.941,6.766 -0.724,2.296 -2.416,4.12 -4.644,5.013 -3.491,1.395 -7.216,2.742 -11.075,4.005 l -0.002,0.001 C 53.19,-9.35 18.846,-6.142 3.563,-5.167 3.133,-3.065 1.863,-1.173 0,0"
       style="fill:#ffffff;fill-opacity:1;fill-rule:nonzero;stroke:none"
       transform="matrix(0.35277776,0,0,-0.35277776,94.315955,113.01388)"
       clip-path="url(#clipPath274)" />
    <path
       id="path275"
       d="m 0,0 c -0.108,-0.861 0.166,-1.726 0.752,-2.368 1.098,-1.208 2.415,-2.068 3.912,-2.558 4.258,-1.393 8.344,0.732 8.796,0.978 0.847,0.462 1.416,1.306 1.528,2.265 l 8.432,72.51 c 33.369,-8.629 57.603,-11.783 72.217,-12.904 16.512,-1.264 24.629,-0.308 24.965,-0.267 0.827,0.101 1.572,0.544 2.056,1.222 0.484,0.677 0.662,1.525 0.491,2.34 -5.125,24.33 -17.68,45.222 -21.839,51.675 16.657,17.779 30.011,38.007 30.149,38.216 0.49,0.746 0.619,1.673 0.351,2.524 -0.268,0.851 -0.904,1.537 -1.732,1.868 -3.396,1.357 -7.021,2.668 -10.773,3.896 -34.022,11.132 -72.623,13.719 -83.928,14.255 l 0.326,2.795 c 0.131,1.136 -0.401,2.248 -1.37,2.858 -0.733,0.461 -1.507,0.827 -2.302,1.087 -4.556,1.491 -8.252,-0.849 -8.658,-1.121 -0.717,-0.479 -1.19,-1.248 -1.297,-2.104 z"
       style="fill:#000000;fill-opacity:1;fill-rule:nonzero;stroke:none"
       transform="matrix(0.35277776,0,0,-0.35277776,81.264588,177.76151)"
       clip-path="url(#clipPath276)" />
    <path
       id="path277"
       d="m 0,0 c -6.001,28.487 -22.712,52.616 -22.712,52.616 17.42,18.182 31.445,39.52 31.445,39.52 -41.61,16.626 -96.92,18.068 -96.92,18.068 L -99.378,13.961 C -31.88,-3.904 0,0 0,0"
       style="fill:#ff4800;fill-opacity:1;fill-rule:nonzero;stroke:none"
       transform="matrix(0.35277776,0,0,-0.35277776,123.68302,156.38124)"
       clip-path="url(#clipPath278)" />
    <path
       id="path279"
       d="M 0,0 C 0,0 3.736,2.5 7.725,-0.01 L -12.99,-178.139 c 0,0 -5.479,-2.992 -9.086,0.972 z"
       style="fill:#e6e6e6;fill-opacity:1;fill-rule:nonzero;stroke:none"
       transform="matrix(0.35277776,0,0,-0.35277776,90.092956,115.39047)"
       clip-path="url(#clipPath280)" />
    <path
       id="path281"
       d="m 0,0 c 0,0 49.621,-3.178 68.205,-9.377 0,0 -15.472,-21.483 -27.178,-34.488 0,0 8.063,-11.526 14.779,-37.812 0,0 -45.259,5.371 -64.197,15.044 0,0 8.936,67.541 8.391,66.633"
       style="fill:#ff864e;fill-opacity:1;fill-rule:nonzero;stroke:none"
       transform="matrix(0.35277776,0,0,-0.35277776,95.295053,122.80671)"
       clip-path="url(#clipPath282)" />
    <path
       id="path283"
       d="m 0,0 c 0.249,-0.081 0.497,-0.18 0.741,-0.299 l -20.546,-176.676 c -0.958,-0.394 -3.044,-1.064 -4.973,-0.433 -0.647,0.212 -1.237,0.557 -1.758,1.032 L -4.606,-0.379 C -3.808,0.01 -2.024,0.662 0,0 m 96.427,-24.259 c -3.766,-5.549 -20.002,-28.862 -37.908,-45.447 -0.483,-0.447 -0.51,-1.198 -0.065,-1.68 0.143,-0.153 0.317,-0.262 0.502,-0.322 0.396,-0.13 0.85,-0.046 1.178,0.257 2.193,2.031 4.361,4.163 6.484,6.349 3.324,-5.115 16.117,-25.845 21.438,-49.662 -6.598,-0.465 -38.268,-1.558 -96.631,13.782 L 2.37,-6.854 c 7.844,-0.313 56.487,-2.801 94.057,-17.405 M -28.968,-176.658 c -0.043,-0.343 0.068,-0.69 0.301,-0.946 0.889,-0.977 1.947,-1.672 3.148,-2.065 3.606,-1.179 7.235,0.766 7.387,0.85 0.339,0.184 0.567,0.523 0.612,0.905 l 8.668,74.548 c 66.044,-17.319 98.181,-13.684 98.501,-13.645 0.329,0.04 0.629,0.218 0.823,0.489 0.193,0.27 0.263,0.609 0.195,0.936 -5.375,25.512 -19.437,47.803 -22.36,52.244 17.018,17.944 30.766,38.753 30.924,38.994 0.197,0.299 0.248,0.67 0.141,1.01 -0.107,0.341 -0.361,0.614 -0.693,0.748 C 60.859,-7.481 11.238,-4.838 2.647,-4.486 L 3.194,0.216 C 3.247,0.671 3.034,1.116 2.646,1.358 2.036,1.743 1.396,2.046 0.739,2.261 -3.079,3.51 -6.239,1.44 -6.372,1.352 -6.659,1.161 -6.849,0.854 -6.892,0.511 Z"
       style="fill:#000000;fill-opacity:1;fill-rule:nonzero;stroke:none"
       transform="matrix(0.35277776,0,0,-0.35277776,92.108023,115.51864)"
       clip-path="url(#clipPath284)" />
    <path
       id="path285"
       d="m 0,0 c 0.014,-0.004 0.027,-0.008 0.041,-0.012 0.404,-0.117 40.84,-11.66 73.809,-11.105 0.656,0.012 1.179,0.553 1.168,1.21 -0.012,0.656 -0.554,1.179 -1.209,1.168 C 41.202,-9.29 1.102,2.156 0.699,2.272 0.07,2.454 -0.59,2.09 -0.771,1.459 -0.949,0.842 -0.606,0.198 0,0"
       style="fill:#000000;fill-opacity:1;fill-rule:nonzero;stroke:none"
       transform="matrix(0.35277776,0,0,-0.35277776,92.99099,150.89837)"
       clip-path="url(#clipPath286)" />
    <path
       id="path287"
       d="m 0,0 c 0.144,-0.158 0.321,-0.271 0.511,-0.333 0.392,-0.128 0.84,-0.048 1.168,0.248 16.355,14.766 25.927,32.04 26.021,32.212 0.317,0.576 0.106,1.299 -0.47,1.614 -0.574,0.315 -1.297,0.106 -1.614,-0.47 C 25.522,33.102 16.132,16.167 0.087,1.68 -0.401,1.239 -0.439,0.487 0,0"
       style="fill:#000000;fill-opacity:1;fill-rule:nonzero;stroke:none"
       transform="matrix(0.35277776,0,0,-0.35277776,114.29235,136.52009)"
       clip-path="url(#clipPath288)" />
  </g>
</svg>
