<?xml version="1.0" encoding="UTF-8" standalone="no"?>
<!-- Created with Inkscape (http://www.inkscape.org/) -->

<svg
   width="78.058693mm"
   height="59.184334mm"
   viewBox="0 0 78.058693 59.184334"
   version="1.1"
   id="svg1"
   xmlns="http://www.w3.org/2000/svg"
   xmlns:svg="http://www.w3.org/2000/svg">
  <defs
     id="defs1">
    <clipPath
       clipPathUnits="userSpaceOnUse"
       id="clipPath360">
      <path
         d="M 0,1000 H 1000 V 0 H 0 Z"
         transform="matrix(1.3333333,0,0,-1.3333333,0,1333.3333)"
         id="path360" />
    </clipPath>
    <clipPath
       clipPathUnits="userSpaceOnUse"
       id="clipPath358">
      <path
         d="M 453.523,930.42 H 674.792 V 773.311 H 453.523 Z"
         transform="translate(-462.13181,-927.10742)"
         id="path358" />
    </clipPath>
    <clipPath
       clipPathUnits="userSpaceOnUse"
       id="clipPath362">
      <path
         d="M 0,1000 H 1000 V 0 H 0 Z"
         transform="translate(-462.81101,-916.37403)"
         id="path362" />
    </clipPath>
    <clipPath
       clipPathUnits="userSpaceOnUse"
       id="clipPath364">
      <path
         d="M 0,1000 H 1000 V 0 H 0 Z"
         transform="translate(-579.75202,-886.07372)"
         id="path364" />
    </clipPath>
    <clipPath
       clipPathUnits="userSpaceOnUse"
       id="clipPath366">
      <path
         d="M 0,1000 H 1000 V 0 H 0 Z"
         transform="translate(-570.01762,-798.51902)"
         id="path366" />
    </clipPath>
    <clipPath
       clipPathUnits="userSpaceOnUse"
       id="clipPath368">
      <path
         d="M 0,1000 H 1000 V 0 H 0 Z"
         transform="translate(-564.14551,-833.62352)"
         id="path368" />
    </clipPath>
    <clipPath
       clipPathUnits="userSpaceOnUse"
       id="clipPath370">
      <path
         d="M 0,1000 H 1000 V 0 H 0 Z"
         transform="translate(-564.14551,-833.62352)"
         id="path370" />
    </clipPath>
    <clipPath
       clipPathUnits="userSpaceOnUse"
       id="clipPath372">
      <path
         d="M 0,1000 H 1000 V 0 H 0 Z"
         transform="translate(-497.04351,-821.27052)"
         id="path372" />
    </clipPath>
    <clipPath
       clipPathUnits="userSpaceOnUse"
       id="clipPath374">
      <path
         d="M 0,1000 H 1000 V 0 H 0 Z"
         transform="translate(-564.14551,-833.62352)"
         id="path374" />
    </clipPath>
    <clipPath
       clipPathUnits="userSpaceOnUse"
       id="clipPath376">
      <path
         d="M 0,1000 H 1000 V 0 H 0 Z"
         transform="translate(-497.04351,-821.27052)"
         id="path376" />
    </clipPath>
    <clipPath
       clipPathUnits="userSpaceOnUse"
       id="clipPath378">
      <path
         d="M 0,1000 H 1000 V 0 H 0 Z"
         transform="translate(-612.53132,-880.86332)"
         id="path378" />
    </clipPath>
    <clipPath
       clipPathUnits="userSpaceOnUse"
       id="clipPath380">
      <path
         d="M 0,1000 H 1000 V 0 H 0 Z"
         transform="translate(-574.85351,-796.50292)"
         id="path380" />
    </clipPath>
    <clipPath
       clipPathUnits="userSpaceOnUse"
       id="clipPath382">
      <path
         d="M 0,1000 H 1000 V 0 H 0 Z"
         transform="translate(-548.62301,-828.83402)"
         id="path382" />
    </clipPath>
    <clipPath
       clipPathUnits="userSpaceOnUse"
       id="clipPath384">
      <path
         d="M 0,1000 H 1000 V 0 H 0 Z"
         transform="translate(-522.71291,-865.55662)"
         id="path384" />
    </clipPath>
  </defs>
  <g
     id="layer1"
     transform="translate(-65.881258,-118.79792)">
    <g
       id="g1"
       transform="rotate(180,104.9106,148.39009)">
      <g
         opacity="0.5"
         id="g359"
         clip-path="url(#clipPath360)"
         transform="matrix(0.26458333,0,0,0.26458333,-94.11167,94.251632)">
        <path
           d="m 0,0 c -1.254,-0.975 -2.209,-2.29 -2.752,-3.794 -0.644,-1.787 -6.208,-18.089 -5.839,-39.787 0.222,-13.267 2.661,-25.669 7.236,-36.92 5.754,-14.16 14.879,-26.447 27.092,-36.739 1.639,-1.382 3.349,-2.763 5.077,-4.101 0.002,-0.002 0.004,-0.003 0.006,-0.004 25.982,-20.078 57.016,-31.352 87.53,-32.381 15.839,-0.514 30.994,1.777 45.083,6.912 14.847,5.415 28.159,13.882 39.603,25.376 1.861,1.747 10.094,10.142 9.604,22.885 -0.346,8.911 -4.81,17.393 -13.312,25.092 -1.778,1.609 -3.755,3.197 -5.903,4.742 -0.374,6.206 -2.54,16.889 -12.129,25.49 -4.785,4.286 -10.83,7.45 -17.988,9.373 -1.118,1.187 -2.594,2.663 -4.385,4.24 -4.057,3.572 -10.444,8.236 -17.803,10.13 -9.169,2.362 -17.995,-0.129 -24.822,-6.932 -5.589,-5.565 -16.335,-12.244 -29.773,-14.525 -10.599,-1.786 -26.618,-1.275 -42.908,11.706 -7.906,6.308 -15.298,15.056 -21.988,26.082 -0.278,0.453 -0.585,0.862 -0.925,1.237 -0.214,0.238 -0.862,0.927 -1.881,1.726 C 12.97,4.412 5.749,4.484 0,0"
           style="fill:#000000;fill-opacity:1;fill-rule:nonzero;stroke:none"
           transform="matrix(1.3333333,0,0,-1.3333333,616.17573,97.190133)"
           clip-path="url(#clipPath358)"
           id="path359" />
      </g>
      <path
         id="path361"
         d="m 0,0 c -1.24,-0.894 -2.197,-2.129 -2.757,-3.565 -0.664,-1.715 -6.441,-17.254 -6.524,-38.594 -0.053,-13.049 2.086,-25.44 6.36,-36.829 5.376,-14.329 14.122,-27.02 25.995,-37.72 1.594,-1.438 3.257,-2.873 4.941,-4.265 l 0.006,-0.005 c 25.314,-20.912 56.016,-32.54 86.451,-32.74 15.796,-0.104 30.969,2.863 45.096,8.818 14.889,6.278 28.262,15.744 39.753,28.139 1.87,1.886 10.134,10.966 9.629,23.63 -0.354,8.856 -4.841,16.904 -13.337,23.923 -1.776,1.468 -3.75,2.903 -5.894,4.286 -0.358,6.113 -2.501,16.461 -12.009,24.317 -4.746,3.921 -10.74,6.682 -17.835,8.22 -1.1,1.106 -2.556,2.479 -4.32,3.936 -3.999,3.303 -10.29,7.574 -17.55,9.157 -9.045,1.973 -17.779,-0.678 -24.592,-7.466 -5.576,-5.553 -16.259,-12.315 -29.519,-14.639 -10.452,-1.833 -26.213,-1.291 -41.937,11.7 -7.63,6.304 -14.69,15.017 -20.984,25.901 -0.262,0.447 -0.552,0.852 -0.875,1.226 -0.204,0.237 -0.822,0.923 -1.796,1.728 C 12.697,3.788 5.685,4.111 0,0"
         style="fill:#ffffff;fill-opacity:1;fill-rule:nonzero;stroke:none"
         transform="matrix(0.35277776,0,0,-0.35277776,69.157763,123.75303)"
         clip-path="url(#clipPath362)" />
      <path
         id="path363"
         d="m 0,0 c -6.113,-6.088 -17.778,-13.497 -32.184,-16.022 -11.489,-2.014 -28.793,-1.433 -45.986,12.771 -8.087,6.681 -15.532,15.849 -22.126,27.252 -0.095,0.162 -0.205,0.315 -0.328,0.457 -0.078,0.091 -0.501,0.568 -1.2,1.146 -3.823,3.158 -8.378,3.399 -12.187,0.645 -0.464,-0.334 -0.821,-0.797 -1.03,-1.332 -0.247,-0.64 -6.099,-15.94 -6.181,-36.795 -0.051,-12.443 1.982,-24.236 6.042,-35.053 5.092,-13.573 13.389,-25.605 24.66,-35.763 1.555,-1.402 3.163,-2.789 4.779,-4.124 0.002,-0.001 0.004,-0.003 0.006,-0.005 24.428,-20.181 54.01,-31.402 83.299,-31.595 15.116,-0.1 29.625,2.737 43.121,8.425 14.256,6.012 27.069,15.093 38.088,26.998 0.869,0.867 8.678,8.969 8.241,19.965 -0.295,7.373 -4.172,14.193 -11.526,20.268 -2.222,1.835 -4.791,3.622 -7.658,5.323 0.121,4.501 -0.688,15.383 -10.246,23.28 -4.439,3.667 -10.209,6.182 -17.166,7.482 -0.921,0.987 -2.66,2.75 -4.988,4.674 C 31.857,0.948 26.282,4.753 19.999,6.124 12.565,7.745 5.65,5.627 0,0"
         style="fill:#000000;fill-opacity:1;fill-rule:nonzero;stroke:none"
         transform="matrix(0.35277776,0,0,-0.35277776,110.41195,134.4423)"
         clip-path="url(#clipPath364)" />
      <path
         id="path365"
         d="m 0,0 c -55.557,-6.72 -107.376,45.698 -108.516,75.666 -0.083,-20.774 5.783,-47.024 29.72,-68.598 47.611,-42.908 119.33,-50.017 165.169,-0.441 0,0 22.965,22.276 -11.898,41.842 C 74.475,48.469 54.363,6.573 0,0"
         style="fill:#14b0ed;fill-opacity:1;fill-rule:nonzero;stroke:none"
         transform="matrix(0.35277776,0,0,-0.35277776,106.97787,165.32965)"
         clip-path="url(#clipPath366)" />
      <path
         id="path367"
         d="m 0,0 c 39.797,9.023 54.505,43.024 54.505,43.024 0,0 -20.299,23.758 -36.801,7.32 C 1.202,33.909 -50.398,11.232 -87.262,74.962 c 0,0 -4.33,4.996 -9.401,1.33 C -99.979,43.432 -55.936,-12.681 0,0"
         style="fill:#f21458;fill-opacity:1;fill-rule:nonzero;stroke:none"
         transform="matrix(0.35277776,0,0,-0.35277776,104.90632,152.94556)"
         clip-path="url(#clipPath368)" />
      <path
         id="path369"
         d="m 0,0 c -55.936,-12.681 -99.979,43.432 -96.663,76.292 0,0 -5.899,-15.188 -5.981,-35.731 1.14,-29.968 52.959,-82.385 108.516,-75.665 54.363,6.573 74.475,48.468 74.475,48.468 0,0 3.437,24.773 -25.842,29.66 C 54.505,43.024 39.797,9.023 0,0"
         style="fill:#ffd522;fill-opacity:1;fill-rule:nonzero;stroke:none"
         transform="matrix(0.35277776,0,0,-0.35277776,104.90632,152.94556)"
         clip-path="url(#clipPath370)" />
      <path
         id="path371"
         d="m 0,0 c 2.493,-7.63 6.138,-15.681 11.367,-23.888 0,0 66.94,-48.645 136.759,6.472 0,0 1.801,12.314 -10.269,29.101 C 127.087,-1.133 106.575,-18.689 72.974,-22.751 45.968,-26.018 19.848,-15.31 0,0"
         style="fill:#55d5ff;fill-opacity:1;fill-rule:nonzero;stroke:none"
         transform="matrix(0.35277776,0,0,-0.35277776,81.23423,157.30343)"
         clip-path="url(#clipPath372)" />
      <path
         id="path373"
         d="m 0,0 c 20.223,4.584 33.964,15.619 42.591,25.364 -7,4.693 -15.264,9.433 -25.022,14.104 0,0 -40.509,-36.69 -86.094,2.513 0,0 -2.727,-7.581 -3.308,-19.677 C -54.189,5.066 -28.657,-6.496 0,0"
         style="fill:#ff647a;fill-opacity:1;fill-rule:nonzero;stroke:none"
         transform="matrix(0.35277776,0,0,-0.35277776,104.90632,152.94556)"
         clip-path="url(#clipPath374)" />
      <path
         id="path375"
         d="m 0,0 c 19.848,-15.31 45.968,-26.018 72.974,-22.751 33.601,4.062 54.113,21.618 64.883,34.436 -5.719,7.952 -14.549,16.906 -28.164,26.032 C 101.066,27.972 87.325,16.937 67.102,12.353 38.445,5.857 12.914,17.419 -4.731,34.657 -5.179,25.325 -4.346,13.304 0,0"
         style="fill:#fff292;fill-opacity:1;fill-rule:nonzero;stroke:none"
         transform="matrix(0.35277776,0,0,-0.35277776,81.23423,157.30343)"
         clip-path="url(#clipPath376)" />
      <path
         id="path377"
         d="m 0,0 c 2.26,-1.866 3.92,-3.577 4.707,-4.425 -2.344,-4.803 -17.732,-33.58 -53.355,-41.655 -31.898,-7.231 -55.889,8.702 -67.353,18.838 -17.932,15.862 -29.33,38.635 -27.906,55.621 2.691,1.654 5.087,0.522 6.653,-0.773 0.317,-0.261 0.539,-0.484 0.641,-0.592 6.829,-11.778 14.571,-21.286 23.015,-28.262 18.414,-15.213 37.002,-15.827 49.355,-13.661 15.354,2.691 27.837,10.635 34.4,17.172 C -19.687,12.379 -8.008,6.616 0,0 m 30.803,-33.534 c -0.698,-1.376 -5.786,-11.002 -16.514,-21.25 -10.658,-10.183 -29.187,-23.024 -56.945,-26.381 -25.58,-3.093 -53.604,6.524 -76.887,26.391 -17.866,15.242 -29.754,34.126 -30.298,48.119 0.049,11.638 2.008,21.596 3.656,27.936 1.651,-16.506 12.592,-36.136 28.609,-50.304 11.802,-10.441 36.522,-26.841 69.453,-19.375 20.862,4.728 34.788,16.346 42.797,25.258 7.198,8.011 10.97,15.175 12.136,17.592 6.284,-1.166 11.445,-3.384 15.346,-6.607 9.613,-7.942 8.804,-19.789 8.647,-21.379 m 19.274,-24.431 c 0.39,-9.538 -6.973,-16.827 -7.046,-16.899 -0.015,-0.015 -0.03,-0.031 -0.045,-0.046 -46.366,-50.148 -115.011,-39.714 -158.857,-3.49 -1.568,1.295 -3.131,2.643 -4.643,4.008 -18.941,17.068 -26.19,37.162 -28.454,54.022 4.852,-11.922 14.807,-25.059 27.881,-36.213 23.79,-20.305 52.478,-30.116 78.716,-26.943 28.407,3.437 47.385,16.591 58.303,27.021 9.72,9.287 14.861,17.929 16.507,20.971 2.872,-1.677 5.444,-3.427 7.619,-5.225 6.397,-5.284 9.766,-11.073 10.019,-17.206 M -31.521,3.947 c -14.835,-14.777 -49.826,-28.757 -80.564,-3.362 -8.252,6.817 -15.834,16.146 -22.534,27.732 -0.038,0.065 -0.082,0.128 -0.132,0.183 -0.037,0.045 -0.386,0.442 -0.988,0.939 l -0.001,0.001 c -1.515,1.252 -5.525,3.814 -10.006,0.575 -0.006,-0.005 -0.012,-0.014 -0.018,-0.018 -0.079,-0.06 -0.152,-0.129 -0.215,-0.208 -0.01,-0.014 -0.02,-0.029 -0.029,-0.044 -0.05,-0.069 -0.093,-0.144 -0.127,-0.225 -0.007,-0.014 -0.017,-0.025 -0.021,-0.039 -0.062,-0.155 -6.05,-15.801 -6.066,-36.502 -0.015,-19.144 5.197,-46.68 30.116,-69.138 1.539,-1.387 3.127,-2.758 4.721,-4.074 24.115,-19.924 53.302,-31 82.182,-31.19 30.986,-0.205 58.618,11.855 79.915,34.877 0.585,0.575 8.155,8.235 7.741,18.655 -0.273,6.846 -3.935,13.226 -10.881,18.964 -2.384,1.971 -5.191,3.887 -8.352,5.704 0.237,3.175 0.338,14.731 -9.55,22.901 -4.324,3.572 -10.021,5.996 -16.938,7.208 -0.685,0.76 -2.54,2.736 -5.216,4.947 -7.178,5.93 -21.014,14.089 -33.037,2.114"
         style="fill:#000000;fill-opacity:1;fill-rule:nonzero;stroke:none"
         transform="matrix(0.35277776,0,0,-0.35277776,121.97576,136.28041)"
         clip-path="url(#clipPath378)" />
      <path
         id="path379"
         d="m 0,0 c -0.654,-0.057 -1.139,-0.634 -1.082,-1.288 0.058,-0.654 0.633,-1.138 1.287,-1.082 23.594,2.045 41.267,13.597 51.938,22.926 11.551,10.101 17.452,19.581 17.697,19.979 0.314,0.511 0.195,1.167 -0.255,1.539 -0.042,0.034 -0.087,0.067 -0.135,0.096 -0.557,0.345 -1.291,0.17 -1.635,-0.388 C 67.757,41.687 61.819,32.159 50.517,22.292 40.121,13.218 22.92,1.986 0,0"
         style="fill:#000000;fill-opacity:1;fill-rule:nonzero;stroke:none"
         transform="matrix(0.35277776,0,0,-0.35277776,108.68387,166.04089)"
         clip-path="url(#clipPath380)" />
      <path
         id="path381"
         d="m 0,0 c -0.656,0.019 -1.203,-0.498 -1.222,-1.154 -0.018,-0.656 0.499,-1.203 1.154,-1.222 24.608,-0.689 42.602,10.611 53.363,20.212 11.641,10.385 17.393,20.778 17.633,21.215 0.276,0.508 0.144,1.131 -0.285,1.486 -0.059,0.048 -0.122,0.089 -0.189,0.126 C 69.879,40.98 69.156,40.768 68.84,40.191 68.784,40.088 63.049,29.724 51.714,19.612 41.273,10.297 23.826,-0.667 0,0"
         style="fill:#000000;fill-opacity:1;fill-rule:nonzero;stroke:none"
         transform="matrix(0.35277776,0,0,-0.35277776,99.430329,154.63519)"
         clip-path="url(#clipPath382)" />
      <path
         id="path383"
         d="m 0,0 c -0.631,0.184 -1.291,-0.176 -1.477,-0.804 -0.184,-0.631 0.174,-1.293 0.805,-1.477 20.537,-6.05 36.711,-0.986 46.662,4.327 10.779,5.757 16.627,12.855 16.87,13.156 0.413,0.505 0.339,1.249 -0.165,1.665 -0.002,0.002 -0.004,0.003 -0.006,0.005 -0.509,0.415 -1.256,0.339 -1.671,-0.17 C 60.96,16.632 55.171,9.623 44.783,4.098 35.24,-0.978 19.723,-5.81 0,0"
         style="fill:#000000;fill-opacity:1;fill-rule:nonzero;stroke:none"
         transform="matrix(0.35277776,0,0,-0.35277776,90.289822,141.68028)"
         clip-path="url(#clipPath384)" />
    </g>
  </g>
</svg>
