<?xml version="1.0" encoding="UTF-8" standalone="no"?>
<!-- Created with Inkscape (http://www.inkscape.org/) -->

<svg
   version="1.1"
   id="svg1"
   width="590.17285"
   height="577.98303"
   viewBox="0 0 590.17285 577.98302"
   xmlns="http://www.w3.org/2000/svg"
   xmlns:svg="http://www.w3.org/2000/svg">
  <defs
     id="defs1">
    <clipPath
       clipPathUnits="userSpaceOnUse"
       id="clipPath150">
      <path
         d="M 0,2000 H 2864.258 V 0 H 0 Z"
         transform="translate(-1902.21,-1700.709)"
         id="path150" />
    </clipPath>
    <clipPath
       clipPathUnits="userSpaceOnUse"
       id="clipPath152">
      <path
         d="M 0,2000 H 2864.258 V 0 H 0 Z"
         transform="translate(-1827.0195,-1617.6538)"
         id="path152" />
    </clipPath>
    <clipPath
       clipPathUnits="userSpaceOnUse"
       id="clipPath154">
      <path
         d="M 0,2000 H 2864.258 V 0 H 0 Z"
         transform="translate(-1919.7109,-1824.0332)"
         id="path154" />
    </clipPath>
    <clipPath
       clipPathUnits="userSpaceOnUse"
       id="clipPath156">
      <path
         d="M 0,2000 H 2864.258 V 0 H 0 Z"
         transform="translate(-1938.04,-1822.8789)"
         id="path156" />
    </clipPath>
    <clipPath
       clipPathUnits="userSpaceOnUse"
       id="clipPath158">
      <path
         d="M 0,2000 H 2864.258 V 0 H 0 Z"
         transform="translate(-1853.8692,-1652.9458)"
         id="path158" />
    </clipPath>
    <clipPath
       clipPathUnits="userSpaceOnUse"
       id="clipPath160">
      <path
         d="M 0,2000 H 2864.258 V 0 H 0 Z"
         transform="translate(-1744.1661,-1796.9663)"
         id="path160" />
    </clipPath>
    <clipPath
       clipPathUnits="userSpaceOnUse"
       id="clipPath162">
      <path
         d="M 0,2000 H 2864.258 V 0 H 0 Z"
         transform="translate(-1701.2139,-1649.9023)"
         id="path162" />
    </clipPath>
    <clipPath
       clipPathUnits="userSpaceOnUse"
       id="clipPath163">
      <path
         d="m 1742.53,1691.39 h 45.92 V 1567.3 h -45.92 z"
         transform="translate(-1788.3966,-1640.4932)"
         id="path163" />
    </clipPath>
    <clipPath
       clipPathUnits="userSpaceOnUse"
       id="clipPath165">
      <path
         d="m 1701.997,1658.713 c -0.091,-2.592 -0.453,-5.174 -0.783,-8.811 v 0 c 0.371,-2.861 0.645,-6.761 1.405,-10.563 v 0 c 6.551,-32.753 31.327,-55.223 65.958,-60.071 v 0 c 7.448,-1.043 14.858,-1.19 22.317,-0.27 v 0 c 2.279,0.281 4.994,0.107 5.305,3.025 v 0 c 0.264,2.473 -1.988,3.105 -4.04,3.088 v 0 c -2.407,-0.017 -3.316,1.561 -4.278,3.327 v 0 c -2.478,4.558 -6.65,7.1 -11.325,8.701 v 0 c -11.521,3.946 -21.498,10.699 -31.529,17.273 v 0 c -12.364,8.104 -19.61,19.612 -21.194,34.482 v 0 c -1.661,15.591 10.502,24.355 24.996,17.901 v 0 c 5.717,-2.546 10.549,-6.351 14.498,-11.243 v 0 c 5.922,-7.333 11.799,-14.694 16.335,-23.012 v 0 c 0.934,-1.712 2.036,-3.714 4.356,-3.032 v 0 c 2.328,0.685 2.47,2.743 1.732,4.789 v 0 c -0.689,1.907 -0.878,3.597 0.388,5.484 v 0 c 5.18,7.712 1.958,15.379 -1.666,22.047 v 0 c -7.633,14.044 -20.117,22.834 -35.136,27.656 v 0 c -3.915,1.257 -7.855,1.848 -11.705,1.847 v 0 c -18.566,-10e-4 -34.97,-13.732 -35.634,-32.618"
         transform="matrix(1.3333333,0,0,-1.3333333,0,2666.6667)"
         id="path165" />
    </clipPath>
    <clipPath
       clipPathUnits="userSpaceOnUse"
       id="clipPath167">
      <path
         d="M 0,2000 H 2864.258 V 0 H 0 Z"
         transform="translate(-1928.2638,-1616.1899)"
         id="path167" />
    </clipPath>
    <clipPath
       clipPathUnits="userSpaceOnUse"
       id="clipPath169">
      <path
         d="M 0,2000 H 2864.258 V 0 H 0 Z"
         transform="translate(-1829.457,-1708.3545)"
         id="path169" />
    </clipPath>
    <clipPath
       clipPathUnits="userSpaceOnUse"
       id="clipPath171">
      <path
         d="M 0,2000 H 2864.258 V 0 H 0 Z"
         transform="translate(-1878.9024,-1699.1733)"
         id="path171" />
    </clipPath>
    <clipPath
       clipPathUnits="userSpaceOnUse"
       id="clipPath173">
      <path
         d="M 0,2000 H 2864.258 V 0 H 0 Z"
         transform="translate(-1836.5733,-1717.9707)"
         id="path173" />
    </clipPath>
    <clipPath
       clipPathUnits="userSpaceOnUse"
       id="clipPath175">
      <path
         d="M 0,2000 H 2864.258 V 0 H 0 Z"
         transform="translate(-1857.9249,-1735.4448)"
         id="path175" />
    </clipPath>
    <clipPath
       clipPathUnits="userSpaceOnUse"
       id="clipPath177">
      <path
         d="M 0,2000 H 2864.258 V 0 H 0 Z"
         transform="translate(-1864.5069,-1804.9702)"
         id="path177" />
    </clipPath>
    <clipPath
       clipPathUnits="userSpaceOnUse"
       id="clipPath179">
      <path
         d="M 0,2000 H 2864.258 V 0 H 0 Z"
         transform="translate(-1849.3008,-1847.3784)"
         id="path179" />
    </clipPath>
    <clipPath
       clipPathUnits="userSpaceOnUse"
       id="clipPath181">
      <path
         d="M 0,2000 H 2864.258 V 0 H 0 Z"
         transform="translate(-1775.5039,-1583.3496)"
         id="path181" />
    </clipPath>
    <clipPath
       clipPathUnits="userSpaceOnUse"
       id="clipPath182">
      <path
         d="m 1761.11,1679.86 h 198.04 v -107.54 h -198.04 z"
         transform="translate(-1857.0195,-1639.877)"
         id="path182" />
    </clipPath>
    <clipPath
       clipPathUnits="userSpaceOnUse"
       id="clipPath183">
      <path
         d="m 1761.11,1679.86 h 198.04 v -107.54 h -198.04 z"
         transform="translate(-1826.3223,-1579.1782)"
         id="path183" />
    </clipPath>
    <clipPath
       clipPathUnits="userSpaceOnUse"
       id="clipPath184">
      <path
         d="m 1761.11,1679.86 h 198.04 v -107.54 h -198.04 z"
         transform="translate(-1847.5918,-1663.4302)"
         id="path184" />
    </clipPath>
    <clipPath
       clipPathUnits="userSpaceOnUse"
       id="clipPath188">
      <path
         d="m 1878.224,1719.218 c -16.819,-1.32 -33.648,-2.521 -50.486,-3.554 v 0 c -12.669,-0.777 -25.088,-2.982 -37.516,-5.43 v 0 c -5.499,-1.083 -7.786,-4.231 -8.356,-9.205 v 0 c -1.402,-12.25 -3.52,-24.491 -3.838,-36.775 v 0 c -0.697,-26.971 -2.847,-53.902 -2.524,-80.905 v 0 c 0,-12.035 -0.234,-24.075 0.067,-36.101 v 0 c 0.295,-11.757 1.861,-13.036 13.086,-15.318 v 0 c 5.151,-1.047 10.279,-1.35 15.475,-1.575 v 0 c 34.168,-1.482 68.238,1.606 102.352,2.463 v 0 c 7.609,0.192 15.549,0.798 23.067,3.184 v 0 c 9.214,2.923 9.23,3.359 9.729,12.852 v 0 c 1.817,34.523 -1.28,68.839 -4.351,103.127 v 0 c -1.474,16.453 -3.32,32.949 -7.493,49.035 v 0 c -2.224,8.574 -7.298,14.836 -16.211,16.274 v 0 c -8.2,1.323 -16.469,2.241 -24.8,2.241 v 0 c -2.727,0 -5.462,-0.098 -8.201,-0.313"
         transform="matrix(1.3333333,0,0,-1.3333333,0,2666.6667)"
         id="path188" />
    </clipPath>
    <clipPath
       clipPathUnits="userSpaceOnUse"
       id="clipPath189">
      <path
         d="m 1754.27,1715.12 h 206.85 v -216.41 h -206.85 z"
         transform="translate(-1843.3779,-1498.8511)"
         id="path189" />
    </clipPath>
    <clipPath
       clipPathUnits="userSpaceOnUse"
       id="clipPath191">
      <path
         d="m 1878.224,1719.218 c -16.819,-1.32 -33.648,-2.521 -50.486,-3.554 v 0 c -12.669,-0.777 -25.088,-2.982 -37.516,-5.43 v 0 c -5.499,-1.083 -7.786,-4.231 -8.356,-9.205 v 0 c -1.402,-12.25 -3.52,-24.491 -3.838,-36.775 v 0 c -0.697,-26.971 -2.847,-53.902 -2.524,-80.905 v 0 c 0,-12.035 -0.234,-24.075 0.067,-36.101 v 0 c 0.295,-11.757 1.861,-13.036 13.086,-15.318 v 0 c 5.151,-1.047 10.279,-1.35 15.475,-1.575 v 0 c 34.168,-1.482 68.238,1.606 102.352,2.463 v 0 c 7.609,0.192 15.549,0.798 23.067,3.184 v 0 c 9.214,2.923 9.23,3.359 9.729,12.852 v 0 c 1.817,34.523 -1.28,68.839 -4.351,103.127 v 0 c -1.474,16.453 -3.32,32.949 -7.493,49.035 v 0 c -2.224,8.574 -7.298,14.836 -16.211,16.274 v 0 c -8.2,1.323 -16.469,2.241 -24.8,2.241 v 0 c -2.727,0 -5.462,-0.098 -8.201,-0.313"
         transform="matrix(1.3333333,0,0,-1.3333333,0,2666.6667)"
         id="path191" />
    </clipPath>
    <filter
       style="color-interpolation-filters:sRGB"
       id="filter1547"
       x="-0.10009548"
       y="-0.10241223"
       width="1.2247723"
       height="1.2303465">
      <feFlood
         result="flood"
         in="SourceGraphic"
         flood-opacity="0.200000"
         flood-color="rgb(0,0,0)"
         id="feFlood1546" />
      <feGaussianBlur
         result="blur"
         in="SourceGraphic"
         stdDeviation="8.000000"
         id="feGaussianBlur1546" />
      <feOffset
         result="offset"
         in="blur"
         dx="9.000000"
         dy="9.000000"
         id="feOffset1546" />
      <feComposite
         result="comp1"
         operator="in"
         in="flood"
         in2="offset"
         id="feComposite1546" />
      <feComposite
         result="comp2"
         operator="over"
         in="SourceGraphic"
         in2="comp1"
         id="feComposite1547" />
    </filter>
  </defs>
  <g
     id="g1"
     transform="translate(4559.5591,-1359.7444)">
    <g
       id="g1546">
      <path
         id="path1519"
         clip-path="url(#clipPath150)"
         style="fill:#b5ce76;fill-opacity:1;fill-rule:nonzero;stroke:#ffffff;stroke-width:33.75;stroke-dasharray:none;stroke-opacity:1;filter:url(#filter1547)"
         d="m -57.300065,181.57901 c -3.738601,-0.0242 -6.755555,-2.49387 -9.049805,-5.60449 -1.947,-2.638 -3.204023,-5.6219 -3.249023,-9.0249 -0.05,-3.9 -0.165817,-7.80132 -0.361817,-11.69532 -0.092,-1.828 0.555985,-4.17759 -1.916015,-4.93359 -1.775,-0.543 -2.947985,0.98508 -4.083985,2.08008 -4.066,3.918 -9.161785,6.13815 -14.154785,8.45215 -4.683,2.17 -8.670731,0.86647 -12.323735,-2.79053 -3.658,-3.662 -1.87318,-7.02781 -0.28418,-10.65381 2.017,-4.6 5.271801,-7.97004 9.216801,-11.06104 3.018,-2.365 7.171094,-3.57318 9.996094,-8.26318 -3.798,0.605 -6.467754,0.61828 -8.822754,1.48828 -5.592,2.065 -10.896961,0.81831 -16.209961,-0.78369 -4.42623,-1.33388 -8.32058,-3.78462 -8.62939,-8.55762 -1.08123,2.56799 -2.80987,4.93232 -4.54834,7.14405 -5.67,7.213 -12.59757,-0.51806 -15.08057,-6.33106 -1.228,-2.877 -1.67242,-6.14232 -0.89942,-9.17432 -1.83,2.989 -4.50833,5.59536 -7.06933,7.96436 -7.025,6.499 -14.28835,4.31657 -16.65235,-4.96143 -0.726,-2.846 -0.9065,-5.76304 0.0835,-8.64404 0.941,-2.737 1.81843,-5.49419 3.29443,-9.971191 -5.739,1.681 -9.23967,3.397324 -13.11767,3.757321 -7.217,0.668 -12.49689,-4.909841 -10.96289,-11.964841 0.761,-3.497 2.01959,-6.88 4.82959,-9.375 9.889,-8.779 21.10506,-15.544516 34.18506,-17.478516 6.1374,-0.907159 11.92268,-0.198064 16.87793,1.850097 2.31982,-2.649404 4.87648,-5.130526 6.8247,-8.024414 0.97745,-1.452167 1.97141,-2.894199 2.95606,-4.341797 -2.64348,1.286156 -5.37426,2.466792 -8.19727,3.537598 -6.552,2.485 -13.48933,4.459254 -20.84033,3.760254 -4.888,-0.465 -7.46009,-3.121305 -9.24609,-7.362305 -1.701,-4.036 1.08875,-5.904633 3.30175,-8.223633 3.126,-3.276 5.99261,-6.817641 9.26661,-9.931641 9.21635,-8.764282 18.85354,-17.121943 30.07763,-22.9614261 -5.42061,-1.1031772 -7.6882,-4.238439 -8.25439,-9.18017605 -1.1531,-10.07442505 -2.77607,-20.14362385 -3.49805,-30.23584085 -7.49212,8.948798 -17.51069,14.993405 -29.03174,18.692872 -22.794,7.3179998 -46.53735,-7.970438 -47.33935,-30.773438 -0.091,-2.592 -0.45123,-5.172571 -0.78223,-8.809571 0.371,-2.861 0.64478,-6.760989 1.40478,-10.562989 6.551,-32.753 31.32606,-55.222783 65.95606,-60.071783 2.30586,-0.32282 4.60751,-0.54838 6.9082,-0.69433 -0.042,-10.44374 -0.17329,-20.88976 0.0879,-31.32569 0.294,-11.756 1.86045,-13.03587 13.08545,-15.31787 5.151,-1.047 10.27961,-1.3497 15.474614,-1.5747 34.169,-1.481 68.237565,1.60586 102.351565,2.46386 7.609,0.191 15.54936,0.79711 23.06836,3.18311 9.213,2.923 9.229028,3.35907 9.728028,12.85107 1.300922,24.71752 0.06951,49.32899 -1.854493,73.899907 19.343579,16.631218 37.773877,34.249047 55.829592,52.252443 4.077,4.065 8.476219,6.621918 14.074214,7.940918 12.377,2.914 24.87935,4.704176 37.54835,5.430176 4.569,0.261 9.13565,0.629938 13.34765,2.4609376 5.047,2.195 5.85213,6.2663011 1.82813,9.88330106 -2.375,2.13400004 -5.28137,3.79484384 -8.17237,5.21484384 -8.766,4.31 -17.11222,9.2824495 -25.05322,14.9604495 -6.327,4.524 -13.2763,8.057899 -19.3623,13.045899 -5.139,4.213 -8.911407,2.178687 -9.962407,-4.570313 -0.298,-1.912 -0.189293,-3.886078 -0.300293,-5.830078 -0.388,-6.81 -0.874551,-13.6161763 -1.164551,-20.4301763 -0.269,-6.336 -3.109153,-10.5228831 -8.556153,-14.1298827 -17.326,-11.471 -34.168607,-23.672427 -51.370607,-35.336427 -0.43094,-0.29226 -0.839919,-0.606064 -1.255371,-0.914063 -1.463211,16.205172 -3.311803,32.444038 -7.419433,48.2856461 -1.759627,6.7806903 -5.309309,12.1035699 -11.122559,14.7495119 9.904805,11.319562 18.164629,22.607412 25.17627,34.41211 5.241,8.823 9.15359,17.578525 9.70459,25.561525 0.525,7.581 -3.480278,7.809671 -11.509278,1.013671 -1.505,-1.274 -2.877867,-2.76507 -4.338867,-4.12207 -11.167,-10.362 -21.324805,-21.593649 -31.1748055,-33.014649 -2.425685,-2.812389 -4.7442251,-5.661665 -7.0078127,-8.528321 0.3902527,2.27554 0.8099937,4.544226 1.1689454,6.826172 0.186393,1.185374 0.4175967,2.353942 0.6240234,3.531739 0.196811,0.26693 0.4086332,0.525167 0.5991211,0.79541 2.33714873,3.317857 4.2509729,7.103612 1.83544931,11.085938 3.57792629,14.814486 8.96339979,28.97244 16.67724699,42.366212 2.006337,3.483851 4.1526,6.82482 6.723633,9.74414 -1.049224,-3.63962 -1.68872,-7.183152 -2.261719,-10.72998 -0.795,-4.921 -0.947137,-9.854294 1.234863,-14.550294 2.429,-5.229 7.143039,-6.307933 11.540039,-2.731933 1.673,1.361 2.916762,2.968199 3.780762,4.929199 1.898,4.306 2.312028,8.828688 1.853028,13.429688 -0.45,4.506 -1.111926,8.98891 -1.773926,14.21191 2.056,-1.408 3.52943,-2.48003 5.06543,-3.45703 3.046,-1.941 6.078472,-3.91782 9.209472,-5.71582 3.283,-1.885997 6.870016,-2.113755 10.541016,-1.426755 6.098,1.142 8.682161,6.875005 5.389161,12.104005 -1.548,2.457 -3.516141,4.54288 -6.369141,5.50488 -2.702,0.912 -5.396504,1.8959 -8.166504,2.5459 -4.187,0.983 -8.437051,1.70363 -12.977051,2.59863 3.515,5.086 6.703883,9.80343 10.004883,14.44043 2.084,2.926 2.748043,6.21255 3.019043,9.68555 0.275,3.535 -1.7117,5.93113 -4.3667,7.45313 -2.603,1.491 -5.399398,1.05945 -7.983398,-0.95655 -3.268,-2.55 -5.349243,-5.85924 -7.198243,-9.44824 -2.076,-4.028 -2.818562,-8.52469 -4.476562,-13.15869 -2.108,2.207 -2.604032,4.72113 -3.832032,6.80713 -2.212,3.757 -3.847058,7.87864 -6.810058,11.16064 -3.791,4.198 -7.327825,5.0971 -11.0698248,2.9751 -2.4227094,-1.37476 -3.83267,-4.02493 -3.966797,-7.11914 -5.3575949,2.71428 -12.6346684,3.07473 -19.5205082,0.71777 -3.251,-1.112 -6.139114,-3.49848 -10.141114,-3.41748 -0.571,2.706 0.463625,3.60561 1.265625,4.59961 4.265,5.289 9.140727,10.12446 12.219727,16.29346 3.181,6.376 2.703957,10.49653 -1.519043,14.04053 -4.781,4.011 -9.051531,3.85362 -14.894531,-0.71338 -6.026,-4.711 -10.388051,-10.64807 -12.977051,-17.89307 -0.668,-1.872 -0.875837,-4.37853 -4.256837,-4.49853 0.645,7.038 -0.132011,13.79116 -1.812011,20.38916 -0.973,3.822 -2.70084,7.86325 -6.98584,8.63525 -0.5635,0.10163 -1.112399,0.14848 -1.646485,0.14502 z M 10.68773,129.15079 c 2.30083,-1.90492 4.539694,-3.88797 6.812988,-5.82715 l 0.808594,-0.44971 c -0.293,-0.076 -0.585906,-0.15291 -0.878906,-0.23291 -1.192,-0.837 -2.539653,-0.58795 -3.868653,-0.62695 -3.9629025,-0.11641 -7.944352,-0.0682 -11.8256834,-0.98291 1.5968371,0.73911 3.1382298,1.63636 4.5908204,2.76855 2.196307,1.71165 3.6376179,3.49722 4.36084,5.35108 z m -13.521973,-9.73975 c -2.6935586,-1.3479 -4.9047703,-3.31923 -6.3691408,-6.08936 -0.3754846,-0.71006 -0.6499718,-1.40917 -0.8437502,-2.09179 -1.543757,0.92722 -3.131481,1.79204 -4.765137,2.58984 -2.182,1.065 -5.165414,0.94495 -6.149414,4.75195 3.536,-0.125 6.762262,-0.44454 9.968262,-0.31054 2.7887088,0.11603 5.5267918,0.46813 8.15918,1.1499 z m -111.958007,-5.78467 c 1.43811,-1.47642 3.40142,-2.51011 5.57226,-3.17871 -0.20466,-2.07359 -0.0134,-5.04851 0.58887,-8.93848 0.344,-2.218996 0.91287,-4.458403 1.33887,-6.691403 3.15335,-16.519015 7.353337,-32.697397 11.83154,-48.722169 -0.901028,0.0064 -1.808073,-0.05001 -2.726074,-0.23584 -2.062226,-0.417839 -3.613466,-1.170911 -4.636236,-2.19873 -3.28487,4.680046 -6.61777,9.329276 -10.01074,13.942383 -2.28216,3.102149 -4.76818,6.05482 -7.2876,8.982422 6.4524,5.033953 10.31295,13.105678 9.67823,23.236817 -0.51445,8.198265 -1.90687,16.11804 -4.34912,23.80371 z m 14.904782,-5.49756 c 2.801008,-0.52886 5.642375,-0.8418 8.562012,-0.70312 1.799,0.085 4.246836,0.49621 5.006836,-1.88379 0.762,-2.385 -1.36493,-3.33478 -3.00293,-4.30078 -1.452259,-0.85584 -2.79082,-1.822277 -4.045898,-2.869632 -2.058905,3.674072 -4.226218,6.971362 -6.52002,9.757322 z M 15.225816,106.65957 C 14.908038,106.21806 14.58081,105.78594 14.280992,105.3251 5.5649918,91.931102 -2.1958876,77.981511 -5.7448876,62.245511 c -0.298636,-1.324218 -0.554322,-2.658447 -0.8393555,-3.98584 -0.1502588,2.673887 -0.3984844,5.367249 -0.7763672,8.085938 -0.964,6.941 -2.5625901,13.974867 -6.7045897,20.088867 -2.754,4.064 -6.317508,5.045172 -10.895508,4.576172 -1.873612,-0.19136 -2.99471,-0.920726 -3.744141,-1.930664 -1.499146,1.861744 -3.103108,3.645985 -4.700684,5.452149 -0.689052,0.778298 -1.62866,1.540927 -2.239746,2.444824 0.363639,0.340141 0.719597,0.693338 1.062012,1.075195 0.650079,0.724921 1.24908,1.465725 1.82373,2.213378 5.144814,-2.303171 9.100795,-6.577461 14.257325,-8.714354 2.992,-1.24 5.728344,-3.159524 8.7773438,-4.186524 4.254,-1.435 10.3943128,0.535188 12.4453128,3.492188 2.21515,3.194141 1.3531804,7.681443 -2.33642584,11.89014 1.24358214,0.19303 2.48416994,0.42852 3.72802744,0.6167 3.829218,0.5794 7.4484708,1.82757 11.1137698,3.29589 z M -68.255631,89.838773 c -1.069,-4.214 -1.786938,-7.649934 -2.835938,-10.981934 -0.882,-2.803 -1.687191,-5.552109 -1.721191,-8.537109 -0.056,-4.878 2.723937,-7.953883 6.585937,-10.004883 2.959,-1.571 8.067887,1.050926 10.483887,5.148926 1.687175,2.863013 2.912556,5.930121 3.697266,9.158203 -0.08716,-12.303797 -0.336847,-24.60404 -1.284668,-36.884766 -0.625,-8.092 -1.891594,-8.752965 -8.683594,-4.688965 -2.854378,1.708072 -5.735168,3.346985 -8.664551,4.87207 -3.891857,14.475053 -8.293099,27.759366 -13.369629,40.331544 2.231064,1.354121 4.322641,2.971104 6.27832,4.861817 2.535,2.452 4.565161,5.999097 9.514161,6.725097 z M -44.926529,76.88516 c 2.37218,-3.976634 4.884454,-7.758975 8.220703,-10.949708 0.13065,-0.124907 0.264795,-0.224751 0.395508,-0.347168 -2.231583,-9.0626 -3.962634,-18.219091 -4.237793,-27.47461 -1.217319,-1.125497 -2.437909,-2.256154 -3.736817,-3.377929 -2.334,4.299 -1.396117,7.571683 -1.245117,10.700683 0.502666,10.482467 0.675498,20.966388 0.603516,31.448732 z M -65.254166,15.650295 c 0.119536,-0.02402 0.242075,-0.03816 0.361816,-0.06152 -0.113792,-0.0074 -0.227515,-0.01605 -0.341309,-0.02344 -0.0067,0.02881 -0.01384,0.05623 -0.02051,0.08496 z m -97.183594,-47.425783 c 2.82711,-0.04323 5.88656,-0.726859 9.05713,-2.138671 5.717,-2.546 10.54856,-6.350677 14.49756,-11.242677 4.81809,-5.966077 9.59323,-11.959145 13.6538,-18.462891 -0.60177,-13.187012 -1.21436,-26.37405 -1.42089,-39.572753 -11.097,3.986699 -20.79608,10.514099 -30.53321,16.895507 -12.364,8.103 -19.60936,19.612422 -21.19336,34.482422 -1.29687,12.180469 5.84214,20.193476 15.93897,20.039063 z"
         transform="matrix(1.3333333,0,0,-1.3333333,-4243.3327,1661.95)" />
      <g
         id="g1397"
         transform="translate(-7352.3009,2593.9704)">
        <path
           id="path149"
           d="m 0,0 c -3.88,-4.248 -10.063,-9.192 -16.129,-14.282 -4.119,-3.456 -8.23,-6.295 -11.459,-4.384 -5.451,3.228 -6.005,6.045 -1.827,13.118 8.997,15.23 19.094,30.215 31.376,44.455 9.85,11.421 20.009,22.654 31.176,33.016 1.461,1.357 2.834,2.848 4.339,4.122 8.029,6.796 12.034,6.566 11.509,-1.015 C 48.434,67.047 44.521,58.292 39.28,49.469 29.173,32.453 16.557,16.513 0,0"
           style="fill:#b5ce76;fill-opacity:1;fill-rule:nonzero;stroke:none"
           transform="matrix(1.3333333,0,0,-1.3333333,3108.8913,-932.01544)"
           clip-path="url(#clipPath150)" />
        <path
           id="path151"
           d="m 0,0 c -11.222,11.42 24.253,41.097 32.044,47.429 15.701,12.759 22.584,29.799 27.105,48.236 4.022,16.4 6.58,33.153 10.297,49.635 3.549,15.736 11.31,29.686 20.026,43.08 3.994,6.139 9.595,10.564 16.445,13.268 2.153,0.851 4.601,1.616 5.903,-1.199 1.413,-3.053 -1.113,-4.073 -3.206,-4.881 C 100.151,192.301 95.321,185.458 91.049,178.04 80.699,160.069 74.531,140.726 71.313,120.261 68.637,103.249 65.305,86.356 58.129,70.462 54.074,61.482 49.266,53.42 41.649,46.731 33.449,39.529 25.21,32.268 18,24.046 11.564,16.706 8.669,5.081 0,0"
           style="fill:#9bb55a;fill-opacity:1;fill-rule:nonzero;stroke:none"
           transform="matrix(1.3333333,0,0,-1.3333333,3008.6373,-821.27518)"
           clip-path="url(#clipPath152)" />
        <path
           id="path153"
           d="m 0,0 c -2.742,2.339 -5.429,4.748 -8.242,6.998 -2.791,2.233 -4.515,5.127 -5.622,8.43 -1.636,4.879 -0.253,9.632 3.298,11.647 3.742,2.122 7.279,1.224 11.07,-2.974 2.963,-3.282 4.598,-7.404 6.81,-11.161 1.228,-2.086 1.724,-4.601 3.832,-6.808 1.658,4.634 2.401,9.132 4.477,13.16 1.849,3.589 3.929,6.897 7.197,9.447 2.584,2.016 5.381,2.448 7.984,0.957 2.655,-1.522 4.642,-3.918 4.367,-7.453 C 34.9,18.77 34.235,15.483 32.151,12.557 28.85,7.92 25.662,3.203 22.147,-1.883 c 4.54,-0.895 8.79,-1.616 12.977,-2.599 2.77,-0.65 5.464,-1.633 8.166,-2.545 2.853,-0.962 4.822,-3.048 6.37,-5.505 3.293,-5.229 0.709,-10.963 -5.389,-12.105 -3.671,-0.687 -7.259,-0.459 -10.542,1.427 -3.131,1.798 -6.163,3.775 -9.209,5.716 -1.536,0.977 -3.01,2.05 -5.066,3.458 0.662,-5.223 1.325,-9.707 1.775,-14.213 0.459,-4.601 0.045,-9.124 -1.853,-13.43 -0.864,-1.961 -2.108,-3.567 -3.781,-4.928 -4.397,-3.576 -9.111,-2.497 -11.54,2.732 -2.182,4.696 -2.031,9.629 -1.236,14.55 0.874,5.41 1.886,10.806 4.305,16.56 -7.219,-2.892 -13.501,-6.135 -20.513,-7.196 -2.069,-0.313 -4.128,-0.771 -6.209,-0.914 -6.752,-0.459 -10.282,4.867 -7.106,10.873 1.948,3.685 5.217,5.956 9.186,7.227 4.43,1.419 9.017,1.331 13.579,1.465 1.329,0.039 2.677,-0.21 3.869,0.627 0.293,0.08 0.586,0.157 0.879,0.233 z"
           style="fill:#f5afaf;fill-opacity:1;fill-rule:nonzero;stroke:none"
           transform="matrix(1.3333333,0,0,-1.3333333,3132.2258,-1096.4477)"
           clip-path="url(#clipPath154)" />
        <path
           id="path155"
           d="m 0,0 c 2.59,-3.249 2.04,-8.783 -1.114,-11.21 -2.509,-1.932 -6.528,-1.079 -8.988,1.908 -2.949,3.582 -2.895,8.127 0.126,10.672 C -6.936,3.93 -2.666,3.344 0,0"
           style="fill:#f6d876;fill-opacity:1;fill-rule:nonzero;stroke:none"
           transform="matrix(1.3333333,0,0,-1.3333333,3156.6646,-1094.9086)"
           clip-path="url(#clipPath156)" />
        <path
           id="path157"
           d="m 0,0 c 0.878,-2.247 1.478,-4.579 -1.346,-5.789 -2.218,-0.951 -3.742,0.627 -4.707,2.367 -4.252,7.666 -8.685,15.25 -12.524,23.121 -14.452,29.631 -34.192,55.901 -52.49,83.086 -2.157,3.204 -5.076,5.891 -7.574,8.874 -1.449,1.731 -3.056,3.388 -3.56,5.727 -0.296,1.372 -0.07,2.619 1.038,3.504 1.545,1.234 3.054,0.845 4.234,-0.551 4.192,-4.954 8.598,-9.755 12.436,-14.972 C -40.592,72.871 -19.325,38.742 -1.368,2.588 -0.935,1.716 -0.457,0.867 0,0"
           style="fill:#9bb55a;fill-opacity:1;fill-rule:nonzero;stroke:none"
           transform="matrix(1.3333333,0,0,-1.3333333,3044.4368,-868.33118)"
           clip-path="url(#clipPath158)" />
        <path
           id="path159"
           d="m 0,0 c -1.476,4.477 -2.354,7.235 -3.295,9.972 -0.99,2.881 -0.809,5.798 -0.083,8.644 2.364,9.278 9.627,11.46 16.652,4.961 2.561,-2.369 5.239,-4.976 7.069,-7.965 -0.773,3.032 -0.328,6.298 0.9,9.175 2.483,5.813 9.41,13.544 15.08,6.331 1.789,-2.276 3.574,-4.711 4.647,-7.366 3.905,-9.664 5.973,-19.701 6.631,-30.187 1.22,-19.473 -14.143,-31.363 -32.667,-28.625 -13.08,1.934 -24.297,8.699 -34.186,17.478 -2.81,2.495 -4.069,5.878 -4.83,9.375 -1.534,7.055 3.747,12.632 10.964,11.964 C -9.24,3.397 -5.739,1.681 0,0"
           style="fill:#95c9d1;fill-opacity:1;fill-rule:nonzero;stroke:none"
           transform="matrix(1.3333333,0,0,-1.3333333,2898.166,-1060.3585)"
           clip-path="url(#clipPath160)" />
        <path
           id="path161"
           d="M 0,0 C 0.331,3.637 0.692,6.218 0.783,8.81 1.585,31.613 25.328,46.901 48.122,39.583 63.142,34.76 75.626,25.97 83.259,11.925 c 3.623,-6.667 6.845,-14.334 1.666,-22.046 -1.267,-1.888 -1.078,-3.577 -0.389,-5.485 0.738,-2.046 0.596,-4.103 -1.732,-4.788 -2.32,-0.682 -3.422,1.32 -4.356,3.032 -4.536,8.319 -10.413,15.679 -16.335,23.012 -3.949,4.892 -8.781,8.697 -14.498,11.243 -14.494,6.454 -26.656,-2.31 -24.996,-17.901 1.584,-14.87 8.83,-26.379 21.194,-34.482 10.031,-6.574 20.008,-13.328 31.529,-17.273 4.676,-1.601 8.847,-4.143 11.326,-8.701 0.961,-1.766 1.87,-3.345 4.277,-3.327 2.052,0.017 4.304,-0.616 4.04,-3.088 -0.311,-2.919 -3.026,-2.744 -5.305,-3.025 -7.459,-0.92 -14.868,-0.774 -22.318,0.269 C 32.732,-65.786 7.956,-43.316 1.405,-10.563 0.645,-6.761 0.371,-2.861 0,0"
           style="fill:#f3c21e;fill-opacity:1;fill-rule:nonzero;stroke:none"
           transform="matrix(1.3333333,0,0,-1.3333333,2840.8965,-864.27318)"
           clip-path="url(#clipPath162)" />
        <g
           opacity="0.5"
           id="g164"
           clip-path="url(#clipPath165)"
           transform="translate(572.61129,-1331.0701)">
          <path
             d="m 0,0 c -0.214,-18.487 -1.407,-36.946 -3.574,-55.319 -1.31,-11.099 -4.746,-14.217 -16.123,-15.887 -6.738,-0.989 -13.46,-2.36 -20.309,-1.898 -5.588,0.377 -6.765,2.081 -5.251,7.578 8.888,32.266 14.2,65.279 20.566,98.071 0.865,4.461 1.405,9.039 3.587,13.084 3.42,6.344 9.392,7.029 14.254,1.675 3.396,-3.74 4.778,-8.428 5.439,-13.318 0.565,-4.179 1.22,-8.375 1.35,-12.578 C 0.161,14.278 0,7.137 0,0"
             style="fill:#f3c21e;fill-opacity:1;fill-rule:nonzero;stroke:none"
             transform="matrix(1.3333333,0,0,-1.3333333,2384.5287,479.3424)"
             clip-path="url(#clipPath163)"
             id="path164" />
        </g>
        <path
           id="path166"
           d="m 0,0 c -0.78,0.362 -1.811,0.562 -2.418,1.179 -1.417,1.442 -1.008,3.558 0.299,4.275 4.401,2.417 2.383,5.574 1.992,9.011 -0.381,3.35 0.091,5.286 -4.679,4.445 -3.588,-0.634 -4.929,3.184 -1.891,5.698 4.989,4.129 9.107,9.159 14.545,12.847 17.202,11.664 34.044,23.865 51.37,35.336 5.447,3.607 8.287,7.794 8.556,14.13 0.29,6.814 0.777,13.621 1.165,20.431 0.111,1.944 0.002,3.918 0.3,5.83 1.051,6.749 4.824,8.783 9.963,4.57 6.086,-4.988 13.034,-8.522 19.361,-13.046 7.941,-5.678 16.288,-10.651 25.054,-14.961 2.891,-1.42 5.797,-3.081 8.172,-5.215 4.024,-3.617 3.219,-7.688 -1.828,-9.883 -4.212,-1.831 -8.778,-2.199 -13.347,-2.46 C 103.945,71.461 91.442,69.671 79.065,66.757 73.467,65.438 69.068,62.88 64.991,58.815 46.355,40.233 27.329,22.052 7.302,4.953 5.106,3.079 3.184,0.784 0,0"
           style="fill:#f3c21e;fill-opacity:1;fill-rule:nonzero;stroke:none"
           transform="matrix(1.3333333,0,0,-1.3333333,3143.6296,-819.32331)"
           clip-path="url(#clipPath167)" />
        <path
           id="path168"
           d="m 0,0 c 0.742,-3.792 1.384,-8.009 -2.766,-11.017 -3.165,-2.294 -10.597,-2.76 -12.742,0.32 -4.295,6.168 -10.709,6.895 -16.86,9.341 -14.309,5.688 -25.976,15.645 -37.046,26.172 -3.274,3.114 -6.141,6.655 -9.267,9.931 -2.213,2.319 -5.002,4.188 -3.301,8.224 1.786,4.241 4.357,6.897 9.245,7.362 7.351,0.699 14.289,-1.275 20.841,-3.76 22.343,-8.475 39,-23.797 50.969,-44.349 C -0.604,1.668 -0.424,1.03 0,0"
           style="fill:#d4eb9b;fill-opacity:1;fill-rule:nonzero;stroke:none"
           transform="matrix(1.3333333,0,0,-1.3333333,3011.8873,-942.20944)"
           clip-path="url(#clipPath169)" />
        <path
           id="path170"
           d="m 0,0 c -2.971,-2.471 -6.362,-5.058 -10.992,-2.862 -3.532,1.676 -7.509,7.972 -5.836,11.333 3.349,6.728 0.908,12.704 0.101,19.274 -1.877,15.283 1.258,30.297 5.18,45.061 1.16,4.368 2.891,8.582 4.264,12.897 0.972,3.054 1.273,6.398 5.63,6.843 4.578,0.469 8.142,-0.512 10.896,-4.576 4.142,-6.114 5.74,-13.147 6.704,-20.088 C 19.237,44.212 13.791,22.246 1.505,1.88 1.174,1.331 0.7,0.867 0,0"
           style="fill:#d4eb9b;fill-opacity:1;fill-rule:nonzero;stroke:none"
           transform="matrix(1.3333333,0,0,-1.3333333,3077.8144,-929.96784)"
           clip-path="url(#clipPath171)" />
        <path
           id="path172"
           d="m 0,0 c 1.635,-6.351 2.822,-15.279 4.171,-24.195 0.917,-6.055 1.357,-11.697 -1.515,-13.421 -4.847,-2.91 -7.275,-1.579 -10.976,6.895 -7.971,18.247 -15.278,37.346 -21.069,57.971 -4.644,16.541 -9.009,33.244 -12.266,50.306 -0.426,2.233 -0.995,4.473 -1.339,6.692 -1.833,11.84 0.066,15.377 5.731,9.937 5.966,-5.728 11.089,-15.057 15.694,-25.654 C -12.688,48.093 -5.721,26.048 0,0"
           style="fill:#b5ce76;fill-opacity:1;fill-rule:nonzero;stroke:none"
           transform="matrix(1.3333333,0,0,-1.3333333,3021.3756,-955.03104)"
           clip-path="url(#clipPath173)" />
        <path
           id="path174"
           d="m 0,0 c 6.475,5.592 11.649,11.447 18.386,15.404 4.219,2.479 8.427,4.823 13.26,5.97 4.393,1.042 8.508,1.189 11.423,-2.877 3.018,-4.207 1.019,-8.212 -1.438,-11.7 -2.226,-3.158 -4.894,-6.095 -7.764,-8.69 -8.749,-7.912 -18.492,-14.524 -29.681,-18.274 -5.818,-1.95 -7.336,-5.164 -7.394,-10.704 -0.15,-14.295 -0.654,-28.587 -1.164,-42.875 -0.108,-3.025 0.906,-7.879 -3.327,-7.923 -5.546,-0.06 -3.405,5.256 -3.384,8.324 0.109,15.26 0.349,30.525 0.984,45.769 0.226,5.421 -1.566,7.09 -6.917,7.813 -11.701,1.581 -22.388,6.501 -32.719,12.098 -3.802,2.061 -6.89,4.963 -8.95,8.745 -2.808,5.159 -0.951,8.882 4.784,10.044 3.29,0.666 6.453,-0.098 9.618,-0.889 9.564,-2.392 18.155,-6.896 26.554,-11.922 6.792,-4.064 8.059,-3.403 8.684,4.689 1.551,20.096 1.29,40.24 1.376,60.376 0.017,3.748 -2.869,10.304 2.811,10.476 5.019,0.151 3.57,-6.746 3.73,-10.543 C -0.387,45.783 -0.404,28.238 -1.245,10.7 -1.396,7.571 -2.334,4.299 0,0"
           style="fill:#9bb55a;fill-opacity:1;fill-rule:nonzero;stroke:none"
           transform="matrix(1.3333333,0,0,-1.3333333,3049.8444,-978.32984)"
           clip-path="url(#clipPath175)" />
        <path
           id="path176"
           d="M 0,0 C -0.441,0.256 -0.865,0.559 -1.337,0.733 -1.442,0.772 -1.715,0.361 -1.91,0.156 -1.467,-0.103 -1.041,-0.407 -0.567,-0.586 -0.467,-0.624 -0.195,-0.209 0,0 m -32.724,21.064 c 5.673,-2.908 8.329,-5.689 5.32,-11.225 -1.998,-3.673 0.717,-9.24 4.437,-8.881 3.711,0.356 6.824,-0.429 10.274,-1.206 3.691,-0.832 6.557,0.988 5.261,5.451 -0.819,2.821 -0.463,5.072 1.496,7.1 2.3,2.381 2.102,5.343 1.859,8.212 -0.391,4.624 -3.423,6.284 -7.971,5.135 -6.474,-1.636 -13.04,-2.912 -20.676,-4.586 M 11.01,36.32 c 4.002,-0.081 6.889,2.305 10.14,3.417 9.267,3.172 19.251,1.432 24.297,-4.36 C 50.497,29.581 50.116,24.281 44.03,19.538 38.984,15.605 32.959,14.26 26.71,14 c -3.206,-0.134 -6.432,0.185 -9.968,0.31 0.984,-3.807 3.967,-3.687 6.149,-4.752 5.58,-2.725 10.7,-6.128 14.92,-10.735 3.943,-4.304 4.887,-8.949 2.613,-12.228 -2.051,-2.957 -8.192,-4.927 -12.446,-3.492 -3.049,1.027 -5.785,2.947 -8.777,4.187 -5.97,2.474 -10.323,7.826 -16.785,9.65 -2.464,-3.349 0.36,-4.951 1.881,-6.669 3.661,-4.139 7.472,-8.084 9.561,-13.393 1.224,-3.108 1.727,-6.174 1.655,-9.485 -0.086,-3.938 -1.45,-7.033 -5.084,-8.703 -3.94,-1.81 -6.678,0.352 -9.431,2.984 -5.64,5.394 -8.974,12.407 -13.141,19.362 -2.117,-2.953 -1.255,-5.591 -1.642,-7.999 -0.679,-4.223 -2.107,-8.189 -4.255,-11.834 -2.416,-4.098 -7.524,-6.72 -10.483,-5.149 -3.862,2.051 -6.643,5.126 -6.587,10.004 0.034,2.985 0.84,5.734 1.722,8.537 1.049,3.332 1.766,6.768 2.835,10.982 -4.949,-0.726 -6.978,-4.273 -9.513,-6.725 -4.094,-3.958 -8.768,-6.751 -14.12,-8.334 -4.016,-1.188 -7.813,-0.511 -10.358,3.272 -2.236,3.326 -1.976,6.789 0.139,10.049 3.382,5.216 7.322,9.921 12.786,13.141 1.638,0.966 3.765,1.915 3.003,4.3 -0.76,2.38 -3.207,1.969 -5.006,1.884 -5.958,-0.283 -11.595,1.3 -17.213,2.806 -4.684,1.254 -8.618,4.136 -8.663,9.301 -0.046,5.24 4.019,7.858 8.658,9.256 5.313,1.602 10.618,2.849 16.21,0.784 2.355,-0.87 5.025,-0.883 8.823,-1.488 -2.825,4.69 -6.979,5.898 -9.997,8.263 -3.945,3.091 -7.199,6.462 -9.216,11.062 -1.589,3.626 -3.374,6.991 0.284,10.653 3.653,3.657 7.641,4.96 12.324,2.79 4.993,-2.314 10.088,-4.533 14.154,-8.451 1.136,-1.095 2.309,-2.624 4.084,-2.081 2.472,0.756 1.824,3.106 1.916,4.934 0.196,3.894 0.312,7.795 0.362,11.695 0.045,3.403 1.302,6.387 3.249,9.025 2.622,3.555 6.189,6.273 10.697,5.46 4.285,-0.772 6.012,-4.813 6.985,-8.635 1.68,-6.598 2.457,-13.352 1.812,-20.39 3.381,0.12 3.589,2.627 4.257,4.499 2.589,7.245 6.951,13.182 12.977,17.893 5.843,4.567 10.114,4.724 14.895,0.713 4.223,-3.544 4.7,-7.664 1.519,-14.04 C 21.416,51.044 16.54,46.208 12.275,40.919 11.473,39.925 10.439,39.026 11.01,36.32"
           style="fill:#fa9696;fill-opacity:1;fill-rule:nonzero;stroke:none"
           transform="matrix(1.3333333,0,0,-1.3333333,3058.6204,-1071.0304)"
           clip-path="url(#clipPath177)" />
        <path
           id="path178"
           d="m 0,0 c 11.505,-0.844 20.963,-5.076 24.857,-16.831 3.867,-11.667 1.66,-22.652 -6.531,-31.786 -4.549,-5.073 -11.029,-6.397 -17.897,-5.77 -15.917,1.454 -27.211,17.517 -22.883,32.801 0.884,3.119 1.733,6.274 2.947,9.271 C -15.483,-2.379 -10.674,0.577 0,0"
           style="fill:#f6d876;fill-opacity:1;fill-rule:nonzero;stroke:none"
           transform="matrix(1.3333333,0,0,-1.3333333,3038.3457,-1127.5746)"
           clip-path="url(#clipPath179)" />
        <path
           id="path180"
           d="m 0,0 c -0.323,27.002 1.827,53.933 2.524,80.904 0.318,12.284 2.436,24.526 3.838,36.775 0.57,4.975 2.857,8.123 8.357,9.206 12.427,2.447 24.845,4.653 37.515,5.429 16.838,1.033 33.667,2.235 50.486,3.554 11.108,0.871 22.118,-0.172 33.001,-1.928 8.914,-1.438 13.987,-7.699 16.212,-16.273 4.171,-16.086 6.018,-32.582 7.492,-49.036 3.071,-34.287 6.168,-68.604 4.351,-103.127 -0.499,-9.492 -0.515,-9.928 -9.728,-12.851 -7.519,-2.386 -15.459,-2.993 -23.068,-3.184 -34.114,-0.858 -68.183,-3.945 -102.352,-2.464 -5.195,0.225 -10.324,0.528 -15.475,1.575 C 1.928,-49.138 0.361,-47.858 0.067,-36.102 -0.234,-24.075 0,-12.035 0,0"
           style="fill:#f6d876;fill-opacity:1;fill-rule:nonzero;stroke:none"
           transform="matrix(1.3333333,0,0,-1.3333333,2939.9498,-775.53624)"
           clip-path="url(#clipPath181)" />
        <g
           id="g187"
           clip-path="url(#clipPath188)"
           transform="translate(572.61129,-1331.0701)">
          <path
             d="m 0,0 c 23.182,0 48.889,0.103 74.594,-0.044 12.462,-0.071 15.413,-2.466 17.523,-14.778 2.405,-14.035 5.341,-16.3 -13.341,-16.648 -19.48,-0.363 -38.925,-2.487 -58.389,-3.81 -34.466,-2.344 -68.927,-1.616 -103.383,0.254 -1.621,0.088 -3.247,0.224 -4.852,0.467 -9.18,1.388 -8.895,1.496 -6.994,10.521 1.073,5.099 3.365,10.032 3.584,15.074 0.231,5.342 2.953,5.771 6.807,5.869 7.478,0.189 14.956,0.429 22.435,0.551 C -42.171,-2.221 -22.33,-1.843 0,0"
             style="fill:#f6d876;fill-opacity:1;fill-rule:nonzero;stroke:none"
             transform="matrix(1.3333333,0,0,-1.3333333,2476.026,480.164)"
             clip-path="url(#clipPath182)"
             id="path185" />
          <path
             d="m 0,0 c 40.147,-0.876 80.398,3.821 120.419,11.049 2.234,0.404 4.494,0.697 6.754,0.917 2.214,0.215 5.07,0.897 5.576,-2.176 0.603,-3.657 -2.547,-3.836 -5.122,-4.29 -6.39,-1.127 -12.768,-2.323 -19.161,-3.431 -48.852,-8.465 -98.07,-10.261 -147.505,-8.067 -6.483,0.288 -12.979,0.461 -19.442,0.997 -2.388,0.198 -6.008,0.312 -5.326,4.006 0.459,2.483 3.351,2.442 5.754,2.306 C -38.922,0.22 -19.775,-0.353 0,0"
             style="fill:#f6d876;fill-opacity:1;fill-rule:nonzero;stroke:none"
             transform="matrix(1.3333333,0,0,-1.3333333,2435.0964,561.09573)"
             clip-path="url(#clipPath183)"
             id="path186" />
          <path
             d="m 0,0 c -27.685,-0.863 -48.48,-0.158 -69.229,1.923 -1.597,0.16 -3.231,0.332 -4.748,0.814 -1.246,0.397 -2.229,1.367 -2.148,2.899 0.108,2.044 1.635,2.927 3.265,2.864 4.219,-0.163 8.42,-0.74 12.636,-1.021 50.907,-3.405 101.426,0.306 151.715,8.263 2.235,0.353 4.5,0.585 6.76,0.682 1.445,0.061 2.582,-1 2.904,-2.22 0.472,-1.786 -0.595,-3.183 -2.295,-3.729 C 97.332,9.983 95.693,9.814 94.093,9.569 60.628,4.449 27.087,0.126 0,0"
             style="fill:#f6d876;fill-opacity:1;fill-rule:nonzero;stroke:none"
             transform="matrix(1.3333333,0,0,-1.3333333,2463.4557,448.75973)"
             clip-path="url(#clipPath184)"
             id="path187" />
        </g>
        <g
           opacity="0.5"
           id="g190"
           clip-path="url(#clipPath191)"
           transform="translate(572.61129,-1331.0701)">
          <path
             d="m 0,0 c -29.855,-1.621 -56.364,11.015 -78.88,33.385 -3.95,3.925 -7.635,8.081 -9.608,13.369 -2.626,7.038 3.559,17.142 10.755,17.619 1.164,0.077 2.465,-0.653 3.578,-1.248 10.031,-5.36 20.926,-6.827 32.064,-7.122 17.559,-0.466 35.118,-0.892 52.679,-1.248 7.155,-0.145 14.239,0.529 21.372,1.389 13.236,1.594 22.116,8.807 28.205,19.983 6.269,11.507 10.573,23.814 12.527,36.766 4.609,30.543 9.265,61.095 9.006,92.128 -0.035,4.1 -1.02,9.751 3.923,11.023 5.813,1.498 7.002,-4.705 8.949,-8.5 6.33,-12.337 8.425,-25.923 10.692,-39.377 4.429,-26.286 9.137,-52.547 11.463,-79.13 1.362,-15.565 2.251,-31.111 -3.426,-46.28 C 109.43,32.417 102.384,25.282 93.148,19.825 82.358,13.449 70.491,10.146 58.416,7.395 40.004,3.2 21.492,-0.25 0,0"
             style="fill:#f6d876;fill-opacity:1;fill-rule:nonzero;stroke:none"
             transform="matrix(1.3333333,0,0,-1.3333333,2457.8372,668.19853)"
             clip-path="url(#clipPath189)"
             id="path190" />
        </g>
      </g>
    </g>
  </g>
</svg>
