<?xml version="1.0" encoding="UTF-8" standalone="no"?>
<!-- Created with Inkscape (http://www.inkscape.org/) -->

<svg
   width="38.639969mm"
   height="74.376266mm"
   viewBox="0 0 38.639969 74.376266"
   version="1.1"
   id="svg1"
   xmlns="http://www.w3.org/2000/svg"
   xmlns:svg="http://www.w3.org/2000/svg">
  <defs
     id="defs1">
    <clipPath
       clipPathUnits="userSpaceOnUse"
       id="clipPath439">
      <path
         d="M 0,1000 H 1000 V 0 H 0 Z"
         transform="matrix(1.3333333,0,0,-1.3333333,0,1333.3333)"
         id="path439" />
    </clipPath>
    <clipPath
       clipPathUnits="userSpaceOnUse"
       id="clipPath437">
      <path
         d="M 554.553,735.126 H 664.084 V 536.031 H 554.553 Z"
         transform="translate(-657.56542,-634.06491)"
         id="path437" />
    </clipPath>
    <clipPath
       clipPathUnits="userSpaceOnUse"
       id="clipPath441">
      <path
         d="M 0,1000 H 1000 V 0 H 0 Z"
         transform="translate(-654.86912,-644.03522)"
         id="path441" />
    </clipPath>
    <clipPath
       clipPathUnits="userSpaceOnUse"
       id="clipPath443">
      <path
         d="M 0,1000 H 1000 V 0 H 0 Z"
         transform="translate(-588.99221,-732.18512)"
         id="path443" />
    </clipPath>
    <clipPath
       clipPathUnits="userSpaceOnUse"
       id="clipPath445">
      <path
         d="M 0,1000 H 1000 V 0 H 0 Z"
         transform="translate(-569.97271,-625.39212)"
         id="path445" />
    </clipPath>
    <clipPath
       clipPathUnits="userSpaceOnUse"
       id="clipPath447">
      <path
         d="M 0,1000 H 1000 V 0 H 0 Z"
         transform="translate(-586.18552,-598.95951)"
         id="path447" />
    </clipPath>
    <clipPath
       clipPathUnits="userSpaceOnUse"
       id="clipPath449">
      <path
         d="M 0,1000 H 1000 V 0 H 0 Z"
         transform="translate(-623.28911,-737.86472)"
         id="path449" />
    </clipPath>
    <clipPath
       clipPathUnits="userSpaceOnUse"
       id="clipPath451">
      <path
         d="M 0,1000 H 1000 V 0 H 0 Z"
         transform="translate(-573.78131,-611.14161)"
         id="path451" />
    </clipPath>
    <clipPath
       clipPathUnits="userSpaceOnUse"
       id="clipPath453">
      <path
         d="M 0,1000 H 1000 V 0 H 0 Z"
         transform="translate(-620.02931,-729.75932)"
         id="path453" />
    </clipPath>
    <clipPath
       clipPathUnits="userSpaceOnUse"
       id="clipPath455">
      <path
         d="M 0,1000 H 1000 V 0 H 0 Z"
         transform="translate(-590.01562,-595.17771)"
         id="path455" />
    </clipPath>
    <clipPath
       clipPathUnits="userSpaceOnUse"
       id="clipPath457">
      <path
         d="M 0,1000 H 1000 V 0 H 0 Z"
         transform="translate(-623.05472,-736.70022)"
         id="path457" />
    </clipPath>
    <clipPath
       clipPathUnits="userSpaceOnUse"
       id="clipPath459">
      <path
         d="M 0,1000 H 1000 V 0 H 0 Z"
         transform="translate(-586.50292,-690.83502)"
         id="path459" />
    </clipPath>
    <clipPath
       clipPathUnits="userSpaceOnUse"
       id="clipPath461">
      <path
         d="M 0,1000 H 1000 V 0 H 0 Z"
         transform="translate(-640.70702,-679.88432)"
         id="path461" />
    </clipPath>
    <clipPath
       clipPathUnits="userSpaceOnUse"
       id="clipPath463">
      <path
         d="M 0,1000 H 1000 V 0 H 0 Z"
         transform="translate(-611.16992,-673.30572)"
         id="path463" />
    </clipPath>
    <clipPath
       clipPathUnits="userSpaceOnUse"
       id="clipPath465">
      <path
         d="M 0,1000 H 1000 V 0 H 0 Z"
         transform="translate(-614.78522,-615.21192)"
         id="path465" />
    </clipPath>
    <clipPath
       clipPathUnits="userSpaceOnUse"
       id="clipPath467">
      <path
         d="M 0,1000 H 1000 V 0 H 0 Z"
         transform="translate(-577.35352,-607.21392)"
         id="path467" />
    </clipPath>
    <clipPath
       clipPathUnits="userSpaceOnUse"
       id="clipPath469">
      <path
         d="M 0,1000 H 1000 V 0 H 0 Z"
         transform="translate(-587.47072,-698.62062)"
         id="path469" />
    </clipPath>
    <clipPath
       clipPathUnits="userSpaceOnUse"
       id="clipPath471">
      <path
         d="M 0,1000 H 1000 V 0 H 0 Z"
         transform="translate(-587.74411,-695.65281)"
         id="path471" />
    </clipPath>
    <clipPath
       clipPathUnits="userSpaceOnUse"
       id="clipPath473">
      <path
         d="M 0,1000 H 1000 V 0 H 0 Z"
         transform="translate(-641.62211,-688.18752)"
         id="path473" />
    </clipPath>
    <clipPath
       clipPathUnits="userSpaceOnUse"
       id="clipPath475">
      <path
         d="M 0,1000 H 1000 V 0 H 0 Z"
         transform="translate(-642.00292,-684.31152)"
         id="path475" />
    </clipPath>
  </defs>
  <g
     id="layer1"
     transform="translate(-85.725,-111.38958)">
    <g
       opacity="0.5"
       id="g438"
       clip-path="url(#clipPath439)"
       transform="matrix(0.26458333,0,0,0.26458333,-109.90898,22.088006)">
      <path
         d="m 0,0 c 0.424,2.737 1.026,5.981 1.665,9.407 0.006,0.024 0.01,0.048 0.014,0.071 4.058,21.778 10.252,54.124 -4.35,73.859 -3.863,5.251 -8.972,9.347 -15.192,12.265 -4.536,2.128 -9.72,3.65 -15.41,4.563 -0.015,0.002 -0.029,0.004 -0.042,0.006 -0.01,0.002 -0.02,0.004 -0.03,0.006 -0.009,10e-4 -0.019,0.003 -0.029,0.004 -16.434,2.601 -29.945,-0.546 -40.262,-9.69 -8.73,-7.761 -15.158,-19.623 -20.158,-37.851 -4.928,-17.983 -7.803,-32.305 -8.811,-43.625 -1.263,-14.176 0.385,-23.555 5.304,-29.446 -1.139,-6.253 -2.055,-15.059 2.766,-22.421 1.669,-2.546 3.857,-4.657 6.503,-6.259 1.84,-1.114 3.91,-1.982 6.152,-2.572 0.564,-0.148 1.126,-0.295 1.69,-0.443 -3.096,-19.81 -2.362,-32.068 2.234,-39.019 1.339,-2.024 3.004,-3.654 4.951,-4.838 1.154,-0.701 2.39,-1.23 3.67,-1.568 3.158,-0.84 9.277,-1.299 14.68,4.96 2.449,2.833 4.556,6.801 6.447,12.102 2.219,6.223 3.826,13.385 4.977,19.346 1.546,-0.35 3.091,-0.697 4.639,-1.04 4.587,-1.02 8.856,-0.278 12.332,2.132 6.6,4.586 8.23,13.633 9.173,20.13 C -8.419,-33.657 -3.294,-21.268 0,0"
         style="fill:#000000;fill-opacity:1;fill-rule:nonzero;stroke:none"
         transform="matrix(1.3333333,0,0,-1.3333333,876.75387,487.91347)"
         clip-path="url(#clipPath437)"
         id="path438" />
    </g>
    <path
       id="path440"
       d="m 0,0 c 0.494,2.637 1.174,5.762 1.893,9.072 l 0.015,0.069 c 4.563,20.987 11.457,52.702 -2.32,73.791 -3.646,5.579 -8.539,10.08 -14.547,13.378 -4.38,2.405 -9.408,4.193 -14.943,5.314 l -0.04,0.008 -0.029,0.007 -0.028,0.005 c -15.99,3.209 -29.23,-0.121 -39.353,-9.898 C -77.923,83.465 -84.25,70.778 -89.264,51.817 -94.207,33.12 -97.16,18.494 -98.291,7.105 c -1.418,-14.261 0.01,-23.356 4.621,-28.786 -1.217,-6.22 -2.268,-14.884 2.174,-21.651 1.537,-2.342 3.578,-4.222 6.062,-5.587 1.73,-0.949 3.682,-1.648 5.804,-2.077 l 1.599,-0.323 c -3.487,-19.201 -3.172,-30.683 0.947,-36.915 1.201,-1.814 2.721,-3.235 4.52,-4.223 1.066,-0.585 2.214,-1.004 3.412,-1.246 2.953,-0.597 8.707,-0.694 14.039,5.379 2.417,2.752 4.554,6.539 6.537,11.579 2.326,5.913 4.103,12.709 5.4,18.385 l 4.36,-0.881 c 4.308,-0.87 8.373,-0.115 11.754,2.186 6.416,4.366 8.302,12.892 9.431,19.079 C -9.188,-32.06 -3.846,-20.47 0,0"
       style="fill:#ffffff;fill-opacity:1;fill-rule:nonzero;stroke:none"
       transform="matrix(0.35277776,0,0,-0.35277776,121.11428,147.66447)"
       clip-path="url(#clipPath441)" />
    <path
       id="path442"
       d="m 0,0 c -7.887,-7.619 -13.782,-19.571 -18.553,-37.611 -4.873,-18.434 -7.781,-32.803 -8.887,-43.928 -1.428,-14.38 0.192,-22.846 5.098,-26.617 -1.252,-5.887 -3.025,-14.597 0.902,-20.582 1.885,-2.872 4.805,-4.724 8.677,-5.507 l 6.451,-1.303 c -2.696,-13.421 -5.379,-31.035 -0.723,-38.079 1.181,-1.786 2.824,-2.936 4.749,-3.325 2.315,-0.467 5.807,-0.192 9.293,3.777 2.028,2.31 3.874,5.617 5.641,10.11 2.715,6.902 4.721,15.298 6.219,22.43 l 9.184,-1.855 c 3,-0.606 5.676,-0.13 7.95,1.419 5.122,3.484 6.523,11.339 7.547,17.074 0.057,0.315 0.112,0.621 0.165,0.92 8.221,4.621 13.428,15.507 17.25,35.85 0.511,2.724 1.203,5.909 1.936,9.28 4.386,20.172 11.013,50.657 -1.621,69.994 C 55.678,0.619 46.823,6.182 34.957,8.579 L 34.894,8.592 C 20.404,11.5 8.994,8.688 0,0"
       style="fill:#000000;fill-opacity:1;fill-rule:nonzero;stroke:none"
       transform="matrix(0.35277776,0,0,-0.35277776,97.874376,116.56715)"
       clip-path="url(#clipPath443)" />
    <path
       id="path444"
       d="m 0,0 c -1.468,-7.269 -5.631,-22.019 6.846,-24.54 12.476,-2.521 30.939,-6.25 40.812,-8.245 9.872,-1.995 11.104,11.942 12.426,18.485 0,0 16.516,47.97 -24.774,56.311 C 6.682,47.794 0,0 0,0"
       style="fill:#e6e6e6;fill-opacity:1;fill-rule:nonzero;stroke:none"
       transform="matrix(0.35277776,0,0,-0.35277776,91.16472,154.24135)"
       clip-path="url(#clipPath445)" />
    <path
       id="path446"
       d="m 0,0 c -1.289,-6.387 -8.488,-38.874 1.109,-40.814 9.596,-1.939 15.2,21.804 18.25,36.903 z"
       style="fill:#ffd522;fill-opacity:1;fill-rule:nonzero;stroke:none"
       transform="matrix(0.35277776,0,0,-0.35277776,96.884236,163.56618)"
       clip-path="url(#clipPath447)" />
    <path
       id="path448"
       d="m 0,0 c -27.857,5.592 -41.437,-11.754 -49.977,-44.052 -8.539,-32.295 -13.343,-61.103 -4.765,-67.492 4.785,-3.563 10.533,-3.05 14.683,-1.899 1.832,-6.093 4.717,-10.766 12.233,-12.455 7.516,-1.691 12.71,3.57 12.71,3.57 0,0 0.118,0.099 0.311,0.261 2.885,-3.145 7.504,-6.41 14.209,-6.287 12.821,0.237 19.602,10.77 24.341,35.997 C 28.483,-67.132 47.08,-9.448 0,0"
       style="fill:#753017;fill-opacity:1;fill-rule:nonzero;stroke:none"
       transform="matrix(0.35277776,0,0,-0.35277776,109.97356,114.56351)"
       clip-path="url(#clipPath449)" />
    <path
       id="path450"
       d="m 0,0 c 0.83,5.611 3.393,11.542 7.338,6.307 3.945,-5.234 5.85,-8.56 13.066,-9.609 7.217,-1.047 12.235,3.529 17.926,0.19 5.693,-3.338 10.822,-3.465 10.822,-3.465 0,0 -0.107,-8.029 -4.957,-7.268 C 39.348,-13.085 5.417,-5.86 2.123,-5.076 -1.17,-4.293 0,0 0,0"
       style="fill:#ffffff;fill-opacity:1;fill-rule:nonzero;stroke:none"
       transform="matrix(0.35277776,0,0,-0.35277776,92.508309,159.26861)"
       clip-path="url(#clipPath451)" />
    <path
       id="path452"
       d="m 0,0 c -17.886,2.949 -32.658,-15.146 -39.854,-48.979 -7.195,-33.834 -0.591,-39.82 22.892,-44.563 23.483,-4.745 31.031,4.305 35.696,34.054 C 23.4,-29.74 20.393,-3.361 0,0"
       style="fill:#944d33;fill-opacity:1;fill-rule:nonzero;stroke:none"
       transform="matrix(0.35277776,0,0,-0.35277776,108.82357,117.42292)"
       clip-path="url(#clipPath453)" />
    <path
       id="path454"
       d="m 0,0 c 0,0 -7.369,-27.24 -1.867,-28.962 5.502,-1.723 10.588,27.2 10.588,27.2 z"
       style="fill:#fff292;fill-opacity:1;fill-rule:nonzero;stroke:none"
       transform="matrix(0.35277776,0,0,-0.35277776,98.23541,164.90032)"
       clip-path="url(#clipPath455)" />
    <path
       id="path456"
       d="m 0,0 c 0.023,-0.005 0.046,-0.01 0.068,-0.014 10.729,-2.168 18.688,-7.117 23.657,-14.713 11.695,-17.877 5.288,-47.345 1.047,-66.845 -0.74,-3.404 -1.438,-6.618 -1.962,-9.402 -4.693,-24.985 -11.197,-34.805 -23.193,-35.027 -11.832,-0.218 -16.703,10.712 -16.916,11.202 -0.259,0.604 -0.957,0.884 -1.56,0.625 -0.604,-0.258 -0.883,-0.957 -0.625,-1.56 0.025,-0.055 1.053,-2.387 3.257,-5.033 -1.391,-1.143 -5.585,-4.04 -11.104,-2.808 -6.526,1.468 -9.228,5.24 -10.989,10.489 2.668,0.87 4.474,1.889 4.666,2 0.568,0.326 0.764,1.053 0.437,1.622 -0.326,0.568 -1.052,0.766 -1.623,0.439 -0.109,-0.063 -11.096,-6.258 -18.959,-0.401 -6.823,5.081 -5.072,27.366 5.207,66.236 C -39.274,-7.951 -24.742,4.966 0,0 m 5.39,-127.781 c -0.894,-5.007 -2.119,-11.867 -5.79,-14.365 -1.334,-0.908 -2.901,-1.163 -4.788,-0.782 l -40.814,8.245 c -2.781,0.563 -4.752,1.778 -6.021,3.712 -3.04,4.632 -1.362,12.507 -0.251,17.718 0.014,0.068 0.027,0.132 0.042,0.199 3.99,-1.724 8.209,-1.467 11.619,-0.672 1.705,-5.139 4.719,-10.36 12.761,-12.168 0.112,-0.025 0.221,-0.048 0.331,-0.071 6.511,-1.315 11.303,2.085 12.907,3.442 2.375,-2.344 5.668,-4.601 10.001,-5.477 1.326,-0.268 2.75,-0.406 4.273,-0.378 2.069,0.038 3.994,0.344 5.786,0.91 -0.018,-0.106 -0.038,-0.205 -0.056,-0.313 m -40.914,-49.608 c -0.841,0.17 -1.529,0.675 -2.103,1.541 -2.971,4.494 -2.402,16.845 1.686,36.708 l 17.03,-3.44 c -2.103,-10.342 -7.761,-36.597 -16.613,-34.809 m 2.7,171.591 c -7.643,-7.384 -13.383,-19.072 -18.067,-36.785 -10.847,-41.024 -12.222,-62.87 -4.326,-68.75 0.264,-0.198 0.531,-0.38 0.803,-0.556 -0.061,-0.28 -0.121,-0.57 -0.186,-0.869 -1.193,-5.597 -2.994,-14.057 0.589,-19.517 1.615,-2.459 4.15,-4.053 7.539,-4.737 l 8.199,-1.657 c -1.59,-7.727 -6.348,-30.91 -1.337,-38.489 0.926,-1.403 2.143,-2.265 3.614,-2.562 10.014,-2.023 15.637,18.265 19.414,36.669 l 10.924,-2.206 c 2.512,-0.509 4.729,-0.123 6.593,1.145 4.502,3.062 5.827,10.489 6.795,15.914 0.116,0.64 0.223,1.234 0.33,1.797 2.994,1.51 5.569,3.889 7.768,7.178 3.885,5.808 6.846,14.646 9.319,27.811 0.517,2.751 1.212,5.948 1.949,9.334 4.324,19.888 10.859,49.942 -1.381,68.651 C 20.384,-5.279 11.914,0.018 0.541,2.316 0.516,2.321 0.492,2.326 0.469,2.331 -13.393,5.113 -24.283,2.454 -32.824,-5.798"
       style="fill:#000000;fill-opacity:1;fill-rule:nonzero;stroke:none"
       transform="matrix(0.35277776,0,0,-0.35277776,109.89087,114.97432)"
       clip-path="url(#clipPath457)" />
    <path
       id="path458"
       d="M 0,0 C 2.917,-0.589 5.772,1.305 6.361,4.224 6.95,7.142 5.056,9.995 2.138,10.584 -0.78,11.174 -3.634,9.28 -4.224,6.361 -4.813,3.444 -2.918,0.589 0,0"
       style="fill:#000000;fill-opacity:1;fill-rule:nonzero;stroke:none"
       transform="matrix(0.35277776,0,0,-0.35277776,96.996208,131.15455)"
       clip-path="url(#clipPath459)" />
    <path
       id="path460"
       d="M 0,0 C 2.918,-0.59 5.772,1.304 6.361,4.223 6.951,7.141 5.057,9.995 2.138,10.584 -0.781,11.174 -3.635,9.28 -4.224,6.362 -4.812,3.443 -2.92,0.59 0,0"
       style="fill:#000000;fill-opacity:1;fill-rule:nonzero;stroke:none"
       transform="matrix(0.35277776,0,0,-0.35277776,116.11821,135.01771)"
       clip-path="url(#clipPath461)" />
    <path
       id="path462"
       d="M 0,0 C 8.645,-1.747 13.299,3.398 13.492,3.619 13.927,4.111 13.88,4.862 13.388,5.296 12.895,5.729 12.145,5.684 11.709,5.19 11.671,5.147 7.783,0.853 0.471,2.33 -6.795,3.798 -8.797,8.724 -8.882,8.941 -9.115,9.551 -9.799,9.859 -10.411,9.628 -11.025,9.397 -11.336,8.712 -11.105,8.098 -11.007,7.84 -8.617,1.741 0,0"
       style="fill:#000000;fill-opacity:1;fill-rule:nonzero;stroke:none"
       transform="matrix(0.35277776,0,0,-0.35277776,105.69818,137.33849)"
       clip-path="url(#clipPath463)" />
    <path
       id="path464"
       d="m 0,0 c 1.062,-0.689 2.316,-1.178 3.682,-1.453 2.034,-0.411 4.315,-0.351 6.573,0.21 4.167,1.038 7.559,3.581 9.551,7.164 3.829,6.882 7.444,13.383 11.795,37.996 0.114,0.647 -0.321,1.277 -0.963,1.377 C 29.991,45.409 29.375,44.977 29.26,44.331 24.979,20.111 21.457,13.779 17.728,7.075 16.059,4.076 13.201,1.941 9.681,1.065 6.581,0.293 3.366,0.649 1.294,1.994 0.742,2.352 0.006,2.196 -0.352,1.644 -0.709,1.093 -0.551,0.357 0,0"
       style="fill:#000000;fill-opacity:1;fill-rule:nonzero;stroke:none"
       transform="matrix(0.35277776,0,0,-0.35277776,106.97357,157.8327)"
       clip-path="url(#clipPath465)" />
    <path
       id="path466"
       d="m 0,0 c -0.671,0.162 -1.074,0.258 -1.162,0.276 -0.642,0.129 -1.265,-0.285 -1.397,-0.926 -0.13,-0.643 0.284,-1.27 0.926,-1.404 0.092,-0.02 0.465,-0.11 1.078,-0.258 9.491,-2.28 17.328,-4.001 23.754,-5.299 8.789,-1.776 14.938,-2.761 19.053,-3.307 0.65,-0.086 1.248,0.371 1.334,1.022 0.088,0.651 -0.37,1.247 -1.021,1.335 C 35.496,-7.624 22.375,-5.376 0,0"
       style="fill:#000000;fill-opacity:1;fill-rule:nonzero;stroke:none"
       transform="matrix(0.35277776,0,0,-0.35277776,93.768503,160.65421)"
       clip-path="url(#clipPath467)" />
    <path
       id="path468"
       d="m 0,0 c -0.316,0.396 -0.715,0.563 -1.195,0.66 -0.953,0.192 -1.869,-0.67 -1.971,-1.572 -0.053,-0.468 0.084,-0.944 0.377,-1.312 0.314,-0.395 0.715,-0.563 1.195,-0.66 0.953,-0.193 1.869,0.67 1.971,1.572 C 0.43,-0.844 0.293,-0.368 0,0"
       style="fill:#ffffff;fill-opacity:1;fill-rule:nonzero;stroke:none"
       transform="matrix(0.35277776,0,0,-0.35277776,97.337626,128.40796)"
       clip-path="url(#clipPath469)" />
    <path
       id="path470"
       d="m 0,0 c -0.477,0.096 -0.935,-0.335 -0.986,-0.787 -0.058,-0.514 0.31,-0.889 0.787,-0.986 0.476,-0.095 0.933,0.336 0.984,0.788 C 0.844,-0.472 0.475,-0.096 0,0"
       style="fill:#ffffff;fill-opacity:1;fill-rule:nonzero;stroke:none"
       transform="matrix(0.35277776,0,0,-0.35277776,97.434075,129.45493)"
       clip-path="url(#clipPath471)" />
    <path
       id="path472"
       d="m 0,0 c -0.362,0.452 -0.819,0.644 -1.369,0.755 -1.093,0.222 -2.142,-0.767 -2.259,-1.801 -0.06,-0.537 0.097,-1.081 0.432,-1.502 0.362,-0.454 0.82,-0.646 1.369,-0.756 1.094,-0.222 2.142,0.767 2.26,1.801 C 0.493,-0.967 0.336,-0.422 0,0"
       style="fill:#ffffff;fill-opacity:1;fill-rule:nonzero;stroke:none"
       transform="matrix(0.35277776,0,0,-0.35277776,116.44103,132.08853)"
       clip-path="url(#clipPath473)" />
    <path
       id="path474"
       d="m 0,0 c -0.436,0.089 -0.856,-0.307 -0.903,-0.721 -0.053,-0.47 0.285,-0.815 0.72,-0.903 0.438,-0.089 0.858,0.307 0.903,0.721 C 0.774,-0.432 0.437,-0.088 0,0"
       style="fill:#ffffff;fill-opacity:1;fill-rule:nonzero;stroke:none"
       transform="matrix(0.35277776,0,0,-0.35277776,116.57537,133.45589)"
       clip-path="url(#clipPath475)" />
  </g>
</svg>
