<?xml version="1.0" encoding="UTF-8" standalone="no"?>
<!-- Created with Inkscape (http://www.inkscape.org/) -->

<svg
   width="50.974979mm"
   height="53.586063mm"
   viewBox="0 0 50.974979 53.586063"
   version="1.1"
   id="svg1"
   xmlns="http://www.w3.org/2000/svg"
   xmlns:svg="http://www.w3.org/2000/svg">
  <defs
     id="defs1">
    <filter
       style="color-interpolation-filters:sRGB"
       id="filter2"
       x="-0.0494521"
       y="-0.046736772"
       width="1.1342271"
       height="1.126857">
      <feFlood
         result="flood"
         in="SourceGraphic"
         flood-opacity="0.498039"
         flood-color="rgb(0,0,0)"
         id="feFlood1" />
      <feGaussianBlur
         result="blur"
         in="SourceGraphic"
         stdDeviation="3.500000"
         id="feGaussianBlur1" />
      <feOffset
         result="offset"
         in="blur"
         dx="6.000000"
         dy="6.000000"
         id="feOffset1" />
      <feComposite
         result="comp1"
         operator="in"
         in="flood"
         in2="offset"
         id="feComposite1" />
      <feComposite
         result="comp2"
         operator="over"
         in="SourceGraphic"
         in2="comp1"
         id="feComposite2" />
    </filter>
  </defs>
  <g
     id="layer1"
     transform="translate(-79.798334,-122.39626)">
    <g
       id="g1358"
       transform="matrix(0.26458333,0,0,0.26458333,-133.57793,-0.66675)"
       style="filter:url(#filter2)">
      <path
         class="uuid-fa854ba6-01a3-466e-8ba2-f49efd3c3140"
         d="m 969.2,604.7 c 1.65,-0.23 3.24,-0.53 4.8,-1.21 3.4,-1.49 5.66,-4.48 6.2,-8.2 0.71,-4.98 -1.73,-9.59 -7.28,-13.68 -3.04,-2.25 -7.15,-4.49 -12.57,-6.87 -2.34,-1.03 -4.8,-2.02 -7.25,-2.95 3.79,-1.48 7.45,-3.04 10.84,-4.62 15.08,-7.05 21.1,-12.7 20.77,-19.48 -0.17,-3.54 -2,-8.36 -9.74,-11.24 -3.17,-1.18 -7,-1.96 -10.72,-2.71 8.14,-11.69 12.62,-20.1 12.2,-26.72 0.2,-1.8 -0.2,-3.67 -1.26,-5.29 -0.54,-0.82 -1.09,-1.39 -1.39,-1.68 -0.36,-0.4 -0.76,-0.78 -1.18,-1.13 -0.03,-0.03 -0.06,-0.06 -0.1,-0.09 -0.97,-0.88 -2.09,-1.48 -3.28,-1.81 -1.48,-0.53 -3.12,-0.8 -4.91,-0.8 v 0 c -6.68,0 -15.71,3.81 -24.93,8.39 -0.18,-3.79 -0.38,-7.69 -1.07,-11 -1.69,-8.08 -6.18,-10.61 -9.65,-11.31 -0.64,-0.13 -1.3,-0.19 -1.97,-0.19 -4.5,0 -10.13,2.23 -20.81,18.43 -1.93,2.93 -3.88,6.11 -5.78,9.41 -0.56,-2.57 -1.17,-5.14 -1.83,-7.62 -1.54,-5.71 -3.14,-10.11 -4.91,-13.46 -3.22,-6.09 -7.4,-9.2 -12.44,-9.24 -0.02,0 -0.07,0 -0.1,0 -3.79,0 -6.97,1.75 -8.96,4.94 -0.9,1.43 -1.42,2.94 -1.89,4.53 -6.33,-8.77 -12.35,-15.58 -20.43,-15.58 -1.21,0 -2.42,0.17 -3.6,0.49 -2.58,0.72 -4.74,2.48 -6.1,4.97 -1.42,2.6 -2.8,7.13 -0.9,19.22 0.29,1.86 0.65,3.83 1.07,5.87 -5.33,-2.27 -9.11,-3.56 -12.33,-3.56 v 0 c -5.55,0 -9.7,3.91 -9.88,9.3 -0.36,10.88 7.85,21.76 16.42,31.7 -11.86,0.88 -18.83,5.14 -19.35,11.98 -0.48,6.38 5.19,12.64 10.04,16.78 6.38,5.45 14.64,9.9 23.24,12.53 2.3,0.7 5.44,1.96 9.15,3.63 -10.97,10.52 -18.29,18.75 -21.79,24.52 -2.12,3.5 -1.76,7.94 0.91,11.05 0.67,0.78 1.44,1.43 2.31,1.94 0.82,0.5 3.13,1.72 5.96,1.72 3.18,0 6.02,-1.57 7.61,-4.2 3.33,-5.49 9.72,-12.96 18.39,-21.55 1.02,4.07 2.04,8.62 2.58,12.31 1.31,8.9 4.48,17.73 8.91,24.86 3.36,5.41 8.71,11.95 15.08,12.43 0.24,0.02 0.48,0.03 0.72,0.03 2,0 4.97,-0.62 7.76,-3.6 2.7,-2.88 4.87,-7.86 6.25,-13.84 8.25,9.56 17.51,18.94 28.37,20.97 0.63,0.12 1.26,0.18 1.89,0.18 2.92,0 5.61,-1.32 7.36,-3.61 3.01,-3.94 2.51,-8.75 0.25,-17.59 7.37,2.71 14.71,4.74 19.76,4.74 7.08,0 9.85,-3.81 10.88,-6.08 2.4,-5.34 1.17,-11.27 -3.66,-17.63 -2.08,-2.74 -4.74,-5.52 -7.66,-8.39 z"
         id="path1355"
         style="fill:#ffffff;stroke-width:0px" />
      <g
         id="g1357">
        <path
           class="uuid-3d6bf51a-7b62-45f3-8817-48e5f10f5d28"
           d="m 973.22,627.43 c 3.03,-6.75 -8.98,-16.06 -19.86,-26.9 12.66,-5.36 18.33,-2.27 18.92,-6.38 1.44,-10.02 -45.63,-22.25 -44.39,-22.57 21.71,-5.54 49.11,-17.7 48.83,-23.5 -0.28,-5.8 -17.11,-5.94 -25.68,-9.47 0.77,-1.93 19.87,-25.18 17.17,-32.26 l 0.28,-0.23 c -0.18,-0.27 -0.42,-0.45 -0.61,-0.68 -0.17,-0.2 -0.38,-0.37 -0.6,-0.52 -0.05,-0.06 -0.09,-0.12 -0.15,-0.17 l -0.06,0.05 c -6.61,-3.71 -32.44,11.68 -34.46,12.15 -2.21,-9 0.18,-25.66 -5.52,-26.8 -5.7,-1.15 -21.82,24.12 -30.55,44.75 -0.5,1.18 -5.55,-47.19 -15.67,-47.27 -4.15,-0.03 -1.95,6.04 -9.14,17.76 -9.08,-12.39 -16.49,-25.66 -23.62,-23.67 -4.47,1.25 -1.03,20.84 3.78,36.29 -15.58,-6.67 -25.92,-12.37 -26.07,-7.95 -0.43,12.96 18.96,30 26.84,40.75 -15.43,-3.38 -29.51,-0.44 -29.79,3.26 -0.31,4.1 10.43,15.79 27.64,21.06 9.16,2.8 24.47,11.14 24.47,11.14 0.65,0.76 4.82,15.3 6.22,24.78 2.63,17.81 12.58,30.17 16.68,30.48 3.71,0.28 8.71,-13.2 7.69,-28.96 9.45,9.4 22.71,30.09 36.28,32.64 4.35,0.81 0.31,-10.56 -3.96,-26.96 14.56,7.07 33.42,13.41 35.32,9.17 z"
           id="path1356"
           style="fill:#f15a24;stroke-width:0px" />
        <path
           class="uuid-0c38460c-3539-487b-b8c3-ed2be3b7f4b3"
           d="m 967.78,622.87 c 0.37,-0.71 0.11,-1.58 -0.6,-1.96 l -54.03,-28.82 53.15,1.02 c 0.8,0.01 1.46,-0.62 1.47,-1.42 0.02,-0.8 -0.62,-1.46 -1.42,-1.47 l -58.83,-1.13 -9.7,-5.18 c 0,0 -0.02,0 -0.02,-0.01 l -13.27,-7.43 19.99,-17.07 c 0.23,0.1 64.48,-7.74 64.48,-7.74 0.79,-0.1 1.36,-0.82 1.26,-1.61 -0.09,-0.79 -0.82,-1.36 -1.61,-1.26 l -60.43,7.45 53.6,-45.77 c 0.61,-0.52 0.68,-1.43 0.16,-2.04 0,0 0,0 0,0 -0.52,-0.6 -1.43,-0.67 -2.04,-0.16 l -42.21,36.04 9.46,-46.6 c 0.16,-0.78 -0.35,-1.55 -1.13,-1.7 -0.78,-0.16 -1.55,0.35 -1.71,1.13 l -10.19,50.22 -30.66,26.18 -3.78,-10.69 c 0,0 0,0 0,0 l -3.67,-10.38 7.7,-58.33 c 0.1,-0.79 -0.45,-1.52 -1.24,-1.62 -0.79,-0.11 -1.52,0.45 -1.62,1.24 l -6.95,52.7 -20.4,-57.74 c -0.27,-0.75 -1.09,-1.15 -1.85,-0.88 -0.75,0.26 -1.15,1.09 -0.88,1.84 l 24,67.91 -43.12,-44.53 c -0.56,-0.58 -1.47,-0.59 -2.04,-0.03 -0.55,0.54 -0.59,1.4 -0.09,1.98 0.02,0.02 0.04,0.04 0.06,0.06 l 47.51,49.06 1.95,5.52 -51.61,-16.03 c -0.76,-0.24 -1.57,0.19 -1.81,0.95 -0.15,0.49 -0.03,1.01 0.28,1.37 0.17,0.2 0.4,0.35 0.67,0.44 l 52.3,16.25 c 0.41,0.13 2.25,2.91 2.25,2.91 0,0 -30.81,26.42 -38.77,39.53 -0.33,0.55 -0.26,1.23 0.14,1.69 0.1,0.11 0.21,0.21 0.34,0.29 0.68,0.41 2.2,0.93 2.62,0.25 9.68,-15.97 36.71,-38.85 36.71,-38.85 0.04,0.1 6.15,3.65 6.15,3.65 -0.25,0.31 7.92,55.28 7.92,55.28 0.04,0.28 0.16,0.53 0.33,0.72 0.31,0.36 0.8,0.57 1.31,0.49 0.79,-0.12 1.33,-0.86 1.21,-1.65 l -8.13,-53.43 5.17,2.75 41.4,54.32 c 0,0 0.04,0.05 0.06,0.07 0.49,0.58 1.36,0.67 1.97,0.21 0.63,-0.48 0.76,-1.39 0.27,-2.03 l -37.58,-49.3 63.55,33.9 c 0.7,0.38 1.58,0.11 1.96,-0.59 z"
           id="path1357"
           style="fill:#e01221;stroke-width:0px" />
      </g>
    </g>
  </g>
</svg>
