<?xml version="1.0" encoding="UTF-8" standalone="no"?>
<!-- Created with Inkscape (http://www.inkscape.org/) -->

<svg
   width="42.772541mm"
   height="46.153919mm"
   viewBox="0 0 42.772541 46.153919"
   version="1.1"
   id="svg1"
   xmlns="http://www.w3.org/2000/svg"
   xmlns:svg="http://www.w3.org/2000/svg">
  <defs
     id="defs1">
    <filter
       style="color-interpolation-filters:sRGB"
       id="filter2"
       x="-0.060492582"
       y="-0.055394355"
       width="1.1641942"
       height="1.1503561">
      <feFlood
         result="flood"
         in="SourceGraphic"
         flood-opacity="0.498039"
         flood-color="rgb(0,0,0)"
         id="feFlood1" />
      <feGaussianBlur
         result="blur"
         in="SourceGraphic"
         stdDeviation="3.500000"
         id="feGaussianBlur1" />
      <feOffset
         result="offset"
         in="blur"
         dx="6.000000"
         dy="6.000000"
         id="feOffset1" />
      <feComposite
         result="comp1"
         operator="in"
         in="flood"
         in2="offset"
         id="feComposite1" />
      <feComposite
         result="comp2"
         operator="over"
         in="SourceGraphic"
         in2="comp1"
         id="feComposite2" />
    </filter>
  </defs>
  <g
     id="layer1"
     transform="translate(-83.878313,-93.326864)">
    <g
       id="g1337"
       transform="matrix(0.26458333,0,0,0.26458333,-85.256581,-20.983721)"
       style="filter:url(#filter2)">
      <path
         class="uuid-fa854ba6-01a3-466e-8ba2-f49efd3c3140"
         d="m 786.51,508.66 c 0,-37.62 -31.15,-68.22 -69.43,-68.22 -38.28,0 -69.43,30.61 -69.43,68.22 0,13.34 11.64,23.42 32.99,28.81 -0.83,5.18 -1.26,10.54 -1.26,16 0,16.33 3.79,26.75 11.94,32.77 7.29,5.4 16.34,5.84 25.76,5.84 9.42,0 18.46,-0.45 25.75,-5.84 8.15,-6.03 11.94,-16.44 11.94,-32.77 0,-5.46 -0.42,-10.82 -1.26,-16 21.36,-5.39 32.99,-15.47 32.99,-28.81 z"
         id="path1326"
         style="fill:#ffffff;stroke-width:0px" />
      <g
         id="g1336">
        <path
           class="uuid-54291340-070a-4cc8-ad42-b434ce76c804"
           d="m 746.78,553.47 c 0,29.43 -13.29,30.62 -29.69,30.62 -16.4,0 -29.7,-1.19 -29.7,-30.62 0,-29.43 13.29,-53.28 29.7,-53.28 16.41,0 29.69,23.85 29.69,53.28 z"
           id="path1327"
           style="fill:#e0ceba;stroke-width:0px" />
        <path
           class="uuid-c26a5bd8-0e6e-40ec-aa0f-9c0c25911c3d"
           d="m 778.51,508.66 c 0,33.26 -122.87,33.26 -122.87,0 0,-33.26 27.5,-60.22 61.43,-60.22 33.93,0 61.43,26.96 61.43,60.22 z"
           id="path1328"
           style="fill:#dd142c;stroke-width:0px" />
        <path
           class="uuid-a4db9f68-8812-465a-bedb-5f87680ed4d8"
           d="m 769.37,505.89 c 0,29.94 -110.58,29.94 -110.58,0 0,-29.94 24.75,-54.2 55.29,-54.2 30.54,0 55.29,24.27 55.29,54.2 z"
           id="path1329"
           style="fill:#ed1c24;stroke-width:0px" />
        <path
           class="uuid-fa854ba6-01a3-466e-8ba2-f49efd3c3140"
           d="m 692.19,475.62 c 0,4.48 -3.71,8.11 -8.27,8.11 -4.56,0 -8.28,-3.63 -8.28,-8.11 0,-4.48 3.71,-8.11 8.28,-8.11 4.57,0 8.27,3.63 8.27,8.11 z"
           id="path1330"
           style="fill:#ffffff;stroke-width:0px" />
        <path
           class="uuid-fa854ba6-01a3-466e-8ba2-f49efd3c3140"
           d="m 718.81,521.27 c 0,4.48 -3.7,8.11 -8.27,8.11 -4.57,0 -8.27,-3.63 -8.27,-8.11 0,-4.48 3.7,-8.11 8.27,-8.11 4.57,0 8.27,3.63 8.27,8.11 z"
           id="path1331"
           style="fill:#ffffff;stroke-width:0px" />
        <path
           class="uuid-fa854ba6-01a3-466e-8ba2-f49efd3c3140"
           d="m 675.64,510.15 c 0,2.82 -2.33,5.11 -5.21,5.11 -2.88,0 -5.21,-2.29 -5.21,-5.11 0,-2.82 2.33,-5.11 5.21,-5.11 2.88,0 5.21,2.29 5.21,5.11 z"
           id="path1332"
           style="fill:#ffffff;stroke-width:0px" />
        <path
           class="uuid-fa854ba6-01a3-466e-8ba2-f49efd3c3140"
           d="m 727.5,494.14 c 0,2.82 -2.33,5.11 -5.21,5.11 -2.88,0 -5.21,-2.29 -5.21,-5.11 0,-2.82 2.33,-5.11 5.21,-5.11 2.88,0 5.21,2.29 5.21,5.11 z"
           id="path1333"
           style="fill:#ffffff;stroke-width:0px" />
        <path
           class="uuid-fa854ba6-01a3-466e-8ba2-f49efd3c3140"
           d="m 762.39,516.16 c 0,2.82 -2.33,5.11 -5.21,5.11 -2.88,0 -5.21,-2.29 -5.21,-5.11 0,-2.82 2.33,-5.11 5.21,-5.11 2.88,0 5.21,2.29 5.21,5.11 z"
           id="path1334"
           style="fill:#ffffff;stroke-width:0px" />
        <path
           class="uuid-fa854ba6-01a3-466e-8ba2-f49efd3c3140"
           d="m 765.45,489.03 c 0,4.48 -3.7,8.11 -8.27,8.11 -4.57,0 -8.27,-3.63 -8.27,-8.11 0,-4.48 3.7,-8.11 8.27,-8.11 4.57,0 8.27,3.63 8.27,8.11 z"
           id="path1335"
           style="fill:#ffffff;stroke-width:0px" />
        <path
           class="uuid-fa854ba6-01a3-466e-8ba2-f49efd3c3140"
           d="m 735.36,462.86 c 0,4.48 -3.7,8.11 -8.27,8.11 -4.57,0 -8.27,-3.63 -8.27,-8.11 0,-4.48 3.7,-8.11 8.27,-8.11 4.57,0 8.27,3.63 8.27,8.11 z"
           id="path1336"
           style="fill:#ffffff;stroke-width:0px" />
      </g>
    </g>
  </g>
</svg>
