<?xml version="1.0" encoding="UTF-8" standalone="no"?>
<!-- Created with Inkscape (http://www.inkscape.org/) -->

<svg
   width="70.442924mm"
   height="65.984085mm"
   viewBox="0 0 70.442924 65.984085"
   version="1.1"
   id="svg1"
   xmlns="http://www.w3.org/2000/svg"
   xmlns:svg="http://www.w3.org/2000/svg">
  <defs
     id="defs1">
    <clipPath
       clipPathUnits="userSpaceOnUse"
       id="clipPath61">
      <path
         d="M 0,1000 H 1000 V 0 H 0 Z"
         transform="matrix(1.3333333,0,0,-1.3333333,0,1333.3333)"
         id="path61" />
    </clipPath>
    <clipPath
       clipPathUnits="userSpaceOnUse"
       id="clipPath59">
      <path
         d="M 320.919,740.889 H 520.6 V 564.029 H 320.919 Z"
         transform="translate(-509.67481,-595.87701)"
         id="path59" />
    </clipPath>
    <clipPath
       clipPathUnits="userSpaceOnUse"
       id="clipPath63">
      <path
         d="M 0,1000 H 1000 V 0 H 0 Z"
         transform="translate(-500.67481,-606.14652)"
         id="path63" />
    </clipPath>
    <clipPath
       clipPathUnits="userSpaceOnUse"
       id="clipPath65">
      <path
         d="M 0,1000 H 1000 V 0 H 0 Z"
         transform="translate(-503.47661,-616.19142)"
         id="path65" />
    </clipPath>
    <clipPath
       clipPathUnits="userSpaceOnUse"
       id="clipPath67">
      <path
         d="M 0,1000 H 1000 V 0 H 0 Z"
         transform="translate(-457.03171,-582.68751)"
         id="path67" />
    </clipPath>
    <clipPath
       clipPathUnits="userSpaceOnUse"
       id="clipPath69">
      <path
         d="M 0,1000 H 1000 V 0 H 0 Z"
         transform="translate(-436.33941,-607.03032)"
         id="path69" />
    </clipPath>
    <clipPath
       clipPathUnits="userSpaceOnUse"
       id="clipPath71">
      <path
         d="M 0,1000 H 1000 V 0 H 0 Z"
         transform="translate(-457.50831,-619.16112)"
         id="path71" />
    </clipPath>
    <clipPath
       clipPathUnits="userSpaceOnUse"
       id="clipPath73">
      <path
         d="M 0,1000 H 1000 V 0 H 0 Z"
         transform="translate(-390.69781,-685.94042)"
         id="path73" />
    </clipPath>
    <clipPath
       clipPathUnits="userSpaceOnUse"
       id="clipPath75">
      <path
         d="M 0,1000 H 1000 V 0 H 0 Z"
         transform="translate(-385.06691,-620.04792)"
         id="path75" />
    </clipPath>
    <clipPath
       clipPathUnits="userSpaceOnUse"
       id="clipPath77">
      <path
         d="M 0,1000 H 1000 V 0 H 0 Z"
         transform="translate(-460.50981,-646.99322)"
         id="path77" />
    </clipPath>
  </defs>
  <g
     id="layer1"
     transform="translate(-69.85,-115.62291)">
    <g
       opacity="0.5"
       id="g60"
       clip-path="url(#clipPath61)"
       transform="matrix(0.26458333,0,0,0.26458333,-43.363087,27.806119)"
       style="opacity:0.5">
      <path
         d="m 0,0 c 0.248,-0.021 0.494,-0.03 0.736,-0.028 3.235,0.015 6.155,1.909 7.431,4.825 1.384,3.159 0.598,6.913 -1.945,9.329 -10.534,10.022 -20.967,19.976 -31.305,29.862 11.347,11.56 22.567,23.336 33.658,35.325 0.83,0.862 1.479,1.916 1.875,3.056 0.729,2.093 0.615,4.344 -0.316,6.335 -0.756,1.617 -1.98,2.904 -3.506,3.715 -0.066,0.062 -0.131,0.124 -0.195,0.186 -0.2,0.065 -0.399,0.131 -0.597,0.197 C 5.563,92.948 5.29,93.094 5.019,93.24 4.901,93.235 4.784,93.23 4.668,93.225 4.652,93.231 4.636,93.237 4.62,93.243 4.513,93.238 4.405,93.233 4.297,93.229 3.723,93.333 3.138,93.372 2.549,93.348 1.886,93.319 1.227,93.208 0.589,93.017 c -15.317,-4.439 -30.694,-8.696 -46.13,-12.769 1.216,8.829 2.421,17.674 3.614,26.533 0.466,3.485 -1.319,6.816 -4.431,8.288 -0.242,0.113 -0.461,0.202 -0.682,0.283 -0.987,0.351 -1.977,0.503 -2.984,0.467 -2.131,-0.077 -4.129,-0.974 -5.63,-2.525 -6.258,-6.46 -12.554,-12.852 -18.889,-19.178 -8.75,15.78 -17.367,31.427 -25.855,46.941 -0.888,1.625 -2.345,2.866 -4.102,3.495 -0.928,0.333 -1.905,0.486 -2.904,0.456 -0.41,-0.012 -0.823,-0.056 -1.228,-0.132 -3.331,-0.609 -6.013,-3.228 -6.666,-6.518 -3.478,-17.494 -7.013,-34.909 -10.603,-52.245 -6.527,2.953 -13.036,5.902 -19.527,8.848 -0.008,0.004 -0.016,0.008 -0.025,0.012 -0.009,0.004 -0.017,0.007 -0.026,0.011 -0.137,0.06 -0.278,0.119 -0.419,0.173 -0.93,0.355 -1.92,0.538 -2.935,0.542 -2.294,0.008 -4.51,-0.918 -6.082,-2.537 -2.456,-2.534 -2.914,-6.209 -1.12,-9.17 1.739,-2.871 3.482,-5.747 5.231,-8.628 -8.523,0.24 -17.046,0.513 -25.566,0.819 -0.014,10e-4 -0.028,0.002 -0.042,0.002 -0.029,0 -0.06,0.001 -0.09,0.002 -3.299,0.068 -6.307,-1.713 -7.669,-4.538 -1.387,-2.876 -0.776,-6.196 1.566,-8.471 9.954,-9.682 19.999,-19.439 30.137,-29.268 -11.419,-15.223 -22.999,-30.17 -34.734,-44.841 -2.196,-2.739 -2.055,-6.569 0.36,-9.335 0.864,-0.984 1.968,-1.777 3.202,-2.301 0.971,-0.412 1.999,-0.655 3.055,-0.721 1.273,-0.079 2.559,0.113 3.718,0.556 18.715,7.149 37.3,14.646 55.746,22.491 1.728,-8.067 3.471,-16.15 5.225,-24.249 0.571,-2.625 2.485,-4.837 5.124,-5.918 0.176,-0.073 0.366,-0.144 0.561,-0.208 0.813,-0.273 1.657,-0.429 2.511,-0.464 2.136,-0.089 4.178,0.582 5.749,1.89 6.687,5.572 13.339,11.211 19.955,16.917 10.772,-6.12 21.605,-12.26 32.499,-18.419 0.357,-0.202 0.731,-0.381 1.115,-0.532 0.977,-0.388 2.016,-0.599 3.076,-0.622 1.517,-0.033 3.003,0.331 4.294,1.052 2.579,1.436 4.112,4.148 4.008,7.065 -0.326,9.012 -0.649,18.021 -0.972,27.03 C -25.331,2.142 -12.672,1.042 0,0"
         style="fill:#000000;fill-opacity:1;fill-rule:nonzero;stroke:none"
         transform="matrix(1.3333333,0,0,-1.3333333,679.5664,538.83067)"
         clip-path="url(#clipPath59)"
         id="path60" />
    </g>
    <path
       id="path62"
       d="m 0,0 c 0.236,-0.021 0.47,-0.031 0.702,-0.031 3.086,0 5.923,1.807 7.227,4.605 1.412,3.03 0.769,6.653 -1.598,9.012 l -29.432,29.364 33.6,33.354 c 0.838,0.798 1.502,1.786 1.926,2.865 0.777,1.984 0.736,4.15 -0.115,6.101 -0.693,1.586 -1.854,2.875 -3.329,3.719 l -0.185,0.187 -0.58,0.215 -0.79,0.455 H 7.081 l -0.046,0.02 H 6.718 c -0.563,0.124 -1.135,0.186 -1.713,0.186 -0.653,0 -1.303,-0.08 -1.935,-0.238 l -45.484,-10.987 3.925,25.96 c 0.511,3.402 -1.201,6.735 -4.263,8.295 -0.237,0.119 -0.453,0.215 -0.67,0.303 -0.973,0.381 -1.95,0.565 -2.948,0.565 -2.11,0 -4.099,-0.816 -5.6,-2.297 l -18.771,-18.513 -25.6,47.589 c -0.894,1.662 -2.355,2.957 -4.114,3.646 -0.93,0.364 -1.908,0.549 -2.906,0.549 -0.41,0 -0.823,-0.032 -1.227,-0.095 -3.327,-0.515 -5.985,-3.088 -6.608,-6.403 l -9.953,-52.845 -19.309,8.993 -0.025,0.012 -0.025,0.012 c -0.137,0.061 -0.276,0.121 -0.415,0.175 -0.922,0.362 -1.9,0.547 -2.898,0.547 -2.257,0 -4.418,-0.963 -5.928,-2.64 -2.361,-2.622 -2.725,-6.417 -0.905,-9.442 l 5.294,-8.802 -24.998,0.402 -0.041,0.001 h -0.088 c -3.225,0 -6.113,-1.922 -7.356,-4.898 -1.265,-3.03 -0.568,-6.471 1.778,-8.767 l 29.9,-29.322 -32.139,-47.935 c -2.005,-2.984 -1.753,-6.966 0.614,-9.68 0.847,-0.966 1.916,-1.717 3.098,-2.18 0.931,-0.365 1.91,-0.551 2.91,-0.551 1.207,0 2.418,0.282 3.504,0.813 l 52.577,25.727 5.181,-24.346 c 0.562,-2.63 2.39,-4.783 4.891,-5.763 0.167,-0.065 0.347,-0.129 0.531,-0.186 0.77,-0.24 1.57,-0.362 2.376,-0.362 2.02,0 3.947,0.758 5.428,2.133 l 18.909,17.589 30.694,-17.496 c 0.335,-0.191 0.688,-0.359 1.048,-0.499 0.919,-0.361 1.899,-0.547 2.9,-0.547 1.434,0 2.843,0.388 4.075,1.121 2.457,1.461 3.95,4.146 3.895,7.006 l -0.519,26.506 z"
       style="fill:#ffffff;fill-opacity:1;fill-rule:nonzero;stroke:none"
       transform="matrix(0.35277776,0,0,-0.35277776,133.26385,166.74888)"
       clip-path="url(#clipPath63)" />
    <path
       id="path64"
       d="m 0,0 -32.99,32.914 37.211,36.94 c 0.32,0.295 0.578,0.665 0.748,1.096 0.598,1.529 -0.154,3.252 -1.683,3.851 H 3.285 c 0,0 0,0.001 -0.002,0.001 -0.016,0.007 -0.031,0.013 -0.047,0.018 0,0 -0.002,0.001 -0.004,0.001 L 3.23,74.822 C 2.646,75.039 2.032,75.06 1.467,74.914 l -52.739,-12.738 5.037,33.313 c 0.191,1.266 -0.449,2.512 -1.589,3.093 -0.088,0.044 -0.176,0.083 -0.266,0.119 -1.083,0.424 -2.329,0.178 -3.17,-0.652 l -23.524,-23.2 -28.762,53.466 c -0.342,0.636 -0.893,1.108 -1.534,1.359 -0.478,0.187 -1.007,0.253 -1.539,0.17 -1.244,-0.193 -2.232,-1.149 -2.464,-2.386 l -11.145,-59.172 -25.143,11.711 c -0.056,0.026 -0.113,0.051 -0.171,0.073 -1.145,0.449 -2.46,0.145 -3.293,-0.78 -0.873,-0.971 -1.01,-2.399 -0.336,-3.519 l 9.938,-16.524 -34.008,0.547 c -1.216,0.019 -2.321,-0.703 -2.79,-1.825 -0.469,-1.122 -0.207,-2.417 0.662,-3.268 l 32.866,-32.23 -34.45,-51.383 c -0.749,-1.115 -0.654,-2.597 0.229,-3.609 0.323,-0.369 0.72,-0.642 1.154,-0.812 0.758,-0.297 1.624,-0.278 2.392,0.098 l 58.332,28.544 6.515,-30.613 c 0.209,-0.979 0.896,-1.785 1.822,-2.147 0.062,-0.025 0.126,-0.047 0.19,-0.067 1.021,-0.323 2.135,-0.071 2.919,0.658 l 21.598,20.089 33.885,-19.315 c 0.125,-0.071 0.255,-0.133 0.388,-0.185 0.845,-0.331 1.807,-0.26 2.601,0.212 0.92,0.547 1.474,1.544 1.454,2.614 l -0.628,32.073 41.741,-3.692 c 1.246,-0.11 2.427,0.572 2.955,1.705 C 1.123,-2.226 0.885,-0.883 0,0"
       style="fill:#000000;fill-opacity:1;fill-rule:nonzero;stroke:none"
       transform="matrix(0.35277776,0,0,-0.35277776,134.25226,163.20526)"
       clip-path="url(#clipPath65)" />
    <path
       id="path66"
       d="M 0,0 -0.69,35.304 0.238,35.302 44.345,31.4 9.241,66.423 l 39.403,39.116 -57.07,-13.785 5.698,37.683 -26.349,-25.986 -30.642,56.96 -11.852,-62.93 -28.609,13.326 12.701,-21.114 -39.365,0.634 34.629,-33.958 -35.824,-53.431 61.752,30.217 7.308,-34.336 23.197,21.579 z"
       style="fill:#ffd522;fill-opacity:1;fill-rule:nonzero;stroke:none"
       transform="matrix(0.35277776,0,0,-0.35277776,117.86754,175.0247)"
       clip-path="url(#clipPath67)" />
    <path
       id="path68"
       d="M 0,0 -0.437,22.312 H 0.15 L 28.028,19.846 5.84,41.981 30.745,66.704 -5.326,57.99 l 3.601,23.818 -16.653,-16.424 -19.367,36 -7.49,-39.774 -18.082,8.422 8.027,-13.344 -24.879,0.401 21.886,-21.463 -22.642,-33.771 39.03,19.1 4.618,-21.701 14.661,13.638 z"
       style="fill:#fff292;fill-opacity:1;fill-rule:nonzero;stroke:none"
       transform="matrix(0.35277776,0,0,-0.35277776,110.56775,166.4371)"
       clip-path="url(#clipPath69)" />
    <path
       id="path70"
       d="M 0,0 -0.151,7.775 C -0.165,8.432 -0.707,8.954 -1.364,8.941 -2.02,8.927 -2.543,8.385 -2.529,7.73 L -1.707,-34.398 -45.7,-9.186 c -0.57,0.324 -1.295,0.129 -1.622,-0.441 -0.326,-0.569 -0.13,-1.295 0.44,-1.622 l 8.704,-4.988 -20.552,-19.118 -6.677,31.377 7.443,3.641 c 0.589,0.29 0.833,1.001 0.544,1.591 -0.288,0.59 -1,0.834 -1.589,0.545 l -7.962,-3.896 c -0.017,-0.003 -0.034,-0.002 -0.052,-0.005 -0.213,-0.045 -0.4,-0.151 -0.552,-0.29 l -57.49,-28.133 33.369,49.774 c 0.003,0.001 0.003,0.002 0.004,0.005 l 3.303,4.926 c 0.366,0.544 0.22,1.283 -0.326,1.648 -0.545,0.366 -1.284,0.221 -1.65,-0.325 l -2.518,-3.756 -31.479,30.87 36.387,-0.587 c 0.432,-0.006 0.834,0.222 1.049,0.597 0.216,0.373 0.211,0.835 -0.012,1.206 l -10.696,17.78 24.248,-11.293 -0.901,-4.783 c -0.108,-0.569 0.212,-1.121 0.733,-1.325 0.068,-0.027 0.14,-0.048 0.215,-0.063 0.645,-0.121 1.267,0.303 1.388,0.95 l 12.302,65.314 28.626,-53.214 -9.194,-9.068 c -0.468,-0.461 -0.473,-1.213 -0.013,-1.681 0.122,-0.123 0.263,-0.213 0.414,-0.271 0.423,-0.166 0.923,-0.081 1.269,0.26 L -4.915,89.608 -10.076,55.474 V 55.473 L -11.418,46.6 c -0.097,-0.649 0.347,-1.257 0.998,-1.354 0.65,-0.097 1.255,0.349 1.353,0.999 l 1.22,8.068 L 44.31,66.911 7.923,30.79 1.59,24.503 C 1.125,24.041 1.121,23.288 1.584,22.822 1.704,22.701 1.844,22.61 1.994,22.553 2.418,22.386 2.92,22.474 3.265,22.816 L 8.762,28.273 40.71,-3.601 Z M 44.71,-4.231 10.45,29.947 49.005,68.222 c 0.379,0.376 0.461,0.958 0.201,1.423 -0.259,0.465 -0.799,0.702 -1.317,0.576 L -7.463,56.852 -2.03,92.786 c 0.077,0.506 -0.18,1.005 -0.635,1.237 -0.461,0.237 -1.01,0.147 -1.375,-0.212 L -29.259,68.939 -59.149,124.5 c -0.239,0.444 -0.73,0.689 -1.229,0.612 -0.498,-0.077 -0.892,-0.46 -0.986,-0.955 L -72.933,62.731 -100.155,75.41 c -0.472,0.214 -1.036,0.106 -1.385,-0.283 -0.35,-0.388 -0.405,-0.959 -0.135,-1.407 l 11.596,-19.277 -37.223,0.599 c -0.486,0.007 -0.928,-0.281 -1.115,-0.73 -0.188,-0.45 -0.084,-0.967 0.264,-1.308 l 33.924,-33.266 -35.274,-52.612 c -0.3,-0.447 -0.263,-1.038 0.092,-1.444 0.128,-0.147 0.287,-0.257 0.46,-0.324 0.303,-0.12 0.65,-0.112 0.958,0.038 l 60.384,29.548 6.992,-32.846 c 0.082,-0.392 0.357,-0.713 0.728,-0.859 0.024,-0.009 0.05,-0.019 0.075,-0.027 0.408,-0.128 0.854,-0.028 1.168,0.265 l 22.628,21.047 34.949,-20.028 c 0.052,-0.03 0.104,-0.055 0.158,-0.076 0.338,-0.133 0.722,-0.104 1.04,0.085 0.368,0.218 0.591,0.617 0.582,1.046 L 0.046,-2.391 43.763,-6.258 c 0.499,-0.044 0.973,0.229 1.184,0.682 0.211,0.454 0.115,0.991 -0.237,1.345"
       style="fill:#000000;fill-opacity:1;fill-rule:nonzero;stroke:none"
       transform="matrix(0.35277776,0,0,-0.35277776,118.03567,162.15762)"
       clip-path="url(#clipPath71)" />
    <path
       id="path72"
       d="m 0,0 c 0.645,-0.126 1.27,0.294 1.395,0.938 l 7.272,37.24 c 0.126,0.643 -0.296,1.27 -0.938,1.394 -0.644,0.126 -1.27,-0.295 -1.395,-0.939 L -0.938,1.395 C -1.05,0.821 -0.731,0.266 -0.206,0.061 -0.141,0.034 -0.072,0.014 0,0"
       style="fill:#000000;fill-opacity:1;fill-rule:nonzero;stroke:none"
       transform="matrix(0.35277776,0,0,-0.35277776,94.466411,138.59937)"
       clip-path="url(#clipPath73)" />
    <path
       id="path74"
       d="m 0,0 -34.317,-17.16 c -0.589,-0.293 -0.827,-1.008 -0.532,-1.594 0.136,-0.274 0.364,-0.472 0.628,-0.575 0.303,-0.119 0.652,-0.114 0.966,0.043 l 34.319,17.16 c 0.587,0.294 0.825,1.007 0.531,1.595 C 1.301,0.056 0.588,0.294 0,0"
       style="fill:#000000;fill-opacity:1;fill-rule:nonzero;stroke:none"
       transform="matrix(0.35277776,0,0,-0.35277776,92.479954,161.84478)"
       clip-path="url(#clipPath75)" />
    <path
       id="path76"
       d="m 0,0 23.667,24.778 c 0.454,0.475 0.437,1.228 -0.038,1.681 -0.478,0.454 -1.228,0.435 -1.681,-0.038 L -1.719,1.642 c -0.453,-0.475 -0.437,-1.226 0.039,-1.68 0.115,-0.11 0.246,-0.194 0.386,-0.247 C -0.858,-0.457 -0.343,-0.358 0,0"
       style="fill:#000000;fill-opacity:1;fill-rule:nonzero;stroke:none"
       transform="matrix(0.35277776,0,0,-0.35277776,119.09453,152.33907)"
       clip-path="url(#clipPath77)" />
  </g>
</svg>
