<?xml version="1.0" encoding="UTF-8"?><svg id="Layer_2" xmlns="http://www.w3.org/2000/svg" viewBox="0 0 114 114.03"><defs><style>.cls-1{fill:#f7d7c7;}.cls-1,.cls-2,.cls-3,.cls-4{stroke-width:0px;}.cls-2{fill:#373737;}.cls-3{fill:#ff4d38;}.cls-4{fill:#e6e7e8;}</style></defs><g id="Layer_1-2"><path class="cls-4" d="m101.53,45h11.47c0-1.24-.19-6.44-.54-7.57-1.92-6.18-8.88-9.29-15.03-7.24l-10.21,3.1c-6.09,1.85-12.23-2.71-12.23-9.07v-4.61c0-9.59-7.23-17.96-16.8-18.58-10.48-.68-19.2,7.62-19.2,17.96v5.22c0,6.36-6.14,10.91-12.23,9.07l-10.21-3.1c-6.14-2.05-13.1,1.06-15.03,7.24-.35,1.13-.54,6.33-.54,7.57h11.47c10.36,0,17.87,10.28,14.28,20-.02.06-.05.13-.07.19-5.69,15.18-14.57,32.98-19.68,37.88l6.35,7.13c3.51,3.94,8.93,3.67,12.5-.22,3.46-3.77,8.99-3.73,12.4.11,3.45,3.87,9.05,3.87,12.5,0,3.45-3.87,9.05-3.87,12.5,0,3.45,3.87,9.05,3.87,12.5,0,3.42-3.84,8.95-3.87,12.4-.11,3.56,3.88,8.99,4.15,12.5.22l6.35-7.13c-5.11-4.9-13.99-22.7-19.68-37.88-.02-.06-.05-.13-.07-.19-3.58-9.72,3.92-20,14.28-20Z"/><path class="cls-2" d="m94.63,114.03c-2.66,0-5.22-1.19-7.22-3.37-1.47-1.6-3.39-2.47-5.42-2.47-.02,0-.04,0-.05,0-2.05.01-3.99.93-5.45,2.57-1.86,2.09-4.35,3.24-7,3.24s-5.14-1.15-7-3.24c-1.48-1.66-3.43-2.57-5.5-2.57s-4.03.91-5.5,2.57c-1.86,2.09-4.35,3.24-7,3.24s-5.14-1.15-7-3.24c-1.46-1.64-3.4-2.55-5.45-2.57-2.05-.05-3.99.86-5.47,2.47-2,2.17-4.56,3.37-7.22,3.37h-.07c-2.52-.02-4.9-1.14-6.7-3.16l-6.35-7.13c-.36-.4-.33-1.01.05-1.39,4.64-4.45,13.35-21.28,19.43-37.51l.07-.18c1.56-4.23.95-8.8-1.66-12.54-2.67-3.83-7.04-6.12-11.68-6.12H1c-.55,0-1-.45-1-1,0-.89.16-6.51.58-7.87.96-3.08,3.11-5.61,6.07-7.12,3.14-1.61,6.87-1.89,10.23-.77l10.18,3.09c2.6.79,5.33.31,7.51-1.3,2.18-1.61,3.43-4.1,3.43-6.81v-5.22c0-5.23,2.19-10.29,6.01-13.86C47.88,1.51,52.94-.3,58.26.04c9.95.64,17.74,9.24,17.74,19.58v4.61c0,2.71,1.25,5.19,3.43,6.81,2.18,1.61,4.91,2.09,7.51,1.3l10.21-3.1c3.33-1.11,7.06-.83,10.21.78,2.95,1.51,5.11,4.04,6.07,7.12.42,1.36.58,6.98.58,7.87,0,.55-.45,1-1,1h-11.47c-4.65,0-9.02,2.29-11.68,6.12-2.61,3.75-3.22,8.32-1.66,12.54l.07.19c6.08,16.23,14.79,33.06,19.43,37.51.39.37.41.99.05,1.39l-6.35,7.13c-1.8,2.02-4.18,3.14-6.7,3.16h-.07Zm-12.63-7.84c2.6,0,5.04,1.11,6.89,3.12,1.62,1.77,3.67,2.77,5.79,2.72,1.95-.01,3.8-.9,5.22-2.49l5.73-6.43c-5.51-6.02-13.97-23.47-19.25-37.56l-.07-.2c-1.79-4.85-1.1-10.09,1.9-14.38,3.04-4.37,8.02-6.97,13.33-6.97h10.45c-.06-2.05-.25-5.53-.48-6.27-.8-2.56-2.6-4.67-5.07-5.94-2.67-1.37-5.83-1.61-8.69-.65l-10.23,3.11c-3.21.97-6.59.39-9.28-1.61-2.69-2-4.24-5.06-4.24-8.41v-4.61c0-9.28-6.97-17-15.87-17.58-4.77-.32-9.29,1.31-12.76,4.56-3.47,3.25-5.38,7.66-5.38,12.41v5.22c0,3.35-1.54,6.42-4.24,8.41-2.69,2-6.08,2.58-9.28,1.61l-10.21-3.1c-2.88-.96-6.05-.72-8.71.65-2.47,1.27-4.27,3.38-5.07,5.94-.23.74-.42,4.22-.48,6.27h10.45c5.3,0,10.28,2.61,13.33,6.97,2.99,4.29,3.68,9.53,1.9,14.37l-.07.2c-5.28,14.09-13.74,31.54-19.25,37.56l5.73,6.43c1.42,1.59,3.27,2.48,5.22,2.49,2.13.03,4.17-.95,5.79-2.72,1.85-2.01,4.29-3.12,6.89-3.12.02,0,.05,0,.07,0,2.63.02,5.09,1.17,6.93,3.24,1.48,1.66,3.43,2.57,5.5,2.57s4.03-.91,5.5-2.57c1.86-2.09,4.35-3.24,7-3.24s5.14,1.15,7,3.24c1.48,1.66,3.43,2.57,5.5,2.57s4.03-.91,5.5-2.57c1.84-2.07,4.3-3.22,6.93-3.24.02,0,.05,0,.07,0Z"/><line class="cls-1" x1="51" y1="15" x2="47" y2="23"/><path class="cls-2" d="m47,24c-.15,0-.3-.03-.45-.11-.49-.25-.69-.85-.45-1.34l4-8c.25-.49.85-.69,1.34-.45.49.25.69.85.45,1.34l-4,8c-.18.35-.53.55-.9.55Z"/><line class="cls-1" x1="63" y1="15" x2="67" y2="23"/><path class="cls-2" d="m67,24c-.37,0-.72-.2-.9-.55l-4-8c-.25-.49-.05-1.09.45-1.34.5-.25,1.1-.05,1.34.45l4,8c.25.49.05,1.09-.45,1.34-.14.07-.3.11-.45.11Z"/><ellipse class="cls-3" cx="57" cy="33" rx="4" ry="6"/><path class="cls-2" d="m57,40c-2.8,0-5-3.08-5-7s2.2-7,5-7,5,3.08,5,7-2.2,7-5,7Zm0-12c-1.63,0-3,2.29-3,5s1.37,5,3,5,3-2.29,3-5-1.37-5-3-5Z"/></g></svg>