<?xml version="1.0" encoding="UTF-8"?><svg id="Layer_1" xmlns="http://www.w3.org/2000/svg" xmlns:xlink="http://www.w3.org/1999/xlink" viewBox="0 0 1200 1697.14"><defs><style>.cls-1{clip-path:url(#clippath);}.cls-2,.cls-3{fill:#f7a587;}.cls-4{fill:url(#radial-gradient);}.cls-4,.cls-5,.cls-6,.cls-7,.cls-8,.cls-9,.cls-10,.cls-11,.cls-12,.cls-13,.cls-14,.cls-15,.cls-16,.cls-17,.cls-18,.cls-19,.cls-20,.cls-21,.cls-22,.cls-23,.cls-3,.cls-24,.cls-25,.cls-26,.cls-27,.cls-28,.cls-29,.cls-30,.cls-31,.cls-32,.cls-33,.cls-34,.cls-35,.cls-36,.cls-37,.cls-38,.cls-39,.cls-40,.cls-41,.cls-42,.cls-43,.cls-44,.cls-45,.cls-46,.cls-47,.cls-48,.cls-49,.cls-50,.cls-51,.cls-52,.cls-53{stroke-width:0px;}.cls-54{font-family:AvenirNext-Medium, 'Avenir Next';font-weight:500;}.cls-55{letter-spacing:-.02em;}.cls-56{filter:url(#drop-shadow-4);stroke:#fff;stroke-miterlimit:10;stroke-width:2px;}.cls-56,.cls-9{fill:#62336e;}.cls-57{letter-spacing:0em;}.cls-5{fill:#faee4f;}.cls-5,.cls-6{opacity:.4;}.cls-58{filter:url(#drop-shadow-5);}.cls-59{filter:url(#drop-shadow-6);}.cls-60{filter:url(#drop-shadow-1);}.cls-6,.cls-7,.cls-8,.cls-9,.cls-10,.cls-11,.cls-12,.cls-13,.cls-14,.cls-15,.cls-16,.cls-17,.cls-18,.cls-19,.cls-20{fill-rule:evenodd;}.cls-6,.cls-39{fill:#8f6f71;}.cls-7{fill:#2d100f;}.cls-8,.cls-33{fill:#3b2232;}.cls-10{fill:#5f3a16;}.cls-11{fill:#9560a7;}.cls-12,.cls-30{fill:#542e16;}.cls-13,.cls-32{fill:#70b0bb;}.cls-14,.cls-29{fill:#87d0d3;}.cls-15{fill:#cea8ce;}.cls-16,.cls-37{fill:#c8e9ee;}.cls-17{fill:#c5e8ef;}.cls-18{fill:#d1d2d3;}.cls-19,.cls-61,.cls-62,.cls-44{fill:#fff;}.cls-20,.cls-48{fill:#f28eb9;}.cls-61{font-family:AvenirNext-Bold, 'Avenir Next';font-size:104.85px;font-weight:700;}.cls-21{fill:#454546;filter:url(#drop-shadow-2);}.cls-63{letter-spacing:0em;}.cls-63,.cls-64{font-family:Osaka, Osaka;}.cls-62{font-size:78.64px;}.cls-22{fill:#f5931e;}.cls-23{fill:#f59373;}.cls-24{fill:#f9a840;}.cls-25{fill:#f9a947;}.cls-26{fill:#f9a11f;}.cls-27{fill:#5eb348;}.cls-28{fill:#636464;}.cls-31{fill:#550f0e;}.cls-34{fill:#3bb44a;}.cls-35{fill:#39525f;}.cls-36{fill:#373737;}.cls-38{fill:#ab1f23;}.cls-40{fill:#818282;}.cls-41{fill:#ef503d;}.cls-42{fill:#ffcb1c;}.cls-43{fill:#f3971e;}.cls-45{fill:#f69126;}.cls-46{fill:#efe7e3;}.cls-47{fill:#ed8922;}.cls-49{fill:#f48365;}.cls-50{fill:#ec1e24;}.cls-51{fill:#f7992e;}.cls-52{fill:#f7981d;}.cls-53{fill:#f68d1e;}</style><radialGradient id="radial-gradient" cx="600" cy="795.36" fx="600" fy="795.36" r="798" gradientTransform="translate(3.49 4.9)" gradientUnits="userSpaceOnUse"><stop offset="0" stop-color="#f8a35c"/><stop offset="1" stop-color="#f16122"/></radialGradient><filter id="drop-shadow-1" filterUnits="userSpaceOnUse"><feOffset dx="0" dy="0"/><feGaussianBlur result="blur" stdDeviation="4"/><feFlood flood-color="#231f20" flood-opacity=".6"/><feComposite in2="blur" operator="in"/><feComposite in="SourceGraphic"/></filter><filter id="drop-shadow-2" filterUnits="userSpaceOnUse"><feOffset dx="0" dy="0"/><feGaussianBlur result="blur-2" stdDeviation="4"/><feFlood flood-color="#231f20" flood-opacity=".6"/><feComposite in2="blur-2" operator="in"/><feComposite in="SourceGraphic"/></filter><filter id="drop-shadow-4" filterUnits="userSpaceOnUse"><feOffset dx="0" dy="0"/><feGaussianBlur result="blur-3" stdDeviation="4"/><feFlood flood-color="#231f20" flood-opacity=".6"/><feComposite in2="blur-3" operator="in"/><feComposite in="SourceGraphic"/></filter><filter id="drop-shadow-5" filterUnits="userSpaceOnUse"><feOffset dx="0" dy="0"/><feGaussianBlur result="blur-4" stdDeviation="4"/><feFlood flood-color="#231f20" flood-opacity=".6"/><feComposite in2="blur-4" operator="in"/><feComposite in="SourceGraphic"/></filter><filter id="drop-shadow-6" filterUnits="userSpaceOnUse"><feOffset dx="0" dy="0"/><feGaussianBlur result="blur-5" stdDeviation="4"/><feFlood flood-color="#231f20" flood-opacity=".6"/><feComposite in2="blur-5" operator="in"/><feComposite in="SourceGraphic"/></filter><clipPath id="clippath"><path class="cls-3" d="m615.83,321.06h0c108.48,0,196.55,88.07,196.55,196.55v71.09c0,108.48-88.07,196.55-196.55,196.55h0c-108.48,0-196.55-88.07-196.55-196.55v-71.1c0-108.48,88.07-196.55,196.55-196.55Z"/></clipPath></defs><rect id="A3_Guide" class="cls-50" x="48.28" y="15.42" width="1103.44" height="1560.42"/><rect id="Background" class="cls-4" x="35.17" y="-3.11" width="1129.66" height="1597.49"/><polygon class="cls-53" points="15.56 120.53 121.89 59.2 121.89 181.84 15.56 120.53"/><polygon class="cls-45" points="15.56 243.15 121.89 304.48 15.58 365.8 15.56 243.15"/><polygon class="cls-45" points="15.59 488.43 121.89 549.75 15.61 611.07 15.59 488.43"/><polygon class="cls-45" points="15.62 733.69 121.89 672.38 121.89 795.02 15.62 733.69"/><polygon class="cls-47" points="15.58 -1.29 121.89 59.2 15.56 120.53 15.58 -1.29"/><polygon class="cls-22" points="15.58 365.8 121.89 304.48 121.89 427.12 15.58 365.8"/><polygon class="cls-51" points="15.69 978.99 121.89 917.66 121.89 1040.33 15.69 978.99"/><polygon class="cls-51" points="15.61 611.07 121.89 672.38 15.62 733.69 15.61 611.07"/><polygon class="cls-47" points="15.69 978.99 121.89 1040.33 15.71 1101.66 15.69 978.99"/><polygon class="cls-45" points="15.71 1101.66 121.89 1040.33 121.89 1163 15.71 1101.66"/><polygon class="cls-47" points="15.59 488.43 121.89 427.12 121.89 549.75 15.59 488.43"/><polygon class="cls-51" points="15.74 1224.33 121.89 1163 121.89 1285.67 15.74 1224.33"/><polygon class="cls-45" points="15.77 1347 121.89 1285.67 121.89 1408.33 15.77 1347"/><polygon class="cls-53" points="228.22 1347.01 121.89 1408.33 121.89 1285.67 228.22 1347.01"/><polygon class="cls-47" points="228.2 1224.34 121.89 1285.67 121.89 1163 228.2 1224.34"/><polygon class="cls-47" points="228.01 365.81 121.89 304.48 227.99 243.17 228.01 365.81"/><polygon class="cls-53" points="228.02 488.45 121.89 549.75 121.89 427.12 228.02 488.45"/><polygon class="cls-51" points="227.99 243.17 121.89 181.84 227.98 120.52 227.99 243.17"/><polygon class="cls-22" points="228.22 1347.01 121.89 1285.67 228.2 1224.34 228.22 1347.01"/><polygon class="cls-53" points="228.15 979 121.89 917.66 228.09 856.36 228.15 979"/><polygon class="cls-45" points="227.98 120.52 121.89 59.2 228 -1.29 227.98 120.52"/><polygon class="cls-22" points="228.05 733.72 121.89 795.02 121.89 672.38 228.05 733.72"/><polygon class="cls-51" points="228.02 611.08 121.89 549.75 228.02 488.45 228.02 611.08"/><polygon class="cls-45" points="228.02 488.45 121.89 427.12 228.01 365.81 228.02 488.45"/><polygon class="cls-22" points="228 -1.29 334.36 -1.29 334.36 59.19 228 -1.29"/><polygon class="cls-22" points="228.02 488.45 334.36 549.77 228.02 611.08 228.02 488.45"/><polygon class="cls-47" points="228.02 611.08 334.36 549.77 334.36 672.41 228.02 611.08"/><polygon class="cls-22" points="228.09 856.36 334.36 917.7 228.15 979 228.09 856.36"/><polygon class="cls-53" points="228.05 733.72 334.36 672.41 334.36 795.06 228.05 733.72"/><polygon class="cls-53" points="228.01 365.81 334.36 304.5 334.36 427.14 228.01 365.81"/><polygon class="cls-45" points="227.99 243.17 334.36 181.85 334.36 304.5 227.99 243.17"/><polygon class="cls-45" points="228.02 611.08 334.36 672.41 228.05 733.72 228.02 611.08"/><polygon class="cls-47" points="228.09 856.36 334.36 795.06 334.36 917.7 228.09 856.36"/><polygon class="cls-51" points="228.15 979 334.36 1040.34 228.18 1101.67 228.15 979"/><polygon class="cls-45" points="228.18 1101.67 334.36 1040.34 334.36 1163.01 228.18 1101.67"/><polygon class="cls-45" points="228.2 1224.34 334.36 1285.68 228.22 1347.01 228.2 1224.34"/><polygon class="cls-51" points="228.22 1347.01 334.36 1285.68 334.36 1408.47 228.22 1347.01"/><polygon class="cls-22" points="440.43 243.19 334.36 304.5 334.36 181.85 440.43 243.19"/><polygon class="cls-22" points="440.67 1224.35 334.36 1285.68 334.36 1163.01 440.67 1224.35"/><polygon class="cls-51" points="440.67 1224.35 334.36 1163.01 440.64 1101.69 440.67 1224.35"/><polygon class="cls-53" points="440.59 979.05 334.36 1040.34 334.36 917.7 440.59 979.05"/><polygon class="cls-51" points="440.44 365.83 334.36 304.5 440.43 243.19 440.44 365.83"/><polygon class="cls-47" points="440.44 120.52 334.36 181.85 334.36 59.19 440.44 120.52"/><polygon class="cls-53" points="440.9 1347.14 334.36 1285.68 440.67 1224.35 440.9 1347.14"/><polygon class="cls-47" points="440.64 1101.69 334.36 1163.01 334.36 1040.34 440.64 1101.69"/><polygon class="cls-51" points="440.59 979.05 334.36 917.7 440.55 856.41 440.59 979.05"/><polygon class="cls-45" points="440.55 856.41 334.36 917.7 334.36 795.06 440.55 856.41"/><polygon class="cls-51" points="440.44 120.52 334.36 59.19 440.43 -1.29 440.44 120.52"/><polygon class="cls-22" points="440.51 733.76 334.36 795.06 334.36 672.41 440.51 733.76"/><polygon class="cls-51" points="440.47 611.11 334.36 549.77 440.45 488.47 440.47 611.11"/><polygon class="cls-47" points="440.44 365.83 334.36 427.14 334.36 304.5 440.44 365.83"/><polygon class="cls-53" points="440.43 -1.29 546.82 -1.29 546.82 59.19 440.43 -1.29"/><polygon class="cls-45" points="440.44 120.52 546.82 59.19 546.82 181.85 440.44 120.52"/><polygon class="cls-45" points="440.43 243.19 546.82 304.52 440.44 365.83 440.43 243.19"/><polygon class="cls-45" points="440.45 488.47 546.82 549.8 440.47 611.11 440.45 488.47"/><polygon class="cls-51" points="440.51 733.76 546.82 672.45 546.82 795.11 440.51 733.76"/><polygon class="cls-22" points="440.43 -1.29 546.82 59.19 440.44 120.52 440.43 -1.29"/><polygon class="cls-47" points="440.47 611.11 546.82 672.45 440.51 733.76 440.47 611.11"/><polygon class="cls-22" points="440.59 979.05 546.82 1040.4 440.64 1101.69 440.59 979.05"/><polygon class="cls-45" points="440.64 1101.69 546.82 1040.4 546.82 1163.03 440.64 1101.69"/><polygon class="cls-22" points="440.45 488.47 546.82 427.16 546.82 549.8 440.45 488.47"/><polygon class="cls-51" points="440.9 1347.14 546.82 1285.82 546.82 1408.46 440.9 1347.14"/><polygon class="cls-22" points="652.88 243.18 546.82 304.52 546.82 181.85 652.88 243.18"/><polygon class="cls-45" points="653.33 1347.13 546.82 1408.46 546.82 1285.82 653.33 1347.13"/><polygon class="cls-53" points="653.34 1224.49 546.82 1285.82 546.82 1163.03 653.34 1224.49"/><polygon class="cls-51" points="653.34 1224.49 546.82 1163.03 653.09 1101.74 653.34 1224.49"/><polygon class="cls-51" points="653.05 979.1 546.82 1040.4 546.82 917.75 653.05 979.1"/><polygon class="cls-51" points="652.88 365.84 546.82 304.52 652.88 243.18 652.88 365.84"/><polygon class="cls-53" points="652.9 488.49 546.82 549.8 546.82 427.16 652.9 488.49"/><polygon class="cls-22" points="653.33 1347.13 546.82 1285.82 653.34 1224.49 653.33 1347.13"/><polygon class="cls-22" points="653.05 979.1 546.82 917.75 653.01 856.45 653.05 979.1"/><polygon class="cls-47" points="653.01 856.45 546.82 917.75 546.82 795.11 653.01 856.45"/><polygon class="cls-53" points="653.01 856.45 546.82 795.11 652.97 733.79 653.01 856.45"/><polygon class="cls-22" points="652.97 733.79 546.82 672.45 652.93 611.15 652.97 733.79"/><polygon class="cls-53" points="652.89 120.52 759.28 181.85 652.88 243.18 652.89 120.52"/><polygon class="cls-53" points="652.89 -1.29 759.28 -1.29 759.28 59.2 652.89 -1.29"/><polygon class="cls-45" points="652.88 243.18 759.28 304.5 652.88 365.84 652.88 243.18"/><polygon class="cls-51" points="652.9 488.49 759.28 549.84 652.93 611.15 652.9 488.49"/><polygon class="cls-47" points="652.93 611.15 759.28 549.84 759.28 672.49 652.93 611.15"/><polygon class="cls-51" points="652.97 733.79 759.28 672.49 759.28 795.14 652.97 733.79"/><polygon class="cls-47" points="652.89 -1.29 759.28 59.2 652.89 120.52 652.89 -1.29"/><polygon class="cls-45" points="653.05 979.1 759.28 917.79 759.28 1040.44 653.05 979.1"/><polygon class="cls-47" points="652.88 243.18 759.28 181.85 759.28 304.5 652.88 243.18"/><polygon class="cls-47" points="652.88 365.84 759.28 427.18 652.9 488.49 652.88 365.84"/><polygon class="cls-45" points="652.93 611.15 759.28 672.49 652.97 733.79 652.93 611.15"/><polygon class="cls-53" points="653.05 979.1 759.28 1040.44 653.09 1101.74 653.05 979.1"/><polygon class="cls-22" points="653.09 1101.74 759.28 1040.44 759.28 1163.2 653.09 1101.74"/><polygon class="cls-47" points="653.09 1101.74 759.28 1163.2 653.34 1224.49 653.09 1101.74"/><polygon class="cls-45" points="653.34 1224.49 759.28 1163.2 759.28 1285.8 653.34 1224.49"/><polygon class="cls-53" points="653.33 1347.13 759.28 1285.8 759.28 1408.45 653.33 1347.13"/><polygon class="cls-45" points="865.33 -1.29 759.28 -1.29 759.28 59.2 865.33 -1.29"/><polygon class="cls-51" points="865.75 1101.9 759.28 1040.44 865.5 979.13 865.75 1101.9"/><polygon class="cls-53" points="865.75 1224.52 759.28 1163.2 865.75 1101.9 865.75 1224.52"/><polygon class="cls-45" points="865.37 488.52 759.28 549.84 759.28 427.18 865.37 488.52"/><polygon class="cls-51" points="865.33 243.17 759.28 181.85 865.34 120.52 865.33 243.17"/><polygon class="cls-22" points="865.34 120.52 759.28 181.85 759.28 59.2 865.34 120.52"/><polygon class="cls-47" points="865.5 979.13 759.28 917.79 865.46 856.48 865.5 979.13"/><polygon class="cls-22" points="865.46 856.48 759.28 795.14 865.43 733.83 865.46 856.48"/><polygon class="cls-53" points="865.43 733.83 759.28 672.49 865.39 611.18 865.43 733.83"/><polygon class="cls-51" points="865.37 488.52 759.28 427.18 865.34 365.84 865.37 488.52"/><polygon class="cls-22" points="865.34 365.84 759.28 427.18 759.28 304.5 865.34 365.84"/><polygon class="cls-45" points="15.58 -1.29 -90.7 -1.29 -90.7 59.22 15.58 -1.29"/><polygon class="cls-47" points="15.56 243.15 -90.7 304.47 -90.7 181.84 15.56 243.15"/><polygon class="cls-47" points="15.77 1347 -90.7 1408.3 -90.7 1285.66 15.77 1347"/><polygon class="cls-53" points="15.74 1224.33 -90.7 1163 15.71 1101.66 15.74 1224.33"/><polygon class="cls-45" points="15.69 978.99 -90.7 1040.33 -90.7 917.65 15.69 978.99"/><polygon class="cls-53" points="15.58 365.8 -90.7 304.47 15.56 243.15 15.58 365.8"/><polygon class="cls-51" points="15.56 120.53 -90.7 181.84 -90.7 59.22 15.56 120.53"/><polygon class="cls-22" points="15.71 1101.66 -90.7 1163 -90.7 1040.33 15.71 1101.66"/><polygon class="cls-53" points="15.69 978.99 -90.7 917.65 15.66 856.32 15.69 978.99"/><polygon class="cls-51" points="15.66 856.32 -90.7 917.65 -90.7 794.99 15.66 856.32"/><polygon class="cls-22" points="15.56 120.53 -90.7 59.22 15.58 -1.29 15.56 120.53"/><polygon class="cls-47" points="15.62 733.69 -90.7 794.99 -90.7 672.38 15.62 733.69"/><polygon class="cls-53" points="15.62 733.69 -90.7 672.38 15.61 611.07 15.62 733.69"/><polygon class="cls-22" points="15.61 611.07 -90.7 672.38 -90.7 549.75 15.61 611.07"/><polygon class="cls-51" points="15.58 365.8 -90.7 427.11 -90.7 304.47 15.58 365.8"/><polygon class="cls-45" points="1077.97 120.51 1183.98 181.85 1077.97 243.17 1077.97 120.51"/><polygon class="cls-47" points="1077.97 120.51 1183.95 59.2 1183.98 181.85 1077.97 120.51"/><polygon class="cls-53" points="1077.97 488.52 1184.07 549.86 1077.97 611.18 1077.97 488.52"/><polygon class="cls-22" points="1077.97 611.18 1184.07 549.86 1184.08 672.53 1077.97 611.18"/><polygon class="cls-45" points="1077.97 856.5 1184.36 917.96 1077.97 979.27 1077.97 856.5"/><polygon class="cls-47" points="1077.97 733.86 1184.08 672.53 1184.12 795.19 1077.97 733.86"/><polygon class="cls-47" points="1077.97 365.84 1184.01 304.51 1184.05 427.19 1077.97 365.84"/><polygon class="cls-53" points="1077.97 733.86 1184.12 795.19 1077.97 856.5 1077.97 733.86"/><polygon class="cls-22" points="1077.97 243.17 1183.98 181.85 1184.01 304.51 1077.97 243.17"/><polygon class="cls-45" points="1077.97 365.84 1184.05 427.19 1077.97 488.52 1077.97 365.84"/><polygon class="cls-22" points="1077.97 979.27 1184.35 1040.59 1077.97 1101.89 1077.97 979.27"/><polygon class="cls-53" points="1077.97 1101.89 1184.35 1040.59 1184.34 1163.21 1077.97 1101.89"/><polygon class="cls-51" points="1077.97 1224.51 1184.31 1285.82 1077.97 1347.12 1077.97 1224.51"/><polygon class="cls-22" points="1290.41 -1.29 1183.81 -1.29 1183.95 59.2 1290.41 -1.29"/><polygon class="cls-53" points="1290.41 1347.12 1184.28 1408.42 1184.31 1285.82 1290.41 1347.12"/><polygon class="cls-45" points="1290.41 1224.51 1184.34 1163.21 1290.41 1101.9 1290.41 1224.51"/><polygon class="cls-53" points="1290.41 365.85 1184.01 304.51 1290.41 243.19 1290.41 365.85"/><polygon class="cls-51" points="1290.41 120.53 1183.98 181.85 1183.95 59.2 1290.41 120.53"/><polygon class="cls-22" points="1290.41 1347.12 1184.31 1285.82 1290.41 1224.51 1290.41 1347.12"/><polygon class="cls-47" points="1290.41 1101.9 1184.34 1163.21 1184.35 1040.59 1290.41 1101.9"/><polygon class="cls-51" points="1290.41 979.28 1184.36 917.96 1290.41 856.66 1290.41 979.28"/><polygon class="cls-22" points="1290.41 856.66 1184.36 917.96 1184.12 795.19 1290.41 856.66"/><polygon class="cls-45" points="1290.41 856.66 1184.12 795.19 1290.41 733.87 1290.41 856.66"/><polygon class="cls-51" points="1290.41 733.87 1184.12 795.19 1184.08 672.53 1290.41 733.87"/><polygon class="cls-53" points="1290.41 733.87 1184.08 672.53 1290.41 611.2 1290.41 733.87"/><polygon class="cls-45" points="1290.41 611.2 1184.07 549.86 1290.41 488.53 1290.41 611.2"/><polygon class="cls-45" points="865.34 120.52 971.74 181.85 865.33 243.17 865.34 120.52"/><polygon class="cls-47" points="865.33 -1.29 971.74 -1.29 971.74 59.2 865.33 -1.29"/><polygon class="cls-53" points="865.34 120.52 971.74 59.2 971.74 181.85 865.34 120.52"/><polygon class="cls-22" points="865.37 488.52 971.74 549.86 865.39 611.18 865.37 488.52"/><polygon class="cls-45" points="865.39 611.18 971.74 549.86 971.74 672.52 865.39 611.18"/><polygon class="cls-53" points="865.34 365.84 971.74 304.51 971.74 427.18 865.34 365.84"/><polygon class="cls-45" points="865.43 733.83 971.74 795.17 865.46 856.48 865.43 733.83"/><polygon class="cls-22" points="865.5 979.13 971.74 917.82 971.74 1040.59 865.5 979.13"/><polygon class="cls-47" points="865.33 243.17 971.74 181.85 971.74 304.51 865.33 243.17"/><polygon class="cls-51" points="865.46 856.48 971.74 795.17 971.74 917.82 865.46 856.48"/><polygon class="cls-45" points="865.75 1101.9 971.74 1040.59 971.74 1163.21 865.75 1101.9"/><polygon class="cls-47" points="865.75 1101.9 971.74 1163.21 865.75 1224.52 865.75 1101.9"/><polygon class="cls-51" points="865.75 1224.52 971.74 1285.83 865.75 1347.12 865.75 1224.52"/><polygon class="cls-53" points="865.75 1347.12 971.74 1285.83 971.74 1408.42 865.75 1347.12"/><polygon class="cls-47" points="1077.97 1347.14 971.74 1408.42 971.74 1285.83 1077.97 1347.14"/><polygon class="cls-51" points="1077.97 1101.91 971.74 1040.59 1077.97 979.28 1077.97 1101.91"/><polygon class="cls-22" points="1077.97 1224.53 971.74 1285.83 971.74 1163.21 1077.97 1224.53"/><polygon class="cls-53" points="1077.97 979.28 971.74 1040.59 971.74 917.82 1077.97 979.28"/><polygon class="cls-51" points="1077.97 365.85 971.74 304.51 1077.97 243.19 1077.97 365.85"/><polygon class="cls-22" points="1077.97 120.53 971.74 181.85 971.74 59.2 1077.97 120.53"/><polygon class="cls-45" points="1077.97 1347.14 971.74 1285.83 1077.97 1224.53 1077.97 1347.14"/><polygon class="cls-47" points="1077.97 979.28 971.74 917.82 1077.97 856.51 1077.97 979.28"/><polygon class="cls-51" points="1077.97 120.53 971.74 59.2 1077.97 -1.29 1077.97 120.53"/><polygon class="cls-22" points="1077.97 733.86 971.74 795.17 971.74 672.52 1077.97 733.86"/><polygon class="cls-51" points="1077.97 611.2 971.74 672.52 971.74 549.86 1077.97 611.2"/><polygon class="cls-47" points="1077.97 611.2 971.74 549.86 1077.97 488.52 1077.97 611.2"/><polygon class="cls-22" points="1077.97 488.52 971.74 427.18 1077.97 365.85 1077.97 488.52"/><polygon class="cls-51" points="15.82 1469.63 121.89 1531.09 16.17 1592.56 15.82 1469.63"/><polygon class="cls-47" points="15.82 1469.63 121.89 1408.33 121.89 1531.09 15.82 1469.63"/><polygon class="cls-53" points="228.59 1592.56 121.89 1531.09 228.46 1469.79 228.59 1592.56"/><polygon class="cls-51" points="228.46 1469.79 334.36 1531.11 228.59 1592.56 228.46 1469.79"/><polygon class="cls-53" points="440.88 1469.79 334.36 1531.11 334.36 1408.47 440.88 1469.79"/><polygon class="cls-45" points="441 1592.56 334.36 1531.11 440.88 1469.79 441 1592.56"/><polygon class="cls-47" points="440.88 1469.79 334.36 1408.47 440.9 1347.14 440.88 1469.79"/><polygon class="cls-22" points="440.88 1469.79 546.82 1408.46 546.82 1531.11 440.88 1469.79"/><polygon class="cls-22" points="653.31 1469.78 759.28 1531.08 653.4 1592.56 653.31 1469.78"/><polygon class="cls-51" points="653.33 1347.13 759.28 1408.45 653.31 1469.78 653.33 1347.13"/><polygon class="cls-47" points="653.31 1469.78 759.28 1408.45 759.28 1531.08 653.31 1469.78"/><polygon class="cls-51" points="865.79 1592.56 759.28 1531.08 865.71 1469.75 865.79 1592.56"/><polygon class="cls-53" points="16.17 1592.56 -90.7 1530.97 15.82 1469.63 16.17 1592.56"/><polygon class="cls-22" points="15.82 1469.63 -90.7 1408.3 15.77 1347 15.82 1469.63"/><polygon class="cls-45" points="1077.97 1469.72 1184.34 1531.06 1077.97 1592.56 1077.97 1469.72"/><polygon class="cls-47" points="1290.41 1469.76 1184.34 1531.06 1184.28 1408.42 1290.41 1469.76"/><polygon class="cls-53" points="1290.41 1592.56 1184.34 1531.06 1290.41 1469.76 1290.41 1592.56"/><polygon class="cls-53" points="865.71 1469.75 971.74 1531.05 865.79 1592.56 865.71 1469.75"/><polygon class="cls-22" points="865.75 1347.12 971.74 1408.42 865.71 1469.75 865.75 1347.12"/><polygon class="cls-45" points="865.71 1469.75 971.74 1408.42 971.74 1531.05 865.71 1469.75"/><polygon class="cls-51" points="1077.97 1469.73 971.74 1531.05 971.74 1408.42 1077.97 1469.73"/><polygon class="cls-22" points="1077.97 1592.56 971.74 1531.05 1077.97 1469.73 1077.97 1592.56"/><polygon class="cls-22" points="228.65 1592.56 334.36 1592.56 334.36 1531.13 228.65 1592.56"/><polygon class="cls-22" points="121.89 181.84 227.98 120.52 121.89 59.2 121.89 181.84"/><polygon class="cls-53" points="441.05 1592.56 546.82 1592.56 546.82 1531.13 441.05 1592.56"/><polygon class="cls-53" points="653.45 1592.56 759.28 1592.56 759.28 1531.1 653.45 1592.56"/><polygon class="cls-45" points="865.85 1592.56 759.28 1592.56 759.28 1531.1 865.85 1592.56"/><polygon class="cls-45" points="16.27 1592.56 -90.7 1592.56 -90.7 1530.99 16.27 1592.56"/><polygon class="cls-22" points="1290.41 1592.56 1184.29 1592.56 1184.38 1531.08 1290.41 1592.56"/><polygon class="cls-43" points="121.89 -1.29 15.58 -1.29 121.89 59.2 121.89 -1.29"/><polygon class="cls-43" points="15.61 611.07 121.89 672.38 121.89 549.75 15.61 611.07"/><polygon class="cls-43" points="121.89 795.02 15.66 856.32 121.89 917.66 121.89 795.02"/><polygon class="cls-43" points="15.74 1224.33 15.77 1347 121.89 1285.67 15.74 1224.33"/><polygon class="cls-43" points="121.89 1163 228.18 1101.67 121.89 1040.33 121.89 1163"/><polygon class="cls-43" points="228.01 365.81 121.89 304.48 121.89 427.12 228.01 365.81"/><polygon class="cls-43" points="228 -1.29 227.98 120.52 334.36 59.19 228 -1.29"/><polygon class="cls-43" points="228.09 856.36 334.36 795.06 228.05 733.72 228.09 856.36"/><polygon class="cls-43" points="334.36 1040.34 440.64 1101.69 440.59 979.05 334.36 1040.34"/><polygon class="cls-43" points="440.45 488.47 334.36 427.14 334.36 549.77 440.45 488.47"/><polygon class="cls-43" points="440.62 120.52 440.62 243.19 546.82 181.85 440.62 120.52"/><polygon class="cls-43" points="440.48 611.11 546.82 672.45 546.82 549.8 440.48 611.11"/><polygon class="cls-43" points="546.82 795.11 440.51 733.76 440.55 856.41 546.82 795.11"/><polygon class="cls-43" points="546.82 1285.82 440.67 1224.35 440.9 1347.14 546.82 1285.82"/><polygon class="cls-43" points="652.89 -1.29 546.82 59.19 652.89 120.52 652.89 -1.29"/><polygon class="cls-43" points="546.82 304.52 546.82 427.16 652.88 365.84 546.82 304.52"/><polygon class="cls-43" points="653.01 856.45 759.28 795.14 652.97 733.79 653.01 856.45"/><polygon class="cls-43" points="759.28 427.18 652.9 488.49 759.28 549.84 759.28 427.18"/><polygon class="cls-43" points="759.28 1285.8 865.75 1224.52 759.28 1163.2 759.28 1285.8"/><polygon class="cls-43" points="759.28 917.79 759.28 1040.44 865.5 979.13 759.28 917.79"/><polygon class="cls-43" points="-90.7 1040.33 15.71 1101.66 15.69 978.99 -90.7 1040.33"/><polygon class="cls-43" points="15.56 120.53 -90.7 181.84 15.56 243.15 15.56 120.53"/><polygon class="cls-43" points="15.58 365.8 -90.7 427.11 15.59 488.43 15.58 365.8"/><polygon class="cls-43" points="1077.97 -1.29 1077.97 120.51 1184.37 59.2 1077.97 -1.29"/><polygon class="cls-43" points="1184.31 1285.82 1290.41 1224.51 1184.34 1163.21 1184.31 1285.82"/><polygon class="cls-43" points="1184.36 917.96 1184.35 1040.59 1290.41 979.28 1184.36 917.96"/><polygon class="cls-43" points="1290.41 120.53 1183.98 181.85 1290.41 243.19 1290.41 120.53"/><polygon class="cls-43" points="1184.08 672.53 1290.41 611.2 1184.07 549.86 1184.08 672.53"/><polygon class="cls-43" points="1184.05 427.19 1290.41 365.85 1184.01 304.51 1184.05 427.19"/><polygon class="cls-43" points="971.74 427.18 865.34 365.84 865.37 488.52 971.74 427.18"/><polygon class="cls-43" points="865.43 733.83 971.74 672.52 865.39 611.18 865.43 733.83"/><polygon class="cls-43" points="1077.97 243.19 971.74 181.85 971.74 304.51 1077.97 243.19"/><polygon class="cls-43" points="971.74 1040.59 971.74 1163.21 1077.97 1101.91 971.74 1040.59"/><polygon class="cls-43" points="1077.97 733.86 971.74 795.17 1077.97 856.51 1077.97 733.86"/><polygon class="cls-43" points="228.46 1469.79 334.36 1408.47 228.22 1347.01 228.46 1469.79"/><polygon class="cls-43" points="441 1592.56 546.82 1531.11 440.88 1469.79 441 1592.56"/><polygon class="cls-43" points="653.31 1469.78 653.33 1347.13 546.82 1408.46 653.31 1469.78"/><polygon class="cls-43" points="865.71 1469.75 865.75 1347.12 759.28 1408.45 865.71 1469.75"/><polygon class="cls-43" points="1077.97 1469.72 1184.34 1531.06 1184.28 1408.42 1077.97 1469.72"/><polygon class="cls-43" points="121.89 1592.56 121.89 1531.11 16.27 1592.56 121.89 1592.56"/><polygon class="cls-47" points="865.85 1592.56 971.74 1592.56 971.74 1531.07 865.85 1592.56"/><polygon class="cls-24" points="15.66 856.32 121.89 795.02 15.62 733.69 15.66 856.32"/><polygon class="cls-24" points="121.89 181.84 15.56 243.15 121.89 304.48 121.89 181.84"/><polygon class="cls-24" points="15.74 1224.33 121.89 1163 15.71 1101.66 15.74 1224.33"/><polygon class="cls-24" points="121.89 1040.33 228.15 979 121.89 917.66 121.89 1040.33"/><polygon class="cls-24" points="228.02 611.08 121.89 672.38 228.05 733.72 228.02 611.08"/><polygon class="cls-24" points="334.36 181.85 227.98 120.52 227.99 243.17 334.36 181.85"/><polygon class="cls-24" points="228.02 488.45 334.36 427.14 228.01 365.81 228.02 488.45"/><polygon class="cls-24" points="228.2 1224.34 334.36 1163.01 228.18 1101.67 228.2 1224.34"/><polygon class="cls-24" points="440.43 -1.29 334.36 -1.29 334.36 59.19 440.43 -1.29"/><polygon class="cls-24" points="334.36 672.41 440.48 611.11 334.36 549.77 334.36 672.41"/><polygon class="cls-24" points="440.55 856.41 440.59 979.05 546.82 917.75 440.55 856.41"/><polygon class="cls-24" points="546.82 304.52 440.44 365.83 546.82 427.16 546.82 304.52"/><polygon class="cls-24" points="546.82 59.19 546.82 181.85 652.89 120.52 546.82 59.19"/><polygon class="cls-24" points="546.82 1040.4 546.82 1163.03 653.09 1101.74 546.82 1040.4"/><polygon class="cls-24" points="652.94 611.15 652.9 488.49 546.82 549.8 652.94 611.15"/><polygon class="cls-24" points="759.28 795.14 653.01 856.45 759.28 917.79 759.28 795.14"/><polygon class="cls-24" points="653.33 1347.13 759.28 1285.8 653.34 1224.49 653.33 1347.13"/><polygon class="cls-24" points="759.28 181.85 759.28 304.5 865.33 243.17 759.28 181.85"/><polygon class="cls-24" points="865.33 -1.29 759.28 59.2 865.34 120.52 865.33 -1.29"/><polygon class="cls-24" points="759.28 672.49 865.39 611.18 759.28 549.84 759.28 672.49"/><polygon class="cls-24" points="15.61 611.07 15.59 488.43 -90.7 549.75 15.61 611.07"/><polygon class="cls-24" points="1184.35 1040.59 1184.36 917.96 1077.97 979.27 1184.35 1040.59"/><polygon class="cls-24" points="1184.08 672.53 1077.97 611.18 1077.97 733.86 1184.08 672.53"/><polygon class="cls-24" points="1077.97 488.52 1184.07 549.86 1184.05 427.19 1077.97 488.52"/><polygon class="cls-24" points="1184.31 1285.82 1184.34 1163.21 1077.97 1224.51 1184.31 1285.82"/><polygon class="cls-24" points="1183.95 59.2 1290.41 120.53 1290.41 -1.29 1183.95 59.2"/><polygon class="cls-24" points="865.46 856.48 865.5 979.13 971.74 917.82 865.46 856.48"/><polygon class="cls-24" points="971.74 672.52 865.43 733.83 971.74 795.17 971.74 672.52"/><polygon class="cls-24" points="971.74 1163.21 865.75 1224.52 971.74 1285.83 971.74 1163.21"/><polygon class="cls-24" points="1077.97 -1.29 971.74 -1.29 971.74 59.2 1077.97 -1.29"/><polygon class="cls-24" points="971.74 427.18 1077.97 365.85 971.74 304.51 971.74 427.18"/><polygon class="cls-24" points="121.89 1408.33 228.46 1469.79 228.22 1347.01 121.89 1408.33"/><polygon class="cls-24" points="440.9 1347.14 440.88 1469.79 546.82 1408.46 440.9 1347.14"/><polygon class="cls-24" points="546.82 1531.11 653.4 1592.56 653.31 1469.78 546.82 1531.11"/><polygon class="cls-24" points="-90.7 1530.97 15.87 1469.63 -90.7 1408.3 -90.7 1530.97"/><polygon class="cls-24" points="1077.97 1469.72 1184.28 1408.42 1077.97 1347.12 1077.97 1469.72"/><polygon class="cls-24" points="334.36 1592.56 441.05 1592.56 334.36 1531.13 334.36 1592.56"/><polygon class="cls-24" points="971.74 1592.56 1077.97 1592.56 971.74 1531.07 971.74 1592.56"/><polygon class="cls-26" points="15.56 120.53 15.56 243.15 121.89 181.84 15.56 120.53"/><polygon class="cls-26" points="15.59 488.43 121.89 427.12 15.58 365.8 15.59 488.43"/><polygon class="cls-26" points="228.18 1101.67 121.89 1163 228.2 1224.34 228.18 1101.67"/><polygon class="cls-26" points="121.89 795.02 121.89 917.66 228.09 856.36 121.89 795.02"/><polygon class="cls-26" points="121.89 549.75 121.89 672.38 228.02 611.08 121.89 549.75"/><polygon class="cls-26" points="334.36 59.19 228.13 120.52 334.36 181.85 334.36 59.19"/><polygon class="cls-26" points="228.01 365.81 334.36 304.5 227.99 243.17 228.01 365.81"/><polygon class="cls-26" points="228.15 979 334.36 1040.34 334.36 917.7 228.15 979"/><polygon class="cls-26" points="334.36 1408.47 440.9 1347.14 334.36 1285.68 334.36 1408.47"/><polygon class="cls-26" points="440.55 856.41 440.51 733.76 334.36 795.06 440.55 856.41"/><polygon class="cls-26" points="440.44 365.83 334.36 427.14 440.45 488.47 440.44 365.83"/><polygon class="cls-26" points="440.59 979.05 546.82 1040.4 546.82 917.75 440.59 979.05"/><polygon class="cls-26" points="546.82 181.85 440.43 243.19 546.82 304.52 546.82 181.85"/><polygon class="cls-26" points="546.82 1163.03 440.67 1224.35 546.82 1285.82 546.82 1163.03"/><polygon class="cls-26" points="546.82 672.45 546.82 795.11 652.97 733.79 546.82 672.45"/><polygon class="cls-26" points="652.9 488.49 652.88 365.84 546.82 427.16 652.9 488.49"/><polygon class="cls-26" points="759.28 59.2 652.89 120.52 759.28 181.85 759.28 59.2"/><polygon class="cls-26" points="653.05 979.1 759.28 917.79 653.01 856.45 653.05 979.1"/><polygon class="cls-26" points="759.28 1408.45 865.75 1347.12 759.28 1285.8 759.28 1408.45"/><polygon class="cls-26" points="865.34 365.84 865.33 243.17 759.28 304.5 865.34 365.84"/><polygon class="cls-26" points="759.28 1163.2 865.75 1101.9 759.28 1040.44 759.28 1163.2"/><polygon class="cls-26" points="865.43 733.83 759.28 672.49 759.28 795.14 865.43 733.83"/><polygon class="cls-26" points="-90.7 1285.66 15.77 1347 15.74 1224.33 -90.7 1285.66"/><polygon class="cls-26" points="15.66 856.32 15.62 733.69 -90.7 794.99 15.66 856.32"/><polygon class="cls-26" points="1183.81 -1.29 1077.97 -1.29 1183.95 59.2 1183.81 -1.29"/><polygon class="cls-26" points="1184.12 795.19 1077.97 856.5 1184.36 917.96 1184.12 795.19"/><polygon class="cls-26" points="1184.34 1163.21 1077.97 1101.89 1077.97 1224.51 1184.34 1163.21"/><polygon class="cls-26" points="1290.41 243.19 1183.98 181.85 1184.01 304.51 1290.41 243.19"/><polygon class="cls-26" points="1184.05 427.19 1184.07 549.86 1290.41 488.53 1184.05 427.19"/><polygon class="cls-26" points="865.37 488.52 971.74 549.86 971.74 427.18 865.37 488.52"/><polygon class="cls-26" points="1077.97 120.53 971.74 181.85 1077.97 243.19 1077.97 120.53"/><polygon class="cls-26" points="121.89 1531.09 228.46 1469.79 121.89 1408.33 121.89 1531.09"/><polygon class="cls-26" points="546.82 1531.11 653.31 1469.78 546.82 1408.46 546.82 1531.11"/><polygon class="cls-26" points="1184.28 1408.42 1290.41 1469.76 1290.41 1347.12 1184.28 1408.42"/><polygon class="cls-26" points="1077.97 1469.73 1077.97 1347.14 971.74 1408.42 1077.97 1469.73"/><polygon class="cls-26" points="1184.29 1592.56 1184.38 1531.08 1077.97 1592.56 1184.29 1592.56"/><polygon class="cls-52" points="121.89 917.66 15.66 856.32 15.69 978.99 121.89 917.66"/><polygon class="cls-52" points="228 -1.29 121.89 -1.29 121.89 59.2 228 -1.29"/><polygon class="cls-52" points="121.89 304.48 227.99 243.17 121.89 181.84 121.89 304.48"/><polygon class="cls-52" points="228.15 979 121.89 1040.33 228.18 1101.67 228.15 979"/><polygon class="cls-52" points="228.05 733.72 121.89 795.02 228.09 856.36 228.05 733.72"/><polygon class="cls-52" points="334.36 427.14 228.02 488.45 334.36 549.77 334.36 427.14"/><polygon class="cls-52" points="334.36 1163.01 228.2 1224.34 334.36 1285.68 334.36 1163.01"/><polygon class="cls-52" points="440.62 120.52 334.36 181.85 440.62 243.19 440.62 120.52"/><polygon class="cls-52" points="334.36 672.41 440.51 733.76 440.48 611.11 334.36 672.41"/><polygon class="cls-52" points="546.82 427.16 440.44 365.83 440.45 488.47 546.82 427.16"/><polygon class="cls-52" points="546.82 795.11 440.55 856.41 546.82 917.75 546.82 795.11"/><polygon class="cls-52" points="440.67 1224.35 546.82 1163.03 440.64 1101.69 440.67 1224.35"/><polygon class="cls-52" points="652.89 -1.29 546.82 -1.29 546.82 59.19 652.89 -1.29"/><polygon class="cls-52" points="653.05 979.1 546.82 1040.4 653.09 1101.74 653.05 979.1"/><polygon class="cls-52" points="546.82 181.85 652.88 243.18 652.89 120.52 546.82 181.85"/><polygon class="cls-52" points="546.82 672.45 652.94 611.15 546.82 549.8 546.82 672.45"/><polygon class="cls-52" points="652.88 365.84 759.28 427.18 759.28 304.5 652.88 365.84"/><polygon class="cls-52" points="865.64 1347.12 865.64 1224.52 759.28 1285.8 865.64 1347.12"/><polygon class="cls-52" points="759.28 795.14 759.28 917.79 865.46 856.48 759.28 795.14"/><polygon class="cls-52" points="865.37 488.52 759.28 549.84 865.39 611.18 865.37 488.52"/><polygon class="cls-52" points="-90.7 1285.66 15.79 1224.33 -90.7 1163 -90.7 1285.66"/><polygon class="cls-52" points="-90.7 549.75 15.64 488.43 -90.7 427.11 -90.7 549.75"/><polygon class="cls-52" points="1184.01 304.51 1077.97 243.17 1077.97 365.84 1184.01 304.51"/><polygon class="cls-52" points="1184.28 1408.42 1184.31 1285.82 1077.97 1347.12 1184.28 1408.42"/><polygon class="cls-52" points="1290.41 1101.9 1290.41 979.28 1184.35 1040.59 1290.41 1101.9"/><polygon class="cls-52" points="1290.41 365.85 1184.05 427.19 1290.41 488.53 1290.41 365.85"/><polygon class="cls-52" points="971.74 304.51 865.33 243.17 865.34 365.84 971.74 304.51"/><polygon class="cls-52" points="971.74 59.2 865.33 -1.29 865.34 120.52 971.74 59.2"/><polygon class="cls-52" points="865.5 979.13 865.75 1101.9 971.74 1040.59 865.5 979.13"/><polygon class="cls-52" points="1077.97 1101.91 971.74 1163.21 1077.97 1224.53 1077.97 1101.91"/><polygon class="cls-52" points="1077.97 488.52 971.74 427.18 971.74 549.86 1077.97 488.52"/><polygon class="cls-52" points="1077.97 856.51 971.74 795.17 971.74 917.82 1077.97 856.51"/><polygon class="cls-52" points="971.74 672.52 1077.97 733.86 1077.97 611.2 971.74 672.52"/><polygon class="cls-52" points="15.82 1469.63 121.89 1408.33 15.77 1347 15.82 1469.63"/><polygon class="cls-52" points="334.36 1531.11 334.36 1408.47 228.46 1469.79 334.36 1531.11"/><polygon class="cls-52" points="759.28 1531.08 865.71 1469.75 759.28 1408.45 759.28 1531.08"/><polygon class="cls-52" points="121.89 1592.56 228.65 1592.56 121.89 1531.11 121.89 1592.56"/><polygon class="cls-52" points="546.82 1592.56 653.45 1592.56 546.82 1531.13 546.82 1592.56"/><path class="cls-36" d="m973.77,1531.24c-1.2,0-2.17-.97-2.17-2.17v-52.15c0-1.2.97-2.17,2.17-2.17s2.17.97,2.17,2.17v52.15c0,1.2-.97,2.17-2.17,2.17Z"/><path class="cls-36" d="m1022.75,1531.24c-1.2,0-2.17-.97-2.17-2.17v-52.15c0-1.2.97-2.17,2.17-2.17s2.17.97,2.17,2.17v52.15c0,1.2-.97,2.17-2.17,2.17Z"/><path class="cls-42" d="m856.43,1350.01s13.04,2.17,39.11,10.86c22.77,7.59,47.8-.06,47.8-10.86s-19.46-19.56-43.46-19.56-43.46,19.56-43.46,19.56Z"/><path class="cls-28" d="m1021.57,1407.38l-51.6-22.43c17.64-8.36,29.87-26.28,29.87-47.1,0-28.8-23.35-52.15-52.15-52.15s-52.15,23.35-52.15,52.15c0,19.29,10.5,36.1,26.07,45.12v28.76c0,48,38.91,86.92,86.92,86.92h78.22l-65.19-91.26Z"/><g class="cls-60"><path class="cls-40" d="m1026.41,1472.57h69.04l-73.48-103.81c-15.26-21.56-46.78-24.34-64-4.37-6.31,7.32-10.28,16.97-10.28,28.12h0c0,44.22,35.24,80.06,78.71,80.06Z"/></g><path class="cls-42" d="m917.28,1329.16c0,7.2,5.84,13.04,13.04,13.04s13.04-5.84,13.04-13.04h-26.07Z"/><rect class="cls-21" x="-178.41" y="1526.78" width="1556.82" height="172.16"/><path class="cls-36" d="m240,293.06c-2.25,0-4.08-1.81-4.11-4.06l-3.61-295.9c-.03-2.27,1.79-4.13,4.06-4.16,2.2-.04,4.13,1.79,4.16,4.06l3.61,295.9c.03,2.27-1.79,4.13-4.06,4.16h-.05Z"/><path class="cls-36" d="m207.78,325.11c-.85,0-1.72-.26-2.45-.82l-51.3-38.3-32.31,28.04c-1.71,1.49-4.31,1.31-5.8-.41-1.49-1.71-1.3-4.31.41-5.8l34.81-30.21c1.46-1.27,3.6-1.35,5.15-.19l53.95,40.28c1.82,1.36,2.19,3.93.83,5.75-.81,1.08-2.04,1.65-3.3,1.65Z"/><path class="cls-36" d="m268.62,325.11c-1.25,0-2.49-.57-3.3-1.65-1.36-1.82-.99-4.39.83-5.75l53.95-40.28c1.55-1.15,3.69-1.08,5.15.19l34.81,30.21c1.72,1.49,1.9,4.08.41,5.8-1.49,1.72-4.09,1.9-5.8.41l-32.31-28.04-51.3,38.3c-.74.55-1.6.82-2.45.82Z"/><path class="cls-36" d="m209.43,366.62c-.85,0-1.72-.26-2.45-.82l-51.3-38.29-32.31,28.04c-1.71,1.49-4.31,1.3-5.8-.41-1.49-1.71-1.3-4.31.41-5.8l34.81-30.21c1.46-1.27,3.6-1.35,5.15-.19l53.95,40.27c1.82,1.36,2.19,3.93.84,5.75-.81,1.08-2.04,1.65-3.3,1.65Z"/><path class="cls-36" d="m266.97,366.62c-1.25,0-2.49-.57-3.3-1.65-1.36-1.82-.99-4.39.84-5.75l53.95-40.28c1.55-1.15,3.7-1.08,5.15.19l34.81,30.21c1.72,1.49,1.9,4.08.41,5.8-1.49,1.71-4.09,1.89-5.8.41l-32.31-28.04-51.3,38.3c-.74.55-1.6.82-2.45.82Z"/><path class="cls-36" d="m212.05,413.37c-.85,0-1.72-.26-2.45-.82l-51.3-38.29-32.31,28.04c-1.71,1.48-4.31,1.3-5.8-.41-1.49-1.71-1.3-4.31.41-5.8l34.81-30.2c1.46-1.27,3.6-1.35,5.15-.19l53.95,40.27c1.82,1.36,2.19,3.93.84,5.75-.81,1.08-2.04,1.65-3.3,1.65Z"/><path class="cls-36" d="m264.35,413.37c-1.25,0-2.49-.57-3.3-1.65-1.36-1.82-.98-4.39.84-5.75l53.95-40.27c1.55-1.15,3.7-1.08,5.15.19l34.81,30.2c1.72,1.49,1.9,4.08.41,5.8-1.49,1.71-4.09,1.89-5.8.41l-32.31-28.04-51.3,38.29c-.74.55-1.6.82-2.45.82Z"/><path class="cls-36" d="m151.89,465.67c-1.84,0-3.52-1.25-3.98-3.11l-8.22-32.88c-.29-1.15-.06-2.37.61-3.34.68-.97,1.74-1.61,2.92-1.74l73.98-8.22c2.26-.25,4.29,1.37,4.54,3.63.25,2.26-1.37,4.29-3.63,4.54l-69.3,7.7,7.08,28.31c.55,2.2-.79,4.43-2.99,4.98-.34.08-.67.12-1,.12Z"/><path class="cls-36" d="m324.51,465.67c-.33,0-.67-.04-1-.12-2.2-.55-3.54-2.78-2.99-4.98l7.08-28.31-69.3-7.7c-2.26-.25-3.88-2.28-3.63-4.54.25-2.26,2.29-3.88,4.54-3.63l73.98,8.22c1.18.13,2.24.76,2.92,1.74.68.97.9,2.19.61,3.34l-8.22,32.88c-.47,1.87-2.14,3.11-3.98,3.11Z"/><circle class="cls-36" cx="238.2" cy="346.48" r="57.54"/><path class="cls-36" d="m213.54,457.45c-.62,0-1.24-.14-1.83-.43-2.03-1.02-2.85-3.48-1.84-5.51l8.22-16.44c1.02-2.03,3.48-2.86,5.51-1.84,2.03,1.02,2.85,3.48,1.84,5.51l-8.22,16.44c-.72,1.44-2.17,2.27-3.68,2.27Z"/><path class="cls-36" d="m262.86,457.45c-1.51,0-2.96-.83-3.68-2.27l-8.22-16.44c-1.02-2.03-.19-4.5,1.84-5.51,2.04-1.02,4.5-.19,5.51,1.84l8.22,16.44c1.02,2.03.19,4.5-1.84,5.51-.59.3-1.22.43-1.83.43Z"/><circle class="cls-36" cx="238.2" cy="416.35" r="28.77"/><polygon class="cls-41" points="253.93 321.06 222.47 321.06 231.46 346.48 222.47 371.91 253.93 371.91 244.94 346.48 253.93 321.06"/><path class="cls-42" d="m221.27,424.98c-.7,3.98,1.95,7.77,5.93,8.47s7.77-1.95,8.47-5.93l-14.4-2.54Z"/><path class="cls-42" d="m240.73,427.52c.7,3.98,4.49,6.63,8.47,5.93s6.63-4.49,5.93-8.47l-14.4,2.54Z"/><path class="cls-56" d="m1188.09,155.82c-22.57-150.11-140.97-87.43-439.86-84.72-445.09,4.04-599.01-49.13-600.79,89.14-2.35,182.14,377.25,41.43,436.52,122.87,80.4,110.48,127.46,59.27,300.8,77.88,424.42,45.57,307.18-179.56,303.33-205.17Z"/><polygon class="cls-25" points="280.85 1290.63 200.6 1290.63 190.57 1250.5 290.89 1250.5 280.85 1290.63"/><path class="cls-35" d="m295.9,1310.69h-110.35c-5.54,0-10.03-4.49-10.03-10.03h0c0-5.54,4.49-10.03,10.03-10.03h110.35c5.54,0,10.03,4.49,10.03,10.03h0c0,5.54-4.49,10.03-10.03,10.03Z"/><path class="cls-37" d="m295.9,1350.82v-40.13h-110.35v40.13h0c-19.39,0-35.11,15.72-35.11,35.11v135.42c0,5.54,4.49,10.03,10.03,10.03h160.5c5.54,0,10.03-4.49,10.03-10.03v-135.42c0-19.39-15.72-35.11-35.11-35.11h0Z"/><g class="cls-58"><path class="cls-27" d="m176.51,1370.88h128.44c3.31,0,6,2.69,6,6v134.44h-140.44v-134.44c0-3.31,2.69-6,6-6Z"/></g><path class="cls-46" d="m213.14,1476.78l-2.51,14.48h60.19l-2.51-14.48c11.84-9.17,19.03-24.05,17.3-40.55-2.19-20.81-18.95-37.69-39.75-39.98-27.23-3-50.28,18.24-50.28,44.86,0,14.53,6.89,27.42,17.56,35.68Z"/><path class="cls-33" d="m270.82,1493.77h-60.19c-.74,0-1.44-.33-1.92-.89-.48-.57-.68-1.31-.55-2.04l2.25-13.02c-11.04-9.11-17.34-22.4-17.34-36.71,0-13.53,5.78-26.47,15.87-35.5,10.22-9.16,23.42-13.37,37.19-11.85,22,2.43,39.65,20.18,41.97,42.21,1.69,16.09-4.67,31.62-17.07,41.85l2.25,13.02c.13.73-.08,1.48-.55,2.04-.48.57-1.18.89-1.92.89Zm-57.21-5.02h54.23l-2-11.54c-.16-.91.2-1.84.94-2.41,11.79-9.13,17.9-23.45,16.34-38.31-2.07-19.7-17.86-35.58-37.53-37.75-12.32-1.36-24.15,2.41-33.29,10.6-9.02,8.08-14.2,19.66-14.2,31.77,0,13.25,6.04,25.53,16.58,33.69.73.57,1.09,1.5.94,2.41l-2,11.54Z"/><rect class="cls-33" x="248.25" y="1471.2" width="5.02" height="20.06"/><rect class="cls-33" x="228.19" y="1471.2" width="5.02" height="20.06"/><path class="cls-33" d="m258.28,1453.64c-5.53,0-10.03-4.5-10.03-10.03s4.5-10.03,10.03-10.03,10.03,4.5,10.03,10.03-4.5,10.03-10.03,10.03Zm0-15.05c-2.77,0-5.02,2.25-5.02,5.02s2.25,5.02,5.02,5.02,5.02-2.25,5.02-5.02-2.25-5.02-5.02-5.02Z"/><path class="cls-33" d="m223.17,1453.64c-5.53,0-10.03-4.5-10.03-10.03s4.5-10.03,10.03-10.03,10.03,4.5,10.03,10.03-4.5,10.03-10.03,10.03Zm0-15.05c-2.77,0-5.02,2.25-5.02,5.02s2.25,5.02,5.02,5.02,5.02-2.25,5.02-5.02-2.25-5.02-5.02-5.02Z"/><g class="cls-59"><rect class="cls-34" x="509.99" y="1262.07" width="92" height="217.46"/><rect class="cls-35" x="505.81" y="1228.61" width="100.37" height="217.46"/><path class="cls-12" d="m521.64,1446.07h5.92c11.75,0,21.26,9.46,21.41,21.17v22.48h-48.74v-22.48c.14-11.71,9.66-21.17,21.41-21.17Z"/><rect class="cls-30" x="500.23" y="1467.5" width="106.64" height="66.39"/><path class="cls-10" d="m513.82,1484.23h0c-27.23,0-49.31,22.08-49.31,49.31v.35h98.62v-.35c0-27.23-22.08-49.31-49.31-49.31Z"/><rect class="cls-34" x="628.48" y="1262.07" width="92" height="217.46"/><rect class="cls-35" x="624.3" y="1228.61" width="100.37" height="217.46"/><path class="cls-10" d="m820.85,1533.89h-181.22c-8.85,0-16.03-7.18-16.03-16.03v-50.36h83.99c0-11.84,9.6-21.43,21.43-21.43h5.92c11.84,0,21.43,9.6,21.43,21.43v1.57c0,8.37,6.79,15.16,15.16,15.16h0c27.23,0,49.31,22.08,49.31,49.31v.35Z"/><path class="cls-16" d="m663.33,1272.52h157.52l-18.74-458.62s-92.45-17.61-138.78-20.93v479.55Z"/><polygon class="cls-17" points="807.46 944.92 812.79 1074.98 663.33 1044.37 663.33 906.6 807.46 944.92"/><polygon class="cls-19" points="663.33 792.97 742.09 891.26 702.71 948.42 722.23 1002.78 663.33 1096.87 663.33 792.97"/><path class="cls-19" d="m745.59,1179.25h0c29.39,0,53.21-23.82,53.21-53.21v-53.21h-106.42v53.21c0,29.39,23.82,53.21,53.21,53.21Z"/><rect class="cls-27" x="567.14" y="792.97" width="96.19" height="435.64"/><path class="cls-16" d="m567.14,1272.52h-157.52l18.74-458.62s92.45-17.61,138.78-20.93v479.55Z"/><polygon class="cls-19" points="567.14 792.97 488.38 891.26 527.76 948.42 508.25 1002.78 567.14 1096.87 567.14 792.97"/><path class="cls-19" d="m484.88,1179.25h0c-29.39,0-53.21-23.82-53.21-53.21v-53.21h106.42v53.21c0,29.39-23.82,53.21-53.21,53.21Z"/><path class="cls-37" d="m431.67,1148.44v-96.19c-39.2,0-71.09-31.89-71.09-71.09s31.89-71.09,71.09-71.09v-96.19c-92.24,0-167.28,75.04-167.28,167.28s75.04,167.28,167.28,167.28Z"/><polygon class="cls-29" points="682.41 869.6 682.41 1095.14 670.66 1120.23 661.42 1090.71 643.1 1111.36 624.91 1074.73 614.2 1111.36 603.79 1092.42 603.79 869.6 682.41 869.6"/><polygon class="cls-13" points="616.33 882.19 616.33 1104.05 624.91 1074.73 643.1 1111.36 661.42 1090.71 669.86 1117.68 669.86 882.19 616.33 882.19"/><path class="cls-29" d="m603.79,883.78h78.63c7.82,0,14.15-6.34,14.15-14.15s-6.34-14.15-14.15-14.15h-78.63c-7.82,0-14.15,6.34-14.15,14.15s6.34,14.15,14.15,14.15Z"/><path class="cls-11" d="m621.17,1033.9c0,9.06,12.55,9.06,12.55,0v-23.41c0-8.29-12.55-8.29-12.55,0v23.41Z"/><path class="cls-11" d="m645.24,1092.34c0,6.95,9.62,6.95,9.62,0v-17.95c0-6.36-9.62-6.36-9.62,0v17.95Z"/><path class="cls-11" d="m652.41,980.65c0,6.95,9.62,6.95,9.62,0v-5.41c0-6.36-9.62-6.36-9.62,0v5.41Z"/><path class="cls-11" d="m645.24,1076.07c0,14.33,19.84,14.33,19.84,0v-30.59c0-13.11-19.84-13.11-19.84,0v30.59Z"/><path class="cls-11" d="m630.55,1021.91c0,9.06,12.55,9.06,12.55,0v-23.41c0-8.29-12.55-8.29-12.55,0v23.41Z"/><path class="cls-11" d="m647.24,1140.44c0,5.51,4.47,9.98,9.98,9.98s9.98-4.47,9.98-9.98-9.98-20.21-9.98-20.21c0,0-9.98,14.7-9.98,20.21Z"/><path class="cls-15" d="m657.22,1142.88c0,1.96,1.59,3.55,3.55,3.55s3.56-1.59,3.56-3.55-1.59-3.56-3.56-3.56-3.55,1.59-3.55,3.56Z"/><path class="cls-37" d="m815.21,1058.31c53.92,0,103.28-36.74,116.8-91.16,7.8-31.39,2.83-63.89-14-91.5-16.83-27.62-43.43-46.94-74.91-54.39l-2.16-.46-50.63-9.56-17.85,94.52,49.26,9.3c7.96,2.16,12.27,7.56,14.15,10.65,1.95,3.19,4.89,9.8,2.79,18.25-3.15,12.68-16.07,20.53-28.78,17.54l-.72-.17-149.42-32.95-20.72,93.93,149.09,32.88c9.06,2.11,18.14,3.12,27.09,3.13Z"/><rect class="cls-35" x="567.14" y="1161.7" width="96.19" height="66.91"/><path class="cls-23" d="m615.24,834.78c23.1,0,41.82-18.72,41.82-41.82v-71.42c0-23.09-18.72-41.82-41.82-41.82s-41.82,18.73-41.82,41.82v71.42c0,23.1,18.72,41.82,41.82,41.82Z"/><rect class="cls-29" x="460.92" y="989.49" width="78.63" height="193.44"/><path class="cls-14" d="m470.35,1101.15h59.76l74.98,173.48c3.45,7.98,5.23,16.57,5.23,25.26h0c0,26.6-21.56,48.16-48.16,48.16h-123.85c-26.6,0-48.16-21.56-48.16-48.16h0c0-8.69,1.78-17.29,5.23-25.26l74.98-173.48Z"/><path class="cls-32" d="m410.53,1281.18l66.9-154.79v-120.39h45.61v120.39l66.9,154.78c2.57,5.94,3.87,12.24,3.87,18.72,0,17.45-14.2,31.65-31.65,31.65h-123.85c-17.45,0-31.65-14.2-31.65-31.65,0-6.47,1.3-12.77,3.87-18.71Z"/><rect class="cls-32" x="460.92" y="989.49" width="78.63" height="27.32"/><path class="cls-9" d="m455.78,1194.33h88.91l38.75,89.66c2.19,5.05,3.29,10.4,3.29,15.9,0,13.55-11.02,24.57-24.57,24.57h-123.85c-13.55,0-24.57-11.02-24.57-24.57,0-5.5,1.11-10.85,3.29-15.9l38.75-89.66Z"/><circle class="cls-48" cx="497.03" cy="1303.24" r="12.58"/><path class="cls-20" d="m448.33,1262.06c0,6.95,5.63,12.58,12.58,12.58s12.58-5.63,12.58-12.58-5.63-12.58-12.58-12.58-12.58,5.63-12.58,12.58Z"/><path class="cls-20" d="m515.18,1259.4c0,6.95,5.63,12.58,12.58,12.58s12.58-5.63,12.58-12.58-5.63-12.58-12.58-12.58-12.58,5.63-12.58,12.58Z"/><path class="cls-20" d="m469.57,1218.31c0,3.47,2.82,6.29,6.29,6.29s6.29-2.82,6.29-6.29-2.82-6.29-6.29-6.29-6.29,2.82-6.29,6.29Z"/><path class="cls-29" d="m460.91,1003.64h78.63c7.82,0,14.15-6.34,14.15-14.15s-6.34-14.15-14.15-14.15h-78.63c-7.82,0-14.15,6.34-14.15,14.15s6.34,14.15,14.15,14.15Z"/><path class="cls-44" d="m567.86,1309.29c1.07,0,2.16-.21,3.21-.65,4.26-1.78,6.28-6.67,4.5-10.94l-15.26-36.58c-1.78-4.27-6.67-6.28-10.94-4.5-4.26,1.78-6.28,6.67-4.5,10.94l15.26,36.58c1.34,3.21,4.45,5.15,7.72,5.15Z"/><path class="cls-44" d="m540.11,1242.75c1.07,0,2.16-.21,3.21-.65,4.26-1.78,6.28-6.67,4.5-10.94l-33.19-79.6c-1.78-4.26-6.68-6.29-10.94-4.5-4.26,1.78-6.28,6.67-4.5,10.94l33.19,79.61c1.34,3.21,4.45,5.15,7.73,5.15Z"/><circle class="cls-3" cx="649.39" cy="975.34" r="81.04" transform="translate(-499.47 744.86) rotate(-45)"/><circle class="cls-3" cx="497.03" cy="1096.87" r="81.04" transform="translate(-373.93 265.26) rotate(-21.95)"/><path class="cls-23" d="m615.83,834.73c23.1,0,41.82-18.73,41.82-41.82v-71.42c0-23.1-18.72-41.82-41.82-41.82s-41.82,18.72-41.82,41.82v71.42c0,23.09,18.72,41.82,41.82,41.82Z"/><path class="cls-2" d="m615.83,321.06h0c108.48,0,196.55,88.07,196.55,196.55v71.09c0,108.48-88.07,196.55-196.55,196.55h0c-108.48,0-196.55-88.07-196.55-196.55v-71.1c0-108.48,88.07-196.55,196.55-196.55Z"/><g class="cls-1"><path class="cls-6" d="m356.49,656.25v-14.98c0-30.41,40.82-30.41,40.82,0v39.59c0,20.19,31.9,20.19,31.9,0v-37.37c0-36.42,50.06-36.42,50.06,0v43.77c0,27.59,43,27.59,43,0v-8.71c0-25.6,38.49-25.6,38.49,0v24.55c0,32.41,50.36,32.41,50.36,0v-34.29c0-30.41,40.82-30.41,40.82,0v35.41c0,20.19,31.9,20.19,31.9,0v-49.91c0-36.42,50.06-36.42,50.06,0v6.13c0,27.59,43,27.59,43,0v-37.98c0-25.59,38.49-25.59,38.49,0v12.3c0,37.19,51.87,37.19,51.87,0l5.91,172.87H304.49v-151.39c0,36.43,52,36.43,52,0Z"/></g><path class="cls-18" d="m844.82,583.87c49.04,0,88.8-38.59,88.8-86.19,0-4.26-.33-8.44-.94-12.53-2.5,17.89-14.46,25.45-31.97,28.65,16.54-25.48,15.94-65.66,15.43-67.7-3.74,10.43-19.75,22.86-39.78,30.85,21-39.79-12.93-87.06-12.59-84.72,2.5,16.95-25.86,32.08-41.72,35.21-43.81,8.66-60.54,156.42,22.77,156.42Z"/><path class="cls-18" d="m386.84,583.87c-49.04,0-88.8-38.59-88.8-86.19,0-4.26.33-8.44.94-12.53,2.5,17.89,14.46,25.45,31.97,28.65-16.54-25.48-15.94-65.66-15.43-67.7,3.74,10.43,19.75,22.86,39.78,30.85-21-39.79,12.93-87.06,12.59-84.72-2.5,16.95,25.86,32.08,41.71,35.21,43.81,8.66,60.54,156.42-22.77,156.42Z"/><ellipse class="cls-23" cx="711.67" cy="537.87" rx="44.47" ry="47.58"/><ellipse class="cls-23" cx="519.99" cy="537.87" rx="44.47" ry="47.58"/><path class="cls-7" d="m709.27,532.57c13.68,0,24.77,11.09,24.77,24.76s-11.09,24.77-24.77,24.77-24.76-11.09-24.76-24.77,11.09-24.76,24.76-24.76Z"/><circle class="cls-44" cx="702.74" cy="568.58" r="6.53"/><path class="cls-19" d="m710.08,547.35c0,5.13,4.16,9.29,9.29,9.29s9.29-4.16,9.29-9.29-4.16-9.29-9.29-9.29-9.29,4.16-9.29,9.29Z"/><path class="cls-7" d="m522.39,532.57c-13.68,0-24.77,11.09-24.77,24.76s11.09,24.77,24.77,24.77,24.76-11.09,24.76-24.77-11.09-24.76-24.76-24.76Z"/><circle class="cls-44" cx="528.92" cy="568.58" r="6.53"/><circle class="cls-44" cx="512.3" cy="547.35" r="9.29"/><path class="cls-18" d="m665.03,472.24c15.56-4.29,32.2-6.49,49.78-6.91v18.12l16.73-18.12h17.43v18.12l12.07-18.12c9.46,14.64,10,29.29,1.63,43.93-2.69,4.7-7.67,7.65-13.08,7.65h-79.39c-11.16,0-20.21-9.05-20.21-20.21v-4.89c0-9.18,6.2-17.13,15.05-19.57Z"/><path class="cls-18" d="m566.63,472.24c-15.56-4.29-32.2-6.49-49.78-6.91v18.12l-11.33-18.12h-9.93l-.78,12.28-4.44-12.28h-13.59l2.42,7.39-8.57-7.39c-9.46,14.64-10,29.29-1.63,43.93,2.69,4.7,7.67,7.65,13.08,7.65h79.39c11.16,0,20.21-9.05,20.21-20.21v-4.89c0-9.18-6.2-17.13-15.04-19.57Z"/><path class="cls-49" d="m568.78,698.32c0,27.33,21.07,49.49,47.05,49.49s47.05-22.16,47.05-49.49-21.07-49.49-47.05-49.49-47.05,22.16-47.05,49.49Z"/><path class="cls-31" d="m568.78,698.32c0,19.73,21.07,35.72,47.05,35.72s47.05-15.99,47.05-35.72-21.07-35.72-47.05-35.72-47.05,15.99-47.05,35.72Z"/><path class="cls-38" d="m652.1,721.06c-8.63,7.92-21.67,12.97-36.27,12.97s-27.64-5.05-36.27-12.97c8.63-7.92,21.68-12.97,36.28-12.97s27.64,5.05,36.27,12.97Z"/><path class="cls-18" d="m522.39,697.44h17.37l13.71-23.03.36,23.03h17.51l4.98-8.54,6.08,8.54h68.93l2.7-20.33,11.43,20.33h20.57l6.44-13.89,3.43,13.89h21.94c-10.88-81.61-97.72-73.06-97.72-73.06,0,0-86.84-8.54-97.72,73.06Z"/><path class="cls-49" d="m620.11,582.53c4.62,0,8.36-3.74,8.36-8.36v-58.32c0-4.62-3.74-8.36-8.36-8.36s-8.36,3.74-8.36,8.36v58.32c0,4.62,3.74,8.36,8.36,8.36Z"/><path class="cls-23" d="m491.4,436.06c.91,0,1.84-.2,2.72-.62,47.5-22.88,96.49-32.46,145.59-28.45,3.49.26,6.48-2.29,6.76-5.74.28-3.45-2.29-6.48-5.74-6.76-51.36-4.19-102.51,5.79-152.05,29.65-3.12,1.51-4.43,5.25-2.93,8.37,1.08,2.24,3.32,3.55,5.66,3.55Z"/><path class="cls-23" d="m747.76,436.06c2.39,0,4.67-1.37,5.71-3.68,1.43-3.15.04-6.87-3.12-8.3-21.5-9.76-43.16-17.28-64.4-22.34-3.36-.8-6.75,1.28-7.56,4.65-.8,3.37,1.28,6.75,4.65,7.56,20.46,4.88,41.35,12.13,62.12,21.56.84.38,1.72.56,2.59.56Z"/><path class="cls-23" d="m521.06,385.88c.71,0,1.44-.12,2.15-.38,20.3-7.4,41.02-12.45,61.59-15.01,3.44-.43,5.88-3.56,5.45-7-.43-3.44-3.56-5.88-7-5.45-21.51,2.67-43.15,7.95-64.34,15.67-3.25,1.19-4.93,4.79-3.74,8.04.93,2.55,3.33,4.13,5.89,4.13Z"/><path class="cls-23" d="m728.36,390.24c2.51,0,4.88-1.52,5.85-4,1.26-3.23-.34-6.86-3.57-8.12-40.25-15.65-80.6-23.08-119.83-22.13-3.46.09-6.2,2.96-6.12,6.43.09,3.46,2.86,6.25,6.43,6.12,37.6-.94,76.28,6.23,114.98,21.28.74.29,1.51.43,2.27.43Z"/><path class="cls-25" d="m510.05,472.98c17.57,5.94,36.43,8.04,51.97,4.79,17.09-3.58,29.07-13.47,33.72-27.85,1.48-4.59,4.74-8.34,9.17-10.56,4.68-2.35,10.21-2.74,15.18-1.06l14.36,4.85c4.97,1.68,9.13,5.34,11.43,10.05,2.17,4.46,2.48,9.41.88,13.96-5.02,14.26-1.5,29.39,9.92,42.6,20.57,23.79,64.23,38.75,95.34,32.66,17.33-3.4,29.54-13.16,34.39-27.51,1.84-5.45,7.78-8.39,13.24-6.55l8.38,2.83c4.38,1.48,9.12-.87,10.6-5.25l13.43-39.74c1.48-4.38-.87-9.12-5.25-10.6l-374.61-126.57c-4.38-1.48-9.12.87-10.6,5.25l-13.43,39.74c-1.48,4.38.87,9.12,5.25,10.6l15.78,5.33c5.46,1.84,8.39,7.78,6.55,13.24-4.85,14.34-1.06,29.52,10.66,42.73,10.41,11.74,26.41,21.24,43.64,27.07Zm129.76-45.68l-14.36-4.85c-9.18-3.1-19.4-2.39-28.05,1.96-8.46,4.26-14.7,11.48-17.57,20.36-2.81,8.67-9.95,14.27-21.24,16.63-25.2,5.28-62.43-7.14-79.67-26.58-7.78-8.77-10.25-17.61-7.32-26.27,4.79-14.19-2.85-29.64-17.04-34.44l-7.86-2.65,8.07-23.89,358.76,121.22-8.07,23.89-.46-.16c-14.19-4.8-29.64,2.85-34.44,17.04-2.93,8.66-10.24,14.19-21.75,16.45-25.5,4.99-62.63-7.71-79.47-27.19-7.54-8.72-9.83-17.5-6.8-26.1,3.1-8.79,2.52-18.33-1.62-26.83-4.24-8.7-11.93-15.47-21.11-18.57Z"/><path class="cls-5" d="m449.53,336.96l374.61,126.57-13.43,39.73-8.38-2.83c-9.84-3.32-20.51,1.96-23.84,11.8h0c-17.29,51.17-141.88,8.92-123.84-42.3,5.03-14.27-3.18-29.86-17.52-34.71l-14.36-4.85c-14.34-4.84-30.32,2.57-34.98,16.97-16.72,51.67-141.4,9.69-124.11-41.48h0c3.32-9.84-1.96-20.51-11.8-23.84l-15.78-5.33,13.43-39.74Z"/><path class="cls-49" d="m609.12,632.72h11c4.62,0,8.36-3.74,8.36-8.36s-3.74-8.36-8.36-8.36h-11c-9.22,0-16.73-7.5-16.73-16.73s7.5-16.73,16.73-16.73h11c4.62,0,8.36-3.74,8.36-8.36s-3.74-8.36-8.36-8.36h-11c-18.45,0-33.46,15.01-33.46,33.46s15.01,33.46,33.46,33.46Z"/><path class="cls-39" d="m769.03,669.14c4.62,0,8.36-3.74,8.36-8.36v-36.66c0-4.62-3.74-8.36-8.36-8.36s-8.36,3.74-8.36,8.36v36.66c0,4.62,3.74,8.36,8.36,8.36Z"/><path class="cls-39" d="m750.7,650.81h36.66c4.62,0,8.36-3.74,8.36-8.36s-3.74-8.36-8.36-8.36h-36.66c-4.62,0-8.36,3.74-8.36,8.36s3.74,8.36,8.36,8.36Z"/><path class="cls-39" d="m508.32,729.42c2.14,0,4.28-.82,5.91-2.45,3.27-3.27,3.27-8.56,0-11.83l-16.93-16.93c-3.26-3.27-8.56-3.27-11.83,0-3.27,3.27-3.27,8.56,0,11.83l16.93,16.93c1.63,1.63,3.77,2.45,5.91,2.45Z"/><path class="cls-39" d="m491.39,729.42c2.14,0,4.28-.82,5.91-2.45l16.93-16.93c3.27-3.27,3.27-8.56,0-11.83-3.26-3.27-8.56-3.27-11.83,0l-16.93,16.93c-3.27,3.27-3.27,8.56,0,11.83,1.63,1.63,3.77,2.45,5.91,2.45Z"/><path class="cls-39" d="m454.64,625.97c3.47,0,6.27-2.81,6.27-6.27v-23.94c0-3.46-2.81-6.27-6.27-6.27s-6.27,2.81-6.27,6.27v23.94c0,3.46,2.81,6.27,6.27,6.27Z"/><path class="cls-39" d="m442.67,614h23.94c3.47,0,6.27-2.81,6.27-6.27s-2.81-6.27-6.27-6.27h-23.94c-3.47,0-6.27,2.81-6.27,6.27s2.81,6.27,6.27,6.27Z"/><path class="cls-8" d="m400.33,876.96h1.52c14.06-.06,14.06-20.04,0-20.1h-57.93c-20.12,0-20.12-29.33,0-29.33h138.27c20.68,0,20.68,29.33,0,29.33h4.38c-13.77,0-13.77,20.1,0,20.1h13.96c22.96,0,22.96,32.56,0,32.56h-29.16c-12.5,0-12.5,18.24,0,18.24h53.81c20.68,0,20.68,29.33,0,29.33h-16.08c-12.5,0-12.5,18.24,0,18.24h-34.67c12.76-.05,12.76-18.19,0-18.24h-39.51c-20.12,0-20.12-29.33,0-29.33h1.78c12.76-.05,12.76-18.19,0-18.24h-36.38c-22.34,0-22.34-32.56,0-32.56Zm48.05-20.1h-8.34c-13.77,0-13.77,20.1,0,20.1h8.34c14.06-.06,14.06-20.04,0-20.1Z"/><path class="cls-8" d="m329.24,876.96h18.35c22.96,0,22.96,32.56,0,32.56h-18.35c-22.34,0-22.34-32.56,0-32.56Z"/></g><text class="cls-61" transform="translate(198.79 199.68)"><tspan x="0" y="0">SPOO</tspan><tspan class="cls-57" x="307.53" y="0">K</tspan><tspan class="cls-55" x="381.46" y="0">Y</tspan><tspan x="449.09" y="0" xml:space="preserve"> SCIENCE</tspan></text><text class="cls-62" transform="translate(632.37 295.58)"><tspan class="cls-54" x="0" y="0">10</tspan><tspan class="cls-63" x="93.58" y="0"></tspan><tspan class="cls-54" x="172.22" y="0">22</tspan><tspan class="cls-64" x="265.8" y="0">()</tspan></text></svg>