<?xml version="1.0" encoding="UTF-8"?><svg id="Layer_1" xmlns="http://www.w3.org/2000/svg" xmlns:xlink="http://www.w3.org/1999/xlink" viewBox="0 0 1200 1697.14"><defs><style>.cls-1{clip-path:url(#clippath);}.cls-2,.cls-3{fill:#f7a587;}.cls-4{fill:url(#radial-gradient);}.cls-4,.cls-5,.cls-6,.cls-7,.cls-8,.cls-9,.cls-10,.cls-11,.cls-12,.cls-13,.cls-14,.cls-15,.cls-16,.cls-17,.cls-18,.cls-19,.cls-20,.cls-21,.cls-22,.cls-23,.cls-3,.cls-24,.cls-25,.cls-26,.cls-27,.cls-28,.cls-29,.cls-30,.cls-31,.cls-32,.cls-33,.cls-34,.cls-35,.cls-36,.cls-37,.cls-38,.cls-39,.cls-40,.cls-41,.cls-42,.cls-43,.cls-44,.cls-45,.cls-46,.cls-47,.cls-48,.cls-49,.cls-50,.cls-51,.cls-52,.cls-53{stroke-width:0px;}.cls-54{font-family:AvenirNext-Medium, 'Avenir Next';font-weight:500;}.cls-55{letter-spacing:-.02em;}.cls-56{filter:url(#drop-shadow-4);stroke:#fff;stroke-miterlimit:10;stroke-width:2px;}.cls-56,.cls-9{fill:#62336e;}.cls-57{letter-spacing:0em;}.cls-5{fill:#faee4f;}.cls-5,.cls-6{opacity:.4;}.cls-58{filter:url(#drop-shadow-5);}.cls-59{filter:url(#drop-shadow-6);}.cls-60{filter:url(#drop-shadow-1);}.cls-61{letter-spacing:0em;}.cls-61,.cls-62{font-family:Osaka, Osaka;}.cls-6,.cls-7,.cls-8,.cls-9,.cls-10,.cls-11,.cls-12,.cls-13,.cls-14,.cls-15,.cls-16,.cls-17,.cls-18,.cls-19,.cls-20{fill-rule:evenodd;}.cls-6,.cls-39{fill:#8f6f71;}.cls-7{fill:#2d100f;}.cls-8,.cls-33{fill:#3b2232;}.cls-10{fill:#5f3a16;}.cls-11{fill:#9560a7;}.cls-12,.cls-30{fill:#542e16;}.cls-13,.cls-32{fill:#70b0bb;}.cls-14,.cls-29{fill:#87d0d3;}.cls-15{fill:#cea8ce;}.cls-16,.cls-37{fill:#c8e9ee;}.cls-17{fill:#c5e8ef;}.cls-18{fill:#d1d2d3;}.cls-19,.cls-63,.cls-44,.cls-64{fill:#fff;}.cls-20,.cls-48{fill:#f28eb9;}.cls-63{font-family:AvenirNext-Bold, 'Avenir Next';font-size:108.55px;font-weight:700;}.cls-21{fill:#454546;filter:url(#drop-shadow-2);}.cls-22{fill:#f5931e;}.cls-23{fill:#f59373;}.cls-24{fill:#f9a840;}.cls-25{fill:#f9a947;}.cls-26{fill:#f9a11f;}.cls-27{fill:#5eb348;}.cls-28{fill:#636464;}.cls-31{fill:#550f0e;}.cls-34{fill:#3bb44a;}.cls-35{fill:#39525f;}.cls-36{fill:#373737;}.cls-38{fill:#ab1f23;}.cls-40{fill:#818282;}.cls-41{fill:#ef503d;}.cls-42{fill:#ffcb1c;}.cls-43{fill:#f3971e;}.cls-45{fill:#f69126;}.cls-46{fill:#efe7e3;}.cls-47{fill:#ed8922;}.cls-49{fill:#f48365;}.cls-50{fill:#ec1e24;}.cls-51{fill:#f7992e;}.cls-52{fill:#f7981d;}.cls-53{fill:#f68d1e;}.cls-64{font-size:81.41px;}</style><radialGradient id="radial-gradient" cx="600" cy="818.79" fx="600" fy="818.79" r="826.11" gradientTransform="translate(3.49 4.9)" gradientUnits="userSpaceOnUse"><stop offset="0" stop-color="#f8a35c"/><stop offset="1" stop-color="#f16122"/></radialGradient><filter id="drop-shadow-1" filterUnits="userSpaceOnUse"><feOffset dx="0" dy="0"/><feGaussianBlur result="blur" stdDeviation="4"/><feFlood flood-color="#231f20" flood-opacity=".6"/><feComposite in2="blur" operator="in"/><feComposite in="SourceGraphic"/></filter><filter id="drop-shadow-2" filterUnits="userSpaceOnUse"><feOffset dx="0" dy="0"/><feGaussianBlur result="blur-2" stdDeviation="4"/><feFlood flood-color="#231f20" flood-opacity=".6"/><feComposite in2="blur-2" operator="in"/><feComposite in="SourceGraphic"/></filter><filter id="drop-shadow-4" filterUnits="userSpaceOnUse"><feOffset dx="0" dy="0"/><feGaussianBlur result="blur-3" stdDeviation="4"/><feFlood flood-color="#231f20" flood-opacity=".6"/><feComposite in2="blur-3" operator="in"/><feComposite in="SourceGraphic"/></filter><filter id="drop-shadow-5" filterUnits="userSpaceOnUse"><feOffset dx="0" dy="0"/><feGaussianBlur result="blur-4" stdDeviation="4"/><feFlood flood-color="#231f20" flood-opacity=".6"/><feComposite in2="blur-4" operator="in"/><feComposite in="SourceGraphic"/></filter><filter id="drop-shadow-6" filterUnits="userSpaceOnUse"><feOffset dx="0" dy="0"/><feGaussianBlur result="blur-5" stdDeviation="4"/><feFlood flood-color="#231f20" flood-opacity=".6"/><feComposite in2="blur-5" operator="in"/><feComposite in="SourceGraphic"/></filter><clipPath id="clippath"><path class="cls-3" d="m616.39,327.64h0c112.3,0,203.48,91.18,203.48,203.48v73.6c0,112.3-91.18,203.48-203.48,203.48h0c-112.3,0-203.48-91.18-203.48-203.48v-73.6c0-112.3,91.18-203.48,203.48-203.48Z"/></clipPath></defs><rect id="A3_Guide" class="cls-50" x="28.84" y="11.23" width="1142.32" height="1615.39"/><rect id="Background" class="cls-4" x="15.27" y="-7.95" width="1169.45" height="1653.77"/><polygon class="cls-53" points="-5.03 120.04 105.05 56.56 105.05 183.52 -5.03 120.04"/><polygon class="cls-45" points="-5.03 246.99 105.05 310.48 -5.01 373.95 -5.03 246.99"/><polygon class="cls-45" points="-4.99 500.91 105.05 564.39 -4.98 627.86 -4.99 500.91"/><polygon class="cls-45" points="-4.97 754.81 105.05 691.34 105.05 818.3 -4.97 754.81"/><polygon class="cls-47" points="-5.01 -6.07 105.05 56.56 -5.03 120.04 -5.01 -6.07"/><polygon class="cls-22" points="-5.01 373.95 105.05 310.48 105.05 437.44 -5.01 373.95"/><polygon class="cls-51" points="-4.9 1008.75 105.05 945.26 105.05 1072.25 -4.9 1008.75"/><polygon class="cls-51" points="-4.98 627.86 105.05 691.34 -4.97 754.81 -4.98 627.86"/><polygon class="cls-47" points="-4.9 1008.75 105.05 1072.25 -4.87 1135.74 -4.9 1008.75"/><polygon class="cls-45" points="-4.87 1135.74 105.05 1072.25 105.05 1199.24 -4.87 1135.74"/><polygon class="cls-47" points="-4.99 500.91 105.05 437.44 105.05 564.39 -4.99 500.91"/><polygon class="cls-51" points="-4.84 1262.73 105.05 1199.24 105.05 1326.23 -4.84 1262.73"/><polygon class="cls-45" points="-4.81 1389.72 105.05 1326.23 105.05 1453.22 -4.81 1389.72"/><polygon class="cls-53" points="215.13 1389.73 105.05 1453.22 105.05 1326.23 215.13 1389.73"/><polygon class="cls-47" points="215.11 1262.75 105.05 1326.23 105.05 1199.24 215.11 1262.75"/><polygon class="cls-47" points="214.9 373.97 105.05 310.48 214.88 247.01 214.9 373.97"/><polygon class="cls-53" points="214.91 500.92 105.05 564.39 105.05 437.44 214.91 500.92"/><polygon class="cls-51" points="214.88 247.01 105.05 183.52 214.87 120.04 214.88 247.01"/><polygon class="cls-22" points="215.13 1389.73 105.05 1326.23 215.11 1262.75 215.13 1389.73"/><polygon class="cls-53" points="215.05 1008.76 105.05 945.26 214.98 881.8 215.05 1008.76"/><polygon class="cls-45" points="214.87 120.04 105.05 56.56 214.89 -6.07 214.87 120.04"/><polygon class="cls-22" points="214.94 754.84 105.05 818.3 105.05 691.34 214.94 754.84"/><polygon class="cls-51" points="214.91 627.87 105.05 564.39 214.91 500.92 214.91 627.87"/><polygon class="cls-45" points="214.91 500.92 105.05 437.44 214.9 373.97 214.91 500.92"/><polygon class="cls-22" points="214.89 -6.07 325 -6.07 325 56.54 214.89 -6.07"/><polygon class="cls-22" points="214.91 500.92 325 564.41 214.91 627.87 214.91 500.92"/><polygon class="cls-47" points="214.91 627.87 325 564.41 325 691.37 214.91 627.87"/><polygon class="cls-22" points="214.98 881.8 325 945.3 215.05 1008.76 214.98 881.8"/><polygon class="cls-53" points="214.94 754.84 325 691.37 325 818.34 214.94 754.84"/><polygon class="cls-53" points="214.9 373.97 325 310.5 325 437.46 214.9 373.97"/><polygon class="cls-45" points="214.88 247.01 325 183.53 325 310.5 214.88 247.01"/><polygon class="cls-45" points="214.91 627.87 325 691.37 214.94 754.84 214.91 627.87"/><polygon class="cls-47" points="214.98 881.8 325 818.34 325 945.3 214.98 881.8"/><polygon class="cls-51" points="215.05 1008.76 325 1072.26 215.08 1135.75 215.05 1008.76"/><polygon class="cls-45" points="215.08 1135.75 325 1072.26 325 1199.25 215.08 1135.75"/><polygon class="cls-45" points="215.11 1262.75 325 1326.24 215.13 1389.73 215.11 1262.75"/><polygon class="cls-51" points="215.13 1389.73 325 1326.24 325 1453.36 215.13 1389.73"/><polygon class="cls-22" points="434.81 247.02 325 310.5 325 183.53 434.81 247.02"/><polygon class="cls-22" points="435.06 1262.76 325 1326.24 325 1199.25 435.06 1262.76"/><polygon class="cls-51" points="435.06 1262.76 325 1199.25 435.03 1135.77 435.06 1262.76"/><polygon class="cls-53" points="434.97 1008.81 325 1072.26 325 945.3 434.97 1008.81"/><polygon class="cls-51" points="434.82 373.99 325 310.5 434.81 247.02 434.82 373.99"/><polygon class="cls-47" points="434.81 120.04 325 183.53 325 56.54 434.81 120.04"/><polygon class="cls-53" points="435.3 1389.87 325 1326.24 435.06 1262.76 435.3 1389.87"/><polygon class="cls-47" points="435.03 1135.77 325 1199.25 325 1072.26 435.03 1135.77"/><polygon class="cls-51" points="434.97 1008.81 325 945.3 434.93 881.85 434.97 1008.81"/><polygon class="cls-45" points="434.93 881.85 325 945.3 325 818.34 434.93 881.85"/><polygon class="cls-51" points="434.81 120.04 325 56.54 434.81 -6.07 434.81 120.04"/><polygon class="cls-22" points="434.89 754.88 325 818.34 325 691.37 434.89 754.88"/><polygon class="cls-51" points="434.85 627.91 325 564.41 434.83 500.94 434.85 627.91"/><polygon class="cls-47" points="434.82 373.99 325 437.46 325 310.5 434.82 373.99"/><polygon class="cls-53" points="434.81 -6.07 544.95 -6.07 544.95 56.55 434.81 -6.07"/><polygon class="cls-45" points="434.81 120.04 544.95 56.55 544.95 183.53 434.81 120.04"/><polygon class="cls-45" points="434.81 247.02 544.95 310.51 434.82 373.99 434.81 247.02"/><polygon class="cls-45" points="434.83 500.94 544.95 564.44 434.85 627.91 434.83 500.94"/><polygon class="cls-51" points="434.89 754.88 544.95 691.41 544.95 818.39 434.89 754.88"/><polygon class="cls-22" points="434.81 -6.07 544.95 56.55 434.81 120.04 434.81 -6.07"/><polygon class="cls-47" points="434.85 627.91 544.95 691.41 434.89 754.88 434.85 627.91"/><polygon class="cls-22" points="434.97 1008.81 544.95 1072.32 435.03 1135.77 434.97 1008.81"/><polygon class="cls-45" points="435.03 1135.77 544.95 1072.32 544.95 1199.27 435.03 1135.77"/><polygon class="cls-22" points="434.83 500.94 544.95 437.48 544.95 564.44 434.83 500.94"/><polygon class="cls-51" points="435.3 1389.87 544.95 1326.38 544.95 1453.35 435.3 1389.87"/><polygon class="cls-22" points="654.75 247.01 544.95 310.51 544.95 183.53 654.75 247.01"/><polygon class="cls-45" points="655.2 1389.86 544.95 1453.35 544.95 1326.38 655.2 1389.86"/><polygon class="cls-53" points="655.22 1262.89 544.95 1326.38 544.95 1199.27 655.22 1262.89"/><polygon class="cls-51" points="655.22 1262.89 544.95 1199.27 654.96 1135.82 655.22 1262.89"/><polygon class="cls-51" points="654.92 1008.86 544.95 1072.32 544.95 945.35 654.92 1008.86"/><polygon class="cls-51" points="654.75 374 544.95 310.51 654.75 247.01 654.75 374"/><polygon class="cls-53" points="654.76 500.97 544.95 564.44 544.95 437.48 654.76 500.97"/><polygon class="cls-22" points="655.2 1389.86 544.95 1326.38 655.22 1262.89 655.2 1389.86"/><polygon class="cls-22" points="654.92 1008.86 544.95 945.35 654.88 881.89 654.92 1008.86"/><polygon class="cls-47" points="654.88 881.89 544.95 945.35 544.95 818.39 654.88 881.89"/><polygon class="cls-53" points="654.88 881.89 544.95 818.39 654.84 754.91 654.88 881.89"/><polygon class="cls-22" points="654.84 754.91 544.95 691.41 654.8 627.94 654.84 754.91"/><polygon class="cls-53" points="654.75 120.03 764.89 183.52 654.75 247.01 654.75 120.03"/><polygon class="cls-53" points="654.76 -6.07 764.89 -6.07 764.89 56.55 654.76 -6.07"/><polygon class="cls-45" points="654.75 247.01 764.89 310.5 654.75 374 654.75 247.01"/><polygon class="cls-51" points="654.76 500.97 764.89 564.48 654.8 627.94 654.76 500.97"/><polygon class="cls-47" points="654.8 627.94 764.89 564.48 764.89 691.45 654.8 627.94"/><polygon class="cls-51" points="654.84 754.91 764.89 691.45 764.89 818.42 654.84 754.91"/><polygon class="cls-47" points="654.76 -6.07 764.89 56.55 654.75 120.03 654.76 -6.07"/><polygon class="cls-45" points="654.92 1008.86 764.89 945.39 764.89 1072.36 654.92 1008.86"/><polygon class="cls-47" points="654.75 247.01 764.89 183.52 764.89 310.5 654.75 247.01"/><polygon class="cls-47" points="654.75 374 764.89 437.5 654.76 500.97 654.75 374"/><polygon class="cls-45" points="654.8 627.94 764.89 691.45 654.84 754.91 654.8 627.94"/><polygon class="cls-53" points="654.92 1008.86 764.89 1072.36 654.96 1135.82 654.92 1008.86"/><polygon class="cls-22" points="654.96 1135.82 764.89 1072.36 764.89 1199.45 654.96 1135.82"/><polygon class="cls-47" points="654.96 1135.82 764.89 1199.45 655.22 1262.89 654.96 1135.82"/><polygon class="cls-45" points="655.22 1262.89 764.89 1199.45 764.89 1326.37 655.22 1262.89"/><polygon class="cls-53" points="655.2 1389.86 764.89 1326.37 764.89 1453.34 655.2 1389.86"/><polygon class="cls-45" points="874.68 -6.07 764.89 -6.07 764.89 56.55 874.68 -6.07"/><polygon class="cls-51" points="875.11 1135.99 764.89 1072.36 874.86 1008.89 875.11 1135.99"/><polygon class="cls-53" points="875.11 1262.92 764.89 1199.45 875.11 1135.99 875.11 1262.92"/><polygon class="cls-45" points="874.72 501 764.89 564.48 764.89 437.5 874.72 501"/><polygon class="cls-51" points="874.67 247.01 764.89 183.52 874.69 120.04 874.67 247.01"/><polygon class="cls-22" points="874.69 120.04 764.89 183.52 764.89 56.55 874.69 120.04"/><polygon class="cls-47" points="874.86 1008.89 764.89 945.39 874.82 881.92 874.86 1008.89"/><polygon class="cls-22" points="874.82 881.92 764.89 818.42 874.78 754.95 874.82 881.92"/><polygon class="cls-53" points="874.78 754.95 764.89 691.45 874.74 627.98 874.78 754.95"/><polygon class="cls-51" points="874.72 501 764.89 437.5 874.69 374 874.72 501"/><polygon class="cls-22" points="874.69 374 764.89 437.5 764.89 310.5 874.69 374"/><polygon class="cls-45" points="1094.81 120.02 1204.55 183.52 1094.81 247 1094.81 120.02"/><polygon class="cls-47" points="1094.81 120.02 1204.53 56.55 1204.55 183.52 1094.81 120.02"/><polygon class="cls-53" points="1094.81 501 1204.65 564.5 1094.81 627.99 1094.81 501"/><polygon class="cls-22" points="1094.81 627.98 1204.65 564.5 1204.65 691.49 1094.81 627.98"/><polygon class="cls-45" points="1094.81 881.95 1204.95 945.57 1094.81 1009.04 1094.81 881.95"/><polygon class="cls-47" points="1094.81 754.98 1204.65 691.49 1204.7 818.48 1094.81 754.98"/><polygon class="cls-47" points="1094.81 374 1204.58 310.5 1204.62 437.5 1094.81 374"/><polygon class="cls-53" points="1094.81 754.98 1204.7 818.48 1094.81 881.95 1094.81 754.98"/><polygon class="cls-22" points="1094.81 247 1204.55 183.52 1204.58 310.5 1094.81 247"/><polygon class="cls-45" points="1094.81 374 1204.62 437.5 1094.81 501 1094.81 374"/><polygon class="cls-22" points="1094.81 1009.04 1204.94 1072.52 1094.81 1135.98 1094.81 1009.04"/><polygon class="cls-53" points="1094.81 1135.98 1204.94 1072.52 1204.92 1199.45 1094.81 1135.98"/><polygon class="cls-51" points="1094.81 1262.92 1204.9 1326.39 1094.81 1389.85 1094.81 1262.92"/><polygon class="cls-45" points="874.69 120.04 984.83 183.52 874.67 247.01 874.69 120.04"/><polygon class="cls-47" points="874.68 -6.07 984.83 -6.07 984.83 56.56 874.68 -6.07"/><polygon class="cls-53" points="874.69 120.04 984.83 56.56 984.83 183.52 874.69 120.04"/><polygon class="cls-22" points="874.72 501 984.83 564.5 874.74 627.98 874.72 501"/><polygon class="cls-45" points="874.74 627.98 984.83 564.5 984.83 691.48 874.74 627.98"/><polygon class="cls-53" points="874.69 374 984.83 310.5 984.83 437.5 874.69 374"/><polygon class="cls-45" points="874.78 754.95 984.83 818.45 874.82 881.92 874.78 754.95"/><polygon class="cls-22" points="874.86 1008.89 984.83 945.42 984.83 1072.52 874.86 1008.89"/><polygon class="cls-47" points="874.67 247.01 984.83 183.52 984.83 310.5 874.67 247.01"/><polygon class="cls-51" points="874.82 881.92 984.83 818.45 984.83 945.42 874.82 881.92"/><polygon class="cls-45" points="875.11 1135.99 984.83 1072.52 984.83 1199.46 875.11 1135.99"/><polygon class="cls-47" points="875.11 1135.99 984.83 1199.46 875.11 1262.92 875.11 1135.99"/><polygon class="cls-51" points="875.11 1262.92 984.83 1326.4 875.11 1389.85 875.11 1262.92"/><polygon class="cls-53" points="875.11 1389.85 984.83 1326.4 984.83 1453.31 875.11 1389.85"/><polygon class="cls-47" points="1094.81 1389.87 984.83 1453.31 984.83 1326.4 1094.81 1389.87"/><polygon class="cls-51" points="1094.81 1136 984.83 1072.52 1094.81 1009.05 1094.81 1136"/><polygon class="cls-22" points="1094.81 1262.94 984.83 1326.4 984.83 1199.46 1094.81 1262.94"/><polygon class="cls-53" points="1094.81 1009.05 984.83 1072.52 984.83 945.42 1094.81 1009.05"/><polygon class="cls-51" points="1094.81 374.01 984.83 310.5 1094.81 247.02 1094.81 374.01"/><polygon class="cls-22" points="1094.81 120.04 984.83 183.52 984.83 56.56 1094.81 120.04"/><polygon class="cls-45" points="1094.81 1389.87 984.83 1326.4 1094.81 1262.94 1094.81 1389.87"/><polygon class="cls-47" points="1094.81 1009.05 984.83 945.42 1094.81 881.95 1094.81 1009.05"/><polygon class="cls-51" points="1094.81 120.04 984.83 56.56 1094.81 -6.07 1094.81 120.04"/><polygon class="cls-22" points="1094.81 754.98 984.83 818.45 984.83 691.48 1094.81 754.98"/><polygon class="cls-51" points="1094.81 628.01 984.83 691.48 984.83 564.5 1094.81 628.01"/><polygon class="cls-47" points="1094.81 628.01 984.83 564.5 1094.81 501 1094.81 628.01"/><polygon class="cls-22" points="1094.81 501 984.83 437.5 1094.81 374.01 1094.81 501"/><polygon class="cls-51" points="-4.76 1516.68 105.05 1580.3 -4.4 1643.93 -4.76 1516.68"/><polygon class="cls-47" points="-4.76 1516.68 105.05 1453.22 105.05 1580.3 -4.76 1516.68"/><polygon class="cls-53" points="215.51 1643.93 105.05 1580.3 215.37 1516.84 215.51 1643.93"/><polygon class="cls-51" points="215.37 1516.84 325 1580.32 215.51 1643.93 215.37 1516.84"/><polygon class="cls-53" points="435.27 1516.84 325 1580.32 325 1453.36 435.27 1516.84"/><polygon class="cls-45" points="435.39 1643.93 325 1580.32 435.27 1516.84 435.39 1643.93"/><polygon class="cls-47" points="435.27 1516.84 325 1453.36 435.3 1389.87 435.27 1516.84"/><polygon class="cls-22" points="435.27 1516.84 544.95 1453.35 544.95 1580.31 435.27 1516.84"/><polygon class="cls-22" points="655.19 1516.83 764.89 1580.29 655.28 1643.93 655.19 1516.83"/><polygon class="cls-51" points="655.2 1389.86 764.89 1453.34 655.19 1516.83 655.2 1389.86"/><polygon class="cls-47" points="655.19 1516.83 764.89 1453.34 764.89 1580.29 655.19 1516.83"/><polygon class="cls-51" points="875.16 1643.93 764.89 1580.29 875.07 1516.8 875.16 1643.93"/><polygon class="cls-45" points="1094.81 1516.77 1204.93 1580.27 1094.81 1643.93 1094.81 1516.77"/><polygon class="cls-53" points="875.07 1516.8 984.83 1580.26 875.16 1643.93 875.07 1516.8"/><polygon class="cls-22" points="875.11 1389.85 984.83 1453.31 875.07 1516.8 875.11 1389.85"/><polygon class="cls-45" points="875.07 1516.8 984.83 1453.31 984.83 1580.26 875.07 1516.8"/><polygon class="cls-51" points="1094.81 1516.77 984.83 1580.26 984.83 1453.31 1094.81 1516.77"/><polygon class="cls-22" points="1094.81 1643.93 984.83 1580.26 1094.81 1516.77 1094.81 1643.93"/><polygon class="cls-22" points="215.56 1643.93 325 1643.93 325 1580.34 215.56 1643.93"/><polygon class="cls-22" points="105.05 183.52 214.87 120.04 105.05 56.56 105.05 183.52"/><polygon class="cls-53" points="435.45 1643.93 544.95 1643.93 544.95 1580.34 435.45 1643.93"/><polygon class="cls-53" points="655.34 1643.93 764.89 1643.93 764.89 1580.31 655.34 1643.93"/><polygon class="cls-45" points="875.21 1643.93 764.89 1643.93 764.89 1580.31 875.21 1643.93"/><polygon class="cls-43" points="105.05 -6.07 -5.01 -6.07 105.05 56.56 105.05 -6.07"/><polygon class="cls-43" points="-4.98 627.86 105.05 691.34 105.05 564.39 -4.98 627.86"/><polygon class="cls-43" points="105.05 818.3 -4.93 881.76 105.05 945.26 105.05 818.3"/><polygon class="cls-43" points="-4.84 1262.73 -4.81 1389.72 105.05 1326.23 -4.84 1262.73"/><polygon class="cls-43" points="105.05 1199.24 215.08 1135.75 105.05 1072.25 105.05 1199.24"/><polygon class="cls-43" points="214.9 373.97 105.05 310.48 105.05 437.44 214.9 373.97"/><polygon class="cls-43" points="214.89 -6.07 214.87 120.04 325 56.54 214.89 -6.07"/><polygon class="cls-43" points="214.98 881.8 325 818.34 214.94 754.84 214.98 881.8"/><polygon class="cls-43" points="325 1072.26 435.03 1135.77 434.97 1008.81 325 1072.26"/><polygon class="cls-43" points="434.83 500.94 325 437.46 325 564.41 434.83 500.94"/><polygon class="cls-43" points="435 120.04 435 247.02 544.95 183.53 435 120.04"/><polygon class="cls-43" points="434.86 627.91 544.95 691.41 544.95 564.44 434.86 627.91"/><polygon class="cls-43" points="544.95 818.39 434.89 754.88 434.93 881.85 544.95 818.39"/><polygon class="cls-43" points="544.95 1326.38 435.06 1262.76 435.3 1389.87 544.95 1326.38"/><polygon class="cls-43" points="654.76 -6.07 544.95 56.55 654.75 120.03 654.76 -6.07"/><polygon class="cls-43" points="544.95 310.51 544.95 437.48 654.75 374 544.95 310.51"/><polygon class="cls-43" points="654.88 881.89 764.89 818.42 654.84 754.91 654.88 881.89"/><polygon class="cls-43" points="764.89 437.5 654.76 500.97 764.89 564.48 764.89 437.5"/><polygon class="cls-43" points="764.89 1326.37 875.11 1262.92 764.89 1199.45 764.89 1326.37"/><polygon class="cls-43" points="764.89 945.39 764.89 1072.36 874.86 1008.89 764.89 945.39"/><polygon class="cls-43" points="1094.81 -6.07 1094.81 120.02 1204.96 56.55 1094.81 -6.07"/><polygon class="cls-43" points="984.83 437.5 874.69 374 874.72 501 984.83 437.5"/><polygon class="cls-43" points="874.78 754.95 984.83 691.48 874.74 627.98 874.78 754.95"/><polygon class="cls-43" points="1094.81 247.02 984.83 183.52 984.83 310.5 1094.81 247.02"/><polygon class="cls-43" points="984.83 1072.52 984.83 1199.46 1094.81 1136 984.83 1072.52"/><polygon class="cls-43" points="1094.81 754.98 984.83 818.45 1094.81 881.95 1094.81 754.98"/><polygon class="cls-43" points="215.37 1516.84 325 1453.36 215.13 1389.73 215.37 1516.84"/><polygon class="cls-43" points="435.39 1643.93 544.95 1580.31 435.27 1516.84 435.39 1643.93"/><polygon class="cls-43" points="655.19 1516.83 655.2 1389.86 544.95 1453.35 655.19 1516.83"/><polygon class="cls-43" points="875.07 1516.8 875.11 1389.85 764.89 1453.34 875.07 1516.8"/><polygon class="cls-43" points="1094.81 1516.77 1204.93 1580.27 1204.87 1453.31 1094.81 1516.77"/><polygon class="cls-43" points="105.05 1643.93 105.05 1580.32 -4.29 1643.93 105.05 1643.93"/><polygon class="cls-47" points="875.21 1643.93 984.83 1643.93 984.83 1580.28 875.21 1643.93"/><polygon class="cls-24" points="-4.93 881.76 105.05 818.3 -4.97 754.81 -4.93 881.76"/><polygon class="cls-24" points="105.05 183.52 -5.03 246.99 105.05 310.48 105.05 183.52"/><polygon class="cls-24" points="-4.84 1262.73 105.05 1199.24 -4.87 1135.74 -4.84 1262.73"/><polygon class="cls-24" points="105.05 1072.25 215.05 1008.76 105.05 945.26 105.05 1072.25"/><polygon class="cls-24" points="214.91 627.87 105.05 691.34 214.94 754.84 214.91 627.87"/><polygon class="cls-24" points="325 183.53 214.87 120.04 214.88 247.01 325 183.53"/><polygon class="cls-24" points="214.91 500.92 325 437.46 214.9 373.97 214.91 500.92"/><polygon class="cls-24" points="215.11 1262.75 325 1199.25 215.08 1135.75 215.11 1262.75"/><polygon class="cls-24" points="434.81 -6.07 325 -6.07 325 56.54 434.81 -6.07"/><polygon class="cls-24" points="325 691.37 434.86 627.91 325 564.41 325 691.37"/><polygon class="cls-24" points="434.93 881.85 434.97 1008.81 544.95 945.35 434.93 881.85"/><polygon class="cls-24" points="544.95 310.51 434.82 373.99 544.95 437.48 544.95 310.51"/><polygon class="cls-24" points="544.95 56.55 544.95 183.53 654.75 120.03 544.95 56.55"/><polygon class="cls-24" points="544.95 1072.32 544.95 1199.27 654.96 1135.82 544.95 1072.32"/><polygon class="cls-24" points="654.8 627.94 654.76 500.97 544.95 564.44 654.8 627.94"/><polygon class="cls-24" points="764.89 818.42 654.88 881.89 764.89 945.39 764.89 818.42"/><polygon class="cls-24" points="655.2 1389.86 764.89 1326.37 655.22 1262.89 655.2 1389.86"/><polygon class="cls-24" points="764.89 183.52 764.89 310.5 874.67 247.01 764.89 183.52"/><polygon class="cls-24" points="874.68 -6.07 764.89 56.55 874.69 120.04 874.68 -6.07"/><polygon class="cls-24" points="764.89 691.45 874.74 627.98 764.89 564.48 764.89 691.45"/><polygon class="cls-24" points="1204.94 1072.52 1204.95 945.57 1094.81 1009.04 1204.94 1072.52"/><polygon class="cls-24" points="1204.65 691.49 1094.81 627.99 1094.81 754.98 1204.65 691.49"/><polygon class="cls-24" points="1094.81 501 1204.65 564.5 1204.62 437.5 1094.81 501"/><polygon class="cls-24" points="1204.9 1326.39 1204.92 1199.45 1094.81 1262.92 1204.9 1326.39"/><polygon class="cls-24" points="874.82 881.92 874.86 1008.89 984.83 945.42 874.82 881.92"/><polygon class="cls-24" points="984.83 691.48 874.78 754.95 984.83 818.45 984.83 691.48"/><polygon class="cls-24" points="984.83 1199.46 875.11 1262.92 984.83 1326.4 984.83 1199.46"/><polygon class="cls-24" points="1094.81 -6.07 984.83 -6.07 984.83 56.56 1094.81 -6.07"/><polygon class="cls-24" points="984.83 437.5 1094.81 374.01 984.83 310.5 984.83 437.5"/><polygon class="cls-24" points="105.05 1453.22 215.37 1516.84 215.13 1389.73 105.05 1453.22"/><polygon class="cls-24" points="435.3 1389.87 435.27 1516.84 544.95 1453.35 435.3 1389.87"/><polygon class="cls-24" points="544.95 1580.31 655.28 1643.93 655.19 1516.83 544.95 1580.31"/><polygon class="cls-24" points="1094.81 1516.77 1204.87 1453.31 1094.81 1389.85 1094.81 1516.77"/><polygon class="cls-24" points="325 1643.93 435.45 1643.93 325 1580.34 325 1643.93"/><polygon class="cls-24" points="984.83 1643.93 1094.81 1643.93 984.83 1580.28 984.83 1643.93"/><polygon class="cls-26" points="-5.03 120.04 -5.03 246.99 105.05 183.52 -5.03 120.04"/><polygon class="cls-26" points="-4.99 500.91 105.05 437.44 -5.01 373.95 -4.99 500.91"/><polygon class="cls-26" points="215.08 1135.75 105.05 1199.24 215.11 1262.75 215.08 1135.75"/><polygon class="cls-26" points="105.05 818.3 105.05 945.26 214.98 881.8 105.05 818.3"/><polygon class="cls-26" points="105.05 564.39 105.05 691.34 214.91 627.87 105.05 564.39"/><polygon class="cls-26" points="325 56.54 215.03 120.04 325 183.53 325 56.54"/><polygon class="cls-26" points="214.9 373.97 325 310.5 214.88 247.01 214.9 373.97"/><polygon class="cls-26" points="215.05 1008.76 325 1072.26 325 945.3 215.05 1008.76"/><polygon class="cls-26" points="325 1453.36 435.3 1389.87 325 1326.24 325 1453.36"/><polygon class="cls-26" points="434.93 881.85 434.89 754.88 325 818.34 434.93 881.85"/><polygon class="cls-26" points="434.82 373.99 325 437.46 434.83 500.94 434.82 373.99"/><polygon class="cls-26" points="434.97 1008.81 544.95 1072.32 544.95 945.35 434.97 1008.81"/><polygon class="cls-26" points="544.95 183.53 434.81 247.02 544.95 310.51 544.95 183.53"/><polygon class="cls-26" points="544.95 1199.27 435.06 1262.76 544.95 1326.38 544.95 1199.27"/><polygon class="cls-26" points="544.95 691.41 544.95 818.39 654.84 754.91 544.95 691.41"/><polygon class="cls-26" points="654.76 500.97 654.75 374 544.95 437.48 654.76 500.97"/><polygon class="cls-26" points="764.89 56.55 654.75 120.03 764.89 183.52 764.89 56.55"/><polygon class="cls-26" points="654.92 1008.86 764.89 945.39 654.88 881.89 654.92 1008.86"/><polygon class="cls-26" points="764.89 1453.34 875.11 1389.85 764.89 1326.37 764.89 1453.34"/><polygon class="cls-26" points="874.69 374 874.67 247.01 764.89 310.5 874.69 374"/><polygon class="cls-26" points="764.89 1199.45 875.11 1135.99 764.89 1072.36 764.89 1199.45"/><polygon class="cls-26" points="874.78 754.95 764.89 691.45 764.89 818.42 874.78 754.95"/><polygon class="cls-26" points="1204.38 -6.07 1094.81 -6.07 1204.53 56.55 1204.38 -6.07"/><polygon class="cls-26" points="1204.7 818.48 1094.81 881.95 1204.95 945.57 1204.7 818.48"/><polygon class="cls-26" points="1204.92 1199.45 1094.81 1135.98 1094.81 1262.92 1204.92 1199.45"/><polygon class="cls-26" points="874.72 501 984.83 564.5 984.83 437.5 874.72 501"/><polygon class="cls-26" points="1094.81 120.04 984.83 183.52 1094.81 247.02 1094.81 120.04"/><polygon class="cls-26" points="105.05 1580.3 215.37 1516.84 105.05 1453.22 105.05 1580.3"/><polygon class="cls-26" points="544.95 1580.31 655.19 1516.83 544.95 1453.35 544.95 1580.31"/><polygon class="cls-26" points="1094.81 1516.77 1094.81 1389.87 984.83 1453.31 1094.81 1516.77"/><polygon class="cls-26" points="1204.88 1643.93 1204.97 1580.29 1094.81 1643.93 1204.88 1643.93"/><polygon class="cls-52" points="105.05 945.26 -4.93 881.76 -4.9 1008.75 105.05 945.26"/><polygon class="cls-52" points="214.89 -6.07 105.05 -6.07 105.05 56.56 214.89 -6.07"/><polygon class="cls-52" points="105.05 310.48 214.88 247.01 105.05 183.52 105.05 310.48"/><polygon class="cls-52" points="215.05 1008.76 105.05 1072.25 215.08 1135.75 215.05 1008.76"/><polygon class="cls-52" points="214.94 754.84 105.05 818.3 214.98 881.8 214.94 754.84"/><polygon class="cls-52" points="325 437.46 214.91 500.92 325 564.41 325 437.46"/><polygon class="cls-52" points="325 1199.25 215.11 1262.75 325 1326.24 325 1199.25"/><polygon class="cls-52" points="435 120.04 325 183.53 435 247.02 435 120.04"/><polygon class="cls-52" points="325 691.37 434.89 754.88 434.86 627.91 325 691.37"/><polygon class="cls-52" points="544.95 437.48 434.82 373.99 434.83 500.94 544.95 437.48"/><polygon class="cls-52" points="544.95 818.39 434.93 881.85 544.95 945.35 544.95 818.39"/><polygon class="cls-52" points="435.06 1262.76 544.95 1199.27 435.03 1135.77 435.06 1262.76"/><polygon class="cls-52" points="654.76 -6.07 544.95 -6.07 544.95 56.55 654.76 -6.07"/><polygon class="cls-52" points="654.92 1008.86 544.95 1072.32 654.96 1135.82 654.92 1008.86"/><polygon class="cls-52" points="544.95 183.53 654.75 247.01 654.75 120.03 544.95 183.53"/><polygon class="cls-52" points="544.95 691.41 654.8 627.94 544.95 564.44 544.95 691.41"/><polygon class="cls-52" points="654.75 374 764.89 437.5 764.89 310.5 654.75 374"/><polygon class="cls-52" points="875 1389.85 875 1262.92 764.89 1326.37 875 1389.85"/><polygon class="cls-52" points="764.89 818.42 764.89 945.39 874.82 881.92 764.89 818.42"/><polygon class="cls-52" points="874.72 501 764.89 564.48 874.74 627.98 874.72 501"/><polygon class="cls-52" points="1204.58 310.5 1094.81 247 1094.81 374 1204.58 310.5"/><polygon class="cls-52" points="1204.87 1453.31 1204.9 1326.39 1094.81 1389.85 1204.87 1453.31"/><polygon class="cls-52" points="984.83 310.5 874.67 247.01 874.69 374 984.83 310.5"/><polygon class="cls-52" points="984.83 56.56 874.68 -6.07 874.69 120.04 984.83 56.56"/><polygon class="cls-52" points="874.86 1008.89 875.11 1135.99 984.83 1072.52 874.86 1008.89"/><polygon class="cls-52" points="1094.81 1136 984.83 1199.46 1094.81 1262.94 1094.81 1136"/><polygon class="cls-52" points="1094.81 501 984.83 437.5 984.83 564.5 1094.81 501"/><polygon class="cls-52" points="1094.81 881.95 984.83 818.45 984.83 945.42 1094.81 881.95"/><polygon class="cls-52" points="984.83 691.48 1094.81 754.98 1094.81 628.01 984.83 691.48"/><polygon class="cls-52" points="-4.76 1516.68 105.05 1453.22 -4.81 1389.72 -4.76 1516.68"/><polygon class="cls-52" points="325 1580.32 325 1453.36 215.37 1516.84 325 1580.32"/><polygon class="cls-52" points="764.89 1580.29 875.07 1516.8 764.89 1453.34 764.89 1580.29"/><polygon class="cls-52" points="105.05 1643.93 215.56 1643.93 105.05 1580.32 105.05 1643.93"/><polygon class="cls-52" points="544.95 1643.93 655.34 1643.93 544.95 1580.34 544.95 1643.93"/><path class="cls-36" d="m986.94,1580.45c-1.24,0-2.25-1.01-2.25-2.25v-53.99c0-1.24,1.01-2.25,2.25-2.25s2.25,1.01,2.25,2.25v53.99c0,1.24-1.01,2.25-2.25,2.25Z"/><path class="cls-36" d="m1037.65,1580.45c-1.24,0-2.25-1.01-2.25-2.25v-53.99c0-1.24,1.01-2.25,2.25-2.25s2.25,1.01,2.25,2.25v53.99c0,1.24-1.01,2.25-2.25,2.25Z"/><path class="cls-42" d="m865.47,1392.83s13.5,2.25,40.49,11.25c23.57,7.86,49.49-.07,49.49-11.25s-20.14-20.25-44.99-20.25-44.99,20.25-44.99,20.25Z"/><path class="cls-28" d="m1036.43,1452.23l-53.42-23.23c18.26-8.66,30.92-27.2,30.92-48.76,0-29.82-24.17-53.99-53.99-53.99s-53.99,24.17-53.99,53.99c0,19.97,10.87,37.37,26.99,46.71v29.78c0,49.69,40.28,89.98,89.98,89.98h80.98l-67.48-94.48Z"/><g class="cls-60"><path class="cls-40" d="m1041.43,1519.72h71.48l-76.07-107.47c-15.8-22.32-48.42-25.2-66.26-4.53-6.53,7.57-10.64,17.57-10.64,29.11h0c0,45.78,36.48,82.88,81.49,82.88Z"/></g><path class="cls-42" d="m928.45,1371.25c0,7.45,6.04,13.5,13.5,13.5s13.5-6.04,13.5-13.5h-26.99Z"/><rect class="cls-21" x="-205.83" y="1575.84" width="1611.66" height="178.22"/><path class="cls-36" d="m227.32,298.65c-2.32,0-4.22-1.87-4.25-4.2l-3.74-306.32c-.03-2.35,1.85-4.28,4.2-4.31,2.28-.04,4.28,1.85,4.31,4.2l3.74,306.32c.03,2.35-1.85,4.28-4.2,4.31h-.05Z"/><path class="cls-36" d="m193.96,331.84c-.88,0-1.78-.27-2.54-.85l-53.11-39.65-33.45,29.03c-1.77,1.54-4.46,1.35-6-.43-1.54-1.77-1.35-4.46.43-6l36.04-31.27c1.51-1.32,3.73-1.39,5.33-.2l55.85,41.7c1.88,1.4,2.27,4.07.86,5.95-.84,1.12-2.11,1.71-3.41,1.71Z"/><path class="cls-36" d="m256.95,331.84c-1.3,0-2.58-.59-3.41-1.71-1.41-1.88-1.02-4.55.86-5.95l55.85-41.7c1.6-1.19,3.82-1.12,5.33.2l36.04,31.27c1.78,1.54,1.97,4.23.43,6-1.54,1.78-4.23,1.96-6,.43l-33.45-29.03-53.11,39.65c-.76.57-1.66.85-2.54.85Z"/><path class="cls-36" d="m195.67,374.8c-.88,0-1.78-.27-2.54-.85l-53.11-39.64-33.45,29.03c-1.77,1.54-4.46,1.35-6-.43-1.54-1.77-1.35-4.46.43-6l36.03-31.27c1.51-1.31,3.73-1.39,5.33-.2l55.85,41.69c1.88,1.4,2.27,4.07.86,5.95-.84,1.12-2.11,1.71-3.41,1.71Z"/><path class="cls-36" d="m255.24,374.8c-1.3,0-2.58-.59-3.41-1.71-1.41-1.88-1.02-4.55.86-5.95l55.85-41.7c1.6-1.19,3.83-1.11,5.33.2l36.03,31.27c1.78,1.54,1.97,4.23.43,6-1.54,1.77-4.23,1.96-6,.43l-33.45-29.03-53.11,39.65c-.76.57-1.66.85-2.54.85Z"/><path class="cls-36" d="m198.38,423.2c-.88,0-1.78-.27-2.54-.85l-53.11-39.64-33.45,29.02c-1.77,1.54-4.46,1.35-6-.43-1.54-1.77-1.35-4.46.43-6l36.03-31.27c1.51-1.31,3.73-1.4,5.33-.2l55.85,41.69c1.88,1.4,2.27,4.07.86,5.95-.84,1.12-2.11,1.71-3.41,1.71Z"/><path class="cls-36" d="m252.52,423.2c-1.3,0-2.58-.59-3.41-1.71-1.41-1.88-1.02-4.55.86-5.95l55.85-41.69c1.6-1.19,3.83-1.11,5.33.2l36.03,31.27c1.78,1.54,1.97,4.23.43,6-1.54,1.77-4.23,1.96-6,.43l-33.45-29.02-53.11,39.64c-.76.57-1.66.85-2.54.85Z"/><path class="cls-36" d="m136.1,477.34c-1.9,0-3.64-1.29-4.12-3.22l-8.51-34.04c-.3-1.19-.07-2.45.64-3.46.7-1.01,1.8-1.66,3.02-1.8l76.58-8.51c2.34-.26,4.44,1.42,4.7,3.76.26,2.34-1.42,4.44-3.76,4.7l-71.74,7.97,7.33,29.31c.57,2.28-.82,4.59-3.1,5.16-.35.09-.69.13-1.04.13Z"/><path class="cls-36" d="m314.8,477.34c-.34,0-.69-.04-1.04-.13-2.28-.57-3.66-2.88-3.1-5.16l7.33-29.31-71.74-7.97c-2.33-.26-4.02-2.36-3.76-4.7.26-2.33,2.37-4.01,4.7-3.76l76.58,8.51c1.22.14,2.32.79,3.02,1.8.7,1.01.93,2.27.64,3.46l-8.51,34.04c-.48,1.93-2.22,3.22-4.12,3.22Z"/><circle class="cls-36" cx="225.45" cy="353.96" r="59.56"/><path class="cls-36" d="m199.92,468.83c-.64,0-1.29-.14-1.9-.45-2.1-1.05-2.95-3.61-1.9-5.71l8.51-17.02c1.05-2.1,3.6-2.96,5.71-1.9,2.1,1.05,2.95,3.61,1.9,5.71l-8.51,17.02c-.75,1.49-2.25,2.35-3.81,2.35Z"/><path class="cls-36" d="m250.98,468.83c-1.56,0-3.06-.86-3.81-2.35l-8.51-17.02c-1.05-2.1-.2-4.66,1.9-5.71,2.11-1.06,4.66-.2,5.71,1.9l8.51,17.02c1.05,2.1.2,4.66-1.9,5.71-.61.31-1.26.45-1.9.45Z"/><circle class="cls-36" cx="225.45" cy="426.28" r="29.78"/><polygon class="cls-41" points="241.73 327.64 209.17 327.64 218.47 353.96 209.17 380.28 241.73 380.28 232.43 353.96 241.73 327.64"/><path class="cls-42" d="m207.93,435.22c-.73,4.12,2.02,8.04,6.14,8.77,4.12.73,8.04-2.02,8.77-6.14l-14.9-2.63Z"/><path class="cls-42" d="m228.07,437.85c.73,4.12,4.65,6.86,8.77,6.14s6.86-4.65,6.14-8.77l-14.9,2.63Z"/><path class="cls-56" d="m1208.8,156.57c-23.36-155.4-145.94-90.51-455.35-87.7-460.77,4.18-620.11-50.86-621.96,92.28-2.44,188.55,390.54,42.89,451.9,127.2,83.24,114.37,131.95,61.36,311.4,80.62,439.37,47.17,318-185.88,314.01-212.39Z"/><polygon class="cls-25" points="269.61 1331.37 186.53 1331.37 176.15 1289.83 280 1289.83 269.61 1331.37"/><path class="cls-35" d="m285.19,1352.14h-114.23c-5.74,0-10.38-4.65-10.38-10.38h0c0-5.74,4.65-10.38,10.38-10.38h114.23c5.74,0,10.38,4.65,10.38,10.38h0c0,5.74-4.65,10.38-10.38,10.38Z"/><path class="cls-37" d="m285.19,1393.68v-41.54h-114.23v41.54h0c-20.07,0-36.35,16.27-36.35,36.35v140.2c0,5.74,4.65,10.38,10.38,10.38h166.16c5.74,0,10.38-4.65,10.38-10.38v-140.2c0-20.07-16.27-36.35-36.35-36.35h0Z"/><g class="cls-58"><path class="cls-27" d="m161.38,1414.45h133.39c3.31,0,6,2.69,6,6v139.39h-145.39v-139.39c0-3.31,2.69-6,6-6Z"/></g><path class="cls-46" d="m199.51,1524.07l-2.6,14.99h62.31l-2.6-14.99c12.26-9.49,19.7-24.9,17.91-41.98-2.27-21.54-19.62-39.02-41.15-41.39-28.19-3.11-52.05,18.88-52.05,46.44,0,15.04,7.14,28.39,18.17,36.93Z"/><path class="cls-33" d="m259.23,1541.66h-62.31c-.77,0-1.49-.34-1.99-.92-.49-.59-.7-1.36-.57-2.11l2.33-13.48c-11.43-9.43-17.95-23.19-17.95-38,0-14.01,5.99-27.4,16.43-36.75,10.58-9.48,24.24-13.84,38.5-12.27,22.78,2.51,41.05,20.89,43.45,43.7,1.75,16.65-4.84,32.73-17.67,43.32l2.33,13.48c.13.75-.08,1.53-.57,2.11-.49.59-1.22.92-1.99.92Zm-59.22-5.19h56.14l-2.07-11.95c-.16-.95.21-1.91.97-2.49,12.21-9.45,18.53-24.28,16.91-39.66-2.14-20.4-18.49-36.84-38.85-39.08-12.76-1.41-25,2.49-34.47,10.97-9.34,8.37-14.7,20.35-14.7,32.89,0,13.72,6.26,26.43,17.17,34.88.76.59,1.13,1.55.97,2.49l-2.07,11.95Z"/><rect class="cls-33" x="235.86" y="1518.3" width="5.19" height="20.77"/><rect class="cls-33" x="215.09" y="1518.3" width="5.19" height="20.77"/><path class="cls-33" d="m246.25,1500.12c-5.73,0-10.38-4.66-10.38-10.38s4.66-10.38,10.38-10.38,10.38,4.66,10.38,10.38-4.66,10.38-10.38,10.38Zm0-15.58c-2.86,0-5.19,2.33-5.19,5.19s2.33,5.19,5.19,5.19,5.19-2.33,5.19-5.19-2.33-5.19-5.19-5.19Z"/><path class="cls-33" d="m209.9,1500.12c-5.73,0-10.38-4.66-10.38-10.38s4.66-10.38,10.38-10.38,10.38,4.66,10.38,10.38-4.66,10.38-10.38,10.38Zm0-15.58c-2.86,0-5.19,2.33-5.19,5.19s2.33,5.19,5.19,5.19,5.19-2.33,5.19-5.19-2.33-5.19-5.19-5.19Z"/><g class="cls-59"><rect class="cls-34" x="506.82" y="1301.8" width="95.24" height="225.12"/><rect class="cls-35" x="502.49" y="1267.16" width="103.9" height="225.12"/><path class="cls-12" d="m518.88,1492.28h6.13c12.16,0,22.01,9.79,22.16,21.92v23.27h-50.45v-23.27c.15-12.13,10-21.92,22.16-21.92Z"/><rect class="cls-30" x="496.72" y="1514.47" width="110.4" height="68.73"/><path class="cls-10" d="m510.79,1531.79h0c-28.19,0-51.05,22.86-51.05,51.05v.36h102.1v-.36c0-28.19-22.86-51.05-51.05-51.05Z"/><rect class="cls-34" x="629.48" y="1301.8" width="95.25" height="225.12"/><rect class="cls-35" x="625.15" y="1267.16" width="103.9" height="225.12"/><path class="cls-10" d="m828.63,1583.2h-187.6c-9.17,0-16.6-7.43-16.6-16.6v-52.13h86.95c0-12.25,9.93-22.19,22.19-22.19h6.13c12.25,0,22.19,9.93,22.19,22.19v1.62c0,8.67,7.03,15.69,15.69,15.69h0c28.19,0,51.05,22.86,51.05,51.05v.36Z"/><path class="cls-16" d="m665.56,1312.62h163.07l-19.4-474.78s-95.71-18.23-143.67-21.67v496.45Z"/><polygon class="cls-17" points="814.77 973.47 820.29 1108.12 665.56 1076.43 665.56 933.8 814.77 973.47"/><polygon class="cls-19" points="665.56 816.17 747.1 917.93 706.33 977.1 726.53 1033.38 665.56 1130.78 665.56 816.17"/><path class="cls-19" d="m750.72,1216.06h0c30.42,0,55.08-24.66,55.08-55.08v-55.08h-110.17v55.08c0,30.42,24.66,55.08,55.08,55.08Z"/><rect class="cls-27" x="565.99" y="816.17" width="99.57" height="450.99"/><path class="cls-16" d="m565.99,1312.62h-163.07l19.4-474.78s95.71-18.23,143.67-21.67v496.45Z"/><polygon class="cls-19" points="565.99 816.17 484.45 917.93 525.22 977.1 505.01 1033.38 565.99 1130.78 565.99 816.17"/><path class="cls-19" d="m480.82,1216.06h0c-30.42,0-55.08-24.66-55.08-55.08v-55.08h110.17v55.08c0,30.42-24.66,55.08-55.08,55.08Z"/><path class="cls-37" d="m425.74,1184.16v-99.57c-40.58,0-73.6-33.01-73.6-73.6s33.01-73.6,73.6-73.6v-99.57c-95.49,0-173.17,77.69-173.17,173.17s77.68,173.17,173.17,173.17Z"/><polygon class="cls-29" points="685.31 895.51 685.31 1128.99 673.15 1154.96 663.58 1124.4 644.62 1145.79 625.78 1107.86 614.7 1145.79 603.92 1126.17 603.92 895.51 685.31 895.51"/><polygon class="cls-13" points="616.91 908.54 616.91 1138.21 625.78 1107.86 644.62 1145.79 663.58 1124.4 672.32 1152.32 672.32 908.54 616.91 908.54"/><path class="cls-29" d="m603.92,910.18h81.4c8.09,0,14.65-6.56,14.65-14.65s-6.56-14.65-14.65-14.65h-81.4c-8.09,0-14.65,6.56-14.65,14.65s6.56,14.65,14.65,14.65Z"/><path class="cls-11" d="m621.92,1065.59c0,9.38,12.99,9.38,12.99,0v-24.23c0-8.58-12.99-8.58-12.99,0v24.23Z"/><path class="cls-11" d="m646.83,1126.09c0,7.2,9.96,7.2,9.96,0v-18.59c0-6.58-9.96-6.58-9.96,0v18.59Z"/><path class="cls-11" d="m654.26,1010.47c0,7.2,9.96,7.2,9.96,0v-5.6c0-6.58-9.96-6.58-9.96,0v5.6Z"/><path class="cls-11" d="m646.83,1109.25c0,14.84,20.54,14.84,20.54,0v-31.67c0-13.57-20.54-13.57-20.54,0v31.67Z"/><path class="cls-11" d="m631.63,1053.18c0,9.38,12.99,9.38,12.99,0v-24.23c0-8.58-12.99-8.58-12.99,0v24.23Z"/><path class="cls-11" d="m648.9,1175.89c0,5.71,4.63,10.34,10.34,10.34s10.34-4.63,10.34-10.34-10.34-20.92-10.34-20.92c0,0-10.34,15.22-10.34,20.92Z"/><path class="cls-15" d="m659.24,1178.41c0,2.03,1.65,3.68,3.68,3.68s3.68-1.65,3.68-3.68-1.65-3.68-3.68-3.68-3.68,1.65-3.68,3.68Z"/><path class="cls-37" d="m822.79,1090.86c55.82,0,106.91-38.03,120.91-94.37,8.08-32.5,2.93-66.14-14.5-94.73-17.43-28.59-44.96-48.59-77.55-56.31l-2.24-.48-52.42-9.9-18.48,97.85,51,9.63c8.24,2.24,12.7,7.83,14.65,11.03,2.02,3.3,5.07,10.15,2.89,18.89-3.26,13.13-16.63,21.26-29.79,18.16l-.75-.17-154.68-34.11-21.45,97.24,154.34,34.04c9.38,2.19,18.78,3.23,28.05,3.24Z"/><rect class="cls-35" x="565.99" y="1197.89" width="99.57" height="69.27"/><path class="cls-23" d="m615.77,859.46c23.91,0,43.29-19.38,43.29-43.29v-73.94c0-23.91-19.38-43.29-43.29-43.29s-43.29,19.39-43.29,43.29v73.94c0,23.91,19.38,43.29,43.29,43.29Z"/><rect class="cls-29" x="456.02" y="1019.62" width="81.4" height="200.25"/><path class="cls-14" d="m465.78,1135.21h61.87l77.62,179.59c3.57,8.26,5.41,17.16,5.41,26.15h0c0,27.54-22.32,49.86-49.86,49.86h-128.21c-27.54,0-49.86-22.32-49.86-49.86h0c0-8.99,1.84-17.9,5.41-26.15l77.62-179.59Z"/><path class="cls-32" d="m403.86,1321.59l69.25-160.24v-124.63h47.21v124.63l69.25,160.24c2.66,6.15,4.01,12.67,4.01,19.37,0,18.07-14.7,32.76-32.77,32.76h-128.21c-18.07,0-32.77-14.7-32.77-32.76,0-6.7,1.35-13.22,4.01-19.37Z"/><rect class="cls-32" x="456.02" y="1019.62" width="81.4" height="28.29"/><path class="cls-9" d="m450.7,1231.67h92.04l40.12,92.82c2.26,5.23,3.41,10.77,3.41,16.47,0,14.03-11.41,25.44-25.44,25.44h-128.21c-14.03,0-25.44-11.41-25.44-25.44,0-5.69,1.14-11.23,3.41-16.46l40.12-92.82Z"/><circle class="cls-48" cx="493.4" cy="1344.42" r="13.02"/><path class="cls-20" d="m442.99,1301.79c0,7.19,5.83,13.02,13.02,13.02s13.02-5.83,13.02-13.02-5.83-13.02-13.02-13.02-13.02,5.83-13.02,13.02Z"/><path class="cls-20" d="m512.19,1299.03c0,7.19,5.83,13.02,13.02,13.02s13.02-5.83,13.02-13.02-5.83-13.02-13.02-13.02-13.02,5.83-13.02,13.02Z"/><path class="cls-20" d="m464.97,1256.5c0,3.6,2.91,6.51,6.51,6.51s6.51-2.91,6.51-6.51-2.91-6.51-6.51-6.51-6.51,2.92-6.51,6.51Z"/><path class="cls-29" d="m456.01,1034.27h81.4c8.09,0,14.65-6.56,14.65-14.65s-6.56-14.65-14.65-14.65h-81.4c-8.09,0-14.65,6.56-14.65,14.65s6.56,14.65,14.65,14.65Z"/><path class="cls-44" d="m566.73,1350.68c1.11,0,2.24-.22,3.33-.67,4.41-1.84,6.5-6.91,4.66-11.32l-15.79-37.87c-1.84-4.42-6.91-6.51-11.32-4.66-4.41,1.84-6.5,6.91-4.66,11.32l15.79,37.87c1.38,3.33,4.6,5.33,7.99,5.33Z"/><path class="cls-44" d="m538,1281.8c1.11,0,2.24-.22,3.33-.67,4.41-1.84,6.5-6.91,4.66-11.32l-34.36-82.41c-1.84-4.41-6.91-6.51-11.32-4.66-4.41,1.84-6.5,6.91-4.66,11.32l34.36,82.41c1.39,3.33,4.61,5.33,8,5.33Z"/><circle class="cls-3" cx="651.13" cy="1004.97" r="83.9" transform="translate(-519.91 754.77) rotate(-45)"/><circle class="cls-3" cx="493.4" cy="1130.78" r="83.9" transform="translate(-386.87 266.36) rotate(-21.95)"/><path class="cls-23" d="m616.39,859.4c23.91,0,43.29-19.39,43.29-43.29v-73.94c0-23.91-19.38-43.29-43.29-43.29s-43.29,19.38-43.29,43.29v73.94c0,23.91,19.38,43.29,43.29,43.29Z"/><path class="cls-2" d="m616.39,327.64h0c112.3,0,203.48,91.18,203.48,203.48v73.6c0,112.3-91.18,203.48-203.48,203.48h0c-112.3,0-203.48-91.18-203.48-203.48v-73.6c0-112.3,91.18-203.48,203.48-203.48Z"/><g class="cls-1"><path class="cls-6" d="m347.91,674.64v-15.51c0-31.48,42.26-31.48,42.26,0v40.98c0,20.91,33.02,20.91,33.02,0v-38.68c0-37.7,51.82-37.7,51.82,0v45.31c0,28.56,44.51,28.56,44.51,0v-9.01c0-26.5,39.85-26.5,39.85,0v25.42c0,33.55,52.14,33.55,52.14,0v-35.5c0-31.48,42.26-31.48,42.26,0v36.66c0,20.91,33.02,20.91,33.02,0v-51.67c0-37.7,51.82-37.7,51.82,0v6.35c0,28.56,44.51,28.56,44.51,0v-39.32c0-26.5,39.85-26.5,39.85,0v12.74c0,38.5,53.7,38.5,53.7,0l6.12,178.97H294.08v-156.72c0,37.71,53.83,37.71,53.83,0Z"/></g><path class="cls-18" d="m853.44,599.71c50.77,0,91.93-39.95,91.93-89.23,0-4.41-.34-8.73-.98-12.97-2.59,18.52-14.97,26.34-33.1,29.66,17.13-26.38,16.5-67.98,15.97-70.08-3.87,10.79-20.45,23.66-41.19,31.94,21.74-41.2-13.39-90.13-13.03-87.71,2.59,17.54-26.77,33.21-43.19,36.46-45.36,8.97-62.68,161.94,23.58,161.94Z"/><path class="cls-18" d="m379.33,599.71c-50.77,0-91.93-39.95-91.93-89.23,0-4.41.34-8.73.98-12.97,2.59,18.52,14.97,26.34,33.1,29.66-17.13-26.38-16.5-67.98-15.97-70.08,3.87,10.79,20.45,23.66,41.19,31.94-21.74-41.2,13.39-90.13,13.03-87.71-2.59,17.54,26.77,33.21,43.18,36.46,45.36,8.97,62.68,161.94-23.58,161.94Z"/><ellipse class="cls-23" cx="715.6" cy="552.08" rx="46.03" ry="49.26"/><ellipse class="cls-23" cx="517.17" cy="552.08" rx="46.03" ry="49.26"/><path class="cls-7" d="m713.12,546.61c14.16,0,25.64,11.48,25.64,25.64s-11.48,25.64-25.64,25.64-25.64-11.48-25.64-25.64,11.48-25.64,25.64-25.64Z"/><circle class="cls-44" cx="706.36" cy="583.88" r="6.76"/><path class="cls-19" d="m713.95,561.9c0,5.31,4.3,9.62,9.62,9.62s9.62-4.31,9.62-9.62-4.31-9.62-9.62-9.62-9.62,4.31-9.62,9.62Z"/><path class="cls-7" d="m519.66,546.61c-14.16,0-25.64,11.48-25.64,25.64s11.48,25.64,25.64,25.64,25.64-11.48,25.64-25.64-11.48-25.64-25.64-25.64Z"/><circle class="cls-44" cx="526.42" cy="583.88" r="6.76"/><circle class="cls-44" cx="509.21" cy="561.9" r="9.62"/><path class="cls-18" d="m667.32,484.15c16.1-4.44,33.33-6.72,51.53-7.15v18.76l17.32-18.76h18.04v18.76l12.5-18.76c9.79,15.16,10.35,30.32,1.69,45.48-2.78,4.87-7.94,7.92-13.54,7.92h-82.18c-11.56,0-20.92-9.37-20.92-20.92v-5.06c0-9.5,6.42-17.73,15.58-20.26Z"/><path class="cls-18" d="m565.46,484.15c-16.1-4.44-33.33-6.72-51.53-7.15v18.76l-11.72-18.76h-10.28l-.81,12.72-4.6-12.72h-14.07l2.5,7.65-8.87-7.65c-9.79,15.16-10.36,30.32-1.69,45.48,2.78,4.87,7.94,7.92,13.54,7.92h82.18c11.56,0,20.92-9.37,20.92-20.92v-5.06c0-9.5-6.41-17.73-15.57-20.26Z"/><path class="cls-49" d="m567.68,718.18c0,28.29,21.81,51.23,48.71,51.23s48.71-22.94,48.71-51.23-21.81-51.23-48.71-51.23-48.71,22.94-48.71,51.23Z"/><path class="cls-31" d="m567.68,718.18c0,20.42,21.81,36.98,48.71,36.98s48.71-16.56,48.71-36.98-21.81-36.98-48.71-36.98-48.71,16.55-48.71,36.98Z"/><path class="cls-38" d="m653.94,741.73c-8.93,8.2-22.44,13.43-37.55,13.43s-28.62-5.23-37.55-13.43c8.93-8.2,22.44-13.43,37.55-13.43s28.62,5.23,37.55,13.43Z"/><path class="cls-18" d="m519.66,717.27h17.98l14.2-23.84.38,23.84h18.12l5.16-8.85,6.29,8.85h71.35l2.79-21.05,11.83,21.05h21.29l6.67-14.38,3.55,14.38h22.71c-11.26-84.48-101.17-75.64-101.17-75.64,0,0-89.9-8.85-101.17,75.64Z"/><path class="cls-49" d="m620.82,598.32c4.78,0,8.66-3.88,8.66-8.66v-60.38c0-4.78-3.88-8.66-8.66-8.66s-8.66,3.88-8.66,8.66v60.38c0,4.78,3.88,8.66,8.66,8.66Z"/><path class="cls-23" d="m487.57,446.69c.94,0,1.9-.21,2.81-.64,49.18-23.69,99.89-33.61,150.71-29.45,3.61.27,6.71-2.37,7-5.94.29-3.58-2.37-6.71-5.94-7-53.17-4.33-106.12,5.99-157.41,30.7-3.23,1.56-4.59,5.44-3.03,8.67,1.12,2.32,3.44,3.68,5.86,3.68Z"/><path class="cls-23" d="m752.97,446.69c2.47,0,4.83-1.42,5.92-3.81,1.48-3.26.04-7.11-3.23-8.6-22.25-10.11-44.68-17.89-66.67-23.13-3.48-.83-6.99,1.32-7.82,4.81-.83,3.49,1.32,6.99,4.81,7.82,21.18,5.05,42.81,12.56,64.31,22.32.87.4,1.78.58,2.68.58Z"/><path class="cls-23" d="m518.28,394.74c.74,0,1.49-.13,2.22-.4,21.02-7.66,42.47-12.89,63.76-15.54,3.56-.44,6.09-3.69,5.64-7.25-.44-3.56-3.69-6.08-7.25-5.64-22.26,2.77-44.67,8.23-66.61,16.22-3.37,1.23-5.1,4.96-3.88,8.32.96,2.64,3.45,4.27,6.1,4.27Z"/><path class="cls-23" d="m732.88,399.26c2.6,0,5.05-1.57,6.05-4.14,1.3-3.34-.36-7.1-3.7-8.4-41.67-16.21-83.44-23.89-124.06-22.91-3.59.09-6.42,3.07-6.33,6.65.09,3.58,2.96,6.47,6.65,6.33,38.93-.97,78.97,6.45,119.03,22.03.77.3,1.57.44,2.35.44Z"/><path class="cls-25" d="m506.88,484.92c18.19,6.15,37.71,8.32,53.81,4.96,17.7-3.7,30.1-13.95,34.91-28.83,1.54-4.75,4.91-8.63,9.49-10.94,4.84-2.43,10.57-2.83,15.71-1.09l14.87,5.02c5.15,1.74,9.46,5.53,11.83,10.4,2.25,4.61,2.57,9.75.91,14.45-5.2,14.76-1.55,30.42,10.27,44.1,21.3,24.63,66.5,40.12,98.7,33.81,17.94-3.52,30.58-13.63,35.6-28.48,1.91-5.65,8.06-8.69,13.7-6.78l8.68,2.93c4.53,1.53,9.44-.9,10.97-5.43l13.9-41.14c1.53-4.53-.9-9.44-5.43-10.97l-387.81-131.03c-4.53-1.53-9.44.9-10.98,5.43l-13.9,41.14c-1.53,4.53.9,9.44,5.43,10.97l16.34,5.52c5.65,1.91,8.69,8.05,6.78,13.7-5.02,14.85-1.1,30.56,11.03,44.23,10.78,12.15,27.34,21.99,45.18,28.02Zm134.34-47.29l-14.87-5.02c-9.5-3.21-20.09-2.47-29.03,2.03-8.76,4.4-15.22,11.89-18.19,21.07-2.9,8.98-10.3,14.77-21.98,17.21-26.09,5.47-64.63-7.4-82.48-27.52-8.06-9.08-10.61-18.23-7.58-27.2,4.96-14.69-2.95-30.69-17.64-35.65l-8.13-2.75,8.35-24.73,371.4,125.49-8.36,24.73-.47-.16c-14.69-4.96-30.69,2.95-35.65,17.64-3.03,8.96-10.6,14.69-22.52,17.02-26.4,5.17-64.84-7.98-82.27-28.15-7.81-9.03-10.18-18.12-7.04-27.02,3.21-9.1,2.61-18.97-1.68-27.78-4.39-9.01-12.35-16.02-21.85-19.23Z"/><path class="cls-5" d="m444.23,344.1l387.81,131.03-13.9,41.13-8.68-2.93c-10.19-3.44-21.23,2.03-24.68,12.21h0c-17.9,52.98-146.88,9.24-128.2-43.79,5.21-14.78-3.29-30.92-18.14-35.93l-14.87-5.02c-14.84-5.01-31.39,2.66-36.21,17.57-17.31,53.49-146.38,10.03-128.49-42.94h0c3.44-10.19-2.03-21.23-12.21-24.68l-16.34-5.52,13.9-41.14Z"/><path class="cls-49" d="m609.44,650.28h11.38c4.78,0,8.66-3.88,8.66-8.66s-3.88-8.66-8.66-8.66h-11.38c-9.55,0-17.32-7.77-17.32-17.32s7.77-17.32,17.32-17.32h11.38c4.78,0,8.66-3.88,8.66-8.66s-3.88-8.66-8.66-8.66h-11.38c-19.1,0-34.63,15.54-34.63,34.63s15.54,34.63,34.63,34.63Z"/><path class="cls-39" d="m774.99,687.98c4.78,0,8.66-3.88,8.66-8.66v-37.95c0-4.78-3.88-8.66-8.66-8.66s-8.66,3.88-8.66,8.66v37.95c0,4.78,3.88,8.66,8.66,8.66Z"/><path class="cls-39" d="m756.01,669.01h37.95c4.78,0,8.66-3.88,8.66-8.66s-3.88-8.66-8.66-8.66h-37.95c-4.78,0-8.66,3.88-8.66,8.66s3.88,8.66,8.66,8.66Z"/><path class="cls-39" d="m505.09,750.38c2.22,0,4.43-.85,6.12-2.54,3.38-3.38,3.38-8.86,0-12.24l-17.52-17.52c-3.38-3.38-8.87-3.38-12.24,0-3.38,3.38-3.38,8.86,0,12.24l17.52,17.52c1.69,1.69,3.91,2.54,6.12,2.54Z"/><path class="cls-39" d="m487.57,750.38c2.22,0,4.43-.85,6.12-2.54l17.52-17.52c3.38-3.38,3.38-8.86,0-12.24-3.38-3.38-8.87-3.38-12.24,0l-17.52,17.52c-3.38,3.38-3.38,8.86,0,12.24,1.69,1.69,3.91,2.54,6.12,2.54Z"/><path class="cls-39" d="m449.52,643.29c3.59,0,6.49-2.91,6.49-6.49v-24.78c0-3.59-2.91-6.49-6.49-6.49s-6.49,2.91-6.49,6.49v24.78c0,3.59,2.91,6.49,6.49,6.49Z"/><path class="cls-39" d="m437.13,630.9h24.78c3.59,0,6.49-2.91,6.49-6.49s-2.91-6.49-6.49-6.49h-24.78c-3.59,0-6.49,2.91-6.49,6.49s2.91,6.49,6.49,6.49Z"/><path class="cls-8" d="m393.3,903.13h1.58c14.55-.06,14.55-20.75,0-20.81h-59.97c-20.83,0-20.83-30.36,0-30.36h143.15c21.41,0,21.41,30.36,0,30.36h4.54c-14.26,0-14.26,20.81,0,20.81h14.45c23.77,0,23.77,33.71,0,33.71h-30.19c-12.94,0-12.94,18.89,0,18.89h55.7c21.41,0,21.41,30.36,0,30.36h-16.64c-12.94,0-12.94,18.89,0,18.89h-35.89c13.21-.05,13.21-18.83,0-18.89h-40.9c-20.83,0-20.83-30.36,0-30.36h1.84c13.21-.05,13.21-18.83,0-18.89h-37.66c-23.13,0-23.13-33.71,0-33.71Zm49.75-20.81h-8.63c-14.26,0-14.26,20.81,0,20.81h8.63c14.55-.06,14.55-20.75,0-20.81Z"/><path class="cls-8" d="m319.7,903.13h19c23.77,0,23.77,33.71,0,33.71h-19c-23.13,0-23.13-33.71,0-33.71Z"/></g><text class="cls-63" transform="translate(184.66 201.98)"><tspan x="0" y="0">SPOO</tspan><tspan class="cls-57" x="318.37" y="0">K</tspan><tspan class="cls-55" x="394.9" y="0">Y</tspan><tspan x="464.91" y="0" xml:space="preserve"> SCIENCE</tspan></text><text class="cls-64" transform="translate(633.51 301.26)"><tspan class="cls-54" x="0" y="0">10</tspan><tspan class="cls-61" x="96.88" y="0"></tspan><tspan class="cls-54" x="178.29" y="0">22</tspan><tspan class="cls-62" x="275.16" y="0">()</tspan></text></svg>