<?xml version="1.0" encoding="UTF-8"?><svg id="Layer_1" xmlns="http://www.w3.org/2000/svg" xmlns:xlink="http://www.w3.org/1999/xlink" viewBox="0 0 595.28 841.89"><defs><style>.cls-1{font-family:AvenirNext-Bold, 'Avenir Next';font-size:56.72px;font-weight:700;}.cls-1,.cls-2,.cls-3,.cls-4{fill:#fff;}.cls-5{clip-path:url(#clippath);}.cls-6,.cls-7{fill:#f7a587;}.cls-8{fill:url(#radial-gradient);}.cls-8,.cls-9,.cls-10,.cls-11,.cls-12,.cls-13,.cls-14,.cls-15,.cls-16,.cls-17,.cls-18,.cls-19,.cls-20,.cls-21,.cls-22,.cls-3,.cls-23,.cls-24,.cls-25,.cls-26,.cls-7,.cls-27,.cls-28,.cls-29,.cls-30,.cls-31,.cls-32,.cls-33,.cls-34,.cls-35,.cls-36,.cls-37,.cls-38,.cls-39,.cls-40,.cls-41,.cls-42,.cls-43,.cls-44,.cls-45,.cls-46,.cls-4,.cls-47,.cls-48,.cls-49,.cls-50,.cls-51,.cls-52,.cls-53,.cls-54,.cls-55{stroke-width:0px;}.cls-56{font-family:AvenirNext-Medium, 'Avenir Next';font-weight:500;}.cls-57{letter-spacing:-.02em;}.cls-58{filter:url(#drop-shadow-4);stroke:#fff;stroke-miterlimit:10;stroke-width:2px;}.cls-58,.cls-13{fill:#62336e;}.cls-59{letter-spacing:0em;}.cls-9{fill:#faee4f;}.cls-9,.cls-10{opacity:.4;}.cls-60{filter:url(#drop-shadow-5);}.cls-61{filter:url(#drop-shadow-6);}.cls-62{filter:url(#drop-shadow-1);}.cls-2{font-size:42.54px;}.cls-10,.cls-11,.cls-12,.cls-13,.cls-14,.cls-15,.cls-16,.cls-17,.cls-18,.cls-19,.cls-20,.cls-21,.cls-22,.cls-3,.cls-23{fill-rule:evenodd;}.cls-10,.cls-42{fill:#8f6f71;}.cls-11{fill:#2d100f;}.cls-12,.cls-36{fill:#3b2232;}.cls-14{fill:#5f3a16;}.cls-15{fill:#9560a7;}.cls-16,.cls-33{fill:#542e16;}.cls-17,.cls-35{fill:#70b0bb;}.cls-18,.cls-32{fill:#87d0d3;}.cls-19{fill:#cea8ce;}.cls-20,.cls-40{fill:#c8e9ee;}.cls-21{fill:#c5e8ef;}.cls-22{fill:#d1d2d3;}.cls-23,.cls-50{fill:#f28eb9;}.cls-24{fill:#454546;filter:url(#drop-shadow-2);}.cls-25{fill:#f5931e;}.cls-26{fill:#f59373;}.cls-27{fill:#f9a840;}.cls-28{fill:#f9a947;}.cls-29{fill:#f9a11f;}.cls-30{fill:#5eb348;}.cls-31{fill:#636464;}.cls-34{fill:#550f0e;}.cls-37{fill:#3bb44a;}.cls-38{fill:#39525f;}.cls-39{fill:#373737;}.cls-41{fill:#ab1f23;}.cls-43{fill:#818282;}.cls-44{fill:#ef503d;}.cls-45{fill:#ffcb1c;}.cls-46{fill:#f3971e;}.cls-47{fill:#f69126;}.cls-48{fill:#efe7e3;}.cls-49{fill:#ed8922;}.cls-51{fill:#f48365;}.cls-52{fill:#ec1e24;}.cls-53{fill:#f7992e;}.cls-54{fill:#f7981d;}.cls-55{fill:#f68d1e;}.cls-63{font-family:Osaka, Osaka;}</style><radialGradient id="radial-gradient" cx="297.8" cy="420.71" fx="297.8" fy="420.71" r="429.13" gradientUnits="userSpaceOnUse"><stop offset="0" stop-color="#f8a35c"/><stop offset="1" stop-color="#f16122"/></radialGradient><filter id="drop-shadow-1" filterUnits="userSpaceOnUse"><feOffset dx="0" dy="0"/><feGaussianBlur result="blur" stdDeviation="4"/><feFlood flood-color="#231f20" flood-opacity=".6"/><feComposite in2="blur" operator="in"/><feComposite in="SourceGraphic"/></filter><filter id="drop-shadow-2" filterUnits="userSpaceOnUse"><feOffset dx="0" dy="0"/><feGaussianBlur result="blur-2" stdDeviation="4"/><feFlood flood-color="#231f20" flood-opacity=".6"/><feComposite in2="blur-2" operator="in"/><feComposite in="SourceGraphic"/></filter><filter id="drop-shadow-4" filterUnits="userSpaceOnUse"><feOffset dx="0" dy="0"/><feGaussianBlur result="blur-3" stdDeviation="4"/><feFlood flood-color="#231f20" flood-opacity=".6"/><feComposite in2="blur-3" operator="in"/><feComposite in="SourceGraphic"/></filter><filter id="drop-shadow-5" filterUnits="userSpaceOnUse"><feOffset dx="0" dy="0"/><feGaussianBlur result="blur-4" stdDeviation="4"/><feFlood flood-color="#231f20" flood-opacity=".6"/><feComposite in2="blur-4" operator="in"/><feComposite in="SourceGraphic"/></filter><filter id="drop-shadow-6" filterUnits="userSpaceOnUse"><feOffset dx="0" dy="0"/><feGaussianBlur result="blur-5" stdDeviation="4"/><feFlood flood-color="#231f20" flood-opacity=".6"/><feComposite in2="blur-5" operator="in"/><feComposite in="SourceGraphic"/></filter><clipPath id="clippath"><rect class="cls-7" x="200.05" y="164.01" width="212.63" height="251.09" rx="106.32" ry="106.32"/></clipPath></defs><rect id="A3_Guide" class="cls-52" x="-.63" y="-1.31" width="596.85" height="844.03"/><rect id="Background" class="cls-8" x="-7.72" y="-11.34" width="611.03" height="864.08"/><polygon class="cls-55" points="-18.32 55.54 39.19 22.37 39.19 88.71 -18.32 55.54"/><polygon class="cls-47" points="-18.33 121.87 39.19 155.04 -18.31 188.21 -18.33 121.87"/><polygon class="cls-47" points="-18.31 254.54 39.19 287.71 -18.3 320.88 -18.31 254.54"/><polygon class="cls-47" points="-18.29 387.2 39.19 354.04 39.19 420.38 -18.29 387.2"/><polygon class="cls-49" points="-18.31 -10.35 39.19 22.37 -18.32 55.54 -18.31 -10.35"/><polygon class="cls-25" points="-18.31 188.21 39.19 155.04 39.19 221.38 -18.31 188.21"/><polygon class="cls-53" points="-18.25 519.89 39.19 486.71 39.19 553.06 -18.25 519.89"/><polygon class="cls-53" points="-18.3 320.88 39.19 354.04 -18.29 387.2 -18.3 320.88"/><polygon class="cls-49" points="-18.25 519.89 39.19 553.06 -18.24 586.24 -18.25 519.89"/><polygon class="cls-47" points="-18.24 586.24 39.19 553.06 39.19 619.42 -18.24 586.24"/><polygon class="cls-49" points="-18.31 254.54 39.19 221.38 39.19 287.71 -18.31 254.54"/><polygon class="cls-53" points="-18.23 652.59 39.19 619.42 39.19 685.77 -18.23 652.59"/><polygon class="cls-47" points="-18.21 718.94 39.19 685.77 39.19 752.12 -18.21 718.94"/><polygon class="cls-55" points="96.71 718.95 39.19 752.12 39.19 685.77 96.71 718.95"/><polygon class="cls-49" points="96.7 652.6 39.19 685.77 39.19 619.42 96.7 652.6"/><polygon class="cls-49" points="96.59 188.22 39.19 155.04 96.58 121.88 96.59 188.22"/><polygon class="cls-55" points="96.59 254.55 39.19 287.71 39.19 221.38 96.59 254.55"/><polygon class="cls-53" points="96.58 121.88 39.19 88.71 96.57 55.54 96.58 121.88"/><polygon class="cls-25" points="96.71 718.95 39.19 685.77 96.7 652.6 96.71 718.95"/><polygon class="cls-55" points="96.67 519.89 39.19 486.71 96.63 453.56 96.67 519.89"/><polygon class="cls-47" points="96.57 55.54 39.19 22.37 96.58 -10.35 96.57 55.54"/><polygon class="cls-25" points="96.61 387.22 39.19 420.38 39.19 354.04 96.61 387.22"/><polygon class="cls-53" points="96.59 320.88 39.19 287.71 96.59 254.55 96.59 320.88"/><polygon class="cls-47" points="96.59 254.55 39.19 221.38 96.59 188.22 96.59 254.55"/><polygon class="cls-25" points="96.58 -10.35 154.11 -10.35 154.11 22.36 96.58 -10.35"/><polygon class="cls-25" points="96.59 254.55 154.11 287.72 96.59 320.88 96.59 254.55"/><polygon class="cls-49" points="96.59 320.88 154.11 287.72 154.11 354.06 96.59 320.88"/><polygon class="cls-25" points="96.63 453.56 154.11 486.74 96.67 519.89 96.63 453.56"/><polygon class="cls-55" points="96.61 387.22 154.11 354.06 154.11 420.4 96.61 387.22"/><polygon class="cls-55" points="96.59 188.22 154.11 155.05 154.11 221.39 96.59 188.22"/><polygon class="cls-47" points="96.58 121.88 154.11 88.71 154.11 155.05 96.58 121.88"/><polygon class="cls-47" points="96.59 320.88 154.11 354.06 96.61 387.22 96.59 320.88"/><polygon class="cls-49" points="96.63 453.56 154.11 420.4 154.11 486.74 96.63 453.56"/><polygon class="cls-53" points="96.67 519.89 154.11 553.07 96.68 586.24 96.67 519.89"/><polygon class="cls-47" points="96.68 586.24 154.11 553.07 154.11 619.42 96.68 586.24"/><polygon class="cls-47" points="96.7 652.6 154.11 685.78 96.71 718.95 96.7 652.6"/><polygon class="cls-53" points="96.71 718.95 154.11 685.78 154.11 752.19 96.71 718.95"/><polygon class="cls-25" points="211.49 121.89 154.11 155.05 154.11 88.71 211.49 121.89"/><polygon class="cls-25" points="211.62 652.6 154.11 685.78 154.11 619.42 211.62 652.6"/><polygon class="cls-53" points="211.62 652.6 154.11 619.42 211.6 586.25 211.62 652.6"/><polygon class="cls-55" points="211.57 519.92 154.11 553.07 154.11 486.74 211.57 519.92"/><polygon class="cls-53" points="211.49 188.23 154.11 155.05 211.49 121.89 211.49 188.23"/><polygon class="cls-49" points="211.49 55.54 154.11 88.71 154.11 22.36 211.49 55.54"/><polygon class="cls-55" points="211.74 719.02 154.11 685.78 211.62 652.6 211.74 719.02"/><polygon class="cls-49" points="211.6 586.25 154.11 619.42 154.11 553.07 211.6 586.25"/><polygon class="cls-53" points="211.57 519.92 154.11 486.74 211.55 453.58 211.57 519.92"/><polygon class="cls-47" points="211.55 453.58 154.11 486.74 154.11 420.4 211.55 453.58"/><polygon class="cls-53" points="211.49 55.54 154.11 22.36 211.49 -10.35 211.49 55.54"/><polygon class="cls-25" points="211.53 387.24 154.11 420.4 154.11 354.06 211.53 387.24"/><polygon class="cls-53" points="211.51 320.9 154.11 287.72 211.5 254.56 211.51 320.9"/><polygon class="cls-49" points="211.49 188.23 154.11 221.39 154.11 155.05 211.49 188.23"/><polygon class="cls-55" points="211.49 -10.35 269.04 -10.35 269.04 22.37 211.49 -10.35"/><polygon class="cls-47" points="211.49 55.54 269.04 22.37 269.04 88.71 211.49 55.54"/><polygon class="cls-47" points="211.49 121.89 269.04 155.06 211.49 188.23 211.49 121.89"/><polygon class="cls-47" points="211.5 254.56 269.04 287.74 211.51 320.9 211.5 254.56"/><polygon class="cls-53" points="211.53 387.24 269.04 354.08 269.04 420.42 211.53 387.24"/><polygon class="cls-25" points="211.49 -10.35 269.04 22.37 211.49 55.54 211.49 -10.35"/><polygon class="cls-49" points="211.51 320.9 269.04 354.08 211.53 387.24 211.51 320.9"/><polygon class="cls-25" points="211.57 519.92 269.04 553.1 211.6 586.25 211.57 519.92"/><polygon class="cls-47" points="211.6 586.25 269.04 553.1 269.04 619.43 211.6 586.25"/><polygon class="cls-25" points="211.5 254.56 269.04 221.4 269.04 287.74 211.5 254.56"/><polygon class="cls-53" points="211.74 719.02 269.04 685.85 269.04 752.19 211.74 719.02"/><polygon class="cls-25" points="326.41 121.88 269.04 155.06 269.04 88.71 326.41 121.88"/><polygon class="cls-47" points="326.64 719.01 269.04 752.19 269.04 685.85 326.64 719.01"/><polygon class="cls-55" points="326.65 652.68 269.04 685.85 269.04 619.43 326.65 652.68"/><polygon class="cls-53" points="326.65 652.68 269.04 619.43 326.52 586.28 326.65 652.68"/><polygon class="cls-53" points="326.5 519.94 269.04 553.1 269.04 486.76 326.5 519.94"/><polygon class="cls-53" points="326.41 188.23 269.04 155.06 326.41 121.88 326.41 188.23"/><polygon class="cls-55" points="326.41 254.58 269.04 287.74 269.04 221.4 326.41 254.58"/><polygon class="cls-25" points="326.64 719.01 269.04 685.85 326.65 652.68 326.64 719.01"/><polygon class="cls-25" points="326.5 519.94 269.04 486.76 326.48 453.6 326.5 519.94"/><polygon class="cls-49" points="326.48 453.6 269.04 486.76 269.04 420.42 326.48 453.6"/><polygon class="cls-55" points="326.48 453.6 269.04 420.42 326.45 387.26 326.48 453.6"/><polygon class="cls-25" points="326.45 387.26 269.04 354.08 326.43 320.92 326.45 387.26"/><polygon class="cls-55" points="326.41 55.54 383.95 88.71 326.41 121.88 326.41 55.54"/><polygon class="cls-55" points="326.41 -10.35 383.95 -10.35 383.95 22.37 326.41 -10.35"/><polygon class="cls-47" points="326.41 121.88 383.95 155.05 326.41 188.23 326.41 121.88"/><polygon class="cls-53" points="326.41 254.58 383.95 287.76 326.43 320.92 326.41 254.58"/><polygon class="cls-49" points="326.43 320.92 383.95 287.76 383.95 354.1 326.43 320.92"/><polygon class="cls-53" points="326.45 387.26 383.95 354.1 383.95 420.44 326.45 387.26"/><polygon class="cls-49" points="326.41 -10.35 383.95 22.37 326.41 55.54 326.41 -10.35"/><polygon class="cls-47" points="326.5 519.94 383.95 486.78 383.95 553.12 326.5 519.94"/><polygon class="cls-49" points="326.41 121.88 383.95 88.71 383.95 155.05 326.41 121.88"/><polygon class="cls-49" points="326.41 188.23 383.95 221.41 326.41 254.58 326.41 188.23"/><polygon class="cls-47" points="326.43 320.92 383.95 354.1 326.45 387.26 326.43 320.92"/><polygon class="cls-55" points="326.5 519.94 383.95 553.12 326.52 586.28 326.5 519.94"/><polygon class="cls-25" points="326.52 586.28 383.95 553.12 383.95 619.53 326.52 586.28"/><polygon class="cls-49" points="326.52 586.28 383.95 619.53 326.65 652.68 326.52 586.28"/><polygon class="cls-47" points="326.65 652.68 383.95 619.53 383.95 685.84 326.65 652.68"/><polygon class="cls-55" points="326.64 719.01 383.95 685.84 383.95 752.18 326.64 719.01"/><polygon class="cls-47" points="441.32 -10.35 383.95 -10.35 383.95 22.37 441.32 -10.35"/><polygon class="cls-53" points="441.55 586.37 383.95 553.12 441.41 519.96 441.55 586.37"/><polygon class="cls-55" points="441.54 652.69 383.95 619.53 441.55 586.37 441.54 652.69"/><polygon class="cls-47" points="441.34 254.59 383.95 287.76 383.95 221.41 441.34 254.59"/><polygon class="cls-53" points="441.32 121.88 383.95 88.71 441.32 55.54 441.32 121.88"/><polygon class="cls-25" points="441.32 55.54 383.95 88.71 383.95 22.37 441.32 55.54"/><polygon class="cls-49" points="441.41 519.96 383.95 486.78 441.39 453.62 441.41 519.96"/><polygon class="cls-25" points="441.39 453.62 383.95 420.44 441.37 387.28 441.39 453.62"/><polygon class="cls-55" points="441.37 387.28 383.95 354.1 441.35 320.94 441.37 387.28"/><polygon class="cls-53" points="441.34 254.59 383.95 221.41 441.32 188.23 441.34 254.59"/><polygon class="cls-25" points="441.32 188.23 383.95 221.41 383.95 155.05 441.32 188.23"/><polygon class="cls-47" points="556.34 55.53 613.68 88.71 556.34 121.88 556.34 55.53"/><polygon class="cls-49" points="556.34 55.53 613.66 22.37 613.68 88.71 556.34 55.53"/><polygon class="cls-55" points="556.34 254.59 613.73 287.77 556.34 320.94 556.34 254.59"/><polygon class="cls-25" points="556.34 320.94 613.73 287.77 613.73 354.12 556.34 320.94"/><polygon class="cls-47" points="556.34 453.63 613.88 486.88 556.34 520.04 556.34 453.63"/><polygon class="cls-49" points="556.34 387.29 613.73 354.12 613.75 420.47 556.34 387.29"/><polygon class="cls-49" points="556.34 188.23 613.69 155.06 613.71 221.41 556.34 188.23"/><polygon class="cls-55" points="556.34 387.29 613.75 420.47 556.34 453.63 556.34 387.29"/><polygon class="cls-25" points="556.34 121.88 613.68 88.71 613.69 155.06 556.34 121.88"/><polygon class="cls-47" points="556.34 188.23 613.71 221.41 556.34 254.59 556.34 188.23"/><polygon class="cls-25" points="556.34 520.04 613.88 553.2 556.34 586.36 556.34 520.04"/><polygon class="cls-55" points="556.34 586.36 613.88 553.2 613.87 619.53 556.34 586.36"/><polygon class="cls-53" points="556.34 652.69 613.86 685.85 556.34 719.01 556.34 652.69"/><polygon class="cls-47" points="441.32 55.54 498.87 88.71 441.32 121.88 441.32 55.54"/><polygon class="cls-49" points="441.32 -10.35 498.87 -10.35 498.87 22.37 441.32 -10.35"/><polygon class="cls-55" points="441.32 55.54 498.87 22.37 498.87 88.71 441.32 55.54"/><polygon class="cls-25" points="441.34 254.59 498.87 287.77 441.35 320.94 441.34 254.59"/><polygon class="cls-47" points="441.35 320.94 498.87 287.77 498.87 354.12 441.35 320.94"/><polygon class="cls-55" points="441.32 188.23 498.87 155.06 498.87 221.41 441.32 188.23"/><polygon class="cls-47" points="441.37 387.28 498.87 420.46 441.39 453.62 441.37 387.28"/><polygon class="cls-25" points="441.41 519.96 498.87 486.8 498.87 553.21 441.41 519.96"/><polygon class="cls-49" points="441.32 121.88 498.87 88.71 498.87 155.06 441.32 121.88"/><polygon class="cls-53" points="441.39 453.62 498.87 420.46 498.87 486.8 441.39 453.62"/><polygon class="cls-47" points="441.55 586.37 498.87 553.21 498.87 619.53 441.55 586.37"/><polygon class="cls-49" points="441.55 586.37 498.87 619.53 441.54 652.69 441.55 586.37"/><polygon class="cls-53" points="441.54 652.69 498.87 685.86 441.54 719.01 441.54 652.69"/><polygon class="cls-55" points="441.54 719.01 498.87 685.86 498.87 752.17 441.54 719.01"/><polygon class="cls-49" points="556.34 719.02 498.87 752.17 498.87 685.86 556.34 719.02"/><polygon class="cls-53" points="556.34 586.37 498.87 553.21 556.34 520.04 556.34 586.37"/><polygon class="cls-25" points="556.34 652.7 498.87 685.86 498.87 619.53 556.34 652.7"/><polygon class="cls-55" points="556.34 520.04 498.87 553.21 498.87 486.8 556.34 520.04"/><polygon class="cls-53" points="556.34 188.24 498.87 155.06 556.34 121.89 556.34 188.24"/><polygon class="cls-25" points="556.34 55.54 498.87 88.71 498.87 22.37 556.34 55.54"/><polygon class="cls-47" points="556.34 719.02 498.87 685.86 556.34 652.7 556.34 719.02"/><polygon class="cls-49" points="556.34 520.04 498.87 486.8 556.34 453.64 556.34 520.04"/><polygon class="cls-53" points="556.34 55.54 498.87 22.37 556.34 -10.35 556.34 55.54"/><polygon class="cls-25" points="556.34 387.3 498.87 420.46 498.87 354.12 556.34 387.3"/><polygon class="cls-53" points="556.34 320.95 498.87 354.12 498.87 287.77 556.34 320.95"/><polygon class="cls-49" points="556.34 320.95 498.87 287.77 556.34 254.59 556.34 320.95"/><polygon class="cls-25" points="556.34 254.59 498.87 221.41 556.34 188.24 556.34 254.59"/><polygon class="cls-53" points="-18.18 785.28 39.19 818.52 -18 851.76 -18.18 785.28"/><polygon class="cls-49" points="-18.18 785.28 39.19 752.12 39.19 818.52 -18.18 785.28"/><polygon class="cls-55" points="96.91 851.76 39.19 818.52 96.83 785.36 96.91 851.76"/><polygon class="cls-53" points="96.83 785.36 154.11 818.53 96.91 851.76 96.83 785.36"/><polygon class="cls-55" points="211.73 785.36 154.11 818.53 154.11 752.19 211.73 785.36"/><polygon class="cls-47" points="211.8 851.76 154.11 818.53 211.73 785.36 211.8 851.76"/><polygon class="cls-49" points="211.73 785.36 154.11 752.19 211.74 719.02 211.73 785.36"/><polygon class="cls-25" points="211.73 785.36 269.04 752.19 269.04 818.53 211.73 785.36"/><polygon class="cls-25" points="326.64 785.35 383.95 818.51 326.68 851.76 326.64 785.35"/><polygon class="cls-53" points="326.64 719.01 383.95 752.18 326.64 785.35 326.64 719.01"/><polygon class="cls-49" points="326.64 785.35 383.95 752.18 383.95 818.51 326.64 785.35"/><polygon class="cls-53" points="441.57 851.76 383.95 818.51 441.53 785.34 441.57 851.76"/><polygon class="cls-47" points="556.34 785.32 613.87 818.5 556.34 851.76 556.34 785.32"/><polygon class="cls-55" points="441.53 785.34 498.87 818.5 441.57 851.76 441.53 785.34"/><polygon class="cls-25" points="441.54 719.01 498.87 752.17 441.53 785.34 441.54 719.01"/><polygon class="cls-47" points="441.53 785.34 498.87 752.17 498.87 818.5 441.53 785.34"/><polygon class="cls-53" points="556.34 785.32 498.87 818.5 498.87 752.17 556.34 785.32"/><polygon class="cls-25" points="556.34 851.76 498.87 818.5 556.34 785.32 556.34 851.76"/><polygon class="cls-25" points="96.93 851.76 154.11 851.76 154.11 818.54 96.93 851.76"/><polygon class="cls-25" points="39.19 88.71 96.57 55.54 39.19 22.37 39.19 88.71"/><polygon class="cls-55" points="211.82 851.76 269.04 851.76 269.04 818.54 211.82 851.76"/><polygon class="cls-55" points="326.71 851.76 383.95 851.76 383.95 818.52 326.71 851.76"/><polygon class="cls-47" points="441.6 851.76 383.95 851.76 383.95 818.52 441.6 851.76"/><polygon class="cls-46" points="39.19 -10.35 -18.31 -10.35 39.19 22.37 39.19 -10.35"/><polygon class="cls-46" points="-18.3 320.88 39.19 354.04 39.19 287.71 -18.3 320.88"/><polygon class="cls-46" points="39.19 420.38 -18.27 453.53 39.19 486.71 39.19 420.38"/><polygon class="cls-46" points="-18.23 652.59 -18.21 718.94 39.19 685.77 -18.23 652.59"/><polygon class="cls-46" points="39.19 619.42 96.68 586.24 39.19 553.06 39.19 619.42"/><polygon class="cls-46" points="96.59 188.22 39.19 155.04 39.19 221.38 96.59 188.22"/><polygon class="cls-46" points="96.58 -10.35 96.57 55.54 154.11 22.36 96.58 -10.35"/><polygon class="cls-46" points="96.63 453.56 154.11 420.4 96.61 387.22 96.63 453.56"/><polygon class="cls-46" points="154.11 553.07 211.6 586.25 211.57 519.92 154.11 553.07"/><polygon class="cls-46" points="211.5 254.56 154.11 221.39 154.11 287.72 211.5 254.56"/><polygon class="cls-46" points="211.59 55.54 211.59 121.89 269.04 88.71 211.59 55.54"/><polygon class="cls-46" points="211.51 320.9 269.04 354.08 269.04 287.74 211.51 320.9"/><polygon class="cls-46" points="269.04 420.42 211.53 387.24 211.55 453.58 269.04 420.42"/><polygon class="cls-46" points="269.04 685.85 211.62 652.6 211.74 719.02 269.04 685.85"/><polygon class="cls-46" points="326.41 -10.35 269.04 22.37 326.41 55.54 326.41 -10.35"/><polygon class="cls-46" points="269.04 155.06 269.04 221.4 326.41 188.23 269.04 155.06"/><polygon class="cls-46" points="326.48 453.6 383.95 420.44 326.45 387.26 326.48 453.6"/><polygon class="cls-46" points="383.95 221.41 326.41 254.58 383.95 287.76 383.95 221.41"/><polygon class="cls-46" points="383.95 685.84 441.54 652.69 383.95 619.53 383.95 685.84"/><polygon class="cls-46" points="383.95 486.78 383.95 553.12 441.41 519.96 383.95 486.78"/><polygon class="cls-46" points="556.34 -10.35 556.34 55.53 613.89 22.37 556.34 -10.35"/><polygon class="cls-46" points="498.87 221.41 441.32 188.23 441.34 254.59 498.87 221.41"/><polygon class="cls-46" points="441.37 387.28 498.87 354.12 441.35 320.94 441.37 387.28"/><polygon class="cls-46" points="556.34 121.89 498.87 88.71 498.87 155.06 556.34 121.89"/><polygon class="cls-46" points="498.87 553.21 498.87 619.53 556.34 586.37 498.87 553.21"/><polygon class="cls-46" points="556.34 387.3 498.87 420.46 556.34 453.64 556.34 387.3"/><polygon class="cls-46" points="96.83 785.36 154.11 752.19 96.71 718.95 96.83 785.36"/><polygon class="cls-46" points="211.8 851.76 269.04 818.53 211.73 785.36 211.8 851.76"/><polygon class="cls-46" points="326.64 785.35 326.64 719.01 269.04 752.19 326.64 785.35"/><polygon class="cls-46" points="441.53 785.34 441.54 719.01 383.95 752.18 441.53 785.34"/><polygon class="cls-46" points="556.34 785.32 613.87 818.5 613.84 752.17 556.34 785.32"/><polygon class="cls-46" points="39.19 851.76 39.19 818.53 -17.94 851.76 39.19 851.76"/><polygon class="cls-49" points="441.6 851.76 498.87 851.76 498.87 818.51 441.6 851.76"/><polygon class="cls-27" points="-18.27 453.53 39.19 420.38 -18.29 387.2 -18.27 453.53"/><polygon class="cls-27" points="39.19 88.71 -18.33 121.87 39.19 155.04 39.19 88.71"/><polygon class="cls-27" points="-18.23 652.59 39.19 619.42 -18.24 586.24 -18.23 652.59"/><polygon class="cls-27" points="39.19 553.06 96.67 519.89 39.19 486.71 39.19 553.06"/><polygon class="cls-27" points="96.59 320.88 39.19 354.04 96.61 387.22 96.59 320.88"/><polygon class="cls-27" points="154.11 88.71 96.57 55.54 96.58 121.88 154.11 88.71"/><polygon class="cls-27" points="96.59 254.55 154.11 221.39 96.59 188.22 96.59 254.55"/><polygon class="cls-27" points="96.7 652.6 154.11 619.42 96.68 586.24 96.7 652.6"/><polygon class="cls-27" points="211.49 -10.35 154.11 -10.35 154.11 22.36 211.49 -10.35"/><polygon class="cls-27" points="154.11 354.06 211.51 320.9 154.11 287.72 154.11 354.06"/><polygon class="cls-27" points="211.55 453.58 211.57 519.92 269.04 486.76 211.55 453.58"/><polygon class="cls-27" points="269.04 155.06 211.49 188.23 269.04 221.4 269.04 155.06"/><polygon class="cls-27" points="269.04 22.37 269.04 88.71 326.41 55.54 269.04 22.37"/><polygon class="cls-27" points="269.04 553.1 269.04 619.43 326.52 586.28 269.04 553.1"/><polygon class="cls-27" points="326.43 320.92 326.41 254.58 269.04 287.74 326.43 320.92"/><polygon class="cls-27" points="383.95 420.44 326.48 453.6 383.95 486.78 383.95 420.44"/><polygon class="cls-27" points="326.64 719.01 383.95 685.84 326.65 652.68 326.64 719.01"/><polygon class="cls-27" points="383.95 88.71 383.95 155.05 441.32 121.88 383.95 88.71"/><polygon class="cls-27" points="441.32 -10.35 383.95 22.37 441.32 55.54 441.32 -10.35"/><polygon class="cls-27" points="383.95 354.1 441.35 320.94 383.95 287.76 383.95 354.1"/><polygon class="cls-27" points="613.88 553.2 613.88 486.88 556.34 520.04 613.88 553.2"/><polygon class="cls-27" points="613.73 354.12 556.34 320.94 556.34 387.29 613.73 354.12"/><polygon class="cls-27" points="556.34 254.59 613.73 287.77 613.71 221.41 556.34 254.59"/><polygon class="cls-27" points="613.86 685.85 613.87 619.53 556.34 652.69 613.86 685.85"/><polygon class="cls-27" points="441.39 453.62 441.41 519.96 498.87 486.8 441.39 453.62"/><polygon class="cls-27" points="498.87 354.12 441.37 387.28 498.87 420.46 498.87 354.12"/><polygon class="cls-27" points="498.87 619.53 441.54 652.69 498.87 685.86 498.87 619.53"/><polygon class="cls-27" points="556.34 -10.35 498.87 -10.35 498.87 22.37 556.34 -10.35"/><polygon class="cls-27" points="498.87 221.41 556.34 188.24 498.87 155.06 498.87 221.41"/><polygon class="cls-27" points="39.19 752.12 96.83 785.36 96.71 718.95 39.19 752.12"/><polygon class="cls-27" points="211.74 719.02 211.73 785.36 269.04 752.19 211.74 719.02"/><polygon class="cls-27" points="269.04 818.53 326.68 851.76 326.64 785.35 269.04 818.53"/><polygon class="cls-27" points="556.34 785.32 613.84 752.17 556.34 719.01 556.34 785.32"/><polygon class="cls-27" points="154.11 851.76 211.82 851.76 154.11 818.54 154.11 851.76"/><polygon class="cls-27" points="498.87 851.76 556.34 851.76 498.87 818.51 498.87 851.76"/><polygon class="cls-29" points="-18.32 55.54 -18.33 121.87 39.19 88.71 -18.32 55.54"/><polygon class="cls-29" points="-18.31 254.54 39.19 221.38 -18.31 188.21 -18.31 254.54"/><polygon class="cls-29" points="96.68 586.24 39.19 619.42 96.7 652.6 96.68 586.24"/><polygon class="cls-29" points="39.19 420.38 39.19 486.71 96.63 453.56 39.19 420.38"/><polygon class="cls-29" points="39.19 287.71 39.19 354.04 96.59 320.88 39.19 287.71"/><polygon class="cls-29" points="154.11 22.36 96.66 55.54 154.11 88.71 154.11 22.36"/><polygon class="cls-29" points="96.59 188.22 154.11 155.05 96.58 121.88 96.59 188.22"/><polygon class="cls-29" points="96.67 519.89 154.11 553.07 154.11 486.74 96.67 519.89"/><polygon class="cls-29" points="154.11 752.19 211.74 719.02 154.11 685.78 154.11 752.19"/><polygon class="cls-29" points="211.55 453.58 211.53 387.24 154.11 420.4 211.55 453.58"/><polygon class="cls-29" points="211.49 188.23 154.11 221.39 211.5 254.56 211.49 188.23"/><polygon class="cls-29" points="211.57 519.92 269.04 553.1 269.04 486.76 211.57 519.92"/><polygon class="cls-29" points="269.04 88.71 211.49 121.89 269.04 155.06 269.04 88.71"/><polygon class="cls-29" points="269.04 619.43 211.62 652.6 269.04 685.85 269.04 619.43"/><polygon class="cls-29" points="269.04 354.08 269.04 420.42 326.45 387.26 269.04 354.08"/><polygon class="cls-29" points="326.41 254.58 326.41 188.23 269.04 221.4 326.41 254.58"/><polygon class="cls-29" points="383.95 22.37 326.41 55.54 383.95 88.71 383.95 22.37"/><polygon class="cls-29" points="326.5 519.94 383.95 486.78 326.48 453.6 326.5 519.94"/><polygon class="cls-29" points="383.95 752.18 441.54 719.01 383.95 685.84 383.95 752.18"/><polygon class="cls-29" points="441.32 188.23 441.32 121.88 383.95 155.05 441.32 188.23"/><polygon class="cls-29" points="383.95 619.53 441.55 586.37 383.95 553.12 383.95 619.53"/><polygon class="cls-29" points="441.37 387.28 383.95 354.1 383.95 420.44 441.37 387.28"/><polygon class="cls-29" points="613.58 -10.35 556.34 -10.35 613.66 22.37 613.58 -10.35"/><polygon class="cls-29" points="613.75 420.47 556.34 453.63 613.88 486.88 613.75 420.47"/><polygon class="cls-29" points="613.87 619.53 556.34 586.36 556.34 652.69 613.87 619.53"/><polygon class="cls-29" points="441.34 254.59 498.87 287.77 498.87 221.41 441.34 254.59"/><polygon class="cls-29" points="556.34 55.54 498.87 88.71 556.34 121.89 556.34 55.54"/><polygon class="cls-29" points="39.19 818.52 96.83 785.36 39.19 752.12 39.19 818.52"/><polygon class="cls-29" points="269.04 818.53 326.64 785.35 269.04 752.19 269.04 818.53"/><polygon class="cls-29" points="556.34 785.32 556.34 719.02 498.87 752.17 556.34 785.32"/><polygon class="cls-29" points="613.84 851.76 613.89 818.51 556.34 851.76 613.84 851.76"/><polygon class="cls-54" points="39.19 486.71 -18.27 453.53 -18.25 519.89 39.19 486.71"/><polygon class="cls-54" points="96.58 -10.35 39.19 -10.35 39.19 22.37 96.58 -10.35"/><polygon class="cls-54" points="39.19 155.04 96.58 121.88 39.19 88.71 39.19 155.04"/><polygon class="cls-54" points="96.67 519.89 39.19 553.06 96.68 586.24 96.67 519.89"/><polygon class="cls-54" points="96.61 387.22 39.19 420.38 96.63 453.56 96.61 387.22"/><polygon class="cls-54" points="154.11 221.39 96.59 254.55 154.11 287.72 154.11 221.39"/><polygon class="cls-54" points="154.11 619.42 96.7 652.6 154.11 685.78 154.11 619.42"/><polygon class="cls-54" points="211.59 55.54 154.11 88.71 211.59 121.89 211.59 55.54"/><polygon class="cls-54" points="154.11 354.06 211.53 387.24 211.51 320.9 154.11 354.06"/><polygon class="cls-54" points="269.04 221.4 211.49 188.23 211.5 254.56 269.04 221.4"/><polygon class="cls-54" points="269.04 420.42 211.55 453.58 269.04 486.76 269.04 420.42"/><polygon class="cls-54" points="211.62 652.6 269.04 619.43 211.6 586.25 211.62 652.6"/><polygon class="cls-54" points="326.41 -10.35 269.04 -10.35 269.04 22.37 326.41 -10.35"/><polygon class="cls-54" points="326.5 519.94 269.04 553.1 326.52 586.28 326.5 519.94"/><polygon class="cls-54" points="269.04 88.71 326.41 121.88 326.41 55.54 269.04 88.71"/><polygon class="cls-54" points="269.04 354.08 326.43 320.92 269.04 287.74 269.04 354.08"/><polygon class="cls-54" points="326.41 188.23 383.95 221.41 383.95 155.05 326.41 188.23"/><polygon class="cls-54" points="441.49 719.01 441.49 652.69 383.95 685.84 441.49 719.01"/><polygon class="cls-54" points="383.95 420.44 383.95 486.78 441.39 453.62 383.95 420.44"/><polygon class="cls-54" points="441.34 254.59 383.95 287.76 441.35 320.94 441.34 254.59"/><polygon class="cls-54" points="613.69 155.06 556.34 121.88 556.34 188.23 613.69 155.06"/><polygon class="cls-54" points="613.84 752.17 613.86 685.85 556.34 719.01 613.84 752.17"/><polygon class="cls-54" points="498.87 155.06 441.32 121.88 441.32 188.23 498.87 155.06"/><polygon class="cls-54" points="498.87 22.37 441.32 -10.35 441.32 55.54 498.87 22.37"/><polygon class="cls-54" points="441.41 519.96 441.55 586.37 498.87 553.21 441.41 519.96"/><polygon class="cls-54" points="556.34 586.37 498.87 619.53 556.34 652.7 556.34 586.37"/><polygon class="cls-54" points="556.34 254.59 498.87 221.41 498.87 287.77 556.34 254.59"/><polygon class="cls-54" points="556.34 453.64 498.87 420.46 498.87 486.8 556.34 453.64"/><polygon class="cls-54" points="498.87 354.12 556.34 387.3 556.34 320.95 498.87 354.12"/><polygon class="cls-54" points="-18.18 785.28 39.19 752.12 -18.21 718.94 -18.18 785.28"/><polygon class="cls-54" points="154.11 818.53 154.11 752.19 96.83 785.36 154.11 818.53"/><polygon class="cls-54" points="383.95 818.51 441.53 785.34 383.95 752.18 383.95 818.51"/><polygon class="cls-54" points="39.19 851.76 96.93 851.76 39.19 818.53 39.19 851.76"/><polygon class="cls-54" points="269.04 851.76 326.71 851.76 269.04 818.54 269.04 851.76"/><path class="cls-39" d="m499.97,818.6c-.65,0-1.18-.53-1.18-1.18v-28.21c0-.65.53-1.18,1.18-1.18s1.18.53,1.18,1.18v28.21c0,.65-.53,1.18-1.18,1.18Z"/><path class="cls-39" d="m526.47,818.6c-.65,0-1.18-.53-1.18-1.18v-28.21c0-.65.53-1.18,1.18-1.18s1.18.53,1.18,1.18v28.21c0,.65-.53,1.18-1.18,1.18Z"/><path class="cls-45" d="m436.51,720.57s7.05,1.18,21.16,5.88c12.32,4.11,25.86-.03,25.86-5.88s-10.52-10.58-23.51-10.58-23.51,10.58-23.51,10.58Z"/><path class="cls-31" d="m525.83,751.6l-27.91-12.14c9.54-4.52,16.16-14.21,16.16-25.48,0-15.58-12.63-28.21-28.21-28.21s-28.21,12.63-28.21,28.21c0,10.43,5.68,19.52,14.1,24.4v15.56c0,25.96,21.05,47.01,47.01,47.01h42.31l-35.26-49.36Z"/><g class="cls-62"><path class="cls-43" d="m528.45,786.86h37.35l-39.74-56.15c-8.25-11.66-25.3-13.17-34.62-2.37-3.41,3.96-5.56,9.18-5.56,15.21h0c0,23.92,19.06,43.31,42.58,43.31Z"/></g><path class="cls-45" d="m469.41,709.29c0,3.89,3.16,7.05,7.05,7.05s7.05-3.16,7.05-7.05h-14.1Z"/><rect class="cls-24" x="-123.24" y="816.19" width="842.08" height="93.12"/><path class="cls-39" d="m103.08,148.87c-1.21,0-2.21-.98-2.22-2.2l-1.95-160.05c-.02-1.23.97-2.23,2.2-2.25,1.19-.02,2.23.97,2.25,2.2l1.95,160.05c.02,1.23-.97,2.23-2.2,2.25h-.03Z"/><path class="cls-39" d="m85.65,166.2c-.46,0-.93-.14-1.33-.44l-27.75-20.71-17.48,15.17c-.93.8-2.33.71-3.14-.22-.8-.93-.71-2.33.22-3.14l18.83-16.34c.79-.69,1.95-.73,2.79-.1l29.18,21.79c.98.73,1.19,2.13.45,3.11-.44.58-1.11.89-1.78.89Z"/><path class="cls-39" d="m118.56,166.2c-.68,0-1.35-.31-1.78-.89-.73-.98-.53-2.38.45-3.11l29.18-21.79c.84-.62,2-.58,2.79.1l18.83,16.34c.93.8,1.03,2.21.22,3.14-.8.93-2.21,1.03-3.14.22l-17.48-15.17-27.75,20.71c-.4.3-.87.44-1.33.44Z"/><path class="cls-39" d="m86.54,188.65c-.46,0-.93-.14-1.33-.44l-27.75-20.71-17.48,15.17c-.92.8-2.33.71-3.14-.22-.8-.93-.71-2.33.22-3.14l18.83-16.34c.79-.69,1.95-.73,2.79-.1l29.18,21.78c.98.73,1.19,2.13.45,3.11-.44.59-1.11.89-1.78.89Z"/><path class="cls-39" d="m117.66,188.65c-.68,0-1.35-.31-1.78-.89-.73-.98-.53-2.38.45-3.11l29.18-21.79c.84-.62,2-.58,2.79.1l18.83,16.34c.93.81,1.03,2.21.22,3.14-.81.93-2.21,1.02-3.14.22l-17.48-15.17-27.75,20.71c-.4.3-.86.44-1.33.44Z"/><path class="cls-39" d="m87.96,213.94c-.46,0-.93-.14-1.33-.44l-27.75-20.71-17.48,15.16c-.92.8-2.33.71-3.14-.22-.8-.93-.71-2.33.22-3.14l18.83-16.34c.79-.69,1.95-.73,2.79-.1l29.18,21.78c.98.73,1.19,2.13.45,3.11-.44.59-1.11.89-1.78.89Z"/><path class="cls-39" d="m116.25,213.94c-.68,0-1.35-.31-1.78-.89-.73-.98-.53-2.38.45-3.11l29.18-21.78c.84-.62,2-.58,2.79.1l18.83,16.34c.93.8,1.03,2.21.22,3.14-.81.93-2.21,1.02-3.14.22l-17.48-15.16-27.75,20.71c-.4.3-.86.44-1.33.44Z"/><path class="cls-39" d="m55.42,242.23c-1,0-1.9-.67-2.15-1.68l-4.45-17.78c-.16-.62-.03-1.28.33-1.81.37-.53.94-.87,1.58-.94l40.01-4.45c1.22-.14,2.32.74,2.45,1.96.14,1.22-.74,2.32-1.96,2.45l-37.49,4.17,3.83,15.32c.3,1.19-.43,2.4-1.62,2.7-.18.05-.36.07-.54.07Z"/><path class="cls-39" d="m148.79,242.23c-.18,0-.36-.02-.54-.07-1.19-.3-1.91-1.5-1.62-2.7l3.83-15.32-37.49-4.17c-1.22-.13-2.1-1.23-1.96-2.45.14-1.22,1.24-2.1,2.45-1.96l40.01,4.45c.64.07,1.21.41,1.58.94.37.53.49,1.19.33,1.81l-4.45,17.78c-.25,1.01-1.16,1.68-2.15,1.68Z"/><circle class="cls-39" cx="102.1" cy="177.76" r="31.12"/><path class="cls-39" d="m88.76,237.78c-.33,0-.67-.07-.99-.23-1.1-.55-1.54-1.88-.99-2.98l4.45-8.89c.55-1.1,1.88-1.55,2.98-.99,1.1.55,1.54,1.88.99,2.98l-4.45,8.89c-.39.78-1.17,1.23-1.99,1.23Z"/><path class="cls-39" d="m115.44,237.78c-.82,0-1.6-.45-1.99-1.23l-4.45-8.89c-.55-1.1-.1-2.43.99-2.98,1.1-.55,2.43-.1,2.98.99l4.45,8.89c.55,1.1.1,2.43-.99,2.98-.32.16-.66.23-.99.23Z"/><circle class="cls-39" cx="102.1" cy="215.55" r="15.56"/><polygon class="cls-44" points="110.61 164.01 93.59 164.01 98.46 177.76 93.59 191.52 110.61 191.52 105.75 177.76 110.61 164.01"/><path class="cls-45" d="m92.95,220.22c-.38,2.15,1.06,4.2,3.21,4.58s4.2-1.06,4.58-3.21l-7.79-1.37Z"/><path class="cls-45" d="m103.47,221.6c.38,2.15,2.43,3.59,4.58,3.21s3.59-2.43,3.21-4.58l-7.79,1.37Z"/><path class="cls-58" d="m615.9,74.63c-12.21-81.2-76.25-47.29-237.92-45.82C137.23,30.99,53.97,2.23,53.01,77.02c-1.27,98.52,204.06,22.41,236.11,66.46,43.49,59.76,68.94,32.06,162.71,42.12,229.57,24.65,166.15-97.12,164.07-110.98Z"/><polygon class="cls-28" points="125.17 688.45 81.77 688.45 76.34 666.75 130.6 666.75 125.17 688.45"/><path class="cls-38" d="m133.31,699.3h-59.69c-3,0-5.43-2.43-5.43-5.43h0c0-3,2.43-5.43,5.43-5.43h59.69c3,0,5.43,2.43,5.43,5.43h0c0,3-2.43,5.43-5.43,5.43Z"/><path class="cls-40" d="m133.31,721.01v-21.7h-59.69v21.7h0c-10.49,0-18.99,8.5-18.99,18.99v73.25c0,3,2.43,5.43,5.43,5.43h86.82c3,0,5.43-2.43,5.43-5.43v-73.25c0-10.49-8.5-18.99-18.99-18.99h0Z"/><g class="cls-60"><path class="cls-30" d="m71.49,731.86h63.96c3.31,0,6,2.69,6,6v69.96h-75.96v-69.96c0-3.31,2.69-6,6-6Z"/></g><path class="cls-48" d="m88.55,789.14l-1.36,7.83h32.56l-1.36-7.83c6.4-4.96,10.29-13.01,9.36-21.93-1.18-11.26-10.25-20.39-21.5-21.63-14.73-1.62-27.19,9.86-27.19,24.26,0,7.86,3.73,14.83,9.5,19.3Z"/><path class="cls-36" d="m119.75,798.33h-32.56c-.4,0-.78-.18-1.04-.48-.26-.31-.37-.71-.3-1.1l1.22-7.04c-5.97-4.93-9.38-12.12-9.38-19.86,0-7.32,3.13-14.32,8.58-19.2,5.53-4.95,12.67-7.23,20.12-6.41,11.9,1.31,21.45,10.92,22.7,22.83.92,8.7-2.53,17.1-9.23,22.63l1.22,7.04c.07.39-.04.8-.3,1.1-.26.31-.64.48-1.04.48Zm-30.94-2.71h29.33l-1.08-6.24c-.09-.49.11-1,.51-1.3,6.38-4.94,9.68-12.69,8.84-20.72-1.12-10.66-9.66-19.25-20.3-20.42-6.66-.74-13.06,1.3-18.01,5.73-4.88,4.37-7.68,10.63-7.68,17.18,0,7.17,3.27,13.81,8.97,18.23.4.31.59.81.51,1.3l-1.08,6.24Z"/><rect class="cls-36" x="107.54" y="786.12" width="2.71" height="10.85"/><rect class="cls-36" x="96.69" y="786.12" width="2.71" height="10.85"/><path class="cls-36" d="m112.97,776.63c-2.99,0-5.43-2.43-5.43-5.43s2.43-5.43,5.43-5.43,5.43,2.43,5.43,5.43-2.43,5.43-5.43,5.43Zm0-8.14c-1.5,0-2.71,1.22-2.71,2.71s1.22,2.71,2.71,2.71,2.71-1.22,2.71-2.71-1.22-2.71-2.71-2.71Z"/><path class="cls-36" d="m93.97,776.63c-2.99,0-5.43-2.43-5.43-5.43s2.43-5.43,5.43-5.43,5.43,2.43,5.43,5.43-2.43,5.43-5.43,5.43Zm0-8.14c-1.5,0-2.71,1.22-2.71,2.71s1.22,2.71,2.71,2.71,2.71-1.22,2.71-2.71-1.22-2.71-2.71-2.71Z"/><g class="cls-61"><rect class="cls-37" x="249.11" y="673" width="49.76" height="117.63"/><rect class="cls-38" x="246.85" y="654.91" width="54.29" height="117.63"/><path class="cls-16" d="m255.41,772.53h3.2c6.35,0,11.5,5.12,11.58,11.45v12.16h-26.36v-12.16c.08-6.34,5.22-11.45,11.58-11.45Z"/><rect class="cls-33" x="243.84" y="784.12" width="57.68" height="35.91"/><path class="cls-14" d="m251.19,793.17h0c-14.73,0-26.67,11.94-26.67,26.67v.19h53.35v-.19c0-14.73-11.94-26.67-26.67-26.67Z"/><rect class="cls-37" x="313.21" y="673" width="49.77" height="117.63"/><rect class="cls-38" x="310.94" y="654.91" width="54.29" height="117.63"/><path class="cls-14" d="m417.26,820.03h-98.02c-4.79,0-8.67-3.88-8.67-8.67v-27.24h45.43c0-6.4,5.19-11.59,11.59-11.59h3.2c6.4,0,11.59,5.19,11.59,11.59v.85c0,4.53,3.67,8.2,8.2,8.2h0c14.73,0,26.67,11.94,26.67,26.67v.19Z"/><path class="cls-20" d="m332.06,678.66h85.2l-10.14-248.07s-50.01-9.53-75.06-11.32v259.39Z"/><polygon class="cls-21" points="410.02 501.45 412.9 571.81 332.05 555.25 332.05 480.73 410.02 501.45"/><polygon class="cls-3" points="332.06 419.26 374.66 472.43 353.36 503.35 363.91 532.75 332.06 583.65 332.06 419.26"/><path class="cls-3" d="m376.55,628.21h0c15.9,0,28.78-12.89,28.78-28.78v-28.78h-57.56v28.78c0,15.9,12.89,28.78,28.78,28.78Z"/><rect class="cls-30" x="280.03" y="419.26" width="52.03" height="235.64"/><path class="cls-20" d="m280.03,678.66h-85.2l10.14-248.07s50.01-9.53,75.06-11.32v259.39Z"/><polygon class="cls-3" points="280.03 419.26 237.43 472.43 258.73 503.35 248.17 532.75 280.03 583.65 280.03 419.26"/><path class="cls-3" d="m235.53,628.21h0c-15.9,0-28.78-12.89-28.78-28.78v-28.78h57.56v28.78c0,15.9-12.89,28.78-28.78,28.78Z"/><path class="cls-40" d="m206.75,611.54v-52.03c-21.2,0-38.45-17.25-38.45-38.45s17.25-38.45,38.45-38.45v-52.03c-49.89,0-90.48,40.59-90.48,90.48s40.59,90.48,90.48,90.48Z"/><polygon class="cls-32" points="342.38 460.72 342.38 582.71 336.02 596.28 331.02 580.31 321.11 591.49 311.27 571.67 305.48 591.49 299.85 581.24 299.85 460.72 342.38 460.72"/><polygon class="cls-17" points="306.64 467.53 306.64 587.53 311.27 571.67 321.11 591.49 331.02 580.31 335.59 594.9 335.59 467.53 306.64 467.53"/><path class="cls-32" d="m299.85,468.38h42.53c4.23,0,7.66-3.43,7.66-7.66s-3.43-7.66-7.66-7.66h-42.53c-4.23,0-7.66,3.43-7.66,7.66s3.43,7.66,7.66,7.66Z"/><path class="cls-15" d="m309.25,549.59c0,4.9,6.79,4.9,6.79,0v-12.66c0-4.48-6.79-4.48-6.79,0v12.66Z"/><path class="cls-15" d="m322.27,581.2c0,3.76,5.21,3.76,5.21,0v-9.71c0-3.44-5.21-3.44-5.21,0v9.71Z"/><path class="cls-15" d="m326.15,520.78c0,3.76,5.21,3.76,5.21,0v-2.93c0-3.44-5.21-3.44-5.21,0v2.93Z"/><path class="cls-15" d="m322.27,572.4c0,7.75,10.73,7.75,10.73,0v-16.55c0-7.09-10.73-7.09-10.73,0v16.55Z"/><path class="cls-15" d="m314.33,543.1c0,4.9,6.79,4.9,6.79,0v-12.66c0-4.48-6.79-4.48-6.79,0v12.66Z"/><path class="cls-15" d="m323.35,607.22c0,2.98,2.42,5.4,5.4,5.4s5.4-2.42,5.4-5.4-5.4-10.93-5.4-10.93c0,0-5.4,7.95-5.4,10.93Z"/><path class="cls-19" d="m328.75,608.54c0,1.06.86,1.92,1.92,1.92s1.92-.86,1.92-1.92-.86-1.92-1.92-1.92-1.92.86-1.92,1.92Z"/><path class="cls-40" d="m414.21,562.79c29.17,0,55.86-19.87,63.18-49.31,4.22-16.98,1.53-34.56-7.57-49.49-9.1-14.94-23.49-25.39-40.52-29.42l-1.17-.25-27.39-5.17-9.65,51.13,26.65,5.03c4.31,1.17,6.64,4.09,7.65,5.76,1.05,1.73,2.65,5.3,1.51,9.87-1.7,6.86-8.69,11.11-15.57,9.49l-.39-.09-80.82-17.82-11.21,50.81,80.64,17.78c4.9,1.14,9.81,1.69,14.65,1.69Z"/><rect class="cls-38" x="280.03" y="618.71" width="52.03" height="36.19"/><path class="cls-26" d="m306.04,441.88c12.49,0,22.62-10.13,22.62-22.62v-38.63c0-12.49-10.13-22.62-22.62-22.62s-22.62,10.13-22.62,22.62v38.63c0,12.49,10.13,22.62,22.62,22.62Z"/><rect class="cls-32" x="222.57" y="525.57" width="42.53" height="104.63"/><path class="cls-18" d="m227.67,585.96h32.32l40.56,93.84c1.86,4.31,2.83,8.96,2.83,13.66h0c0,14.39-11.66,26.05-26.05,26.05h-66.99c-14.39,0-26.05-11.66-26.05-26.05h0c0-4.7.96-9.35,2.83-13.66l40.56-93.84Z"/><path class="cls-35" d="m195.32,683.34l36.18-83.73v-65.12h24.67v65.12l36.18,83.72c1.39,3.21,2.09,6.62,2.09,10.12,0,9.44-7.68,17.12-17.12,17.12h-66.99c-9.44,0-17.12-7.68-17.12-17.12,0-3.5.71-6.91,2.09-10.12Z"/><rect class="cls-35" x="222.57" y="525.57" width="42.53" height="14.78"/><path class="cls-13" d="m219.79,636.36h48.09l20.96,48.5c1.18,2.73,1.78,5.63,1.78,8.6,0,7.33-5.96,13.29-13.29,13.29h-66.99c-7.33,0-13.29-5.96-13.29-13.29,0-2.98.6-5.87,1.78-8.6l20.96-48.5Z"/><circle class="cls-50" cx="242.1" cy="695.27" r="6.8"/><path class="cls-23" d="m215.76,673c0,3.76,3.05,6.8,6.81,6.8s6.8-3.05,6.8-6.8-3.05-6.8-6.8-6.8-6.81,3.05-6.81,6.8Z"/><path class="cls-23" d="m251.92,671.56c0,3.76,3.05,6.8,6.81,6.8s6.8-3.05,6.8-6.8-3.05-6.81-6.8-6.81-6.81,3.05-6.81,6.81Z"/><path class="cls-23" d="m227.25,649.34c0,1.88,1.52,3.4,3.4,3.4s3.4-1.52,3.4-3.4-1.52-3.4-3.4-3.4-3.4,1.52-3.4,3.4Z"/><path class="cls-32" d="m222.57,533.22h42.53c4.23,0,7.66-3.43,7.66-7.66s-3.43-7.66-7.66-7.66h-42.53c-4.23,0-7.66,3.43-7.66,7.66s3.43,7.66,7.66,7.66Z"/><path class="cls-4" d="m280.42,698.54c.58,0,1.17-.11,1.74-.35,2.31-.96,3.4-3.61,2.43-5.92l-8.25-19.79c-.96-2.31-3.61-3.4-5.92-2.43-2.31.96-3.4,3.61-2.43,5.92l8.25,19.79c.72,1.74,2.41,2.79,4.18,2.79Z"/><path class="cls-4" d="m265.41,662.55c.58,0,1.17-.11,1.74-.35,2.31-.96,3.4-3.61,2.44-5.92l-17.95-43.06c-.96-2.31-3.61-3.4-5.92-2.43-2.31.96-3.4,3.61-2.44,5.92l17.95,43.06c.72,1.74,2.41,2.79,4.18,2.79Z"/><circle class="cls-7" cx="324.51" cy="517.91" r="43.84" transform="translate(-271.17 381.16) rotate(-45)"/><circle class="cls-7" cx="242.1" cy="583.64" r="43.84" transform="translate(-200.59 132.78) rotate(-21.95)"/><path class="cls-26" d="m306.36,441.85c12.49,0,22.62-10.13,22.62-22.62v-38.63c0-12.49-10.13-22.62-22.62-22.62s-22.62,10.13-22.62,22.62v38.63c0,12.49,10.13,22.62,22.62,22.62Z"/><rect class="cls-6" x="200.05" y="164.01" width="212.63" height="251.09" rx="106.32" ry="106.32"/><g class="cls-5"><path class="cls-10" d="m166.08,345.32v-8.1c0-16.45,22.08-16.45,22.08,0v21.41c0,10.92,17.25,10.92,17.25,0v-20.21c0-19.7,27.07-19.7,27.07,0v23.67c0,14.92,23.26,14.92,23.26,0v-4.71c0-13.84,20.82-13.84,20.82,0v13.28c0,17.53,27.24,17.53,27.24,0v-18.55c0-16.45,22.08-16.45,22.08,0v19.15c0,10.92,17.25,10.92,17.25,0v-27c0-19.7,27.08-19.7,27.08,0v3.32c0,14.92,23.26,14.92,23.26,0v-20.54c0-13.84,20.82-13.84,20.82,0v6.66c0,20.12,28.06,20.12,28.06,0l3.2,93.51H137.96v-81.88c0,19.71,28.13,19.71,28.13,0Z"/></g><path class="cls-22" d="m430.22,306.17c26.53,0,48.03-20.87,48.03-46.62,0-2.3-.18-4.56-.51-6.78-1.35,9.68-7.82,13.76-17.29,15.5,8.95-13.78,8.62-35.52,8.35-36.62-2.02,5.64-10.68,12.36-21.52,16.69,11.36-21.52-6.99-47.09-6.81-45.83,1.35,9.17-13.99,17.35-22.56,19.05-23.7,4.68-32.75,84.61,12.32,84.61Z"/><path class="cls-22" d="m182.5,306.17c-26.53,0-48.03-20.87-48.03-46.62,0-2.3.18-4.56.51-6.78,1.35,9.68,7.82,13.76,17.29,15.5-8.95-13.78-8.62-35.52-8.35-36.62,2.02,5.64,10.68,12.36,21.52,16.69-11.36-21.52,6.99-47.09,6.81-45.83-1.35,9.17,13.99,17.35,22.56,19.05,23.7,4.68,32.75,84.61-12.32,84.61Z"/><ellipse class="cls-26" cx="358.2" cy="281.28" rx="24.05" ry="25.74"/><ellipse class="cls-26" cx="254.52" cy="281.28" rx="24.05" ry="25.74"/><path class="cls-11" d="m356.9,278.42c7.4,0,13.4,6,13.4,13.39s-6,13.4-13.4,13.4-13.39-6-13.39-13.4,6-13.39,13.39-13.39Z"/><circle class="cls-4" cx="353.37" cy="297.89" r="3.53"/><path class="cls-3" d="m357.34,286.41c0,2.77,2.25,5.02,5.02,5.02s5.02-2.25,5.02-5.02-2.25-5.02-5.02-5.02-5.02,2.25-5.02,5.02Z"/><path class="cls-11" d="m255.82,278.42c-7.4,0-13.4,6-13.4,13.39s6,13.4,13.4,13.4,13.39-6,13.39-13.4-6-13.39-13.39-13.39Z"/><circle class="cls-4" cx="259.36" cy="297.89" r="3.53"/><circle class="cls-4" cx="250.36" cy="286.41" r="5.02"/><path class="cls-22" d="m332.97,245.79c8.41-2.32,17.42-3.51,26.92-3.74v9.8l9.05-9.8h9.43v9.8l6.53-9.8c5.12,7.92,5.41,15.84.88,23.76-1.45,2.54-4.15,4.14-7.08,4.14h-42.94c-6.04,0-10.93-4.9-10.93-10.93v-2.64c0-4.96,3.35-9.27,8.14-10.58Z"/><path class="cls-22" d="m279.75,245.79c-8.41-2.32-17.42-3.51-26.92-3.74v9.8l-6.13-9.8h-5.37l-.42,6.64-2.4-6.64h-7.35l1.31,4-4.63-4c-5.12,7.92-5.41,15.84-.88,23.76,1.45,2.54,4.15,4.14,7.08,4.14h42.94c6.04,0,10.93-4.9,10.93-10.93v-2.64c0-4.96-3.35-9.27-8.14-10.58Z"/><path class="cls-51" d="m280.91,368.07c0,14.78,11.39,26.77,25.45,26.77s25.45-11.98,25.45-26.77-11.39-26.77-25.45-26.77-25.45,11.98-25.45,26.77Z"/><path class="cls-34" d="m280.91,368.07c0,10.67,11.39,19.32,25.45,19.32s25.45-8.65,25.45-19.32-11.39-19.32-25.45-19.32-25.45,8.65-25.45,19.32Z"/><path class="cls-41" d="m325.98,380.37c-4.67,4.28-11.72,7.02-19.62,7.02s-14.95-2.73-19.62-7.02c4.67-4.28,11.72-7.02,19.62-7.02s14.95,2.73,19.62,7.02Z"/><path class="cls-22" d="m255.82,367.59h9.39l7.42-12.46.2,12.46h9.47l2.7-4.62,3.29,4.62h37.28l1.46-11,6.18,11h11.13l3.49-7.51,1.85,7.51h11.87c-5.88-44.14-52.86-39.52-52.86-39.52,0,0-46.97-4.62-52.86,39.52Z"/><path class="cls-51" d="m308.68,305.44c2.5,0,4.52-2.03,4.52-4.52v-31.55c0-2.5-2.03-4.52-4.52-4.52s-4.52,2.03-4.52,4.52v31.55c0,2.5,2.03,4.52,4.52,4.52Z"/><path class="cls-26" d="m239.06,226.22c.49,0,1-.11,1.47-.34,25.69-12.38,52.19-17.56,78.75-15.39,1.89.14,3.51-1.24,3.66-3.11.15-1.87-1.24-3.51-3.11-3.66-27.78-2.26-55.45,3.13-82.24,16.04-1.69.81-2.4,2.84-1.58,4.53.59,1.21,1.8,1.92,3.06,1.92Z"/><path class="cls-26" d="m377.73,226.22c1.29,0,2.52-.74,3.09-1.99.78-1.71.02-3.72-1.69-4.49-11.63-5.28-23.35-9.35-34.83-12.08-1.82-.43-3.65.69-4.09,2.51-.44,1.82.69,3.65,2.51,4.09,11.06,2.64,22.37,6.56,33.6,11.66.45.21.93.3,1.4.3Z"/><path class="cls-26" d="m255.1,199.07c.39,0,.78-.07,1.16-.21,10.98-4,22.19-6.74,33.32-8.12,1.86-.23,3.18-1.93,2.95-3.79-.23-1.86-1.93-3.18-3.79-2.95-11.63,1.45-23.34,4.3-34.8,8.48-1.76.64-2.67,2.59-2.03,4.35.5,1.38,1.8,2.23,3.19,2.23Z"/><path class="cls-26" d="m367.23,201.43c1.36,0,2.64-.82,3.16-2.17.68-1.75-.19-3.71-1.93-4.39-21.77-8.47-43.6-12.48-64.82-11.97-1.87.05-3.35,1.6-3.31,3.48.05,1.87,1.55,3.38,3.48,3.31,20.34-.51,41.26,3.37,62.19,11.51.4.16.82.23,1.23.23Z"/><path class="cls-28" d="m249.15,246.19c9.5,3.21,19.7,4.35,28.11,2.59,9.25-1.94,15.73-7.29,18.24-15.06.8-2.48,2.56-4.51,4.96-5.71,2.53-1.27,5.52-1.48,8.21-.57l7.77,2.63c2.69.91,4.94,2.89,6.18,5.43,1.17,2.41,1.34,5.09.48,7.55-2.72,7.71-.81,15.9,5.37,23.04,11.13,12.87,34.74,20.96,51.57,17.67,9.37-1.84,15.98-7.12,18.6-14.88,1-2.95,4.21-4.54,7.16-3.54l4.53,1.53c2.37.8,4.93-.47,5.73-2.84l7.26-21.49c.8-2.37-.47-4.93-2.84-5.73l-202.63-68.46c-2.37-.8-4.93.47-5.73,2.84l-7.26,21.49c-.8,2.37.47,4.93,2.84,5.73l8.54,2.88c2.95,1,4.54,4.21,3.54,7.16-2.62,7.76-.57,15.97,5.76,23.11,5.63,6.35,14.29,11.49,23.6,14.64Zm70.19-24.71l-7.77-2.63c-4.97-1.68-10.49-1.29-15.17,1.06-4.58,2.3-7.95,6.21-9.5,11.01-1.52,4.69-5.38,7.72-11.49,8.99-13.63,2.86-33.77-3.86-43.09-14.38-4.21-4.75-5.54-9.53-3.96-14.21,2.59-7.68-1.54-16.03-9.22-18.63l-4.25-1.44,4.37-12.92,194.06,65.57-4.37,12.92-.25-.08c-7.68-2.59-16.03,1.54-18.63,9.22-1.58,4.68-5.54,7.68-11.77,8.9-13.79,2.7-33.88-4.17-42.98-14.71-4.08-4.72-5.32-9.47-3.68-14.12,1.68-4.76,1.36-9.91-.88-14.51-2.29-4.71-6.45-8.37-11.42-10.05Z"/><path class="cls-9" d="m216.41,172.61l202.63,68.46-7.26,21.49-4.53-1.53c-5.32-1.8-11.09,1.06-12.89,6.38h0c-9.35,27.68-76.74,4.83-66.98-22.88,2.72-7.72-1.72-16.15-9.48-18.77l-7.77-2.63c-7.76-2.62-16.4,1.39-18.92,9.18-9.04,27.95-76.49,5.24-67.13-22.44h0c1.8-5.32-1.06-11.09-6.38-12.89l-8.53-2.88,7.26-21.49Z"/><path class="cls-51" d="m302.73,332.59h5.95c2.5,0,4.52-2.03,4.52-4.52s-2.03-4.52-4.52-4.52h-5.95c-4.99,0-9.05-4.06-9.05-9.05s4.06-9.05,9.05-9.05h5.95c2.5,0,4.52-2.03,4.52-4.52s-2.03-4.52-4.52-4.52h-5.95c-9.98,0-18.1,8.12-18.1,18.1s8.12,18.1,18.1,18.1Z"/><path class="cls-42" d="m389.23,352.29c2.5,0,4.52-2.03,4.52-4.52v-19.83c0-2.5-2.03-4.52-4.52-4.52s-4.52,2.03-4.52,4.52v19.83c0,2.5,2.03,4.52,4.52,4.52Z"/><path class="cls-42" d="m379.31,342.37h19.83c2.5,0,4.52-2.03,4.52-4.52s-2.03-4.52-4.52-4.52h-19.83c-2.5,0-4.52,2.03-4.52,4.52s2.03,4.52,4.52,4.52Z"/><path class="cls-42" d="m248.21,384.89c1.16,0,2.32-.44,3.2-1.33,1.77-1.77,1.77-4.63,0-6.4l-9.16-9.16c-1.77-1.77-4.63-1.77-6.4,0-1.77,1.77-1.77,4.63,0,6.4l9.16,9.16c.88.88,2.04,1.33,3.2,1.33Z"/><path class="cls-42" d="m239.06,384.89c1.16,0,2.32-.44,3.2-1.33l9.16-9.16c1.77-1.77,1.77-4.63,0-6.4-1.77-1.77-4.63-1.77-6.4,0l-9.16,9.16c-1.77,1.77-1.77,4.63,0,6.4.88.88,2.04,1.33,3.2,1.33Z"/><path class="cls-42" d="m219.17,328.93c1.87,0,3.39-1.52,3.39-3.39v-12.95c0-1.87-1.52-3.39-3.39-3.39s-3.39,1.52-3.39,3.39v12.95c0,1.87,1.52,3.39,3.39,3.39Z"/><path class="cls-42" d="m212.7,322.46h12.95c1.87,0,3.39-1.52,3.39-3.39s-1.52-3.39-3.39-3.39h-12.95c-1.87,0-3.39,1.52-3.39,3.39s1.52,3.39,3.39,3.39Z"/><path class="cls-12" d="m189.8,464.7h.82c7.6-.03,7.6-10.84,0-10.87h-31.33c-10.88,0-10.88-15.86,0-15.86h74.79c11.18,0,11.18,15.86,0,15.86h2.37c-7.45,0-7.45,10.87,0,10.87h7.55c12.42,0,12.42,17.61,0,17.61h-15.77c-6.76,0-6.76,9.87,0,9.87h29.11c11.18,0,11.18,15.86,0,15.86h-8.7c-6.76,0-6.76,9.87,0,9.87h-18.75c6.9-.03,6.9-9.84,0-9.87h-21.37c-10.88,0-10.88-15.86,0-15.86h.96c6.9-.03,6.9-9.84,0-9.87h-19.68c-12.09,0-12.09-17.61,0-17.61Zm25.99-10.87h-4.51c-7.45,0-7.45,10.87,0,10.87h4.51c7.6-.03,7.6-10.84,0-10.87Z"/><path class="cls-12" d="m151.35,464.7h9.93c12.42,0,12.42,17.61,0,17.61h-9.93c-12.08,0-12.08-17.61,0-17.61Z"/></g><text class="cls-1" transform="translate(80.79 98.36)"><tspan x="0" y="0">SPOO</tspan><tspan class="cls-59" x="166.35" y="0">K</tspan><tspan class="cls-57" x="206.33" y="0">Y</tspan><tspan x="242.91" y="0" xml:space="preserve"> SCIENCE</tspan></text><text class="cls-2" transform="translate(315.31 150.23)"><tspan class="cls-56" x="0" y="0">10</tspan><tspan class="cls-63" x="50.62" y="0"></tspan><tspan class="cls-56" x="93.15" y="0">22</tspan><tspan class="cls-63" x="143.77" y="0">()</tspan></text></svg>