<svg xmlns="http://www.w3.org/2000/svg" viewBox="0 0 1533.32 1457.45"><defs><style>.cls-1{fill:none;stroke:#999584;stroke-linecap:round;stroke-miterlimit:10;stroke-width:11.2px;}.cls-2{fill:#00d8b9;}.cls-3{fill:#00b8a9;}.cls-4{fill:#ffde7d;}.cls-5{fill:#f6416c;}</style></defs><g id="Layer_2" data-name="Layer 2"><g id="Double_Hangaku" data-name="Double Hangaku"><path class="cls-1" d="M1132,477.64c-9.63,51.75-48.79,102.59-115.24,111.93C963.39,597.08,918.21,628,904.22,698.9c-12.09,61.28-45.74,104.39-124.33,120.77C705.28,835.22,649.53,885,633.55,961.82c-16.31,78.39-68.39,136-154.53,150.1-52.74,8.61-105.31,42.54-125.9,122.29-17.08,66.12-53.84,131.5-151.51,147.16"/><path class="cls-1" d="M1197.59,510.3c-18.67,59.86-42.77,91.68-115.23,111.93-33.8,9.45-86.95,51.82-112.56,109.33-30.7,68.94-33.08,100.85-124.33,120.77-55.25,12.06-108.05,47.88-155.14,158.56-39.67,93.22-80,129.88-164.66,149.53-52,12.08-101.26,41.12-115.13,104-14.7,66.69-86.82,134.89-184.49,150.55"/><path class="cls-1" d="M1095.8,424.27c-18.67,59.86-42,102.28-115.23,111.93-58.87,7.76-87.17,45.66-108,112.73-18.55,59.85-48.51,96.88-139.12,119.52-65,16.22-102.34,42.1-134.23,146-29.73,96.85-80.3,148.37-164.93,168-52.05,12.08-103.22,35.54-125.58,95.93-31.62,85.41-57.74,155-159.61,165.45"/><path class="cls-2" d="M564.75,1310.38c20.52-1.56,46.52,3.92,46,38.58s-17.13,60.73-44.46,61c-54.83.45-43.72-29.36-37.83-50.11C535.86,1333.83,551.49,1311.38,564.75,1310.38Z"/><path class="cls-2" d="M617.47,768.89c-18.4,5.83-43.32,6.42-50.31-25.34s2.59-59.13,27.5-65.21c50-12.2,46.22,17.41,45.3,37.62C638.81,741.26,629.36,765.12,617.47,768.89Z"/><path class="cls-2" d="M529.81,682.13c-15.23,19.72-47.73,44.38-72,10.14-27-38-40-84.62-18-109.39,44-49.7,61.05,4.46,75,26.57C532.11,637.13,539.65,669.39,529.81,682.13Z"/><path class="cls-2" d="M670.64,1387.81c-20.47-13.57-40.95-37.79-15.07-70.08s60.66-44.66,86.58-24.83c52,39.76,19.65,59.7-1.1,74.93C715.06,1386.9,683.87,1396.59,670.64,1387.81Z"/><path class="cls-2" d="M1453.2,1309.27c-2.25,17.51-11.36,38.42-40.41,32s-57.54-29.13-43.54-48c25.14-33.78,42.35-35.61,58.77-27.06C1448.57,1277,1454.66,1298,1453.2,1309.27Z"/><path class="cls-2" d="M622.93,1259.94c-12.28-14.74-22.18-37.45,4.42-55.81s55.39-19.84,70.34.8c30,41.4,1.34,49.08-17.61,55.83C656.37,1269.2,630.86,1269.47,622.93,1259.94Z"/><path class="cls-2" d="M1450.34,845.75c8.6-13.22,24-26.51,44.9-10.08s29,38.68,16.45,55.44c-25.23,33.6-38.22,13-48.12-.28C1451.18,874.26,1444.78,854.29,1450.34,845.75Z"/><path class="cls-2" d="M528.41,761.26c14.11,13.32,25,36.21-8.14,63.85s-68,36.88-85.09,17.64c-34.24-38.59.83-54.77,24.09-67.34C488.4,759.67,519.28,752.64,528.41,761.26Z"/><path class="cls-2" d="M824.69,180.58c9-26.08,30.14-54.87,75-34.37s69.92,55.86,55.51,89.56c-28.91,67.58-61.78,36.83-85.64,17.7C839.71,229.52,818.87,197.44,824.69,180.58Z"/><path class="cls-2" d="M780,18.07c24.47,9.18,52.73,27.23,39.33,56.81S776.93,118.39,745,104.57C681,76.84,704.94,56.87,719.48,42,737.67,23.44,764.19,12.13,780,18.07Z"/><path class="cls-2" d="M663.68,257.11c-26.54,2.59-60.38-3.78-60.7-48.7s20.49-79.17,55.9-80.22c71-2.12,57.45,36.82,50.41,63.86C700.46,225.91,680.83,255.44,663.68,257.11Z"/><path class="cls-2" d="M1349.59,805.27c15.09-10.41,37.26-18.57,51,5.15s11.56,49-9.3,61.6c-41.86,25.32-45.46,0-49.38-16.7C1337,834.35,1339.83,812,1349.59,805.27Z"/><path class="cls-3" d="M564.6,478.6s44.9-91.68,129.83-94.45c58.75-1.92,83.05,3.73,127,4.62,56.42,1.15,65.18-44.16,116.59-43.9,49.11.24,101.37,42.32,101.37,42.32S995.88,465,922.31,477.37c-56.08,9.42-100.52-12.17-124.22-9.39-48.4,5.66-59.09,42.09-104.48,53.68C615.72,541.55,564.6,478.6,564.6,478.6Z"/><path class="cls-3" d="M252.5,700.77s58,91,60.93,177.87c1.84,54.12-37.84,85.57-72.11,132.21-35.89,48.87,10.84,59.18-6.68,101.39-22.78,54.87-58.28,64.13-58.28,64.13s-50.49-59.49-23-180.31c8.43-37,19.6-58.78,33.75-86,20.06-38.64-3.67-70.84,2.87-112.18C201.23,726.91,252.5,700.77,252.5,700.77Z"/><path class="cls-3" d="M431,0s21.32,70.8-41,138.92c-38.86,42.45-75.61,68.15-136.37,77.21-63.64,9.48-72.85,76.5-117.57,95.05-58.15,24.11-136-78-136-78s41.81,14.1,89.53-5.89c49.83-20.87,54.06-70,90.24-102.24,35-31.19,96.92-29.92,139.39-42.27C373.11,67.09,431,0,431,0Z"/><path class="cls-3" d="M1038.73,893.74s102.1,9.28,159-17,67-100,126-122.07,111.18-43.56,137-57.08,72.53-105.39,72.53-105.39-29.4-32.13-102.26-11.44c-70.38,20-58,47.62-89.24,77.81s-71.81,12.06-104.32,40-44.41,66.88-68.63,88.79-54.36,14.72-85.16,37.88C1056.73,845.56,1038.73,893.74,1038.73,893.74Z"/><path class="cls-4" d="M362.37,391.25c20.16,38.42,31.66,95-40.17,124.31S182,538.79,182.05,481.17c.13-88.82,24.39-110.43,72-117.14C313.68,355.62,349.34,366.42,362.37,391.25Z"/><path class="cls-5" d="M322.13,286.63C219.72,257.44,127,336.85,101.85,424.93s47.4,140.48,149.81,169.66S439.83,581.3,464.94,493.21,424.54,315.82,322.13,286.63Zm-43.05,302.3C196.79,565.48,118.84,513.84,139,443.06s98.41-166.43,180.7-143S450.93,418.72,430.76,489.5,361.38,612.38,279.08,588.93Z"/><path class="cls-4" d="M1221.41,1190.77c-11.51,65.48-50.49,144.86-165.08,113.18s-191.85-103.07-137.82-172.89c83.3-107.63,133-111.13,197-74.7C1195.7,1102,1228.85,1148.44,1221.41,1190.77Z"/><path class="cls-5" d="M1270.53,1026.19c-96.91-131.27-283.76-121.77-396.66-38.42s-74,214.76,22.91,346,240.71,160,353.61,76.66S1367.44,1157.45,1270.53,1026.19ZM935.34,1352.6c-77.87-105.48-124.1-241.08-33.37-308.06s275.16-109.77,353-4.29,48.12,266.73-42.6,333.71S1013.22,1458.08,935.34,1352.6Z"/><path class="cls-4" d="M1220.55,363.43c-45.38-14.06-91.21-105.25-47.5-178.1,42.75-71.24,135.85-77.84,180.48-33.25,68.81,68.74,28.5,118.74-14.25,156.73C1290,352.62,1249.89,372.52,1220.55,363.43Z"/><path class="cls-5" d="M1356.23,398.64c101.79-56.89,111.88-190.21,63-277.76S1273.58,49.08,1171.8,106s-135.12,156.25-86.19,243.8S1254.45,455.53,1356.23,398.64ZM1213.42,121.21c81.8-45.71,172-1.49,211.35,68.87s-41.69,153.76-123.48,199.47S1155.38,372,1116.06,301.69,1131.63,166.92,1213.42,121.21Z"/></g></g></svg>