<?xml version="1.0" encoding="utf-8"?>
<!-- Generator: Adobe Illustrator 27.2.0, SVG Export Plug-In . SVG Version: 6.00 Build 0)  -->
<svg version="1.1" id="Layer_1" xmlns="http://www.w3.org/2000/svg" xmlns:xlink="http://www.w3.org/1999/xlink" x="0px" y="0px"
	 viewBox="0 0 1533.3 1457.4" style="enable-background:new 0 0 1533.3 1457.4;" xml:space="preserve">
<style type="text/css">
	.st0{opacity:0.2;}
	.st1{fill:none;stroke:#999584;stroke-width:11.2;stroke-linecap:round;stroke-miterlimit:10;}
	.st2{fill:#00D8B9;}
	.st3{fill:#00B8A9;}
	.st4{fill:#FFDE7D;}
	.st5{fill:#F6416C;}
</style>
<g id="Layer_2_00000086663222845117714260000003412571203585842582_" class="st0">
	<g id="Double_Hangaku">
		<path class="st1" d="M1132,477.6c-9.6,51.8-48.8,102.6-115.2,111.9c-53.4,7.5-98.5,38.4-112.5,109.3
			c-12.1,61.3-45.7,104.4-124.3,120.8c-74.6,15.5-130.4,65.3-146.3,142.1c-16.3,78.4-68.4,136-154.5,150.1
			c-52.7,8.6-105.3,42.5-125.9,122.3c-17.1,66.1-53.8,131.5-151.5,147.2"/>
		<path class="st1" d="M1197.6,510.3c-18.7,59.9-42.8,91.7-115.2,111.9c-33.8,9.5-87,51.8-112.6,109.3
			c-30.7,68.9-33.1,100.8-124.3,120.8c-55.2,12.1-108,47.9-155.1,158.6c-39.7,93.2-80,129.9-164.7,149.5
			c-52,12.1-101.3,41.1-115.1,104c-14.7,66.7-86.8,134.9-184.5,150.6"/>
		<path class="st1" d="M1095.8,424.3c-18.7,59.9-42,102.3-115.2,111.9c-58.9,7.8-87.2,45.7-108,112.7
			c-18.5,59.8-48.5,96.9-139.1,119.5c-65,16.2-102.3,42.1-134.2,146c-29.7,96.8-80.3,148.4-164.9,168
			c-52,12.1-103.2,35.5-125.6,95.9c-31.6,85.4-57.7,155-159.6,165.4"/>
		<path class="st2" d="M564.8,1310.4c20.5-1.6,46.5,3.9,46,38.6s-17.1,60.7-44.5,61c-54.8,0.4-43.7-29.4-37.8-50.1
			C535.9,1333.8,551.5,1311.4,564.8,1310.4z"/>
		<path class="st2" d="M617.5,768.9c-18.4,5.8-43.3,6.4-50.3-25.3s2.6-59.1,27.5-65.2c50-12.2,46.2,17.4,45.3,37.6
			C638.8,741.3,629.4,765.1,617.5,768.9z"/>
		<path class="st2" d="M529.8,682.1c-15.2,19.7-47.7,44.4-72,10.1c-27-38-40-84.6-18-109.4c44-49.7,61,4.5,75,26.6
			C532.1,637.1,539.7,669.4,529.8,682.1z"/>
		<path class="st2" d="M670.6,1387.8c-20.5-13.6-41-37.8-15.1-70.1s60.7-44.7,86.6-24.8c52,39.8,19.7,59.7-1.1,74.9
			C715.1,1386.9,683.9,1396.6,670.6,1387.8z"/>
		<path class="st2" d="M1453.2,1309.3c-2.2,17.5-11.4,38.4-40.4,32s-57.5-29.1-43.5-48c25.1-33.8,42.3-35.6,58.8-27.1
			C1448.6,1277,1454.7,1298,1453.2,1309.3z"/>
		<path class="st2" d="M622.9,1259.9c-12.3-14.7-22.2-37.4,4.4-55.8s55.4-19.8,70.3,0.8c30,41.4,1.3,49.1-17.6,55.8
			C656.4,1269.2,630.9,1269.5,622.9,1259.9z"/>
		<path class="st2" d="M1450.3,845.8c8.6-13.2,24-26.5,44.9-10.1s29,38.7,16.4,55.4c-25.2,33.6-38.2,13-48.1-0.3
			C1451.2,874.3,1444.8,854.3,1450.3,845.8z"/>
		<path class="st2" d="M528.4,761.3c14.1,13.3,25,36.2-8.1,63.8s-68,36.9-85.1,17.6c-34.2-38.6,0.8-54.8,24.1-67.3
			C488.4,759.7,519.3,752.6,528.4,761.3z"/>
		<path class="st2" d="M824.7,180.6c9-26.1,30.1-54.9,75-34.4s69.9,55.9,55.5,89.6c-28.9,67.6-61.8,36.8-85.6,17.7
			C839.7,229.5,818.9,197.4,824.7,180.6z"/>
		<path class="st2" d="M780,18.1c24.5,9.2,52.7,27.2,39.3,56.8s-42.4,43.5-74.3,29.7c-64-27.7-40.1-47.7-25.5-62.6
			C737.7,23.4,764.2,12.1,780,18.1z"/>
		<path class="st2" d="M663.7,257.1c-26.5,2.6-60.4-3.8-60.7-48.7s20.5-79.2,55.9-80.2c71-2.1,57.5,36.8,50.4,63.9
			C700.5,225.9,680.8,255.4,663.7,257.1z"/>
		<path class="st2" d="M1349.6,805.3c15.1-10.4,37.3-18.6,51,5.2s11.6,49-9.3,61.6c-41.9,25.3-45.5,0-49.4-16.7
			C1337,834.3,1339.8,812,1349.6,805.3z"/>
		<path class="st3" d="M564.6,478.6c0,0,44.9-91.7,129.8-94.4c58.8-1.9,83,3.7,127,4.6c56.4,1.1,65.2-44.2,116.6-43.9
			c49.1,0.2,101.4,42.3,101.4,42.3s-43.5,77.8-117.1,90.2c-56.1,9.4-100.5-12.2-124.2-9.4c-48.4,5.7-59.1,42.1-104.5,53.7
			C615.7,541.5,564.6,478.6,564.6,478.6z"/>
		<path class="st3" d="M252.5,700.8c0,0,58,91,60.9,177.9c1.8,54.1-37.8,85.6-72.1,132.2c-35.9,48.9,10.8,59.2-6.7,101.4
			c-22.8,54.9-58.3,64.1-58.3,64.1s-50.5-59.5-23-180.3c8.4-37,19.6-58.8,33.8-86c20.1-38.6-3.7-70.8,2.9-112.2
			C201.2,726.9,252.5,700.8,252.5,700.8z"/>
		<path class="st3" d="M431,0c0,0,21.3,70.8-41,138.9c-38.9,42.4-75.6,68.2-136.4,77.2c-63.6,9.5-72.9,76.5-117.6,95
			c-58.2,24.1-136-78-136-78s41.8,14.1,89.5-5.9c49.8-20.9,54.1-70,90.2-102.2c35-31.2,96.9-29.9,139.4-42.3C373.1,67.1,431,0,431,0
			z"/>
		<path class="st3" d="M1038.7,893.7c0,0,102.1,9.3,159-17s67-100,126-122.1s111.2-43.6,137-57.1s72.5-105.4,72.5-105.4
			s-29.4-32.1-102.3-11.4c-70.4,20-58,47.6-89.2,77.8s-71.8,12.1-104.3,40s-44.4,66.9-68.6,88.8s-54.4,14.7-85.2,37.9
			C1056.7,845.6,1038.7,893.7,1038.7,893.7z"/>
		<path class="st4" d="M362.4,391.2c20.2,38.4,31.7,95-40.2,124.3S182,538.8,182.1,481.2c0.1-88.8,24.4-110.4,72-117.1
			C313.7,355.6,349.3,366.4,362.4,391.2z"/>
		<path class="st5" d="M322.1,286.6C219.7,257.4,127,336.9,101.8,424.9s47.4,140.5,149.8,169.7s188.2-13.3,213.3-101.4
			S424.5,315.8,322.1,286.6z M279.1,588.9C196.8,565.4,118.9,513.8,139,443s98.4-166.4,180.7-143s131.2,118.7,111.1,189.4
			S361.4,612.4,279.1,588.9L279.1,588.9z"/>
		<path class="st4" d="M1221.4,1190.8c-11.5,65.5-50.5,144.9-165.1,113.2s-191.8-103.1-137.8-172.9c83.3-107.6,133-111.1,197-74.7
			C1195.7,1102,1228.8,1148.4,1221.4,1190.8z"/>
		<path class="st5" d="M1270.5,1026.2c-96.9-131.3-283.8-121.8-396.7-38.4s-74,214.8,22.9,346s240.7,160,353.6,76.7
			S1367.4,1157.4,1270.5,1026.2z M935.3,1352.6c-77.9-105.5-124.1-241.1-33.4-308.1s275.2-109.8,353-4.3s48.1,266.7-42.6,333.7
			S1013.2,1458.1,935.3,1352.6z"/>
		<path class="st4" d="M1220.6,363.4c-45.4-14.1-91.2-105.2-47.5-178.1c42.8-71.2,135.8-77.8,180.5-33.2
			c68.8,68.7,28.5,118.7-14.2,156.7C1290,352.6,1249.9,372.5,1220.6,363.4z"/>
		<path class="st5" d="M1356.2,398.6c101.8-56.9,111.9-190.2,63-277.8s-145.7-71.8-247.4-14.9s-135.1,156.2-86.2,243.8
			S1254.4,455.5,1356.2,398.6z M1213.4,121.2c81.8-45.7,172-1.5,211.3,68.9s-41.7,153.8-123.5,199.5s-145.9-17.5-185.2-87.9
			S1131.6,166.9,1213.4,121.2z"/>
	</g>
</g>
</svg>
