<?xml version="1.0" encoding="UTF-8"?><svg id="Layer_2" xmlns="http://www.w3.org/2000/svg" viewBox="0 0 875 893.64"><defs><style>.cls-1{font-family:AvenirNext-Medium, 'Avenir Next';font-size:40px;font-weight:500;}.cls-2{letter-spacing:-.02em;}.cls-3{stroke-width:4px;}.cls-3,.cls-4,.cls-5,.cls-6,.cls-7,.cls-8{stroke:#000;}.cls-3,.cls-5,.cls-6,.cls-7,.cls-8{stroke-miterlimit:10;}.cls-3,.cls-9{fill:#f8f3d4;}.cls-4{stroke-miterlimit:10;stroke-width:1px;}.cls-4,.cls-5{fill:#00b8a9;}.cls-6{fill:#999584;}.cls-7{fill:#ffde7d;}.cls-8{fill:none;}.cls-10,.cls-9{stroke-width:0px;}</style></defs><g id="Layer_1-2"><path class="cls-9" d="m269.5,818.5l.27-.31c.17-.21,17.33-20.18,48-20.18h.5v81.59l-48.77-61.1Z"/><path class="cls-10" d="m317.84,798.5v79.67l-47.67-59.67s16.83-20,47.67-20m1-1h-1c-30.95,0-48.26,20.15-48.44,20.35l-.52.63.51.64,47.67,59.67,1.78,2.23v-83.52h0Z"/><polygon class="cls-3" points="316.92 891.64 316.92 415.64 2 415.64 2 2 102.74 2 102.74 85.25 873 85.25 873 891.64 316.92 891.64"/><line id="Kids_Wall" class="cls-8" x1="222.84" y1="308.31" x2="871.5" y2="308.31"/><line id="Adult_Wall" class="cls-8" x1="222.5" y1="86.75" x2="222.5" y2="414.14"/><rect class="cls-6" x="222.5" y="101.76" width="10.32" height="85.45"/><rect class="cls-5" x="478" y="104.14" width="37" height="37" rx="13.21" ry="13.21"/><rect class="cls-5" x="478" y="169.14" width="37" height="37" rx="13.21" ry="13.21"/><rect class="cls-5" x="560" y="104.14" width="37" height="37" rx="13.21" ry="13.21"/><rect class="cls-5" x="560" y="169.14" width="37" height="37" rx="13.21" ry="13.21"/><rect class="cls-7" x="497" y="89.64" width="81" height="131"/><rect class="cls-5" x="807.5" y="131.64" width="37" height="37" rx="13.21" ry="13.21"/><rect class="cls-5" x="742.5" y="131.64" width="37" height="37" rx="13.21" ry="13.21"/><rect class="cls-5" x="807.5" y="213.64" width="37" height="37" rx="13.21" ry="13.21"/><rect class="cls-5" x="742.5" y="213.64" width="37" height="37" rx="13.21" ry="13.21"/><rect class="cls-7" x="728" y="150.64" width="131" height="81"/><rect class="cls-4" x="271.83" y="105.13" width="30" height="30" rx="10.71" ry="10.71" transform="translate(-.93 238) rotate(-45)"/><rect class="cls-4" x="278.54" y="149.33" width="30" height="30" rx="10.71" ry="10.71" transform="translate(-30.23 255.7) rotate(-45)"/><rect class="cls-4" x="316.02" y="111.85" width="30" height="30" rx="10.71" ry="10.71" transform="translate(7.26 271.22) rotate(-45)"/><path class="cls-7" d="m319,188.97c-1.88,0-3.68-.74-5-2.08l-43-43c-2.75-2.77-2.75-7.23,0-10l29.57-29.58c2.77-2.74,7.23-2.74,10,0l43,43c2.74,2.77,2.74,7.23,0,10l-29.58,29.57c-1.32,1.34-3.11,2.09-4.99,2.09Z"/><path class="cls-8" d="m365.17,308.14l59.67-47.64s20,16.83,20,47.67"/><path class="cls-8" d="m640.17,308.14l59.67-47.64s20,16.83,20,47.67"/><rect class="cls-4" x="34" y="31.64" width="37" height="37" rx="13.21" ry="13.21" transform="translate(-20.08 51.81) rotate(-45)"/><rect class="cls-6" x="118.02" y="86.31" width="85.45" height="10.32"/><rect class="cls-6" x="733.02" y="86.31" width="121.48" height="10.32"/><rect class="cls-6" x="7" y="370.64" width="40" height="40"/><rect class="cls-5" x="61.5" y="220.64" width="37" height="37" rx="13.21" ry="13.21"/><rect class="cls-5" x="126.5" y="220.64" width="37" height="37" rx="13.21" ry="13.21"/><rect class="cls-5" x="61.5" y="138.64" width="37" height="37" rx="13.21" ry="13.21"/><rect class="cls-5" x="126.5" y="138.64" width="37" height="37" rx="13.21" ry="13.21"/><rect class="cls-7" x="47" y="157.64" width="131" height="81"/><path class="cls-8" d="m222.63,405.14l-47.66-59.64s16.83-20,47.66-20"/><path class="cls-5" d="m736.44,414.73c-1.52-.02-2.94-.76-3.82-2l-31.12-42.89c-1.52-2.11-1.05-5.05,1.05-6.58l42.95-31.09c.8-.59,1.76-.9,2.75-.9,1.52.01,2.94.76,3.82,2l31.1,42.94c1.52,2.11,1.05,5.05-1.06,6.58l-42.91,31.04c-.8.59-1.77.9-2.76.9Z"/><path class="cls-5" d="m772.97,465.17c-1.51,0-2.93-.73-3.82-1.95l-31.1-42.94c-1.52-2.11-1.05-5.05,1.06-6.58l42.94-31.09c.8-.59,1.77-.9,2.76-.9,1.52.02,2.94.76,3.82,2l31.09,42.95c1.52,2.1,1.05,5.04-1.05,6.57l-42.95,31.09c-.8.57-1.77.87-2.75.85Z"/><path class="cls-5" d="m755.86,569.25c-1.51,0-2.93-.72-3.82-1.94l-31.1-42.95c-1.52-2.11-1.04-5.05,1.06-6.57l42.94-31.1c.8-.58,1.77-.89,2.76-.89,1.51,0,2.93.72,3.82,1.94l31.09,43c1.52,2.1,1.05,5.04-1.05,6.57l-42.95,31.1c-.81.56-1.77.86-2.75.84Z"/><path class="cls-7" d="m822.5,510.19c-8.53,0-16.55-4.09-21.56-11-8.62-11.89-5.96-28.5,5.92-37.12,4.53-3.29,9.99-5.06,15.59-5.06,8.53,0,16.54,4.1,21.56,11,8.6,11.91,5.93,28.54-5.98,37.14-4.52,3.27-9.95,5.03-15.53,5.04Z"/><rect class="cls-7" x="678.41" y="398.11" width="43.08" height="88.01" transform="translate(-126.27 494.56) rotate(-35.91)"/><rect class="cls-5" x="553.11" y="332.35" width="37.39" height="37.39" rx="13.35" ry="13.35"/><rect class="cls-5" x="473" y="332.35" width="37.39" height="37.39" rx="13.35" ry="13.35"/><rect class="cls-5" x="484.85" y="820.04" width="40" height="40" rx="14.29" ry="14.29"/><rect class="cls-5" x="566.15" y="819.64" width="40" height="40" rx="14.29" ry="14.29"/><rect class="cls-5" x="710" y="745.64" width="40" height="40" rx="14.29" ry="14.29"/><rect class="cls-7" x="489.02" y="308.31" width="85.45" height="85.45"/><rect class="cls-7" x="821" y="749.64" width="51" height="91"/><rect class="cls-7" x="781" y="839.64" width="91" height="51"/><rect class="cls-7" x="455" y="839.64" width="181" height="51"/><rect class="cls-7" x="821" y="659.64" width="51" height="91"/><rect class="cls-7" x="648" y="699.64" width="81" height="131"/><rect class="cls-7" x="317.92" y="572.64" width="71" height="154.18"/><rect class="cls-7" x="374.5" y="857.64" width="76.5" height="33"/><rect class="cls-7" x="341.5" y="857.64" width="33" height="33"/><rect class="cls-7" x="318" y="439.64" width="42" height="82"/><rect class="cls-7" x="648" y="829.64" width="81" height="61"/><line id="Adult_Wall-2" class="cls-8" x1="611.5" y1="84.32" x2="611.5" y2="308.32"/><rect class="cls-7" x="222.77" y="236.82" width="37.73" height="71.35"/><text class="cls-1" transform="translate(27.06 308.13)"><tspan x="0" y="0">meeting</tspan><tspan class="cls-2" x="27.68" y="48">r</tspan><tspan x="41.44" y="48">oom</tspan></text><text class="cls-1" transform="translate(367.45 198.13)"><tspan x="0" y="0">kids</tspan><tspan class="cls-2" x="-11.72" y="48">r</tspan><tspan x="2.04" y="48">oom</tspan></text><text class="cls-1" transform="translate(624.79 183.13)"><tspan x="0" y="0">adult</tspan><tspan class="cls-2" x="-2.06" y="48">r</tspan><tspan x="11.7" y="48">oom</tspan></text><text class="cls-1" transform="translate(506.83 617.13)"><tspan x="0" y="0">lobby</tspan></text></g></svg>