<svg xmlns="http://www.w3.org/2000/svg" viewBox="0 0 874 892.64"><defs><style>.cls-1{fill:#f8f3d4;}.cls-2{fill:none;}.cls-2,.cls-3,.cls-4,.cls-7{stroke:#000;stroke-miterlimit:10;}.cls-3{fill:#999584;}.cls-4,.cls-6{fill:#00b8a9;}.cls-5,.cls-7{fill:#ffde7d;}</style></defs><g id="Layer_2" data-name="Layer 2"><g id="all"><path class="cls-1" d="M269,818l.27-.31c.17-.21,17.33-20.18,48-20.18h.5v81.59Z"/><path d="M317.34,798v79.67L269.67,818s16.83-20,47.67-20m1-1h-1c-30.95,0-48.26,20.15-48.44,20.35l-.52.63.51.64,47.67,59.67,1.78,2.23V797Z"/><g id="Outer_Wall" data-name="Outer Wall"><polygon class="cls-1" points="316.42 891.14 316.42 415.14 1.5 415.14 1.5 1.5 102.24 1.5 102.24 84.75 872.5 84.75 872.5 891.14 316.42 891.14"/><path d="M100.74,3V86.25H871V889.64H317.92v-476H3V3h97.74m3-3H0V416.64H314.92v476H874V83.25H103.74V0Z"/></g><line id="Kids_Wall" data-name="Kids Wall" class="cls-2" x1="222.34" y1="307.81" x2="871" y2="307.81"/><line id="Adult_Wall" data-name="Adult Wall" class="cls-2" x1="222" y1="86.25" x2="222" y2="413.64"/><rect class="cls-3" x="184.43" y="138.81" width="85.45" height="10.32" transform="translate(83.19 371.14) rotate(-90)"/><rect class="cls-4" x="273.5" y="103.64" width="37" height="37" rx="13.21" transform="translate(414.14 -169.86) rotate(90)"/><rect class="cls-4" x="273.5" y="168.64" width="37" height="37" rx="13.21" transform="translate(479.14 -104.86) rotate(90)"/><rect class="cls-4" x="355.5" y="103.64" width="37" height="37" rx="13.21" transform="translate(496.14 -251.86) rotate(90)"/><rect class="cls-4" x="355.5" y="168.64" width="37" height="37" rx="13.21" transform="translate(561.14 -186.86) rotate(90)"/><rect class="cls-4" x="837.5" y="208.14" width="30" height="30" rx="10.71" transform="translate(1075.64 -629.36) rotate(90)"/><rect class="cls-4" x="837.5" y="241.14" width="30" height="30" rx="10.71" transform="translate(1108.64 -596.36) rotate(90)"/><rect class="cls-4" x="837.5" y="274.14" width="30" height="30" rx="10.71" transform="translate(1141.64 -563.36) rotate(90)"/><rect class="cls-4" x="671.33" y="155.63" width="30" height="30" rx="10.71" transform="translate(80.37 535.28) rotate(-45)"/><rect class="cls-4" x="678.04" y="199.83" width="30" height="30" rx="10.71" transform="translate(51.08 552.98) rotate(-45)"/><rect class="cls-4" x="715.52" y="162.35" width="30" height="30" rx="10.71" transform="translate(1121.67 819.31) rotate(-135)"/><rect class="cls-5" x="292.5" y="89.14" width="81" height="131"/><path d="M373,89.64v130H293v-130h80m1-1H292v132h82v-132Z"/><path class="cls-5" d="M718.5,239.47a7,7,0,0,1-5-2.08l-43-43a7.1,7.1,0,0,1,0-10l29.57-29.58a7.11,7.11,0,0,1,10,0l43,43a7.11,7.11,0,0,1,0,10l-29.58,29.57A7,7,0,0,1,718.5,239.47Z"/><path d="M705.07,153.21a6.53,6.53,0,0,1,4.65,1.93l43,43a6.57,6.57,0,0,1,0,9.31L723.16,237a6.59,6.59,0,0,1-9.32,0l-43-43a6.6,6.6,0,0,1,0-9.32l29.58-29.57a6.54,6.54,0,0,1,4.66-1.93m0-1a7.55,7.55,0,0,0-5.37,2.22L670.13,184a7.57,7.57,0,0,0,0,10.73l43,43a7.57,7.57,0,0,0,10.73,0l29.57-29.57a7.59,7.59,0,0,0,0-10.73l-43-43a7.54,7.54,0,0,0-5.36-2.22Z"/><rect class="cls-5" x="815.5" y="86.14" width="56" height="118"/><path d="M871,86.64v117H816v-117h55m1-1H815v119h57v-119Z"/><path d="M435.09,185.48h3.64v17.4l8.44-9.72h5.08l-10.32,10.92,10.36,11h-5l-8.6-9.67v9.67h-3.64Z"/><path d="M455.09,187.12a2.44,2.44,0,1,1,2.48,2.48A2.44,2.44,0,0,1,455.09,187.12Zm.6,6h3.64v21.91h-3.64Z"/><path d="M474.61,192.8a9.56,9.56,0,0,1,8.12,4.28v-11.6h3.68v29.59h-3.68V211a9,9,0,0,1-8.16,4.47c-5.88,0-10.4-4.59-10.4-11.39S468.69,192.8,474.61,192.8Zm.68,3.16c-4,0-7.4,2.92-7.4,8.08s3.4,8.19,7.4,8.19,7.44-3,7.44-8.15S479.29,196,475.29,196Z"/><path d="M500.33,215.43c-5.12,0-8.72-2.79-9-6.79h3.76c.2,2.12,2.08,3.71,5.16,3.71,2.88,0,4.48-1.43,4.48-3.23,0-4.88-13-2-13-10.2,0-3.36,3.16-6.12,8-6.12s8,2.6,8.28,6.88h-3.64c-.16-2.2-1.84-3.8-4.76-3.8-2.68,0-4.28,1.28-4.28,3,0,5.2,12.72,2.36,12.88,10.2C508.33,212.72,505.17,215.43,500.33,215.43Z"/><path d="M527.77,215.07h-3.64V193.16h3.64v3.56c1.24-2.44,3.6-4,7.08-4v3.76h-1c-3.48,0-6.12,1.56-6.12,6.64Z"/><path d="M548.61,215.43c-6.2,0-10.92-4.39-10.92-11.35s4.88-11.28,11.08-11.28,11.08,4.36,11.08,11.28S554.85,215.43,548.61,215.43Zm0-3.2c3.8,0,7.52-2.59,7.52-8.15s-3.64-8.12-7.4-8.12-7.32,2.6-7.32,8.12S544.81,212.23,548.61,212.23Z"/><path d="M574.21,215.43c-6.2,0-10.92-4.39-10.92-11.35s4.88-11.28,11.08-11.28,11.08,4.36,11.08,11.28S580.45,215.43,574.21,215.43Zm0-3.2c3.8,0,7.52-2.59,7.52-8.15s-3.64-8.12-7.4-8.12-7.32,2.6-7.32,8.12S570.41,212.23,574.21,212.23Z"/><path d="M621.89,202.68c0-4.48-2.4-6.76-6-6.76s-6.2,2.36-6.2,7.08v12.07h-3.6V202.68c0-4.48-2.4-6.76-6-6.76s-6.2,2.36-6.2,7.08v12.07h-3.64V193.16h3.64v3.16a7.92,7.92,0,0,1,6.92-3.56c3.6,0,6.6,1.6,8,4.88a8.11,8.11,0,0,1,7.76-4.88c5,0,8.88,3.12,8.88,9.4v12.91h-3.6Z"/><path class="cls-2" d="M364.67,307.64,424.34,260s20,16.83,20,47.67"/><rect class="cls-4" x="61" y="247.14" width="37" height="37" rx="13.21"/><rect class="cls-4" x="126" y="247.14" width="37" height="37" rx="13.21"/><rect class="cls-4" x="61" y="165.14" width="37" height="37" rx="13.21"/><rect class="cls-4" x="33.5" y="31.14" width="37" height="37" rx="13.21" transform="translate(50.33 -22.23) rotate(45)"/><rect class="cls-4" x="126" y="165.14" width="37" height="37" rx="13.21"/><rect class="cls-3" x="117.52" y="85.81" width="85.45" height="10.32"/><rect class="cls-5" x="46.5" y="184.14" width="131" height="81"/><path d="M177,184.64v80H47v-80H177m1-1H46v82H178v-82Z"/><rect class="cls-5" x="2.5" y="312.14" width="45" height="73"/><path d="M47,312.64v72H3v-72H47m1-1H2v74H48v-74Z"/><path d="M77.13,307.8a9.1,9.1,0,0,1,8.16,4.36v-4H89v21.91H85.29V326a9.17,9.17,0,0,1-8.2,4.43c-5.84,0-10.36-4.59-10.36-11.39S71.25,307.8,77.13,307.8Zm.72,3.16c-4,0-7.4,2.92-7.4,8.08s3.4,8.19,7.4,8.19,7.44-3,7.44-8.15S81.85,311,77.85,311Z"/><path d="M104.21,307.8a9.56,9.56,0,0,1,8.12,4.28v-11.6H116v29.59h-3.68V326a9,9,0,0,1-8.16,4.47c-5.88,0-10.4-4.59-10.4-11.39S98.29,307.8,104.21,307.8Zm.68,3.16c-4,0-7.4,2.92-7.4,8.08s3.4,8.19,7.4,8.19,7.44-3,7.44-8.15S108.89,311,104.89,311Z"/><path d="M141.61,330.07H138v-3.23a8.07,8.07,0,0,1-7,3.55c-5,0-9-3.12-9-9.39V308.16h3.6v12.36c0,4.44,2.44,6.71,6.12,6.71s6.28-2.31,6.28-7v-12h3.64Z"/><path d="M147.77,300.48h3.64v29.59h-3.64Z"/><path d="M158.41,311.16h-2.84v-3h2.84v-5.52h3.64v5.52h5.72v3h-5.72v12.92c0,2.15.8,2.92,3,2.92h2.68v3.07h-3.28c-3.88,0-6.08-1.6-6.08-6Z"/><path d="M71.73,378.07H68.09V356.16h3.64v3.56c1.24-2.44,3.6-4,7.08-4v3.76h-1c-3.48,0-6.12,1.56-6.12,6.64Z"/><path d="M92.57,378.43c-6.2,0-10.92-4.39-10.92-11.35s4.88-11.28,11.08-11.28,11.08,4.36,11.08,11.28S98.81,378.43,92.57,378.43Zm0-3.2c3.8,0,7.52-2.59,7.52-8.15S96.45,359,92.69,359s-7.32,2.6-7.32,8.12S88.77,375.23,92.57,375.23Z"/><path d="M118.17,378.43c-6.2,0-10.92-4.39-10.92-11.35s4.88-11.28,11.08-11.28,11.08,4.36,11.08,11.28S124.41,378.43,118.17,378.43Zm0-3.2c3.8,0,7.52-2.59,7.52-8.15s-3.64-8.12-7.4-8.12-7.32,2.6-7.32,8.12S114.37,375.23,118.17,375.23Z"/><path d="M165.85,365.68c0-4.48-2.4-6.76-6-6.76s-6.2,2.36-6.2,7.08v12.07h-3.6V365.68c0-4.48-2.4-6.76-6-6.76s-6.2,2.36-6.2,7.08v12.07h-3.64V356.16h3.64v3.16a7.92,7.92,0,0,1,6.92-3.56c3.6,0,6.6,1.6,8,4.88a8.11,8.11,0,0,1,7.76-4.88c5,0,8.88,3.12,8.88,9.4v12.91h-3.6Z"/><path class="cls-2" d="M222.13,404.64,174.47,345s16.83-20,47.66-20"/><path class="cls-6" d="M735.94,414.23a4.74,4.74,0,0,1-3.82-2L701,369.34a4.72,4.72,0,0,1,1.05-6.58L745,331.67a4.64,4.64,0,0,1,2.75-.9,4.72,4.72,0,0,1,3.82,2l31.1,42.94a4.72,4.72,0,0,1-1.06,6.58L738.7,413.33A4.65,4.65,0,0,1,735.94,414.23Z"/><path d="M747.78,331.27A4.24,4.24,0,0,1,751.2,333L782.29,376a4.21,4.21,0,0,1-.94,5.87l-42.94,31.1a4.21,4.21,0,0,1-5.88-.94L701.44,369a4.19,4.19,0,0,1,.94-5.87l42.94-31.1a4.2,4.2,0,0,1,2.46-.8m0-1h0a5.24,5.24,0,0,0-3,1l-42.94,31.1a5.19,5.19,0,0,0-1.16,7.27l31.09,42.94a5.23,5.23,0,0,0,4.22,2.16,5.15,5.15,0,0,0,3-1l43-31.1a5.22,5.22,0,0,0,1.16-7.27L752,332.43a5.24,5.24,0,0,0-4.23-2.16Z"/><path class="cls-6" d="M772.47,464.67a4.72,4.72,0,0,1-3.82-1.95l-31.1-42.94a4.72,4.72,0,0,1,1.06-6.58l42.94-31.09a4.65,4.65,0,0,1,2.76-.9,4.75,4.75,0,0,1,3.82,2l31.09,42.95a4.71,4.71,0,0,1-1.05,6.57l-42.95,31.09A4.64,4.64,0,0,1,772.47,464.67Z"/><path d="M784.31,381.71a4.2,4.2,0,0,1,3.41,1.75l31.09,42.94a4.2,4.2,0,0,1-.94,5.88l-42.94,31.09a4.21,4.21,0,0,1-5.88-.94L738,419.49a4.22,4.22,0,0,1,.94-5.88l42.94-31.1a4.2,4.2,0,0,1,2.47-.8m0-1h0a5.21,5.21,0,0,0-3,1l-43,31.1a5.22,5.22,0,0,0-1.16,7.27L768.24,463a5.26,5.26,0,0,0,4.23,2.15,5.17,5.17,0,0,0,3-1l42.94-31.09a5.21,5.21,0,0,0,1.16-7.28l-31.09-42.94a5.24,5.24,0,0,0-4.22-2.16Z"/><path class="cls-6" d="M755.36,568.75a4.74,4.74,0,0,1-3.82-1.94l-31.1-42.95a4.71,4.71,0,0,1,1.06-6.57l42.94-31.1a4.71,4.71,0,0,1,2.76-.89,4.76,4.76,0,0,1,3.82,1.94l31.09,43a4.71,4.71,0,0,1-1.05,6.57l-42.95,31.1A4.68,4.68,0,0,1,755.36,568.75Z"/><path d="M767.2,485.8a4.19,4.19,0,0,1,3.41,1.74l31.1,42.94a4.21,4.21,0,0,1-1,5.88l-42.94,31.09a4.21,4.21,0,0,1-5.88-.94l-31.09-42.94a4.22,4.22,0,0,1,.94-5.88l42.94-31.09a4.2,4.2,0,0,1,2.47-.8m0-1h0a5.15,5.15,0,0,0-3.05,1L721.2,516.88a5.23,5.23,0,0,0-1.16,7.28l31.09,42.94a5.23,5.23,0,0,0,4.23,2.15,5.17,5.17,0,0,0,3-1l42.94-31.09a5.21,5.21,0,0,0,1.17-7.27L771.42,487a5.22,5.22,0,0,0-4.22-2.15Z"/><path class="cls-5" d="M822,509.69a26.66,26.66,0,0,1-21.56-11,26.58,26.58,0,0,1,21.51-42.18,26.69,26.69,0,0,1,21.56,11A26.6,26.6,0,0,1,822,509.69Z"/><path d="M821.92,457a26.09,26.09,0,1,1-15.28,5,26.07,26.07,0,0,1,15.28-5m0-1h0A27.09,27.09,0,0,0,800,499a27.18,27.18,0,0,0,22,11.21,27.1,27.1,0,0,0,21.92-43,27.2,27.2,0,0,0-22-11.2Z"/><rect class="cls-5" x="677.92" y="397.64" width="43.08" height="88.01" transform="translate(-126.1 494.15) rotate(-35.91)"/><path d="M691,394.07l51,70.48-34.08,24.68-51-70.48L691,394.07m.23-1.39-.81.58-34.08,24.68-.81.59.58.81,51,70.47.59.81.81-.58,34.08-24.68.81-.59-.59-.81-51-70.47-.58-.81Z"/><rect class="cls-4" x="552.61" y="331.85" width="37.39" height="37.39" rx="13.35"/><rect class="cls-4" x="472.5" y="331.85" width="37.39" height="37.39" rx="13.35"/><rect class="cls-4" x="484.35" y="819.54" width="40" height="40" rx="14.29"/><rect class="cls-4" x="565.65" y="819.14" width="40" height="40" rx="14.29"/><rect class="cls-4" x="709.5" y="745.14" width="40" height="40" rx="14.29"/><rect class="cls-7" x="488.52" y="307.81" width="85.45" height="85.45"/><rect class="cls-5" x="820.5" y="749.14" width="51" height="91"/><path d="M871,749.64v90H821v-90h50m1-1H820v92h52v-92Z"/><rect class="cls-5" x="780.5" y="839.14" width="91" height="51"/><path d="M871,839.64v50H781v-50h90m1-1H780v52h92v-52Z"/><rect class="cls-5" x="454.5" y="839.14" width="181" height="51"/><path d="M635,839.64v50H455v-50H635m1-1H454v52H636v-52Z"/><rect class="cls-5" x="820.5" y="659.14" width="51" height="91"/><path d="M871,659.64v90H821v-90h50m1-1H820v92h52v-92Z"/><rect class="cls-5" x="647.5" y="699.14" width="81" height="131"/><path d="M728,699.64v130H648v-130h80m1-1H647v132h82v-132Z"/><rect class="cls-5" x="317.42" y="572.14" width="71" height="101"/><path d="M387.92,572.64v100h-70v-100h70m1-1h-72v102h72v-102Z"/><rect class="cls-5" x="390.5" y="857.14" width="33" height="33"/><path d="M423,857.64v32H391v-32h32m1-1H390v34h34v-34Z"/><rect class="cls-5" x="317.5" y="439.14" width="42" height="82"/><path d="M359,439.64v81H318v-81h41m1-1H317v83h43v-83Z"/><rect class="cls-5" x="647.5" y="829.14" width="81" height="61"/><path d="M728,829.64v60H648v-60h80m1-1H647v62h82v-62Z"/><path d="M503.09,587.48h3.64v29.59h-3.64Z"/><path d="M522.49,617.43c-6.2,0-10.92-4.39-10.92-11.35s4.88-11.28,11.08-11.28,11.08,4.36,11.08,11.28S528.73,617.43,522.49,617.43Zm0-3.2c3.8,0,7.52-2.59,7.52-8.15s-3.64-8.12-7.4-8.12-7.32,2.6-7.32,8.12S518.69,614.23,522.49,614.23Z"/><path d="M550.37,594.8c5.92,0,10.4,4.4,10.4,11.24s-4.52,11.39-10.4,11.39a9.16,9.16,0,0,1-8.2-4.39v4h-3.64V587.48h3.64v11.76A9.29,9.29,0,0,1,550.37,594.8Zm-.76,3.16c-4,0-7.44,3-7.44,8.12s3.48,8.15,7.44,8.15,7.44-3,7.44-8.19S553.65,598,549.61,598Z"/><path d="M577.41,594.8c5.92,0,10.4,4.4,10.4,11.24s-4.52,11.39-10.4,11.39a9.16,9.16,0,0,1-8.2-4.39v4h-3.64V587.48h3.64v11.76A9.29,9.29,0,0,1,577.41,594.8Zm-.76,3.16c-4,0-7.44,3-7.44,8.12s3.48,8.15,7.44,8.15,7.44-3,7.44-8.19S580.69,598,576.65,598Z"/><path d="M607.73,595.16h3.76l-13.2,32.23h-3.76l4.32-10.56L590,595.16h4l6.88,17.76Z"/></g></g></svg>