<svg xmlns="http://www.w3.org/2000/svg" viewBox="0 0 430.93 403.89"><defs><style>.cls-1{fill:#aee0ec;}.cls-1,.cls-2,.cls-3,.cls-4,.cls-5,.cls-6{stroke:#fff;stroke-miterlimit:10;}.cls-1,.cls-2,.cls-3,.cls-4,.cls-6{stroke-width:10px;}.cls-2{fill:#d8eff6;}.cls-3{fill:#997065;}.cls-4,.cls-5,.cls-6{fill:none;}.cls-4{stroke-linecap:round;}.cls-5{stroke-width:5px;}</style></defs><g id="Layer_2" data-name="Layer 2"><g id="Coffee_-_Adult" data-name="Coffee - Adult"><ellipse class="cls-1" cx="198.3" cy="356.13" rx="193.3" ry="42.76"/><path class="cls-2" d="M413.66,204.58c-19.2-20.43-54.1-18.83-77.93,3.58s-27.59,57.14-8.39,77.57,54.1,18.82,77.93-3.59S432.87,225,413.66,204.58Zm-23,62c-13.8,13-34,13.9-45.12,2.07s-8.94-31.93,4.86-44.9,34-13.91,45.12-2.08S404.43,253.59,390.63,266.57Z"/><path class="cls-2" d="M25.71,167.36S34.85,369.7,198.3,369.7,370.88,167.36,370.88,167.36"/><ellipse class="cls-3" cx="198.3" cy="167.63" rx="172.58" ry="36.04"/><path class="cls-4" d="M130.15,170.14c19-16.54,17.54-40.26,0-55-16.54-13.94-16.81-38.43,0-55,16.34-16.14,15.56-43.14,0-55"/><path class="cls-4" d="M197.69,170.14c19.05-16.54,17.54-40.26,0-55-16.54-13.94-16.81-38.43,0-55,16.33-16.14,15.55-43.14,0-55"/><path class="cls-4" d="M265.23,170.14c19-16.54,17.54-40.26,0-55-16.54-13.94-16.82-38.43,0-55,16.33-16.14,15.55-43.14,0-55"/><path class="cls-5" d="M36.15,228.91s57.61,24.94,165.34,24.94,159.24-24.94,159.24-24.94"/><path class="cls-5" d="M36.15,218.88s57.61,24.94,165.34,24.94,159.24-24.94,159.24-24.94"/><path class="cls-6" d="M25.71,167.36S34.85,369.7,198.3,369.7,370.88,167.36,370.88,167.36"/></g></g></svg>