<?xml version="1.0" encoding="utf-8"?>
<!-- Generator: Adobe Illustrator 25.4.1, SVG Export Plug-In . SVG Version: 6.00 Build 0)  -->
<svg version="1.1" id="Layer_1" xmlns="http://www.w3.org/2000/svg" xmlns:xlink="http://www.w3.org/1999/xlink" x="0px" y="0px"
	 viewBox="0 0 430.9 403.9" style="enable-background:new 0 0 430.9 403.9;" xml:space="preserve">
<style type="text/css">
	.st0{opacity:0.3;}
	.st1{fill:#AEE0EC;stroke:#FFFFFF;stroke-width:10;stroke-miterlimit:10;}
	.st2{fill:#D8EFF6;stroke:#FFFFFF;stroke-width:10;stroke-miterlimit:10;}
	.st3{fill:#997065;stroke:#FFFFFF;stroke-width:10;stroke-miterlimit:10;}
	.st4{fill:none;stroke:#FFFFFF;stroke-width:10;stroke-linecap:round;stroke-miterlimit:10;}
	.st5{fill:none;stroke:#FFFFFF;stroke-width:5;stroke-miterlimit:10;}
	.st6{fill:none;stroke:#FFFFFF;stroke-width:10;stroke-miterlimit:10;}
</style>
<g id="Layer_2_00000042017701150820209920000003279862114260818817_" class="st0">
	<g id="Coffee_-_Adult">
		<ellipse class="st1" cx="198.3" cy="356.1" rx="193.3" ry="42.8"/>
		<path class="st2" d="M413.7,204.6c-19.2-20.4-54.1-18.8-77.9,3.6s-27.6,57.1-8.4,77.6s54.1,18.8,77.9-3.6S432.9,225,413.7,204.6z
			 M390.7,266.6c-13.8,13-34,13.9-45.1,2.1s-8.9-31.9,4.9-44.9s34-13.9,45.1-2.1S404.4,253.6,390.7,266.6L390.7,266.6z"/>
		<path class="st2" d="M25.7,167.4c0,0,9.1,202.3,172.6,202.3s172.6-202.3,172.6-202.3"/>
		<ellipse class="st3" cx="198.3" cy="167.6" rx="172.6" ry="36"/>
		<path class="st4" d="M130.1,170.1c19-16.5,17.5-40.3,0-55c-16.5-13.9-16.8-38.4,0-55c16.3-16.1,15.6-43.1,0-55"/>
		<path class="st4" d="M197.7,170.1c19.1-16.5,17.5-40.3,0-55c-16.5-13.9-16.8-38.4,0-55c16.3-16.1,15.6-43.1,0-55"/>
		<path class="st4" d="M265.2,170.1c19-16.5,17.5-40.3,0-55c-16.5-13.9-16.8-38.4,0-55c16.3-16.1,15.5-43.1,0-55"/>
		<path class="st5" d="M36.2,228.9c0,0,57.6,24.9,165.3,24.9s159.2-24.9,159.2-24.9"/>
		<path class="st5" d="M36.2,218.9c0,0,57.6,24.9,165.3,24.9s159.2-24.9,159.2-24.9"/>
		<path class="st6" d="M25.7,167.4c0,0,9.1,202.3,172.6,202.3s172.6-202.3,172.6-202.3"/>
	</g>
</g>
</svg>
