<?xml version="1.0" encoding="utf-8"?>
<!-- Generator: Adobe Illustrator 25.4.1, SVG Export Plug-In . SVG Version: 6.00 Build 0)  -->
<svg version="1.1" id="Layer_1" xmlns="http://www.w3.org/2000/svg" xmlns:xlink="http://www.w3.org/1999/xlink" x="0px" y="0px"
	 viewBox="0 0 446.8 412.5" style="enable-background:new 0 0 446.8 412.5;" xml:space="preserve">
<style type="text/css">
	.st0{opacity:0.15;}
	.st1{fill:#FFFFFF;}
	.st2{fill:#FECB6F;}
	.st3{fill:#E2B164;}
	.st4{fill:#81B5E2;}
	.st5{fill:#72A2C5;}
	.st6{fill:#F37575;}
	.st7{fill:#D86A6A;}
</style>
<g id="Layer_2_00000016037576464787771960000009810759765887910311_" class="st0">
	<g id="Blocks_-_Preschool">
		<polygon class="st1" points="234.2,178.4 50.5,178.4 0,228.8 0,228.8 0,412.5 183.7,412.5 183.7,412.5 234.2,362.1 		"/>
		<rect x="3.9" y="232.7" class="st2" width="175.9" height="175.9"/>
		<path class="st1" d="M175.9,236.6v168.1H7.8V236.6H175.9 M183.7,228.8H0v183.7h183.7V228.8z"/>
		<path class="st1" d="M43.1,254.4h43.8c18.1,0,31.5,2.5,40.2,7.6c8.7,5.1,13,12.8,13,23c0,15.7-9.4,27-28.2,34
			c23.1,3.5,34.6,14,34.6,31.5c0,11.6-4.7,20.8-14,27.8c-9.3,7-25.7,10.5-49.1,10.5L39.9,389c-0.8-2-1.2-4.1-1.3-6.3
			c-0.1-1.1,0.3-2.1,1-2.9c1-0.7,2.2-1.1,3.4-0.9h7.3c0.5-9.2,0.7-29,0.7-59.5c0-27.4-0.2-45.7-0.7-54.8H39.9
			c-0.8-2-1.2-4.1-1.3-6.2c-0.1-1.1,0.3-2.2,1-3C40.6,254.6,41.8,254.3,43.1,254.4z M72.9,312.5c4.2,0.5,8.5,0.8,12.7,0.8
			c10.8,0,18.5-1.9,23.3-5.7c4.7-3.8,7.1-9.3,7.1-16.5c0-7.6-2.3-13.2-7-16.8s-12-5.4-22-5.4c-4.5,0-9,0.3-13.5,1
			C73.2,278.2,73,292.4,72.9,312.5z M72.9,326.7v23.5c0,11.6,0.8,18.5,2.5,20.9s7.8,3.5,18.3,3.5c10.3,0,17.6-1.8,22-5.4
			c4.4-3.6,6.6-9.3,6.7-17c0-8.5-2.8-15.1-8.5-19.7c-5.6-4.6-14.3-6.9-25.8-6.9C83,325.6,78,326,72.9,326.7z"/>
		<polygon class="st3" points="9.4,224.9 52.1,182.3 224.7,182.3 182.1,224.9 		"/>
		<path class="st1" d="M215.3,186.2L180.5,221H18.8l34.8-34.9L215.3,186.2 M234.2,178.3H50.5L0,228.8h183.7L234.2,178.3L234.2,178.3
			z"/>
		<polygon class="st3" points="187.6,230.4 230.3,187.8 230.3,360.4 187.6,403.1 		"/>
		<path class="st1" d="M226.4,197.2v161.6l-34.8,34.8V232.1L226.4,197.2 M234.2,178.4l-50.5,50.4v183.7l50.5-50.5L234.2,178.4
			L234.2,178.4z"/>
		<polygon class="st1" points="446.8,178.4 263.1,178.4 212.6,228.8 212.6,228.8 212.6,412.5 396.3,412.5 396.3,412.5 446.8,362.1 
					"/>
		<rect x="216.5" y="232.7" class="st4" width="175.9" height="175.9"/>
		<path class="st1" d="M388.5,236.6v168.1H220.4V236.6H388.5 M396.3,228.8H212.6v183.7h183.7V228.8z"/>
		<path class="st1" d="M318.2,376.5c11.2,0.2,22.2-3,31.5-9.1c3.5,3.6,5.2,7.4,5.2,11.3c0,3.7-4.2,6.6-12.7,8.8s-18.7,3.3-30.5,3.3
			c-19,0-33-4.5-42-13.4s-13.5-25.2-13.5-48.7c0-26.2,5.3-45.5,15.9-57.9s26.1-18.5,46.7-18.5c11.4,0,20.1,0.9,25.9,2.8
			c5.9,1.8,8.8,5,8.8,9.4c0,3.6-1.8,7.2-5.4,10.7c-11.8-5.6-23.2-8.5-34-8.5c-11.2,0-19.6,4-25.2,12.1c-5.7,8-8.5,21.7-8.5,40.9
			c0,21.2,3,36,8.9,44.3C295.2,372.4,304.8,376.5,318.2,376.5z"/>
		<polygon class="st5" points="222,224.9 264.7,182.3 437.4,182.3 394.7,224.9 		"/>
		<path class="st1" d="M427.9,186.2L393.1,221H231.4l34.8-34.9L427.9,186.2 M446.8,178.3H263.1l-50.5,50.4h183.7L446.8,178.3z"/>
		<polygon class="st5" points="400.2,230.4 442.9,187.8 442.9,360.4 400.2,403.1 		"/>
		<path class="st1" d="M439,197.2v161.6l-34.9,34.8V232.1L439,197.2 M446.8,178.4l-50.5,50.4v183.7l50.5-50.5V178.4z"/>
		<polygon class="st1" points="341.4,0 157.7,0 107.2,50.5 107.2,50.5 107.2,234.2 290.9,234.2 290.9,234.2 341.4,183.7 		"/>
		<rect x="111.1" y="54.4" class="st6" width="175.9" height="175.9"/>
		<path class="st1" d="M283.1,58.3v168.1H115V58.3H283.1 M290.9,50.5H107.2v183.7h183.7L290.9,50.5L290.9,50.5z"/>
		<path class="st1" d="M197,74.6c7.4,0,11.6,0.3,12.6,0.8s7.6,18.9,19.9,55.1c12.3,36.2,20.6,59.5,24.9,69.9h8.7
			c0.8,1.8,1.2,3.7,1.2,5.7c0.5,2-0.8,4-2.7,4.4c-0.6,0.1-1.1,0.1-1.7,0H219c-0.8-2-1.2-4.1-1.3-6.2c-0.1-1.1,0.3-2.2,1-3
			c1-0.7,2.2-1,3.4-0.9h5.3c-1.2-5.8-4.4-17.1-9.5-33.7h-44.4c-4.6,16.5-7.4,27.7-8.3,33.7h9.2c0.8,1.8,1.2,3.7,1.2,5.7
			c0.5,2-0.8,4-2.8,4.4c-0.5,0.1-1.1,0.1-1.7,0h-36.3c-0.7-2-1.1-4.1-1.2-6.2c-0.1-1.1,0.3-2.2,1-3c1-0.7,2.2-1,3.4-0.9h5.7
			c4.3-12,11.5-33.6,21.6-64.8c10.1-31.2,16.3-49.2,18.6-54C186.4,76.9,190.8,74.6,197,74.6z M177,154h37.1c-12-38-18.4-57-19.3-57
			S188,116,177,154z"/>
		<polygon class="st7" points="116.6,46.6 159.3,3.9 332,3.9 289.3,46.6 		"/>
		<path class="st1" d="M322.5,7.8l-34.9,34.8H126.1l34.8-34.8H322.5 M341.4,0H157.7l-50.5,50.5h183.7L341.4,0z"/>
		<polygon class="st7" points="294.8,52.1 337.5,9.4 337.5,182.1 294.8,224.7 		"/>
		<path class="st1" d="M333.6,18.8v161.6l-34.9,34.9V53.7L333.6,18.8 M341.4,0l-50.5,50.5v183.7l50.5-50.5V0z"/>
	</g>
</g>
</svg>
