<svg xmlns="http://www.w3.org/2000/svg" viewBox="0 0 446.77 412.52"><defs><style>.cls-1{fill:#fff;}.cls-2{fill:#fecb6f;}.cls-3{fill:#e2b164;}.cls-4{fill:#81b5e2;}.cls-5{fill:#72a2c5;}.cls-6{fill:#f37575;}.cls-7{fill:#d86a6a;}</style></defs><g id="Layer_2" data-name="Layer 2"><g id="Blocks_-_Preschool" data-name="Blocks - Preschool"><polygon class="cls-1" points="234.16 178.36 50.46 178.36 0 228.81 0 228.81 0 412.52 183.7 412.52 183.7 412.52 234.16 362.06 234.16 178.36"/><rect class="cls-2" x="3.9" y="232.72" width="175.9" height="175.9"/><path class="cls-1" d="M175.9,236.62V404.71H7.81V236.62H175.9m7.8-7.81H0V412.52H183.7V228.81Z"/><path class="cls-1" d="M43.07,254.42H86.92q27.21,0,40.21,7.64t13,23q0,23.55-28.18,34,34.59,5.22,34.59,31.54,0,17.34-14,27.84T83.47,388.94l-43.56.1a17.74,17.74,0,0,1-1.28-6.3,3.73,3.73,0,0,1,1-2.91,5,5,0,0,1,3.4-.94h7.29q.69-13.8.69-59.52,0-41.1-.69-54.8H39.91a17.54,17.54,0,0,1-1.28-6.21,3.85,3.85,0,0,1,1-3A5,5,0,0,1,43.07,254.42Zm29.86,58.05a94.44,94.44,0,0,0,12.71.79q16.17,0,23.26-5.72T116,291q0-11.43-7-16.8t-22-5.37a89.68,89.68,0,0,0-13.5,1Q73,282.42,72.93,312.47Zm0,14.19v23.45q0,17.36,2.51,20.9t18.28,3.55q15.38,0,22-5.38t6.65-17q0-12.81-8.47-19.66t-25.82-6.85A107.3,107.3,0,0,0,72.93,326.66Z"/><polygon class="cls-3" points="9.42 224.91 52.08 182.26 224.74 182.26 182.09 224.91 9.42 224.91"/><path class="cls-1" d="M215.32,186.16,180.47,221H18.84l34.85-34.85H215.32m18.84-7.8H50.46L0,228.81H183.7l50.46-50.45Z"/><polygon class="cls-3" points="187.6 230.43 230.26 187.78 230.26 360.44 187.6 403.1 187.6 230.43"/><path class="cls-1" d="M226.36,197.2V358.83l-34.85,34.84V232.05l34.85-34.85m7.8-18.84L183.7,228.81V412.52l50.46-50.46V178.36Z"/><polygon class="cls-1" points="446.77 178.36 263.07 178.36 212.61 228.81 212.61 228.81 212.61 412.52 396.31 412.52 396.31 412.52 446.77 362.06 446.77 178.36"/><rect class="cls-4" x="216.51" y="232.72" width="175.9" height="175.9"/><path class="cls-1" d="M388.51,236.62V404.71H220.42V236.62H388.51m7.8-7.81H212.61V412.52h183.7V228.81Z"/><path class="cls-1" d="M318.16,376.53a56.72,56.72,0,0,0,31.54-9.07q5.22,5.42,5.22,11.33,0,5.52-12.71,8.82t-30.55,3.31q-28.49,0-42-13.41t-13.5-48.68q0-39.33,15.87-57.85t46.71-18.53q17.14,0,25.92,2.76t8.77,9.36c0,3.61-1.8,7.2-5.42,10.74q-17.73-8.47-34-8.47-16.75,0-25.23,12.07t-8.47,40.85q0,31.83,8.92,44.3T318.16,376.53Z"/><polygon class="cls-5" points="222.03 224.91 264.69 182.26 437.35 182.26 394.7 224.91 222.03 224.91"/><path class="cls-1" d="M427.93,186.16,393.08,221H231.45l34.85-34.85H427.93m18.84-7.8H263.07l-50.46,50.45h183.7l50.46-50.45Z"/><polygon class="cls-5" points="400.22 230.43 442.87 187.78 442.87 360.44 400.22 403.1 400.22 230.43"/><path class="cls-1" d="M439,197.2V358.83l-34.85,34.84V232.05L439,197.2m7.8-18.84-50.46,50.45V412.52l50.46-50.46V178.36Z"/><polygon class="cls-1" points="341.37 0 157.67 0 107.21 50.46 107.21 50.46 107.21 234.16 290.92 234.16 290.92 234.16 341.37 183.7 341.37 0"/><rect class="cls-6" x="111.12" y="54.36" width="175.9" height="175.9"/><path class="cls-1" d="M283.11,58.26v168.1H115V58.26H283.11m7.8-7.8H107.21v183.7h183.7V50.46Z"/><path class="cls-1" d="M197,74.59q11.14,0,12.62.83t19.91,55.09q18.42,54.26,24.93,69.93h8.67a15.28,15.28,0,0,1,1.18,5.71,3.69,3.69,0,0,1-4.43,4.44H219a17.54,17.54,0,0,1-1.28-6.21,3.89,3.89,0,0,1,1-3,5,5,0,0,1,3.4-.93h5.33q-1.87-8.77-9.46-33.71H173.54q-6.9,24.74-8.28,33.71h9.17a15.48,15.48,0,0,1,1.18,5.71,3.7,3.7,0,0,1-4.44,4.44H134.91a18.7,18.7,0,0,1-1.19-6.21,3.89,3.89,0,0,1,1-3,5,5,0,0,1,3.4-.93h5.71q6.51-17.94,21.59-64.8t18.62-54Q187.64,74.59,197,74.59ZM177,154h37.15Q196.2,97,194.87,97T177,154Z"/><polygon class="cls-7" points="116.63 46.56 159.29 3.9 331.95 3.9 289.3 46.56 116.63 46.56"/><path class="cls-1" d="M322.53,7.81,287.68,42.65H126.06L160.9,7.81H322.53M341.37,0H157.67L107.21,50.46h183.7L341.37,0Z"/><polygon class="cls-7" points="294.82 52.08 337.47 9.42 337.47 182.09 294.82 224.74 294.82 52.08"/><path class="cls-1" d="M333.57,18.84V180.47l-34.85,34.85V53.69l34.85-34.85M341.37,0,290.91,50.46v183.7l50.46-50.46V0Z"/></g></g></svg>