<svg xmlns="http://www.w3.org/2000/svg" viewBox="0 0 334.74 356.99"><defs><style>.cls-1{fill:#81b5e2;stroke-width:7px;}.cls-1,.cls-2,.cls-3,.cls-6,.cls-9{stroke:#fff;stroke-miterlimit:10;}.cls-2,.cls-9{fill:none;}.cls-2{stroke-width:4.34px;}.cls-3,.cls-6{fill:#37bba1;}.cls-3,.cls-6,.cls-9{stroke-linecap:round;}.cls-3{stroke-width:5.08px;}.cls-4{fill:#377fc2;}.cls-5{fill:#fff;}.cls-6{stroke-width:4.03px;}.cls-7{fill:#e17055;}.cls-8{fill:#636e74;}.cls-9{stroke-width:1.61px;}</style></defs><g id="Layer_2" data-name="Layer 2"><g id="Paper_-_Test_Prep" data-name="Paper - Test Prep"><rect class="cls-1" x="15.07" y="11.21" width="233.52" height="334.57" rx="6.16" transform="translate(-12.79 10.2) rotate(-4.23)"/><rect class="cls-2" x="35.93" y="53.16" width="32.91" height="32.91" transform="translate(-4.99 4.05) rotate(-4.23)"/><rect class="cls-2" x="40.15" y="110.22" width="32.91" height="32.91" transform="translate(-9.18 4.52) rotate(-4.23)"/><rect class="cls-2" x="44.37" y="167.29" width="32.91" height="32.91" transform="translate(-13.37 4.98) rotate(-4.23)"/><rect class="cls-2" x="48.58" y="224.36" width="32.91" height="32.91" transform="translate(-17.57 5.45) rotate(-4.23)"/><rect class="cls-2" x="52.8" y="281.42" width="32.91" height="32.91" transform="translate(-21.76 5.91) rotate(-4.23)"/><line class="cls-3" x1="92.71" y1="57.72" x2="210.01" y2="49.05"/><line class="cls-3" x1="94.02" y1="75.44" x2="211.31" y2="66.78"/><line class="cls-3" x1="95.23" y1="114.91" x2="212.53" y2="106.25"/><line class="cls-3" x1="96.54" y1="132.63" x2="213.84" y2="123.97"/><line class="cls-3" x1="99.45" y1="171.98" x2="216.75" y2="163.31"/><line class="cls-3" x1="100.76" y1="189.7" x2="218.06" y2="181.03"/><line class="cls-3" x1="104.51" y1="228.98" x2="221.81" y2="220.32"/><line class="cls-3" x1="105.82" y1="246.71" x2="223.12" y2="238.04"/><line class="cls-3" x1="105.35" y1="286.3" x2="222.65" y2="277.63"/><line class="cls-3" x1="106.66" y1="304.02" x2="223.96" y2="295.36"/><polygon class="cls-4" points="289.7 273.59 315.95 51.8 331.97 53.7 305.72 275.48 294.86 298.56 289.7 273.59"/><path class="cls-5" d="M317.72,54l12,1.42-26,219.46-8.14,17.31-3.87-18.73L317.72,54m-3.53-4.48L287.66,273.67l6.45,31.23L307.68,276,334.21,51.93l-20-2.37Z"/><path class="cls-6" d="M290.8,271.18c2.49,2.41,10.29,3,13.86,1.95"/><path class="cls-7" d="M328.73,53.14l-.32,0-8.86-1a2.7,2.7,0,0,1-2.35-3l1.39-11.78a2.69,2.69,0,0,1,2.68-2.37h.31L330.44,36a2.69,2.69,0,0,1,2.35,3L331.4,50.76A2.69,2.69,0,0,1,328.73,53.14Z"/><path class="cls-5" d="M321.27,36.85h.09l8.85,1a.78.78,0,0,1,.67.86l-1.39,11.78a.79.79,0,0,1-.76.68h-.09l-8.86-1.05a.78.78,0,0,1-.67-.85l1.39-11.78a.79.79,0,0,1,.77-.68m0-3.85a4.64,4.64,0,0,0-4.59,4.08l-1.39,11.77a4.63,4.63,0,0,0,4,5.13L328.18,55l.55,0A4.63,4.63,0,0,0,333.31,51l1.39-11.78a4.63,4.63,0,0,0-4-5.13l-8.85-1a5,5,0,0,0-.54,0Z"/><path class="cls-8" d="M329.74,59.17l-.27,0-12.36-1.46a2.27,2.27,0,0,1-2-2.5l.66-5.52a2.24,2.24,0,0,1,2.23-2,1.23,1.23,0,0,1,.27,0l12.35,1.46a2.26,2.26,0,0,1,2,2.5L332,57.18A2.25,2.25,0,0,1,329.74,59.17Z"/><path class="cls-5" d="M318,49.29h.08l12.35,1.47a.65.65,0,0,1,.57.71L330.37,57a.65.65,0,0,1-.64.57h-.07L317.3,56.09a.58.58,0,0,1-.42-.24.6.6,0,0,1-.14-.47l.65-5.52a.66.66,0,0,1,.64-.57m0-3.22a3.87,3.87,0,0,0-3.83,3.41L313.54,55a3.88,3.88,0,0,0,3.38,4.29l12.36,1.46.45,0a3.87,3.87,0,0,0,3.84-3.41l.65-5.52a3.87,3.87,0,0,0-3.38-4.29L318.49,46.1l-.46,0Z"/><line class="cls-9" x1="322.58" y1="64.43" x2="298.74" y2="265.82"/><ellipse class="cls-5" cx="296.04" cy="290.06" rx="2.45" ry="3.96" transform="translate(-39.43 533.44) rotate(-80.38)"/><path class="cls-5" d="M37.58,122.16a19.73,19.73,0,0,1,11.68,1.43,27.63,27.63,0,0,1,5.28,3,29.48,29.48,0,0,1,2.38,1.93c.39.34.76.69,1.13,1.06s.7.72,1.11,1.22l-4.73,1.3A92.45,92.45,0,0,1,56.64,118a99.64,99.64,0,0,1,4.18-13.59,78.87,78.87,0,0,1,6.32-12.76,52.8,52.8,0,0,1,8.92-11c-1,2.13-2,4.21-3,6.33-.47,1-.93,2.1-1.36,3.17s-.87,2.12-1.28,3.18c-1.67,4.26-3.13,8.56-4.44,12.91s-2.51,8.73-3.56,13.15-2,8.92-2.77,13.29l-.05.32a2.56,2.56,0,0,1-4.68,1,24.78,24.78,0,0,0-1.53-2c-.57-.67-1.17-1.31-1.79-1.93a31.71,31.71,0,0,0-4-3.45,25.7,25.7,0,0,0-4.66-2.72A26.31,26.31,0,0,0,37.58,122.16Z"/><path class="cls-5" d="M35.34,62.38A19.84,19.84,0,0,1,46.55,66a28.11,28.11,0,0,1,4.62,4c.69.75,1.34,1.53,2,2.34q.48.61.9,1.26c.3.45.56.84.87,1.4l-4.9.39a93.57,93.57,0,0,1,4.83-13.43,98,98,0,0,1,6.67-12.56A78.93,78.93,0,0,1,70.12,38,52.53,52.53,0,0,1,81,28.86c-1.41,1.9-2.8,3.75-4.12,5.65-.66.94-1.31,1.89-1.92,2.86S73.65,39.29,73,40.25c-2.43,3.87-4.68,7.82-6.79,11.84s-4.11,8.1-6,12.25-3.68,8.38-5.22,12.53l-.11.3a2.56,2.56,0,0,1-3.3,1.51,2.53,2.53,0,0,1-1.48-1.42A24.85,24.85,0,0,0,49,75c-.43-.76-.9-1.51-1.39-2.24a32.72,32.72,0,0,0-3.32-4.14,25.66,25.66,0,0,0-4.07-3.55A26.17,26.17,0,0,0,35.34,62.38Z"/><path class="cls-5" d="M42.76,177.6a19.75,19.75,0,0,1,11.59,2.05,27.05,27.05,0,0,1,5.12,3.29c.79.64,1.54,1.33,2.27,2.05.37.36.73.73,1.07,1.12s.66.75,1,1.27l-4.8,1.06a94.64,94.64,0,0,1,2.95-14,99.2,99.2,0,0,1,4.89-13.35,78.33,78.33,0,0,1,7-12.41,52.71,52.71,0,0,1,9.49-10.55c-1.14,2.07-2.27,4.1-3.31,6.16-.53,1-1,2.06-1.52,3.1s-1,2.07-1.45,3.11c-1.89,4.16-3.58,8.38-5.12,12.66s-3,8.58-4.24,12.94-2.5,8.81-3.46,13.13l-.07.31a2.57,2.57,0,0,1-4.72.74,22.75,22.75,0,0,0-1.43-2c-.53-.7-1.1-1.37-1.69-2a31.06,31.06,0,0,0-3.85-3.66,26,26,0,0,0-4.51-3A26.76,26.76,0,0,0,42.76,177.6Z"/><path class="cls-5" d="M50.66,231.66A19.78,19.78,0,0,1,61.94,235a27.59,27.59,0,0,1,4.7,3.86,29.62,29.62,0,0,1,2,2.29c.32.4.63.81.93,1.24s.57.83.89,1.39l-4.88.49a93,93,0,0,1,4.54-13.53,97.33,97.33,0,0,1,6.39-12.7,78.2,78.2,0,0,1,8.37-11.52,52.79,52.79,0,0,1,10.64-9.39c-1.37,1.93-2.72,3.82-4,5.74-.64,1-1.27,1.92-1.87,2.9s-1.21,1.95-1.8,2.93c-2.35,3.91-4.51,7.91-6.54,12s-3.93,8.19-5.71,12.37-3.49,8.46-4.95,12.64l-.1.3a2.58,2.58,0,0,1-3.27,1.59,2.61,2.61,0,0,1-1.51-1.4c-.28-.64-.76-1.46-1.18-2.19s-.93-1.49-1.44-2.21a32.11,32.11,0,0,0-3.41-4.07,25.67,25.67,0,0,0-4.14-3.46A26.06,26.06,0,0,0,50.66,231.66Z"/><path class="cls-5" d="M49.88,296.87a19.66,19.66,0,0,1,11.69,1.35,27.68,27.68,0,0,1,5.31,3c.82.6,1.62,1.24,2.39,1.91.39.34.76.69,1.13,1.06s.7.71,1.12,1.21l-4.72,1.34a93.87,93.87,0,0,1,2.11-14.12A99.67,99.67,0,0,1,73,279a78.07,78.07,0,0,1,6.24-12.8,52.47,52.47,0,0,1,8.84-11.09c-1,2.14-2,4.22-2.94,6.34-.47,1.06-.92,2.12-1.34,3.19s-.85,2.12-1.26,3.19c-1.63,4.26-3.07,8.58-4.35,12.93s-2.45,8.75-3.47,13.18-2,8.94-2.68,13.31l-.05.32a2.57,2.57,0,0,1-4.67,1,23.5,23.5,0,0,0-1.55-1.95c-.56-.67-1.17-1.3-1.8-1.92a31,31,0,0,0-4.06-3.42,25.74,25.74,0,0,0-4.68-2.69A26.34,26.34,0,0,0,49.88,296.87Z"/></g></g></svg>