<?xml version="1.0" encoding="utf-8"?>
<!-- Generator: Adobe Illustrator 25.4.1, SVG Export Plug-In . SVG Version: 6.00 Build 0)  -->
<svg version="1.1" id="Layer_1" xmlns="http://www.w3.org/2000/svg" xmlns:xlink="http://www.w3.org/1999/xlink" x="0px" y="0px"
	 viewBox="0 0 334.7 357" style="enable-background:new 0 0 334.7 357;" xml:space="preserve">
<style type="text/css">
	.st0{opacity:0.15;}
	.st1{fill:#81B5E2;stroke:#FFFFFF;stroke-width:7;stroke-miterlimit:10;}
	.st2{fill:none;stroke:#FFFFFF;stroke-width:4.34;stroke-miterlimit:10;}
	.st3{fill:none;stroke:#FFFFFF;stroke-width:5.08;stroke-linecap:round;stroke-miterlimit:10;}
	.st4{fill:#377FC2;}
	.st5{fill:#FFFFFF;}
	.st6{fill:#37BBA1;stroke:#FFFFFF;stroke-width:4.03;stroke-linecap:round;stroke-miterlimit:10;}
	.st7{fill:#E17055;}
	.st8{fill:#636E74;}
	.st9{fill:none;stroke:#FFFFFF;stroke-width:1.61;stroke-linecap:round;stroke-miterlimit:10;}
</style>
<g id="Layer_2_00000088842581259183302290000000647460990312062897_" class="st0">
	<g id="Paper_-_Test_Prep">
		<path class="st1" d="M9.2,19.8L229.8,3.5c3.4-0.3,6.3,2.3,6.6,5.7l23.8,321.4c0.3,3.4-2.3,6.3-5.7,6.6L33.9,353.5
			c-3.4,0.3-6.3-2.3-6.6-5.7L3.5,26.4C3.3,23,5.8,20.1,9.2,19.8z"/>
		
			<rect x="35.9" y="53.2" transform="matrix(0.9973 -7.376038e-02 7.376038e-02 0.9973 -4.9919 4.0537)" class="st2" width="32.9" height="32.9"/>
		
			<rect x="40.2" y="110.2" transform="matrix(0.9973 -7.376038e-02 7.376038e-02 0.9973 -9.1894 4.521)" class="st2" width="32.9" height="32.9"/>
		
			<rect x="44.4" y="167.3" transform="matrix(0.9973 -7.376038e-02 7.376038e-02 0.9973 -13.3868 4.9883)" class="st2" width="32.9" height="32.9"/>
		
			<rect x="48.6" y="224.4" transform="matrix(0.9973 -7.376038e-02 7.376038e-02 0.9973 -17.5852 5.4541)" class="st2" width="32.9" height="32.9"/>
		
			<rect x="52.8" y="281.4" transform="matrix(0.9973 -7.376038e-02 7.376038e-02 0.9973 -21.7819 5.9213)" class="st2" width="32.9" height="32.9"/>
		<line class="st3" x1="92.7" y1="57.7" x2="210" y2="49"/>
		<line class="st3" x1="94" y1="75.4" x2="211.3" y2="66.8"/>
		<line class="st3" x1="95.2" y1="114.9" x2="212.5" y2="106.2"/>
		<line class="st3" x1="96.5" y1="132.6" x2="213.8" y2="124"/>
		<line class="st3" x1="99.4" y1="172" x2="216.8" y2="163.3"/>
		<line class="st3" x1="100.8" y1="189.7" x2="218.1" y2="181"/>
		<line class="st3" x1="104.5" y1="229" x2="221.8" y2="220.3"/>
		<line class="st3" x1="105.8" y1="246.7" x2="223.1" y2="238"/>
		<line class="st3" x1="105.3" y1="286.3" x2="222.6" y2="277.6"/>
		<line class="st3" x1="106.7" y1="304" x2="224" y2="295.4"/>
		<polygon class="st4" points="289.7,273.6 316,51.8 332,53.7 305.7,275.5 294.9,298.6 		"/>
		<path class="st5" d="M317.7,54l12,1.4l-26,219.5l-8.1,17.3l-3.9-18.7L317.7,54 M314.2,49.5l-26.5,224.2l6.5,31.2l13.6-28.9
			l26.5-224.1L314.2,49.5L314.2,49.5z"/>
		<path class="st6" d="M290.8,271.2c2.5,2.4,10.3,3,13.9,2"/>
		<path class="st7" d="M328.7,53.1h-0.3l-8.9-1c-1.5-0.2-2.5-1.5-2.4-3l1.4-11.8c0.2-1.4,1.3-2.4,2.7-2.4h0.3l8.9,1
			c1.5,0.2,2.5,1.5,2.4,3c0,0,0,0,0,0l-1.4,11.8C331.2,52.1,330.1,53.1,328.7,53.1z"/>
		<path class="st5" d="M321.3,36.8L321.3,36.8l8.9,1c0.4,0.1,0.7,0.4,0.7,0.9l-1.4,11.8c-0.1,0.4-0.4,0.7-0.8,0.7h-0.1l-8.9-1
			c-0.4-0.1-0.7-0.4-0.7-0.8l1.4-11.8C320.6,37.1,320.9,36.8,321.3,36.8 M321.3,33c-2.3,0-4.3,1.8-4.6,4.1l-1.4,11.8
			c-0.3,2.5,1.5,4.8,4,5.1l8.9,1.1h0.5c2.3,0,4.3-1.7,4.6-4l1.4-11.8c0.3-2.5-1.5-4.8-4-5.1l-8.9-1c-0.2,0-0.4,0-0.5,0L321.3,33z"/>
		<path class="st8" d="M329.7,59.2h-0.3l-12.4-1.5c-1.2-0.1-2.1-1.3-2-2.5l0.7-5.5c0.1-1.1,1.1-2,2.2-2c0.1,0,0.2,0,0.3,0l12.4,1.5
			c1.2,0.1,2.1,1.3,2,2.5c0,0,0,0,0,0l-0.6,5.5C331.9,58.3,330.9,59.2,329.7,59.2z"/>
		<path class="st5" d="M318,49.3L318,49.3l12.4,1.5c0.4,0,0.6,0.4,0.6,0.7l-0.6,5.5c0,0.3-0.3,0.6-0.6,0.6h-0.1l-12.4-1.5
			c-0.2,0-0.3-0.1-0.4-0.2c-0.1-0.1-0.2-0.3-0.1-0.5l0.6-5.5C317.4,49.5,317.7,49.3,318,49.3 M318,46.1c-2,0-3.6,1.5-3.8,3.4
			l-0.7,5.5c-0.2,2.1,1.3,4,3.4,4.3l12.4,1.5h0.5c2,0,3.6-1.5,3.8-3.4l0.6-5.5c0.2-2.1-1.3-4-3.4-4.3l-12.4-1.4L318,46.1L318,46.1z"
			/>
		<line class="st9" x1="322.6" y1="64.4" x2="298.7" y2="265.8"/>
		<ellipse transform="matrix(0.1671 -0.9859 0.9859 0.1671 -39.4033 533.4275)" class="st5" cx="296" cy="290" rx="2.5" ry="4"/>
		<path class="st5" d="M37.6,122.2c3.9-0.7,8-0.2,11.7,1.4c1.9,0.8,3.6,1.8,5.3,3c0.8,0.6,1.6,1.2,2.4,1.9c0.4,0.3,0.8,0.7,1.1,1.1
			s0.7,0.7,1.1,1.2l-4.7,1.3c0.4-4.7,1.1-9.5,2.2-14.1c1.1-4.6,2.5-9.2,4.2-13.6c1.7-4.4,3.8-8.7,6.3-12.8c2.5-4.1,5.5-7.8,8.9-11
			c-1,2.1-2,4.2-3,6.3c-0.5,1-0.9,2.1-1.4,3.2s-0.9,2.1-1.3,3.2c-1.7,4.3-3.1,8.6-4.4,12.9s-2.5,8.7-3.6,13.2s-2,8.9-2.8,13.3l0,0.3
			c-0.2,1.4-1.5,2.4-2.9,2.1c-0.7-0.1-1.4-0.5-1.8-1.1c-0.5-0.7-1-1.4-1.5-2c-0.6-0.7-1.2-1.3-1.8-1.9c-1.2-1.3-2.6-2.4-4-3.4
			c-1.5-1.1-3-2-4.7-2.7C41.2,123.1,39.4,122.5,37.6,122.2z"/>
		<path class="st5" d="M35.3,62.4c4,0,7.9,1.3,11.2,3.6c1.7,1.2,3.2,2.5,4.6,4c0.7,0.8,1.3,1.5,2,2.3c0.3,0.4,0.6,0.8,0.9,1.3
			c0.3,0.4,0.6,0.8,0.9,1.4L50,75.4c1.3-4.6,2.9-9.1,4.8-13.4c1.9-4.3,4.1-8.5,6.7-12.6c2.5-4.1,5.4-7.9,8.6-11.4
			c3.2-3.5,6.9-6.6,10.9-9.1c-1.4,1.9-2.8,3.8-4.1,5.7c-0.7,0.9-1.3,1.9-1.9,2.9s-1.3,1.9-2,2.9c-2.4,3.9-4.7,7.8-6.8,11.8
			s-4.1,8.1-6,12.2s-3.7,8.4-5.2,12.5l-0.1,0.3c-0.5,1.3-2,2-3.3,1.5c0,0,0,0,0,0c-0.7-0.2-1.2-0.8-1.5-1.4
			c-0.3-0.8-0.7-1.5-1.1-2.3c-0.4-0.8-0.9-1.5-1.4-2.2c-1-1.5-2.1-2.9-3.3-4.1c-1.2-1.3-2.6-2.5-4.1-3.6
			C38.7,64,37.1,63.1,35.3,62.4z"/>
		<path class="st5" d="M42.8,177.6c4-0.5,8,0.2,11.6,2.1c1.8,0.9,3.5,2,5.1,3.3c0.8,0.6,1.5,1.3,2.3,2.1c0.4,0.4,0.7,0.7,1.1,1.1
			s0.7,0.8,1,1.3l-4.8,1.1c0.6-4.7,1.6-9.4,3-14c1.3-4.6,2.9-9,4.9-13.4c2-4.3,4.3-8.5,7-12.4c2.7-3.9,5.9-7.5,9.5-10.6
			c-1.1,2.1-2.3,4.1-3.3,6.2c-0.5,1-1,2.1-1.5,3.1s-1,2.1-1.4,3.1c-1.9,4.2-3.6,8.4-5.1,12.7s-3,8.6-4.2,12.9s-2.5,8.8-3.5,13.1
			l-0.1,0.3c-0.3,1.4-1.7,2.3-3.1,1.9c-0.7-0.2-1.3-0.6-1.6-1.2c-0.4-0.7-0.9-1.4-1.4-2c-0.5-0.7-1.1-1.4-1.7-2
			c-1.2-1.3-2.5-2.6-3.8-3.7c-1.4-1.2-2.9-2.2-4.5-3C46.3,178.8,44.6,178.1,42.8,177.6z"/>
		<path class="st5" d="M50.7,231.7c4-0.1,7.9,1.1,11.3,3.3c1.7,1.1,3.3,2.4,4.7,3.9c0.7,0.7,1.4,1.5,2,2.3c0.3,0.4,0.6,0.8,0.9,1.2
			s0.6,0.8,0.9,1.4l-4.9,0.5c1.2-4.6,2.7-9.1,4.5-13.5c1.8-4.4,4-8.6,6.4-12.7c2.4-4.1,5.2-7.9,8.4-11.5c3.1-3.6,6.7-6.8,10.6-9.4
			c-1.4,1.9-2.7,3.8-4,5.7c-0.6,1-1.3,1.9-1.9,2.9s-1.2,1.9-1.8,2.9c-2.3,3.9-4.5,7.9-6.5,12s-3.9,8.2-5.7,12.4s-3.5,8.5-4.9,12.6
			l-0.1,0.3c-0.5,1.3-1.9,2-3.3,1.6c-0.7-0.2-1.2-0.7-1.5-1.4c-0.3-0.6-0.8-1.5-1.2-2.2s-0.9-1.5-1.4-2.2c-1-1.4-2.2-2.8-3.4-4.1
			c-1.3-1.3-2.6-2.5-4.1-3.5C54.1,233.2,52.4,232.4,50.7,231.7z"/>
		<path class="st5" d="M49.9,296.9c3.9-0.8,8-0.3,11.7,1.4c1.9,0.8,3.7,1.8,5.3,3c0.8,0.6,1.6,1.2,2.4,1.9c0.4,0.3,0.8,0.7,1.1,1.1
			s0.7,0.7,1.1,1.2l-4.7,1.3c0.3-4.8,1-9.5,2.1-14.1c1-4.6,2.4-9.2,4.1-13.6c1.7-4.4,3.8-8.7,6.2-12.8c2.4-4.1,5.4-7.8,8.8-11.1
			c-1,2.1-2,4.2-2.9,6.3c-0.5,1.1-0.9,2.1-1.3,3.2s-0.8,2.1-1.3,3.2c-1.6,4.3-3.1,8.6-4.3,12.9s-2.4,8.8-3.5,13.2s-2,8.9-2.7,13.3
			l-0.1,0.3c-0.2,1.4-1.6,2.3-3,2.1c-0.7-0.1-1.3-0.5-1.7-1.1c-0.5-0.7-1-1.3-1.6-2c-0.6-0.7-1.2-1.3-1.8-1.9
			c-1.3-1.3-2.6-2.4-4.1-3.4c-1.5-1.1-3-2-4.7-2.7C53.5,297.8,51.7,297.3,49.9,296.9z"/>
	</g>
</g>
</svg>
