<?xml version="1.0" encoding="utf-8"?>
<!-- Generator: Adobe Illustrator 25.4.1, SVG Export Plug-In . SVG Version: 6.00 Build 0)  -->
<svg version="1.1" id="Layer_1" xmlns="http://www.w3.org/2000/svg" xmlns:xlink="http://www.w3.org/1999/xlink" x="0px" y="0px"
	 viewBox="0 0 365.7 417" style="enable-background:new 0 0 365.7 417;" xml:space="preserve">
<style type="text/css">
	.st0{opacity:0.2;}
	.st1{fill:none;stroke:#FFFFFF;stroke-width:20.04;stroke-miterlimit:10;}
	.st2{fill:none;stroke:#F15F60;stroke-width:20.04;stroke-miterlimit:10;}
	.st3{fill:#F37575;}
	.st4{fill:#FFFFFF;}
	.st5{fill:#F15F60;}
	.st6{fill:none;stroke:#FFFFFF;stroke-width:10;stroke-linecap:round;stroke-miterlimit:10;}
</style>
<g id="Layer_2_00000024679778340281043620000012904640429400353932_" class="st0">
	<g id="Ransel_-_Elementary">
		<path class="st1" d="M239.4,25.6c-118.3-97.5-159.9,295-44,297"/>
		<path class="st2" d="M231.3,26.7C113-70.8,71.4,320.6,187.3,322.6"/>
		<path class="st1" d="M126.7,59.7C8.5-37.8-31.1,337.9,82.7,353.5"/>
		<path class="st2" d="M120.9,62.8C7-41.8-39.7,353.1,80.8,356.3"/>
		<path class="st3" d="M182.3,410.8c13.8-88.9,17.4-162.3,10.7-218.2c-5.4-45.3-17.6-79.4-36.1-101.1
			c-14.7-17.2-30.5-23.5-42.2-25.5c26.5-13.7,86.6-41.4,144.1-45.1c18.8,0.1,35.4,7.7,49.2,22.5c26.8,28.7,44.3,85.9,50.8,165.3
			c2.9,37.1,3.5,74.3,1.7,111.4C348,328.6,269.8,381.1,182.3,410.8z"/>
		<path class="st4" d="M258.8,25.1c17.8,0.2,32.8,7.1,45.9,21.1c33,35.3,45.2,108,49.6,162.6c2.8,36.2,3.4,72.6,1.8,108.9
			c-16.1,11-87.8,58-168.6,86.6c12.9-86.1,16.2-157.5,9.6-212.4c-5.5-46.2-18-81-37.1-103.4c-11.2-13.1-23-20.2-33.4-23.9
			C156.1,50.3,208.5,28.4,258.8,25.1 M258.6,16.5c-78.4,5-160.1,53.2-160.1,53.2c2-0.3,4-0.5,6.1-0.4c26,0,124.6,20.9,72.4,347.7
			c99.4-32.1,187.6-94.6,187.6-94.6S384.3,17.2,258.6,16.5L258.6,16.5z"/>
		<path class="st3" d="M82.1,368.8c-0.4-20.7-1.8-147.7,20.1-295.5c2.4-0.2,4.8-0.3,7.1-0.3c20.9,0,38.2,8.1,51.5,24.2
			c33.2,40,37.3,122.5,34.9,184.7c-1.8,41.1-6.1,82.1-12.8,122.6L82.1,368.8z"/>
		<path class="st4" d="M109.3,77.2c19.8,0,35.6,7.4,48.2,22.6c25.6,30.8,37.3,93.7,33.9,181.7c-1.7,39.2-5.7,78.4-11.9,117.2
			l-93.2-33c-0.4-27.5-0.8-148.2,19.6-288.4C107.1,77.3,108.2,77.3,109.3,77.2 M109.3,68.7c-3.6,0-7.2,0.2-10.8,0.6
			C73.8,234,77.9,371.8,77.9,371.8l108.4,38.4C186.3,410.3,249.8,68.7,109.3,68.7L109.3,68.7z"/>
		<path class="st5" d="M214.1,371c20.1-184-8.8-262.3-36.9-295.6c-9.9-11.8-19.6-17.8-26.9-20.9c17.2-7.7,54.3-22.4,94.7-25.6h0.2
			h0.2c0.6-0.1,1.1-0.1,1.7-0.1c8.3,0,23.2,5.4,37.8,20.8c27.7,29.1,59.2,97,51.8,255.1C301.1,330.3,269.1,346.5,214.1,371z"/>
		<path class="st4" d="M247.1,33c1.7,0,16.7,0.5,34.7,19.4c16.5,17.4,29.4,43.8,38.2,78.5c11.4,44.8,15.6,102.5,12.5,171.4
			c-16.5,11.8-33.8,22.5-51.7,32c-16,8.5-34.5,17.4-61.6,29.6c8.2-79,7.9-144.9-0.9-196.3c-7.1-41.9-19.9-73.9-37.8-95.1
			c-5.7-7-12.5-13-20.2-17.8c18.9-7.9,50.8-19,85-21.7h0.3l0.3,0C246.3,33,246.7,33,247.1,33 M247,24.4c-0.8,0-1.6,0-2.4,0.2
			c-56.8,4.5-106.4,30.9-106.4,30.9s107.1,5.9,70.8,322.5c63.3-28,95-44.2,131.9-71C353,57.1,268.5,24.4,247,24.4L247,24.4z"/>
		<path class="st6" d="M242,345.3c0.1,20.7-4.9,42.7-4.9,42.7"/>
		<path class="st4" d="M109.3,77.2c19.8,0,35.6,7.4,48.2,22.6c25.6,30.8,37.3,93.7,33.9,181.7c-1.7,39.2-5.7,78.4-11.9,117.2
			l-93.2-33c-0.4-27.5-0.8-148.2,19.6-288.4C107.1,77.3,108.2,77.3,109.3,77.2 M109.3,68.7c-3.6,0-7.2,0.2-10.8,0.6
			C73.8,234,77.9,371.8,77.9,371.8l108.4,38.4C186.3,410.3,249.8,68.7,109.3,68.7L109.3,68.7z"/>
		<path class="st6" d="M314.9,308.5c0.6,18.7-2.1,40.3-2.1,40.3"/>
		<path class="st4" d="M258.8,25.1c17.8,0.2,32.8,7.1,45.9,21.1c33,35.3,45.2,108,49.6,162.6c2.8,36.2,3.4,72.6,1.8,108.9
			c-16.1,11-87.8,58-168.6,86.6c12.9-86.1,16.2-157.5,9.6-212.4c-5.5-46.2-18-81-37.1-103.4c-11.2-13.1-23-20.2-33.4-23.9
			C156.1,50.3,208.5,28.4,258.8,25.1 M258.6,16.5c-78.4,5-160.1,53.2-160.1,53.2c2-0.3,4-0.5,6.1-0.4c26,0,124.6,20.9,72.4,347.7
			c99.4-32.1,187.6-94.6,187.6-94.6S384.3,17.2,258.6,16.5L258.6,16.5z"/>
		<ellipse transform="matrix(0.7071 -0.7071 0.7071 0.7071 -232.0156 169.8452)" class="st4" cx="89" cy="365" rx="8.6" ry="12.5"/>
		
			<ellipse transform="matrix(0.9913 -0.1319 0.1319 0.9913 -50.6251 26.6405)" class="st4" cx="175.8" cy="395.4" rx="12.5" ry="8.6"/>
	</g>
</g>
</svg>
