<svg xmlns="http://www.w3.org/2000/svg" viewBox="0 0 365.69 417.03"><defs><style>.cls-1,.cls-2,.cls-6{fill:none;stroke-miterlimit:10;}.cls-1,.cls-6{stroke:#fff;}.cls-1,.cls-2{stroke-width:20.04px;}.cls-2{stroke:#f15f60;}.cls-3{fill:#f37575;}.cls-4{fill:#fff;}.cls-5{fill:#f15f60;}.cls-6{stroke-linecap:round;stroke-width:10px;}</style></defs><g id="Layer_2" data-name="Layer 2"><g id="Ransel_-_Elementary" data-name="Ransel - Elementary"><path class="cls-1" d="M239.42,25.58c-118.26-97.5-159.88,295.05-44,297.05"/><path class="cls-2" d="M231.31,26.71C113-70.79,71.43,320.63,187.27,322.63"/><path class="cls-1" d="M126.72,59.69c-118.26-97.5-157.87,278.17-44,293.8"/><path class="cls-2" d="M120.87,62.81C7-41.81-39.7,353.12,80.8,356.33"/><path class="cls-3" d="M182.26,410.75c13.79-88.89,17.38-162.28,10.68-218.23-5.43-45.35-17.59-79.38-36.15-101.13-14.7-17.24-30.53-23.46-42.21-25.49,26.48-13.66,86.56-41.4,144.13-45.07,18.83.13,35.38,7.7,49.18,22.5,26.77,28.7,44.34,85.87,50.79,165.33a891.21,891.21,0,0,1,1.71,111.45C348,328.61,269.79,381.15,182.26,410.75Z"/><path class="cls-4" d="M258.83,25.12c17.78.16,32.81,7.08,45.92,21.13,33,35.35,45.19,108,49.64,162.65a890.88,890.88,0,0,1,1.82,108.87c-16.14,11-87.75,58-168.63,86.6,12.95-86.12,16.19-157.51,9.62-212.36-5.53-46.21-18-81-37.15-103.42-11.18-13.1-23-20.18-33.43-23.92,29.44-14.33,81.85-36.29,132.21-39.55m-.25-8.59C180.16,21.48,98.47,69.76,98.47,69.76a34.31,34.31,0,0,1,6.07-.45c26,0,124.56,20.86,72.39,347.72,99.43-32.09,187.63-94.58,187.63-94.58s19.77-305.28-106-305.92Z"/><path class="cls-3" d="M82.11,368.78c-.39-20.67-1.77-147.66,20.11-295.53,2.41-.2,4.79-.3,7.09-.3,20.86,0,38.2,8.14,51.54,24.19,33.25,40,37.31,122.53,34.86,184.72a1022.87,1022.87,0,0,1-12.78,122.65Z"/><path class="cls-4" d="M109.31,77.25c19.8,0,35.58,7.4,48.24,22.63,25.62,30.82,37.33,93.65,33.87,181.71a1020.16,1020.16,0,0,1-11.89,117.16l-93.17-33c-.42-27.5-.84-148.21,19.6-288.41,1.14,0,2.25-.07,3.35-.07m0-8.59a94.86,94.86,0,0,0-10.84.64C73.77,234,77.89,371.84,77.89,371.84l108.39,38.42s63.52-341.6-77-341.6Z"/><path class="cls-5" d="M214.09,371c20.11-184-8.82-262.33-36.87-295.58-9.92-11.76-19.65-17.82-26.87-20.93,17.16-7.73,54.26-22.4,94.69-25.59h.17l.17,0a12,12,0,0,1,1.72-.11c8.33,0,23.24,5.43,37.84,20.76,27.73,29.12,59.16,97,51.76,255.15C301.06,330.32,269.1,346.48,214.09,371Z"/><path class="cls-4" d="M247.1,33c1.66,0,16.74.55,34.73,19.43,16.54,17.37,29.4,43.78,38.2,78.48,11.37,44.81,15.56,102.47,12.48,171.43a450.48,450.48,0,0,1-51.71,32c-16,8.55-34.48,17.43-61.65,29.62,8.19-79,7.9-144.94-.87-196.26-7.15-41.87-19.86-73.88-37.78-95.12a85.17,85.17,0,0,0-20.17-17.81c18.94-7.88,50.75-19,85-21.66l.33,0,.34-.05a6.77,6.77,0,0,1,1-.06m0-8.59a15.18,15.18,0,0,0-2.4.17c-56.82,4.48-106.39,30.88-106.39,30.88S245.3,61.4,209,377.94c63.27-28,95-44.25,131.9-71C353.05,57.11,268.46,24.43,247.1,24.43Z"/><path class="cls-6" d="M242,345.29c.12,20.69-4.87,42.73-4.87,42.73"/><path class="cls-4" d="M109.31,77.25c19.8,0,35.58,7.4,48.24,22.63,25.62,30.82,37.33,93.65,33.87,181.71a1020.16,1020.16,0,0,1-11.89,117.16l-93.17-33c-.42-27.5-.84-148.21,19.6-288.41,1.14,0,2.25-.07,3.35-.07m0-8.59a94.86,94.86,0,0,0-10.84.64C73.77,234,77.89,371.84,77.89,371.84l108.39,38.42s63.52-341.6-77-341.6Z"/><path class="cls-6" d="M314.85,308.53c.58,18.69-2.13,40.32-2.13,40.32"/><path class="cls-4" d="M258.83,25.12c17.78.16,32.81,7.08,45.92,21.13,33,35.35,45.19,108,49.64,162.65a890.88,890.88,0,0,1,1.82,108.87c-16.14,11-87.75,58-168.63,86.6,12.95-86.12,16.19-157.51,9.62-212.36-5.53-46.21-18-81-37.15-103.42-11.18-13.1-23-20.18-33.43-23.92,29.44-14.33,81.85-36.29,132.21-39.55m-.25-8.59C180.16,21.48,98.47,69.76,98.47,69.76a34.31,34.31,0,0,1,6.07-.45c26,0,124.56,20.86,72.39,347.72,99.43-32.09,187.63-94.58,187.63-94.58s19.77-305.28-106-305.92Z"/><ellipse class="cls-4" cx="89.02" cy="364.99" rx="8.63" ry="12.46" transform="translate(-232.02 169.85) rotate(-45)"/><ellipse class="cls-4" cx="175.78" cy="395.42" rx="12.46" ry="8.63" transform="translate(-50.64 26.65) rotate(-7.58)"/></g></g></svg>