<?xml version="1.0" encoding="utf-8"?>
<!-- Generator: Adobe Illustrator 25.4.1, SVG Export Plug-In . SVG Version: 6.00 Build 0)  -->
<svg version="1.1" id="Layer_1" xmlns="http://www.w3.org/2000/svg" xmlns:xlink="http://www.w3.org/1999/xlink" x="0px" y="0px"
	 viewBox="0 0 388.3 385" style="enable-background:new 0 0 388.3 385;" xml:space="preserve">
<style type="text/css">
	.st0{opacity:0.2;}
	.st1{fill:#9D98CA;stroke:#FFFFFF;stroke-width:11.1;stroke-miterlimit:10;}
	.st2{fill:#FFFFFF;}
	.st3{fill:#F178A6;stroke:#FFFFFF;stroke-width:11.1;stroke-miterlimit:10;}
	.st4{fill:none;stroke:#FFFFFF;stroke-width:11.1;stroke-miterlimit:10;}
</style>
<g id="Layer_2_00000121996948284034699290000017790731241909098163_" class="st0">
	<g id="Grammar">
		<path class="st1" d="M94.4,245.1h208.4c13.9,0,25.2,11.3,25.2,25.2v84c0,13.9-11.3,25.2-25.2,25.2H94.4
			c-13.9,0-25.2-11.3-25.2-25.2v-84C69.2,256.4,80.5,245.1,94.4,245.1z"/>
		<path class="st2" d="M116.2,285.9H91.9v-12.3h62.6v12.3h-24.3v66.8h-14.1V285.9z"/>
		<path class="st2" d="M163.6,273.5h14.1v32h37v-32h14.1v79.1h-14.1v-35.1h-37v35.1h-14.1V273.5z"/>
		<path class="st2" d="M246.2,273.5h52.4v12.3h-38.3V306h36.3v11.8h-36.3v22.4h40.3v12.5h-54.4V273.5z"/>
		<path class="st3" d="M22.8,5.6h86.4c9.5,0,17.2,7.7,17.2,17.2v100c0,9.5-7.7,17.2-17.2,17.2H22.8c-9.5,0-17.2-7.7-17.2-17.2v-100
			C5.6,13.3,13.3,5.6,22.8,5.6z"/>
		<path class="st2" d="M61.1,31.4h12.2l34.1,79.1H91.2l-7.4-18.1H49.6l-7.2,18.1H26.6L61.1,31.4z M78.9,80.3L66.8,48.1L54.4,80.3
			H78.9z"/>
		<path class="st3" d="M201.1,5.6h159.3c12.3,0,22.4,10,22.4,22.4v89.7c0,12.3-10,22.4-22.4,22.4H201.1c-12.3,0-22.4-10-22.4-22.4
			V27.9C178.7,15.6,188.7,5.6,201.1,5.6z"/>
		<path class="st2" d="M231.2,32.2h12.2l34.1,79.1h-16.1L254,93.2h-34.3l-7.1,18.1h-15.7L231.2,32.2z M249.1,81.1L236.9,49
			l-12.4,32.1H249.1z"/>
		<path class="st2" d="M285.3,32.2H304l36.8,59.2h0.2V32.2h14v79.1h-17.8l-37.5-61.1h-0.2v61.1h-14.1V32.2z"/>
		<line class="st4" x1="126.4" y1="83.7" x2="177.4" y2="83.7"/>
		<line class="st4" x1="88.3" y1="139.1" x2="107" y2="244.8"/>
		<line class="st4" x1="284.7" y1="244.8" x2="314.6" y2="142.3"/>
	</g>
</g>
</svg>
