<svg xmlns="http://www.w3.org/2000/svg" viewBox="0 0 388.3 385.05"><defs><style>.cls-1{fill:#9d98ca;}.cls-1,.cls-3,.cls-4{stroke:#fff;stroke-miterlimit:10;stroke-width:11.1px;}.cls-2{fill:#fff;}.cls-3{fill:#f178a6;}.cls-4{fill:none;}</style></defs><g id="Layer_2" data-name="Layer 2"><g id="Grammar"><rect class="cls-1" x="69.18" y="245.12" width="258.74" height="134.39" rx="25.18"/><path class="cls-2" d="M116.15,285.85H91.91v-12.3h62.57v12.3H130.23v66.81H116.15Z"/><path class="cls-2" d="M163.64,273.55h14.08v32h37v-32h14.08v79.11H214.7V317.58h-37v35.08H163.64Z"/><path class="cls-2" d="M246.21,273.55h52.4v12.3H260.29V306H296.6V317.8H260.29v22.35h40.33v12.51H246.21Z"/><rect class="cls-3" x="5.55" y="5.55" width="120.86" height="134.39" rx="17.21"/><path class="cls-2" d="M61.06,31.37H73.24l34.08,79.1H91.23l-7.37-18.1H49.56l-7.16,18.1H26.65ZM78.94,80.3,66.76,48.13,54.36,80.3Z"/><rect class="cls-3" x="178.72" y="5.55" width="204.03" height="134.39" rx="22.36"/><path class="cls-2" d="M231.24,32.2h12.18l34.07,79.1H261.41L254,93.2h-34.3l-7.15,18.1H196.82Zm17.87,48.94L236.94,49,224.53,81.14Z"/><path class="cls-2" d="M285.31,32.2H304l36.76,59.21H341V32.2H355v79.1H337.16L299.62,50.19h-.23V111.3H285.31Z"/><line class="cls-4" x1="126.36" y1="83.68" x2="177.4" y2="83.68"/><line class="cls-4" x1="88.31" y1="139.08" x2="106.97" y2="244.83"/><line class="cls-4" x1="284.67" y1="244.83" x2="314.56" y2="142.33"/></g></g></svg>