<?xml version="1.0" encoding="utf-8"?>
<!-- Generator: Adobe Illustrator 25.4.1, SVG Export Plug-In . SVG Version: 6.00 Build 0)  -->
<svg version="1.1" id="Layer_1" xmlns="http://www.w3.org/2000/svg" xmlns:xlink="http://www.w3.org/1999/xlink" x="0px" y="0px"
	 viewBox="0 0 396.2 391.4" style="enable-background:new 0 0 396.2 391.4;" xml:space="preserve">
<style type="text/css">
	.st0{opacity:0.15;}
	.st1{fill:#EB5F9F;stroke:#FFFFFF;stroke-width:6;stroke-miterlimit:10;}
	.st2{fill:#636E73;}
	.st3{fill:none;stroke:#FFFFFF;stroke-width:6;stroke-linecap:round;stroke-miterlimit:10;}
	.st4{fill:#DFE6E9;}
	.st5{fill:#FFFFFF;}
	.st6{fill:#B2BEC3;}
	.st7{fill:none;stroke:#FFFFFF;stroke-width:5.19;stroke-linecap:round;stroke-miterlimit:10;}
	.st8{fill:#6562AC;}
	.st9{fill:#FECB6F;}
	.st10{fill:#37BBA1;stroke:#FFFFFF;stroke-width:5.66;stroke-linecap:round;stroke-miterlimit:10;}
	.st11{fill:#E17055;}
	.st12{fill:none;stroke:#FFFFFF;stroke-width:2.27;stroke-linecap:round;stroke-miterlimit:10;}
	.st13{fill:#EB5F9F;}
	.st14{fill:#F178A6;stroke:#FFFFFF;stroke-width:6;stroke-miterlimit:10;}
	.st15{fill:#FECB6F;stroke:#FFFFFF;stroke-width:7.13;stroke-linecap:round;stroke-linejoin:round;}
</style>
<g id="Layer_2_00000059270335206582543350000002977847362992653452_" class="st0">
	<g id="Pencil_-_High">
		<path class="st1" d="M95.3,382.3c-11.1-43-5-113.6,7.9-126.8s222.1-132.7,271.3-136.1c16.3-1.1-44.7-63.7-63-62.1
			c-65,5.7-241.6,95.2-281.1,143.3C8.8,226.8-3.8,317.3,6.8,352.6C12.8,372.5,99.3,397.8,95.3,382.3z"/>
		<path class="st2" d="M42.5,315.1c0,0,0-66.8,14.1-88.8s196-152.8,281.1-150.2c-181.2,73-265.1,151.7-271.8,168.8
			S42.5,315.1,42.5,315.1z"/>
		<path class="st3" d="M42,351.7c0,0-10.2-103.6,23.8-133.5C219.1,83.3,339.5,73,339.5,73"/>
		<path class="st4" d="M304.9,26.1c-0.9,0-1.7-0.3-2.4-0.9l-6.8-5.9c-1.5-1.3-1.7-3.6-0.4-5.1l8.9-10.4c1.3-1.5,3.6-1.7,5.1-0.4
			l6.8,5.9c0.7,0.6,1.2,1.5,1.3,2.5c0.1,1-0.2,1.9-0.9,2.6l-8.9,10.4C307,25.7,306,26.1,304.9,26.1z"/>
		<path class="st5" d="M307,5.2c0.2,0,0.5,0.1,0.7,0.2l6.8,5.9c0.2,0.2,0.3,0.4,0.4,0.7c0,0.3-0.1,0.5-0.2,0.8l-8.9,10.4
			c-0.2,0.2-0.5,0.4-0.8,0.4c-0.2,0-0.5-0.1-0.7-0.2l-6.8-5.9c-0.4-0.4-0.5-1-0.1-1.5l8.9-10.4C306.4,5.3,306.7,5.2,307,5.2 M307,0
			c-1.8,0-3.6,0.8-4.7,2.2l-8.9,10.4c-2.2,2.6-1.9,6.5,0.7,8.8l6.8,5.9c2.6,2.2,6.5,1.9,8.8-0.7l8.9-10.4c2.2-2.6,1.9-6.5-0.7-8.8
			l-6.8-5.9C309.9,0.5,308.5,0,307,0z"/>
		<polygon class="st6" points="104.4,233.7 293.2,13.8 308.5,26.9 119.8,246.9 91.6,264.2 		"/>
		<path class="st5" d="M293.5,17.4l11.4,9.8L118.1,244.9l-20.9,12.9l9.6-22.6L293.5,17.4 M292.9,10.1L102.2,232.4l0,0L86,270.7
			l35.4-21.8L312.2,26.6L292.9,10.1z"/>
		<polyline class="st7" points="308.7,29 316.4,35.6 256.1,105.8 251.2,106.2 		"/>
		<path class="st8" d="M242.3,105c-0.9,0-1.8-0.3-2.5-0.9l-12.4-10.7c-0.8-0.7-1.2-1.6-1.3-2.6c-0.1-1,0.2-2,0.9-2.8l64.2-74.9
			c1.4-1.6,3.8-1.8,5.4-0.4L309,23.4c1.6,1.4,1.8,3.8,0.4,5.4l-64.2,74.9C244.5,104.5,243.4,105,242.3,105z"/>
		<path class="st5" d="M294.1,14.5c0.3,0,0.6,0.1,0.8,0.3l12.4,10.6c0.2,0.2,0.4,0.5,0.4,0.8c0,0.3-0.1,0.6-0.3,0.9L243.2,102
			c-0.2,0.3-0.6,0.4-0.9,0.4c-0.3,0-0.6-0.1-0.8-0.3l-12.4-10.7c-0.5-0.4-0.6-1.2-0.1-1.7l64.2-74.9
			C293.4,14.6,293.8,14.5,294.1,14.5 M294.1,9.3c-1.9,0-3.6,0.8-4.9,2.2L225,86.3c-2.3,2.7-2,6.7,0.7,9l12.4,10.7
			c2.7,2.3,6.7,2,9-0.7l64.2-74.9c2.3-2.7,2-6.7-0.7-9l-12.4-10.6C297.1,9.8,295.6,9.3,294.1,9.3z"/>
		<polygon class="st9" points="100.9,333.3 201.9,36.4 223.3,43.7 122.4,340.6 100.7,369.1 		"/>
		<path class="st5" d="M203.6,40l16.1,5.5l-99.9,293.8l-16.2,21.4l0.2-26.9L203.6,40 M200.1,32.8l-102,300l-0.3,44.8l27.1-35.6
			l102-300L200.1,32.8L200.1,32.8z"/>
		<path class="st10" d="M103.1,330.3c2.7,4,13.2,7.2,18.5,6.7"/>
		<path class="st11" d="M219.8,42c-0.4,0-0.8-0.1-1.2-0.2l-11.9-4c-2-0.7-3-2.8-2.4-4.8c0,0,0,0,0,0l5.4-15.8c0.5-1.5,2-2.6,3.6-2.6
			c0.4,0,0.8,0.1,1.2,0.2l11.9,4c2,0.7,3,2.8,2.4,4.8l-5.4,15.8C222.9,41,221.4,42,219.8,42z"/>
		<path class="st5" d="M213.3,17.4c0.1,0,0.2,0,0.3,0l11.9,4c0.3,0.1,0.5,0.3,0.6,0.5c0.1,0.3,0.2,0.6,0.1,0.8l-5.4,15.8
			c-0.1,0.4-0.5,0.7-1,0.7c-0.1,0-0.2,0-0.3,0l-11.9-4c-0.3-0.1-0.5-0.3-0.6-0.5c-0.1-0.3-0.1-0.5-0.1-0.8l5.4-15.8
			C212.5,17.7,212.9,17.4,213.3,17.4 M213.3,12c-2.8,0-5.2,1.8-6.1,4.4l-5.4,15.8c-1.1,3.4,0.6,7,4,8.2l11.9,4
			c0.7,0.2,1.4,0.4,2.1,0.3c2.8,0,5.2-1.8,6.1-4.4l5.4-15.8c1.1-3.4-0.6-7-4-8.2l-11.9-4C214.7,12.1,214,12,213.3,12z"/>
		<path class="st2" d="M219.3,50.6c-0.3,0-0.7-0.1-1-0.2l-16.6-5.6c-1.7-0.5-2.6-2.3-2-4c0,0,0,0,0,0l2.5-7.4c0.6-1.7,2.3-2.6,4-2
			c0,0,0,0,0,0l16.5,5.6c1.7,0.6,2.6,2.3,2,4c0,0,0,0,0,0l-2.5,7.4C221.9,49.7,220.7,50.6,219.3,50.6z"/>
		<path class="st5" d="M205.3,33.5c0.1,0,0.2,0,0.3,0l16.6,5.6c0.2,0.1,0.4,0.2,0.5,0.5c0.1,0.2,0.1,0.5,0.1,0.7l-2.5,7.4
			c-0.1,0.4-0.5,0.6-0.9,0.6c-0.1,0-0.2,0-0.3,0l-16.5-5.6c-0.2-0.1-0.4-0.2-0.5-0.5c-0.1-0.2-0.1-0.5-0.1-0.7l2.5-7.4
			C204.6,33.7,204.9,33.5,205.3,33.5 M205.3,29c-2.3,0-4.4,1.5-5.1,3.7l-2.5,7.4c-1,2.8,0.5,5.9,3.3,6.9c0,0,0,0,0.1,0l16.6,5.6
			c0.6,0.2,1.1,0.3,1.7,0.3c2.3,0,4.4-1.5,5.1-3.7l2.6-7.4c1-2.8-0.6-5.9-3.4-6.9L207,29.3C206.5,29.1,205.9,29,205.3,29L205.3,29z"
			/>
		<line class="st12" x1="207.3" y1="55.7" x2="115.6" y2="325.3"/>
		<path class="st13" d="M93.8,223.4C135,162.1,314,85.5,330.6,90.9s13.3,26.2,9.4,27.9C111.3,222.5,84.7,278.2,84.7,278.2
			S84.8,236.7,93.8,223.4z"/>
		<path class="st14" d="M100.7,388.3c78.3,2.1,236.6-91.1,277.6-141.8c16.4-20.2,24.2-123.7-3-133S127.1,223.9,97.7,255.2
			C79.9,274.2,66.9,387.4,100.7,388.3z"/>
		<polygon class="st15" points="133.1,361.8 125.7,346 108.4,343.2 121.1,331.3 118.4,314 133.7,322.4 149.3,314.5 146.1,331.6 
			158.4,344 141.1,346.3 		"/>
		<path class="st3" d="M42,351.7c0,0,5.6-93.2,33-120.2c107.8-106.2,269.2-154,269.2-154"/>
	</g>
</g>
</svg>
