<svg xmlns="http://www.w3.org/2000/svg" viewBox="0 0 396.22 391.35"><defs><style>.cls-1,.cls-13{fill:#eb5f9f;}.cls-1,.cls-10,.cls-12,.cls-14,.cls-15,.cls-3,.cls-7{stroke:#fff;}.cls-1,.cls-10,.cls-12,.cls-14,.cls-3,.cls-7{stroke-miterlimit:10;}.cls-1,.cls-14,.cls-3{stroke-width:6px;}.cls-2{fill:#636e73;}.cls-12,.cls-3,.cls-7{fill:none;}.cls-10,.cls-12,.cls-15,.cls-3,.cls-7{stroke-linecap:round;}.cls-4{fill:#dfe6e9;}.cls-5{fill:#fff;}.cls-6{fill:#b2bec3;}.cls-7{stroke-width:5.19px;}.cls-8{fill:#6562ac;}.cls-15,.cls-9{fill:#fecb6f;}.cls-10{fill:#37bba1;stroke-width:5.66px;}.cls-11{fill:#e17055;}.cls-12{stroke-width:2.27px;}.cls-14{fill:#f178a6;}.cls-15{stroke-linejoin:round;stroke-width:7.13px;}</style></defs><g id="Layer_2" data-name="Layer 2"><g id="Pencil_-_High" data-name="Pencil - High"><path class="cls-1" d="M95.27,382.28c-11.09-42.95-5-113.62,7.89-126.75S325.24,122.85,374.44,119.41c16.26-1.14-44.72-63.73-63-62.14-65,5.67-241.63,95.21-281.1,143.27C8.83,226.79-3.79,317.29,6.83,352.58,12.83,372.53,99.27,397.75,95.27,382.28Z"/><path class="cls-2" d="M42.46,315.08s0-66.84,14.11-88.75S252.62,73.51,337.65,76.11c-181.2,73-265.12,151.71-271.8,168.79S42.46,315.08,42.46,315.08Z"/><path class="cls-3" d="M42,351.73S31.84,248.09,65.78,218.23C219.06,83.35,339.53,73,339.53,73"/><path class="cls-4" d="M304.93,26.12a3.62,3.62,0,0,1-2.36-.87l-6.84-5.87a3.64,3.64,0,0,1-.39-5.13l8.92-10.39a3.66,3.66,0,0,1,5.13-.39l6.83,5.86a3.62,3.62,0,0,1,1.26,2.49,3.66,3.66,0,0,1-.86,2.64l-8.92,10.4A3.65,3.65,0,0,1,304.93,26.12Z"/><path class="cls-5" d="M307,5.19a1.06,1.06,0,0,1,.67.25l6.83,5.87a1,1,0,0,1,.36.7,1.08,1.08,0,0,1-.24.76l-8.92,10.39a1.06,1.06,0,0,1-.8.36,1,1,0,0,1-.67-.24l-6.84-5.87a1.06,1.06,0,0,1-.11-1.47l8.92-10.39a1,1,0,0,1,.8-.36M307,0a6.24,6.24,0,0,0-4.74,2.17l-8.92,10.39a6.26,6.26,0,0,0,.67,8.79l6.84,5.87a6.27,6.27,0,0,0,8.79-.67l8.92-10.4a6.26,6.26,0,0,0-.67-8.79L311.08,1.5A6.19,6.19,0,0,0,307,0Z"/><polygon class="cls-6" points="104.44 233.74 293.19 13.76 308.51 26.9 119.76 246.89 91.56 264.25 104.44 233.74"/><path class="cls-5" d="M293.47,17.42l11.38,9.76L118.05,244.89,97.11,257.78l9.57-22.65L293.47,17.42m-.56-7.33L102.21,232.36h0L86,270.72l35.45-21.83L312.18,26.62,292.91,10.09Z"/><polyline class="cls-7" points="308.72 29.01 316.36 35.58 256.12 105.79 251.21 106.17"/><path class="cls-8" d="M242.27,105a3.78,3.78,0,0,1-2.46-.9L227.38,93.39a3.8,3.8,0,0,1-1.3-2.59A3.74,3.74,0,0,1,227,88l64.23-74.87a3.83,3.83,0,0,1,5.35-.41L309,23.42a3.8,3.8,0,0,1,.41,5.35l-64.24,74.87A3.8,3.8,0,0,1,242.27,105Z"/><path class="cls-5" d="M294.1,14.46a1.13,1.13,0,0,1,.77.28l12.42,10.65a1.17,1.17,0,0,1,.41.82,1.22,1.22,0,0,1-.28.87L243.18,102a1.2,1.2,0,0,1-.91.41,1.18,1.18,0,0,1-.77-.28L229.08,91.42a1.21,1.21,0,0,1-.13-1.69l64.24-74.87a1.18,1.18,0,0,1,.91-.4m0-5.2a6.39,6.39,0,0,0-4.86,2.22L225,86.35a6.42,6.42,0,0,0,.69,9L238.11,106a6.41,6.41,0,0,0,9-.69l64.24-74.87a6.4,6.4,0,0,0-.69-9L298.25,10.79a6.35,6.35,0,0,0-4.15-1.53Z"/><polygon class="cls-9" points="100.93 333.31 201.88 36.39 223.33 43.68 122.38 340.6 100.71 369.13 100.93 333.31"/><path class="cls-5" d="M203.65,40l16.09,5.47-99.9,293.8-16.24,21.4.16-26.87L203.65,40m-3.54-7.18-102,300-.27,44.77L124.91,342l102-300L200.11,32.8Z"/><path class="cls-10" d="M103.14,330.33c2.72,4,13.24,7.18,18.46,6.74"/><path class="cls-11" d="M219.81,42a3.83,3.83,0,0,1-1.21-.19l-11.85-4A3.78,3.78,0,0,1,204.38,33l5.37-15.77a3.78,3.78,0,0,1,3.59-2.56,3.52,3.52,0,0,1,1.2.2l11.86,4a3.78,3.78,0,0,1,2.36,4.79L223.4,39.48A3.78,3.78,0,0,1,219.81,42Z"/><path class="cls-5" d="M213.34,17.39a1,1,0,0,1,.33.05l11.86,4a1.08,1.08,0,0,1,.61.55,1,1,0,0,1,.06.82l-5.36,15.77a1.08,1.08,0,0,1-1,.73,1,1,0,0,1-.34-.05l-11.85-4a1.07,1.07,0,0,1-.62-.55,1.1,1.1,0,0,1-.06-.82l5.36-15.77a1.11,1.11,0,0,1,1-.73m0-5.4a6.5,6.5,0,0,0-6.15,4.39l-5.36,15.77a6.49,6.49,0,0,0,4,8.22l11.85,4a6.31,6.31,0,0,0,2.08.35,6.52,6.52,0,0,0,6.15-4.4l5.36-15.77a6.5,6.5,0,0,0-4-8.22l-11.86-4a6.46,6.46,0,0,0-2.07-.34Z"/><path class="cls-2" d="M219.3,50.61a3.09,3.09,0,0,1-1-.17l-16.55-5.62a3.15,3.15,0,0,1-2-4l2.51-7.4a3.16,3.16,0,0,1,4-2l16.54,5.62a3.16,3.16,0,0,1,2,4l-2.51,7.4A3.18,3.18,0,0,1,219.3,50.61Z"/><path class="cls-5" d="M205.3,33.53a.65.65,0,0,1,.27,0l16.55,5.62a.9.9,0,0,1,.51.46.87.87,0,0,1,.05.69l-2.51,7.39a.92.92,0,0,1-.87.61.72.72,0,0,1-.28-.05l-16.54-5.62a.89.89,0,0,1-.52-.46,1,1,0,0,1-.05-.69l2.52-7.39a.92.92,0,0,1,.87-.61m0-4.52a5.46,5.46,0,0,0-5.15,3.68l-2.51,7.39A5.44,5.44,0,0,0,201,47l16.55,5.62a5.24,5.24,0,0,0,1.73.29,5.46,5.46,0,0,0,5.15-3.68L227,41.8a5.44,5.44,0,0,0-3.39-6.88L207,29.3A5.28,5.28,0,0,0,205.3,29Z"/><line class="cls-12" x1="207.29" y1="55.68" x2="115.62" y2="325.28"/><path class="cls-13" d="M93.78,223.42C135,162.09,314,85.53,330.6,90.91s13.31,26.16,9.4,27.93C111.29,222.48,84.74,278.21,84.74,278.21S84.85,236.71,93.78,223.42Z"/><path class="cls-14" d="M100.7,388.32c78.28,2.15,236.64-91.08,277.63-141.83,16.35-20.23,24.24-123.69-3-133S127.14,223.87,97.71,255.22C79.87,274.25,66.88,387.39,100.7,388.32Z"/><polygon class="cls-15" points="133.13 361.78 125.65 346.02 108.42 343.24 121.1 331.26 118.42 314.01 133.73 322.37 149.3 314.49 146.09 331.64 158.4 344.01 141.09 346.26 133.13 361.78"/><path class="cls-3" d="M42,351.72s5.63-93.23,33-120.17c107.78-106.25,269.25-154,269.25-154"/></g></g></svg>