<?xml version="1.0" encoding="UTF-8"?><svg id="Layer_2" xmlns="http://www.w3.org/2000/svg" viewBox="0 0 117.01 86.31"><defs><style>.cls-1{fill:#ffcb70;stroke-width:.91px;}.cls-1,.cls-2,.cls-3{stroke:#fff;stroke-linejoin:round;}.cls-2{fill:#85b5e1;}.cls-2,.cls-3{stroke-linecap:round;stroke-width:1.53px;}.cls-3{fill:#6563ac;}</style></defs><g id="Hybrid"><path class="cls-3" d="m69.73.77c25.69,0,46.51,13.73,46.51,30.67,0,8.19-4.87,15.62-12.79,21.12,2.99,10.58,12.37,18.31,12.37,18.31,0,0-20.01.2-30.32-10.58-4.92,1.17-10.23,1.81-15.77,1.81-25.69,0-46.51-13.73-46.51-30.67S44.04.77,69.73.77Z"/><path class="cls-1" d="m56.11,30.24l-.97-2.32-2.65.57c-.62-.88-1.4-1.62-2.27-2.19l.54-2.61-2.33-.95-1.47,2.27c-1.03-.18-2.11-.18-3.17.03l-1.47-2.23-2.32.97.56,2.62c-.91.63-1.68,1.41-2.27,2.3l-2.55-.53-.95,2.33,2.19,1.41c-.19,1-.2,2.05-.02,3.09l-2.26,1.49.97,2.32,2.59-.55c.62.94,1.41,1.74,2.31,2.35l-.54,2.63,2.33.95,1.44-2.23c1.07.21,2.18.22,3.28,0l1.47,2.24,2.32-.97-.56-2.61c.91-.62,1.68-1.4,2.27-2.28l2.69.56.95-2.33-2.31-1.49c.2-1.09.2-2.24-.04-3.37l2.21-1.45Z"/><circle class="cls-1" cx="45.46" cy="33.48" r="5.01"/><path class="cls-1" d="m83.96,44.26l.89-2.35-2.31-1.41c.15-1.07.1-2.13-.13-3.15l2.19-1.52-1.03-2.3-2.62.63c-.62-.84-1.4-1.58-2.32-2.16l.47-2.63-2.35-.89-1.4,2.28c-1.09-.17-2.19-.13-3.23.1l-1.48-2.13-2.3,1.03.61,2.53c-.83.6-1.56,1.35-2.14,2.23l-2.66-.48-.89,2.35,2.26,1.38c-.2,1.11-.17,2.23.06,3.3l-2.2,1.53,1.03,2.3,2.58-.62c.63.89,1.43,1.66,2.38,2.27l-.47,2.64,2.35.89,1.39-2.28c1.09.18,2.18.14,3.22-.09l1.57,2.26,2.3-1.03-.64-2.67c.9-.65,1.68-1.48,2.29-2.47l2.6.47Z"/><circle class="cls-1" cx="74" cy="39.28" r="5.01"/><path class="cls-1" d="m104.59,30.84l-1.02-2.3-2.63.62c-.64-.87-1.43-1.59-2.31-2.14l.49-2.62-2.35-.91-1.42,2.3c-1.04-.16-2.11-.14-3.17.09l-1.51-2.2-2.3,1.02.62,2.61c-.9.64-1.65,1.45-2.22,2.35l-2.56-.47-.91,2.35,2.21,1.37c-.17,1.01-.16,2.05.05,3.09l-2.23,1.53,1.02,2.3,2.57-.61c.64.93,1.45,1.71,2.36,2.31l-.49,2.64,2.35.91,1.39-2.25c1.07.19,2.18.17,3.28-.06l1.52,2.21,2.3-1.02-.61-2.6c.9-.64,1.65-1.43,2.23-2.33l2.7.5.91-2.35-2.34-1.44c.18-1.1.15-2.24-.11-3.36l2.18-1.5Z"/><circle class="cls-1" cx="94.01" cy="34.31" r="5.01"/><path class="cls-1" d="m73.22,19.04l-.97-2.32-2.65.57c-.62-.88-1.4-1.62-2.27-2.19l.54-2.61-2.33-.95-1.46,2.27c-1.03-.18-2.11-.18-3.17.03l-1.47-2.23-2.32.97.56,2.62c-.91.63-1.67,1.41-2.27,2.3l-2.55-.52-.95,2.33,2.19,1.41c-.19,1-.2,2.05-.01,3.09l-2.26,1.49.97,2.32,2.59-.56c.62.94,1.41,1.74,2.31,2.35l-.54,2.63,2.33.95,1.44-2.23c1.07.21,2.18.22,3.28,0l1.47,2.24,2.32-.97-.56-2.61c.91-.62,1.68-1.4,2.27-2.28l2.69.55.95-2.33-2.31-1.49c.2-1.09.2-2.24-.04-3.37l2.21-1.46Z"/><circle class="cls-1" cx="62.57" cy="22.29" r="5.01"/><path class="cls-2" d="m33.42,36.33C15.39,36.33.77,45.97.77,57.86c0,5.75,3.42,10.97,8.98,14.83-2.1,7.43-8.68,12.86-8.68,12.86,0,0,14.05.14,21.28-7.43,3.46.82,7.18,1.27,11.07,1.27,18.03,0,32.65-9.64,32.65-21.53s-14.62-21.53-32.65-21.53Z"/><path class="cls-1" d="m54.52,57.86l-.89-2.36-2.66.47c-.59-.9-1.34-1.67-2.18-2.27l.64-2.59-2.29-1.04-1.55,2.21c-1.03-.22-2.1-.26-3.17-.09l-1.38-2.28-2.36.89.46,2.64c-.93.59-1.73,1.35-2.35,2.21l-2.53-.62-1.04,2.29,2.13,1.49c-.23,1-.28,2.04-.13,3.08l-2.31,1.4.89,2.36,2.61-.46c.59.97,1.35,1.79,2.22,2.44l-.64,2.6,2.29,1.04,1.52-2.17c1.06.25,2.17.3,3.28.13l1.39,2.29,2.36-.89-.46-2.63c.93-.59,1.73-1.34,2.36-2.2l2.67.66,1.04-2.29-2.25-1.58c.24-1.09.28-2.23.08-3.36l2.26-1.37Z"/><circle class="cls-1" cx="43.76" cy="60.71" r="5.01"/><path class="cls-1" d="m29.9,45.84l-2.26-1.11-1.62,2.17c-1.05-.25-2.11-.3-3.15-.16l-1.31-2.33-2.38.81.38,2.67c-.9.54-1.71,1.25-2.37,2.1l-2.57-.72-1.11,2.26,2.14,1.61c-.28,1.07-.34,2.16-.2,3.23l-2.27,1.28.81,2.38,2.58-.37c.52.88,1.19,1.68,2.02,2.34l-.73,2.61,2.26,1.11,1.59-2.12c1.09.3,2.21.38,3.29.26l1.32,2.34,2.38-.81-.38-2.62c.94-.54,1.79-1.27,2.48-2.15l2.58.72,1.11-2.26-2.14-1.6c.28-1.07.35-2.16.22-3.22l2.4-1.35-.81-2.38-2.72.39c-.56-.96-1.32-1.82-2.24-2.51l.71-2.55Z"/><circle class="cls-1" cx="24" cy="55.28" r="5.01"/></g></svg>