<svg xmlns="http://www.w3.org/2000/svg" viewBox="0 0 545.58 498.99"><defs><style>.cls-1{fill:#ffcb70;}.cls-1,.cls-3,.cls-4,.cls-5{stroke:#fff;stroke-miterlimit:10;}.cls-1,.cls-3,.cls-5{stroke-width:10px;}.cls-2{fill:#fdbd58;}.cls-3,.cls-4{fill:none;}.cls-4{stroke-linecap:round;stroke-width:7.03px;}.cls-5{fill:#ffcb72;}</style></defs><g id="Layer_2" data-name="Layer 2"><g id="Ruler_Triangle_-_Middle" data-name="Ruler/Triangle - Middle"><rect class="cls-1" x="-13.54" y="146.61" width="563.93" height="77.25" transform="translate(-57.07 164.78) rotate(-31.01)"/><rect class="cls-2" x="-26.06" y="150.09" width="563.93" height="28.66" transform="translate(-48.13 155.35) rotate(-31.01)"/><rect class="cls-3" x="-13.54" y="146.61" width="563.93" height="77.25" transform="translate(-57.07 164.78) rotate(-31.01)"/><line class="cls-4" x1="57.61" y1="271.55" x2="64.86" y2="283.6"/><line class="cls-4" x1="73.7" y1="261.88" x2="80.95" y2="273.93"/><line class="cls-4" x1="25.44" y1="290.89" x2="32.68" y2="302.94"/><line class="cls-4" x1="41.52" y1="281.22" x2="48.77" y2="293.27"/><line class="cls-4" x1="138.05" y1="223.19" x2="145.3" y2="235.24"/><line class="cls-4" x1="154.14" y1="213.52" x2="161.39" y2="225.57"/><line class="cls-4" x1="105.88" y1="242.54" x2="113.12" y2="254.59"/><line class="cls-4" x1="121.96" y1="232.86" x2="129.21" y2="244.92"/><line class="cls-4" x1="218.49" y1="174.84" x2="225.74" y2="186.89"/><line class="cls-4" x1="234.58" y1="165.16" x2="241.83" y2="177.22"/><line class="cls-4" x1="186.32" y1="194.18" x2="193.56" y2="206.23"/><line class="cls-4" x1="202.41" y1="184.51" x2="209.65" y2="196.56"/><line class="cls-4" x1="298.93" y1="126.48" x2="306.18" y2="138.53"/><line class="cls-4" x1="315.02" y1="116.81" x2="322.27" y2="128.86"/><line class="cls-4" x1="266.76" y1="145.82" x2="274" y2="157.87"/><line class="cls-4" x1="282.85" y1="136.15" x2="290.09" y2="148.2"/><line class="cls-4" x1="379.37" y1="78.12" x2="386.62" y2="90.17"/><line class="cls-4" x1="395.46" y1="68.45" x2="402.71" y2="80.5"/><line class="cls-4" x1="347.2" y1="97.46" x2="354.44" y2="109.52"/><line class="cls-4" x1="363.29" y1="87.79" x2="370.53" y2="99.84"/><line class="cls-4" x1="89.79" y1="252.21" x2="106.09" y2="279.32"/><line class="cls-4" x1="170.23" y1="203.85" x2="186.53" y2="230.97"/><line class="cls-4" x1="250.67" y1="155.49" x2="266.97" y2="182.61"/><line class="cls-4" x1="331.11" y1="107.14" x2="347.41" y2="134.25"/><line class="cls-4" x1="411.55" y1="58.78" x2="427.85" y2="85.89"/><line class="cls-4" x1="459.82" y1="29.76" x2="467.06" y2="41.81"/><line class="cls-4" x1="475.9" y1="20.09" x2="483.15" y2="32.14"/><line class="cls-4" x1="427.64" y1="49.11" x2="434.88" y2="61.16"/><line class="cls-4" x1="443.73" y1="39.44" x2="450.97" y2="51.49"/><path class="cls-5" d="M532.85,493.26,102.6,424.21l4.93-30.73a217.88,217.88,0,0,1,430.25,69ZM177,373.1l301.2,48.34A155.69,155.69,0,0,0,177,373.1Z"/><polygon class="cls-2" points="105.81 402.81 102.6 424.21 532.85 493.26 536.05 471.86 105.81 402.81"/><path class="cls-3" d="M532.85,493.26,102.6,424.21l4.93-30.73a217.88,217.88,0,0,1,430.25,69ZM177,373.1l301.2,48.34A155.69,155.69,0,0,0,177,373.1Z"/><line class="cls-4" x1="512.58" y1="490.75" x2="514.81" y2="476.86"/><line class="cls-4" x1="441.78" y1="479.38" x2="444.01" y2="465.5"/><line class="cls-4" x1="424.08" y1="476.54" x2="426.31" y2="462.66"/><line class="cls-4" x1="477.18" y1="485.07" x2="479.41" y2="471.18"/><line class="cls-4" x1="459.48" y1="482.23" x2="461.71" y2="468.34"/><line class="cls-4" x1="353.27" y1="465.18" x2="355.5" y2="451.3"/><line class="cls-4" x1="335.57" y1="462.34" x2="337.8" y2="448.46"/><line class="cls-4" x1="388.68" y1="470.86" x2="390.9" y2="456.98"/><line class="cls-4" x1="370.97" y1="468.02" x2="373.2" y2="454.14"/><line class="cls-4" x1="264.77" y1="450.98" x2="267" y2="437.09"/><line class="cls-4" x1="247.07" y1="448.13" x2="249.29" y2="434.25"/><line class="cls-4" x1="300.17" y1="456.66" x2="302.4" y2="442.77"/><line class="cls-4" x1="320.49" y1="224.92" x2="320.28" y2="210.86"/><line class="cls-4" x1="282.47" y1="453.82" x2="284.7" y2="439.93"/><line class="cls-4" x1="176.26" y1="436.77" x2="178.49" y2="422.89"/><line class="cls-4" x1="158.56" y1="433.93" x2="160.79" y2="420.05"/><line class="cls-4" x1="211.66" y1="442.45" x2="213.89" y2="428.57"/><line class="cls-4" x1="193.96" y1="439.61" x2="196.19" y2="425.73"/><line class="cls-4" x1="495.06" y1="486.8" x2="498.96" y2="462.5"/><line class="cls-4" x1="406.55" y1="472.59" x2="410.45" y2="448.3"/><line class="cls-4" x1="318.05" y1="458.39" x2="321.95" y2="434.09"/><line class="cls-4" x1="353.47" y1="237.71" x2="357.36" y2="213.42"/><line class="cls-4" x1="229.54" y1="444.18" x2="233.44" y2="419.89"/><line class="cls-4" x1="141.04" y1="429.98" x2="144.94" y2="405.68"/><line class="cls-4" x1="123.16" y1="428.25" x2="125.39" y2="414.36"/><line class="cls-4" x1="287.43" y1="227.97" x2="284.77" y2="214.16"/><line class="cls-4" x1="258.69" y1="234.77" x2="253.68" y2="221.64"/><line class="cls-4" x1="228.82" y1="247.67" x2="221.6" y2="235.6"/><line class="cls-4" x1="202.29" y1="265.94" x2="193.08" y2="255.3"/><line class="cls-4" x1="175.68" y1="287.21" x2="164.77" y2="278.34"/><line class="cls-4" x1="156.63" y1="310.31" x2="144.35" y2="303.47"/><line class="cls-4" x1="140.04" y1="338.12" x2="126.75" y2="333.52"/><line class="cls-4" x1="139.62" y1="372.02" x2="115.32" y2="368.12"/><line class="cls-4" x1="388.87" y1="235.89" x2="393.47" y2="222.61"/><line class="cls-4" x1="419.32" y1="249.14" x2="426.16" y2="236.86"/><line class="cls-4" x1="444.48" y1="264.59" x2="453.35" y2="253.68"/><line class="cls-4" x1="468.82" y1="286.18" x2="479.45" y2="276.98"/><line class="cls-4" x1="488.3" y1="311.84" x2="500.37" y2="304.62"/><line class="cls-4" x1="506.92" y1="340.37" x2="520.06" y2="335.36"/><line class="cls-4" x1="517.78" y1="368.27" x2="531.59" y2="365.62"/><line class="cls-4" x1="524.84" y1="399.88" x2="538.9" y2="399.66"/><line class="cls-4" x1="514.63" y1="432.21" x2="538.93" y2="436.11"/></g></g></svg>