<?xml version="1.0" encoding="utf-8"?>
<!-- Generator: Adobe Illustrator 25.4.1, SVG Export Plug-In . SVG Version: 6.00 Build 0)  -->
<svg version="1.1" id="Layer_1" xmlns="http://www.w3.org/2000/svg" xmlns:xlink="http://www.w3.org/1999/xlink" x="0px" y="0px"
	 viewBox="0 0 545.6 499" style="enable-background:new 0 0 545.6 499;" xml:space="preserve">
<style type="text/css">
	.st0{opacity:0.25;}
	.st1{fill:#FFCB70;stroke:#FFFFFF;stroke-width:10;stroke-miterlimit:10;}
	.st2{fill:#FDBD58;}
	.st3{fill:none;stroke:#FFFFFF;stroke-width:10;stroke-miterlimit:10;}
	.st4{fill:none;stroke:#FFFFFF;stroke-width:7.03;stroke-linecap:round;stroke-miterlimit:10;}
	.st5{fill:#FFCB72;stroke:#FFFFFF;stroke-width:10;stroke-miterlimit:10;}
</style>
<g id="Layer_2_00000150804114571558913070000001140479781079299740_" class="st0">
	<g id="Ruler_Triangle_-_Middle">
		
			<rect x="-13.5" y="146.6" transform="matrix(0.8571 -0.5152 0.5152 0.8571 -57.0757 164.7642)" class="st1" width="563.9" height="77.2"/>
		
			<rect x="-26.1" y="150.1" transform="matrix(0.8571 -0.5152 0.5152 0.8571 -48.1381 155.3414)" class="st2" width="563.9" height="28.7"/>
		
			<rect x="-13.5" y="146.6" transform="matrix(0.8571 -0.5152 0.5152 0.8571 -57.0757 164.7642)" class="st3" width="563.9" height="77.2"/>
		<line class="st4" x1="57.6" y1="271.5" x2="64.9" y2="283.6"/>
		<line class="st4" x1="73.7" y1="261.9" x2="80.9" y2="273.9"/>
		<line class="st4" x1="25.4" y1="290.9" x2="32.7" y2="302.9"/>
		<line class="st4" x1="41.5" y1="281.2" x2="48.8" y2="293.3"/>
		<line class="st4" x1="138.1" y1="223.2" x2="145.3" y2="235.2"/>
		<line class="st4" x1="154.1" y1="213.5" x2="161.4" y2="225.6"/>
		<line class="st4" x1="105.9" y1="242.5" x2="113.1" y2="254.6"/>
		<line class="st4" x1="122" y1="232.9" x2="129.2" y2="244.9"/>
		<line class="st4" x1="218.5" y1="174.8" x2="225.7" y2="186.9"/>
		<line class="st4" x1="234.6" y1="165.2" x2="241.8" y2="177.2"/>
		<line class="st4" x1="186.3" y1="194.2" x2="193.6" y2="206.2"/>
		<line class="st4" x1="202.4" y1="184.5" x2="209.6" y2="196.6"/>
		<line class="st4" x1="298.9" y1="126.5" x2="306.2" y2="138.5"/>
		<line class="st4" x1="315" y1="116.8" x2="322.3" y2="128.9"/>
		<line class="st4" x1="266.8" y1="145.8" x2="274" y2="157.9"/>
		<line class="st4" x1="282.9" y1="136.1" x2="290.1" y2="148.2"/>
		<line class="st4" x1="379.4" y1="78.1" x2="386.6" y2="90.2"/>
		<line class="st4" x1="395.5" y1="68.4" x2="402.7" y2="80.5"/>
		<line class="st4" x1="347.2" y1="97.5" x2="354.4" y2="109.5"/>
		<line class="st4" x1="363.3" y1="87.8" x2="370.5" y2="99.8"/>
		<line class="st4" x1="89.8" y1="252.2" x2="106.1" y2="279.3"/>
		<line class="st4" x1="170.2" y1="203.9" x2="186.5" y2="231"/>
		<line class="st4" x1="250.7" y1="155.5" x2="267" y2="182.6"/>
		<line class="st4" x1="331.1" y1="107.1" x2="347.4" y2="134.2"/>
		<line class="st4" x1="411.5" y1="58.8" x2="427.9" y2="85.9"/>
		<line class="st4" x1="459.8" y1="29.8" x2="467.1" y2="41.8"/>
		<line class="st4" x1="475.9" y1="20.1" x2="483.1" y2="32.1"/>
		<line class="st4" x1="427.6" y1="49.1" x2="434.9" y2="61.2"/>
		<line class="st4" x1="443.7" y1="39.4" x2="451" y2="51.5"/>
		<path class="st5" d="M532.8,493.3l-430.2-69.1l4.9-30.7c19.9-118.7,132.3-198.7,251-178.8c117.4,19.7,197.2,130.1,179.3,247.8
			L532.8,493.3z M177,373.1l301.2,48.3c-3.7-85.9-76.3-152.6-162.2-148.9C253.7,275.2,199,314.8,177,373.1z"/>
		<polygon class="st2" points="105.8,402.8 102.6,424.2 532.8,493.3 536,471.9 		"/>
		<path class="st3" d="M532.8,493.3l-430.2-69.1l4.9-30.7c19.9-118.7,132.3-198.7,251-178.8c117.4,19.7,197.2,130.1,179.3,247.8
			L532.8,493.3z M177,373.1l301.2,48.3c-3.7-85.9-76.3-152.6-162.2-148.9C253.7,275.2,199,314.8,177,373.1z"/>
		<line class="st4" x1="512.6" y1="490.8" x2="514.8" y2="476.9"/>
		<line class="st4" x1="441.8" y1="479.4" x2="444" y2="465.5"/>
		<line class="st4" x1="424.1" y1="476.5" x2="426.3" y2="462.7"/>
		<line class="st4" x1="477.2" y1="485.1" x2="479.4" y2="471.2"/>
		<line class="st4" x1="459.5" y1="482.2" x2="461.7" y2="468.3"/>
		<line class="st4" x1="353.3" y1="465.2" x2="355.5" y2="451.3"/>
		<line class="st4" x1="335.6" y1="462.3" x2="337.8" y2="448.5"/>
		<line class="st4" x1="388.7" y1="470.9" x2="390.9" y2="457"/>
		<line class="st4" x1="371" y1="468" x2="373.2" y2="454.1"/>
		<line class="st4" x1="264.8" y1="451" x2="267" y2="437.1"/>
		<line class="st4" x1="247.1" y1="448.1" x2="249.3" y2="434.2"/>
		<line class="st4" x1="300.2" y1="456.7" x2="302.4" y2="442.8"/>
		<line class="st4" x1="320.5" y1="224.9" x2="320.3" y2="210.9"/>
		<line class="st4" x1="282.5" y1="453.8" x2="284.7" y2="439.9"/>
		<line class="st4" x1="176.3" y1="436.8" x2="178.5" y2="422.9"/>
		<line class="st4" x1="158.6" y1="433.9" x2="160.8" y2="420"/>
		<line class="st4" x1="211.7" y1="442.5" x2="213.9" y2="428.6"/>
		<line class="st4" x1="194" y1="439.6" x2="196.2" y2="425.7"/>
		<line class="st4" x1="495.1" y1="486.8" x2="499" y2="462.5"/>
		<line class="st4" x1="406.5" y1="472.6" x2="410.5" y2="448.3"/>
		<line class="st4" x1="318" y1="458.4" x2="322" y2="434.1"/>
		<line class="st4" x1="353.5" y1="237.7" x2="357.4" y2="213.4"/>
		<line class="st4" x1="229.5" y1="444.2" x2="233.4" y2="419.9"/>
		<line class="st4" x1="141" y1="430" x2="144.9" y2="405.7"/>
		<line class="st4" x1="123.2" y1="428.2" x2="125.4" y2="414.4"/>
		<line class="st4" x1="287.4" y1="228" x2="284.8" y2="214.2"/>
		<line class="st4" x1="258.7" y1="234.8" x2="253.7" y2="221.6"/>
		<line class="st4" x1="228.8" y1="247.7" x2="221.6" y2="235.6"/>
		<line class="st4" x1="202.3" y1="265.9" x2="193.1" y2="255.3"/>
		<line class="st4" x1="175.7" y1="287.2" x2="164.8" y2="278.3"/>
		<line class="st4" x1="156.6" y1="310.3" x2="144.4" y2="303.5"/>
		<line class="st4" x1="140" y1="338.1" x2="126.8" y2="333.5"/>
		<line class="st4" x1="139.6" y1="372" x2="115.3" y2="368.1"/>
		<line class="st4" x1="388.9" y1="235.9" x2="393.5" y2="222.6"/>
		<line class="st4" x1="419.3" y1="249.1" x2="426.2" y2="236.9"/>
		<line class="st4" x1="444.5" y1="264.6" x2="453.4" y2="253.7"/>
		<line class="st4" x1="468.8" y1="286.2" x2="479.5" y2="277"/>
		<line class="st4" x1="488.3" y1="311.8" x2="500.4" y2="304.6"/>
		<line class="st4" x1="506.9" y1="340.4" x2="520.1" y2="335.4"/>
		<line class="st4" x1="517.8" y1="368.3" x2="531.6" y2="365.6"/>
		<line class="st4" x1="524.8" y1="399.9" x2="538.9" y2="399.7"/>
		<line class="st4" x1="514.6" y1="432.2" x2="538.9" y2="436.1"/>
	</g>
</g>
</svg>
