<?xml version="1.0" encoding="utf-8"?>
<!-- Generator: Adobe Illustrator 25.4.1, SVG Export Plug-In . SVG Version: 6.00 Build 0)  -->
<svg version="1.1" id="Layer_1" xmlns="http://www.w3.org/2000/svg" xmlns:xlink="http://www.w3.org/1999/xlink" x="0px" y="0px"
	 viewBox="0 0 968.5 942.7" style="enable-background:new 0 0 968.5 942.7;" xml:space="preserve">
<style type="text/css">
	.st0{opacity:0.2;}
	.st1{fill:#3CC0C0;stroke:#FFFFFF;stroke-width:19.5;stroke-miterlimit:10;}
	.st2{fill:none;stroke:#FFFFFF;stroke-width:13;stroke-miterlimit:10;}
	.st3{fill:#6564AD;stroke:#FFFFFF;stroke-width:19.5;stroke-miterlimit:10;}
	.st4{fill:#FFCB72;stroke:#FFFFFF;stroke-width:19.5;stroke-miterlimit:10;}
	.st5{fill:#F178A5;stroke:#FFFFFF;stroke-width:19.5;stroke-miterlimit:10;}
	.st6{fill:#82B5E2;stroke:#FFFFFF;stroke-width:19.5;stroke-miterlimit:10;}
	.st7{fill:#F15F60;stroke:#FFFFFF;stroke-width:19.5;stroke-miterlimit:10;}
	.st8{fill:none;stroke:#FFFFFF;stroke-width:13.037;stroke-miterlimit:10.0285;}
</style>
<g id="Layer_2_00000137810774921567464380000000200982414592412862_" class="st0">
	<g id="Crayons_-_Preschool">
		<path class="st1" d="M27.5,35L95,95.8c6.6,5.9,14.2,3.9,16.9-4.6l20.6-64.6c2.7-8.4-2.3-14.5-11.1-13.5L31,23.7
			C23.2,24.6,21.6,29.7,27.5,35z"/>
		<path class="st1" d="M95.6,94.8l25.6-80.5c1.1-3.4,4.7-5.3,8.2-4.2l421.1,134c3.4,1.1,5.3,4.7,4.2,8.2l-25.6,80.5
			c-1.1,3.4-4.7,5.3-8.2,4.2L99.8,103C96.4,101.9,94.5,98.2,95.6,94.8z"/>
		
			<rect x="451.7" y="168.3" transform="matrix(0.3032 -0.9529 0.9529 0.3032 177.8225 601.8219)" class="st2" width="97.5" height="22.1"/>
		
			<rect x="101.2" y="56.7" transform="matrix(0.3032 -0.9529 0.9529 0.3032 39.913 190.0602)" class="st2" width="97.5" height="22.1"/>
		<path class="st3" d="M26.4,287.6l-13.1,89.9c-1.3,8.8,4.6,13.9,13.2,11.5l65.2-18.8c8.5-2.5,10.8-10,5-16.7l-58.9-69.2
			C32.7,278.3,27.5,279.8,26.4,287.6z"/>
		<path class="st3" d="M14.5,377.5l81.2-23.4c3.4-1,7.1,1,8,4.4l122.2,424.7c1,3.4-1,7.1-4.4,8l-81.2,23.4c-3.4,1-7.1-1-8-4.4
			L10,385.5C9,382.1,11,378.5,14.5,377.5z"/>
		
			<rect x="120" y="750.1" transform="matrix(0.961 -0.2765 0.2765 0.961 -203.8645 76.3258)" class="st2" width="97.5" height="22.1"/>
		
			<rect x="18.3" y="396.6" transform="matrix(0.961 -0.2765 0.2765 0.961 -110.0913 34.4375)" class="st2" width="97.5" height="22.1"/>
		<path class="st4" d="M192.1,921.6l90.7,5.5c8.9,0.5,13.5-5.8,10.4-14.1l-24.1-63.4c-3.1-8.3-10.8-9.9-17.1-3.6l-64,64.5
			C182.4,916.2,184.3,921.2,192.1,921.6z"/>
		<path class="st4" d="M282.7,926l-30.1-79c-1.3-3.4,0.4-7.1,3.8-8.4l413-157.2c3.4-1.3,7.1,0.4,8.4,3.8l30.1,79
			c1.3,3.4-0.4,7.1-3.8,8.4l-413,157.2C287.8,931.1,284,929.4,282.7,926z"/>
		
			<rect x="641.1" y="691.4" transform="matrix(0.9346 -0.3558 0.3558 0.9346 -220.662 280.4439)" class="st2" width="22.1" height="97.5"/>
		
			<rect x="297.3" y="822.3" transform="matrix(0.9346 -0.3558 0.3558 0.9346 -289.7078 166.6988)" class="st2" width="22.1" height="97.5"/>
		<path class="st5" d="M508.9,389l88.4-20.8c8.6-2,11.3-9.4,5.9-16.5L561.8,298c-5.4-7-13.2-6.4-17.4,1.5l-42.8,80.2
			C498,386.6,501.2,390.8,508.9,389z"/>
		<path class="st5" d="M596.9,367.1l-51.5-66.9c-2.2-2.8-1.7-6.9,1.2-9.1L896.7,21.4c2.8-2.2,6.9-1.7,9.1,1.2l51.5,66.9
			c2.2,2.8,1.7,6.9-1.2,9.1L606,368.3C603.2,370.5,599.1,369.9,596.9,367.1z"/>
		
			<rect x="886.1" y="33.9" transform="matrix(0.7924 -0.61 0.61 0.7924 135.8248 564.4086)" class="st2" width="22.1" height="97.5"/>
		
			<rect x="594.6" y="258.3" transform="matrix(0.7924 -0.61 0.61 0.7924 -61.5675 433.1896)" class="st2" width="22.1" height="97.5"/>
		<path class="st6" d="M935,408l-62.3,66.1c-6.1,6.5-4.2,14.1,4.2,17l64.1,22c8.4,2.9,14.6-2,13.7-10.8l-8.5-90.5
			C945.5,404,940.5,402.3,935,408z"/>
		<path class="st6" d="M873.7,474.8l79.9,27.4c3.4,1.2,5.2,4.9,4,8.3l-143.5,418c-1.2,3.4-4.9,5.2-8.3,4l-79.9-27.4
			c-3.4-1.2-5.2-4.9-4-8.3l143.5-418C866.6,475.5,870.3,473.7,873.7,474.8z"/>
		
			<rect x="769" y="828.9" transform="matrix(0.3247 -0.9458 0.9458 0.3247 -303.3493 1330.4513)" class="st2" width="22.1" height="97.5"/>
		
			<rect x="888.5" y="481" transform="matrix(0.3247 -0.9458 0.9458 0.3247 106.3722 1208.4888)" class="st2" width="22.1" height="97.5"/>
		<path class="st7" d="M767.7,534.3l-75.8-50.1c-7.4-4.9-14.6-1.7-16,7l-10.7,67c-1.4,8.8,4.4,14,13,11.7l87.7-23.8
			C773.5,543.9,774.3,538.6,767.7,534.3z"/>
		<path class="st7" d="M691.4,485.2L678,568.6c-0.6,3.5-3.9,6-7.4,5.4l-436.4-70c-3.5-0.6-6-3.9-5.4-7.4l13.4-83.4
			c0.6-3.5,3.9-6,7.4-5.4l436.4,70C689.6,478.3,692,481.7,691.4,485.2z"/>
		
			<rect x="229.8" y="450.7" transform="matrix(0.1585 -0.9874 0.9874 0.1585 -221.5631 663.5632)" class="st2" width="97.5" height="22.1"/>
		
			<rect x="593.7" y="511.3" transform="matrix(0.1595 -0.9872 0.9872 0.1595 24.3693 1073.4467)" class="st8" width="97.8" height="22.2"/>
	</g>
</g>
</svg>
