<svg xmlns="http://www.w3.org/2000/svg" viewBox="0 0 968.49 942.65"><defs><style>.cls-1{fill:#3cc0c0;}.cls-1,.cls-2,.cls-3,.cls-4,.cls-5,.cls-6,.cls-7{stroke:#fff;stroke-miterlimit:10;}.cls-1,.cls-3,.cls-4,.cls-5,.cls-6,.cls-7{stroke-width:19.5px;}.cls-2{fill:none;stroke-width:13px;}.cls-3{fill:#6564ad;}.cls-4{fill:#ffcb72;}.cls-5{fill:#f178a5;}.cls-6{fill:#82b5e2;}.cls-7{fill:#f15f60;}</style></defs><g id="Layer_2" data-name="Layer 2"><g id="Crayons_-_Preschool" data-name="Crayons - Preschool"><path class="cls-1" d="M27.46,35,95,95.78c6.59,5.93,14.18,3.87,16.86-4.58l20.57-64.62c2.69-8.44-2.32-14.51-11.12-13.48L31.05,23.69C23.2,24.61,21.58,29.69,27.46,35Z"/><rect class="cls-1" x="276.44" y="-103.95" width="97.49" height="454.94" rx="6.5" transform="translate(108.87 395.93) rotate(-72.35)"/><rect class="cls-2" x="489.4" y="130.55" width="22.1" height="97.49" transform="translate(922.96 501.91) rotate(-162.35)"/><rect class="cls-2" x="138.87" y="19" width="22.1" height="97.49" transform="translate(272.24 177.75) rotate(-162.35)"/><path class="cls-3" d="M26.39,287.61,13.28,377.52C12,386.29,17.92,391.46,26.44,389l65.17-18.75c8.52-2.45,10.79-10,5-16.73l-58.88-69.2C32.65,278.32,27.53,279.79,26.39,287.61Z"/><rect class="cls-3" x="69.19" y="356.96" width="97.49" height="454.94" rx="6.5" transform="translate(-156.96 55.37) rotate(-16.05)"/><rect class="cls-2" x="157.72" y="712.44" width="22.1" height="97.49" transform="translate(-516.1 1133.8) rotate(-106.05)"/><rect class="cls-2" x="56.04" y="358.93" width="22.1" height="97.49" transform="translate(-306.15 584.84) rotate(-106.05)"/><path class="cls-4" d="M192.15,921.64l90.69,5.55c8.85.55,13.51-5.79,10.36-14.07l-24.13-63.38c-3.15-8.29-10.84-9.92-17.09-3.63l-64,64.46C182.37,916.17,184.27,921.15,192.15,921.64Z"/><rect class="cls-4" x="431.55" y="578.15" width="97.49" height="454.94" rx="6.5" transform="translate(-101.76 1541.09) rotate(-110.84)"/><rect class="cls-2" x="641.13" y="691.44" width="22.1" height="97.49" transform="translate(1525.02 1199.93) rotate(159.16)"/><rect class="cls-2" x="297.35" y="822.31" width="22.1" height="97.49" transform="translate(906.5 1575.4) rotate(159.16)"/><path class="cls-5" d="M508.91,389l88.44-20.81c8.63-2,11.27-9.44,5.86-16.47L561.84,298c-5.41-7-13.24-6.37-17.41,1.45l-42.75,80.18C498,386.59,501.22,390.81,508.91,389Z"/><rect class="cls-5" x="702.64" y="-32.61" width="97.49" height="454.94" rx="6.5" transform="translate(1055.33 909.12) rotate(-127.59)"/><rect class="cls-2" x="886.07" y="33.92" width="22.1" height="97.49" transform="translate(1658.42 -399.09) rotate(142.41)"/><rect class="cls-2" x="594.59" y="258.32" width="22.1" height="97.49" transform="translate(1272.86 180.92) rotate(142.41)"/><path class="cls-6" d="M935,408l-62.31,66.13c-6.08,6.45-4.19,14.09,4.19,17l64.14,22c8.39,2.87,14.56-2,13.73-10.82l-8.55-90.46C945.49,404,940.45,402.29,935,408Z"/><rect class="cls-6" x="791.04" y="476.22" width="97.49" height="454.94" rx="6.5" transform="translate(274.02 -234.57) rotate(18.95)"/><rect class="cls-2" x="769.01" y="828.91" width="22.1" height="97.49" transform="translate(-303.33 1330.44) rotate(-71.05)"/><rect class="cls-2" x="888.46" y="480.99" width="22.1" height="97.49" transform="translate(106.39 1208.48) rotate(-71.05)"/><path class="cls-7" d="M767.7,534.26l-75.8-50.1c-7.39-4.89-14.59-1.73-16,7l-10.74,67c-1.41,8.75,4.44,14,13,11.68L765.83,546C773.45,543.88,774.29,538.61,767.7,534.26Z"/><rect class="cls-7" x="411.38" y="263.43" width="97.49" height="454.94" rx="6.5" transform="translate(1017.73 114.36) rotate(99.12)"/><rect class="cls-2" x="267.48" y="413.01" width="22.1" height="97.49" transform="translate(76.69 -38.3) rotate(9.12)"/><rect class="cls-2" x="630.68" y="471.3" width="22.1" height="97.49" transform="matrix(0.99, 0.16, -0.16, 0.99, 90.51, -95.11)"/></g></g></svg>