<svg xmlns="http://www.w3.org/2000/svg" viewBox="0 0 393.92 399.72"><defs><style>.cls-1{fill:#86b5e1;}.cls-1,.cls-2,.cls-3,.cls-4,.cls-8{stroke:#fff;}.cls-1,.cls-2,.cls-3,.cls-4{stroke-linejoin:round;}.cls-1,.cls-2{stroke-width:7.54px;}.cls-2{fill:#fecb6f;}.cls-3{fill:#f15f60;}.cls-3,.cls-4,.cls-8{stroke-linecap:round;}.cls-3,.cls-4{stroke-width:11.31px;}.cls-4,.cls-8{fill:none;}.cls-5{fill:#fff;}.cls-6{fill:#6562ac;}.cls-7{fill:#636e73;}.cls-8{stroke-miterlimit:10;stroke-width:4.52px;}.cls-9{fill:#2d3436;}</style></defs><g id="Layer_2" data-name="Layer 2"><g id="Notebook_-_Private" data-name="Notebook - Private"><polygon class="cls-1" points="59.93 26.05 45.05 7.33 53.34 62.24 76.91 58.68 68.61 3.77 59.93 26.05"/><polygon class="cls-2" points="269.05 246.94 249.53 256.46 304.43 248.16 302.5 235.32 247.59 243.62 269.05 246.94"/><polygon class="cls-2" points="266.37 280.26 246.84 289.78 301.75 281.49 299.81 268.65 244.91 276.94 266.37 280.26"/><polygon class="cls-2" points="282.53 316.4 263 325.92 317.91 317.63 315.97 304.79 261.07 313.08 282.53 316.4"/><rect class="cls-3" x="35.47" y="33.59" width="235.29" height="344.83" transform="translate(-29.05 25.18) rotate(-8.59)"/><line class="cls-4" x1="88.08" y1="120.56" x2="196.78" y2="104.15"/><line class="cls-4" x1="91.46" y1="142.92" x2="200.15" y2="126.51"/><line class="cls-4" x1="94.83" y1="165.28" x2="203.53" y2="148.87"/><circle class="cls-5" cx="21.17" cy="64.06" r="4.9"/><circle class="cls-5" cx="23.17" cy="77.26" r="4.9"/><circle class="cls-5" cx="25.16" cy="90.46" r="4.9"/><circle class="cls-5" cx="27.15" cy="103.66" r="4.9"/><circle class="cls-5" cx="29.15" cy="116.86" r="4.9"/><circle class="cls-5" cx="31.14" cy="130.06" r="4.9"/><circle class="cls-5" cx="33.14" cy="143.26" r="4.9"/><circle class="cls-5" cx="35.13" cy="156.45" r="4.9"/><circle class="cls-5" cx="37.12" cy="169.65" r="4.9"/><circle class="cls-5" cx="39.12" cy="182.85" r="4.9"/><circle class="cls-5" cx="41.11" cy="196.05" r="4.9"/><circle class="cls-5" cx="43.1" cy="209.25" r="4.9"/><circle class="cls-5" cx="45.1" cy="222.45" r="4.9"/><circle class="cls-5" cx="47.09" cy="235.65" r="4.9"/><circle class="cls-5" cx="49.08" cy="248.85" r="4.9"/><circle class="cls-5" cx="51.08" cy="262.04" r="4.9"/><circle class="cls-5" cx="53.07" cy="275.24" r="4.9"/><circle class="cls-5" cx="55.07" cy="288.44" r="4.9"/><circle class="cls-5" cx="57.06" cy="301.64" r="4.9"/><circle class="cls-5" cx="59.05" cy="314.84" r="4.9"/><circle class="cls-5" cx="61.05" cy="328.04" r="4.9"/><circle class="cls-5" cx="63.04" cy="341.24" r="4.9"/><circle class="cls-5" cx="65.03" cy="354.44" r="4.9"/><circle class="cls-5" cx="67.03" cy="367.64" r="4.9"/><circle class="cls-5" cx="69.02" cy="380.83" r="4.9"/><path class="cls-5" d="M20.42,67.78,4.1,70.25A3.57,3.57,0,0,1,3,63.2l16.33-2.47a3.56,3.56,0,0,1,1.06,7.05Z"/><path class="cls-5" d="M22.42,81,6.09,83.44A3.56,3.56,0,1,1,5,76.4l16.32-2.47a3.57,3.57,0,1,1,1.07,7Z"/><path class="cls-5" d="M24.41,94.18,8.08,96.64A3.56,3.56,0,0,1,7,89.6l16.33-2.47a3.56,3.56,0,0,1,1.06,7.05Z"/><path class="cls-5" d="M26.4,107.38l-16.32,2.46a3.57,3.57,0,1,1-1.07-7l16.33-2.46a3.56,3.56,0,1,1,1.06,7Z"/><path class="cls-5" d="M28.4,120.58,12.07,123A3.56,3.56,0,0,1,11,116l16.32-2.46a3.57,3.57,0,0,1,1.07,7Z"/><path class="cls-5" d="M30.39,133.77l-16.33,2.47A3.56,3.56,0,0,1,13,129.19l16.33-2.46a3.56,3.56,0,0,1,1.06,7Z"/><path class="cls-5" d="M32.39,147l-16.33,2.47A3.57,3.57,0,0,1,15,142.39l16.33-2.46a3.56,3.56,0,1,1,1.07,7Z"/><path class="cls-5" d="M34.38,160.17l-16.33,2.47a3.56,3.56,0,0,1-1.06-7l16.32-2.47a3.57,3.57,0,0,1,1.07,7Z"/><path class="cls-5" d="M36.37,173.37l-16.32,2.47A3.57,3.57,0,0,1,19,168.79l16.33-2.47a3.56,3.56,0,0,1,1.06,7.05Z"/><path class="cls-5" d="M40.36,199.77,24,202.23a3.56,3.56,0,0,1-1.06-7l16.33-2.47a3.56,3.56,0,0,1,1.06,7.05Z"/><path class="cls-5" d="M44.35,226.17,28,228.63a3.56,3.56,0,1,1-1.06-7l16.32-2.46a3.57,3.57,0,0,1,1.07,7Z"/><path class="cls-5" d="M48.33,252.56,32,255A3.57,3.57,0,1,1,30.94,248l16.33-2.46a3.56,3.56,0,1,1,1.06,7Z"/><path class="cls-5" d="M52.32,279,36,281.43a3.56,3.56,0,0,1-1.06-7.05l16.33-2.47a3.56,3.56,0,0,1,1.06,7Z"/><path class="cls-5" d="M56.31,305.36,40,307.82a3.56,3.56,0,1,1-1.06-7l16.32-2.47a3.57,3.57,0,0,1,1.07,7.05Z"/><path class="cls-5" d="M60.3,331.76,44,334.22a3.56,3.56,0,1,1-1.07-7l16.33-2.47a3.57,3.57,0,0,1,1.07,7.05Z"/><path class="cls-5" d="M38.37,186.57,22,189A3.57,3.57,0,0,1,21,182l16.33-2.47a3.57,3.57,0,0,1,1.07,7Z"/><path class="cls-5" d="M42.35,213,26,215.43a3.56,3.56,0,1,1-1.07-7l16.33-2.47A3.56,3.56,0,0,1,42.35,213Z"/><path class="cls-5" d="M46.34,239.36,30,241.83A3.56,3.56,0,0,1,29,234.78l16.33-2.46a3.56,3.56,0,1,1,1.06,7Z"/><path class="cls-5" d="M50.33,265.76,34,268.23a3.56,3.56,0,0,1-1.06-7.05l16.32-2.47a3.57,3.57,0,0,1,1.07,7.05Z"/><path class="cls-5" d="M54.32,292.16,38,294.63a3.57,3.57,0,0,1-1.07-7.05l16.33-2.47a3.57,3.57,0,0,1,1.07,7.05Z"/><path class="cls-5" d="M58.3,318.56,42,321a3.56,3.56,0,1,1-1.07-7l16.33-2.47a3.56,3.56,0,0,1,1.06,7.05Z"/><path class="cls-5" d="M62.29,345,46,347.42a3.56,3.56,0,0,1-1.06-7.05l16.33-2.46a3.56,3.56,0,0,1,1.06,7Z"/><path class="cls-5" d="M64.28,358.15,48,360.62a3.57,3.57,0,1,1-1.07-7.05l16.33-2.46a3.56,3.56,0,1,1,1.06,7Z"/><path class="cls-5" d="M66.28,371.35,50,373.82a3.56,3.56,0,1,1-1.06-7.05l16.32-2.46a3.56,3.56,0,1,1,1.07,7Z"/><path class="cls-5" d="M68.27,384.55,51.94,387a3.56,3.56,0,0,1-1.06-7l16.33-2.47a3.56,3.56,0,0,1,1.06,7.05Z"/><path class="cls-6" d="M380.47,65.74a2.33,2.33,0,0,1-.38,0l-5.82-1.24a1.85,1.85,0,0,1-1.43-2.19l1.87-8.85A1.87,1.87,0,0,1,376.53,52a1.64,1.64,0,0,1,.38,0l5.82,1.23a1.86,1.86,0,0,1,1.43,2.2l-1.87,8.85A1.88,1.88,0,0,1,380.47,65.74Z"/><path class="cls-5" d="M376.93,53.89h0m-.09.4,5,1.06-1.7,8-5-1.06,1.7-8.05m-.31-4.6a4.13,4.13,0,0,0-4,3.26l-1.87,8.85a4.12,4.12,0,0,0,3.17,4.88l5.82,1.23a4.11,4.11,0,0,0,4.88-3.17l1.87-8.85A4.13,4.13,0,0,0,383.2,51l-5.82-1.23a4.17,4.17,0,0,0-.85-.09Z"/><polygon class="cls-7" points="331.79 249.79 371.32 63.19 383.29 65.73 343.75 252.32 333.81 269.75 331.79 249.79"/><path class="cls-5" d="M373.07,65.87l7.54,1.6-39,184-6.27,11-1.28-12.59,39-184m-3.49-5.36L329.5,249.67h0L332.27,277l13.62-23.87L386,64l-16.39-3.48Z"/><polyline class="cls-8" points="384.73 66.47 391.24 67.85 378.57 127.6 375.85 129.37"/><path class="cls-9" d="M369.09,131.26a1.75,1.75,0,0,1-.4,0L358.11,129a2,2,0,0,1-1.23-.85,2,2,0,0,1-.27-1.47L370.11,63A2,2,0,0,1,372,61.4a1.81,1.81,0,0,1,.4,0L383,63.68A2,2,0,0,1,384.51,66L371,129.71A2,2,0,0,1,369.09,131.26Z"/><path class="cls-5" d="M372.32,63.42h0m-.06.29,10,2.12L368.86,129l-10-2.12,13.38-63.12M372,59.14a4.24,4.24,0,0,0-4.13,3.34l-13.5,63.71a4.23,4.23,0,0,0,3.26,5l10.57,2.24a3.69,3.69,0,0,0,.87.1,4.24,4.24,0,0,0,4.13-3.35l13.5-63.71a4.23,4.23,0,0,0-3.25-5L372.9,59.23a3.81,3.81,0,0,0-.88-.09Z"/></g></g></svg>