<?xml version="1.0" encoding="utf-8"?>
<!-- Generator: Adobe Illustrator 25.4.1, SVG Export Plug-In . SVG Version: 6.00 Build 0)  -->
<svg version="1.1" id="Layer_1" xmlns="http://www.w3.org/2000/svg" xmlns:xlink="http://www.w3.org/1999/xlink" x="0px" y="0px"
	 viewBox="0 0 393.9 399.7" style="enable-background:new 0 0 393.9 399.7;" xml:space="preserve">
<style type="text/css">
	.st0{opacity:0.15;}
	.st1{fill:#86B5E1;stroke:#FFFFFF;stroke-width:7.54;stroke-linejoin:round;}
	.st2{fill:#FECB6F;stroke:#FFFFFF;stroke-width:7.54;stroke-linejoin:round;}
	.st3{fill:#F15F60;stroke:#FFFFFF;stroke-width:11.31;stroke-linecap:round;stroke-linejoin:round;}
	.st4{fill:none;stroke:#FFFFFF;stroke-width:11.31;stroke-linecap:round;stroke-linejoin:round;}
	.st5{fill:#FFFFFF;}
	.st6{fill:#6562AC;}
	.st7{fill:#636E73;}
	.st8{fill:none;stroke:#FFFFFF;stroke-width:4.52;stroke-linecap:round;stroke-miterlimit:10;}
	.st9{fill:#2D3436;}
</style>
<g id="Layer_2_00000119116842677808837310000012859402856732210853_" class="st0">
	<g id="Notebook_-_Private">
		<polygon class="st1" points="59.9,26 45,7.3 53.3,62.2 76.9,58.7 68.6,3.8 		"/>
		<polygon class="st2" points="269,246.9 249.5,256.5 304.4,248.2 302.5,235.3 247.6,243.6 		"/>
		<polygon class="st2" points="266.4,280.3 246.8,289.8 301.8,281.5 299.8,268.6 244.9,276.9 		"/>
		<polygon class="st2" points="282.5,316.4 263,325.9 317.9,317.6 316,304.8 261.1,313.1 		"/>
		
			<rect x="35.5" y="33.6" transform="matrix(0.9888 -0.1494 0.1494 0.9888 -29.0518 25.1808)" class="st3" width="235.3" height="344.8"/>
		<line class="st4" x1="88.1" y1="120.6" x2="196.8" y2="104.2"/>
		<line class="st4" x1="91.5" y1="142.9" x2="200.1" y2="126.5"/>
		<line class="st4" x1="94.8" y1="165.3" x2="203.5" y2="148.9"/>
		<circle class="st5" cx="21.2" cy="64.1" r="4.9"/>
		<circle class="st5" cx="23.2" cy="77.3" r="4.9"/>
		<circle class="st5" cx="25.2" cy="90.5" r="4.9"/>
		<circle class="st5" cx="27.1" cy="103.7" r="4.9"/>
		<circle class="st5" cx="29.1" cy="116.9" r="4.9"/>
		<circle class="st5" cx="31.1" cy="130.1" r="4.9"/>
		<circle class="st5" cx="33.1" cy="143.3" r="4.9"/>
		<circle class="st5" cx="35.1" cy="156.4" r="4.9"/>
		<circle class="st5" cx="37.1" cy="169.6" r="4.9"/>
		<circle class="st5" cx="39.1" cy="182.9" r="4.9"/>
		<circle class="st5" cx="41.1" cy="196.1" r="4.9"/>
		<circle class="st5" cx="43.1" cy="209.2" r="4.9"/>
		<circle class="st5" cx="45.1" cy="222.4" r="4.9"/>
		<circle class="st5" cx="47.1" cy="235.6" r="4.9"/>
		<circle class="st5" cx="49.1" cy="248.9" r="4.9"/>
		<circle class="st5" cx="51.1" cy="262" r="4.9"/>
		<circle class="st5" cx="53.1" cy="275.2" r="4.9"/>
		<circle class="st5" cx="55.1" cy="288.4" r="4.9"/>
		<circle class="st5" cx="57.1" cy="301.6" r="4.9"/>
		<circle class="st5" cx="59" cy="314.8" r="4.9"/>
		<circle class="st5" cx="61" cy="328" r="4.9"/>
		<circle class="st5" cx="63" cy="341.2" r="4.9"/>
		<circle class="st5" cx="65" cy="354.4" r="4.9"/>
		<circle class="st5" cx="67" cy="367.6" r="4.9"/>
		<circle class="st5" cx="69" cy="380.8" r="4.9"/>
		<path class="st5" d="M20.4,67.8L4.1,70.2c-2,0.2-3.7-1.2-4-3.1c-0.2-1.9,1-3.6,2.9-3.9l16.3-2.5c1.9-0.3,3.8,1,4.1,3
			C23.7,65.7,22.3,67.5,20.4,67.8L20.4,67.8L20.4,67.8z"/>
		<path class="st5" d="M22.4,81L6.1,83.4c-1.9,0.3-3.8-1-4.1-3c-0.3-1.9,1-3.8,3-4.1l16.3-2.5c1.9-0.5,3.9,0.5,4.4,2.4
			s-0.5,3.9-2.4,4.4C23,80.9,22.7,80.9,22.4,81L22.4,81z"/>
		<path class="st5" d="M24.4,94.2L8.1,96.6c-1.9,0.3-3.8-1-4.1-3c-0.3-1.9,1-3.8,3-4.1l16.3-2.5c1.9-0.3,3.8,1,4.1,3
			C27.7,92.1,26.3,93.9,24.4,94.2L24.4,94.2L24.4,94.2z"/>
		<path class="st5" d="M26.4,107.4l-16.3,2.5c-1.9,0.5-3.9-0.5-4.4-2.4s0.5-3.9,2.4-4.4c0.3-0.1,0.6-0.1,0.9-0.1l16.3-2.5
			c1.9-0.5,3.8,0.6,4.3,2.5c0.5,1.9-0.6,3.8-2.5,4.3C26.9,107.3,26.7,107.4,26.4,107.4z"/>
		<path class="st5" d="M28.4,120.6L12.1,123c-2,0.1-3.6-1.4-3.7-3.4c-0.1-1.7,1-3.2,2.7-3.6l16.3-2.5c2,0,3.6,1.5,3.7,3.5
			C31,118.6,29.9,120.1,28.4,120.6L28.4,120.6z"/>
		<path class="st5" d="M30.4,133.8l-16.3,2.5c-1.9,0.3-3.8-1-4.1-3c-0.3-1.9,1-3.8,3-4.1l16.3-2.5c2-0.1,3.6,1.4,3.7,3.4
			C33.1,131.8,32,133.3,30.4,133.8L30.4,133.8z"/>
		<path class="st5" d="M32.4,147l-16.3,2.5c-2,0.3-3.8-1.1-4.1-3c-0.3-2,1.1-3.8,3-4.1l16.3-2.5c1.9-0.5,3.8,0.6,4.3,2.5
			c0.5,1.9-0.6,3.8-2.5,4.3C32.9,146.9,32.6,146.9,32.4,147L32.4,147z"/>
		<path class="st5" d="M34.4,160.2l-16.3,2.5c-2,0.1-3.6-1.4-3.7-3.4c-0.1-1.7,1-3.2,2.7-3.6l16.3-2.5c2,0,3.6,1.5,3.7,3.5
			C37,158.3,35.9,159.7,34.4,160.2z"/>
		<path class="st5" d="M36.4,173.4L20,175.8c-2,0.2-3.7-1.3-3.9-3.2c-0.2-1.8,1.1-3.4,2.8-3.8l16.3-2.5c1.9-0.3,3.8,1,4.1,3
			C39.7,171.3,38.3,173.1,36.4,173.4L36.4,173.4z"/>
		<path class="st5" d="M40.4,199.8L24,202.2c-2,0.1-3.6-1.4-3.7-3.4c-0.1-1.7,1-3.2,2.7-3.6l16.3-2.5c1.9-0.3,3.8,1,4.1,3
			C43.6,197.7,42.3,199.5,40.4,199.8L40.4,199.8z"/>
		<path class="st5" d="M44.3,226.2L28,228.6c-1.9,0.5-3.8-0.6-4.3-2.5c-0.5-1.9,0.6-3.8,2.5-4.3c0.2-0.1,0.5-0.1,0.7-0.1l16.3-2.5
			c2,0,3.6,1.5,3.7,3.5C47,224.3,45.9,225.7,44.3,226.2L44.3,226.2z"/>
		<path class="st5" d="M48.3,252.6L32,255c-1.9,0.5-3.9-0.5-4.4-2.4c-0.5-1.9,0.5-3.9,2.4-4.4c0.3-0.1,0.6-0.1,0.9-0.1l16.3-2.5
			c1.9-0.5,3.8,0.6,4.3,2.5s-0.6,3.8-2.5,4.3C48.8,252.5,48.6,252.5,48.3,252.6L48.3,252.6z"/>
		<path class="st5" d="M52.3,279L36,281.4c-1.9,0.3-3.8-1-4.1-3s1-3.8,3-4.1l16.3-2.5c2-0.1,3.6,1.4,3.7,3.4
			C55.1,277,54,278.5,52.3,279L52.3,279z"/>
		<path class="st5" d="M56.3,305.4L40,307.8c-1.9,0.5-3.8-0.6-4.3-2.5s0.6-3.8,2.5-4.3c0.2-0.1,0.5-0.1,0.7-0.1l16.3-2.5
			c2-0.2,3.7,1.2,3.9,3.2C59.3,303.4,58.1,305,56.3,305.4L56.3,305.4z"/>
		<path class="st5" d="M60.3,331.8L44,334.2c-1.9,0.5-3.8-0.6-4.3-2.5c-0.5-1.9,0.6-3.8,2.5-4.3c0.2-0.1,0.5-0.1,0.7-0.1l16.3-2.5
			c2-0.2,3.7,1.2,3.9,3.2C63.3,329.8,62.1,331.4,60.3,331.8L60.3,331.8z"/>
		<path class="st5" d="M38.4,186.6L22,189c-2,0-3.6-1.6-3.6-3.6c0-1.6,1-3,2.6-3.4l16.3-2.5c2,0,3.6,1.5,3.7,3.5
			C41,184.6,40,186.1,38.4,186.6L38.4,186.6z"/>
		<path class="st5" d="M42.3,213L26,215.4c-1.9,0.5-3.8-0.6-4.3-2.5c-0.5-1.9,0.6-3.8,2.5-4.3c0.2-0.1,0.5-0.1,0.7-0.1l16.3-2.5
			c1.9-0.3,3.8,1,4.1,3S44.3,212.7,42.3,213z"/>
		<path class="st5" d="M46.3,239.4L30,241.8c-1.9,0.3-3.7-1.1-4-3c-0.3-1.9,1.1-3.7,3-4l16.3-2.5c1.9-0.5,3.8,0.6,4.3,2.5
			s-0.6,3.8-2.5,4.3C46.9,239.3,46.6,239.3,46.3,239.4L46.3,239.4z"/>
		<path class="st5" d="M50.3,265.8L34,268.2c-1.9,0.3-3.8-1-4.1-3s1-3.8,3-4.1l0,0l16.3-2.5c2-0.2,3.7,1.2,3.9,3.2
			C53.3,263.7,52.1,265.4,50.3,265.8z"/>
		<path class="st5" d="M54.3,292.2L38,294.6c-2,0.2-3.7-1.2-3.9-3.2c-0.2-1.8,1-3.5,2.8-3.9l16.3-2.5c2-0.2,3.7,1.2,3.9,3.2
			C57.3,290.1,56.1,291.8,54.3,292.2L54.3,292.2z"/>
		<path class="st5" d="M58.3,318.6L42,321c-1.9,0.5-3.8-0.6-4.3-2.5c-0.5-1.9,0.6-3.8,2.5-4.3c0.2-0.1,0.5-0.1,0.7-0.1l16.3-2.5
			c1.9-0.3,3.8,1,4.1,3C61.6,316.5,60.3,318.3,58.3,318.6L58.3,318.6z"/>
		<path class="st5" d="M62.3,345L46,347.4c-1.9,0.3-3.8-1-4.1-3c-0.3-1.9,1-3.8,3-4.1l16.3-2.5c2-0.1,3.6,1.4,3.7,3.4
			C65.1,343,64,344.5,62.3,345L62.3,345z"/>
		<path class="st5" d="M64.3,358.1L48,360.6c-1.9,0.4-3.8-0.9-4.2-2.8s0.9-3.8,2.8-4.2c0.1,0,0.2,0,0.4-0.1l16.3-2.5
			c1.9-0.5,3.8,0.6,4.3,2.5s-0.6,3.8-2.5,4.3C64.8,358.1,64.6,358.1,64.3,358.1L64.3,358.1z"/>
		<path class="st5" d="M66.3,371.4L50,373.8c-1.9,0.3-3.8-1-4.1-3c-0.3-1.9,1-3.8,3-4.1l16.3-2.5c1.9-0.5,3.8,0.6,4.3,2.5
			c0.5,1.9-0.6,3.8-2.5,4.3C66.8,371.3,66.6,371.3,66.3,371.4L66.3,371.4z"/>
		<path class="st5" d="M68.3,384.5L51.9,387c-2,0.1-3.6-1.4-3.7-3.4c-0.1-1.7,1-3.2,2.7-3.6l16.3-2.5c1.9-0.3,3.8,1,4.1,3
			S70.2,384.3,68.3,384.5L68.3,384.5L68.3,384.5z"/>
		<path class="st6" d="M380.5,65.7c-0.1,0-0.3,0-0.4,0l-5.8-1.2c-1-0.2-1.6-1.2-1.4-2.2l1.9-8.9c0.2-0.9,0.9-1.5,1.8-1.5
			c0.1,0,0.3,0,0.4,0l5.8,1.2c1,0.2,1.6,1.2,1.4,2.2l-1.9,8.8C382.1,65.1,381.3,65.7,380.5,65.7z"/>
		<path class="st5" d="M376.9,53.9L376.9,53.9 M376.8,54.3l5,1.1l-1.7,8l-5-1.1L376.8,54.3 M376.5,49.6c-1.9,0-3.6,1.4-4,3.3
			l-1.9,8.8c-0.5,2.2,0.9,4.4,3.2,4.9l5.8,1.2c2.2,0.5,4.4-0.9,4.9-3.2c0,0,0,0,0,0l1.9-8.8c0.4-2.2-1-4.4-3.2-4.8l-5.8-1.2
			C377.1,49.7,376.8,49.7,376.5,49.6L376.5,49.6z"/>
		<polygon class="st7" points="331.8,249.8 371.3,63.2 383.3,65.7 343.8,252.3 333.8,269.8 		"/>
		<path class="st5" d="M373.1,65.9l7.5,1.6l-39,184l-6.3,11l-1.3-12.6L373.1,65.9 M369.6,60.5l-40.1,189.1l0,0l2.8,27.3l13.6-23.9
			L386,64L369.6,60.5L369.6,60.5z"/>
		<polyline class="st8" points="384.7,66.5 391.2,67.8 378.6,127.6 375.9,129.4 		"/>
		<path class="st9" d="M369.1,131.3c-0.1,0-0.3,0-0.4,0l-10.6-2.3c-0.5-0.1-0.9-0.4-1.2-0.9c-0.3-0.4-0.4-1-0.3-1.5L370.1,63
			c0.2-0.9,1-1.6,1.9-1.6c0.1,0,0.3,0,0.4,0l10.6,2.3c1,0.2,1.7,1.3,1.5,2.3L371,129.7C370.8,130.6,370,131.2,369.1,131.3z"/>
		<path class="st5" d="M372.3,63.4L372.3,63.4 M372.3,63.7l10,2.1L368.9,129l-10-2.1L372.3,63.7 M372,59.1c-2,0-3.7,1.4-4.1,3.3
			l-13.5,63.7c-0.5,2.3,1,4.5,3.3,5l10.6,2.2c0.3,0.1,0.6,0.1,0.9,0.1c2,0,3.7-1.4,4.1-3.4l13.5-63.7c0.5-2.3-1-4.5-3.2-5l-10.6-2.2
			C372.6,59.2,372.3,59.1,372,59.1L372,59.1z"/>
	</g>
</g>
</svg>
