<?xml version="1.0" encoding="utf-8"?>
<!-- Generator: Adobe Illustrator 25.4.1, SVG Export Plug-In . SVG Version: 6.00 Build 0)  -->
<svg version="1.1" id="Layer_1" xmlns="http://www.w3.org/2000/svg" xmlns:xlink="http://www.w3.org/1999/xlink" x="0px" y="0px"
	 viewBox="0 0 470.9 650.5" style="enable-background:new 0 0 470.9 650.5;" xml:space="preserve">
<style type="text/css">
	.st0{opacity:0.2;}
	.st1{fill:#81B5E2;stroke:#FFFFFF;stroke-width:15;stroke-linecap:round;stroke-linejoin:round;}
	.st2{fill:#3CBFC0;}
	.st3{fill:none;stroke:#FFFFFF;stroke-width:15;stroke-miterlimit:10;}
	.st4{fill:#636E73;stroke:#FFFFFF;stroke-width:15;stroke-linecap:round;stroke-miterlimit:10;}
	.st5{fill:none;stroke:#FFFFFF;stroke-width:15;stroke-linecap:round;stroke-miterlimit:10;}
	.st6{fill:none;stroke:#FFFFFF;stroke-width:15;stroke-linecap:round;stroke-linejoin:round;}
	.st7{fill:none;stroke:#FFFFFF;stroke-width:15;stroke-linecap:square;stroke-miterlimit:10;}
</style>
<g id="Layer_2_00000167369797286813442280000001704860638794210194_" class="st0">
	<g id="TOEIC">
		<path class="st1" d="M400.3,224.1c10.8,42.8,7.2,87.9-10.1,128.4c-30.3,70.8-99.4,118.8-177.1,121.2l0,0c-4.5,0.1-9.1,0.1-13.7,0
			c-6.8-0.3-13.5-0.9-20.3-1.8C70.1,456.6-5.9,355.5,9.5,246.1c10.3-73.5,60.3-135.2,130.1-160.6c0,0,0,0,0.1,0
			c30.5-11,63.2-14.4,95.2-9.9c9.5,1.3,18.8,3.3,28,6c15.6,4.5,30.6,11,44.7,19.2c29.8,17.5,54.6,42.4,71.9,72.3l0,0
			C388.7,188.9,395.7,206.1,400.3,224.1z"/>
		<polygon class="st2" points="396,231.6 365.8,300.6 350.7,328.6 391.7,354.9 403.5,295.5 404.2,240.2 		"/>
		<polygon class="st2" points="317.6,116.9 330.6,155 335.2,197 375.9,174 348.2,133 		"/>
		<polygon class="st2" points="145,89.2 159.8,105.7 177.4,118.3 204.7,119 217.3,108.2 229.2,87 241,80.9 264,86.3 263.3,107.2 
			260.8,132 253.6,156.8 259.7,167.6 275.2,175.8 280.6,190.9 274.8,211.8 254,226.9 239.2,242.7 229.9,263.5 194.7,270.7 
			190.7,285.5 201.5,304.9 223.4,318.9 248.2,339 297.8,361 310.1,390.5 290.6,416.3 260.8,441.5 229.9,462.4 200.8,470.6 
			210.8,414.5 199,385.1 186.4,361 202.2,339.8 196.5,327.9 182.8,319.3 155.5,296.3 132.8,263.2 118.8,226.9 118.4,182.6 
			125.3,145.6 120.6,120.5 89.7,117.2 119.2,96.7 		"/>
		<path class="st3" d="M395.2,225.4c10.5,41.6,7,85.5-9.9,125c-22.9-8.3-45.9-20-21.9-47.8C377.6,286.1,395.2,225.4,395.2,225.4z"/>
		<path class="st3" d="M304.8,105.3c29,17,53.1,41.2,70,70.3l0,0l-1.1,0.6c-17.2-1.1-39.3,26.9-41.5,15.5
			C326.8,162.2,332.6,129.2,304.8,105.3z"/>
		<path class="st3" d="M192.4,294.1c6.1,16.9,23.9,8.6,37.5,32.4c7.5,13.2,78.2,19.6,80.8,55.5c2.1,28.9-69,72.3-97.7,86.2l0,0
			c-4.4,0.1-8.9,0.1-13.3,0c0,0,14.7-41.5,12-60.6s-21.4-29.9-22.7-43.8s22.8-22.5,10.2-34.4l-33.2-24.8
			c-55.4-53-51.8-92.2-40.1-168.4c3.7-23.8-38.8-14.6-40.4-14.3c16.8-13.5,35.6-24.2,55.9-31.6l0,0l0.6,1.8
			c14.9,11,26.2,27.7,59.2,27.7c13,0,32.8-39.2,32.8-39.2c9.2,1.3,18.3,3.2,27.3,5.8c0,0,4.9,39.8-10.9,70.3
			c-6.9,13.4,38.7,0,29.3,44.5c-1.6,7.6-12.2,18-22.9,21.8c-32.6,11.2-3.1,45.6-41.6,44.6C189.3,267.2,184.6,272.5,192.4,294.1z"/>
		<path class="st3" d="M192.4,294.1c-7.8-21.6-3.1-27,22.9-26.3c38.5,1,9.1-33.4,41.7-44.6c10.7-3.7,21.3-14.1,22.9-21.8
			c9.4-44.6-36.2-31.1-29.3-44.5c15.8-30.5,10.9-70.3,10.9-70.3c15.2,4.4,29.8,10.7,43.5,18.7c27.7,23.9,21.9,56.9,27.5,86.5
			c2.2,11.4,24.2-16.6,41.5-15.5l1.1-0.6c9,15.6,15.9,32.3,20.3,49.7c0,0-17.5,60.7-31.8,77.2c-23.9,27.7-0.9,39.5,21.9,47.8
			c-29.5,68.9-96.7,115.6-172.4,118c28.7-13.9,99.8-57.3,97.7-86.2c-2.6-35.9-73.3-42.4-80.8-55.5
			C216.3,302.7,198.5,311,192.4,294.1z"/>
		<path class="st3" d="M306,638.3v4.7H109.6v-4.7c0-23.5,19-42.5,42.5-42.4h111.5C287,595.8,306,614.9,306,638.3
			C306,638.3,306,638.3,306,638.3z"/>
		<path class="st3" d="M188.9,363.9c1.3,13.9,20,24.7,22.7,43.8s-12,60.6-12,60.6c-6.5-0.2-13.1-0.8-19.7-1.8
			C73.7,451.7-0.2,353.3,14.8,246.8c6.8-49.1,32.1-93.7,70.7-124.7c1.6-0.4,44-9.5,40.4,14.3c-11.7,76.2-15.3,115.4,40.1,168.4
			l33.2,24.8C211.7,341.4,187.6,350,188.9,363.9z"/>
		<path class="st3" d="M141.4,90.4c29.6-10.7,61.5-14,92.7-9.7c0,0-19.8,39.2-32.8,39.2c-33,0-44.3-16.8-59.2-27.7L141.4,90.4z"/>
		<path class="st4" d="M306,643H109.6v-4.7c0-23.5,19-42.5,42.5-42.4h111.5c23.5,0,42.5,19,42.5,42.4L306,643z"/>
		<line class="st3" x1="142" y1="92.3" x2="141.4" y2="90.4"/>
		<line class="st3" x1="373.8" y1="176.3" x2="374.8" y2="175.6"/>
		<line class="st5" x1="207.8" y1="595.9" x2="207.8" y2="532.5"/>
		<path class="st6" d="M304.8,105.3c27.7,23.9,21.9,56.9,27.5,86.5c2.2,11.4,24.2-16.6,41.5-15.5"/>
		<path class="st6" d="M212.9,468.3c28.7-13.9,99.8-57.3,97.7-86.2c-2.6-35.9-73.3-42.4-80.8-55.5c-13.6-23.9-31.4-15.5-37.5-32.4
			c-7.8-21.6-3.1-27,22.9-26.3c38.5,1,9.1-33.4,41.6-44.6c10.7-3.7,21.3-14.1,22.9-21.8c9.4-44.6-36.2-31.1-29.3-44.5
			c15.8-30.5,10.9-70.3,10.9-70.3"/>
		<path class="st6" d="M85.4,122.1L85.4,122.1c1.6-0.4,44-9.5,40.4,14.3c-11.7,76.2-15.3,115.4,40.1,168.4l33.2,24.8
			c12.6,11.8-11.6,20.4-10.2,34.4s20,24.7,22.7,43.8s-12,60.6-12,60.6"/>
		<path class="st6" d="M395.2,225.4c0,0-17.5,60.7-31.8,77.2c-23.9,27.7-0.9,39.5,21.9,47.8l0,0"/>
		<path class="st6" d="M142,92.3c14.9,11,26.2,27.7,59.2,27.7c13,0,32.8-39.2,32.8-39.2"/>
		<path class="st5" d="M260.9,24.3c15.9,3.3,31.5,8.2,46.5,14.5c104.1,43.7,170,153.4,153.5,270.4
			c-19.6,139.5-148.7,236.7-288.3,217.2c-22.7-3.1-44.9-9.3-65.9-18.4c-14.5-6.3-28.5-13.9-41.6-22.7"/>
		<polyline class="st7" points="319.8,9.9 307.4,38.8 297.4,62.2 		"/>
		<polyline class="st7" points="116.5,485.1 106.7,508 93.4,538.9 		"/>
	</g>
</g>
</svg>
