<svg xmlns="http://www.w3.org/2000/svg" viewBox="0 0 470.93 650.54"><defs><style>.cls-1{fill:#81b5e2;}.cls-1,.cls-3,.cls-4,.cls-5,.cls-6,.cls-7{stroke:#fff;stroke-width:15px;}.cls-1,.cls-4,.cls-5,.cls-6{stroke-linecap:round;}.cls-1,.cls-6{stroke-linejoin:round;}.cls-2{fill:#3cbfc0;}.cls-3,.cls-5,.cls-6,.cls-7{fill:none;}.cls-3,.cls-4,.cls-5,.cls-7{stroke-miterlimit:10;}.cls-4{fill:#636e73;}.cls-7{stroke-linecap:square;}</style></defs><g id="Layer_2" data-name="Layer 2"><g id="TOEIC"><path class="cls-1" d="M400.32,224.06a201.66,201.66,0,0,1-10.13,128.41c-30.27,70.77-99.36,118.75-177.11,121.19h0c-4.51.14-9.09.12-13.67,0a200.42,200.42,0,0,1-20.27-1.81C70.05,456.58-5.91,355.5,9.48,246.05A200.58,200.58,0,0,1,139.54,85.46s0,0,.05,0a198.5,198.5,0,0,1,95.23-9.92,202.9,202.9,0,0,1,28,6,196.63,196.63,0,0,1,44.67,19.17,199.68,199.68,0,0,1,71.92,72.26v0A199.63,199.63,0,0,1,400.32,224.06Z"/><polygon class="cls-2" points="395.99 231.55 365.79 300.57 350.69 328.62 391.67 354.86 403.54 295.54 404.25 240.18 395.99 231.55"/><polygon class="cls-2" points="317.61 116.86 330.56 154.97 335.23 197.03 375.85 174.03 348.17 133.04 317.61 116.86"/><polygon class="cls-2" points="145.04 89.18 159.78 105.72 177.4 118.3 204.72 119.02 217.31 108.23 229.17 87.02 241.03 80.91 264.04 86.3 263.32 107.16 260.81 131.96 253.62 156.77 259.73 167.55 275.19 175.82 280.58 190.92 274.83 211.77 253.98 226.87 239.24 242.69 229.89 263.54 194.66 270.73 190.7 285.47 201.49 304.89 223.42 318.91 248.23 339.04 297.84 360.97 310.06 390.45 290.65 416.34 260.81 441.5 229.89 462.36 200.77 470.63 210.84 414.54 198.97 385.06 186.39 360.97 202.21 339.76 196.46 327.9 182.79 319.27 155.47 296.26 132.82 263.19 118.8 226.87 118.44 182.65 125.27 145.62 120.6 120.46 89.68 117.22 119.16 96.73 145.04 89.18"/><path class="cls-3" d="M395.17,225.38a196.38,196.38,0,0,1-9.87,125c-22.88-8.32-45.88-20-21.94-47.77C377.62,286.1,395.17,225.38,395.17,225.38Z"/><path class="cls-3" d="M304.84,105.28a194.33,194.33,0,0,1,70,70.34v0l-1.08.62c-17.24-1.08-39.29,26.9-41.45,15.51C326.75,162.22,332.58,129.2,304.84,105.28Z"/><path class="cls-3" d="M192.37,294.15c6.11,16.9,23.92,8.56,37.49,32.43,7.46,13.16,78.2,19.63,80.76,55.55,2.07,28.91-69,72.34-97.71,86.2h0c-4.39.13-8.85.11-13.31,0,0,0,14.72-41.47,12-60.57s-21.41-29.88-22.71-43.8,22.82-22.55,10.24-34.39l-33.21-24.79c-55.38-53-51.85-92.21-40.11-168.42,3.67-23.78-38.79-14.63-40.36-14.27a194.45,194.45,0,0,1,55.9-31.57s0,0,0,0L142,92.3c14.91,11,26.24,27.74,59.23,27.72,13,0,32.82-39.22,32.82-39.22a195.63,195.63,0,0,1,27.28,5.83s4.9,39.79-10.86,70.26c-6.93,13.42,38.71,0,29.29,44.53-1.62,7.62-12.19,18-22.91,21.76-32.58,11.22-3.11,45.61-41.65,44.64C189.26,267.16,184.55,272.51,192.37,294.15Z"/><path class="cls-3" d="M192.37,294.15c-7.82-21.64-3.11-27,22.86-26.33,38.54,1,9.07-33.42,41.65-44.64,10.72-3.72,21.29-14.14,22.91-21.76,9.42-44.57-36.22-31.11-29.29-44.53,15.76-30.47,10.86-70.26,10.86-70.26a191.33,191.33,0,0,1,43.48,18.65c27.74,23.92,21.91,56.94,27.47,86.49,2.16,11.39,24.21-16.59,41.45-15.51l1.08-.62a194.38,194.38,0,0,1,20.33,49.74s-17.55,60.72-31.81,77.22c-23.94,27.74-.94,39.45,21.94,47.77-29.46,68.88-96.71,115.58-172.39,118,28.74-13.86,99.78-57.29,97.71-86.2-2.56-35.92-73.3-42.39-80.76-55.55C216.29,302.71,198.48,311.05,192.37,294.15Z"/><path class="cls-3" d="M306.05,638.33V643H109.58v-4.71a42.47,42.47,0,0,1,42.49-42.44H263.54A42.49,42.49,0,0,1,306.05,638.33Z"/><path class="cls-3" d="M188.88,363.92c1.3,13.92,20,24.7,22.71,43.8s-12,60.57-12,60.57q-9.79-.37-19.73-1.76C73.7,451.7-.24,353.31,14.75,246.79A194.34,194.34,0,0,1,85.44,122.05c1.57-.36,44-9.51,40.36,14.27-11.74,76.21-15.27,115.42,40.11,168.42l33.21,24.79C211.7,341.37,187.56,350,188.88,363.92Z"/><path class="cls-3" d="M141.39,90.45a193.22,193.22,0,0,1,92.69-9.65S214.26,120,201.26,120c-33,0-44.32-16.76-59.23-27.72Z"/><path class="cls-4" d="M306.05,643H109.58v-4.71a42.47,42.47,0,0,1,42.49-42.44H263.54a42.49,42.49,0,0,1,42.51,42.44Z"/><line class="cls-3" x1="142.03" y1="92.3" x2="141.39" y2="90.45"/><line class="cls-3" x1="373.76" y1="176.26" x2="374.84" y2="175.64"/><line class="cls-5" x1="207.82" y1="595.89" x2="207.82" y2="532.53"/><path class="cls-6" d="M304.84,105.28c27.74,23.92,21.91,56.94,27.47,86.49,2.16,11.39,24.21-16.59,41.45-15.51"/><path class="cls-6" d="M212.91,468.33c28.74-13.86,99.78-57.29,97.71-86.2-2.56-35.92-73.3-42.39-80.76-55.55-13.57-23.87-31.38-15.53-37.49-32.43-7.82-21.64-3.11-27,22.86-26.33,38.54,1,9.07-33.42,41.65-44.64,10.72-3.72,21.29-14.14,22.91-21.76,9.42-44.57-36.22-31.11-29.29-44.53,15.76-30.47,10.86-70.26,10.86-70.26"/><path class="cls-6" d="M85.39,122.05h0c1.57-.36,44-9.51,40.36,14.27-11.74,76.21-15.27,115.42,40.11,168.42l33.21,24.79c12.58,11.84-11.56,20.44-10.24,34.39s20,24.7,22.71,43.8-12,60.57-12,60.57"/><path class="cls-6" d="M395.17,225.38s-17.55,60.72-31.81,77.22c-23.94,27.74-.94,39.45,21.94,47.77h0"/><path class="cls-6" d="M142,92.3c14.91,11,26.24,27.74,59.23,27.72,13,0,32.82-39.22,32.82-39.22"/><path class="cls-5" d="M260.94,24.28a254.43,254.43,0,0,1,46.48,14.47c104.1,43.74,170,153.35,153.49,270.41C441.32,448.64,312.25,545.9,172.64,526.41A254.73,254.73,0,0,1,106.69,508a250.88,250.88,0,0,1-41.58-22.74"/><polyline class="cls-7" points="319.78 9.85 307.42 38.75 297.38 62.2"/><polyline class="cls-7" points="116.47 485.1 106.69 507.95 93.45 538.91"/></g></g></svg>