<svg xmlns="http://www.w3.org/2000/svg" viewBox="0 0 450 450"><defs><style>.cls-1{fill:#f6416c;}.cls-2{fill:#ffde7d;}</style></defs><g id="Layer_2" data-name="Layer 2"><g id="Logo_02" data-name="Logo 02"><g id="Flower"><g id="Petals"><path class="cls-1" d="M325.09,266.46c4.1.29,8.23.49,12.41.49A171.16,171.16,0,0,0,450,225a171.16,171.16,0,0,0-112.5-41.95c-4.18,0-8.31.2-12.41.49,3.11-2.69,6.17-5.48,9.12-8.43A171.2,171.2,0,0,0,384.1,65.9a171.2,171.2,0,0,0-109.21,49.89c-2.95,2.95-5.74,6-8.43,9.12.29-4.1.49-8.23.49-12.41A171.16,171.16,0,0,0,225,0a171.16,171.16,0,0,0-41.95,112.5c0,4.18.2,8.31.49,12.41-2.69-3.11-5.48-6.17-8.43-9.12A171.2,171.2,0,0,0,65.9,65.9a171.2,171.2,0,0,0,49.89,109.21c2.95,2.95,6,5.74,9.12,8.43-4.1-.29-8.23-.49-12.41-.49A171.16,171.16,0,0,0,0,225,171.16,171.16,0,0,0,112.5,267c4.18,0,8.31-.2,12.41-.49-3.11,2.69-6.17,5.48-9.12,8.43A171.2,171.2,0,0,0,65.9,384.1a171.2,171.2,0,0,0,109.21-49.89c2.95-2.95,5.74-6,8.43-9.12-.29,4.1-.49,8.23-.49,12.41A171.16,171.16,0,0,0,225,450,171.16,171.16,0,0,0,267,337.5c0-4.18-.2-8.31-.49-12.41,2.69,3.11,5.48,6.17,8.43,9.12A171.2,171.2,0,0,0,384.1,384.1a171.2,171.2,0,0,0-49.89-109.21C331.26,271.94,328.2,269.15,325.09,266.46Z"/></g><circle id="Center" class="cls-2" cx="225" cy="225" r="72.35"/></g></g></g></svg>