<svg xmlns="http://www.w3.org/2000/svg" viewBox="0 0 408.1 493.49"><defs><style>.cls-1,.cls-3{fill:#fff;}.cls-10,.cls-2{fill:#ff7675;}.cls-11,.cls-2,.cls-3,.cls-4,.cls-5,.cls-7,.cls-8,.cls-9{stroke:#000;}.cls-11,.cls-2,.cls-4,.cls-5,.cls-7,.cls-8,.cls-9{stroke-miterlimit:10;}.cls-2,.cls-3,.cls-7{stroke-width:5px;}.cls-3{stroke-linejoin:round;}.cls-11,.cls-4,.cls-7{fill:none;}.cls-11,.cls-4,.cls-7,.cls-8,.cls-9{stroke-linecap:round;}.cls-4{stroke-width:10px;}.cls-5,.cls-8{fill:#e8c6ba;}.cls-5{stroke-width:9.66px;}.cls-6{fill:#0ebecc;}.cls-8{stroke-width:4.82px;}.cls-9{fill:#00b894;stroke-width:3.16px;}.cls-11{stroke-width:5.48px;}</style></defs><g id="Layer_2" data-name="Layer 2"><g id="David"><polygon class="cls-1" points="183.98 325.29 202.16 328.56 219.79 324.74 241.23 366.18 203.43 397.62 162.17 362 183.98 325.29"/><g id="jacket"><path class="cls-1" d="M5,488.49V411.56c0-45.11,25.47-73.13,46.83-88.7,25.91-18.87,56.72-27.5,76.27-27.8,45.7,20.1,64.48,23.12,71.63,23.12a12.78,12.78,0,0,0,3.32-.34l.52-.15.47-.25c.12-.06,15.15-7.59,75.51-22.38,16.61.22,47.56,9.47,73,26.44,23.06,15.37,50.54,42.82,50.54,86.28v80.71Z"/><path d="M280.1,300.07c13.16.4,42.53,7.48,69.69,25.59,14.55,9.7,26,21,34.15,33.61a88.2,88.2,0,0,1,14.16,48.51v75.71H10V411.56c0-43,24.35-69.78,44.78-84.66,24.55-17.88,53.55-26.24,72.32-26.81,45.81,20.06,65.15,23.09,72.63,23.09a17.66,17.66,0,0,0,4.67-.53l.95-.21,1-.55c1.19-.58,16.4-7.73,73.76-21.82m-1.14-10c-62.88,15.38-77.25,23-77.25,23a8.15,8.15,0,0,1-2,.16c-5.38,0-23.19-2.2-70.6-23.12C87.33,290.06,0,326.26,0,411.56v81.93H408.1V407.78c0-84.21-97.65-117.72-129.14-117.72Z"/></g><path d="M205.29,359.6l-8.14.13c-.62,0-2.34,94.63-2.34,94.63.2,13,1,29.84,1.61,29.83L210,484c.62,0,.86-16.9.66-29.86C210.64,454.11,205.91,359.59,205.29,359.6Z"/><path class="cls-2" d="M69.38,311.66c29.93,39.8,23.5,94.41,23.5,94.41v84H317.45v-84s-10.1-55.71,17.16-94.42c-19-13.22-59.5-16.17-59.5-16.17s-64.18,144.37-73.8,144.37c-9,0-72.5-147.34-72.5-147.34S88.55,302.87,69.38,311.66Z"/><g id="jacket-2" data-name="jacket"><path d="M280.1,300.07c13.16.4,42.53,7.48,69.69,25.59,14.55,9.7,26,21,34.15,33.61a88.2,88.2,0,0,1,14.16,48.51v75.71H10V411.56c0-43,24.35-69.78,44.78-84.66,24.55-17.88,53.55-26.24,72.32-26.81,45.81,20.06,65.15,23.09,72.63,23.09a17.66,17.66,0,0,0,4.67-.53l.95-.21,1-.55c1.19-.58,16.4-7.73,73.76-21.82m-1.14-10c-62.88,15.38-77.25,23-77.25,23a8.15,8.15,0,0,1-2,.16c-5.38,0-23.19-2.2-70.6-23.12C87.33,290.06,0,326.26,0,411.56v81.93H408.1V407.78c0-84.21-97.65-117.72-129.14-117.72Z"/></g><path d="M192.61,348l2.31-4.77c.18-.37-28.38-16.58-28.38-16.58-4-2-9.45-4.22-9.63-3.86l-3.86,7.95c-.18.36,4.94,3.22,9,5.18C162,335.87,192.43,348.31,192.61,348Z"/><path d="M204.72,347.73l1.73,5c.13.39,31.79-8.35,31.79-8.35,4.25-1.46,9.67-3.69,9.54-4.08L244.89,332c-.13-.39-5.77,1.21-10,2.68C234.87,334.65,204.58,347.35,204.72,347.73Z"/><path d="M205.86,364.53l-9-.92c-1.47-.09-12-22.5-12-22.5a2.69,2.69,0,0,1,2.84-2.51l32,1.95a2.68,2.68,0,0,1,2.51,2.83S207.33,364.62,205.86,364.53Z"/><polygon class="cls-3" points="132.61 274.67 189.65 324.04 153.78 369.7 122.33 292.64 132.61 274.67"/><polygon class="cls-3" points="277.59 277.22 217.15 324.32 250.18 369.99 285.31 294.06 277.59 277.22"/><line class="cls-4" x1="92.81" y1="405.4" x2="92.81" y2="487.85"/><line class="cls-4" x1="317.1" y1="405.4" x2="317.1" y2="485.29"/><path class="cls-5" d="M322.3,118.11a15.89,15.89,0,0,0-6.26-.26c-10.74-80.89-53.87-113-112-113s-101.26,32.13-112,113a15.85,15.85,0,0,0-6.25.26c-13.9,3.48-20.26,25.76-14.21,49.76,4.25,16.84,13.48,30,23.42,35.22,14.93,72.07,68.87,124.5,109,124.5,38.63,0,94.11-52.43,109-124.5,9.93-5.17,19.17-18.38,23.42-35.22C342.56,143.87,336.2,121.59,322.3,118.11Z"/><ellipse id="left_eye" data-name="left eye" class="cls-6" cx="153.81" cy="151.23" rx="17.5" ry="20"/><ellipse id="right_eye" data-name="right eye" class="cls-6" cx="256.74" cy="150.69" rx="17.5" ry="20"/><path id="mouth" class="cls-7" d="M162.52,253.4c41.95,33.56,89.64,0,89.64,0"/><path id="left_eyebrow" data-name="left eyebrow" class="cls-8" d="M120.51,122.59c27-26.4,60.4-4.47,60.4-4.47"/><path id="left_eyebrow-2" data-name="left eyebrow" class="cls-8" d="M288.34,122.59c-27-26.4-60.4-4.47-60.4-4.47"/><path id="nose" class="cls-7" d="M209.27,172.8s-28.61,28.61-19.27,35a19.32,19.32,0,0,0,18.68,1.75"/><circle cx="202.76" cy="471.8" r="4.74"/><circle cx="202.76" cy="453.49" r="4.74"/><path class="cls-9" d="M271.46,394.92l-27.58,17.34a2.91,2.91,0,0,0,1.37,5.36l50.25,2.93a2.89,2.89,0,0,0,2.1-5.05l-22.66-20.28A2.92,2.92,0,0,0,271.46,394.92Z"/><path class="cls-9" d="M261.45,396.07l-22.66,20.28a2.89,2.89,0,0,0,2.1,5l50.25-2.93a2.91,2.91,0,0,0,1.37-5.36l-27.58-17.34A2.92,2.92,0,0,0,261.45,396.07Z"/><path class="cls-10" d="M238.62,411.18c12.18,1.15,32.63,7.85,57.42-.42s9.2,30.48,9.2,30.48l-76.14-2.07S225.39,411.23,238.62,411.18Z"/><path class="cls-11" d="M238.64,411.82c30.5,4.91,60,0,60,0"/></g></g></svg>