<?xml version="1.0" encoding="UTF-8" standalone="no"?>
<!-- Created with Inkscape (http://www.inkscape.org/) -->

<svg
   version="1.1"
   id="svg1"
   width="446.6665"
   height="689.46472"
   viewBox="0 0 446.66652 689.46475"
   xmlns="http://www.w3.org/2000/svg"
   xmlns:svg="http://www.w3.org/2000/svg">
  <defs
     id="defs1">
    <clipPath
       clipPathUnits="userSpaceOnUse"
       id="clipPath256">
      <path
         d="M 0,1000 H 1000 V 0 H 0 Z"
         transform="translate(-513.18371,-650.94201)"
         id="path256" />
    </clipPath>
    <clipPath
       clipPathUnits="userSpaceOnUse"
       id="clipPath258">
      <path
         d="M 0,1000 H 1000 V 0 H 0 Z"
         transform="translate(-458.43131,-460.22491)"
         id="path258" />
    </clipPath>
    <clipPath
       clipPathUnits="userSpaceOnUse"
       id="clipPath260">
      <path
         d="M 0,1000 H 1000 V 0 H 0 Z"
         transform="translate(-350.46708,-244.17918)"
         id="path260" />
    </clipPath>
    <clipPath
       clipPathUnits="userSpaceOnUse"
       id="clipPath262">
      <path
         d="M 0,1000 H 1000 V 0 H 0 Z"
         transform="translate(-566.34784,-433.34551)"
         id="path262" />
    </clipPath>
    <clipPath
       clipPathUnits="userSpaceOnUse"
       id="clipPath264">
      <path
         d="M 0,1000 H 1000 V 0 H 0 Z"
         transform="translate(-415.90774,-323.38821)"
         id="path264" />
    </clipPath>
    <clipPath
       clipPathUnits="userSpaceOnUse"
       id="clipPath266">
      <path
         d="M 0,1000 H 1000 V 0 H 0 Z"
         transform="translate(-602.70679,-323.38821)"
         id="path266" />
    </clipPath>
    <clipPath
       clipPathUnits="userSpaceOnUse"
       id="clipPath268">
      <path
         d="M 0,1000 H 1000 V 0 H 0 Z"
         transform="translate(-566.34784,-433.34551)"
         id="path268" />
    </clipPath>
    <clipPath
       clipPathUnits="userSpaceOnUse"
       id="clipPath270">
      <path
         d="M 0,1000 H 1000 V 0 H 0 Z"
         transform="translate(-618.33199,-606.12342)"
         id="path270" />
    </clipPath>
    <clipPath
       clipPathUnits="userSpaceOnUse"
       id="clipPath272">
      <path
         d="M 0,1000 H 1000 V 0 H 0 Z"
         transform="translate(-483.25189,-575.41601)"
         id="path272" />
    </clipPath>
    <clipPath
       clipPathUnits="userSpaceOnUse"
       id="clipPath274">
      <path
         d="M 0,1000 H 1000 V 0 H 0 Z"
         transform="translate(-568.16449,-575.91662)"
         id="path274" />
    </clipPath>
    <clipPath
       clipPathUnits="userSpaceOnUse"
       id="clipPath276">
      <path
         d="M 0,1000 H 1000 V 0 H 0 Z"
         transform="translate(-443.01724,-593.76681)"
         id="path276" />
    </clipPath>
    <clipPath
       clipPathUnits="userSpaceOnUse"
       id="clipPath278">
      <path
         d="M 0,1000 H 1000 V 0 H 0 Z"
         transform="translate(-574.45939,-592.55901)"
         id="path278" />
    </clipPath>
    <clipPath
       clipPathUnits="userSpaceOnUse"
       id="clipPath280">
      <path
         d="M 0,1000 H 1000 V 0 H 0 Z"
         transform="translate(-513.18371,-556.73372)"
         id="path280" />
    </clipPath>
    <clipPath
       clipPathUnits="userSpaceOnUse"
       id="clipPath282">
      <path
         d="M 0,1000 H 1000 V 0 H 0 Z"
         transform="translate(-451.36841,-736.78342)"
         id="path282" />
    </clipPath>
    <clipPath
       clipPathUnits="userSpaceOnUse"
       id="clipPath284">
      <path
         d="M 0,1000 H 1000 V 0 H 0 Z"
         transform="translate(-471.82534,-488.34561)"
         id="path284" />
    </clipPath>
    <clipPath
       clipPathUnits="userSpaceOnUse"
       id="clipPath286">
      <path
         d="M 0,1000 H 1000 V 0 H 0 Z"
         transform="translate(-473.22244,-489.02561)"
         id="path286" />
    </clipPath>
    <clipPath
       clipPathUnits="userSpaceOnUse"
       id="clipPath288">
      <path
         d="M 0,1000 H 1000 V 0 H 0 Z"
         transform="translate(-613.93984,-586.18941)"
         id="path288" />
    </clipPath>
    <clipPath
       clipPathUnits="userSpaceOnUse"
       id="clipPath290">
      <path
         d="M 0,1000 H 1000 V 0 H 0 Z"
         transform="translate(-641.03044,-662.94201)"
         id="path290" />
    </clipPath>
  </defs>
  <g
     id="layer-MC6"
     transform="translate(-7221.2552,-324.65194)">
    <path
       id="path255"
       d="m 0,0 c 128.165,0 111.753,-193.783 69.534,-274.046 -94.127,25.052 -84.121,-29.44 -145.823,15.626 C -161.193,-104.698 -132.674,0 0,0"
       style="fill:#261212;fill-opacity:1;fill-rule:nonzero;stroke:#000000;stroke-width:9.271;stroke-linecap:butt;stroke-linejoin:miter;stroke-miterlimit:10;stroke-dasharray:none;stroke-opacity:1"
       transform="matrix(1.3333333,0,0,-1.3333333,7450.9116,465.41067)"
       clip-path="url(#clipPath256)" />
    <path
       id="path257"
       d="M 0,0 -16.214,-135.406 H 116.095 L 99.881,0 Z"
       style="fill:#e8c6ba;fill-opacity:1;fill-rule:nonzero;stroke:#000000;stroke-width:9.533;stroke-linecap:butt;stroke-linejoin:miter;stroke-miterlimit:10;stroke-dasharray:none;stroke-opacity:1"
       transform="matrix(1.3333333,0,0,-1.3333333,7377.9084,719.70013)"
       clip-path="url(#clipPath258)" />
    <path
       id="path259"
       d="m 0,0 c -2.71,19.503 -4.433,45.934 -4.759,73.396 0,43.562 20.745,70.108 38.149,84.697 21.877,18.34 46.741,25.517 63.809,26.244 23.444,-44.114 58.78,-49.246 60.302,-49.446 l 0.497,-0.065 0.499,0.039 c 1.317,0.104 32.083,3.044 60.059,49.463 19.586,-1.039 44.886,-13.07 60.488,-24.96 18.998,-14.478 41.642,-40.515 41.664,-82.361 C 320.037,52.524 318.289,25.355 315.764,0 Z"
       style="fill:#e84393;fill-opacity:1;fill-rule:nonzero;stroke:none"
       transform="matrix(1.3333333,0,0,-1.3333333,7233.9561,1007.7611)"
       clip-path="url(#clipPath260)" />
    <path
       id="path261"
       d="m 0,0 c -27.421,-47.16 -57.757,-49.549 -57.757,-49.549 0,0 -35.51,4.671 -58.055,49.549 -39.852,0 -109.594,-34.512 -109.594,-115.827 0.305,-25.62 1.888,-55.276 5.405,-78.106 h 324.19 c 2.72,26.173 4.687,55.458 5.405,81.709 C 109.594,-31.945 30.016,0 0,0 m -121.401,-9.79 c 24.593,-43.754 60.81,-49.002 62.4,-49.211 l 0.993,-0.131 0.999,0.079 c 1.001,0.079 10.142,0.984 22.689,8.381 14.716,8.676 27.986,22.388 39.5,40.803 12.973,-1.521 34.947,-8.366 55.094,-23.721 18.132,-13.818 39.742,-38.649 39.787,-78.507 -0.632,-22.973 -2.215,-48.325 -4.502,-72.303 h -307.263 c -2.367,18.816 -3.865,43.262 -4.169,68.63 0.017,41.748 19.826,67.113 36.444,81.044 19.692,16.508 42.355,23.56 58.028,24.936"
       style="fill:#000000;fill-opacity:1;fill-rule:nonzero;stroke:none"
       transform="matrix(1.3333333,0,0,-1.3333333,7521.7971,755.53933)"
       clip-path="url(#clipPath262)" />
    <path
       id="path263"
       d="M 0,0 V -76.166"
       style="fill:none;stroke:#000000;stroke-width:9.533;stroke-linecap:round;stroke-linejoin:miter;stroke-miterlimit:10;stroke-dasharray:none;stroke-opacity:1"
       transform="matrix(1.3333333,0,0,-1.3333333,7321.2103,902.14907)"
       clip-path="url(#clipPath264)" />
    <path
       id="path265"
       d="M 0,0 V -76.166"
       style="fill:none;stroke:#000000;stroke-width:9.533;stroke-linecap:round;stroke-linejoin:miter;stroke-miterlimit:10;stroke-dasharray:none;stroke-opacity:1"
       transform="matrix(1.3333333,0,0,-1.3333333,7570.2757,902.14907)"
       clip-path="url(#clipPath266)" />
    <path
       id="path267"
       d="m 0,0 c -27.421,-47.16 -57.757,-49.549 -57.757,-49.549 0,0 -35.51,4.671 -58.055,49.549 -39.852,0 -109.594,-34.512 -109.594,-115.827 0.305,-25.62 1.888,-55.276 5.405,-78.106 h 324.19 c 2.72,26.173 4.687,55.458 5.405,81.709 C 109.594,-31.945 30.016,0 0,0 m -121.401,-9.79 c 24.593,-43.754 60.81,-49.002 62.4,-49.211 l 0.993,-0.131 0.999,0.079 c 1.001,0.079 10.142,0.984 22.689,8.381 14.716,8.676 27.986,22.388 39.5,40.803 12.973,-1.521 34.947,-8.366 55.094,-23.721 18.132,-13.818 39.742,-38.649 39.787,-78.507 -0.632,-22.973 -2.215,-48.325 -4.502,-72.303 h -307.263 c -2.367,18.816 -3.865,43.262 -4.169,68.63 0.017,41.748 19.826,67.113 36.444,81.044 19.692,16.508 42.355,23.56 58.028,24.936"
       style="fill:#000000;fill-opacity:1;fill-rule:nonzero;stroke:none"
       transform="matrix(1.3333333,0,0,-1.3333333,7521.7971,755.53933)"
       clip-path="url(#clipPath268)" />
    <path
       id="path269"
       d="m 0,0 c -2.036,0.476 -4.122,0.537 -6.217,0.241 -10.672,74.988 -45.646,104.778 -103.396,104.778 -57.751,0 -92.725,-29.79 -103.397,-104.778 -2.095,0.296 -4.181,0.235 -6.217,-0.241 -13.81,-3.231 -20.132,-23.884 -14.119,-46.13 4.22,-15.617 13.398,-27.856 23.27,-32.654 14.835,-66.81 60.549,-102.017 100.463,-102.017 38.382,0 85.627,35.207 100.462,102.017 9.872,4.798 19.05,17.037 23.27,32.654 C 20.132,-23.884 13.81,-3.231 0,0"
       style="fill:#e8c6ba;fill-opacity:1;fill-rule:nonzero;stroke:#000000;stroke-width:9.271;stroke-linecap:butt;stroke-linejoin:miter;stroke-miterlimit:10;stroke-dasharray:none;stroke-opacity:1"
       transform="matrix(1.3333333,0,0,-1.3333333,7591.1093,525.1688)"
       clip-path="url(#clipPath270)" />
    <path
       id="path271"
       d="m 0,0 c 0,-10.24 -7.264,-18.541 -16.224,-18.541 -8.96,0 -16.223,8.301 -16.223,18.541 0,10.24 7.263,18.541 16.223,18.541 C -7.264,18.541 0,10.24 0,0"
       style="fill:#261212;fill-opacity:1;fill-rule:nonzero;stroke:none"
       transform="matrix(1.3333333,0,0,-1.3333333,7411.0025,566.112)"
       clip-path="url(#clipPath272)" />
    <path
       id="path273"
       d="m 0,0 c 0,-10.24 -7.264,-18.541 -16.224,-18.541 -8.96,0 -16.223,8.301 -16.223,18.541 0,10.24 7.263,18.541 16.223,18.541 C -7.264,18.541 0,10.24 0,0"
       style="fill:#261212;fill-opacity:1;fill-rule:nonzero;stroke:none"
       transform="matrix(1.3333333,0,0,-1.3333333,7524.2193,565.44453)"
       clip-path="url(#clipPath274)" />
    <path
       id="path275"
       d="M 0,0 C 8.018,13.205 27.267,15.586 39.822,7.617 41.147,6.746 40.174,4.687 38.664,5.143 25.197,8.339 12.086,9.309 1.493,-1.208 0.701,-2.004 -0.618,-0.942 0,0"
       style="fill:#261212;fill-opacity:1;fill-rule:nonzero;stroke:none"
       transform="matrix(1.3333333,0,0,-1.3333333,7357.3563,541.64427)"
       clip-path="url(#clipPath276)" />
    <path
       id="path277"
       d="m 0,0 c -7.416,7.387 -17.148,9.631 -27.279,8.149 -3.316,-0.395 -6.71,-1.083 -10.001,-1.823 -1.478,-0.338 -2.324,1.686 -1.05,2.5 12.553,7.968 31.806,5.586 39.822,-7.618 C 2.099,0.259 0.797,-0.797 0,0"
       style="fill:#261212;fill-opacity:1;fill-rule:nonzero;stroke:none"
       transform="matrix(1.3333333,0,0,-1.3333333,7532.6125,543.25467)"
       clip-path="url(#clipPath278)" />
    <path
       id="path279"
       d="m 0,0 c 0,0 -17.95,-19.113 -13.056,-27.007 3.589,-5.788 12.515,-7.092 12.515,-7.092"
       style="fill:none;stroke:#000000;stroke-width:4.635;stroke-linecap:round;stroke-linejoin:miter;stroke-miterlimit:10;stroke-dasharray:none;stroke-opacity:1"
       transform="matrix(1.3333333,0,0,-1.3333333,7450.9116,591.02173)"
       clip-path="url(#clipPath280)" />
    <path
       id="path281"
       d="m 0,0 c 48.689,16.909 106.56,27.897 156.403,-13.782 48.464,-40.526 84.035,-206.367 7.884,-326.021 19.156,88.982 0.124,201.37 -16.251,226.73 -34.007,11.106 -66.223,8.937 -105.254,-20.172 5.85,22.604 20.755,36.234 54.583,52.565 -57.262,-5.423 -100.738,-40.803 -126.758,-90.055 -3.083,27.373 -1.239,41.508 13.609,73.893 C -64.929,-147.28 -68.44,-243.174 -71.058,-293.024 -114.596,-149.906 -70.969,0 0,0"
       style="fill:#261212;fill-opacity:1;fill-rule:nonzero;stroke:#000000;stroke-width:9.271;stroke-linecap:butt;stroke-linejoin:miter;stroke-miterlimit:10;stroke-dasharray:none;stroke-opacity:1"
       transform="matrix(1.3333333,0,0,-1.3333333,7368.4912,350.95547)"
       clip-path="url(#clipPath282)" />
    <path
       id="path283"
       d="m 0,0 c 0,0 2.455,-16.992 34.76,-18.685 32.305,-1.693 36.523,14.949 36.523,14.949 0,0 -13.329,-7.69 -36.08,-6.498 C 12.452,-9.041 0,0 0,0"
       style="fill:#ff9fd4;fill-opacity:1;fill-rule:nonzero;stroke:none"
       transform="matrix(1.3333333,0,0,-1.3333333,7395.7671,682.20587)"
       clip-path="url(#clipPath284)" />
    <path
       id="path285"
       d="m 0,0 c 0,0 8.422,-9.913 33.789,-11.242 25.367,-1.329 34.778,7.649 34.778,7.649"
       style="fill:none;stroke:#000000;stroke-width:4.22;stroke-linecap:round;stroke-linejoin:miter;stroke-miterlimit:10;stroke-dasharray:none;stroke-opacity:1"
       transform="matrix(1.3333333,0,0,-1.3333333,7397.6299,681.2992)"
       clip-path="url(#clipPath286)" />
    <path
       id="path287"
       d="m 0,0 c -0.896,0 -1.769,0.185 -2.593,0.548 -1.571,0.693 -2.779,1.957 -3.4,3.558 -0.62,1.601 -0.58,3.348 0.113,4.919 l 7.357,16.674 -17.051,-6.435 c -0.73,-0.276 -1.493,-0.415 -2.27,-0.415 -2.659,0 -5.076,1.672 -6.015,4.159 -0.607,1.608 -0.551,3.354 0.156,4.919 0.707,1.565 1.982,2.761 3.59,3.367 L 8.751,42.189 21.206,70.417 c 1.028,2.331 3.339,3.835 5.885,3.835 0.896,0 1.768,-0.184 2.593,-0.548 1.571,-0.693 2.778,-1.956 3.399,-3.558 0.621,-1.601 0.581,-3.348 -0.112,-4.919 l -7.357,-16.674 17.05,6.435 c 0.731,0.276 1.494,0.416 2.271,0.416 2.659,0 5.077,-1.673 6.014,-4.161 0.607,-1.606 0.552,-3.352 -0.156,-4.917 -0.707,-1.565 -1.981,-2.762 -3.588,-3.368 L 18.339,32.063 5.884,3.835 C 4.856,1.505 2.547,0 0,0"
       style="fill:#ff7675;fill-opacity:1;fill-rule:nonzero;stroke:none"
       transform="matrix(1.3333333,0,0,-1.3333333,7585.2531,551.74747)"
       clip-path="url(#clipPath288)" />
    <path
       id="path289"
       d="m 0,0 v 0 c -3.536,0 -6.744,-2.09 -8.172,-5.326 l -12.031,-27.269 -27.885,-10.524 c -2.232,-0.842 -4.002,-2.503 -4.984,-4.677 -0.982,-2.173 -1.06,-4.599 -0.217,-6.83 1.304,-3.456 4.662,-5.778 8.354,-5.778 1.079,0 2.14,0.194 3.153,0.577 l 11.475,4.33 -4.951,-11.221 c -0.963,-2.182 -1.019,-4.608 -0.156,-6.832 0.862,-2.224 2.538,-3.979 4.72,-4.942 1.145,-0.505 2.357,-0.761 3.603,-0.761 3.537,0 6.744,2.091 8.172,5.327 l 12.031,27.268 27.886,10.525 c 4.606,1.738 6.939,6.901 5.2,11.507 -1.303,3.455 -4.661,5.777 -8.354,5.777 -1.079,0 -2.14,-0.194 -3.153,-0.576 l -11.474,-4.331 4.95,11.221 c 0.963,2.182 1.019,4.609 0.156,6.833 -0.862,2.223 -2.539,3.978 -4.72,4.941 C 2.458,-0.256 1.246,0 0,0 m 0,-5 c 0.53,0 1.068,-0.108 1.584,-0.335 1.985,-0.876 2.885,-3.196 2.009,-5.181 l -9.762,-22.127 22.626,8.54 c 0.457,0.173 0.926,0.254 1.387,0.254 1.587,0 3.083,-0.969 3.676,-2.543 0.767,-2.03 -0.258,-4.297 -2.288,-5.063 l -29.848,-11.266 -12.878,-29.187 c -0.648,-1.47 -2.087,-2.345 -3.597,-2.345 -0.53,0 -1.068,0.108 -1.584,0.336 -1.985,0.876 -2.885,3.195 -2.009,5.181 l 9.762,22.126 -22.626,-8.54 c -0.457,-0.172 -0.926,-0.254 -1.387,-0.254 -1.587,0 -3.082,0.97 -3.676,2.543 -0.767,2.031 0.258,4.297 2.288,5.064 l 29.848,11.265 12.878,29.188 C -2.949,-5.874 -1.509,-5 0,-5"
       style="fill:#000000;fill-opacity:1;fill-rule:nonzero;stroke:none"
       transform="matrix(1.3333333,0,0,-1.3333333,7621.3739,449.41067)"
       clip-path="url(#clipPath290)" />
  </g>
</svg>
