<svg xmlns="http://www.w3.org/2000/svg" viewBox="0 0 335 529.89"><defs><style>.cls-1,.cls-8{fill:#512626;}.cls-2,.cls-5{fill:#e8c6ba;}.cls-10,.cls-2,.cls-4,.cls-5,.cls-7,.cls-8{stroke:#000;stroke-miterlimit:10;}.cls-2,.cls-4{stroke-width:9.53px;}.cls-3{fill:#fdcb6e;}.cls-10,.cls-4,.cls-7{fill:none;stroke-linecap:round;}.cls-5,.cls-8{stroke-width:9.27px;}.cls-6{fill:#492a11;}.cls-7{stroke-width:4.64px;}.cls-9{fill:#ff9fd4;}.cls-10{stroke-width:4.22px;}.cls-11{fill:#6c5ce7;}</style></defs><g id="Layer_2" data-name="Layer 2"><g id="Endo"><polygon class="cls-1" points="52.97 362.1 286.32 362.1 286.32 232.81 47.06 232.81 52.97 362.1"/><polygon id="neck" class="cls-2" points="117.49 309.07 101.28 444.48 233.58 444.48 217.37 309.07 117.49 309.07"/><g id="jacket"><path class="cls-3" d="M9.52,525.12c-2.71-19.51-4.43-45.94-4.75-73.4,0-43.56,20.74-70.1,38.15-84.69,21.79-18.27,46.55-25.47,63.61-26.24,35.92,80.49,51.95,97.56,52.62,98.25l1.41,1.46H171.9l1.38-1.35c.69-.66,17-17,55.12-98.34,19.54,1.15,44.65,13.12,60.17,24.94,19,14.48,41.64,40.52,41.66,82.36-.67,24.49-2.42,51.65-4.94,77Z"/><path d="M103.54,345.79c34.69,77.27,50.46,94.79,52.19,96.57l2.81,2.9h15.29l2.77-2.68c1.76-1.71,17.91-18.6,54.67-96.67,13,1.67,34.61,8.55,54.41,23.63,18.13,13.82,39.74,38.65,39.79,78.51-.63,23-2.22,48.32-4.51,72.3H13.7c-2.37-18.81-3.86-43.26-4.17-68.63,0-41.74,19.83-67.11,36.45-81,19.5-16.35,41.91-23.42,57.56-24.89M225.41,336c-39.11,84-55.44,99.78-55.44,99.78h-7.39s-16.07-16.61-53-99.78C69.74,336,0,370.46,0,451.78c.3,25.62,1.89,55.28,5.4,78.11H329.6c2.72-26.18,4.68-55.46,5.4-81.71C335,367.9,255.42,336,225.41,336Z"/></g><line id="left_arm" data-name="left arm" class="cls-4" x1="74.97" y1="445.91" x2="74.97" y2="522.08"/><line id="right_arm" data-name="right arm" class="cls-4" x1="261.77" y1="445.91" x2="261.77" y2="522.08"/><g id="necklace"><path d="M167.49,293.31c25,0,50.3,13.2,50.3,38.43,0,11.73-7.51,28.1-19.6,42.73-11.23,13.59-24,22.72-31.78,22.72-5,0-17.23-8.5-29-22.73-12.66-15.28-20.22-31.25-20.22-42.72,0-25.23,25.31-38.43,50.31-38.43m0-5.24c-27.69,0-55.55,15.07-55.55,43.67s39,70.69,54.47,70.69c20,0,56.62-42.1,56.62-70.69s-27.85-43.67-55.54-43.67Z"/></g><path id="face" class="cls-5" d="M277.39,163.18a16.88,16.88,0,0,0-6.22-.25C260.5,88,225.53,58.16,167.78,58.16S75.05,88,64.38,162.93a16.89,16.89,0,0,0-6.22.25C44.35,166.41,38,187.06,44,209.31c4.22,15.61,13.4,27.85,23.27,32.65,14.84,66.81,60.55,102,100.47,102,38.38,0,85.62-35.21,100.46-102,9.87-4.8,19.05-17,23.27-32.65C297.52,187.06,291.2,166.41,277.39,163.18Z"/><ellipse id="left_eye" data-name="left eye" class="cls-6" cx="126.09" cy="193.88" rx="16.22" ry="18.54"/><ellipse id="right_eye" data-name="right eye" class="cls-6" cx="211" cy="193.38" rx="16.22" ry="18.54"/><g id="left_eyebrow" data-name="left eyebrow"><path class="cls-1" d="M102.08,175.53a25.4,25.4,0,0,1,7.77-7.85,27.21,27.21,0,0,1,10.56-3.94,32,32,0,0,1,11.18.19,29.28,29.28,0,0,1,10.31,4,1.38,1.38,0,0,1-1.05,2.5l-.11,0a99.69,99.69,0,0,0-9.89-1.8,44.28,44.28,0,0,0-9.82-.22,28.46,28.46,0,0,0-4.77.9,25.68,25.68,0,0,0-4.54,1.72,31.54,31.54,0,0,0-8.15,5.75l0,0a1,1,0,0,1-1.47-1.23Z"/></g><g id="left_eyebrow-2" data-name="left eyebrow"><path class="cls-1" d="M233.52,176.74a31.54,31.54,0,0,0-8.15-5.75,25.78,25.78,0,0,0-4.55-1.72,28.46,28.46,0,0,0-4.77-.9,44.19,44.19,0,0,0-9.81.22,99.17,99.17,0,0,0-9.89,1.8l-.11,0a1.38,1.38,0,0,1-1.05-2.5,29.21,29.21,0,0,1,10.31-4,32,32,0,0,1,11.17-.19,27.32,27.32,0,0,1,10.57,3.94,25.62,25.62,0,0,1,7.77,7.85,1,1,0,0,1-.3,1.34,1,1,0,0,1-1.17-.11Z"/></g><path id="nose" class="cls-7" d="M172.24,212.56s-18,19.12-13.05,27c3.58,5.79,12.51,7.09,12.51,7.09"/><path id="hair" class="cls-8" d="M101.57,17.79C150.25-2.55,233.12-3.74,283,46.39c48.46,48.75,42.48,239.12,27.91,304.81-2.9,13.1-52.34,34.59-57.72,31.11,15.34-100.42,20.7-162.24,3.51-237.32-51.17,18.44-134.49,3.28-169.58-48.08C59.75,195.57,65.74,292.07,74.93,382.6c-1.52,3.91-53.84-12.66-55.74-13.75C7.92,362.41-25.53,17.79,101.57,17.79Z"/><path id="lipstick" class="cls-9" d="M130.56,285.71s3.35,16.84,35.7,16.84S202,285.71,202,285.71s-12.91,8.38-35.69,8.38S130.56,285.71,130.56,285.71Z"/><path id="mouth" class="cls-10" d="M131.92,285s8.93,9.46,34.34,9.46S200.59,285,200.59,285"/><g id="stone"><polygon class="cls-11" points="162.95 414.86 156.52 408.44 156.52 399.36 162.95 392.94 172.03 392.94 178.45 399.36 178.45 408.44 172.03 414.86 162.95 414.86"/><path d="M171.63,393.89l5.87,5.86v8.3l-5.87,5.86h-8.29l-5.86-5.86v-8.3l5.86-5.86h8.29m.79-1.91h-9.87l-7,7v9.88l7,7h9.87l7-7V399l-7-7Z"/></g></g></g></svg>