<?xml version="1.0" encoding="UTF-8" standalone="no"?>
<svg
   version="1.1"
   id="svg1"
   width="462.15381"
   height="681.17578"
   viewBox="0 0 462.15383 681.17581"
   sodipodi:docname="lauren_1.svg"
   xml:space="preserve"
   inkscape:version="1.4 (e7c3feb1, 2024-10-09)"
   xmlns:inkscape="http://www.inkscape.org/namespaces/inkscape"
   xmlns:sodipodi="http://sodipodi.sourceforge.net/DTD/sodipodi-0.dtd"
   xmlns:xlink="http://www.w3.org/1999/xlink"
   xmlns="http://www.w3.org/2000/svg"
   xmlns:svg="http://www.w3.org/2000/svg"><sodipodi:namedview
     id="namedview1"
     pagecolor="#ffffff"
     bordercolor="#000000"
     borderopacity="0.25"
     inkscape:showpageshadow="2"
     inkscape:pageopacity="0.0"
     inkscape:pagecheckerboard="0"
     inkscape:deskcolor="#d1d1d1"
     inkscape:zoom="2.1102034"
     inkscape:cx="233.62676"
     inkscape:cy="559.42474"
     inkscape:window-width="1920"
     inkscape:window-height="1080"
     inkscape:window-x="0"
     inkscape:window-y="0"
     inkscape:window-maximized="0"
     inkscape:current-layer="layer3" /><defs
     id="defs1"><linearGradient
       id="linearGradient9"
       inkscape:collect="always"><stop
         style="stop-color:#a55b4b;stop-opacity:1;"
         offset="0"
         id="stop9" /><stop
         style="stop-color:#e9c26a;stop-opacity:1;"
         offset="1"
         id="stop10" /></linearGradient><clipPath
       clipPathUnits="userSpaceOnUse"
       id="clipPath112"><path
         d="M 0,1000 H 1000 V 0 H 0 Z"
         transform="translate(-393.91428,-407.19941)"
         id="path112" /></clipPath><clipPath
       clipPathUnits="userSpaceOnUse"
       id="clipPath114"><path
         d="M 0,1000 H 1000 V 0 H 0 Z"
         transform="translate(-458.43131,-460.22491)"
         id="path114" /></clipPath><clipPath
       clipPathUnits="userSpaceOnUse"
       id="clipPath116"><path
         d="M 0,1000 H 1000 V 0 H 0 Z"
         transform="translate(-350.46671,-244.17918)"
         id="path116" /></clipPath><clipPath
       clipPathUnits="userSpaceOnUse"
       id="clipPath118"><path
         d="M 0,1000 H 1000 V 0 H 0 Z"
         transform="translate(-566.34769,-433.34551)"
         id="path118" /></clipPath><clipPath
       clipPathUnits="userSpaceOnUse"
       id="clipPath120"><path
         d="M 0,1000 H 1000 V 0 H 0 Z"
         transform="translate(-415.90774,-323.38821)"
         id="path120" /></clipPath><clipPath
       clipPathUnits="userSpaceOnUse"
       id="clipPath122"><path
         d="M 0,1000 H 1000 V 0 H 0 Z"
         transform="translate(-602.70679,-323.38821)"
         id="path122" /></clipPath><clipPath
       clipPathUnits="userSpaceOnUse"
       id="clipPath126"><path
         d="M 0,1000 H 1000 V 0 H 0 Z"
         transform="translate(-618.33199,-606.12342)"
         id="path126" /></clipPath><clipPath
       clipPathUnits="userSpaceOnUse"
       id="clipPath128"><path
         d="M 0,1000 H 1000 V 0 H 0 Z"
         transform="translate(-483.25189,-575.41601)"
         id="path128" /></clipPath><clipPath
       clipPathUnits="userSpaceOnUse"
       id="clipPath130"><path
         d="M 0,1000 H 1000 V 0 H 0 Z"
         transform="translate(-568.16449,-575.91662)"
         id="path130" /></clipPath><clipPath
       clipPathUnits="userSpaceOnUse"
       id="clipPath132"><path
         d="M 0,1000 H 1000 V 0 H 0 Z"
         transform="translate(-443.01724,-593.76681)"
         id="path132" /></clipPath><clipPath
       clipPathUnits="userSpaceOnUse"
       id="clipPath134"><path
         d="M 0,1000 H 1000 V 0 H 0 Z"
         transform="translate(-574.45924,-592.55901)"
         id="path134" /></clipPath><clipPath
       clipPathUnits="userSpaceOnUse"
       id="clipPath136"><path
         d="M 0,1000 H 1000 V 0 H 0 Z"
         transform="translate(-513.18371,-556.73372)"
         id="path136" /></clipPath><clipPath
       clipPathUnits="userSpaceOnUse"
       id="clipPath142"><path
         d="M 0,1000 H 1000 V 0 H 0 Z"
         transform="translate(-472.86619,-484.33921)"
         id="path142" /></clipPath><linearGradient
       inkscape:collect="always"
       xlink:href="#linearGradient9"
       id="linearGradient10"
       x1="6065.061"
       y1="2395.3433"
       x2="6065.9878"
       y2="2547.3335"
       gradientUnits="userSpaceOnUse"
       gradientTransform="matrix(0.99975577,0,0,1.0172828,-6034.8,-2033.4774)" /></defs><g
     inkscape:groupmode="layer"
     id="layer3"
     inkscape:label="face"
     style="display:inline"><path
       id="path291"
       d="M 0,0 H 233.346 V 129.286 H -5.913 Z"
       style="fill:#a55b4b;fill-opacity:1;fill-rule:nonzero;stroke:none"
       transform="matrix(1.3333333,0,0,-1.3333333,84.865,457.4599)"
       clip-path="url(#clipPath112)" /><path
       id="path292"
       d="M 0,0 -16.214,-135.406 H 116.095 L 99.881,0 Z"
       style="fill:#e8c6ba;fill-opacity:1;fill-rule:nonzero;stroke:#000000;stroke-width:9.533;stroke-linecap:butt;stroke-linejoin:miter;stroke-miterlimit:10;stroke-dasharray:none;stroke-opacity:1"
       transform="matrix(1.3333333,0,0,-1.3333333,170.8877,386.7593)"
       clip-path="url(#clipPath114)" /><path
       id="path293"
       d="m 0,0 c -2.711,19.506 -4.433,45.935 -4.758,73.396 0,43.562 20.745,70.108 38.149,84.697 21.794,18.27 46.551,25.462 63.614,26.236 35.924,-80.492 90.65161,-75.52462 121.868,-0.0188 19.541,-1.152 44.654,-13.11625 60.172,-24.94225 18.998,-14.478 41.642,-40.515 41.664,-82.361 C 320.038,52.524 318.29,25.355 315.765,0 Z"
       style="fill:#888888;fill-opacity:1;fill-rule:nonzero;stroke:none"
       transform="matrix(1.3333333,0,0,-1.3333333,26.9349,674.8202)"
       clip-path="url(#clipPath116)" /><rect
       style="fill:#ff85f3;fill-opacity:1;stroke-width:1.01335"
       id="rect30"
       width="425.96136"
       height="65"
       x="25.445368"
       y="599.17993" /><path
       id="rect28"
       style="color:#000000;font-style:normal;font-variant:normal;font-weight:normal;font-stretch:normal;font-size:medium;line-height:normal;font-family:sans-serif;font-variant-ligatures:normal;font-variant-position:normal;font-variant-caps:normal;font-variant-numeric:normal;font-variant-alternates:normal;font-variant-east-asian:normal;font-feature-settings:normal;font-variation-settings:normal;text-indent:0;text-align:start;text-decoration-line:none;text-decoration-style:solid;text-decoration-color:#000000;letter-spacing:normal;word-spacing:normal;text-transform:none;writing-mode:lr-tb;direction:ltr;text-orientation:mixed;dominant-baseline:auto;baseline-shift:baseline;text-anchor:start;white-space:normal;shape-padding:0;shape-margin:0;inline-size:0;clip-rule:nonzero;display:inline;overflow:visible;visibility:visible;isolation:auto;mix-blend-mode:normal;color-interpolation:sRGB;color-interpolation-filters:linearRGB;solid-color:#000000;solid-opacity:1;vector-effect:none;fill:#ff85f3;fill-opacity:1;fill-rule:nonzero;stroke:none;stroke-linecap:butt;stroke-linejoin:miter;stroke-miterlimit:4;stroke-dasharray:none;stroke-dashoffset:0;stroke-opacity:1;-inkscape-stroke:none;color-rendering:auto;image-rendering:auto;shape-rendering:auto;text-rendering:auto;enable-background:accumulate;stop-color:#000000;stop-opacity:1"
       d="M 23.591852,469.17999 H 181.07787 c 0,0 28.13185,39.20195 55.49467,39.49478 28.16695,0.30144 58.49435,-39.49478 58.49435,-39.49478 h 154.48633 v 65 H 23.591852 Z"
       sodipodi:nodetypes="ccsccccc" /><path
       id="path294"
       d="m 0,0 c -38.063514,-75.222315 -79.314795,-75.892596 -115.812,0 -39.851,0 -109.594,-34.512 -109.594,-115.827 0.305,-25.62 1.888,-55.276 5.405,-78.106 h 324.19 c 2.721,26.173 4.688,55.458 5.405,81.709 C 109.594,-31.945 30.016,0 0,0 m -121.863,-9.832 c 34.688,-77.272 90.966,-78.191 127.728,-0.121 13.052,-1.678 34.613,-8.55 54.41,-23.637 18.131,-13.818 39.741,-38.649 39.786,-78.507 -0.631,-22.973 -2.215,-48.325 -4.502,-72.303 h -307.263 c -2.367,18.817 -3.865,43.263 -4.169,68.63 0.017,41.748 19.826,67.113 36.444,81.044 19.5,16.346 41.912,23.422 57.566,24.894"
       style="fill:#000000;fill-opacity:1;fill-rule:nonzero;stroke:none"
       transform="matrix(1.3333333,0,0,-1.3333333,314.7762,422.5985)"
       clip-path="url(#clipPath118)" /><path
       id="path295"
       d="M 0,0 V -76.166"
       style="fill:none;stroke:#000000;stroke-width:9.533;stroke-linecap:round;stroke-linejoin:miter;stroke-miterlimit:10;stroke-dasharray:none;stroke-opacity:1"
       transform="matrix(1.3333333,0,0,-1.3333333,114.1896,569.2082)"
       clip-path="url(#clipPath120)" /><path
       id="path296"
       d="M 0,0 V -76.166"
       style="fill:none;stroke:#000000;stroke-width:9.533;stroke-linecap:round;stroke-linejoin:miter;stroke-miterlimit:10;stroke-dasharray:none;stroke-opacity:1"
       transform="matrix(1.3333333,0,0,-1.3333333,363.255,569.2082)"
       clip-path="url(#clipPath122)" /><path
       id="path298"
       d="m 0,0 c -2.036,0.476 -4.122,0.537 -6.217,0.241 -10.672,74.988 -45.646,104.778 -103.396,104.778 -57.751,0 -92.725,-29.79 -103.397,-104.778 -2.095,0.296 -4.181,0.235 -6.217,-0.241 -13.81,-3.231 -20.132,-23.884 -14.119,-46.13 4.22,-15.617 13.398,-27.856 23.27,-32.654 14.835,-66.81 60.549,-102.017 100.463,-102.017 38.382,0 85.627,35.207 100.462,102.017 9.872,4.798 19.05,17.037 23.27,32.654 C 20.132,-23.884 13.81,-3.231 0,0"
       style="fill:#e8c6ba;fill-opacity:1;fill-rule:nonzero;stroke:#000000;stroke-width:9.271;stroke-linecap:butt;stroke-linejoin:miter;stroke-miterlimit:10;stroke-dasharray:none;stroke-opacity:1"
       transform="matrix(1.3333333,0,0,-1.3333333,384.0886,192.2279)"
       clip-path="url(#clipPath126)" /><path
       id="path299"
       d="m 0,0 c 0,-10.24 -7.264,-18.541 -16.224,-18.541 -8.96,0 -16.223,8.301 -16.223,18.541 0,10.24 7.263,18.541 16.223,18.541 C -7.264,18.541 0,10.24 0,0"
       style="fill:#008293;fill-opacity:1;fill-rule:nonzero;stroke:none"
       transform="matrix(1.3333333,0,0,-1.3333333,203.9818,233.1711)"
       clip-path="url(#clipPath128)" /><path
       id="path300"
       d="m 0,0 c 0,-10.24 -7.264,-18.541 -16.224,-18.541 -8.96,0 -16.223,8.301 -16.223,18.541 0,10.24 7.263,18.541 16.223,18.541 C -7.264,18.541 0,10.24 0,0"
       style="fill:#008293;fill-opacity:1;fill-rule:nonzero;stroke:none"
       transform="matrix(1.3333333,0,0,-1.3333333,317.1986,232.5037)"
       clip-path="url(#clipPath130)" /><path
       id="path301"
       d="m 0,0 c 1.949,3.068 4.587,5.822 7.77,7.856 3.178,2.038 6.836,3.369 10.566,3.938 3.733,0.573 7.537,0.54 11.175,-0.196 3.648,-0.731 7.121,-1.917 10.311,-3.98 C 40.46,7.205 40.643,6.352 40.23,5.714 39.909,5.217 39.321,4.996 38.775,5.117 L 38.664,5.143 C 35.408,5.873 32.051,6.551 28.771,6.942 25.48,7.305 22.189,7.536 18.958,7.157 17.346,6.974 15.739,6.72 14.189,6.257 12.64,5.805 11.089,5.294 9.64,4.545 6.673,3.167 4.005,1.129 1.493,-1.208 L 1.474,-1.226 C 1.083,-1.589 0.472,-1.567 0.108,-1.176 -0.198,-0.847 -0.23,-0.362 0,0"
       style="fill:#a55b4b;fill-opacity:1;fill-rule:nonzero;stroke:none"
       transform="matrix(1.3333333,0,0,-1.3333333,150.3356,208.7034)"
       clip-path="url(#clipPath132)" /><path
       id="path302"
       d="m 0,0 c -2.512,2.337 -5.18,4.375 -8.147,5.753 -1.45,0.749 -3.001,1.26 -4.55,1.712 -1.55,0.463 -3.157,0.717 -4.768,0.9 -3.231,0.379 -6.522,0.148 -9.814,-0.216 -3.279,-0.39 -6.637,-1.068 -9.892,-1.798 L -37.28,6.326 c -0.742,-0.166 -1.478,0.3 -1.645,1.042 -0.13,0.577 0.127,1.153 0.596,1.458 3.19,2.063 6.662,3.249 10.311,3.98 3.638,0.736 7.442,0.769 11.174,0.196 3.73,-0.569 7.389,-1.9 10.566,-3.938 C -3.095,7.03 -0.457,4.276 1.492,1.208 1.779,0.757 1.646,0.16 1.195,-0.126 0.816,-0.367 0.333,-0.31 0.019,-0.018 Z"
       style="fill:#a55b4b;fill-opacity:1;fill-rule:nonzero;stroke:none"
       transform="matrix(1.3333333,0,0,-1.3333333,325.5916,210.3138)"
       clip-path="url(#clipPath134)" /><path
       id="path303"
       d="m 0,0 c 0,0 -17.95,-19.113 -13.056,-27.007 3.589,-5.788 12.515,-7.092 12.515,-7.092"
       style="display:inline;fill:none;stroke:#000000;stroke-width:4.635;stroke-linecap:round;stroke-linejoin:miter;stroke-miterlimit:10;stroke-dasharray:none;stroke-opacity:1"
       transform="matrix(1.3333333,0,0,-1.3333333,243.8909,258.0809)"
       clip-path="url(#clipPath136)" /><path
       id="path306"
       d="M 0,0 C 0,0 8.929,-9.458 34.331,-9.458 59.732,-9.458 68.661,0 68.661,0"
       style="fill:none;stroke:#000000;stroke-width:4.22;stroke-linecap:round;stroke-linejoin:miter;stroke-miterlimit:10;stroke-dasharray:none;stroke-opacity:1"
       transform="matrix(1.0545819,0,0,-1.3883561,199.7039,353.036)"
       clip-path="url(#clipPath142)" /><path
       style="font-variation-settings:normal;display:inline;vector-effect:none;fill:url(#linearGradient10);fill-opacity:1;stroke:#000000;stroke-width:12.94;stroke-linecap:butt;stroke-linejoin:miter;stroke-miterlimit:10;stroke-dasharray:none;stroke-dashoffset:0;stroke-opacity:1;-inkscape-stroke:none;stop-color:#000000"
       d="m 217.92515,17.617655 c 132.54502,1.16367 251.81649,46.913596 236.40045,501.538285 -35.56773,25.73064 -79.33077,31.5719 -121.70787,28.07408 36.70474,-176.48615 44.13162,-242.66599 20.02731,-382.65834 -69.63069,22.2023 -169.14908,33.01642 -238.77697,1.0124 -3.12993,144.09108 6.75745,222.43986 27.25085,382.7801 C 98.190602,555.8874 48.697793,548.11505 10.469732,528.82635 -2.1226922,51.61555 85.380032,16.454087 217.92515,17.617655 Z"
       id="path309"
       inkscape:label="hair front"
       sodipodi:nodetypes="cccccccc" /><path
       id="path12"
       style="fill:#a55b4b"
       d="m 145.59883,276.14444 a 2.7803092,2.7803092 0 0 1 -2.78031,2.78031 2.7803092,2.7803092 0 0 1 -2.78031,-2.78031 2.7803092,2.7803092 0 0 1 2.78031,-2.78031 2.7803092,2.7803092 0 0 1 2.78031,2.78031 z" /><path
       id="path13"
       style="fill:#a55b4b"
       d="m 153.07202,297.63162 a 2.7803092,2.7803092 0 0 1 -2.78031,2.78031 2.7803092,2.7803092 0 0 1 -2.78031,-2.78031 2.7803092,2.7803092 0 0 1 2.78031,-2.78031 2.7803092,2.7803092 0 0 1 2.78031,2.78031 z" /><path
       id="path14"
       style="fill:#a55b4b"
       d="m 170.34899,283.83004 a 2.7803092,2.7803092 0 0 1 -2.78031,2.78031 2.7803092,2.7803092 0 0 1 -2.78031,-2.78031 2.7803092,2.7803092 0 0 1 2.78031,-2.78031 2.7803092,2.7803092 0 0 1 2.78031,2.78031 z" /><path
       id="path15"
       style="fill:#a55b4b"
       d="m 183.53499,301.92135 a 2.7803092,2.7803092 0 0 1 -2.78031,2.78031 2.7803092,2.7803092 0 0 1 -2.78031,-2.78031 2.7803092,2.7803092 0 0 1 2.78031,-2.78031 2.7803092,2.7803092 0 0 1 2.78031,2.78031 z" /><path
       id="path16"
       style="fill:#a55b4b"
       d="m 196.721,283.58189 a 2.7803092,2.7803092 0 0 1 -2.78031,2.78031 2.7803092,2.7803092 0 0 1 -2.78031,-2.78031 2.7803092,2.7803092 0 0 1 2.78031,-2.78031 2.7803092,2.7803092 0 0 1 2.78031,2.78031 z" /><path
       id="path17"
       style="fill:#a55b4b"
       d="m 276.04168,283.5586 a 2.7803092,2.7803092 0 0 1 -2.78031,2.78031 2.7803092,2.7803092 0 0 1 -2.78031,-2.78031 2.7803092,2.7803092 0 0 1 2.78031,-2.78031 2.7803092,2.7803092 0 0 1 2.78031,2.78031 z" /><path
       id="path18"
       style="fill:#a55b4b"
       d="m 301.87079,283.5586 a 2.7803092,2.7803092 0 0 1 -2.78031,2.78031 2.7803092,2.7803092 0 0 1 -2.78031,-2.78031 2.7803092,2.7803092 0 0 1 2.78031,-2.78031 2.7803092,2.7803092 0 0 1 2.78031,2.78031 z" /><path
       id="path19"
       style="fill:#a55b4b"
       d="m 330.58219,274.59044 a 2.7803092,2.7803092 0 0 1 -2.78031,2.78031 2.7803092,2.7803092 0 0 1 -2.78031,-2.78031 2.7803092,2.7803092 0 0 1 2.78031,-2.78031 2.7803092,2.7803092 0 0 1 2.78031,2.78031 z" /><path
       id="path20"
       style="fill:#a55b4b"
       d="m 289.37484,301.84183 a 2.7803092,2.7803092 0 0 1 -2.78031,2.78031 2.7803092,2.7803092 0 0 1 -2.78031,-2.78031 2.7803092,2.7803092 0 0 1 2.78031,-2.78031 2.7803092,2.7803092 0 0 1 2.78031,2.78031 z" /><path
       id="path21"
       style="fill:#a55b4b"
       d="m 319.56637,296.54101 a 2.7803092,2.7803092 0 0 1 -2.78031,2.78031 2.7803092,2.7803092 0 0 1 -2.78031,-2.78031 2.7803092,2.7803092 0 0 1 2.78031,-2.78031 2.7803092,2.7803092 0 0 1 2.78031,2.78031 z" /></g></svg>
