<svg xmlns="http://www.w3.org/2000/svg" viewBox="0 0 2535.1 1678.69"><defs><style>.cls-1{fill:none;stroke:#999584;stroke-linecap:round;stroke-miterlimit:10;stroke-width:20px;}.cls-2{fill:#00d8b9;}.cls-3{fill:#00b8a9;}.cls-4{fill:#ffde7d;}.cls-5{fill:#f6416c;}</style></defs><g id="Layer_2" data-name="Layer 2"><g id="Double_Hangaku" data-name="Double Hangaku"><path class="cls-1" d="M1907.21,344.12c-13.51,72.65-68.49,144-161.77,157.13-74.94,10.54-138.37,54-158,153.48-17,86-64.21,146.54-174.53,169.53-104.74,21.83-183,91.68-205.44,199.54-22.88,110-96,191-216.93,210.71-74,12.09-147.82,59.72-176.73,171.67-24,92.82-75.58,184.59-212.68,206.58"/><path class="cls-1" d="M1999.27,390c-26.22,84-60,128.7-161.77,157.13-47.44,13.26-122.06,72.75-158,153.48C1636.4,797.35,1633.06,842.14,1505,870.1c-77.56,16.93-151.67,67.23-217.78,222.59C1231.5,1223.55,1174.83,1275,1056,1302.59c-73.06,17-142.14,57.73-161.61,146-20.64,93.62-121.88,189.36-259,211.35"/><path class="cls-1" d="M1856.38,269.21c-26.22,84-59,143.57-161.77,157.13-82.64,10.89-122.36,64.09-151.54,158.25-26,84-68.11,136-195.31,167.76-91.2,22.79-143.65,59.11-188.42,205-41.74,136-112.73,208.28-231.53,235.86-73.06,17-144.89,49.89-176.28,134.67-44.39,119.89-81,217.64-224,232.25"/><path class="cls-2" d="M979.86,1516.2c22.66-1.72,51.39,4.33,50.83,42.62s-18.92,67.09-49.11,67.34c-60.57.5-48.29-32.44-41.78-55.36C947.94,1542.11,965.21,1517.31,979.86,1516.2Z"/><path class="cls-2" d="M854.32,1002.58c-26.55,8.41-62.52,9.26-72.61-36.57s3.73-85.37,39.69-94.14c72.12-17.61,66.72,25.14,65.39,54.31C885.13,962.7,871.49,997.14,854.32,1002.58Z"/><path class="cls-2" d="M727.79,877.35c-22,28.46-68.89,64-103.93,14.63-38.93-54.9-57.71-122.14-26-157.9C661.36,662.34,686,740.52,706,772.43,731.12,812.39,742,859,727.79,877.35Z"/><path class="cls-2" d="M1096.83,1601.74c-22.61-15-45.23-41.75-16.65-77.41s67-49.34,95.64-27.44c57.43,43.93,21.71,65.95-1.22,82.78C1145.9,1600.73,1111.45,1611.43,1096.83,1601.74Z"/><path class="cls-2" d="M2343.3,1477.78c-4.45,34.62-22.46,76-79.89,63.24s-113.75-57.58-86.06-94.79c49.7-66.78,83.71-70.39,116.17-53.49C2334.16,1413.9,2346.18,1455.39,2343.3,1477.78Z"/><path class="cls-2" d="M1044.12,1460.48c-13.56-16.28-24.49-41.37,4.89-61.65s61.18-21.91,77.7.89c33.13,45.73,1.48,54.22-19.45,61.67C1081.06,1470.72,1052.89,1471,1044.12,1460.48Z"/><path class="cls-2" d="M2384.07,1248.82c16.63-25.57,46.48-51.28,86.86-19.5s56.14,74.83,31.81,107.24c-48.8,65-73.92,25.07-93.07-.53C2385.71,1304,2373.32,1265.35,2384.07,1248.82Z"/><path class="cls-2" d="M725.77,991.56c20.38,19.22,36,52.27-11.74,92.16s-98.2,53.24-122.83,25.47c-49.42-55.7,1.2-79.06,34.77-97.21C668,989.26,712.59,979.13,725.77,991.56Z"/><path class="cls-2" d="M1562,247.17c10-28.81,33.29-60.61,82.88-38s77.24,61.71,61.32,98.93c-31.94,74.66-68.24,40.69-94.6,19.56C1578.59,301.23,1555.57,265.8,1562,247.17Z"/><path class="cls-2" d="M1512.64,67.65c27,10.14,58.26,30.08,43.45,62.76s-46.85,48.06-82.12,32.79c-70.73-30.63-44.25-52.69-28.19-69.08C1465.88,73.59,1495.17,61.09,1512.64,67.65Z"/><path class="cls-2" d="M1384.14,331.71c-29.31,2.86-66.7-4.17-67.05-53.79s22.63-87.46,61.75-88.63c78.45-2.34,63.47,40.68,55.68,70.55C1424.77,297.25,1403.09,329.86,1384.14,331.71Z"/><path class="cls-2" d="M2189.18,1170.52c29.2-20.15,72.07-35.92,98.58,10s22.36,94.74-18,119.16c-81,49-87.92.09-95.5-32.3C2164.77,1226.77,2170.3,1183.54,2189.18,1170.52Z"/><path class="cls-3" d="M762.14,504.84s96.63-98.41,206.7-65.77c76.14,22.57,104.88,40.17,160.85,60,71.85,25.51,102.37-28.84,168.18-6.61,62.87,21.24,111.94,97.46,111.94,97.46s-89,81.25-188.53,65.74c-75.91-11.83-123.69-58.44-155.26-65C1001.55,577.35,972.33,619.5,909.2,615,800.86,607.33,762.14,504.84,762.14,504.84Z"/><path class="cls-3" d="M327.42,1014.89s80.93,127,85.05,248.25c2.56,75.54-52.81,119.43-100.64,184.54-50.1,68.19,15.13,82.59-9.33,141.5-31.8,76.59-81.35,89.51-81.35,89.51s-70.47-83-32.05-251.67c11.76-51.62,27.36-82,47.1-120.08,28-53.93-5.11-98.88,4-156.57C255.87,1051.37,327.42,1014.89,327.42,1014.89Z"/><path class="cls-3" d="M990.21,0S1018,92.3,936.7,181.12C886,236.46,838.12,270,758.91,281.78c-83,12.37-95,99.74-153.29,123.92C529.81,437.13,428.25,304,428.25,304s54.51,18.38,116.72-7.67c65-27.22,70.48-91.28,117.66-133.3,45.65-40.67,126.35-39,181.73-55.12C914.69,87.47,990.21,0,990.21,0Z"/><path class="cls-3" d="M1698.57,949.9s134.22,48.73,220.18,33.57,125.71-111,213-119.69,165.2-19.22,204.83-28.26S2471.7,719.31,2471.7,719.31s-28.19-53.7-133.67-51.69c-101.88,1.93-95,43.56-147.8,73.13s-101-9.24-154.71,16.86-83.54,74.31-123.94,95.23-78.44.54-128.13,20.8C1739.91,891.4,1698.57,949.9,1698.57,949.9Z"/><path class="cls-4" d="M293.3,500.89c22.26,42.44,35,104.92-44.38,137.31S94,663.86,94.11,600.22c.14-98.12,26.94-122,79.54-129.41C239.51,461.53,278.9,473.45,293.3,500.89Z"/><path class="cls-5" d="M248.84,385.32C135.72,353.08,33.25,440.79,5.52,538.09S57.87,693.27,171,725.51s207.87-14.69,235.6-112S362,417.56,248.84,385.32ZM201.29,719.25c-90.9-25.9-177-82.94-154.73-161.13S155.27,374.27,246.18,400.18s145,131.05,122.66,209.24S292.2,745.16,201.29,719.25Z"/><path class="cls-4" d="M1825.24,1384.08c-12.72,72.32-55.78,160-182.36,125s-211.92-113.86-152.24-191c92-118.89,146.86-122.75,217.61-82.51C1796.84,1286,1833.46,1337.32,1825.24,1384.08Z"/><path class="cls-5" d="M1879.5,1202.27c-107-145-313.45-134.51-438.17-42.44s-81.75,237.24,25.3,382.24,265.9,176.76,390.62,84.69S1986.55,1347.27,1879.5,1202.27Zm-370.27,360.57c-86-116.52-137.08-266.31-36.86-340.3s304-121.25,390-4.73,53.16,294.64-47.06,368.63S1595.26,1679.36,1509.23,1562.84Z"/><path class="cls-4" d="M2284.29,470.15c-50.14-15.52-100.76-116.26-52.47-196.74,47.22-78.69,150.06-86,199.37-36.72,76,75.93,31.48,131.16-15.74,173.13C2361,458.21,2316.69,480.19,2284.29,470.15Z"/><path class="cls-5" d="M2434.17,509.05c112.44-62.84,123.58-210.11,69.53-306.83s-160.83-79.31-273.27-16.47-149.25,172.61-95.2,269.32S2321.73,571.89,2434.17,509.05ZM2276.42,202.59c90.35-50.5,190-1.65,233.46,76.07S2463.83,448.51,2373.48,499,2212.3,479.66,2168.86,402,2186.06,253.08,2276.42,202.59Z"/></g></g></svg>