<svg xmlns="http://www.w3.org/2000/svg" viewBox="0 0 896.89 1386.04"><defs><style>.cls-1{fill:none;stroke:#999584;stroke-linecap:round;stroke-miterlimit:10;stroke-width:11.2px;}.cls-2{fill:#00d8b9;}.cls-3{fill:#00b8a9;}.cls-4{fill:#ffde7d;}.cls-5{fill:#f6416c;}</style></defs><g id="Layer_2" data-name="Layer 2"><g id="Double_Hangaku" data-name="Double Hangaku"><path class="cls-1" d="M840.12,508.77c-7.52,40.39-38.08,80.06-89.93,87.35-41.67,5.86-76.93,30-87.84,85.33-9.44,47.82-35.7,81.46-97,94.24-58.23,12.14-101.74,51-114.21,110.93-12.72,61.18-53.37,106.17-120.6,117.14-41.15,6.72-82.18,33.2-98.25,95.44-13.32,51.6-42,102.62-118.23,114.84"/><path class="cls-1" d="M891.29,534.26c-14.57,46.72-33.38,71.54-89.93,87.35C775,629,733.51,662.05,713.52,706.93c-23.95,53.8-25.81,78.7-97,94.25-43.12,9.41-84.32,37.37-121.08,123.74-30.95,72.75-62.46,101.36-128.5,116.69-40.62,9.43-79,32.09-89.84,81.17-11.48,52-67.76,105.27-144,117.5"/><path class="cls-1" d="M811.86,467.12c-14.58,46.72-32.77,79.82-89.93,87.35-45.95,6.06-68,35.64-84.25,88-14.48,46.7-37.86,75.6-108.58,93.27-50.7,12.66-79.86,32.86-104.75,113.94-23.2,75.58-62.67,115.79-128.71,131.12-40.62,9.43-80.55,27.74-98,74.87-24.68,66.65-45.06,121-124.56,129.11"/><path class="cls-2" d="M349,675.32c15.36-1.16,34.82,2.93,34.44,28.88s-12.81,45.45-33.27,45.62c-41,.34-32.72-22-28.31-37.5C327.41,692.88,339.11,676.07,349,675.32Z"/><path class="cls-2" d="M824.22,427.87c-12.55,4-29.55,4.38-34.32-17.29s1.76-40.35,18.76-44.5c34.09-8.32,31.54,11.88,30.91,25.67C838.79,409,832.34,425.3,824.22,427.87Z"/><path class="cls-2" d="M764.41,368.67C754,382.12,731.85,399,715.28,375.59c-18.4-26-27.28-57.74-12.31-74.65,30-33.91,41.66,3.05,51.14,18.13C766,338,771.12,360,764.41,368.67Z"/><path class="cls-2" d="M428.29,733.28C413,723.12,397.64,705,417,680.83s45.4-33.43,64.79-18.59c38.91,29.76,14.72,44.68-.82,56.08C461.53,732.59,438.19,739.85,428.29,733.28Z"/><path class="cls-2" d="M321.6,1283.87c-2.05,16-10.34,35-36.79,29.13s-52.4-26.52-39.64-43.66c22.89-30.76,38.55-32.42,53.5-24.64C317.39,1254.45,322.93,1273.56,321.6,1283.87Z"/><path class="cls-2" d="M392.57,637.57c-9.18-11-16.59-28,3.31-41.77s41.46-14.85,52.65.6c22.45,31,1,36.73-13.18,41.78C417.6,644.5,398.51,644.7,392.57,637.57Z"/><path class="cls-2" d="M591.25,1008.41c7.83-12,21.88-24.13,40.89-9.17s26.43,35.22,15,50.47c-23,30.6-34.8,11.81-43.81-.25C592,1034.37,586.19,1016.19,591.25,1008.41Z"/><path class="cls-2" d="M763.45,422.66c9.64,9.09,17,24.71-5.55,43.57s-46.42,25.17-58.06,12c-23.36-26.33.57-37.38,16.44-45.95C736.15,421.58,757.22,416.78,763.45,422.66Z"/><path class="cls-2" d="M99.27,941.51c4.56-13.2,15.25-27.77,38-17.4s35.38,28.28,28.09,45.33c-14.63,34.2-31.26,18.64-43.34,9C106.87,966.27,96.32,950,99.27,941.51Z"/><path class="cls-2" d="M394.87,146c15.61,5.85,33.62,17.36,25.08,36.22s-27,27.74-47.39,18.92c-40.83-17.67-25.54-30.4-16.28-39.87C367.89,149.38,384.79,142.17,394.87,146Z"/><path class="cls-2" d="M320.71,298.35c-16.91,1.65-38.49-2.4-38.69-31s13.06-50.47,35.63-51.15c45.28-1.35,36.63,23.48,32.14,40.72C344.16,278.46,331.65,297.29,320.71,298.35Z"/><path class="cls-2" d="M499.51,971.56c13.75-9.49,33.93-16.91,46.41,4.68s10.52,44.59-8.48,56.09c-38.11,23.06-41.38,0-45-15.2C488,998,490.62,977.69,499.51,971.56Z"/><path class="cls-3" d="M459.56,243.12s73,13.69,91.42,72.7c12.74,40.81,13.49,58.94,21.4,89.93C582.53,445.52,616,442.87,625.79,479c9.36,34.48-10,79.28-10,79.28s-63-15.39-85.95-64.58c-17.48-37.49-11-72.83-17.52-88.91-13.36-32.84-41-33.26-57.91-62.83C425.35,291.18,459.56,243.12,459.56,243.12Z"/><path class="cls-3" d="M.05,664.84s76.91-2,131.06,28.2c33.73,18.78,38.35,54.58,54.24,92.67,16.65,39.89,40.14,15.14,59.47,41.37,25.14,34.1,17.74,59.19,17.74,59.19S207.65,895.23,144,834c-19.49-18.75-28.69-33.59-40.14-52.26-16.23-26.46-44.62-23.81-67.47-43C-2.84,705.77.05,664.84.05,664.84Z"/><path class="cls-3" d="M277.4,4s33.39,35.38,16.76,93.84c-10.37,36.42-24.42,62.38-57.51,85.6C202,207.78,216.31,249.93,195.46,274c-27.12,31.32-103-5.83-103-5.83s28.76-4,51-29.83c23.17-27,11.19-57.12,23-86.74,11.42-28.67,48.22-46.16,69.57-65.94C263.07,60.55,277.4,4,277.4,4Z"/><path class="cls-3" d="M864.09,1229.8s9.48-69.9-6.83-109.81-66.71-49.08-80.06-90.32-26.56-77.74-35.07-95.92-70.23-53-70.23-53-23,19.22-11,69.93c11.59,49,31,41.29,50.76,63.7s6.11,49.72,24.33,72.92,44.61,32.56,58.93,49.87,8.47,37.81,23.45,59.68C831.52,1216,864.09,1229.8,864.09,1229.8Z"/></g><g id="Graphics_Team_" data-name="Graphics (Team)"><path class="cls-4" d="M299,473.24c13.91,26.51,21.85,65.53-27.71,85.76s-96.75,16-96.69-23.72c.09-61.28,16.82-76.19,49.68-80.82C265.42,448.66,290,456.11,299,473.24Z"/><path class="cls-5" d="M271.25,401.06c-70.65-20.14-134.65,34.65-152,95.42s32.7,96.91,103.35,117,129.83-9.17,147.15-69.95S341.9,421.2,271.25,401.06Zm-29.7,208.56C184.78,593.44,131,557.82,144.91,509s67.9-114.82,124.67-98.64S360.11,492.19,346.2,541,298.33,625.8,241.55,609.62Z"/><path class="cls-4" d="M597,1249.24c-5.91,33.58-25.9,74.31-84.69,58.06s-98.42-52.88-70.7-88.7c42.73-55.21,68.2-57,101.06-38.32C583.76,1203.68,600.77,1227.52,597,1249.24Z"/><path class="cls-5" d="M622.15,1164.8c-49.72-67.34-145.57-62.47-203.49-19.71s-38,110.18,11.75,177.52,123.49,82.09,181.41,39.33S671.86,1232.14,622.15,1164.8Zm-172,167.45c-39.95-54.11-63.66-123.67-17.12-158s141.16-56.32,181.11-2.2,24.69,136.83-21.85,171.19S490.14,1386.37,450.19,1332.25Z"/><path class="cls-4" d="M669.64,190.5c-28.43-8.8-57.13-65.91-29.75-111.54,26.77-44.62,85.08-48.76,113-20.83C796,101.19,770.77,132.5,744,156.3,713.14,183.73,688,196.19,669.64,190.5Z"/><path class="cls-5" d="M754.62,212.56c63.75-35.63,70.07-119.13,39.42-174s-91.19-45-154.94-9.34-84.62,97.87-54,152.7S690.87,248.19,754.62,212.56ZM665.17,38.8c51.23-28.63,107.75-.93,132.37,43.13s-26.11,96.3-77.34,124.93-91.38-11-116-55S614,67.43,665.17,38.8Z"/></g></g></svg>