<svg xmlns="http://www.w3.org/2000/svg" viewBox="0 0 52.75 57.69"><defs><style>.cls-1{fill:#f8f3d4;}</style></defs><g id="Layer_2" data-name="Layer 2"><g id="icons"><path class="cls-1" d="M30.75,57.69a12.33,12.33,0,0,1-4.37-.79,12.38,12.38,0,0,1-4.38.79c-9.33,0-17.93-10.14-20.86-19.95C-1.51,28.87.52,21.2,6.57,17.23a15.44,15.44,0,0,1,8.61-2.48,25,25,0,0,1,11.2,3,24.91,24.91,0,0,1,11.19-3,15.42,15.42,0,0,1,8.61,2.48c6,4,8.08,11.64,5.44,20.51C48.69,47.55,40.09,57.69,30.75,57.69Zm-4.37-4.63a2,2,0,0,1,.75.16,8.8,8.8,0,0,0,3.62.78c7.51,0,14.84-9,17.33-17.32,1-3.46,2.72-12-3.92-16.36a11.8,11.8,0,0,0-6.59-1.88,21.57,21.57,0,0,0-10.2,3,1.86,1.86,0,0,1-2,0,21.83,21.83,0,0,0-10.21-3A11.76,11.76,0,0,0,8.6,20.32c-6.65,4.36-5,12.9-3.92,16.37C7.16,45,14.49,54,22,54a8.81,8.81,0,0,0,3.63-.78A1.94,1.94,0,0,1,26.38,53.06Z"/><path class="cls-1" d="M26.27,16.07a1.83,1.83,0,0,1-1.71-1.17c-1.59-4-1.53-7.4.17-10.06C27.56.42,33.86,0,34.13,0a1.86,1.86,0,0,1,1.7.92c2.78,4.76,1.31,9.41-4,12.75a1.84,1.84,0,1,1-2-3.12c4-2.49,4-4.88,3.32-6.7-1.51.29-4.1,1.05-5.33,3-1,1.6-1,3.86.15,6.71a1.83,1.83,0,0,1-1,2.39A1.79,1.79,0,0,1,26.27,16.07Z"/><path class="cls-1" d="M9.05,36.29a1.86,1.86,0,0,1-1.69-1.1c-2-4.42-1.52-8.59,1.23-11.44S16,20.07,20.35,21.81A1.84,1.84,0,0,1,19,25.23c-2.92-1.18-5.95-.75-7.72,1.09s-1.86,4.35-.51,7.37a1.86,1.86,0,0,1-.94,2.44A1.81,1.81,0,0,1,9.05,36.29Z"/></g></g></svg>