<svg xmlns="http://www.w3.org/2000/svg" viewBox="0 0 38.99 57.69"><defs><style>.cls-1{fill:#f8f3d4;}</style></defs><g id="Layer_2" data-name="Layer 2"><g id="icons"><path class="cls-1" d="M30.15,57.69H8.85A8.86,8.86,0,0,1,0,48.85V36.92a1.85,1.85,0,1,1,3.69,0V48.85A5.16,5.16,0,0,0,8.85,54h21.3a5.16,5.16,0,0,0,5.15-5.15V36.92a1.85,1.85,0,1,1,3.69,0V48.85A8.86,8.86,0,0,1,30.15,57.69Z"/><path class="cls-1" d="M22,27.92a2.5,2.5,0,1,1-2.5-2.5A2.5,2.5,0,0,1,22,27.92Z"/><path class="cls-1" d="M29.11,36.91H9.88A9.9,9.9,0,0,1,0,27a19.5,19.5,0,1,1,39,0A9.9,9.9,0,0,1,29.11,36.91ZM19.5,11.21A15.82,15.82,0,0,0,3.69,27a6.2,6.2,0,0,0,6.19,6.19H29.11A6.2,6.2,0,0,0,35.3,27,15.82,15.82,0,0,0,19.5,11.21Z"/><path class="cls-1" d="M12.34,12.74a1.84,1.84,0,0,1-1.84-1.85V9a9,9,0,0,1,18,0v1.87a1.85,1.85,0,1,1-3.69,0V9A5.31,5.31,0,1,0,14.19,9v1.89A1.85,1.85,0,0,1,12.34,12.74Z"/><path class="cls-1" d="M25.82,44H8.28a1.85,1.85,0,1,1,0-3.69H25.82a1.85,1.85,0,0,1,0,3.69Z"/><path class="cls-1" d="M30.2,47.69a1.85,1.85,0,0,1-1.85-1.85v-3.7a1.85,1.85,0,0,1,3.7,0v3.7A1.85,1.85,0,0,1,30.2,47.69Z"/></g></g></svg>