<svg xmlns="http://www.w3.org/2000/svg" viewBox="0 0 49.66 57.69"><defs><style>.cls-1{fill:#f8f3d4;}</style></defs><g id="Layer_2" data-name="Layer 2"><g id="icons"><path class="cls-1" d="M21.56,45.88A21.59,21.59,0,1,1,40.05,35.46,21.55,21.55,0,0,1,21.56,45.88Zm0-39.49A17.9,17.9,0,1,0,30.84,9,17.8,17.8,0,0,0,21.59,6.39Z"/><path class="cls-1" d="M21.53,52.38A27.86,27.86,0,0,1,7.05,48.31,1.85,1.85,0,0,1,9,45.15,24.38,24.38,0,0,0,45.25,18.46a24.19,24.19,0,0,0-11.06-15A1.85,1.85,0,0,1,36.1.27a28.06,28.06,0,0,1,9.5,38.55A27.9,27.9,0,0,1,28.29,51.55,28.36,28.36,0,0,1,21.53,52.38Z"/><path class="cls-1" d="M14.32,38.06a1.85,1.85,0,0,1-1.58-2.8L27.18,11.37a1.85,1.85,0,0,1,3.16,1.91L15.9,37.17A1.86,1.86,0,0,1,14.32,38.06Z"/><path class="cls-1" d="M33.6,33.41a1.85,1.85,0,0,1-1-.27L8.53,18.56a1.85,1.85,0,1,1,1.91-3.16L34.56,30a1.85,1.85,0,0,1-1,3.43Z"/><path class="cls-1" d="M35.48,24.8a1.85,1.85,0,0,1-.95-.27L15.34,12.93a1.85,1.85,0,0,1,1.91-3.16l19.19,11.6a1.85,1.85,0,0,1-1,3.43Z"/><path class="cls-1" d="M26.76,39.22a1.77,1.77,0,0,1-1-.27L6.62,27.35A1.84,1.84,0,1,1,8.53,24.2L27.71,35.8a1.83,1.83,0,0,1,.63,2.53A1.86,1.86,0,0,1,26.76,39.22Z"/><path class="cls-1" d="M38.63,57.69H4.52a1.85,1.85,0,0,1,0-3.69H38.63a1.85,1.85,0,1,1,0,3.69Z"/></g></g></svg>