<svg xmlns="http://www.w3.org/2000/svg" viewBox="0 0 57.69 53.64"><defs><style>.cls-1{fill:#f8f3d4;}</style></defs><g id="Layer_2" data-name="Layer 2"><g id="icons"><path class="cls-1" d="M33.82,48.78a1.84,1.84,0,0,1-1.26-3.19,24.18,24.18,0,0,1,16.16-7.16V3.75A23.49,23.49,0,0,0,30.45,14.32a1.84,1.84,0,0,1-3.21,0A23.24,23.24,0,0,0,9,3.75V38.43a24.18,24.18,0,0,1,16.16,7.16,1.84,1.84,0,1,1-2.52,2.69A20.74,20.74,0,0,0,7.13,42.07a1.85,1.85,0,0,1-1.85-1.84V1.85A1.85,1.85,0,0,1,7.13,0,27.28,27.28,0,0,1,28.85,10.2,27.24,27.24,0,0,1,50.56,0a1.85,1.85,0,0,1,1.85,1.85V40.23a1.85,1.85,0,0,1-1.85,1.84,20.74,20.74,0,0,0-15.48,6.21A1.82,1.82,0,0,1,33.82,48.78Z"/><path class="cls-1" d="M28.85,49A1.85,1.85,0,0,1,27,47.12V19a1.85,1.85,0,0,1,3.69,0V47.12A1.84,1.84,0,0,1,28.85,49Z"/><path class="cls-1" d="M55.85,53.64h-54A1.85,1.85,0,0,1,0,51.79V11.25A1.84,1.84,0,0,1,1.85,9.41H6.19a1.85,1.85,0,1,1,0,3.69H3.69V49.94H54V13.1H51.5a1.85,1.85,0,1,1,0-3.69h4.35a1.84,1.84,0,0,1,1.84,1.84V51.79A1.84,1.84,0,0,1,55.85,53.64Z"/></g></g></svg>