<svg xmlns="http://www.w3.org/2000/svg" viewBox="0 0 39.07 57.69"><defs><style>.cls-1{fill:#f8f3d4;}</style></defs><g id="Layer_2" data-name="Layer 2"><g id="icons"><path class="cls-1" d="M37.22,57.69H1.85A1.84,1.84,0,0,1,0,55.85V23.65a1.84,1.84,0,0,1,1.85-1.84H37.22a1.85,1.85,0,1,1,0,3.69H3.69V54H35.38V29.1a1.85,1.85,0,0,1,3.69,0V55.85A1.84,1.84,0,0,1,37.22,57.69Z"/><path class="cls-1" d="M19.53,57.69a1.84,1.84,0,0,1-1.84-1.84V23.65a1.85,1.85,0,0,1,3.69,0v32.2A1.84,1.84,0,0,1,19.53,57.69Z"/><path class="cls-1" d="M37.22,41.59H1.85a1.85,1.85,0,1,1,0-3.69H37.22a1.85,1.85,0,1,1,0,3.69Z"/><path class="cls-1" d="M19.53,19.69a1.85,1.85,0,0,1-1.84-2C17.82,15.9,19.19,0,28.29,0a8.74,8.74,0,0,1,3.19.65,7.56,7.56,0,0,1,4.6,8.74C35.11,14.51,29.61,19.69,19.53,19.69Zm8.76-16c-4.11,0-6,7.65-6.69,12.22C28.24,15.33,31.83,12,32.46,8.7a3.9,3.9,0,0,0-2.33-4.61A4.9,4.9,0,0,0,28.29,3.69Z"/><path class="cls-1" d="M19.53,19.69C9.45,19.69,4,14.51,3,9.39A7.58,7.58,0,0,1,7.58.65,8.75,8.75,0,0,1,10.78,0c9.1,0,10.47,15.9,10.6,17.71a1.86,1.86,0,0,1-1.85,2Zm-8.75-16a5.07,5.07,0,0,0-1.84.39A3.9,3.9,0,0,0,6.61,8.7c.62,3.3,4.21,6.63,10.85,7.21C16.81,11.34,14.88,3.69,10.78,3.69Z"/></g></g></svg>