<svg xmlns="http://www.w3.org/2000/svg" viewBox="0 0 57.69 55.23"><defs><style>.cls-1{fill:#f8f3d4;}</style></defs><g id="Layer_2" data-name="Layer 2"><g id="icons"><path class="cls-1" d="M44.37,55.23a5.93,5.93,0,0,1-2.74-.75L28.85,47.75,21,51.89a1.85,1.85,0,0,1-1.72-3.27L28,44a1.79,1.79,0,0,1,1.71,0l13.65,7.17a1.93,1.93,0,0,0,1.09.32,4.65,4.65,0,0,0,0-1.08L41.79,35.26a1.88,1.88,0,0,1,.53-1.64l11-10.75a1.93,1.93,0,0,0,.64-.94,4.76,4.76,0,0,0-1-.3L37.71,19.42a1.87,1.87,0,0,1-1.39-1l-4.39-8.9a1.84,1.84,0,0,1,3.31-1.63l4,8L53.48,18c2.08.3,3.55,1.34,4,2.85s-.09,3.22-1.59,4.68L45.59,35.59,48,49.82c.35,2.07-.19,3.79-1.47,4.72A3.67,3.67,0,0,1,44.37,55.23Z"/><path class="cls-1" d="M13.33,55.23a3.7,3.7,0,0,1-2.21-.69c-1.28-.93-1.82-2.65-1.47-4.71L12.1,35.59,1.76,25.51C.26,24.05-.32,22.35.17,20.84s2-2.56,4-2.86L18.49,15.9,24.89,3c.92-1.87,2.37-2.95,4-2.95h0c1.59,0,3,1.08,4,3a1.85,1.85,0,0,1-3.32,1.63c-.32-.65-.61-.88-.69-.9a4,4,0,0,0-.6.9L21.38,18.41a1.87,1.87,0,0,1-1.39,1L4.74,21.63A2,2,0,0,0,3.66,22a5.21,5.21,0,0,0,.68.85l11,10.75a1.88,1.88,0,0,1,.53,1.64L13.29,50.45a1.91,1.91,0,0,0,0,1.14,5.34,5.34,0,0,0,1-.38,1.85,1.85,0,1,1,1.72,3.27A5.93,5.93,0,0,1,13.33,55.23Z"/></g></g></svg>